G04 #@! TF.GenerationSoftware,KiCad,Pcbnew,(6.0.0)*
G04 #@! TF.CreationDate,2022-08-18T21:38:13-04:00*
G04 #@! TF.ProjectId,intellivision t-card replic,696e7465-6c6c-4697-9669-73696f6e2074,rev?*
G04 #@! TF.SameCoordinates,Original*
G04 #@! TF.FileFunction,Copper,L2,Bot*
G04 #@! TF.FilePolarity,Positive*
%FSLAX46Y46*%
G04 Gerber Fmt 4.6, Leading zero omitted, Abs format (unit mm)*
G04 Created by KiCad (PCBNEW (6.0.0)) date 2022-08-18 21:38:13*
%MOMM*%
%LPD*%
G01*
G04 APERTURE LIST*
%ADD10C,0.150000*%
G04 #@! TA.AperFunction,NonConductor*
%ADD11C,0.150000*%
G04 #@! TD*
%ADD12C,0.300000*%
G04 #@! TA.AperFunction,NonConductor*
%ADD13C,0.300000*%
G04 #@! TD*
G04 #@! TA.AperFunction,ComponentPad*
%ADD14C,1.600000*%
G04 #@! TD*
G04 #@! TA.AperFunction,ComponentPad*
%ADD15O,1.600000X1.600000*%
G04 #@! TD*
G04 #@! TA.AperFunction,ComponentPad*
%ADD16R,1.600000X1.600000*%
G04 #@! TD*
G04 #@! TA.AperFunction,ConnectorPad*
%ADD17R,1.270000X8.840000*%
G04 #@! TD*
G04 #@! TA.AperFunction,ViaPad*
%ADD18C,0.800000*%
G04 #@! TD*
G04 #@! TA.AperFunction,Conductor*
%ADD19C,1.000000*%
G04 #@! TD*
G04 #@! TA.AperFunction,Conductor*
%ADD20C,0.250000*%
G04 #@! TD*
G04 APERTURE END LIST*
D10*
D11*
X186777380Y-89916666D02*
X186777380Y-89440476D01*
X187253571Y-89392857D01*
X187205952Y-89440476D01*
X187158333Y-89535714D01*
X187158333Y-89773809D01*
X187205952Y-89869047D01*
X187253571Y-89916666D01*
X187348809Y-89964285D01*
X187586904Y-89964285D01*
X187682142Y-89916666D01*
X187729761Y-89869047D01*
X187777380Y-89773809D01*
X187777380Y-89535714D01*
X187729761Y-89440476D01*
X187682142Y-89392857D01*
X187205952Y-90535714D02*
X187158333Y-90440476D01*
X187110714Y-90392857D01*
X187015476Y-90345238D01*
X186967857Y-90345238D01*
X186872619Y-90392857D01*
X186825000Y-90440476D01*
X186777380Y-90535714D01*
X186777380Y-90726190D01*
X186825000Y-90821428D01*
X186872619Y-90869047D01*
X186967857Y-90916666D01*
X187015476Y-90916666D01*
X187110714Y-90869047D01*
X187158333Y-90821428D01*
X187205952Y-90726190D01*
X187205952Y-90535714D01*
X187253571Y-90440476D01*
X187301190Y-90392857D01*
X187396428Y-90345238D01*
X187586904Y-90345238D01*
X187682142Y-90392857D01*
X187729761Y-90440476D01*
X187777380Y-90535714D01*
X187777380Y-90726190D01*
X187729761Y-90821428D01*
X187682142Y-90869047D01*
X187586904Y-90916666D01*
X187396428Y-90916666D01*
X187301190Y-90869047D01*
X187253571Y-90821428D01*
X187205952Y-90726190D01*
X186777380Y-91821428D02*
X186777380Y-91345238D01*
X187253571Y-91297619D01*
X187205952Y-91345238D01*
X187158333Y-91440476D01*
X187158333Y-91678571D01*
X187205952Y-91773809D01*
X187253571Y-91821428D01*
X187348809Y-91869047D01*
X187586904Y-91869047D01*
X187682142Y-91821428D01*
X187729761Y-91773809D01*
X187777380Y-91678571D01*
X187777380Y-91440476D01*
X187729761Y-91345238D01*
X187682142Y-91297619D01*
X187777380Y-92345238D02*
X187777380Y-92535714D01*
X187729761Y-92630952D01*
X187682142Y-92678571D01*
X187539285Y-92773809D01*
X187348809Y-92821428D01*
X186967857Y-92821428D01*
X186872619Y-92773809D01*
X186825000Y-92726190D01*
X186777380Y-92630952D01*
X186777380Y-92440476D01*
X186825000Y-92345238D01*
X186872619Y-92297619D01*
X186967857Y-92250000D01*
X187205952Y-92250000D01*
X187301190Y-92297619D01*
X187348809Y-92345238D01*
X187396428Y-92440476D01*
X187396428Y-92630952D01*
X187348809Y-92726190D01*
X187301190Y-92773809D01*
X187205952Y-92821428D01*
X187396428Y-93250000D02*
X187396428Y-94011904D01*
X186777380Y-94392857D02*
X186777380Y-95011904D01*
X187158333Y-94678571D01*
X187158333Y-94821428D01*
X187205952Y-94916666D01*
X187253571Y-94964285D01*
X187348809Y-95011904D01*
X187586904Y-95011904D01*
X187682142Y-94964285D01*
X187729761Y-94916666D01*
X187777380Y-94821428D01*
X187777380Y-94535714D01*
X187729761Y-94440476D01*
X187682142Y-94392857D01*
X186872619Y-95392857D02*
X186825000Y-95440476D01*
X186777380Y-95535714D01*
X186777380Y-95773809D01*
X186825000Y-95869047D01*
X186872619Y-95916666D01*
X186967857Y-95964285D01*
X187063095Y-95964285D01*
X187205952Y-95916666D01*
X187777380Y-95345238D01*
X187777380Y-95964285D01*
X186872619Y-96345238D02*
X186825000Y-96392857D01*
X186777380Y-96488095D01*
X186777380Y-96726190D01*
X186825000Y-96821428D01*
X186872619Y-96869047D01*
X186967857Y-96916666D01*
X187063095Y-96916666D01*
X187205952Y-96869047D01*
X187777380Y-96297619D01*
X187777380Y-96916666D01*
X187777380Y-97392857D02*
X187777380Y-97583333D01*
X187729761Y-97678571D01*
X187682142Y-97726190D01*
X187539285Y-97821428D01*
X187348809Y-97869047D01*
X186967857Y-97869047D01*
X186872619Y-97821428D01*
X186825000Y-97773809D01*
X186777380Y-97678571D01*
X186777380Y-97488095D01*
X186825000Y-97392857D01*
X186872619Y-97345238D01*
X186967857Y-97297619D01*
X187205952Y-97297619D01*
X187301190Y-97345238D01*
X187348809Y-97392857D01*
X187396428Y-97488095D01*
X187396428Y-97678571D01*
X187348809Y-97773809D01*
X187301190Y-97821428D01*
X187205952Y-97869047D01*
X187396428Y-98297619D02*
X187396428Y-99059523D01*
X187777380Y-99535714D02*
X186777380Y-99535714D01*
X186777380Y-99916666D01*
X186825000Y-100011904D01*
X186872619Y-100059523D01*
X186967857Y-100107142D01*
X187110714Y-100107142D01*
X187205952Y-100059523D01*
X187253571Y-100011904D01*
X187301190Y-99916666D01*
X187301190Y-99535714D01*
X187777380Y-101107142D02*
X187301190Y-100773809D01*
X187777380Y-100535714D02*
X186777380Y-100535714D01*
X186777380Y-100916666D01*
X186825000Y-101011904D01*
X186872619Y-101059523D01*
X186967857Y-101107142D01*
X187110714Y-101107142D01*
X187205952Y-101059523D01*
X187253571Y-101011904D01*
X187301190Y-100916666D01*
X187301190Y-100535714D01*
D12*
D13*
X186503571Y-73220000D02*
X186503571Y-74077142D01*
X188003571Y-73648571D02*
X186503571Y-73648571D01*
X187432142Y-74577142D02*
X187432142Y-75720000D01*
X187860714Y-77291428D02*
X187932142Y-77220000D01*
X188003571Y-77005714D01*
X188003571Y-76862857D01*
X187932142Y-76648571D01*
X187789285Y-76505714D01*
X187646428Y-76434285D01*
X187360714Y-76362857D01*
X187146428Y-76362857D01*
X186860714Y-76434285D01*
X186717857Y-76505714D01*
X186575000Y-76648571D01*
X186503571Y-76862857D01*
X186503571Y-77005714D01*
X186575000Y-77220000D01*
X186646428Y-77291428D01*
X187575000Y-77862857D02*
X187575000Y-78577142D01*
X188003571Y-77720000D02*
X186503571Y-78220000D01*
X188003571Y-78720000D01*
X188003571Y-80077142D02*
X187289285Y-79577142D01*
X188003571Y-79220000D02*
X186503571Y-79220000D01*
X186503571Y-79791428D01*
X186575000Y-79934285D01*
X186646428Y-80005714D01*
X186789285Y-80077142D01*
X187003571Y-80077142D01*
X187146428Y-80005714D01*
X187217857Y-79934285D01*
X187289285Y-79791428D01*
X187289285Y-79220000D01*
X188003571Y-80720000D02*
X186503571Y-80720000D01*
X186503571Y-81077142D01*
X186575000Y-81291428D01*
X186717857Y-81434285D01*
X186860714Y-81505714D01*
X187146428Y-81577142D01*
X187360714Y-81577142D01*
X187646428Y-81505714D01*
X187789285Y-81434285D01*
X187932142Y-81291428D01*
X188003571Y-81077142D01*
X188003571Y-80720000D01*
D10*
D11*
X188317142Y-51276666D02*
X188364761Y-51229047D01*
X188412380Y-51086190D01*
X188412380Y-50990952D01*
X188364761Y-50848095D01*
X188269523Y-50752857D01*
X188174285Y-50705238D01*
X187983809Y-50657619D01*
X187840952Y-50657619D01*
X187650476Y-50705238D01*
X187555238Y-50752857D01*
X187460000Y-50848095D01*
X187412380Y-50990952D01*
X187412380Y-51086190D01*
X187460000Y-51229047D01*
X187507619Y-51276666D01*
X188412380Y-51705238D02*
X187745714Y-51705238D01*
X187412380Y-51705238D02*
X187460000Y-51657619D01*
X187507619Y-51705238D01*
X187460000Y-51752857D01*
X187412380Y-51705238D01*
X187507619Y-51705238D01*
X188412380Y-52181428D02*
X187745714Y-52181428D01*
X187936190Y-52181428D02*
X187840952Y-52229047D01*
X187793333Y-52276666D01*
X187745714Y-52371904D01*
X187745714Y-52467142D01*
X188364761Y-53229047D02*
X188412380Y-53133809D01*
X188412380Y-52943333D01*
X188364761Y-52848095D01*
X188317142Y-52800476D01*
X188221904Y-52752857D01*
X187936190Y-52752857D01*
X187840952Y-52800476D01*
X187793333Y-52848095D01*
X187745714Y-52943333D01*
X187745714Y-53133809D01*
X187793333Y-53229047D01*
X187745714Y-54086190D02*
X188412380Y-54086190D01*
X187745714Y-53657619D02*
X188269523Y-53657619D01*
X188364761Y-53705238D01*
X188412380Y-53800476D01*
X188412380Y-53943333D01*
X188364761Y-54038571D01*
X188317142Y-54086190D01*
X188412380Y-54562380D02*
X187745714Y-54562380D01*
X187412380Y-54562380D02*
X187460000Y-54514761D01*
X187507619Y-54562380D01*
X187460000Y-54610000D01*
X187412380Y-54562380D01*
X187507619Y-54562380D01*
X187745714Y-54895714D02*
X187745714Y-55276666D01*
X187412380Y-55038571D02*
X188269523Y-55038571D01*
X188364761Y-55086190D01*
X188412380Y-55181428D01*
X188412380Y-55276666D01*
X188412380Y-56848095D02*
X188412380Y-56371904D01*
X187412380Y-56371904D01*
X188412380Y-57610000D02*
X187888571Y-57610000D01*
X187793333Y-57562380D01*
X187745714Y-57467142D01*
X187745714Y-57276666D01*
X187793333Y-57181428D01*
X188364761Y-57610000D02*
X188412380Y-57514761D01*
X188412380Y-57276666D01*
X188364761Y-57181428D01*
X188269523Y-57133809D01*
X188174285Y-57133809D01*
X188079047Y-57181428D01*
X188031428Y-57276666D01*
X188031428Y-57514761D01*
X187983809Y-57610000D01*
X188412380Y-58086190D02*
X187412380Y-58086190D01*
X187793333Y-58086190D02*
X187745714Y-58181428D01*
X187745714Y-58371904D01*
X187793333Y-58467142D01*
X187840952Y-58514761D01*
X187936190Y-58562380D01*
X188221904Y-58562380D01*
X188317142Y-58514761D01*
X188364761Y-58467142D01*
X188412380Y-58371904D01*
X188412380Y-58181428D01*
X188364761Y-58086190D01*
D14*
X154940000Y-66675000D03*
D15*
X165100000Y-66675000D03*
D14*
X184150000Y-47625000D03*
D15*
X184150000Y-57785000D03*
D14*
X181610000Y-47625000D03*
D15*
X181610000Y-57785000D03*
D16*
X53975000Y-85725000D03*
D15*
X56515000Y-85725000D03*
X59055000Y-85725000D03*
X61595000Y-85725000D03*
X64135000Y-85725000D03*
X66675000Y-85725000D03*
X69215000Y-85725000D03*
X71755000Y-85725000D03*
X74295000Y-85725000D03*
X76835000Y-85725000D03*
X79375000Y-85725000D03*
X81915000Y-85725000D03*
X81915000Y-70485000D03*
X79375000Y-70485000D03*
X76835000Y-70485000D03*
X74295000Y-70485000D03*
X71755000Y-70485000D03*
X69215000Y-70485000D03*
X66675000Y-70485000D03*
X64135000Y-70485000D03*
X61595000Y-70485000D03*
X59055000Y-70485000D03*
X56515000Y-70485000D03*
X53975000Y-70485000D03*
D14*
X113030000Y-66675000D03*
D15*
X102870000Y-66675000D03*
D16*
X116840000Y-41275000D03*
D15*
X116840000Y-38735000D03*
X116840000Y-36195000D03*
X116840000Y-33655000D03*
X116840000Y-31115000D03*
X116840000Y-28575000D03*
X116840000Y-26035000D03*
X109220000Y-26035000D03*
X109220000Y-28575000D03*
X109220000Y-31115000D03*
X109220000Y-33655000D03*
X109220000Y-36195000D03*
X109220000Y-38735000D03*
X109220000Y-41275000D03*
D16*
X121920000Y-125730000D03*
D15*
X121920000Y-128270000D03*
X121920000Y-130810000D03*
X121920000Y-133350000D03*
X121920000Y-135890000D03*
X121920000Y-138430000D03*
X121920000Y-140970000D03*
X129540000Y-140970000D03*
X129540000Y-138430000D03*
X129540000Y-135890000D03*
X129540000Y-133350000D03*
X129540000Y-130810000D03*
X129540000Y-128270000D03*
X129540000Y-125730000D03*
D16*
X139700000Y-41275000D03*
D15*
X139700000Y-38735000D03*
X139700000Y-36195000D03*
X139700000Y-33655000D03*
X139700000Y-31115000D03*
X139700000Y-28575000D03*
X139700000Y-26035000D03*
X132080000Y-26035000D03*
X132080000Y-28575000D03*
X132080000Y-31115000D03*
X132080000Y-33655000D03*
X132080000Y-36195000D03*
X132080000Y-38735000D03*
X132080000Y-41275000D03*
D14*
X80645000Y-47625000D03*
D15*
X80645000Y-57785000D03*
D14*
X83185000Y-47625000D03*
D15*
X83185000Y-57785000D03*
D14*
X170815000Y-45720000D03*
X173315000Y-45720000D03*
X53975000Y-66675000D03*
D15*
X64135000Y-66675000D03*
D14*
X87630000Y-66675000D03*
D15*
X97790000Y-66675000D03*
D16*
X154940000Y-108585000D03*
D15*
X157480000Y-108585000D03*
X160020000Y-108585000D03*
X162560000Y-108585000D03*
X165100000Y-108585000D03*
X167640000Y-108585000D03*
X170180000Y-108585000D03*
X172720000Y-108585000D03*
X175260000Y-108585000D03*
X177800000Y-108585000D03*
X180340000Y-108585000D03*
X182880000Y-108585000D03*
X182880000Y-93345000D03*
X180340000Y-93345000D03*
X177800000Y-93345000D03*
X175260000Y-93345000D03*
X172720000Y-93345000D03*
X170180000Y-93345000D03*
X167640000Y-93345000D03*
X165100000Y-93345000D03*
X162560000Y-93345000D03*
X160020000Y-93345000D03*
X157480000Y-93345000D03*
X154940000Y-93345000D03*
D16*
X71755000Y-52705000D03*
D15*
X69215000Y-52705000D03*
X66675000Y-52705000D03*
X64135000Y-52705000D03*
X61595000Y-52705000D03*
X59055000Y-52705000D03*
X56515000Y-52705000D03*
X53975000Y-52705000D03*
X53975000Y-60325000D03*
X56515000Y-60325000D03*
X59055000Y-60325000D03*
X61595000Y-60325000D03*
X64135000Y-60325000D03*
X66675000Y-60325000D03*
X69215000Y-60325000D03*
X71755000Y-60325000D03*
D14*
X114300000Y-47625000D03*
D15*
X114300000Y-57785000D03*
D14*
X129540000Y-148590000D03*
X129540000Y-146090000D03*
D16*
X162550000Y-41232500D03*
D15*
X162550000Y-38692500D03*
X162550000Y-36152500D03*
X162550000Y-33612500D03*
X162550000Y-31072500D03*
X162550000Y-28532500D03*
X162550000Y-25992500D03*
X162550000Y-23452500D03*
X154930000Y-23452500D03*
X154930000Y-25992500D03*
X154930000Y-28532500D03*
X154930000Y-31072500D03*
X154930000Y-33612500D03*
X154930000Y-36152500D03*
X154930000Y-38692500D03*
X154930000Y-41232500D03*
D16*
X106045000Y-41275000D03*
D15*
X106045000Y-38735000D03*
X106045000Y-36195000D03*
X106045000Y-33655000D03*
X106045000Y-31115000D03*
X106045000Y-28575000D03*
X106045000Y-26035000D03*
X98425000Y-26035000D03*
X98425000Y-28575000D03*
X98425000Y-31115000D03*
X98425000Y-33655000D03*
X98425000Y-36195000D03*
X98425000Y-38735000D03*
X98425000Y-41275000D03*
D16*
X53975000Y-108585000D03*
D15*
X56515000Y-108585000D03*
X59055000Y-108585000D03*
X61595000Y-108585000D03*
X64135000Y-108585000D03*
X66675000Y-108585000D03*
X69215000Y-108585000D03*
X71755000Y-108585000D03*
X74295000Y-108585000D03*
X76835000Y-108585000D03*
X79375000Y-108585000D03*
X81915000Y-108585000D03*
X81915000Y-93345000D03*
X79375000Y-93345000D03*
X76835000Y-93345000D03*
X74295000Y-93345000D03*
X71755000Y-93345000D03*
X69215000Y-93345000D03*
X66675000Y-93345000D03*
X64135000Y-93345000D03*
X61595000Y-93345000D03*
X59055000Y-93345000D03*
X56515000Y-93345000D03*
X53975000Y-93345000D03*
D14*
X87630000Y-64135000D03*
D15*
X97790000Y-64135000D03*
D16*
X72390000Y-41275000D03*
D15*
X72390000Y-38735000D03*
X72390000Y-36195000D03*
X72390000Y-33655000D03*
X72390000Y-31115000D03*
X72390000Y-28575000D03*
X72390000Y-26035000D03*
X64770000Y-26035000D03*
X64770000Y-28575000D03*
X64770000Y-31115000D03*
X64770000Y-33655000D03*
X64770000Y-36195000D03*
X64770000Y-38735000D03*
X64770000Y-41275000D03*
D14*
X79375000Y-66675000D03*
D15*
X69215000Y-66675000D03*
D14*
X86000000Y-89535000D03*
X83500000Y-89535000D03*
X153670000Y-89535000D03*
X151170000Y-89535000D03*
X116840000Y-47625000D03*
D15*
X116840000Y-57785000D03*
D14*
X180340000Y-64135000D03*
D15*
X170180000Y-64135000D03*
D14*
X180340000Y-66675000D03*
D15*
X170180000Y-66675000D03*
D14*
X142875000Y-47625000D03*
D15*
X142875000Y-57785000D03*
D14*
X121285000Y-66675000D03*
D15*
X131445000Y-66675000D03*
D14*
X109220000Y-47625000D03*
D15*
X109220000Y-57785000D03*
D16*
X87630000Y-85725000D03*
D15*
X90170000Y-85725000D03*
X92710000Y-85725000D03*
X95250000Y-85725000D03*
X97790000Y-85725000D03*
X100330000Y-85725000D03*
X102870000Y-85725000D03*
X105410000Y-85725000D03*
X107950000Y-85725000D03*
X110490000Y-85725000D03*
X113030000Y-85725000D03*
X115570000Y-85725000D03*
X115570000Y-70485000D03*
X113030000Y-70485000D03*
X110490000Y-70485000D03*
X107950000Y-70485000D03*
X105410000Y-70485000D03*
X102870000Y-70485000D03*
X100330000Y-70485000D03*
X97790000Y-70485000D03*
X95250000Y-70485000D03*
X92710000Y-70485000D03*
X90170000Y-70485000D03*
X87630000Y-70485000D03*
D16*
X154945000Y-85725000D03*
D15*
X157485000Y-85725000D03*
X160025000Y-85725000D03*
X162565000Y-85725000D03*
X165105000Y-85725000D03*
X167645000Y-85725000D03*
X170185000Y-85725000D03*
X172725000Y-85725000D03*
X175265000Y-85725000D03*
X177805000Y-85725000D03*
X180345000Y-85725000D03*
X182885000Y-85725000D03*
X182885000Y-70485000D03*
X180345000Y-70485000D03*
X177805000Y-70485000D03*
X175265000Y-70485000D03*
X172725000Y-70485000D03*
X170185000Y-70485000D03*
X167645000Y-70485000D03*
X165105000Y-70485000D03*
X162565000Y-70485000D03*
X160025000Y-70485000D03*
X157485000Y-70485000D03*
X154945000Y-70485000D03*
D14*
X145415000Y-47625000D03*
D15*
X145415000Y-57785000D03*
D14*
X97790000Y-148590000D03*
X97790000Y-146090000D03*
D16*
X97790000Y-157480000D03*
D15*
X97790000Y-160020000D03*
X97790000Y-162560000D03*
X97790000Y-165100000D03*
X97790000Y-167640000D03*
X97790000Y-170180000D03*
X97790000Y-172720000D03*
X97790000Y-175260000D03*
X105410000Y-175260000D03*
X105410000Y-172720000D03*
X105410000Y-170180000D03*
X105410000Y-167640000D03*
X105410000Y-165100000D03*
X105410000Y-162560000D03*
X105410000Y-160020000D03*
X105410000Y-157480000D03*
D16*
X172720000Y-52705000D03*
D15*
X170180000Y-52705000D03*
X167640000Y-52705000D03*
X165100000Y-52705000D03*
X162560000Y-52705000D03*
X160020000Y-52705000D03*
X157480000Y-52705000D03*
X154940000Y-52705000D03*
X154940000Y-60325000D03*
X157480000Y-60325000D03*
X160020000Y-60325000D03*
X162560000Y-60325000D03*
X165100000Y-60325000D03*
X167640000Y-60325000D03*
X170180000Y-60325000D03*
X172720000Y-60325000D03*
D14*
X106680000Y-121920000D03*
X106680000Y-119420000D03*
X139700000Y-45720000D03*
X137200000Y-45720000D03*
D16*
X114300000Y-152400000D03*
D15*
X114300000Y-154940000D03*
X114300000Y-157480000D03*
X114300000Y-160020000D03*
X114300000Y-162560000D03*
X114300000Y-165100000D03*
X114300000Y-167640000D03*
X114300000Y-170180000D03*
X114300000Y-172720000D03*
X114300000Y-175260000D03*
X121920000Y-175260000D03*
X121920000Y-172720000D03*
X121920000Y-170180000D03*
X121920000Y-167640000D03*
X121920000Y-165100000D03*
X121920000Y-162560000D03*
X121920000Y-160020000D03*
X121920000Y-157480000D03*
X121920000Y-154940000D03*
X121920000Y-152400000D03*
D16*
X128905000Y-41275000D03*
D15*
X128905000Y-38735000D03*
X128905000Y-36195000D03*
X128905000Y-33655000D03*
X128905000Y-31115000D03*
X128905000Y-28575000D03*
X128905000Y-26035000D03*
X128905000Y-23495000D03*
X121285000Y-23495000D03*
X121285000Y-26035000D03*
X121285000Y-28575000D03*
X121285000Y-31115000D03*
X121285000Y-33655000D03*
X121285000Y-36195000D03*
X121285000Y-38735000D03*
X121285000Y-41275000D03*
D14*
X176530000Y-47582500D03*
D15*
X176530000Y-57742500D03*
D16*
X129540000Y-152400000D03*
D15*
X129540000Y-154940000D03*
X129540000Y-157480000D03*
X129540000Y-160020000D03*
X129540000Y-162560000D03*
X129540000Y-165100000D03*
X129540000Y-167640000D03*
X129540000Y-170180000D03*
X129540000Y-172720000D03*
X129540000Y-175260000D03*
X137160000Y-175260000D03*
X137160000Y-172720000D03*
X137160000Y-170180000D03*
X137160000Y-167640000D03*
X137160000Y-165100000D03*
X137160000Y-162560000D03*
X137160000Y-160020000D03*
X137160000Y-157480000D03*
X137160000Y-154940000D03*
X137160000Y-152400000D03*
D14*
X146685000Y-64135000D03*
D15*
X136525000Y-64135000D03*
D16*
X184140000Y-41237500D03*
D15*
X184140000Y-38697500D03*
X184140000Y-36157500D03*
X184140000Y-33617500D03*
X184140000Y-31077500D03*
X184140000Y-28537500D03*
X184140000Y-25997500D03*
X176520000Y-25997500D03*
X176520000Y-28537500D03*
X176520000Y-31077500D03*
X176520000Y-33617500D03*
X176520000Y-36157500D03*
X176520000Y-38697500D03*
X176520000Y-41237500D03*
D16*
X121285000Y-85725000D03*
D15*
X123825000Y-85725000D03*
X126365000Y-85725000D03*
X128905000Y-85725000D03*
X131445000Y-85725000D03*
X133985000Y-85725000D03*
X136525000Y-85725000D03*
X139065000Y-85725000D03*
X141605000Y-85725000D03*
X144145000Y-85725000D03*
X146685000Y-85725000D03*
X149225000Y-85725000D03*
X149225000Y-70485000D03*
X146685000Y-70485000D03*
X144145000Y-70485000D03*
X141605000Y-70485000D03*
X139065000Y-70485000D03*
X136525000Y-70485000D03*
X133985000Y-70485000D03*
X131445000Y-70485000D03*
X128905000Y-70485000D03*
X126365000Y-70485000D03*
X123825000Y-70485000D03*
X121285000Y-70485000D03*
D14*
X114300000Y-148590000D03*
X114300000Y-146090000D03*
D16*
X139065000Y-52705000D03*
D15*
X136525000Y-52705000D03*
X133985000Y-52705000D03*
X131445000Y-52705000D03*
X128905000Y-52705000D03*
X126365000Y-52705000D03*
X123825000Y-52705000D03*
X121285000Y-52705000D03*
X121285000Y-60325000D03*
X123825000Y-60325000D03*
X126365000Y-60325000D03*
X128905000Y-60325000D03*
X131445000Y-60325000D03*
X133985000Y-60325000D03*
X136525000Y-60325000D03*
X139065000Y-60325000D03*
D14*
X113030000Y-64135000D03*
D15*
X102870000Y-64135000D03*
D14*
X146685000Y-66675000D03*
D15*
X136525000Y-66675000D03*
D14*
X56475000Y-111760000D03*
X53975000Y-111760000D03*
D17*
X144665700Y-187960000D03*
X142125700Y-187960000D03*
X139585700Y-187960000D03*
X137045700Y-187960000D03*
X134505700Y-187960000D03*
X131965700Y-187960000D03*
X129425700Y-187960000D03*
X126885700Y-187960000D03*
X124345700Y-187960000D03*
X121805700Y-187960000D03*
X119265700Y-187960000D03*
X116725700Y-187960000D03*
X114185700Y-187960000D03*
X111645700Y-187960000D03*
X109105700Y-187960000D03*
X106565700Y-187960000D03*
X104025700Y-187960000D03*
X101485700Y-187960000D03*
X98945700Y-187960000D03*
X96405700Y-187960000D03*
X93865700Y-187960000D03*
X91325700Y-187960000D03*
D16*
X121285000Y-108585000D03*
D15*
X123825000Y-108585000D03*
X126365000Y-108585000D03*
X128905000Y-108585000D03*
X131445000Y-108585000D03*
X133985000Y-108585000D03*
X136525000Y-108585000D03*
X139065000Y-108585000D03*
X141605000Y-108585000D03*
X144145000Y-108585000D03*
X146685000Y-108585000D03*
X149225000Y-108585000D03*
X149225000Y-93345000D03*
X146685000Y-93345000D03*
X144145000Y-93345000D03*
X141605000Y-93345000D03*
X139065000Y-93345000D03*
X136525000Y-93345000D03*
X133985000Y-93345000D03*
X131445000Y-93345000D03*
X128905000Y-93345000D03*
X126365000Y-93345000D03*
X123825000Y-93345000D03*
X121285000Y-93345000D03*
D14*
X180360000Y-89535000D03*
X182860000Y-89535000D03*
D16*
X87630000Y-108585000D03*
D15*
X90170000Y-108585000D03*
X92710000Y-108585000D03*
X95250000Y-108585000D03*
X97790000Y-108585000D03*
X100330000Y-108585000D03*
X102870000Y-108585000D03*
X105410000Y-108585000D03*
X107950000Y-108585000D03*
X110490000Y-108585000D03*
X113030000Y-108585000D03*
X115570000Y-108585000D03*
X115570000Y-93345000D03*
X113030000Y-93345000D03*
X110490000Y-93345000D03*
X107950000Y-93345000D03*
X105410000Y-93345000D03*
X102870000Y-93345000D03*
X100330000Y-93345000D03*
X97790000Y-93345000D03*
X95250000Y-93345000D03*
X92710000Y-93345000D03*
X90170000Y-93345000D03*
X87630000Y-93345000D03*
D16*
X150495000Y-41275000D03*
D15*
X150495000Y-38735000D03*
X150495000Y-36195000D03*
X150495000Y-33655000D03*
X150495000Y-31115000D03*
X150495000Y-28575000D03*
X150495000Y-26035000D03*
X142875000Y-26035000D03*
X142875000Y-28575000D03*
X142875000Y-31115000D03*
X142875000Y-33655000D03*
X142875000Y-36195000D03*
X142875000Y-38735000D03*
X142875000Y-41275000D03*
D14*
X114300000Y-121920000D03*
X114300000Y-119420000D03*
X154940000Y-64135000D03*
D15*
X165100000Y-64135000D03*
D14*
X150495000Y-47625000D03*
D15*
X150495000Y-57785000D03*
D14*
X64750000Y-45720000D03*
X62250000Y-45720000D03*
X75565000Y-47625000D03*
D15*
X75565000Y-57785000D03*
D14*
X79375000Y-64135000D03*
D15*
X69215000Y-64135000D03*
D14*
X111760000Y-47625000D03*
D15*
X111760000Y-57785000D03*
D14*
X53975000Y-64135000D03*
D15*
X64135000Y-64135000D03*
D14*
X106025000Y-45720000D03*
X103525000Y-45720000D03*
D16*
X83185000Y-41275000D03*
D15*
X83185000Y-38735000D03*
X83185000Y-36195000D03*
X83185000Y-33655000D03*
X83185000Y-31115000D03*
X83185000Y-28575000D03*
X83185000Y-26035000D03*
X75565000Y-26035000D03*
X75565000Y-28575000D03*
X75565000Y-31115000D03*
X75565000Y-33655000D03*
X75565000Y-36195000D03*
X75565000Y-38735000D03*
X75565000Y-41275000D03*
D16*
X61595000Y-41275000D03*
D15*
X61595000Y-38735000D03*
X61595000Y-36195000D03*
X61595000Y-33655000D03*
X61595000Y-31115000D03*
X61595000Y-28575000D03*
X61595000Y-26035000D03*
X61595000Y-23495000D03*
X53975000Y-23495000D03*
X53975000Y-26035000D03*
X53975000Y-28575000D03*
X53975000Y-31115000D03*
X53975000Y-33655000D03*
X53975000Y-36195000D03*
X53975000Y-38735000D03*
X53975000Y-41275000D03*
D16*
X106680000Y-125730000D03*
D15*
X106680000Y-128270000D03*
X106680000Y-130810000D03*
X106680000Y-133350000D03*
X106680000Y-135890000D03*
X106680000Y-138430000D03*
X106680000Y-140970000D03*
X114300000Y-140970000D03*
X114300000Y-138430000D03*
X114300000Y-135890000D03*
X114300000Y-133350000D03*
X114300000Y-130810000D03*
X114300000Y-128270000D03*
X114300000Y-125730000D03*
D16*
X95250000Y-41275000D03*
D15*
X95250000Y-38735000D03*
X95250000Y-36195000D03*
X95250000Y-33655000D03*
X95250000Y-31115000D03*
X95250000Y-28575000D03*
X95250000Y-26035000D03*
X95250000Y-23495000D03*
X87630000Y-23495000D03*
X87630000Y-26035000D03*
X87630000Y-28575000D03*
X87630000Y-31115000D03*
X87630000Y-33655000D03*
X87630000Y-36195000D03*
X87630000Y-38735000D03*
X87630000Y-41275000D03*
D14*
X78105000Y-47625000D03*
D15*
X78105000Y-57785000D03*
D14*
X121285000Y-64135000D03*
D15*
X131445000Y-64135000D03*
D14*
X179070000Y-47625000D03*
D15*
X179070000Y-57785000D03*
D14*
X147955000Y-47625000D03*
D15*
X147955000Y-57785000D03*
D16*
X105410000Y-52705000D03*
D15*
X102870000Y-52705000D03*
X100330000Y-52705000D03*
X97790000Y-52705000D03*
X95250000Y-52705000D03*
X92710000Y-52705000D03*
X90170000Y-52705000D03*
X87630000Y-52705000D03*
X87630000Y-60325000D03*
X90170000Y-60325000D03*
X92710000Y-60325000D03*
X95250000Y-60325000D03*
X97790000Y-60325000D03*
X100330000Y-60325000D03*
X102870000Y-60325000D03*
X105410000Y-60325000D03*
D16*
X173335000Y-41237500D03*
D15*
X173335000Y-38697500D03*
X173335000Y-36157500D03*
X173335000Y-33617500D03*
X173335000Y-31077500D03*
X173335000Y-28537500D03*
X173335000Y-25997500D03*
X165715000Y-25997500D03*
X165715000Y-28537500D03*
X165715000Y-31077500D03*
X165715000Y-33617500D03*
X165715000Y-36157500D03*
X165715000Y-38697500D03*
X165715000Y-41237500D03*
D18*
X95250000Y-121920000D03*
X129654300Y-180454300D03*
X182880000Y-114300000D03*
X149225000Y-114300000D03*
X82175000Y-60325000D03*
X183515000Y-62230000D03*
X144780000Y-180340000D03*
X133985000Y-156845000D03*
X106680000Y-61595000D03*
X174000000Y-63000000D03*
X140970000Y-62865000D03*
X107950000Y-105410000D03*
X141605000Y-105410000D03*
X175260000Y-105410000D03*
X137795000Y-123825000D03*
X133985000Y-123825000D03*
X132080000Y-158750000D03*
X142500000Y-65000000D03*
X108000000Y-64000000D03*
X176000000Y-65000000D03*
X133350000Y-122555000D03*
X138430000Y-126365000D03*
X110490000Y-106680000D03*
X144145000Y-106680000D03*
X177800000Y-106680000D03*
X144145000Y-66675000D03*
X131445000Y-168910000D03*
X111000000Y-66500000D03*
X177805000Y-66695000D03*
X139700000Y-171450000D03*
X149000000Y-68500000D03*
X115500000Y-68500000D03*
X120015000Y-169545000D03*
X128270000Y-177165000D03*
X139700000Y-177165000D03*
X118745000Y-170815000D03*
X146685000Y-95250000D03*
X180340000Y-95250000D03*
X113030000Y-95250000D03*
X117475000Y-166370000D03*
X117475000Y-163830000D03*
X177800000Y-96520000D03*
X144145000Y-96520000D03*
X110490000Y-96520000D03*
X107950000Y-97790000D03*
X111125000Y-173990000D03*
X141605000Y-97790000D03*
X175260000Y-97790000D03*
X110490000Y-87630000D03*
X144150000Y-87625000D03*
X177805000Y-87625000D03*
X109855000Y-175895000D03*
X108585000Y-157480000D03*
X175265000Y-88895000D03*
X107950000Y-88900000D03*
X141459511Y-88410489D03*
X139065000Y-99060000D03*
X105410000Y-99060000D03*
X107315000Y-156210000D03*
X172720000Y-99060000D03*
X163830000Y-54610000D03*
X162560000Y-46355000D03*
X155575000Y-46355000D03*
X130029511Y-54470489D03*
X128905000Y-46355000D03*
X121285000Y-46355000D03*
X96520000Y-54610000D03*
X87630000Y-45720000D03*
X95250000Y-45720000D03*
X69215000Y-37465000D03*
X107950000Y-153670000D03*
X135255000Y-152400000D03*
X123190000Y-119380000D03*
X90000000Y-75500000D03*
X157480000Y-75565000D03*
X128270000Y-119380000D03*
X123500000Y-75500000D03*
X125095000Y-115570000D03*
X126365000Y-74135000D03*
X160020000Y-74295000D03*
X92500000Y-74500000D03*
X130810000Y-115570000D03*
X170815000Y-37465000D03*
X105410000Y-90805000D03*
X139065000Y-90805000D03*
X172720000Y-90805000D03*
X125730000Y-172720000D03*
X162560000Y-81915000D03*
X128939511Y-82060489D03*
X95250000Y-82200000D03*
X160020000Y-81280000D03*
X92710000Y-81240000D03*
X126385000Y-81240000D03*
X167640000Y-83820000D03*
X100255000Y-83820000D03*
X133980000Y-83820000D03*
X90175489Y-80099511D03*
X123750489Y-80099511D03*
X157480000Y-80010000D03*
X165100000Y-82550000D03*
X131465000Y-82785000D03*
X97790000Y-82785000D03*
X87630000Y-79270000D03*
X121230000Y-79270000D03*
X154940000Y-79375000D03*
X75565000Y-111125000D03*
X103505000Y-120650000D03*
X100330000Y-123825000D03*
X78105000Y-109855000D03*
X100330000Y-119380000D03*
X97790000Y-119380000D03*
X60325000Y-111125000D03*
X97790000Y-123825000D03*
X133985000Y-115570000D03*
X152400000Y-108585000D03*
X102235000Y-134620000D03*
X132715000Y-117475000D03*
X179070000Y-104140000D03*
X127635000Y-113665000D03*
X149225000Y-49530000D03*
X79375000Y-50800000D03*
X80645000Y-110490000D03*
X131445000Y-102235000D03*
X97790000Y-102235000D03*
X165100000Y-102235000D03*
D19*
X153035000Y-64135000D02*
X153035000Y-51435000D01*
X52775978Y-66675000D02*
X52475489Y-66975489D01*
X87630000Y-64135000D02*
X85635000Y-64135000D01*
X154940000Y-90805000D02*
X153670000Y-89535000D01*
X153035000Y-66675000D02*
X153035000Y-69850000D01*
X119785489Y-87785489D02*
X119785489Y-70714511D01*
X85583551Y-70626449D02*
X85583551Y-83583551D01*
X121285000Y-66675000D02*
X119825000Y-66675000D01*
X121285000Y-64135000D02*
X121285000Y-66675000D01*
D20*
X181610000Y-88285000D02*
X181610000Y-67945000D01*
D19*
X85635000Y-64135000D02*
X85583551Y-64083551D01*
X119785489Y-66714511D02*
X119785489Y-64285489D01*
X97790000Y-148590000D02*
X91440000Y-148590000D01*
X53975000Y-70485000D02*
X52985000Y-70485000D01*
X154940000Y-64135000D02*
X154940000Y-66675000D01*
X121285000Y-64135000D02*
X119935978Y-64135000D01*
X52475489Y-113475489D02*
X52583551Y-113583551D01*
D20*
X180360000Y-89535000D02*
X181610000Y-88285000D01*
D19*
X119785489Y-70714511D02*
X119785489Y-66714511D01*
X52475489Y-69975489D02*
X52475489Y-93475489D01*
X186055000Y-47625000D02*
X186055000Y-59690000D01*
X180340000Y-59690000D02*
X180340000Y-64135000D01*
X153035000Y-88900000D02*
X153670000Y-89535000D01*
D20*
X181610000Y-67945000D02*
X180340000Y-66675000D01*
D19*
X154940000Y-66675000D02*
X153035000Y-66675000D01*
X119785489Y-64285489D02*
X119785489Y-42714511D01*
X91440000Y-121920000D02*
X95250000Y-121920000D01*
X111760000Y-43815000D02*
X109220000Y-41275000D01*
X91325700Y-113616402D02*
X91325700Y-122034300D01*
X85583551Y-43321449D02*
X85583551Y-48000000D01*
X119785489Y-42714511D02*
X121225000Y-41275000D01*
X153035000Y-69850000D02*
X153035000Y-88900000D01*
X154305000Y-50165000D02*
X154305000Y-41857500D01*
X85845000Y-93345000D02*
X85583551Y-93083551D01*
X87630000Y-41275000D02*
X85583551Y-43321449D01*
X56475000Y-113475000D02*
X56583551Y-113583551D01*
X87630000Y-70485000D02*
X85725000Y-70485000D01*
X113030000Y-64135000D02*
X113030000Y-66675000D01*
X85008551Y-113583551D02*
X91358551Y-113583551D01*
X154940000Y-64135000D02*
X153035000Y-64135000D01*
X121285000Y-70485000D02*
X120015000Y-70485000D01*
X153035000Y-51435000D02*
X154305000Y-50165000D01*
X79375000Y-64135000D02*
X79375000Y-66675000D01*
X53975000Y-66675000D02*
X52775978Y-66675000D01*
X85583551Y-93083551D02*
X85583551Y-113583551D01*
X85583551Y-83583551D02*
X85583551Y-93083551D01*
X52475489Y-64024511D02*
X52475489Y-66975489D01*
X75565000Y-47625000D02*
X75565000Y-41275000D01*
X52583551Y-113583551D02*
X57916449Y-113583551D01*
X85008551Y-113583551D02*
X85583551Y-113583551D01*
X154940000Y-93345000D02*
X154940000Y-90805000D01*
X91440000Y-148590000D02*
X91325700Y-148704300D01*
X85583551Y-64083551D02*
X85583551Y-66916449D01*
X52475489Y-42774511D02*
X52475489Y-64024511D01*
X91325700Y-122034300D02*
X91325700Y-148704300D01*
X154305000Y-41857500D02*
X154930000Y-41232500D01*
X87630000Y-93345000D02*
X85845000Y-93345000D01*
X121285000Y-93345000D02*
X121285000Y-89285000D01*
X52475489Y-93475489D02*
X52475489Y-113475489D01*
X52475489Y-66975489D02*
X52475489Y-69975489D01*
X153035000Y-69850000D02*
X153035000Y-70485000D01*
X91325700Y-148704300D02*
X91325700Y-187960000D01*
X56475000Y-111760000D02*
X56475000Y-113475000D01*
X53975000Y-64135000D02*
X52585978Y-64135000D01*
X146685000Y-64135000D02*
X146685000Y-66675000D01*
X53975000Y-64135000D02*
X53975000Y-66675000D01*
X142875000Y-47625000D02*
X142875000Y-41275000D01*
X52985000Y-70485000D02*
X52475489Y-69975489D01*
X85825000Y-66675000D02*
X85583551Y-66916449D01*
X119825000Y-66675000D02*
X119785489Y-66714511D01*
X87630000Y-64135000D02*
X87630000Y-66675000D01*
X85583551Y-48000000D02*
X85583551Y-64083551D01*
X56583551Y-113583551D02*
X57916449Y-113583551D01*
X53975000Y-41275000D02*
X52475489Y-42774511D01*
X52605978Y-93345000D02*
X52475489Y-93475489D01*
X121225000Y-41275000D02*
X121285000Y-41275000D01*
X91358551Y-113583551D02*
X91325700Y-113616402D01*
X120015000Y-70485000D02*
X119785489Y-70714511D01*
X153035000Y-70485000D02*
X154945000Y-70485000D01*
X119935978Y-64135000D02*
X119785489Y-64285489D01*
X153035000Y-64135000D02*
X153035000Y-66675000D01*
X121285000Y-89285000D02*
X119785489Y-87785489D01*
X184150000Y-47582500D02*
X186012500Y-47582500D01*
X91325700Y-122034300D02*
X91440000Y-121920000D01*
X186012500Y-47582500D02*
X186055000Y-47625000D01*
X52585978Y-64135000D02*
X52475489Y-64024511D01*
X85725000Y-70485000D02*
X85583551Y-70626449D01*
X53975000Y-93345000D02*
X52605978Y-93345000D01*
X180340000Y-64135000D02*
X180340000Y-66675000D01*
X186055000Y-59690000D02*
X180340000Y-59690000D01*
X57916449Y-113583551D02*
X85008551Y-113583551D01*
X85583551Y-66916449D02*
X85583551Y-70626449D01*
X111760000Y-47625000D02*
X111760000Y-43815000D01*
X87630000Y-66675000D02*
X85825000Y-66675000D01*
X112395000Y-152400000D02*
X114300000Y-152400000D01*
X93500000Y-34000000D02*
X93500000Y-38500000D01*
X93845000Y-33655000D02*
X93500000Y-34000000D01*
X144780000Y-136525000D02*
X144780000Y-180340000D01*
X113030000Y-138430000D02*
X112395000Y-139065000D01*
X117069511Y-92723881D02*
X117069511Y-108430489D01*
X173315000Y-50300978D02*
X173315000Y-45720000D01*
X162550000Y-38692500D02*
X161247500Y-38692500D01*
X140564511Y-58825489D02*
X139065000Y-60325000D01*
X83415000Y-108585000D02*
X81915000Y-108585000D01*
X114300000Y-119420000D02*
X112435000Y-119420000D01*
X184785000Y-85725000D02*
X184785000Y-63500000D01*
X162550000Y-33612500D02*
X160697500Y-33612500D01*
X139700000Y-38735000D02*
X139700000Y-41275000D01*
X93500000Y-23500000D02*
X93500000Y-34000000D01*
X174625000Y-57150000D02*
X174625000Y-51610978D01*
X160655000Y-33655000D02*
X160655000Y-38100000D01*
X149542500Y-89852500D02*
X151130000Y-91440000D01*
X140564511Y-47814859D02*
X140564511Y-58825489D01*
X59690000Y-23495000D02*
X61595000Y-23495000D01*
X161247500Y-38692500D02*
X160655000Y-38100000D01*
X128905000Y-33655000D02*
X127000000Y-33655000D01*
X83500000Y-108500000D02*
X83415000Y-108585000D01*
X172720000Y-60325000D02*
X172720000Y-59055000D01*
X145604520Y-135890000D02*
X145415000Y-135890000D01*
X106045000Y-38735000D02*
X106045000Y-41275000D01*
X83500000Y-61000000D02*
X83500000Y-85500000D01*
X114300000Y-130810000D02*
X112395000Y-130810000D01*
X103545000Y-26035000D02*
X106045000Y-26035000D01*
X127000000Y-23495000D02*
X128905000Y-23495000D01*
X61595000Y-38735000D02*
X59690000Y-38735000D01*
X151130000Y-102235000D02*
X149225000Y-104140000D01*
X149225000Y-114300000D02*
X145604520Y-114300000D01*
X112435000Y-119420000D02*
X112395000Y-119460000D01*
X149225000Y-104140000D02*
X149225000Y-114300000D01*
X95250000Y-33655000D02*
X93845000Y-33655000D01*
X145415000Y-135890000D02*
X144780000Y-136525000D01*
X131445000Y-138430000D02*
X129540000Y-138430000D01*
X173335000Y-41237500D02*
X173335000Y-45700000D01*
X141497185Y-43072185D02*
X141497185Y-46882185D01*
X151130000Y-91440000D02*
X151130000Y-102235000D01*
X103525000Y-45720000D02*
X103525000Y-26055000D01*
X137200000Y-26075000D02*
X137200000Y-45720000D01*
X117069511Y-108430489D02*
X116915000Y-108585000D01*
X144780000Y-187845700D02*
X144665700Y-187960000D01*
X173335000Y-38697500D02*
X173335000Y-41237500D01*
X182880000Y-114300000D02*
X182880000Y-108585000D01*
X112395000Y-146050000D02*
X112395000Y-152400000D01*
X115570000Y-91224370D02*
X117069511Y-92723881D01*
X107524511Y-58210489D02*
X105410000Y-60325000D01*
X129654300Y-175374300D02*
X129540000Y-175260000D01*
X115570000Y-85725000D02*
X115570000Y-91224370D01*
X131445000Y-150495000D02*
X131445000Y-138430000D01*
X129540000Y-152400000D02*
X131445000Y-150495000D01*
X182880000Y-108585000D02*
X184785000Y-108585000D01*
X116915000Y-108585000D02*
X115570000Y-108585000D01*
X162550000Y-23452500D02*
X160697500Y-23452500D01*
X182860000Y-89535000D02*
X184785000Y-89535000D01*
X82825000Y-60325000D02*
X83500000Y-61000000D01*
X149225000Y-85725000D02*
X149225000Y-89535000D01*
X145604520Y-114300000D02*
X145604520Y-135890000D01*
X107524511Y-42754511D02*
X107524511Y-58210489D01*
X149860000Y-89535000D02*
X149542500Y-89852500D01*
X59690000Y-45720000D02*
X59690000Y-38735000D01*
X114300000Y-138430000D02*
X113030000Y-138430000D01*
X112395000Y-130810000D02*
X112395000Y-135890000D01*
X93735000Y-38735000D02*
X95250000Y-38735000D01*
X112435000Y-146090000D02*
X112395000Y-146050000D01*
X93505000Y-23495000D02*
X93500000Y-23500000D01*
X160697500Y-23452500D02*
X160655000Y-23495000D01*
X127000000Y-38735000D02*
X127000000Y-33655000D01*
X83500000Y-85500000D02*
X83500000Y-89535000D01*
X59690000Y-33655000D02*
X59690000Y-23495000D01*
D20*
X73050480Y-59029520D02*
X71755000Y-60325000D01*
D19*
X144780000Y-180340000D02*
X144780000Y-187845700D01*
X160655000Y-23495000D02*
X160655000Y-33655000D01*
X139700000Y-26035000D02*
X137240000Y-26035000D01*
X112395000Y-139065000D02*
X112395000Y-146050000D01*
X61595000Y-33655000D02*
X59690000Y-33655000D01*
X184785000Y-63500000D02*
X183515000Y-62230000D01*
X103525000Y-26055000D02*
X103545000Y-26035000D01*
X151170000Y-89535000D02*
X149860000Y-89535000D01*
D20*
X72390000Y-38735000D02*
X72390000Y-41275000D01*
D19*
X112395000Y-135890000D02*
X112395000Y-139065000D01*
X106045000Y-41275000D02*
X107524511Y-42754511D01*
X114300000Y-146090000D02*
X112435000Y-146090000D01*
X81915000Y-85725000D02*
X83275000Y-85725000D01*
X62250000Y-45720000D02*
X59690000Y-45720000D01*
X127000000Y-33655000D02*
X127000000Y-23495000D01*
X83500000Y-89535000D02*
X83500000Y-108500000D01*
X112395000Y-119460000D02*
X112395000Y-128270000D01*
X128905000Y-38735000D02*
X127000000Y-38735000D01*
X129654300Y-180454300D02*
X129654300Y-175374300D01*
X184785000Y-108585000D02*
X184785000Y-89535000D01*
X173335000Y-45700000D02*
X173315000Y-45720000D01*
X83275000Y-85725000D02*
X83500000Y-85500000D01*
D20*
X72390000Y-41275000D02*
X73050480Y-41935480D01*
D19*
X93500000Y-38500000D02*
X93735000Y-38735000D01*
X172720000Y-59055000D02*
X174625000Y-57150000D01*
X95250000Y-23495000D02*
X93505000Y-23495000D01*
X82175000Y-60325000D02*
X82825000Y-60325000D01*
X182885000Y-85725000D02*
X184785000Y-85725000D01*
D20*
X73050480Y-41935480D02*
X73050480Y-59029520D01*
D19*
X114300000Y-128270000D02*
X112395000Y-128270000D01*
X114300000Y-135890000D02*
X112395000Y-135890000D01*
X149225000Y-89535000D02*
X149542500Y-89852500D01*
X141497185Y-46882185D02*
X140564511Y-47814859D01*
X112395000Y-128270000D02*
X112395000Y-130810000D01*
X139700000Y-41275000D02*
X141497185Y-43072185D01*
X59690000Y-38735000D02*
X59690000Y-33655000D01*
X184785000Y-89535000D02*
X184785000Y-85725000D01*
X160697500Y-33612500D02*
X160655000Y-33655000D01*
X174625000Y-51610978D02*
X173315000Y-50300978D01*
X137240000Y-26035000D02*
X137200000Y-26075000D01*
D20*
X106680000Y-61595000D02*
X118110000Y-61595000D01*
X105410000Y-62865000D02*
X106680000Y-61595000D01*
X133985000Y-175895000D02*
X133985000Y-156845000D01*
X172725000Y-70485000D02*
X172725000Y-64275000D01*
X139585700Y-187960000D02*
X139585700Y-181495700D01*
X118511449Y-61996449D02*
X118511449Y-88313215D01*
X118511449Y-88313215D02*
X119710969Y-89512735D01*
X118110000Y-61595000D02*
X118511449Y-61996449D01*
X105410000Y-70485000D02*
X105410000Y-62865000D01*
X119710969Y-89512735D02*
X119710969Y-157480000D01*
X139065000Y-64770000D02*
X139065000Y-70485000D01*
X119710969Y-157480000D02*
X121920000Y-157480000D01*
X172725000Y-64275000D02*
X174000000Y-63000000D01*
X140970000Y-62865000D02*
X139065000Y-64770000D01*
X139585700Y-181495700D02*
X133985000Y-175895000D01*
X139065000Y-113662128D02*
X139065000Y-122555000D01*
X175260000Y-108585000D02*
X175260000Y-105410000D01*
X141605000Y-111122128D02*
X139065000Y-113662128D01*
X137045700Y-187960000D02*
X137045700Y-181495700D01*
X133350000Y-154940000D02*
X133350000Y-151130000D01*
X133350000Y-177800000D02*
X133350000Y-157480000D01*
X132715000Y-157480000D02*
X132715000Y-155575000D01*
X132715000Y-155575000D02*
X133350000Y-154940000D01*
X141605000Y-108585000D02*
X141605000Y-111122128D01*
X137045700Y-181495700D02*
X133350000Y-177800000D01*
X133164520Y-124645480D02*
X133985000Y-123825000D01*
X132715000Y-157480000D02*
X129540000Y-157480000D01*
X133164520Y-150944520D02*
X133164520Y-124645480D01*
X133350000Y-157480000D02*
X132715000Y-157480000D01*
X107950000Y-105410000D02*
X107950000Y-108585000D01*
X139065000Y-122555000D02*
X137795000Y-123825000D01*
X141605000Y-105410000D02*
X141605000Y-108585000D01*
X133350000Y-151130000D02*
X133164520Y-150944520D01*
X132715000Y-158750000D02*
X132715000Y-179705000D01*
X133350000Y-180340000D02*
X134505700Y-181495700D01*
X108000000Y-64000000D02*
X109770000Y-62230000D01*
X107950000Y-64050000D02*
X108000000Y-64000000D01*
X119380000Y-160020000D02*
X121920000Y-160020000D01*
X107950000Y-70485000D02*
X107950000Y-68450000D01*
X141605000Y-70485000D02*
X141605000Y-65895000D01*
X118061929Y-88499412D02*
X119261449Y-89698932D01*
X175265000Y-70485000D02*
X175265000Y-65735000D01*
X132715000Y-179705000D02*
X133350000Y-180340000D01*
X107950000Y-68450000D02*
X107950000Y-64050000D01*
X119261449Y-159901449D02*
X119380000Y-160020000D01*
X132080000Y-158750000D02*
X132715000Y-158750000D01*
X175265000Y-65735000D02*
X176000000Y-65000000D01*
X141605000Y-65895000D02*
X142500000Y-65000000D01*
X134505700Y-181495700D02*
X134505700Y-187960000D01*
X119261449Y-93861449D02*
X119261449Y-159901449D01*
X118061929Y-62230000D02*
X118061929Y-88499412D01*
X109770000Y-62230000D02*
X118061929Y-62230000D01*
X119261449Y-89698932D02*
X119261449Y-94615000D01*
X132169511Y-187756189D02*
X132169511Y-160109511D01*
X177800000Y-108585000D02*
X177800000Y-106680000D01*
X144145000Y-106680000D02*
X144145000Y-108585000D01*
X110490000Y-106680000D02*
X110490000Y-108585000D01*
X132715000Y-154305000D02*
X132715000Y-125730000D01*
X132169511Y-160109511D02*
X132080000Y-160020000D01*
X132080000Y-160020000D02*
X129540000Y-160020000D01*
X144145000Y-109853564D02*
X140333564Y-113665000D01*
X144145000Y-108585000D02*
X144145000Y-109853564D01*
X132080000Y-154940000D02*
X132715000Y-154305000D01*
X132080000Y-156210000D02*
X132080000Y-154940000D01*
X132715000Y-125730000D02*
X132715000Y-123190000D01*
X132715000Y-123190000D02*
X133350000Y-122555000D01*
X127635000Y-156210000D02*
X132080000Y-156210000D01*
X140333564Y-125093564D02*
X139062128Y-126365000D01*
X127635000Y-160020000D02*
X127635000Y-156210000D01*
X139062128Y-126365000D02*
X138430000Y-126365000D01*
X131965700Y-187960000D02*
X132169511Y-187756189D01*
X129540000Y-160020000D02*
X127635000Y-160020000D01*
X140333564Y-113665000D02*
X140333564Y-125093564D01*
X111000000Y-64574700D02*
X112709700Y-62865000D01*
X129425700Y-181848948D02*
X129425700Y-187960000D01*
X177805000Y-70485000D02*
X177805000Y-66695000D01*
X117612409Y-88685609D02*
X118811929Y-89885129D01*
X131445000Y-179829647D02*
X129425700Y-181848948D01*
X131445000Y-168910000D02*
X131445000Y-179829647D01*
X118811929Y-161356211D02*
X120015000Y-162559282D01*
X120015000Y-162559282D02*
X120015000Y-165735000D01*
X112709700Y-62865000D02*
X117475000Y-62865000D01*
X110490000Y-70485000D02*
X110490000Y-67010000D01*
X111000000Y-66500000D02*
X111000000Y-64574700D01*
X120015000Y-165735000D02*
X121920000Y-167640000D01*
X118811929Y-89885129D02*
X118811929Y-161356211D01*
X117612409Y-63002409D02*
X117612409Y-88685609D01*
X144145000Y-70485000D02*
X144145000Y-66675000D01*
X110490000Y-67010000D02*
X111000000Y-66500000D01*
X117475000Y-62865000D02*
X117612409Y-63002409D01*
X141605000Y-144780000D02*
X141605000Y-171450000D01*
X136525000Y-130175000D02*
X136525000Y-144780000D01*
X146685000Y-108585000D02*
X142240000Y-113030000D01*
X136525000Y-144780000D02*
X141605000Y-144780000D01*
X142240000Y-130175000D02*
X136525000Y-130175000D01*
X141605000Y-171450000D02*
X139700000Y-171450000D01*
X126885700Y-187960000D02*
X126885700Y-167754300D01*
X126885700Y-167754300D02*
X127000000Y-167640000D01*
X129540000Y-167640000D02*
X127000000Y-167640000D01*
X142240000Y-113030000D02*
X142240000Y-130175000D01*
X116760000Y-68500000D02*
X117162889Y-68902889D01*
X117162889Y-88871806D02*
X118362409Y-90071326D01*
X146870000Y-68500000D02*
X149000000Y-68500000D01*
X115500000Y-68500000D02*
X116760000Y-68500000D01*
X113560000Y-68500000D02*
X115500000Y-68500000D01*
X113030000Y-70485000D02*
X113030000Y-69030000D01*
X119380000Y-167640000D02*
X121920000Y-170180000D01*
X121920000Y-170180000D02*
X123825000Y-170180000D01*
X124345700Y-181495700D02*
X123825000Y-180975000D01*
X146685000Y-70485000D02*
X146685000Y-68685000D01*
X113030000Y-69030000D02*
X113560000Y-68500000D01*
X124345700Y-187960000D02*
X124345700Y-181495700D01*
X123825000Y-170180000D02*
X123825000Y-180975000D01*
X117162889Y-68902889D02*
X117162889Y-88871806D01*
X119380000Y-162560000D02*
X119380000Y-167640000D01*
X146685000Y-68685000D02*
X146870000Y-68500000D01*
X118362409Y-90071326D02*
X118362409Y-161542409D01*
X118362409Y-161542409D02*
X119380000Y-162560000D01*
X129540000Y-170180000D02*
X127635000Y-170180000D01*
X147809511Y-102636449D02*
X148400480Y-102045480D01*
X148400480Y-102045480D02*
X148400480Y-94169520D01*
X147809511Y-109341767D02*
X147809511Y-102636449D01*
X121805700Y-181495700D02*
X120015000Y-179705000D01*
X120015000Y-179705000D02*
X120015000Y-169545000D01*
X139700000Y-177165000D02*
X143510000Y-177165000D01*
X127635000Y-177165000D02*
X128270000Y-177165000D01*
X143510000Y-177165000D02*
X143510000Y-136525000D01*
X144780000Y-112371278D02*
X147809511Y-109341767D01*
X144780000Y-135255000D02*
X144780000Y-112371278D01*
X143510000Y-136525000D02*
X144780000Y-135255000D01*
X121805700Y-187960000D02*
X121805700Y-181495700D01*
X127635000Y-170180000D02*
X127635000Y-177165000D01*
X148400480Y-94169520D02*
X149225000Y-93345000D01*
X116713369Y-89058003D02*
X116713369Y-70496999D01*
X118745000Y-170815000D02*
X118745000Y-162560718D01*
X118745000Y-162560718D02*
X117912889Y-161728607D01*
X116713369Y-70496999D02*
X116701370Y-70485000D01*
X117912889Y-90257523D02*
X116713369Y-89058003D01*
X119265700Y-187960000D02*
X119265700Y-171335700D01*
X116701370Y-70485000D02*
X115570000Y-70485000D01*
X117912889Y-161728607D02*
X117912889Y-90257523D01*
X119265700Y-171335700D02*
X118745000Y-170815000D01*
X135890000Y-129540000D02*
X135890000Y-145415000D01*
X113030000Y-95250000D02*
X113030000Y-93345000D01*
X145560489Y-109073793D02*
X141605000Y-113029283D01*
X141605000Y-129540000D02*
X135890000Y-129540000D01*
X116725700Y-167119300D02*
X117475000Y-166370000D01*
X146685000Y-101600000D02*
X145560489Y-102724511D01*
X146685000Y-95250000D02*
X146685000Y-101600000D01*
X146685000Y-95250000D02*
X146685000Y-93345000D01*
X140970000Y-145415000D02*
X140970000Y-170180000D01*
X135890000Y-145415000D02*
X140970000Y-145415000D01*
X141605000Y-113029283D02*
X141605000Y-129540000D01*
X145560489Y-102724511D02*
X145560489Y-109073793D01*
X140970000Y-170180000D02*
X137160000Y-170180000D01*
X116725700Y-187960000D02*
X116725700Y-167119300D01*
X180340000Y-93345000D02*
X180340000Y-95250000D01*
X139700000Y-123825000D02*
X135255000Y-128270000D01*
X144145000Y-96520000D02*
X144145000Y-93345000D01*
X140335000Y-146050000D02*
X140335000Y-167640000D01*
X135255000Y-128270000D02*
X135255000Y-146050000D01*
X177800000Y-93345000D02*
X177800000Y-96520000D01*
X139700000Y-113662846D02*
X139700000Y-123825000D01*
X114185700Y-177279300D02*
X114185700Y-187960000D01*
X116205000Y-175260000D02*
X114185700Y-177279300D01*
X135255000Y-146050000D02*
X140335000Y-146050000D01*
X144145000Y-96520000D02*
X144145000Y-101600000D01*
X140335000Y-167640000D02*
X137160000Y-167640000D01*
X117475000Y-163830000D02*
X116205000Y-165100000D01*
X142875000Y-102870000D02*
X142875000Y-110487846D01*
X110490000Y-96520000D02*
X110490000Y-93345000D01*
X116205000Y-165100000D02*
X116205000Y-175260000D01*
X142875000Y-110487846D02*
X139700000Y-113662846D01*
X144145000Y-101600000D02*
X142875000Y-102870000D01*
X117463369Y-160008369D02*
X117463369Y-160032349D01*
X114300000Y-167640000D02*
X115570000Y-167640000D01*
X117463369Y-109855000D02*
X117463369Y-118098369D01*
X111645700Y-187960000D02*
X111645700Y-181724300D01*
X114300000Y-109220000D02*
X114935000Y-109855000D01*
X115570000Y-173990000D02*
X115570000Y-167640000D01*
X114935000Y-109855000D02*
X117463369Y-109855000D01*
X111645700Y-181724300D02*
X112395000Y-180975000D01*
X112395000Y-173990000D02*
X115570000Y-173990000D01*
X114300000Y-86995000D02*
X114300000Y-109220000D01*
X113030000Y-85725000D02*
X114300000Y-86995000D01*
X117463369Y-118098369D02*
X117463369Y-160008369D01*
X112395000Y-180975000D02*
X112395000Y-173990000D01*
X117463369Y-160032349D02*
X115570718Y-161925000D01*
X115570000Y-161925718D02*
X115570000Y-167640000D01*
X115570718Y-161925000D02*
X115570000Y-161925718D01*
X134620000Y-125730000D02*
X138430000Y-121920000D01*
X141605000Y-97790000D02*
X141605000Y-93345000D01*
X139700000Y-146685000D02*
X134620000Y-146685000D01*
X138430000Y-113661410D02*
X140335000Y-111756410D01*
X141605000Y-101600000D02*
X141605000Y-97790000D01*
X137160000Y-160020000D02*
X139700000Y-160020000D01*
X111125000Y-179705000D02*
X111125000Y-173990000D01*
X139700000Y-160020000D02*
X139700000Y-146685000D01*
X175260000Y-93345000D02*
X175260000Y-97790000D01*
X138430000Y-121920000D02*
X138430000Y-113661410D01*
X140335000Y-102870000D02*
X141605000Y-101600000D01*
X134620000Y-146685000D02*
X134620000Y-125730000D01*
X140335000Y-111756410D02*
X140335000Y-102870000D01*
X107950000Y-97790000D02*
X107950000Y-93345000D01*
X109105700Y-187960000D02*
X109105700Y-181724300D01*
X109105700Y-181724300D02*
X111125000Y-179705000D01*
X106565700Y-181724300D02*
X109855000Y-178435000D01*
X106565700Y-187960000D02*
X106565700Y-181724300D01*
X117013849Y-110304520D02*
X111945480Y-110304520D01*
X177805000Y-85725000D02*
X177805000Y-87625000D01*
X117013849Y-117648849D02*
X117013849Y-110304520D01*
X109855000Y-178435000D02*
X109855000Y-175895000D01*
X116840000Y-160020000D02*
X114300000Y-160020000D01*
X111760000Y-88900000D02*
X110490000Y-87630000D01*
X144145000Y-87620000D02*
X144150000Y-87625000D01*
X117013849Y-117648849D02*
X117013849Y-159846151D01*
X144145000Y-85725000D02*
X144145000Y-87620000D01*
X110490000Y-87630000D02*
X110490000Y-85725000D01*
X117013849Y-159846151D02*
X116840000Y-160020000D01*
X111945480Y-110304520D02*
X111760000Y-110119040D01*
X111760000Y-110119040D02*
X111760000Y-88900000D01*
X108585000Y-177165000D02*
X104025700Y-181724300D01*
X116469040Y-110754040D02*
X109484040Y-110754040D01*
X116564329Y-157204329D02*
X116564329Y-110849329D01*
X114300000Y-157480000D02*
X116288658Y-157480000D01*
X104025700Y-181724300D02*
X104025700Y-187960000D01*
X109220000Y-90805000D02*
X107950000Y-89535000D01*
X175265000Y-85725000D02*
X175265000Y-88895000D01*
X109220000Y-110490000D02*
X109220000Y-90805000D01*
X116564329Y-110849329D02*
X116469040Y-110754040D01*
X107950000Y-85725000D02*
X107950000Y-88900000D01*
X107950000Y-89535000D02*
X107950000Y-88900000D01*
X141459511Y-88410489D02*
X141605000Y-88265000D01*
X141605000Y-88265000D02*
X141605000Y-85725000D01*
X108585000Y-157480000D02*
X108585000Y-177165000D01*
X116288658Y-157480000D02*
X116564329Y-157204329D01*
X109484040Y-110754040D02*
X109220000Y-110490000D01*
X105410000Y-99060000D02*
X105410000Y-93345000D01*
X133985000Y-125095000D02*
X137795000Y-121285000D01*
X137160000Y-157480000D02*
X139065000Y-157480000D01*
X101485700Y-181724300D02*
X101485700Y-187960000D01*
X139065000Y-99060000D02*
X139065000Y-93345000D01*
X139065000Y-147320000D02*
X133985000Y-147320000D01*
X137795000Y-102870000D02*
X139065000Y-101600000D01*
X137795000Y-121285000D02*
X137795000Y-102870000D01*
X139065000Y-101600000D02*
X139065000Y-99060000D01*
X172720000Y-93345000D02*
X172720000Y-99060000D01*
X133985000Y-147320000D02*
X133985000Y-125095000D01*
X107315000Y-175895000D02*
X101485700Y-181724300D01*
X139065000Y-157480000D02*
X139065000Y-147320000D01*
X107315000Y-156210000D02*
X107315000Y-175895000D01*
X104140000Y-176530000D02*
X98945700Y-181724300D01*
X105410000Y-165100000D02*
X104140000Y-165100000D01*
X104140000Y-165100000D02*
X104140000Y-176530000D01*
X98945700Y-181724300D02*
X98945700Y-187960000D01*
X96405700Y-181724300D02*
X103505000Y-174625000D01*
X103505000Y-162560000D02*
X105410000Y-162560000D01*
X96405700Y-187960000D02*
X96405700Y-181724300D01*
X103505000Y-174625000D02*
X103505000Y-162560000D01*
X93865700Y-187960000D02*
X93865700Y-181724300D01*
X102870000Y-160020000D02*
X105410000Y-160020000D01*
X102870000Y-172720000D02*
X102870000Y-160020000D01*
X93865700Y-181724300D02*
X102870000Y-172720000D01*
X162550000Y-36152500D02*
X163830000Y-37432500D01*
X163830000Y-37432500D02*
X163830000Y-54610000D01*
X167640000Y-52705000D02*
X168764511Y-53829511D01*
X176520000Y-31077500D02*
X177762500Y-31077500D01*
X167640000Y-28500000D02*
X167640000Y-28575000D01*
X177800000Y-31040000D02*
X177800000Y-24335000D01*
X167640000Y-28575000D02*
X167640000Y-52705000D01*
X177762500Y-31077500D02*
X177800000Y-31040000D01*
X168905000Y-64135000D02*
X170180000Y-64135000D01*
X167640000Y-24335000D02*
X167640000Y-28500000D01*
X165715000Y-28537500D02*
X167602500Y-28537500D01*
X168764511Y-53829511D02*
X168764511Y-63994511D01*
X167640000Y-24335000D02*
X177800000Y-24335000D01*
X167602500Y-28537500D02*
X167640000Y-28575000D01*
X168764511Y-63994511D02*
X168905000Y-64135000D01*
X166515489Y-66645489D02*
X166545000Y-66675000D01*
X164502500Y-31077500D02*
X164465000Y-31115000D01*
X165715000Y-38697500D02*
X164502500Y-38697500D01*
X164465000Y-31115000D02*
X164465000Y-36195000D01*
X164502500Y-38697500D02*
X164465000Y-38735000D01*
X165715000Y-36157500D02*
X164502500Y-36157500D01*
X164465000Y-52070000D02*
X165100000Y-52705000D01*
X166545000Y-66675000D02*
X170180000Y-66675000D01*
X166515489Y-54120489D02*
X166515489Y-66645489D01*
X164465000Y-36195000D02*
X164465000Y-38735000D01*
X164502500Y-36157500D02*
X164465000Y-36195000D01*
X165100000Y-52705000D02*
X166515489Y-54120489D01*
X165715000Y-31077500D02*
X164502500Y-31077500D01*
X164465000Y-38735000D02*
X164465000Y-52070000D01*
X158750000Y-24130000D02*
X158750000Y-48895000D01*
X161144511Y-54120489D02*
X161144511Y-63885489D01*
X161394022Y-64135000D02*
X165100000Y-64135000D01*
X158072500Y-23452500D02*
X158750000Y-24130000D01*
X162560000Y-52705000D02*
X161144511Y-54120489D01*
X161144511Y-63885489D02*
X161394022Y-64135000D01*
X158750000Y-48895000D02*
X162560000Y-52705000D01*
X154930000Y-23452500D02*
X158072500Y-23452500D01*
X158604511Y-66559511D02*
X158720000Y-66675000D01*
X158604511Y-54120489D02*
X158604511Y-66559511D01*
X158115000Y-29210000D02*
X157437500Y-28532500D01*
X158720000Y-66675000D02*
X165100000Y-66675000D01*
X160020000Y-52705000D02*
X158604511Y-54120489D01*
X158115000Y-49530000D02*
X158115000Y-29210000D01*
X160020000Y-52705000D02*
X160020000Y-51435000D01*
X160020000Y-51435000D02*
X158115000Y-49530000D01*
X157437500Y-28532500D02*
X154930000Y-28532500D01*
X156802500Y-36152500D02*
X154930000Y-36152500D01*
X157480000Y-52705000D02*
X157480000Y-36830000D01*
X156802500Y-36152500D02*
X157480000Y-36830000D01*
X155575000Y-52070000D02*
X155575000Y-46355000D01*
X162550000Y-46345000D02*
X162560000Y-46355000D01*
X154940000Y-52705000D02*
X155575000Y-52070000D01*
X162550000Y-41232500D02*
X162550000Y-46345000D01*
X130029511Y-37319511D02*
X130029511Y-54470489D01*
X128905000Y-36195000D02*
X130029511Y-37319511D01*
X134620000Y-24765000D02*
X134500000Y-24885000D01*
X134500000Y-28500000D02*
X134500000Y-52190000D01*
X144780000Y-24765000D02*
X134620000Y-24765000D01*
X135255000Y-62865000D02*
X135255000Y-53975000D01*
X135255000Y-53975000D02*
X133985000Y-52705000D01*
X144780000Y-31115000D02*
X144780000Y-24765000D01*
X134425000Y-28575000D02*
X134500000Y-28500000D01*
X142875000Y-31115000D02*
X144780000Y-31115000D01*
X134500000Y-52190000D02*
X133985000Y-52705000D01*
X132080000Y-28575000D02*
X134425000Y-28575000D01*
X136525000Y-64135000D02*
X135255000Y-62865000D01*
X134500000Y-24885000D02*
X134500000Y-28500000D01*
X132715000Y-53975000D02*
X132715000Y-66040000D01*
X130955489Y-38044511D02*
X130955489Y-52215489D01*
X130955489Y-31274511D02*
X130955489Y-35955489D01*
X131195000Y-36195000D02*
X130955489Y-35955489D01*
X130955489Y-38425489D02*
X130955489Y-38044511D01*
X131115000Y-31115000D02*
X130955489Y-31274511D01*
X132080000Y-38735000D02*
X131265000Y-38735000D01*
X132715000Y-66040000D02*
X133350000Y-66675000D01*
X130955489Y-35955489D02*
X130955489Y-38044511D01*
X131445000Y-52705000D02*
X132715000Y-53975000D01*
X130955489Y-52215489D02*
X131445000Y-52705000D01*
X131265000Y-38735000D02*
X130955489Y-38425489D01*
X132080000Y-31115000D02*
X131115000Y-31115000D01*
X132080000Y-36195000D02*
X131195000Y-36195000D01*
X133350000Y-66675000D02*
X136525000Y-66675000D01*
X127635000Y-64135000D02*
X127635000Y-53975000D01*
X127635000Y-53975000D02*
X128905000Y-52705000D01*
X125095000Y-48895000D02*
X128905000Y-52705000D01*
X125095000Y-24765000D02*
X125095000Y-48895000D01*
X131445000Y-64135000D02*
X127635000Y-64135000D01*
X121285000Y-23495000D02*
X123825000Y-23495000D01*
X123825000Y-23495000D02*
X125095000Y-24765000D01*
X126365000Y-52705000D02*
X123825000Y-50165000D01*
X122555000Y-28575000D02*
X121285000Y-28575000D01*
X123825000Y-50165000D02*
X123825000Y-29845000D01*
X123825000Y-29845000D02*
X122555000Y-28575000D01*
X125175000Y-53895000D02*
X126365000Y-52705000D01*
X131445000Y-66675000D02*
X125175000Y-66675000D01*
X125175000Y-66675000D02*
X125175000Y-53895000D01*
X123825000Y-52705000D02*
X122555000Y-51435000D01*
X122555000Y-51435000D02*
X122555000Y-37465000D01*
X122555000Y-37465000D02*
X121285000Y-36195000D01*
X128905000Y-41275000D02*
X128905000Y-46355000D01*
X121285000Y-52705000D02*
X121285000Y-46355000D01*
X96520000Y-37465000D02*
X96520000Y-54610000D01*
X95250000Y-36195000D02*
X96520000Y-37465000D01*
X100925000Y-27575000D02*
X100925000Y-23575000D01*
X100575000Y-28575000D02*
X100925000Y-28575000D01*
X111500000Y-23500000D02*
X111500000Y-30740000D01*
X111125000Y-31115000D02*
X111500000Y-30740000D01*
X111125000Y-31115000D02*
X109220000Y-31115000D01*
X101600000Y-53975000D02*
X101600000Y-62865000D01*
X100925000Y-28575000D02*
X100925000Y-27575000D01*
X101000000Y-23500000D02*
X111500000Y-23500000D01*
X100330000Y-52705000D02*
X101600000Y-53975000D01*
X100925000Y-23575000D02*
X101000000Y-23500000D01*
X100925000Y-52110000D02*
X100330000Y-52705000D01*
X101600000Y-62865000D02*
X102870000Y-64135000D01*
X98425000Y-28575000D02*
X100575000Y-28575000D01*
X100925000Y-27575000D02*
X100925000Y-52110000D01*
X99000000Y-53915000D02*
X99000000Y-66500000D01*
X97790000Y-52705000D02*
X99000000Y-53915000D01*
X97000000Y-36000000D02*
X97000000Y-31500000D01*
X97265000Y-38735000D02*
X97000000Y-39000000D01*
X99000000Y-66500000D02*
X99175000Y-66675000D01*
X97000000Y-31500000D02*
X97385000Y-31115000D01*
X97195000Y-36195000D02*
X97000000Y-36000000D01*
X97000000Y-51915000D02*
X97000000Y-39000000D01*
X97385000Y-31115000D02*
X98425000Y-31115000D01*
X99175000Y-66675000D02*
X102870000Y-66675000D01*
X97790000Y-52705000D02*
X97000000Y-51915000D01*
X98425000Y-36195000D02*
X97195000Y-36195000D01*
X98425000Y-38735000D02*
X97265000Y-38735000D01*
X97000000Y-39000000D02*
X97000000Y-36000000D01*
X93980000Y-53975000D02*
X95250000Y-52705000D01*
X97790000Y-64135000D02*
X94905978Y-64135000D01*
X90204040Y-46389040D02*
X90204040Y-23795960D01*
X94905978Y-64135000D02*
X93980000Y-63209022D01*
X95250000Y-51435000D02*
X90204040Y-46389040D01*
X90204040Y-23795960D02*
X89903080Y-23495000D01*
X89903080Y-23495000D02*
X87630000Y-23495000D01*
X93980000Y-63209022D02*
X93980000Y-53975000D01*
X95250000Y-52705000D02*
X95250000Y-51435000D01*
X91440000Y-53975000D02*
X92710000Y-52705000D01*
X92075000Y-66675000D02*
X91440000Y-66040000D01*
X92710000Y-52705000D02*
X89754520Y-49749520D01*
X89754520Y-28754520D02*
X89575000Y-28575000D01*
X97790000Y-66675000D02*
X92075000Y-66675000D01*
X89754520Y-49749520D02*
X89754520Y-28754520D01*
X89575000Y-28575000D02*
X87630000Y-28575000D01*
X91440000Y-66040000D02*
X91440000Y-53975000D01*
X87630000Y-36195000D02*
X89305000Y-36195000D01*
X89305000Y-51840000D02*
X90170000Y-52705000D01*
X89305000Y-36195000D02*
X89305000Y-51840000D01*
X95250000Y-41275000D02*
X95250000Y-45720000D01*
X87630000Y-45720000D02*
X87630000Y-52705000D01*
X69215000Y-52705000D02*
X69215000Y-37465000D01*
X67945000Y-53975000D02*
X66675000Y-52705000D01*
X78000000Y-23000000D02*
X67000000Y-23000000D01*
X75565000Y-31115000D02*
X77885000Y-31115000D01*
X67000000Y-28000000D02*
X67000000Y-52380000D01*
X67945000Y-63500000D02*
X67945000Y-53975000D01*
X68580000Y-64135000D02*
X67945000Y-63500000D01*
X67000000Y-28500000D02*
X67000000Y-28000000D01*
X77885000Y-31115000D02*
X78000000Y-31000000D01*
X69215000Y-64135000D02*
X68580000Y-64135000D01*
X64770000Y-28575000D02*
X66925000Y-28575000D01*
X67000000Y-28000000D02*
X67000000Y-23000000D01*
X66925000Y-28575000D02*
X67000000Y-28500000D01*
X67000000Y-52380000D02*
X66675000Y-52705000D01*
X78000000Y-31000000D02*
X78000000Y-23000000D01*
X62865000Y-42545000D02*
X62865000Y-38735000D01*
X66040000Y-66675000D02*
X65405000Y-66040000D01*
X64770000Y-31115000D02*
X62865000Y-31115000D01*
X63500000Y-52070000D02*
X63500000Y-43180000D01*
X64135000Y-52705000D02*
X63500000Y-52070000D01*
X69215000Y-66675000D02*
X66040000Y-66675000D01*
X63500000Y-43180000D02*
X62865000Y-42545000D01*
X64770000Y-38735000D02*
X62865000Y-38735000D01*
X62865000Y-36830000D02*
X62865000Y-38735000D01*
X62865000Y-36195000D02*
X62865000Y-36830000D01*
X65405000Y-66040000D02*
X65405000Y-53975000D01*
X65405000Y-53975000D02*
X64135000Y-52705000D01*
X62865000Y-31115000D02*
X62865000Y-36830000D01*
X64770000Y-36195000D02*
X62865000Y-36195000D01*
X64135000Y-64135000D02*
X60960000Y-64135000D01*
X60960000Y-64135000D02*
X60325000Y-63500000D01*
X61595000Y-49595000D02*
X61595000Y-52705000D01*
X60325000Y-63500000D02*
X60325000Y-53975000D01*
X57150000Y-23495000D02*
X57150000Y-48895000D01*
X57755000Y-49500000D02*
X61500000Y-49500000D01*
X57150000Y-48895000D02*
X57755000Y-49500000D01*
X61500000Y-49500000D02*
X61595000Y-49595000D01*
X60325000Y-53975000D02*
X61595000Y-52705000D01*
X53975000Y-23495000D02*
X57150000Y-23495000D01*
X58420000Y-66675000D02*
X57785000Y-66040000D01*
X57785000Y-66040000D02*
X57785000Y-53975000D01*
X54050000Y-28500000D02*
X53975000Y-28575000D01*
X59000000Y-50500000D02*
X56500000Y-50500000D01*
X59055000Y-52705000D02*
X59055000Y-50555000D01*
X56500000Y-28500000D02*
X54050000Y-28500000D01*
X56500000Y-50500000D02*
X56500000Y-28500000D01*
X59055000Y-50555000D02*
X59000000Y-50500000D01*
X57785000Y-53975000D02*
X59055000Y-52705000D01*
X64135000Y-66675000D02*
X58420000Y-66675000D01*
X53975000Y-36195000D02*
X55880000Y-36195000D01*
X55880000Y-52070000D02*
X56515000Y-52705000D01*
X55880000Y-36195000D02*
X55880000Y-52070000D01*
X135255000Y-173355000D02*
X135255000Y-152400000D01*
X137160000Y-175260000D02*
X135255000Y-173355000D01*
X107950000Y-139700000D02*
X107950000Y-153670000D01*
X106680000Y-138430000D02*
X107950000Y-139700000D01*
X157480000Y-75565000D02*
X156210000Y-76835000D01*
X90000000Y-75500000D02*
X88900000Y-76600000D01*
X56515000Y-93345000D02*
X56515000Y-90170000D01*
X123825000Y-88499022D02*
X122700489Y-87374511D01*
X156210000Y-76835000D02*
X156210000Y-87630000D01*
X157480000Y-88900000D02*
X157480000Y-93345000D01*
X127635000Y-154940000D02*
X127635000Y-119380000D01*
X122555000Y-102870000D02*
X122555000Y-116840000D01*
X55245000Y-71755000D02*
X56515000Y-70485000D01*
X123825000Y-93345000D02*
X123825000Y-101600000D01*
X156210000Y-87630000D02*
X157480000Y-88900000D01*
X90170000Y-75330000D02*
X90000000Y-75500000D01*
X55245000Y-88900000D02*
X55245000Y-71755000D01*
X56515000Y-90170000D02*
X55245000Y-88900000D01*
X88900000Y-76600000D02*
X88900000Y-87339022D01*
X122700489Y-87374511D02*
X122700489Y-76299511D01*
X122700489Y-76299511D02*
X123500000Y-75500000D01*
X90170000Y-88609022D02*
X90170000Y-93345000D01*
X123825000Y-101600000D02*
X122555000Y-102870000D01*
X157485000Y-75560000D02*
X157480000Y-75565000D01*
X127635000Y-119380000D02*
X128270000Y-119380000D01*
X157485000Y-70485000D02*
X157485000Y-75560000D01*
X88900000Y-87339022D02*
X90170000Y-88609022D01*
X123825000Y-75175000D02*
X123500000Y-75500000D01*
X122555000Y-116840000D02*
X122555000Y-119380000D01*
X129540000Y-154940000D02*
X127635000Y-154940000D01*
X123825000Y-70485000D02*
X123825000Y-75175000D01*
X123825000Y-93345000D02*
X123825000Y-88499022D01*
X122555000Y-119380000D02*
X123190000Y-119380000D01*
X90170000Y-70485000D02*
X90170000Y-75330000D01*
X92710000Y-88265000D02*
X91440000Y-86995000D01*
X160025000Y-70485000D02*
X160025000Y-74290000D01*
X59055000Y-90170000D02*
X57785000Y-88900000D01*
X129540000Y-162560000D02*
X127000000Y-162560000D01*
X158750000Y-75565000D02*
X158750000Y-87630000D01*
X160020000Y-74295000D02*
X158750000Y-75565000D01*
X126365000Y-93345000D02*
X126365000Y-88065000D01*
X91440000Y-86995000D02*
X91440000Y-75560000D01*
X126365000Y-88065000D02*
X125225000Y-86925000D01*
X160025000Y-74290000D02*
X160020000Y-74295000D01*
X158750000Y-87630000D02*
X160020000Y-88900000D01*
X92710000Y-93345000D02*
X92710000Y-88265000D01*
X92710000Y-70485000D02*
X92710000Y-74290000D01*
X126365000Y-70485000D02*
X126365000Y-74135000D01*
X91440000Y-75560000D02*
X92500000Y-74500000D01*
X125225000Y-75275000D02*
X125225000Y-86925000D01*
X130809283Y-115570000D02*
X130810000Y-115570000D01*
X160020000Y-88900000D02*
X160020000Y-93345000D01*
X127000000Y-119379283D02*
X130809283Y-115570000D01*
X126365000Y-74135000D02*
X125225000Y-75275000D01*
X92710000Y-74290000D02*
X92500000Y-74500000D01*
X127000000Y-119380000D02*
X127000000Y-119379283D01*
X126365000Y-93345000D02*
X126365000Y-101600000D01*
X57785000Y-88900000D02*
X57785000Y-71755000D01*
X126365000Y-101600000D02*
X125095000Y-102870000D01*
X57785000Y-71755000D02*
X59055000Y-70485000D01*
X127000000Y-162560000D02*
X127000000Y-119380000D01*
X59055000Y-93345000D02*
X59055000Y-90170000D01*
X125095000Y-102870000D02*
X125095000Y-115570000D01*
X100330000Y-88265000D02*
X100330000Y-93345000D01*
X65405000Y-88900000D02*
X65405000Y-71755000D01*
X132860489Y-102725229D02*
X133985000Y-101600718D01*
X167645000Y-70485000D02*
X167645000Y-75560000D01*
X129540000Y-165100000D02*
X126365000Y-165100000D01*
X100330000Y-70485000D02*
X100330000Y-81915000D01*
X66675000Y-93345000D02*
X66675000Y-90170000D01*
X100330000Y-81915000D02*
X99060000Y-83185000D01*
X66675000Y-90170000D02*
X65405000Y-88900000D01*
X65405000Y-71755000D02*
X66675000Y-70485000D01*
X132860489Y-111614511D02*
X132860489Y-102725229D01*
X166370000Y-76835000D02*
X166370000Y-87630000D01*
X99060000Y-83185000D02*
X99060000Y-86995000D01*
X167640000Y-88900000D02*
X167640000Y-93345000D01*
X133985000Y-93345000D02*
X133985000Y-87864022D01*
X133985000Y-79440000D02*
X132860489Y-80564511D01*
X126365000Y-165100000D02*
X126365000Y-118110000D01*
X132860489Y-80564511D02*
X132860489Y-86739511D01*
X133985000Y-87864022D02*
X132860489Y-86739511D01*
X133985000Y-70485000D02*
X133985000Y-79440000D01*
X166370000Y-87630000D02*
X167640000Y-88900000D01*
X133985000Y-101600718D02*
X133985000Y-93345000D01*
X99060000Y-86995000D02*
X100330000Y-88265000D01*
X167645000Y-75560000D02*
X166370000Y-76835000D01*
X126365000Y-118110000D02*
X132860489Y-111614511D01*
X146050000Y-33655000D02*
X146050000Y-38735000D01*
X146050000Y-38735000D02*
X150495000Y-38735000D01*
X79375000Y-38565000D02*
X79545000Y-38735000D01*
X112395000Y-33655000D02*
X113000000Y-34260000D01*
X184140000Y-38697500D02*
X179032500Y-38697500D01*
X142875000Y-33655000D02*
X146050000Y-33655000D01*
X109220000Y-33655000D02*
X112395000Y-33655000D01*
X173335000Y-33617500D02*
X170852500Y-33617500D01*
X75565000Y-33655000D02*
X79375000Y-33655000D01*
X179032500Y-38697500D02*
X179032500Y-33897500D01*
X179032500Y-33897500D02*
X178752500Y-33617500D01*
X170815000Y-33655000D02*
X170815000Y-37465000D01*
X113665000Y-38735000D02*
X116840000Y-38735000D01*
X113000000Y-34260000D02*
X113000000Y-38070000D01*
X178752500Y-33617500D02*
X176520000Y-33617500D01*
X79375000Y-33655000D02*
X79375000Y-38565000D01*
X113665000Y-38735000D02*
X113000000Y-38070000D01*
X79545000Y-38735000D02*
X83185000Y-38735000D01*
X170852500Y-33617500D02*
X170815000Y-33655000D01*
X172725000Y-90800000D02*
X172725000Y-85725000D01*
X105410000Y-108585000D02*
X105410000Y-100965000D01*
X140189511Y-91929511D02*
X140189511Y-101454511D01*
X71755000Y-100330000D02*
X73025000Y-99060000D01*
X111125000Y-111203560D02*
X111125000Y-154940000D01*
X139065000Y-90805000D02*
X140189511Y-91929511D01*
X105488560Y-111203560D02*
X111125000Y-111203560D01*
X139065000Y-90805000D02*
X139065000Y-85725000D01*
X105410000Y-85725000D02*
X105410000Y-91440000D01*
X111125000Y-154940000D02*
X114300000Y-154940000D01*
X105410000Y-100965000D02*
X106680000Y-99695000D01*
X71755000Y-108585000D02*
X71755000Y-100330000D01*
X73025000Y-90170000D02*
X71755000Y-88900000D01*
X172720000Y-90805000D02*
X172725000Y-90800000D01*
X73025000Y-99060000D02*
X73025000Y-90170000D01*
X139065000Y-102579022D02*
X140189511Y-101454511D01*
X105410000Y-91440000D02*
X106680000Y-92710000D01*
X105410000Y-108585000D02*
X105410000Y-111125000D01*
X139065000Y-108585000D02*
X139065000Y-102579022D01*
X71755000Y-88900000D02*
X71755000Y-85725000D01*
X173844511Y-91929511D02*
X172720000Y-90805000D01*
X172720000Y-108585000D02*
X172720000Y-102235000D01*
X105410000Y-111125000D02*
X105488560Y-111203560D01*
X173844511Y-101110489D02*
X173844511Y-91929511D01*
X172720000Y-102235000D02*
X173844511Y-101110489D01*
X106680000Y-92710000D02*
X106680000Y-99695000D01*
X162565000Y-87635000D02*
X163830000Y-88900000D01*
X95250000Y-85725000D02*
X95250000Y-82200000D01*
X162565000Y-81920000D02*
X162560000Y-81915000D01*
X128905000Y-85725000D02*
X129540000Y-86360000D01*
X61595000Y-108585000D02*
X61595000Y-100330000D01*
X163830000Y-88900000D02*
X163830000Y-100330000D01*
X125730000Y-117475000D02*
X128905000Y-114300000D01*
X96520000Y-102235000D02*
X96520000Y-88265000D01*
X162565000Y-85725000D02*
X162565000Y-87635000D01*
X95250000Y-86995000D02*
X96520000Y-88265000D01*
X129540000Y-92098722D02*
X130175000Y-92733722D01*
X162560000Y-101600000D02*
X162560000Y-108585000D01*
X128905000Y-102870000D02*
X130175000Y-101600000D01*
X62865000Y-99060000D02*
X62865000Y-90170000D01*
X128905000Y-108585000D02*
X128905000Y-102870000D01*
X128939511Y-82060489D02*
X128905000Y-82095000D01*
X95250000Y-85725000D02*
X95250000Y-86995000D01*
X163830000Y-100330000D02*
X162560000Y-101600000D01*
X95250000Y-108585000D02*
X95250000Y-103505000D01*
X125730000Y-172720000D02*
X125730000Y-117475000D01*
X62865000Y-90170000D02*
X61595000Y-88900000D01*
X61595000Y-88900000D02*
X61595000Y-85725000D01*
X129540000Y-86360000D02*
X129540000Y-92098722D01*
X128905000Y-114300000D02*
X128905000Y-108585000D01*
X61595000Y-100330000D02*
X62865000Y-99060000D01*
X95250000Y-103505000D02*
X96520000Y-102235000D01*
X128905000Y-82095000D02*
X128905000Y-85725000D01*
X130175000Y-92733722D02*
X130175000Y-101600000D01*
X162565000Y-85725000D02*
X162565000Y-81920000D01*
X70485000Y-99060000D02*
X69215000Y-100330000D01*
X171450000Y-100330000D02*
X171450000Y-88265000D01*
X170180000Y-101600000D02*
X171450000Y-100330000D01*
X137940489Y-87140489D02*
X137940489Y-101454511D01*
X104140000Y-86995000D02*
X102870000Y-85725000D01*
X171450000Y-88265000D02*
X170185000Y-87000000D01*
X170180000Y-108585000D02*
X170180000Y-101600000D01*
X110490000Y-111760000D02*
X110490000Y-162560000D01*
X102870000Y-100965000D02*
X104140000Y-99695000D01*
X102870000Y-111760000D02*
X110490000Y-111760000D01*
X102870000Y-108585000D02*
X102870000Y-111760000D01*
X102870000Y-108585000D02*
X102870000Y-100965000D01*
X70485000Y-90170000D02*
X70485000Y-99060000D01*
X110490000Y-162560000D02*
X114300000Y-162560000D01*
X136525000Y-85725000D02*
X137940489Y-87140489D01*
X104140000Y-99695000D02*
X104140000Y-86995000D01*
X69215000Y-85725000D02*
X69215000Y-88900000D01*
X136525000Y-108585000D02*
X136525000Y-102870000D01*
X136525000Y-102870000D02*
X137940489Y-101454511D01*
X69215000Y-100330000D02*
X69215000Y-108585000D01*
X170185000Y-87000000D02*
X170185000Y-85725000D01*
X69215000Y-88900000D02*
X70485000Y-90170000D01*
X59055000Y-100330000D02*
X59055000Y-108585000D01*
X92710000Y-85725000D02*
X92710000Y-81240000D01*
X92710000Y-86995000D02*
X94125489Y-88410489D01*
X126365000Y-85725000D02*
X126365000Y-87429282D01*
X126365000Y-115676920D02*
X126365000Y-108585000D01*
X126365000Y-87429282D02*
X127635000Y-88699282D01*
X160025000Y-85725000D02*
X160025000Y-87635000D01*
X161290000Y-88900000D02*
X161290000Y-100330000D01*
X60325000Y-90170000D02*
X60325000Y-99060000D01*
X92710000Y-85725000D02*
X92710000Y-86995000D01*
X160025000Y-87635000D02*
X161290000Y-88900000D01*
X59055000Y-85725000D02*
X59055000Y-88900000D01*
X160025000Y-81285000D02*
X160020000Y-81280000D01*
X126365000Y-108585000D02*
X126365000Y-102870000D01*
X160025000Y-85725000D02*
X160025000Y-81285000D01*
X92710000Y-103505000D02*
X94125489Y-102089511D01*
X127635000Y-88699282D02*
X127635000Y-101600000D01*
X121920000Y-165100000D02*
X125095000Y-165100000D01*
X92710000Y-108585000D02*
X92710000Y-103505000D01*
X126385000Y-81240000D02*
X126365000Y-81260000D01*
X126365000Y-102870000D02*
X127635000Y-101600000D01*
X161290000Y-100330000D02*
X160020000Y-101600000D01*
X60325000Y-99060000D02*
X59055000Y-100330000D01*
X94125489Y-102089511D02*
X94125489Y-88410489D01*
X125095000Y-165100000D02*
X125095000Y-116946920D01*
X59055000Y-88900000D02*
X60325000Y-90170000D01*
X160020000Y-101600000D02*
X160020000Y-108585000D01*
X126365000Y-81260000D02*
X126365000Y-85725000D01*
X125095000Y-116946920D02*
X126365000Y-115676920D01*
X67945000Y-90170000D02*
X66675000Y-88900000D01*
X168910000Y-100330000D02*
X167640000Y-101600000D01*
X109855000Y-112395000D02*
X109855000Y-165100000D01*
X66675000Y-88900000D02*
X66675000Y-85725000D01*
X133985000Y-108585000D02*
X133985000Y-102870000D01*
X109855000Y-165100000D02*
X114300000Y-165100000D01*
X167645000Y-85725000D02*
X167645000Y-83825000D01*
X167645000Y-83825000D02*
X167640000Y-83820000D01*
X66675000Y-108585000D02*
X66675000Y-100330000D01*
X100330000Y-102235000D02*
X101600000Y-100965000D01*
X100330000Y-112395000D02*
X109855000Y-112395000D01*
X101600000Y-100965000D02*
X101600000Y-88265000D01*
X167645000Y-85725000D02*
X167645000Y-87635000D01*
X100330000Y-86995000D02*
X101600000Y-88265000D01*
X135255000Y-88265000D02*
X135255000Y-101600000D01*
X133980000Y-83820000D02*
X133980000Y-85720000D01*
X100255000Y-85650000D02*
X100330000Y-85725000D01*
X133985000Y-86995000D02*
X135255000Y-88265000D01*
X133985000Y-85725000D02*
X133985000Y-86995000D01*
X67945000Y-99060000D02*
X67945000Y-90170000D01*
X167640000Y-101600000D02*
X167640000Y-108585000D01*
X66675000Y-100330000D02*
X67945000Y-99060000D01*
X167645000Y-87635000D02*
X168910000Y-88900000D01*
X100255000Y-83820000D02*
X100255000Y-85650000D01*
X100330000Y-85725000D02*
X100330000Y-86995000D01*
X133980000Y-85720000D02*
X133985000Y-85725000D01*
X168910000Y-88900000D02*
X168910000Y-100330000D01*
X100330000Y-108585000D02*
X100330000Y-112395000D01*
X133985000Y-102870000D02*
X135255000Y-101600000D01*
X100330000Y-108585000D02*
X100330000Y-102235000D01*
X123825000Y-80174022D02*
X123825000Y-85725000D01*
X90170000Y-103505000D02*
X91585489Y-102089511D01*
X90175489Y-80099511D02*
X90170000Y-80105000D01*
X56515000Y-85725000D02*
X56515000Y-88900000D01*
X91585489Y-102089511D02*
X91585489Y-88410489D01*
X157480000Y-101600000D02*
X157480000Y-108585000D01*
X123825000Y-118745000D02*
X124460000Y-119380000D01*
X123750489Y-80099511D02*
X123825000Y-80174022D01*
X90170000Y-108585000D02*
X90170000Y-103505000D01*
X157485000Y-85725000D02*
X157485000Y-87635000D01*
X158750000Y-88900000D02*
X158750000Y-100330000D01*
X56515000Y-88900000D02*
X57785000Y-90170000D01*
X123825000Y-102870000D02*
X125095000Y-101600000D01*
X158750000Y-100330000D02*
X157480000Y-101600000D01*
X90170000Y-85725000D02*
X90170000Y-86995000D01*
X157485000Y-80015000D02*
X157480000Y-80010000D01*
X123825000Y-108585000D02*
X123825000Y-102870000D01*
X57785000Y-99060000D02*
X56515000Y-100330000D01*
X124460000Y-119380000D02*
X124460000Y-162560000D01*
X56515000Y-100330000D02*
X56515000Y-108585000D01*
X123825000Y-87630000D02*
X125095000Y-88900000D01*
X123825000Y-108585000D02*
X123825000Y-118745000D01*
X57785000Y-90170000D02*
X57785000Y-99060000D01*
X157485000Y-85725000D02*
X157485000Y-80015000D01*
X157485000Y-87635000D02*
X158750000Y-88900000D01*
X123825000Y-85725000D02*
X123825000Y-87630000D01*
X125095000Y-88900000D02*
X125095000Y-101600000D01*
X124460000Y-162560000D02*
X121920000Y-162560000D01*
X90170000Y-86995000D02*
X91585489Y-88410489D01*
X90170000Y-80105000D02*
X90170000Y-85725000D01*
X132715000Y-88126370D02*
X132715000Y-102235000D01*
X99060000Y-102235000D02*
X99060000Y-88265000D01*
X131445000Y-86856370D02*
X132715000Y-88126370D01*
X64135000Y-88900000D02*
X65405000Y-90170000D01*
X64135000Y-85725000D02*
X64135000Y-88900000D01*
X109220000Y-172720000D02*
X114300000Y-172720000D01*
X64135000Y-100330000D02*
X64135000Y-108585000D01*
X97790000Y-103505000D02*
X99060000Y-102235000D01*
X165105000Y-82555000D02*
X165100000Y-82550000D01*
X165100000Y-106680000D02*
X165100000Y-108585000D01*
X131465000Y-82785000D02*
X131445000Y-82805000D01*
X166370000Y-105410000D02*
X165100000Y-106680000D01*
X131445000Y-108585000D02*
X131445000Y-103505000D01*
X165105000Y-87635000D02*
X166370000Y-88900000D01*
X97790000Y-113030000D02*
X109220000Y-113030000D01*
X109220000Y-156665978D02*
X109309511Y-156755489D01*
X109309511Y-156755489D02*
X109309511Y-158025489D01*
X165105000Y-85725000D02*
X165105000Y-82555000D01*
X97790000Y-85725000D02*
X97790000Y-86995000D01*
X97790000Y-85725000D02*
X97790000Y-82785000D01*
X97790000Y-108585000D02*
X97790000Y-103505000D01*
X131445000Y-82805000D02*
X131445000Y-85725000D01*
X109220000Y-158115000D02*
X109220000Y-172720000D01*
X97790000Y-86995000D02*
X99060000Y-88265000D01*
X131445000Y-103505000D02*
X132715000Y-102235000D01*
X165105000Y-85725000D02*
X165105000Y-87635000D01*
X131445000Y-85725000D02*
X131445000Y-86856370D01*
X109309511Y-158025489D02*
X109220000Y-158115000D01*
X109220000Y-113030000D02*
X109220000Y-156665978D01*
X65405000Y-99060000D02*
X64135000Y-100330000D01*
X65405000Y-90170000D02*
X65405000Y-99060000D01*
X97790000Y-108585000D02*
X97790000Y-113030000D01*
X166370000Y-88900000D02*
X166370000Y-105410000D01*
X55245000Y-99060000D02*
X53975000Y-100330000D01*
X121230000Y-79270000D02*
X121285000Y-79325000D01*
X121285000Y-79325000D02*
X121285000Y-85725000D01*
X53975000Y-88900000D02*
X55245000Y-90170000D01*
X87630000Y-103505000D02*
X88900000Y-102235000D01*
X121285000Y-108585000D02*
X121285000Y-102870000D01*
X156355489Y-100184511D02*
X154940000Y-101600000D01*
X154945000Y-85725000D02*
X154945000Y-87635000D01*
X55245000Y-90170000D02*
X55245000Y-99060000D01*
X88900000Y-88900000D02*
X88900000Y-102235000D01*
X87630000Y-85725000D02*
X87630000Y-87630000D01*
X154945000Y-87635000D02*
X156355489Y-89045489D01*
X122555000Y-88900000D02*
X122555000Y-101600000D01*
X53975000Y-100330000D02*
X53975000Y-108585000D01*
X154945000Y-85725000D02*
X154945000Y-79380000D01*
X53975000Y-85725000D02*
X53975000Y-88900000D01*
X154945000Y-79380000D02*
X154940000Y-79375000D01*
X123825000Y-124460000D02*
X121285000Y-121920000D01*
X156355489Y-89045489D02*
X156355489Y-100184511D01*
X121285000Y-87630000D02*
X122555000Y-88900000D01*
X87630000Y-87630000D02*
X88900000Y-88900000D01*
X121285000Y-102870000D02*
X122555000Y-101600000D01*
X121285000Y-121920000D02*
X121285000Y-108585000D01*
X87630000Y-85725000D02*
X87630000Y-79270000D01*
X121920000Y-154940000D02*
X123825000Y-154940000D01*
X87630000Y-108585000D02*
X87630000Y-103505000D01*
X123825000Y-154940000D02*
X123825000Y-124460000D01*
X121285000Y-85725000D02*
X121285000Y-87630000D01*
X154940000Y-101600000D02*
X154940000Y-108585000D01*
X104140000Y-125730000D02*
X106680000Y-125730000D01*
X105410000Y-133350000D02*
X105410000Y-129540000D01*
X107950000Y-129540000D02*
X107950000Y-125730000D01*
X100965000Y-153035000D02*
X104140000Y-153035000D01*
X106680000Y-133350000D02*
X105410000Y-133350000D01*
X104140000Y-153035000D02*
X104140000Y-125730000D01*
X97790000Y-160020000D02*
X100965000Y-160020000D01*
X107950000Y-125730000D02*
X106680000Y-125730000D01*
X105410000Y-129540000D02*
X107950000Y-129540000D01*
X100965000Y-160020000D02*
X100965000Y-153035000D01*
X101600000Y-154305000D02*
X104775000Y-154305000D01*
X104775000Y-154305000D02*
X104775000Y-128270000D01*
X97790000Y-165100000D02*
X101600000Y-165100000D01*
X101600000Y-165100000D02*
X101600000Y-154305000D01*
X104775000Y-128270000D02*
X106680000Y-128270000D01*
X105410000Y-155575000D02*
X105410000Y-135890000D01*
X102235000Y-167640000D02*
X102235000Y-155575000D01*
X105410000Y-135890000D02*
X106680000Y-135890000D01*
X97790000Y-167640000D02*
X102235000Y-167640000D01*
X102235000Y-155575000D02*
X105410000Y-155575000D01*
X115570000Y-20320000D02*
X81915000Y-20320000D01*
X81915000Y-20320000D02*
X81915000Y-33655000D01*
X116840000Y-33655000D02*
X115570000Y-32385000D01*
X75565000Y-111125000D02*
X75565000Y-69215000D01*
X97790000Y-170180000D02*
X96520000Y-170180000D01*
X73500000Y-49500000D02*
X74000000Y-49000000D01*
X148590000Y-20320000D02*
X181610000Y-20320000D01*
X73500000Y-67150000D02*
X73500000Y-49500000D01*
X181610000Y-33580000D02*
X181647500Y-33617500D01*
X96520000Y-170180000D02*
X96520000Y-152400000D01*
X150495000Y-33655000D02*
X148590000Y-33655000D01*
X148590000Y-33655000D02*
X148590000Y-20320000D01*
X181647500Y-33617500D02*
X184140000Y-33617500D01*
X115570000Y-32385000D02*
X115570000Y-20320000D01*
X96520000Y-152400000D02*
X103505000Y-152400000D01*
X74000000Y-49000000D02*
X83400300Y-49000000D01*
X75565000Y-69215000D02*
X73500000Y-67150000D01*
X115570000Y-20320000D02*
X148590000Y-20320000D01*
X84309511Y-48090789D02*
X84309511Y-34779511D01*
X103505000Y-152400000D02*
X103505000Y-120650000D01*
X81915000Y-33655000D02*
X83185000Y-33655000D01*
X181610000Y-20320000D02*
X181610000Y-33580000D01*
X84309511Y-34779511D02*
X83185000Y-33655000D01*
X83400300Y-49000000D02*
X84309511Y-48090789D01*
X73949520Y-65115480D02*
X73949520Y-49686198D01*
X78105000Y-69215000D02*
X74005480Y-65115480D01*
X74005480Y-65115480D02*
X73949520Y-65115480D01*
X74186198Y-49449520D02*
X83586497Y-49449520D01*
X84759031Y-30149031D02*
X83185000Y-28575000D01*
X73949520Y-49686198D02*
X74186198Y-49449520D01*
X84759031Y-48276986D02*
X84759031Y-30149031D01*
X78105000Y-109855000D02*
X78105000Y-69215000D01*
X100330000Y-119380000D02*
X100330000Y-123825000D01*
X83586497Y-49449520D02*
X84759031Y-48276986D01*
X60325000Y-100330000D02*
X60325000Y-111125000D01*
X61595000Y-93345000D02*
X61595000Y-90170000D01*
X97790000Y-119380000D02*
X97790000Y-123825000D01*
X61595000Y-93345000D02*
X61595000Y-99060000D01*
X60325000Y-71755000D02*
X61595000Y-70485000D01*
X61595000Y-99060000D02*
X60325000Y-100330000D01*
X61595000Y-90170000D02*
X60325000Y-88900000D01*
X60325000Y-88900000D02*
X60325000Y-71755000D01*
X120160489Y-121721467D02*
X123190000Y-124750978D01*
X118110000Y-28575000D02*
X118960969Y-29425969D01*
X118960969Y-88127017D02*
X120160489Y-89326537D01*
X123190000Y-130810000D02*
X121920000Y-130810000D01*
X123190000Y-124750978D02*
X123190000Y-130810000D01*
X116840000Y-28575000D02*
X118110000Y-28575000D01*
X120160489Y-89326537D02*
X120160489Y-121721467D01*
X118960969Y-29425969D02*
X118960969Y-88127017D01*
X133985000Y-115570000D02*
X133985000Y-120015000D01*
X161290000Y-101600000D02*
X161290000Y-110490000D01*
X132080000Y-121920000D02*
X132080000Y-135890000D01*
X161290000Y-87630000D02*
X162560000Y-88900000D01*
X162560000Y-100330000D02*
X161290000Y-101600000D01*
X132080000Y-135890000D02*
X129540000Y-135890000D01*
X161290000Y-110490000D02*
X152400000Y-110490000D01*
X161290000Y-76835000D02*
X161290000Y-87630000D01*
X162565000Y-75560000D02*
X161290000Y-76835000D01*
X152400000Y-110490000D02*
X152400000Y-108585000D01*
X162565000Y-70485000D02*
X162565000Y-75560000D01*
X162560000Y-93345000D02*
X162560000Y-100330000D01*
X162560000Y-88900000D02*
X162560000Y-93345000D01*
X133985000Y-120015000D02*
X132080000Y-121920000D01*
X95250000Y-93345000D02*
X95250000Y-102235000D01*
X93980000Y-81280000D02*
X93980000Y-86995000D01*
X95250000Y-88265000D02*
X95250000Y-93345000D01*
X95250000Y-80010000D02*
X93980000Y-81280000D01*
X95250000Y-102235000D02*
X93980000Y-103505000D01*
X93980000Y-114300000D02*
X102235000Y-114300000D01*
X93980000Y-103505000D02*
X93980000Y-114300000D01*
X95250000Y-70485000D02*
X95250000Y-80010000D01*
X93980000Y-86995000D02*
X95250000Y-88265000D01*
X102235000Y-114300000D02*
X102235000Y-134620000D01*
X186055000Y-43815000D02*
X177800000Y-43815000D01*
X177800000Y-43815000D02*
X177800000Y-59690000D01*
X132715000Y-120649282D02*
X132715000Y-117475000D01*
X179070000Y-59690000D02*
X179070000Y-104140000D01*
X184140000Y-28537500D02*
X186017500Y-28537500D01*
X129540000Y-133350000D02*
X131445000Y-133350000D01*
X186055000Y-28575000D02*
X186055000Y-43815000D01*
X131630480Y-121733802D02*
X132715000Y-120649282D01*
X131445000Y-133350000D02*
X131630480Y-133164520D01*
X177800000Y-59690000D02*
X179070000Y-59690000D01*
X186017500Y-28537500D02*
X186055000Y-28575000D01*
X131630480Y-133164520D02*
X131630480Y-121733802D01*
X127489511Y-86864511D02*
X127489511Y-80785489D01*
X127635000Y-102870000D02*
X127635000Y-113665000D01*
X128905000Y-101600000D02*
X127635000Y-102870000D01*
X128905000Y-93345000D02*
X128905000Y-88280000D01*
X127489511Y-80785489D02*
X128905000Y-79370000D01*
X128905000Y-93345000D02*
X128905000Y-101600000D01*
X128905000Y-88280000D02*
X127489511Y-86864511D01*
X128905000Y-79370000D02*
X128905000Y-70485000D01*
X151130000Y-49530000D02*
X149225000Y-49530000D01*
X81280000Y-67945000D02*
X80645000Y-68580000D01*
X153035000Y-47625000D02*
X151130000Y-49530000D01*
X79375000Y-50800000D02*
X79375000Y-60325000D01*
X80645000Y-68580000D02*
X80645000Y-110490000D01*
X79375000Y-60325000D02*
X81280000Y-62230000D01*
X81280000Y-62230000D02*
X81280000Y-67945000D01*
X153035000Y-28575000D02*
X153035000Y-47625000D01*
X150495000Y-28575000D02*
X153035000Y-28575000D01*
X97790000Y-81280000D02*
X96520000Y-82550000D01*
X165105000Y-70485000D02*
X165105000Y-75560000D01*
X96520000Y-82550000D02*
X96520000Y-86995000D01*
X97790000Y-102235000D02*
X97790000Y-93345000D01*
X131445000Y-88110978D02*
X130029511Y-86695489D01*
X62865000Y-88900000D02*
X62865000Y-71755000D01*
X131445000Y-93345000D02*
X131445000Y-88110978D01*
X108585000Y-113665000D02*
X108585000Y-130810000D01*
X96374511Y-113519511D02*
X96520000Y-113665000D01*
X130029511Y-80745489D02*
X130029511Y-86695489D01*
X163830000Y-87630000D02*
X165100000Y-88900000D01*
X131445000Y-70485000D02*
X131445000Y-79330000D01*
X97790000Y-88265000D02*
X97790000Y-93345000D01*
X64135000Y-93345000D02*
X64135000Y-90170000D01*
X97790000Y-70485000D02*
X97790000Y-81280000D01*
X62865000Y-71755000D02*
X64135000Y-70485000D01*
X131445000Y-102235000D02*
X131445000Y-93345000D01*
X165100000Y-88900000D02*
X165100000Y-93345000D01*
X96374511Y-103650489D02*
X96374511Y-113519511D01*
X96520000Y-113665000D02*
X108585000Y-113665000D01*
X163830000Y-76835000D02*
X163830000Y-87630000D01*
X97790000Y-88265000D02*
X96520000Y-86995000D01*
X165105000Y-75560000D02*
X163830000Y-76835000D01*
X165100000Y-93345000D02*
X165100000Y-102235000D01*
X131445000Y-79330000D02*
X130029511Y-80745489D01*
X108585000Y-130810000D02*
X106680000Y-130810000D01*
X97790000Y-102235000D02*
X96374511Y-103650489D01*
X64135000Y-90170000D02*
X62865000Y-88900000D01*
X172085000Y-39370000D02*
X169545000Y-39370000D01*
X175895000Y-42545000D02*
X175260000Y-41910000D01*
X169545000Y-39370000D02*
X169545000Y-28575000D01*
X184140000Y-41285000D02*
X182880000Y-42545000D01*
X169545000Y-28575000D02*
X169582500Y-28537500D01*
X182880000Y-42545000D02*
X175895000Y-42545000D01*
X175260000Y-37465000D02*
X172085000Y-37465000D01*
X184140000Y-41237500D02*
X184140000Y-41285000D01*
X172085000Y-37465000D02*
X172085000Y-39370000D01*
X175260000Y-41910000D02*
X175260000Y-37465000D01*
X169582500Y-28537500D02*
X173335000Y-28537500D01*
X170180000Y-88900000D02*
X170180000Y-93345000D01*
X168910000Y-87630000D02*
X170180000Y-88900000D01*
X170185000Y-70485000D02*
X170185000Y-75560000D01*
X176520000Y-25997500D02*
X175212500Y-27305000D01*
X171450000Y-69220000D02*
X170185000Y-70485000D01*
X168275000Y-46990000D02*
X171450000Y-50165000D01*
X171450000Y-50165000D02*
X171450000Y-69220000D01*
X170185000Y-75560000D02*
X168910000Y-76835000D01*
X168910000Y-76835000D02*
X168910000Y-87630000D01*
X175212500Y-27305000D02*
X168275000Y-27305000D01*
X168275000Y-27305000D02*
X168275000Y-46990000D01*
X175222500Y-36157500D02*
X174625000Y-35560000D01*
X174625000Y-35560000D02*
X174625000Y-28575000D01*
X174625000Y-28575000D02*
X174662500Y-28537500D01*
X174662500Y-28537500D02*
X176520000Y-28537500D01*
X176520000Y-36157500D02*
X175222500Y-36157500D01*
X166407500Y-33617500D02*
X167005000Y-33020000D01*
X167005000Y-33020000D02*
X167005000Y-30480000D01*
X167005000Y-30480000D02*
X166370000Y-29845000D01*
X164465000Y-22225000D02*
X180340000Y-22225000D01*
X180340000Y-36120000D02*
X180377500Y-36157500D01*
X165715000Y-33617500D02*
X166407500Y-33617500D01*
X180377500Y-36157500D02*
X184140000Y-36157500D01*
X166370000Y-29845000D02*
X164465000Y-29845000D01*
X180340000Y-22225000D02*
X180340000Y-36120000D01*
X164465000Y-29845000D02*
X164465000Y-22225000D01*
X177865000Y-34870000D02*
X175335000Y-34870000D01*
X178995000Y-23420000D02*
X165715000Y-23420000D01*
X176520000Y-38697500D02*
X177657500Y-38697500D01*
X179070000Y-32385000D02*
X179070000Y-23495000D01*
X165715000Y-23420000D02*
X165715000Y-25997500D01*
X177865000Y-38490000D02*
X177865000Y-34870000D01*
X179070000Y-23495000D02*
X178995000Y-23420000D01*
X175335000Y-32465000D02*
X178990000Y-32465000D01*
X178990000Y-32465000D02*
X179070000Y-32385000D01*
X175335000Y-34870000D02*
X175335000Y-32465000D01*
X177657500Y-38697500D02*
X177865000Y-38490000D01*
X139700000Y-28575000D02*
X140575000Y-28575000D01*
X140575000Y-28575000D02*
X140824511Y-28824511D01*
X141605000Y-40005000D02*
X140970000Y-39370000D01*
X149225000Y-40005000D02*
X150495000Y-41275000D01*
X141605000Y-40005000D02*
X149225000Y-40005000D01*
X141605000Y-40005000D02*
X140824511Y-39224511D01*
X140824511Y-28824511D02*
X140824511Y-39224511D01*
X137795000Y-50165000D02*
X138324511Y-49635489D01*
X136525000Y-70485000D02*
X136525000Y-79550000D01*
X138324511Y-49635489D02*
X138324511Y-27494511D01*
X138659511Y-27159511D02*
X141750489Y-27159511D01*
X136525000Y-70485000D02*
X137795000Y-69215000D01*
X137795000Y-69215000D02*
X137795000Y-50165000D01*
X135400489Y-80674511D02*
X135400489Y-86749511D01*
X141750489Y-27159511D02*
X142875000Y-26035000D01*
X136525000Y-79550000D02*
X135400489Y-80674511D01*
X136525000Y-93345000D02*
X136525000Y-87874022D01*
X138324511Y-27494511D02*
X138659511Y-27159511D01*
X136525000Y-87874022D02*
X135400489Y-86749511D01*
X141274031Y-28879031D02*
X141300969Y-28879031D01*
X141300969Y-28879031D02*
X141605000Y-28575000D01*
X141605000Y-28575000D02*
X142875000Y-28575000D01*
X141605000Y-36195000D02*
X141274031Y-35864031D01*
X142875000Y-36195000D02*
X141605000Y-36195000D01*
X141274031Y-35864031D02*
X141274031Y-28879031D01*
X133350000Y-30480000D02*
X133350000Y-33020000D01*
X131445000Y-29845000D02*
X132715000Y-29845000D01*
X147320000Y-22225000D02*
X130810000Y-22225000D01*
X133350000Y-33020000D02*
X132715000Y-33655000D01*
X130810000Y-29210000D02*
X131445000Y-29845000D01*
X132715000Y-29845000D02*
X133350000Y-30480000D01*
X150495000Y-36195000D02*
X147320000Y-36195000D01*
X132715000Y-33655000D02*
X132080000Y-33655000D01*
X147320000Y-36195000D02*
X147320000Y-22225000D01*
X130810000Y-22225000D02*
X130810000Y-29210000D01*
X141723551Y-32901449D02*
X141723551Y-34408551D01*
X132080000Y-26035000D02*
X132080000Y-23495000D01*
X146050000Y-23495000D02*
X146050000Y-32385000D01*
X142240000Y-32385000D02*
X141723551Y-32901449D01*
X142240000Y-34925000D02*
X144780000Y-34925000D01*
X144780000Y-38735000D02*
X142875000Y-38735000D01*
X141723551Y-34408551D02*
X142240000Y-34925000D01*
X146050000Y-32385000D02*
X142240000Y-32385000D01*
X144780000Y-34925000D02*
X144780000Y-38735000D01*
X132080000Y-23495000D02*
X146050000Y-23495000D01*
X107024022Y-28575000D02*
X107169511Y-28720489D01*
X107950000Y-40005000D02*
X115570000Y-40005000D01*
X107169511Y-39224511D02*
X107950000Y-40005000D01*
X106045000Y-28575000D02*
X107024022Y-28575000D01*
X107169511Y-28720489D02*
X107169511Y-39224511D01*
X115570000Y-40005000D02*
X116840000Y-41275000D01*
X102870000Y-88265000D02*
X101600000Y-86995000D01*
X104649511Y-49655489D02*
X104649511Y-27850489D01*
X108095489Y-27159511D02*
X109220000Y-26035000D01*
X105340489Y-27159511D02*
X108095489Y-27159511D01*
X101600000Y-83185000D02*
X102870000Y-81915000D01*
X102870000Y-70485000D02*
X104140000Y-69215000D01*
X104649511Y-27850489D02*
X105340489Y-27159511D01*
X104140000Y-50165000D02*
X104649511Y-49655489D01*
X102870000Y-93345000D02*
X102870000Y-88265000D01*
X104140000Y-69215000D02*
X104140000Y-50165000D01*
X101600000Y-86995000D02*
X101600000Y-83185000D01*
X102870000Y-81915000D02*
X102870000Y-70485000D01*
X107645969Y-28879031D02*
X107645969Y-34000000D01*
X107645969Y-35752339D02*
X108088630Y-36195000D01*
X107645969Y-33354031D02*
X107645969Y-35752339D01*
X108088630Y-36195000D02*
X109220000Y-36195000D01*
X107950000Y-28575000D02*
X107645969Y-28879031D01*
X109220000Y-28575000D02*
X107950000Y-28575000D01*
X97000000Y-21500000D02*
X97000000Y-29980978D01*
X99549511Y-33450489D02*
X99345000Y-33655000D01*
X98990489Y-29990489D02*
X99000000Y-30000000D01*
X99549511Y-30049511D02*
X99549511Y-33450489D01*
X97009511Y-29990489D02*
X98990489Y-29990489D01*
X116840000Y-36195000D02*
X114935000Y-36195000D01*
X114935000Y-36195000D02*
X114300000Y-35560000D01*
X114300000Y-35560000D02*
X114300000Y-21590000D01*
X114300000Y-21590000D02*
X114210000Y-21500000D01*
X114210000Y-21500000D02*
X97000000Y-21500000D01*
X99500000Y-30000000D02*
X99549511Y-30049511D01*
X99345000Y-33655000D02*
X98425000Y-33655000D01*
X97000000Y-29980978D02*
X97009511Y-29990489D01*
X99000000Y-30000000D02*
X99500000Y-30000000D01*
X108425000Y-34925000D02*
X108095489Y-34595489D01*
X112925000Y-22575000D02*
X98425000Y-22575000D01*
X108095489Y-32874511D02*
X108470000Y-32500000D01*
X109220000Y-38735000D02*
X110240000Y-38735000D01*
X110240000Y-34925000D02*
X108425000Y-34925000D01*
X108095489Y-34595489D02*
X108095489Y-32874511D01*
X112510000Y-32500000D02*
X112925000Y-32085000D01*
X112925000Y-32085000D02*
X112925000Y-22575000D01*
X111000000Y-35685000D02*
X110240000Y-34925000D01*
X108470000Y-32500000D02*
X112510000Y-32500000D01*
X110240000Y-38735000D02*
X111000000Y-37975000D01*
X98425000Y-22575000D02*
X98425000Y-26035000D01*
X111000000Y-37975000D02*
X111000000Y-35685000D01*
X74004022Y-40005000D02*
X73514511Y-39515489D01*
X81915000Y-40005000D02*
X74004022Y-40005000D01*
X73514511Y-29014511D02*
X73075000Y-28575000D01*
X73514511Y-39515489D02*
X73514511Y-29014511D01*
X83185000Y-41275000D02*
X81915000Y-40005000D01*
X73075000Y-28575000D02*
X72390000Y-28575000D01*
X70485000Y-27305000D02*
X70485000Y-69215000D01*
X70485000Y-69215000D02*
X69215000Y-70485000D01*
X74295000Y-27305000D02*
X70485000Y-27305000D01*
X69215000Y-90170000D02*
X67945000Y-88900000D01*
X67945000Y-71755000D02*
X69215000Y-70485000D01*
X67945000Y-88900000D02*
X67945000Y-71755000D01*
X69215000Y-93345000D02*
X69215000Y-90170000D01*
X75565000Y-26035000D02*
X74295000Y-27305000D01*
X73964031Y-35964031D02*
X74195000Y-36195000D01*
X73964031Y-28964031D02*
X73964031Y-35964031D01*
X74353062Y-28575000D02*
X73964031Y-28964031D01*
X74195000Y-36195000D02*
X75565000Y-36195000D01*
X75565000Y-28575000D02*
X74353062Y-28575000D01*
X81280000Y-36195000D02*
X83185000Y-36195000D01*
X81280000Y-20955000D02*
X81280000Y-36195000D01*
X66040000Y-33655000D02*
X66040000Y-29845000D01*
X66040000Y-29845000D02*
X62865000Y-29845000D01*
X64770000Y-33655000D02*
X66040000Y-33655000D01*
X62865000Y-20955000D02*
X81280000Y-20955000D01*
X62865000Y-29845000D02*
X62865000Y-20955000D01*
X64770000Y-26035000D02*
X64770000Y-22230000D01*
X76835000Y-34925000D02*
X77000000Y-35090000D01*
X79375000Y-22235000D02*
X79375000Y-32385000D01*
X77000000Y-35090000D02*
X77000000Y-38500000D01*
X74413551Y-34925000D02*
X76835000Y-34925000D01*
X74413551Y-32385000D02*
X74413551Y-34925000D01*
X77000000Y-38500000D02*
X76765000Y-38735000D01*
X64770000Y-22230000D02*
X79370000Y-22230000D01*
X76765000Y-38735000D02*
X75565000Y-38735000D01*
X79370000Y-22230000D02*
X79375000Y-22235000D01*
X79375000Y-32385000D02*
X74413551Y-32385000D01*
G04 #@! TA.AperFunction,Conductor*
G36*
X52698227Y-40660002D02*
G01*
X52744720Y-40713658D01*
X52754824Y-40783932D01*
X52745343Y-40815756D01*
X52745393Y-40815774D01*
X52745087Y-40816614D01*
X52744304Y-40819243D01*
X52743512Y-40820941D01*
X52739764Y-40831239D01*
X52693606Y-41003503D01*
X52693942Y-41017599D01*
X52701884Y-41021000D01*
X53975000Y-41021000D01*
X53975000Y-41529000D01*
X52707033Y-41529000D01*
X52693502Y-41532973D01*
X52692273Y-41541522D01*
X52739764Y-41718761D01*
X52743510Y-41729053D01*
X52835586Y-41926511D01*
X52841069Y-41936007D01*
X52966028Y-42114467D01*
X52973084Y-42122875D01*
X53127125Y-42276916D01*
X53135533Y-42283972D01*
X53313993Y-42408931D01*
X53323489Y-42414414D01*
X53520947Y-42506490D01*
X53531239Y-42510236D01*
X53741688Y-42566625D01*
X53752480Y-42568528D01*
X53859981Y-42577933D01*
X53926099Y-42603796D01*
X53967739Y-42661300D01*
X53975000Y-42703454D01*
X53975000Y-51276044D01*
X53954998Y-51344165D01*
X53901342Y-51390658D01*
X53859982Y-51401565D01*
X53833533Y-51403879D01*
X53752394Y-51410977D01*
X53752389Y-51410978D01*
X53746913Y-51411457D01*
X53741600Y-51412881D01*
X53741598Y-51412881D01*
X53531067Y-51469293D01*
X53531065Y-51469294D01*
X53525757Y-51470716D01*
X53520776Y-51473039D01*
X53520775Y-51473039D01*
X53323238Y-51565151D01*
X53323233Y-51565154D01*
X53318251Y-51567477D01*
X53213389Y-51640902D01*
X53135211Y-51695643D01*
X53135208Y-51695645D01*
X53130700Y-51698802D01*
X52968802Y-51860700D01*
X52837477Y-52048251D01*
X52835154Y-52053233D01*
X52835151Y-52053238D01*
X52743039Y-52250775D01*
X52740716Y-52255757D01*
X52681457Y-52476913D01*
X52661502Y-52705000D01*
X52681457Y-52933087D01*
X52740716Y-53154243D01*
X52743039Y-53159224D01*
X52743039Y-53159225D01*
X52835151Y-53356762D01*
X52835154Y-53356767D01*
X52837477Y-53361749D01*
X52968802Y-53549300D01*
X53130700Y-53711198D01*
X53135208Y-53714355D01*
X53135211Y-53714357D01*
X53213389Y-53769098D01*
X53318251Y-53842523D01*
X53323233Y-53844846D01*
X53323238Y-53844849D01*
X53520775Y-53936961D01*
X53525757Y-53939284D01*
X53531065Y-53940706D01*
X53531067Y-53940707D01*
X53741598Y-53997119D01*
X53741600Y-53997119D01*
X53746913Y-53998543D01*
X53752389Y-53999022D01*
X53752394Y-53999023D01*
X53833533Y-54006121D01*
X53859982Y-54008435D01*
X53926100Y-54034298D01*
X53967739Y-54091802D01*
X53975000Y-54133956D01*
X53975000Y-58896044D01*
X53954998Y-58964165D01*
X53901342Y-59010658D01*
X53859982Y-59021565D01*
X53833533Y-59023879D01*
X53752394Y-59030977D01*
X53752389Y-59030978D01*
X53746913Y-59031457D01*
X53741600Y-59032881D01*
X53741598Y-59032881D01*
X53531067Y-59089293D01*
X53531065Y-59089294D01*
X53525757Y-59090716D01*
X53520776Y-59093039D01*
X53520775Y-59093039D01*
X53323238Y-59185151D01*
X53323233Y-59185154D01*
X53318251Y-59187477D01*
X53213389Y-59260902D01*
X53135211Y-59315643D01*
X53135208Y-59315645D01*
X53130700Y-59318802D01*
X52968802Y-59480700D01*
X52837477Y-59668251D01*
X52835154Y-59673233D01*
X52835151Y-59673238D01*
X52743039Y-59870775D01*
X52740716Y-59875757D01*
X52681457Y-60096913D01*
X52661502Y-60325000D01*
X52681457Y-60553087D01*
X52740716Y-60774243D01*
X52743039Y-60779224D01*
X52743039Y-60779225D01*
X52835151Y-60976762D01*
X52835154Y-60976767D01*
X52837477Y-60981749D01*
X52968802Y-61169300D01*
X53130700Y-61331198D01*
X53135208Y-61334355D01*
X53135211Y-61334357D01*
X53213389Y-61389098D01*
X53318251Y-61462523D01*
X53323233Y-61464846D01*
X53323238Y-61464849D01*
X53520775Y-61556961D01*
X53525757Y-61559284D01*
X53531065Y-61560706D01*
X53531067Y-61560707D01*
X53741598Y-61617119D01*
X53741600Y-61617119D01*
X53746913Y-61618543D01*
X53752389Y-61619022D01*
X53752394Y-61619023D01*
X53833533Y-61626121D01*
X53859982Y-61628435D01*
X53926100Y-61654298D01*
X53967739Y-61711802D01*
X53975000Y-61753956D01*
X53975000Y-62706546D01*
X53954998Y-62774667D01*
X53901342Y-62821160D01*
X53859981Y-62832067D01*
X53752480Y-62841472D01*
X53741688Y-62843375D01*
X53531239Y-62899764D01*
X53520947Y-62903510D01*
X53323489Y-62995586D01*
X53313994Y-63001069D01*
X53261952Y-63037509D01*
X53253576Y-63047988D01*
X53260644Y-63061434D01*
X53975000Y-63775790D01*
X53975000Y-64494210D01*
X53259923Y-65209287D01*
X53253493Y-65221062D01*
X53262789Y-65233077D01*
X53313994Y-65268931D01*
X53323489Y-65274414D01*
X53358641Y-65290805D01*
X53411926Y-65337722D01*
X53431387Y-65405999D01*
X53410845Y-65473959D01*
X53358641Y-65519195D01*
X53323489Y-65535586D01*
X53313994Y-65541069D01*
X53261952Y-65577509D01*
X53253576Y-65587988D01*
X53260644Y-65601434D01*
X53975000Y-66315790D01*
X53975000Y-67034210D01*
X53259923Y-67749287D01*
X53253493Y-67761062D01*
X53262789Y-67773077D01*
X53313994Y-67808931D01*
X53323489Y-67814414D01*
X53520947Y-67906490D01*
X53531239Y-67910236D01*
X53741688Y-67966625D01*
X53752480Y-67968528D01*
X53859981Y-67977933D01*
X53926099Y-68003796D01*
X53967739Y-68061300D01*
X53975000Y-68103454D01*
X53975000Y-69056546D01*
X53954998Y-69124667D01*
X53901342Y-69171160D01*
X53859981Y-69182067D01*
X53752480Y-69191472D01*
X53741688Y-69193375D01*
X53531239Y-69249764D01*
X53520947Y-69253510D01*
X53323489Y-69345586D01*
X53313993Y-69351069D01*
X53135533Y-69476028D01*
X53127125Y-69483084D01*
X52973084Y-69637125D01*
X52966028Y-69645533D01*
X52841069Y-69823993D01*
X52835586Y-69833489D01*
X52743510Y-70030947D01*
X52739764Y-70041239D01*
X52693606Y-70213503D01*
X52693942Y-70227599D01*
X52701884Y-70231000D01*
X53975000Y-70231000D01*
X53975000Y-70739000D01*
X52707033Y-70739000D01*
X52693502Y-70742973D01*
X52692273Y-70751522D01*
X52739764Y-70928761D01*
X52743510Y-70939053D01*
X52835586Y-71136511D01*
X52841069Y-71146007D01*
X52966028Y-71324467D01*
X52973084Y-71332875D01*
X53127125Y-71486916D01*
X53135533Y-71493972D01*
X53313993Y-71618931D01*
X53323489Y-71624414D01*
X53520947Y-71716490D01*
X53531239Y-71720236D01*
X53741688Y-71776625D01*
X53752480Y-71778528D01*
X53859981Y-71787933D01*
X53926099Y-71813796D01*
X53967739Y-71871300D01*
X53975000Y-71913454D01*
X53975000Y-84290500D01*
X53954998Y-84358621D01*
X53901342Y-84405114D01*
X53849000Y-84416500D01*
X53126866Y-84416500D01*
X53064684Y-84423255D01*
X52928295Y-84474385D01*
X52811739Y-84561739D01*
X52724385Y-84678295D01*
X52673255Y-84814684D01*
X52666500Y-84876866D01*
X52666500Y-86573134D01*
X52673255Y-86635316D01*
X52724385Y-86771705D01*
X52811739Y-86888261D01*
X52928295Y-86975615D01*
X53064684Y-87026745D01*
X53126866Y-87033500D01*
X53215500Y-87033500D01*
X53283621Y-87053502D01*
X53330114Y-87107158D01*
X53341500Y-87159500D01*
X53341500Y-88821233D01*
X53340973Y-88832416D01*
X53339298Y-88839909D01*
X53339547Y-88847835D01*
X53339547Y-88847836D01*
X53341438Y-88907986D01*
X53341500Y-88911945D01*
X53341500Y-88939856D01*
X53341997Y-88943790D01*
X53341997Y-88943791D01*
X53342005Y-88943856D01*
X53342938Y-88955693D01*
X53344327Y-88999889D01*
X53349978Y-89019339D01*
X53353987Y-89038700D01*
X53356526Y-89058797D01*
X53359445Y-89066168D01*
X53359445Y-89066170D01*
X53372804Y-89099912D01*
X53376649Y-89111142D01*
X53388982Y-89153593D01*
X53393015Y-89160412D01*
X53393017Y-89160417D01*
X53399293Y-89171028D01*
X53407988Y-89188776D01*
X53415448Y-89207617D01*
X53420110Y-89214033D01*
X53420110Y-89214034D01*
X53441436Y-89243387D01*
X53447952Y-89253307D01*
X53470458Y-89291362D01*
X53484779Y-89305683D01*
X53497619Y-89320716D01*
X53509528Y-89337107D01*
X53515634Y-89342158D01*
X53543605Y-89365298D01*
X53552384Y-89373288D01*
X53938095Y-89758999D01*
X53972121Y-89821311D01*
X53975000Y-89848094D01*
X53975000Y-91916546D01*
X53954998Y-91984667D01*
X53901342Y-92031160D01*
X53859981Y-92042067D01*
X53752480Y-92051472D01*
X53741688Y-92053375D01*
X53531239Y-92109764D01*
X53520947Y-92113510D01*
X53323489Y-92205586D01*
X53313993Y-92211069D01*
X53135533Y-92336028D01*
X53127125Y-92343084D01*
X52973084Y-92497125D01*
X52966028Y-92505533D01*
X52841069Y-92683993D01*
X52835586Y-92693489D01*
X52743510Y-92890947D01*
X52739764Y-92901239D01*
X52693606Y-93073503D01*
X52693942Y-93087599D01*
X52701884Y-93091000D01*
X53975000Y-93091000D01*
X53975000Y-93599000D01*
X52707033Y-93599000D01*
X52693502Y-93602973D01*
X52692273Y-93611522D01*
X52739764Y-93788761D01*
X52743510Y-93799053D01*
X52835586Y-93996511D01*
X52841069Y-94006007D01*
X52966028Y-94184467D01*
X52973084Y-94192875D01*
X53127125Y-94346916D01*
X53135533Y-94353972D01*
X53313993Y-94478931D01*
X53323489Y-94484414D01*
X53520947Y-94576490D01*
X53531239Y-94580236D01*
X53741688Y-94636625D01*
X53752480Y-94638528D01*
X53859981Y-94647933D01*
X53926099Y-94673796D01*
X53967739Y-94731300D01*
X53975000Y-94773454D01*
X53975000Y-99381905D01*
X53954998Y-99450026D01*
X53938095Y-99471000D01*
X53582747Y-99826348D01*
X53574461Y-99833888D01*
X53567982Y-99838000D01*
X53562557Y-99843777D01*
X53521357Y-99887651D01*
X53518602Y-99890493D01*
X53498865Y-99910230D01*
X53496385Y-99913427D01*
X53488682Y-99922447D01*
X53458414Y-99954679D01*
X53454595Y-99961625D01*
X53454593Y-99961628D01*
X53448652Y-99972434D01*
X53437801Y-99988953D01*
X53425386Y-100004959D01*
X53422241Y-100012228D01*
X53422238Y-100012232D01*
X53407826Y-100045537D01*
X53402609Y-100056187D01*
X53381305Y-100094940D01*
X53379334Y-100102615D01*
X53379334Y-100102616D01*
X53376267Y-100114562D01*
X53369863Y-100133266D01*
X53361819Y-100151855D01*
X53360580Y-100159678D01*
X53360577Y-100159688D01*
X53354901Y-100195524D01*
X53352495Y-100207144D01*
X53341500Y-100249970D01*
X53341500Y-100270224D01*
X53339949Y-100289934D01*
X53336780Y-100309943D01*
X53337526Y-100317835D01*
X53340941Y-100353961D01*
X53341500Y-100365819D01*
X53341500Y-107150500D01*
X53321498Y-107218621D01*
X53267842Y-107265114D01*
X53215500Y-107276500D01*
X53126866Y-107276500D01*
X53064684Y-107283255D01*
X52928295Y-107334385D01*
X52811739Y-107421739D01*
X52724385Y-107538295D01*
X52673255Y-107674684D01*
X52666500Y-107736866D01*
X52666500Y-109433134D01*
X52673255Y-109495316D01*
X52724385Y-109631705D01*
X52811739Y-109748261D01*
X52928295Y-109835615D01*
X53064684Y-109886745D01*
X53126866Y-109893500D01*
X53849000Y-109893500D01*
X53917121Y-109913502D01*
X53963614Y-109967158D01*
X53975000Y-110019500D01*
X53975000Y-110331044D01*
X53954998Y-110399165D01*
X53901342Y-110445658D01*
X53859982Y-110456565D01*
X53833533Y-110458879D01*
X53752394Y-110465977D01*
X53752389Y-110465978D01*
X53746913Y-110466457D01*
X53741600Y-110467881D01*
X53741598Y-110467881D01*
X53531067Y-110524293D01*
X53531065Y-110524294D01*
X53525757Y-110525716D01*
X53520776Y-110528039D01*
X53520775Y-110528039D01*
X53323238Y-110620151D01*
X53323233Y-110620154D01*
X53318251Y-110622477D01*
X53213389Y-110695902D01*
X53135211Y-110750643D01*
X53135208Y-110750645D01*
X53130700Y-110753802D01*
X52968802Y-110915700D01*
X52837477Y-111103251D01*
X52835154Y-111108233D01*
X52835151Y-111108238D01*
X52743039Y-111305775D01*
X52740716Y-111310757D01*
X52681457Y-111531913D01*
X52661502Y-111760000D01*
X46998000Y-111760000D01*
X46998000Y-66680475D01*
X52662483Y-66680475D01*
X52681472Y-66897519D01*
X52683375Y-66908312D01*
X52739764Y-67118761D01*
X52743510Y-67129053D01*
X52835586Y-67326511D01*
X52841069Y-67336006D01*
X52877509Y-67388048D01*
X52887988Y-67396424D01*
X52901434Y-67389356D01*
X53602978Y-66687812D01*
X53610592Y-66673868D01*
X53610461Y-66672035D01*
X53606210Y-66665420D01*
X52900713Y-65959923D01*
X52888938Y-65953493D01*
X52876923Y-65962789D01*
X52841069Y-66013994D01*
X52835586Y-66023489D01*
X52743510Y-66220947D01*
X52739764Y-66231239D01*
X52683375Y-66441688D01*
X52681472Y-66452481D01*
X52662483Y-66669525D01*
X52662483Y-66680475D01*
X46998000Y-66680475D01*
X46998000Y-64140475D01*
X52662483Y-64140475D01*
X52681472Y-64357519D01*
X52683375Y-64368312D01*
X52739764Y-64578761D01*
X52743510Y-64589053D01*
X52835586Y-64786511D01*
X52841069Y-64796006D01*
X52877509Y-64848048D01*
X52887988Y-64856424D01*
X52901434Y-64849356D01*
X53602978Y-64147812D01*
X53610592Y-64133868D01*
X53610461Y-64132035D01*
X53606210Y-64125420D01*
X52900713Y-63419923D01*
X52888938Y-63413493D01*
X52876923Y-63422789D01*
X52841069Y-63473994D01*
X52835586Y-63483489D01*
X52743510Y-63680947D01*
X52739764Y-63691239D01*
X52683375Y-63901688D01*
X52681472Y-63912481D01*
X52662483Y-64129525D01*
X52662483Y-64140475D01*
X46998000Y-64140475D01*
X46998000Y-40766000D01*
X47018002Y-40697879D01*
X47071658Y-40651386D01*
X47124000Y-40640000D01*
X52630106Y-40640000D01*
X52698227Y-40660002D01*
G37*
G04 #@! TD.AperFunction*
G04 #@! TA.AperFunction,Conductor*
G36*
X93287121Y-111145002D02*
G01*
X93333614Y-111198658D01*
X93345000Y-111251000D01*
X93345000Y-130828324D01*
X93324998Y-130896445D01*
X93278925Y-130939162D01*
X93274302Y-130941661D01*
X93274296Y-130941665D01*
X93271205Y-130943336D01*
X92977721Y-131147313D01*
X92708803Y-131382733D01*
X92467802Y-131646662D01*
X92257724Y-131935810D01*
X92081186Y-132246573D01*
X91940388Y-132575079D01*
X91837086Y-132917231D01*
X91772567Y-133268766D01*
X91747636Y-133625302D01*
X91748552Y-133647168D01*
X91762603Y-133982396D01*
X91817281Y-134335595D01*
X91910989Y-134680499D01*
X92042559Y-135012807D01*
X92210352Y-135328379D01*
X92212337Y-135331278D01*
X92410284Y-135620373D01*
X92410289Y-135620379D01*
X92412275Y-135623280D01*
X92645812Y-135893835D01*
X92908052Y-136136672D01*
X93195726Y-136348764D01*
X93198763Y-136350518D01*
X93198767Y-136350520D01*
X93282000Y-136398574D01*
X93330993Y-136449956D01*
X93345000Y-136507693D01*
X93345000Y-181318844D01*
X93324998Y-181386965D01*
X93322017Y-181391181D01*
X93320943Y-181392998D01*
X93316086Y-181399259D01*
X93312941Y-181406528D01*
X93312938Y-181406532D01*
X93298526Y-181439837D01*
X93293309Y-181450487D01*
X93272005Y-181489240D01*
X93270034Y-181496915D01*
X93270034Y-181496916D01*
X93266967Y-181508862D01*
X93260563Y-181527566D01*
X93252519Y-181546155D01*
X93251280Y-181553978D01*
X93251277Y-181553988D01*
X93245601Y-181589824D01*
X93243195Y-181601444D01*
X93232200Y-181644270D01*
X93232200Y-181664524D01*
X93230649Y-181684234D01*
X93227480Y-181704243D01*
X93228226Y-181712135D01*
X93228226Y-181712137D01*
X93230062Y-181731563D01*
X93216559Y-181801263D01*
X93209459Y-181813311D01*
X92381342Y-183055487D01*
X92326913Y-183101072D01*
X92256479Y-183109994D01*
X92215994Y-183096114D01*
X92198760Y-183086678D01*
X92078306Y-183041522D01*
X92063051Y-183037895D01*
X92012186Y-183032369D01*
X92005372Y-183032000D01*
X91597815Y-183032000D01*
X91582576Y-183036475D01*
X91581371Y-183037865D01*
X91579700Y-183045548D01*
X91579700Y-183515000D01*
X91071700Y-183515000D01*
X91071700Y-183050116D01*
X91067225Y-183034877D01*
X91065835Y-183033672D01*
X91058152Y-183032001D01*
X90646031Y-183032001D01*
X90639210Y-183032371D01*
X90588348Y-183037895D01*
X90573097Y-183041521D01*
X90473352Y-183078914D01*
X90402545Y-183084097D01*
X90340027Y-183050027D01*
X89444905Y-182154905D01*
X89410879Y-182092593D01*
X89408000Y-182065810D01*
X89408000Y-115864902D01*
X89408002Y-115864132D01*
X89408421Y-115795522D01*
X89408476Y-115786548D01*
X89406010Y-115777919D01*
X89406009Y-115777914D01*
X89400361Y-115758152D01*
X89396783Y-115741391D01*
X89393870Y-115721048D01*
X89393867Y-115721038D01*
X89392595Y-115712155D01*
X89381979Y-115688805D01*
X89375536Y-115671293D01*
X89370954Y-115655263D01*
X89368488Y-115646635D01*
X89352726Y-115621652D01*
X89344596Y-115606586D01*
X89332367Y-115579690D01*
X89315626Y-115560261D01*
X89304521Y-115545253D01*
X89295630Y-115531161D01*
X89290840Y-115523569D01*
X89268703Y-115504018D01*
X89256659Y-115491826D01*
X89243239Y-115476251D01*
X89243237Y-115476250D01*
X89237381Y-115469453D01*
X89229853Y-115464574D01*
X89229850Y-115464571D01*
X89215861Y-115455504D01*
X89200987Y-115444214D01*
X89188502Y-115433188D01*
X89181772Y-115427244D01*
X89173646Y-115423429D01*
X89173645Y-115423428D01*
X89167979Y-115420768D01*
X89155034Y-115414690D01*
X89140065Y-115406376D01*
X89115273Y-115390307D01*
X89090709Y-115382961D01*
X89073264Y-115376299D01*
X89050052Y-115365401D01*
X89020870Y-115360857D01*
X89004151Y-115357074D01*
X88984464Y-115351186D01*
X88984461Y-115351185D01*
X88975859Y-115348613D01*
X88966884Y-115348558D01*
X88966883Y-115348558D01*
X88960190Y-115348517D01*
X88941444Y-115348403D01*
X88940672Y-115348370D01*
X88939577Y-115348200D01*
X88908702Y-115348200D01*
X88907932Y-115348198D01*
X88834284Y-115347748D01*
X88834283Y-115347748D01*
X88830348Y-115347724D01*
X88829004Y-115348108D01*
X88827659Y-115348200D01*
X47124000Y-115348200D01*
X47055879Y-115328198D01*
X47009386Y-115274542D01*
X46998000Y-115222200D01*
X46998000Y-111760000D01*
X52661502Y-111760000D01*
X52681457Y-111988087D01*
X52682881Y-111993400D01*
X52682881Y-111993402D01*
X52720025Y-112132022D01*
X52740716Y-112209243D01*
X52743039Y-112214224D01*
X52743039Y-112214225D01*
X52835151Y-112411762D01*
X52835154Y-112411767D01*
X52837477Y-112416749D01*
X52968802Y-112604300D01*
X53130700Y-112766198D01*
X53135208Y-112769355D01*
X53135211Y-112769357D01*
X53213389Y-112824098D01*
X53318251Y-112897523D01*
X53323233Y-112899846D01*
X53323238Y-112899849D01*
X53519765Y-112991490D01*
X53525757Y-112994284D01*
X53531065Y-112995706D01*
X53531067Y-112995707D01*
X53741598Y-113052119D01*
X53741600Y-113052119D01*
X53746913Y-113053543D01*
X53975000Y-113073498D01*
X54203087Y-113053543D01*
X54208400Y-113052119D01*
X54208402Y-113052119D01*
X54418933Y-112995707D01*
X54418935Y-112995706D01*
X54424243Y-112994284D01*
X54430235Y-112991490D01*
X54626762Y-112899849D01*
X54626767Y-112899846D01*
X54631749Y-112897523D01*
X54705243Y-112846062D01*
X55753493Y-112846062D01*
X55762789Y-112858077D01*
X55813994Y-112893931D01*
X55823489Y-112899414D01*
X56020947Y-112991490D01*
X56031239Y-112995236D01*
X56241688Y-113051625D01*
X56252481Y-113053528D01*
X56469525Y-113072517D01*
X56480475Y-113072517D01*
X56697519Y-113053528D01*
X56708312Y-113051625D01*
X56918761Y-112995236D01*
X56929053Y-112991490D01*
X57126511Y-112899414D01*
X57136006Y-112893931D01*
X57188048Y-112857491D01*
X57196424Y-112847012D01*
X57189356Y-112833566D01*
X56487812Y-112132022D01*
X56473868Y-112124408D01*
X56472035Y-112124539D01*
X56465420Y-112128790D01*
X55759923Y-112834287D01*
X55753493Y-112846062D01*
X54705243Y-112846062D01*
X54736611Y-112824098D01*
X54814789Y-112769357D01*
X54814792Y-112769355D01*
X54819300Y-112766198D01*
X54981198Y-112604300D01*
X55112523Y-112416749D01*
X55114847Y-112411765D01*
X55116171Y-112409472D01*
X55167553Y-112360479D01*
X55237267Y-112347043D01*
X55303178Y-112373429D01*
X55334409Y-112409472D01*
X55341066Y-112421002D01*
X55377509Y-112473048D01*
X55387988Y-112481424D01*
X55401434Y-112474356D01*
X56115790Y-111760000D01*
X56834210Y-111760000D01*
X57549287Y-112475077D01*
X57561062Y-112481507D01*
X57573077Y-112472211D01*
X57608931Y-112421006D01*
X57614414Y-112411511D01*
X57706490Y-112214053D01*
X57710236Y-112203761D01*
X57766625Y-111993312D01*
X57768528Y-111982520D01*
X57777933Y-111875019D01*
X57803796Y-111808901D01*
X57861300Y-111767261D01*
X57903454Y-111760000D01*
X59618152Y-111760000D01*
X59686273Y-111780002D01*
X59703969Y-111795045D01*
X59704423Y-111794541D01*
X59709325Y-111798954D01*
X59713747Y-111803866D01*
X59868248Y-111916118D01*
X59874276Y-111918802D01*
X59874278Y-111918803D01*
X60036681Y-111991109D01*
X60042712Y-111993794D01*
X60136112Y-112013647D01*
X60223056Y-112032128D01*
X60223061Y-112032128D01*
X60229513Y-112033500D01*
X60420487Y-112033500D01*
X60426939Y-112032128D01*
X60426944Y-112032128D01*
X60513888Y-112013647D01*
X60607288Y-111993794D01*
X60613319Y-111991109D01*
X60775722Y-111918803D01*
X60775724Y-111918802D01*
X60781752Y-111916118D01*
X60936253Y-111803866D01*
X60940675Y-111798954D01*
X60945577Y-111794541D01*
X60947090Y-111796222D01*
X60998649Y-111764452D01*
X61031848Y-111760000D01*
X74858152Y-111760000D01*
X74926273Y-111780002D01*
X74943969Y-111795045D01*
X74944423Y-111794541D01*
X74949325Y-111798954D01*
X74953747Y-111803866D01*
X75108248Y-111916118D01*
X75114276Y-111918802D01*
X75114278Y-111918803D01*
X75276681Y-111991109D01*
X75282712Y-111993794D01*
X75376112Y-112013647D01*
X75463056Y-112032128D01*
X75463061Y-112032128D01*
X75469513Y-112033500D01*
X75660487Y-112033500D01*
X75666939Y-112032128D01*
X75666944Y-112032128D01*
X75753888Y-112013647D01*
X75847288Y-111993794D01*
X75853319Y-111991109D01*
X76015722Y-111918803D01*
X76015724Y-111918802D01*
X76021752Y-111916118D01*
X76176253Y-111803866D01*
X76180675Y-111798954D01*
X76185577Y-111794541D01*
X76187090Y-111796222D01*
X76238649Y-111764452D01*
X76271848Y-111760000D01*
X79375000Y-111760000D01*
X79918491Y-111216509D01*
X79980803Y-111182483D01*
X80051618Y-111187548D01*
X80081647Y-111203668D01*
X80146794Y-111251000D01*
X80188248Y-111281118D01*
X80194276Y-111283802D01*
X80194278Y-111283803D01*
X80356681Y-111356109D01*
X80362712Y-111358794D01*
X80456112Y-111378647D01*
X80543056Y-111397128D01*
X80543061Y-111397128D01*
X80549513Y-111398500D01*
X80740487Y-111398500D01*
X80746939Y-111397128D01*
X80746944Y-111397128D01*
X80833888Y-111378647D01*
X80927288Y-111358794D01*
X80933319Y-111356109D01*
X81095722Y-111283803D01*
X81095724Y-111283802D01*
X81101752Y-111281118D01*
X81256253Y-111168866D01*
X81260675Y-111163954D01*
X81265577Y-111159541D01*
X81267090Y-111161222D01*
X81318649Y-111129452D01*
X81351848Y-111125000D01*
X93219000Y-111125000D01*
X93287121Y-111145002D01*
G37*
G04 #@! TD.AperFunction*
M02*
