G04 #@! TF.GenerationSoftware,KiCad,Pcbnew,(6.0.0)*
G04 #@! TF.CreationDate,2022-08-18T21:38:13-04:00*
G04 #@! TF.ProjectId,intellivision t-card replic,696e7465-6c6c-4697-9669-73696f6e2074,rev?*
G04 #@! TF.SameCoordinates,Original*
G04 #@! TF.FileFunction,Legend,Top*
G04 #@! TF.FilePolarity,Positive*
%FSLAX46Y46*%
G04 Gerber Fmt 4.6, Leading zero omitted, Abs format (unit mm)*
G04 Created by KiCad (PCBNEW (6.0.0)) date 2022-08-18 21:38:13*
%MOMM*%
%LPD*%
G01*
G04 APERTURE LIST*
%ADD10C,0.200000*%
%ADD11C,0.300000*%
%ADD12C,0.150000*%
%ADD13C,0.120000*%
%ADD14C,1.600000*%
%ADD15O,1.600000X1.600000*%
%ADD16R,1.600000X1.600000*%
%ADD17R,1.270000X8.840000*%
G04 APERTURE END LIST*
D10*
X129121666Y-51057380D02*
X129121666Y-50438333D01*
X129493095Y-51181190D02*
X128193095Y-50747857D01*
X129493095Y-50314523D01*
X129493095Y-49200238D02*
X129493095Y-49943095D01*
X129493095Y-49571666D02*
X128193095Y-49571666D01*
X128378809Y-49695476D01*
X128502619Y-49819285D01*
X128564523Y-49943095D01*
X128316904Y-48705000D02*
X128255000Y-48643095D01*
X128193095Y-48519285D01*
X128193095Y-48209761D01*
X128255000Y-48085952D01*
X128316904Y-48024047D01*
X128440714Y-47962142D01*
X128564523Y-47962142D01*
X128750238Y-48024047D01*
X129493095Y-48766904D01*
X129493095Y-47962142D01*
X59271666Y-51057380D02*
X59271666Y-50438333D01*
X59643095Y-51181190D02*
X58343095Y-50747857D01*
X59643095Y-50314523D01*
X59643095Y-49200238D02*
X59643095Y-49943095D01*
X59643095Y-49571666D02*
X58343095Y-49571666D01*
X58528809Y-49695476D01*
X58652619Y-49819285D01*
X58714523Y-49943095D01*
X58343095Y-48766904D02*
X58343095Y-47962142D01*
X58838333Y-48395476D01*
X58838333Y-48209761D01*
X58900238Y-48085952D01*
X58962142Y-48024047D01*
X59085952Y-47962142D01*
X59395476Y-47962142D01*
X59519285Y-48024047D01*
X59581190Y-48085952D01*
X59643095Y-48209761D01*
X59643095Y-48581190D01*
X59581190Y-48705000D01*
X59519285Y-48766904D01*
X121501666Y-51057380D02*
X121501666Y-50438333D01*
X121873095Y-51181190D02*
X120573095Y-50747857D01*
X121873095Y-50314523D01*
X121873095Y-49200238D02*
X121873095Y-49943095D01*
X121873095Y-49571666D02*
X120573095Y-49571666D01*
X120758809Y-49695476D01*
X120882619Y-49819285D01*
X120944523Y-49943095D01*
X120573095Y-48024047D02*
X120573095Y-48643095D01*
X121192142Y-48705000D01*
X121130238Y-48643095D01*
X121068333Y-48519285D01*
X121068333Y-48209761D01*
X121130238Y-48085952D01*
X121192142Y-48024047D01*
X121315952Y-47962142D01*
X121625476Y-47962142D01*
X121749285Y-48024047D01*
X121811190Y-48085952D01*
X121873095Y-48209761D01*
X121873095Y-48519285D01*
X121811190Y-48643095D01*
X121749285Y-48705000D01*
X72343095Y-50995476D02*
X71043095Y-50995476D01*
X72343095Y-50252619D01*
X71043095Y-50252619D01*
X72219285Y-48890714D02*
X72281190Y-48952619D01*
X72343095Y-49138333D01*
X72343095Y-49262142D01*
X72281190Y-49447857D01*
X72157380Y-49571666D01*
X72033571Y-49633571D01*
X71785952Y-49695476D01*
X71600238Y-49695476D01*
X71352619Y-49633571D01*
X71228809Y-49571666D01*
X71105000Y-49447857D01*
X71043095Y-49262142D01*
X71043095Y-49138333D01*
X71105000Y-48952619D01*
X71166904Y-48890714D01*
D11*
X188229761Y-112453571D02*
X186229761Y-112453571D01*
X187658333Y-111786904D01*
X186229761Y-111120238D01*
X188229761Y-111120238D01*
X187658333Y-110263095D02*
X187658333Y-109310714D01*
X188229761Y-110453571D02*
X186229761Y-109786904D01*
X188229761Y-109120238D01*
X186229761Y-108739285D02*
X186229761Y-107596428D01*
X188229761Y-108167857D02*
X186229761Y-108167857D01*
X186229761Y-107215476D02*
X186229761Y-106072619D01*
X188229761Y-106644047D02*
X186229761Y-106644047D01*
X187182142Y-105405952D02*
X187182142Y-104739285D01*
X188229761Y-104453571D02*
X188229761Y-105405952D01*
X186229761Y-105405952D01*
X186229761Y-104453571D01*
X188229761Y-102644047D02*
X188229761Y-103596428D01*
X186229761Y-103596428D01*
X188229761Y-100453571D02*
X186229761Y-100453571D01*
X188229761Y-99501190D02*
X186229761Y-99501190D01*
X188229761Y-98358333D01*
X186229761Y-98358333D01*
X188039285Y-96263095D02*
X188134523Y-96358333D01*
X188229761Y-96644047D01*
X188229761Y-96834523D01*
X188134523Y-97120238D01*
X187944047Y-97310714D01*
X187753571Y-97405952D01*
X187372619Y-97501190D01*
X187086904Y-97501190D01*
X186705952Y-97405952D01*
X186515476Y-97310714D01*
X186325000Y-97120238D01*
X186229761Y-96834523D01*
X186229761Y-96644047D01*
X186325000Y-96358333D01*
X186420238Y-96263095D01*
X188039285Y-95405952D02*
X188134523Y-95310714D01*
X188229761Y-95405952D01*
X188134523Y-95501190D01*
X188039285Y-95405952D01*
X188229761Y-95405952D01*
X186705952Y-91310714D02*
X186610714Y-91501190D01*
X186610714Y-91882142D01*
X186705952Y-92072619D01*
X186896428Y-92263095D01*
X187086904Y-92358333D01*
X187467857Y-92358333D01*
X187658333Y-92263095D01*
X187848809Y-92072619D01*
X187944047Y-91882142D01*
X187944047Y-91501190D01*
X187848809Y-91310714D01*
X185944047Y-91691666D02*
X186039285Y-92167857D01*
X186325000Y-92644047D01*
X186801190Y-92929761D01*
X187277380Y-93025000D01*
X187753571Y-92929761D01*
X188229761Y-92644047D01*
X188515476Y-92167857D01*
X188610714Y-91691666D01*
X188515476Y-91215476D01*
X188229761Y-90739285D01*
X187753571Y-90453571D01*
X187277380Y-90358333D01*
X186801190Y-90453571D01*
X186325000Y-90739285D01*
X186039285Y-91215476D01*
X185944047Y-91691666D01*
X188229761Y-86929761D02*
X188229761Y-88072619D01*
X188229761Y-87501190D02*
X186229761Y-87501190D01*
X186515476Y-87691666D01*
X186705952Y-87882142D01*
X186801190Y-88072619D01*
X188229761Y-85977380D02*
X188229761Y-85596428D01*
X188134523Y-85405952D01*
X188039285Y-85310714D01*
X187753571Y-85120238D01*
X187372619Y-85025000D01*
X186610714Y-85025000D01*
X186420238Y-85120238D01*
X186325000Y-85215476D01*
X186229761Y-85405952D01*
X186229761Y-85786904D01*
X186325000Y-85977380D01*
X186420238Y-86072619D01*
X186610714Y-86167857D01*
X187086904Y-86167857D01*
X187277380Y-86072619D01*
X187372619Y-85977380D01*
X187467857Y-85786904D01*
X187467857Y-85405952D01*
X187372619Y-85215476D01*
X187277380Y-85120238D01*
X187086904Y-85025000D01*
X187086904Y-83882142D02*
X186991666Y-84072619D01*
X186896428Y-84167857D01*
X186705952Y-84263095D01*
X186610714Y-84263095D01*
X186420238Y-84167857D01*
X186325000Y-84072619D01*
X186229761Y-83882142D01*
X186229761Y-83501190D01*
X186325000Y-83310714D01*
X186420238Y-83215476D01*
X186610714Y-83120238D01*
X186705952Y-83120238D01*
X186896428Y-83215476D01*
X186991666Y-83310714D01*
X187086904Y-83501190D01*
X187086904Y-83882142D01*
X187182142Y-84072619D01*
X187277380Y-84167857D01*
X187467857Y-84263095D01*
X187848809Y-84263095D01*
X188039285Y-84167857D01*
X188134523Y-84072619D01*
X188229761Y-83882142D01*
X188229761Y-83501190D01*
X188134523Y-83310714D01*
X188039285Y-83215476D01*
X187848809Y-83120238D01*
X187467857Y-83120238D01*
X187277380Y-83215476D01*
X187182142Y-83310714D01*
X187086904Y-83501190D01*
X186420238Y-82358333D02*
X186325000Y-82263095D01*
X186229761Y-82072619D01*
X186229761Y-81596428D01*
X186325000Y-81405952D01*
X186420238Y-81310714D01*
X186610714Y-81215476D01*
X186801190Y-81215476D01*
X187086904Y-81310714D01*
X188229761Y-82453571D01*
X188229761Y-81215476D01*
X186229761Y-79120238D02*
X186229761Y-77977380D01*
X188229761Y-78548809D02*
X186229761Y-78548809D01*
X187467857Y-77310714D02*
X187467857Y-75786904D01*
X188039285Y-73691666D02*
X188134523Y-73786904D01*
X188229761Y-74072619D01*
X188229761Y-74263095D01*
X188134523Y-74548809D01*
X187944047Y-74739285D01*
X187753571Y-74834523D01*
X187372619Y-74929761D01*
X187086904Y-74929761D01*
X186705952Y-74834523D01*
X186515476Y-74739285D01*
X186325000Y-74548809D01*
X186229761Y-74263095D01*
X186229761Y-74072619D01*
X186325000Y-73786904D01*
X186420238Y-73691666D01*
X187658333Y-72929761D02*
X187658333Y-71977380D01*
X188229761Y-73120238D02*
X186229761Y-72453571D01*
X188229761Y-71786904D01*
X188229761Y-69977380D02*
X187277380Y-70644047D01*
X188229761Y-71120238D02*
X186229761Y-71120238D01*
X186229761Y-70358333D01*
X186325000Y-70167857D01*
X186420238Y-70072619D01*
X186610714Y-69977380D01*
X186896428Y-69977380D01*
X187086904Y-70072619D01*
X187182142Y-70167857D01*
X187277380Y-70358333D01*
X187277380Y-71120238D01*
X188229761Y-69120238D02*
X186229761Y-69120238D01*
X186229761Y-68644047D01*
X186325000Y-68358333D01*
X186515476Y-68167857D01*
X186705952Y-68072619D01*
X187086904Y-67977380D01*
X187372619Y-67977380D01*
X187753571Y-68072619D01*
X187944047Y-68167857D01*
X188134523Y-68358333D01*
X188229761Y-68644047D01*
X188229761Y-69120238D01*
X187658333Y-65691666D02*
X187658333Y-64739285D01*
X188229761Y-65882142D02*
X186229761Y-65215476D01*
X188229761Y-64548809D01*
X188134523Y-63977380D02*
X188229761Y-63691666D01*
X188229761Y-63215476D01*
X188134523Y-63025000D01*
X188039285Y-62929761D01*
X187848809Y-62834523D01*
X187658333Y-62834523D01*
X187467857Y-62929761D01*
X187372619Y-63025000D01*
X187277380Y-63215476D01*
X187182142Y-63596428D01*
X187086904Y-63786904D01*
X186991666Y-63882142D01*
X186801190Y-63977380D01*
X186610714Y-63977380D01*
X186420238Y-63882142D01*
X186325000Y-63786904D01*
X186229761Y-63596428D01*
X186229761Y-63120238D01*
X186325000Y-62834523D01*
X188134523Y-62072619D02*
X188229761Y-61786904D01*
X188229761Y-61310714D01*
X188134523Y-61120238D01*
X188039285Y-61025000D01*
X187848809Y-60929761D01*
X187658333Y-60929761D01*
X187467857Y-61025000D01*
X187372619Y-61120238D01*
X187277380Y-61310714D01*
X187182142Y-61691666D01*
X187086904Y-61882142D01*
X186991666Y-61977380D01*
X186801190Y-62072619D01*
X186610714Y-62072619D01*
X186420238Y-61977380D01*
X186325000Y-61882142D01*
X186229761Y-61691666D01*
X186229761Y-61215476D01*
X186325000Y-60929761D01*
X187277380Y-59691666D02*
X188229761Y-59691666D01*
X186229761Y-60358333D02*
X187277380Y-59691666D01*
X186229761Y-59025000D01*
X186229761Y-55882142D02*
X186229761Y-56834523D01*
X187182142Y-56929761D01*
X187086904Y-56834523D01*
X186991666Y-56644047D01*
X186991666Y-56167857D01*
X187086904Y-55977380D01*
X187182142Y-55882142D01*
X187372619Y-55786904D01*
X187848809Y-55786904D01*
X188039285Y-55882142D01*
X188134523Y-55977380D01*
X188229761Y-56167857D01*
X188229761Y-56644047D01*
X188134523Y-56834523D01*
X188039285Y-56929761D01*
X187086904Y-54644047D02*
X186991666Y-54834523D01*
X186896428Y-54929761D01*
X186705952Y-55025000D01*
X186610714Y-55025000D01*
X186420238Y-54929761D01*
X186325000Y-54834523D01*
X186229761Y-54644047D01*
X186229761Y-54263095D01*
X186325000Y-54072619D01*
X186420238Y-53977380D01*
X186610714Y-53882142D01*
X186705952Y-53882142D01*
X186896428Y-53977380D01*
X186991666Y-54072619D01*
X187086904Y-54263095D01*
X187086904Y-54644047D01*
X187182142Y-54834523D01*
X187277380Y-54929761D01*
X187467857Y-55025000D01*
X187848809Y-55025000D01*
X188039285Y-54929761D01*
X188134523Y-54834523D01*
X188229761Y-54644047D01*
X188229761Y-54263095D01*
X188134523Y-54072619D01*
X188039285Y-53977380D01*
X187848809Y-53882142D01*
X187467857Y-53882142D01*
X187277380Y-53977380D01*
X187182142Y-54072619D01*
X187086904Y-54263095D01*
X186229761Y-52072619D02*
X186229761Y-53025000D01*
X187182142Y-53120238D01*
X187086904Y-53025000D01*
X186991666Y-52834523D01*
X186991666Y-52358333D01*
X187086904Y-52167857D01*
X187182142Y-52072619D01*
X187372619Y-51977380D01*
X187848809Y-51977380D01*
X188039285Y-52072619D01*
X188134523Y-52167857D01*
X188229761Y-52358333D01*
X188229761Y-52834523D01*
X188134523Y-53025000D01*
X188039285Y-53120238D01*
X188229761Y-51025000D02*
X188229761Y-50644047D01*
X188134523Y-50453571D01*
X188039285Y-50358333D01*
X187753571Y-50167857D01*
X187372619Y-50072619D01*
X186610714Y-50072619D01*
X186420238Y-50167857D01*
X186325000Y-50263095D01*
X186229761Y-50453571D01*
X186229761Y-50834523D01*
X186325000Y-51025000D01*
X186420238Y-51120238D01*
X186610714Y-51215476D01*
X187086904Y-51215476D01*
X187277380Y-51120238D01*
X187372619Y-51025000D01*
X187467857Y-50834523D01*
X187467857Y-50453571D01*
X187372619Y-50263095D01*
X187277380Y-50167857D01*
X187086904Y-50072619D01*
X187467857Y-49215476D02*
X187467857Y-47691666D01*
X188229761Y-46644047D02*
X188229761Y-46263095D01*
X188134523Y-46072619D01*
X188039285Y-45977380D01*
X187753571Y-45786904D01*
X187372619Y-45691666D01*
X186610714Y-45691666D01*
X186420238Y-45786904D01*
X186325000Y-45882142D01*
X186229761Y-46072619D01*
X186229761Y-46453571D01*
X186325000Y-46644047D01*
X186420238Y-46739285D01*
X186610714Y-46834523D01*
X187086904Y-46834523D01*
X187277380Y-46739285D01*
X187372619Y-46644047D01*
X187467857Y-46453571D01*
X187467857Y-46072619D01*
X187372619Y-45882142D01*
X187277380Y-45786904D01*
X187086904Y-45691666D01*
X186420238Y-44929761D02*
X186325000Y-44834523D01*
X186229761Y-44644047D01*
X186229761Y-44167857D01*
X186325000Y-43977380D01*
X186420238Y-43882142D01*
X186610714Y-43786904D01*
X186801190Y-43786904D01*
X187086904Y-43882142D01*
X188229761Y-45025000D01*
X188229761Y-43786904D01*
X186420238Y-43025000D02*
X186325000Y-42929761D01*
X186229761Y-42739285D01*
X186229761Y-42263095D01*
X186325000Y-42072619D01*
X186420238Y-41977380D01*
X186610714Y-41882142D01*
X186801190Y-41882142D01*
X187086904Y-41977380D01*
X188229761Y-43120238D01*
X188229761Y-41882142D01*
X188229761Y-40929761D02*
X188229761Y-40548809D01*
X188134523Y-40358333D01*
X188039285Y-40263095D01*
X187753571Y-40072619D01*
X187372619Y-39977380D01*
X186610714Y-39977380D01*
X186420238Y-40072619D01*
X186325000Y-40167857D01*
X186229761Y-40358333D01*
X186229761Y-40739285D01*
X186325000Y-40929761D01*
X186420238Y-41025000D01*
X186610714Y-41120238D01*
X187086904Y-41120238D01*
X187277380Y-41025000D01*
X187372619Y-40929761D01*
X187467857Y-40739285D01*
X187467857Y-40358333D01*
X187372619Y-40167857D01*
X187277380Y-40072619D01*
X187086904Y-39977380D01*
X187467857Y-39120238D02*
X187467857Y-37596428D01*
X188229761Y-36644047D02*
X186229761Y-36644047D01*
X186229761Y-35882142D01*
X186325000Y-35691666D01*
X186420238Y-35596428D01*
X186610714Y-35501190D01*
X186896428Y-35501190D01*
X187086904Y-35596428D01*
X187182142Y-35691666D01*
X187277380Y-35882142D01*
X187277380Y-36644047D01*
X188229761Y-33501190D02*
X187277380Y-34167857D01*
X188229761Y-34644047D02*
X186229761Y-34644047D01*
X186229761Y-33882142D01*
X186325000Y-33691666D01*
X186420238Y-33596428D01*
X186610714Y-33501190D01*
X186896428Y-33501190D01*
X187086904Y-33596428D01*
X187182142Y-33691666D01*
X187277380Y-33882142D01*
X187277380Y-34644047D01*
D10*
X56731666Y-51057380D02*
X56731666Y-50438333D01*
X57103095Y-51181190D02*
X55803095Y-50747857D01*
X57103095Y-50314523D01*
X57103095Y-49200238D02*
X57103095Y-49943095D01*
X57103095Y-49571666D02*
X55803095Y-49571666D01*
X55988809Y-49695476D01*
X56112619Y-49819285D01*
X56174523Y-49943095D01*
X56236428Y-48085952D02*
X57103095Y-48085952D01*
X55741190Y-48395476D02*
X56669761Y-48705000D01*
X56669761Y-47900238D01*
X160236666Y-51057380D02*
X160236666Y-50438333D01*
X160608095Y-51181190D02*
X159308095Y-50747857D01*
X160608095Y-50314523D01*
X160608095Y-49200238D02*
X160608095Y-49943095D01*
X160608095Y-49571666D02*
X159308095Y-49571666D01*
X159493809Y-49695476D01*
X159617619Y-49819285D01*
X159679523Y-49943095D01*
X159308095Y-48766904D02*
X159308095Y-47962142D01*
X159803333Y-48395476D01*
X159803333Y-48209761D01*
X159865238Y-48085952D01*
X159927142Y-48024047D01*
X160050952Y-47962142D01*
X160360476Y-47962142D01*
X160484285Y-48024047D01*
X160546190Y-48085952D01*
X160608095Y-48209761D01*
X160608095Y-48581190D01*
X160546190Y-48705000D01*
X160484285Y-48766904D01*
X170087142Y-50995476D02*
X170087142Y-50562142D01*
X170768095Y-50376428D02*
X170768095Y-50995476D01*
X169468095Y-50995476D01*
X169468095Y-50376428D01*
X170768095Y-49819285D02*
X169468095Y-49819285D01*
X170768095Y-49076428D01*
X169468095Y-49076428D01*
X170396666Y-48519285D02*
X170396666Y-47900238D01*
X170768095Y-48643095D02*
X169468095Y-48209761D01*
X170768095Y-47776428D01*
X139653095Y-50995476D02*
X138353095Y-50995476D01*
X139653095Y-50252619D01*
X138353095Y-50252619D01*
X139529285Y-48890714D02*
X139591190Y-48952619D01*
X139653095Y-49138333D01*
X139653095Y-49262142D01*
X139591190Y-49447857D01*
X139467380Y-49571666D01*
X139343571Y-49633571D01*
X139095952Y-49695476D01*
X138910238Y-49695476D01*
X138662619Y-49633571D01*
X138538809Y-49571666D01*
X138415000Y-49447857D01*
X138353095Y-49262142D01*
X138353095Y-49138333D01*
X138415000Y-48952619D01*
X138476904Y-48890714D01*
X95466666Y-51057380D02*
X95466666Y-50438333D01*
X95838095Y-51181190D02*
X94538095Y-50747857D01*
X95838095Y-50314523D01*
X95838095Y-49200238D02*
X95838095Y-49943095D01*
X95838095Y-49571666D02*
X94538095Y-49571666D01*
X94723809Y-49695476D01*
X94847619Y-49819285D01*
X94909523Y-49943095D01*
X94661904Y-48705000D02*
X94600000Y-48643095D01*
X94538095Y-48519285D01*
X94538095Y-48209761D01*
X94600000Y-48085952D01*
X94661904Y-48024047D01*
X94785714Y-47962142D01*
X94909523Y-47962142D01*
X95095238Y-48024047D01*
X95838095Y-48766904D01*
X95838095Y-47962142D01*
X69122142Y-50995476D02*
X69122142Y-50562142D01*
X69803095Y-50376428D02*
X69803095Y-50995476D01*
X68503095Y-50995476D01*
X68503095Y-50376428D01*
X69803095Y-49819285D02*
X68503095Y-49819285D01*
X69803095Y-49076428D01*
X68503095Y-49076428D01*
X69431666Y-48519285D02*
X69431666Y-47900238D01*
X69803095Y-48643095D02*
X68503095Y-48209761D01*
X69803095Y-47776428D01*
X155156666Y-51057380D02*
X155156666Y-50438333D01*
X155528095Y-51181190D02*
X154228095Y-50747857D01*
X155528095Y-50314523D01*
X155528095Y-49200238D02*
X155528095Y-49943095D01*
X155528095Y-49571666D02*
X154228095Y-49571666D01*
X154413809Y-49695476D01*
X154537619Y-49819285D01*
X154599523Y-49943095D01*
X154228095Y-48024047D02*
X154228095Y-48643095D01*
X154847142Y-48705000D01*
X154785238Y-48643095D01*
X154723333Y-48519285D01*
X154723333Y-48209761D01*
X154785238Y-48085952D01*
X154847142Y-48024047D01*
X154970952Y-47962142D01*
X155280476Y-47962142D01*
X155404285Y-48024047D01*
X155466190Y-48085952D01*
X155528095Y-48209761D01*
X155528095Y-48519285D01*
X155466190Y-48643095D01*
X155404285Y-48705000D01*
X124041666Y-51057380D02*
X124041666Y-50438333D01*
X124413095Y-51181190D02*
X123113095Y-50747857D01*
X124413095Y-50314523D01*
X124413095Y-49200238D02*
X124413095Y-49943095D01*
X124413095Y-49571666D02*
X123113095Y-49571666D01*
X123298809Y-49695476D01*
X123422619Y-49819285D01*
X123484523Y-49943095D01*
X123546428Y-48085952D02*
X124413095Y-48085952D01*
X123051190Y-48395476D02*
X123979761Y-48705000D01*
X123979761Y-47900238D01*
X87846666Y-51057380D02*
X87846666Y-50438333D01*
X88218095Y-51181190D02*
X86918095Y-50747857D01*
X88218095Y-50314523D01*
X88218095Y-49200238D02*
X88218095Y-49943095D01*
X88218095Y-49571666D02*
X86918095Y-49571666D01*
X87103809Y-49695476D01*
X87227619Y-49819285D01*
X87289523Y-49943095D01*
X86918095Y-48024047D02*
X86918095Y-48643095D01*
X87537142Y-48705000D01*
X87475238Y-48643095D01*
X87413333Y-48519285D01*
X87413333Y-48209761D01*
X87475238Y-48085952D01*
X87537142Y-48024047D01*
X87660952Y-47962142D01*
X87970476Y-47962142D01*
X88094285Y-48024047D01*
X88156190Y-48085952D01*
X88218095Y-48209761D01*
X88218095Y-48519285D01*
X88156190Y-48643095D01*
X88094285Y-48705000D01*
X132033095Y-50382619D02*
X131414047Y-50815952D01*
X132033095Y-51125476D02*
X130733095Y-51125476D01*
X130733095Y-50630238D01*
X130795000Y-50506428D01*
X130856904Y-50444523D01*
X130980714Y-50382619D01*
X131166428Y-50382619D01*
X131290238Y-50444523D01*
X131352142Y-50506428D01*
X131414047Y-50630238D01*
X131414047Y-51125476D01*
X131661666Y-49887380D02*
X131661666Y-49268333D01*
X132033095Y-50011190D02*
X130733095Y-49577857D01*
X132033095Y-49144523D01*
X132033095Y-48711190D02*
X130733095Y-48711190D01*
X131661666Y-48277857D01*
X130733095Y-47844523D01*
X132033095Y-47844523D01*
X105998095Y-50995476D02*
X104698095Y-50995476D01*
X105998095Y-50252619D01*
X104698095Y-50252619D01*
X105874285Y-48890714D02*
X105936190Y-48952619D01*
X105998095Y-49138333D01*
X105998095Y-49262142D01*
X105936190Y-49447857D01*
X105812380Y-49571666D01*
X105688571Y-49633571D01*
X105440952Y-49695476D01*
X105255238Y-49695476D01*
X105007619Y-49633571D01*
X104883809Y-49571666D01*
X104760000Y-49447857D01*
X104698095Y-49262142D01*
X104698095Y-49138333D01*
X104760000Y-48952619D01*
X104821904Y-48890714D01*
X157696666Y-51057380D02*
X157696666Y-50438333D01*
X158068095Y-51181190D02*
X156768095Y-50747857D01*
X158068095Y-50314523D01*
X158068095Y-49200238D02*
X158068095Y-49943095D01*
X158068095Y-49571666D02*
X156768095Y-49571666D01*
X156953809Y-49695476D01*
X157077619Y-49819285D01*
X157139523Y-49943095D01*
X157201428Y-48085952D02*
X158068095Y-48085952D01*
X156706190Y-48395476D02*
X157634761Y-48705000D01*
X157634761Y-47900238D01*
X67263095Y-50252619D02*
X66644047Y-50685952D01*
X67263095Y-50995476D02*
X65963095Y-50995476D01*
X65963095Y-50500238D01*
X66025000Y-50376428D01*
X66086904Y-50314523D01*
X66210714Y-50252619D01*
X66396428Y-50252619D01*
X66520238Y-50314523D01*
X66582142Y-50376428D01*
X66644047Y-50500238D01*
X66644047Y-50995476D01*
X66891666Y-49757380D02*
X66891666Y-49138333D01*
X67263095Y-49881190D02*
X65963095Y-49447857D01*
X67263095Y-49014523D01*
X67263095Y-48581190D02*
X65963095Y-48581190D01*
X66891666Y-48147857D01*
X65963095Y-47714523D01*
X67263095Y-47714523D01*
X67263095Y-47095476D02*
X65963095Y-47095476D01*
X66582142Y-47095476D02*
X66582142Y-46352619D01*
X67263095Y-46352619D02*
X65963095Y-46352619D01*
X162776666Y-51057380D02*
X162776666Y-50438333D01*
X163148095Y-51181190D02*
X161848095Y-50747857D01*
X163148095Y-50314523D01*
X163148095Y-49200238D02*
X163148095Y-49943095D01*
X163148095Y-49571666D02*
X161848095Y-49571666D01*
X162033809Y-49695476D01*
X162157619Y-49819285D01*
X162219523Y-49943095D01*
X161971904Y-48705000D02*
X161910000Y-48643095D01*
X161848095Y-48519285D01*
X161848095Y-48209761D01*
X161910000Y-48085952D01*
X161971904Y-48024047D01*
X162095714Y-47962142D01*
X162219523Y-47962142D01*
X162405238Y-48024047D01*
X163148095Y-48766904D01*
X163148095Y-47962142D01*
X100918095Y-50252619D02*
X100299047Y-50685952D01*
X100918095Y-50995476D02*
X99618095Y-50995476D01*
X99618095Y-50500238D01*
X99680000Y-50376428D01*
X99741904Y-50314523D01*
X99865714Y-50252619D01*
X100051428Y-50252619D01*
X100175238Y-50314523D01*
X100237142Y-50376428D01*
X100299047Y-50500238D01*
X100299047Y-50995476D01*
X100546666Y-49757380D02*
X100546666Y-49138333D01*
X100918095Y-49881190D02*
X99618095Y-49447857D01*
X100918095Y-49014523D01*
X100918095Y-48581190D02*
X99618095Y-48581190D01*
X100546666Y-48147857D01*
X99618095Y-47714523D01*
X100918095Y-47714523D01*
X100918095Y-47095476D02*
X99618095Y-47095476D01*
X100237142Y-47095476D02*
X100237142Y-46352619D01*
X100918095Y-46352619D02*
X99618095Y-46352619D01*
X54191666Y-51057380D02*
X54191666Y-50438333D01*
X54563095Y-51181190D02*
X53263095Y-50747857D01*
X54563095Y-50314523D01*
X54563095Y-49200238D02*
X54563095Y-49943095D01*
X54563095Y-49571666D02*
X53263095Y-49571666D01*
X53448809Y-49695476D01*
X53572619Y-49819285D01*
X53634523Y-49943095D01*
X53263095Y-48024047D02*
X53263095Y-48643095D01*
X53882142Y-48705000D01*
X53820238Y-48643095D01*
X53758333Y-48519285D01*
X53758333Y-48209761D01*
X53820238Y-48085952D01*
X53882142Y-48024047D01*
X54005952Y-47962142D01*
X54315476Y-47962142D01*
X54439285Y-48024047D01*
X54501190Y-48085952D01*
X54563095Y-48209761D01*
X54563095Y-48519285D01*
X54501190Y-48643095D01*
X54439285Y-48705000D01*
X102777142Y-50995476D02*
X102777142Y-50562142D01*
X103458095Y-50376428D02*
X103458095Y-50995476D01*
X102158095Y-50995476D01*
X102158095Y-50376428D01*
X103458095Y-49819285D02*
X102158095Y-49819285D01*
X103458095Y-49076428D01*
X102158095Y-49076428D01*
X103086666Y-48519285D02*
X103086666Y-47900238D01*
X103458095Y-48643095D02*
X102158095Y-48209761D01*
X103458095Y-47776428D01*
X168228095Y-50252619D02*
X167609047Y-50685952D01*
X168228095Y-50995476D02*
X166928095Y-50995476D01*
X166928095Y-50500238D01*
X166990000Y-50376428D01*
X167051904Y-50314523D01*
X167175714Y-50252619D01*
X167361428Y-50252619D01*
X167485238Y-50314523D01*
X167547142Y-50376428D01*
X167609047Y-50500238D01*
X167609047Y-50995476D01*
X167856666Y-49757380D02*
X167856666Y-49138333D01*
X168228095Y-49881190D02*
X166928095Y-49447857D01*
X168228095Y-49014523D01*
X168228095Y-48581190D02*
X166928095Y-48581190D01*
X167856666Y-48147857D01*
X166928095Y-47714523D01*
X168228095Y-47714523D01*
X168228095Y-47095476D02*
X166928095Y-47095476D01*
X167547142Y-47095476D02*
X167547142Y-46352619D01*
X168228095Y-46352619D02*
X166928095Y-46352619D01*
X98378095Y-50382619D02*
X97759047Y-50815952D01*
X98378095Y-51125476D02*
X97078095Y-51125476D01*
X97078095Y-50630238D01*
X97140000Y-50506428D01*
X97201904Y-50444523D01*
X97325714Y-50382619D01*
X97511428Y-50382619D01*
X97635238Y-50444523D01*
X97697142Y-50506428D01*
X97759047Y-50630238D01*
X97759047Y-51125476D01*
X98006666Y-49887380D02*
X98006666Y-49268333D01*
X98378095Y-50011190D02*
X97078095Y-49577857D01*
X98378095Y-49144523D01*
X98378095Y-48711190D02*
X97078095Y-48711190D01*
X98006666Y-48277857D01*
X97078095Y-47844523D01*
X98378095Y-47844523D01*
X64723095Y-50382619D02*
X64104047Y-50815952D01*
X64723095Y-51125476D02*
X63423095Y-51125476D01*
X63423095Y-50630238D01*
X63485000Y-50506428D01*
X63546904Y-50444523D01*
X63670714Y-50382619D01*
X63856428Y-50382619D01*
X63980238Y-50444523D01*
X64042142Y-50506428D01*
X64104047Y-50630238D01*
X64104047Y-51125476D01*
X64351666Y-49887380D02*
X64351666Y-49268333D01*
X64723095Y-50011190D02*
X63423095Y-49577857D01*
X64723095Y-49144523D01*
X64723095Y-48711190D02*
X63423095Y-48711190D01*
X64351666Y-48277857D01*
X63423095Y-47844523D01*
X64723095Y-47844523D01*
X134573095Y-50252619D02*
X133954047Y-50685952D01*
X134573095Y-50995476D02*
X133273095Y-50995476D01*
X133273095Y-50500238D01*
X133335000Y-50376428D01*
X133396904Y-50314523D01*
X133520714Y-50252619D01*
X133706428Y-50252619D01*
X133830238Y-50314523D01*
X133892142Y-50376428D01*
X133954047Y-50500238D01*
X133954047Y-50995476D01*
X134201666Y-49757380D02*
X134201666Y-49138333D01*
X134573095Y-49881190D02*
X133273095Y-49447857D01*
X134573095Y-49014523D01*
X134573095Y-48581190D02*
X133273095Y-48581190D01*
X134201666Y-48147857D01*
X133273095Y-47714523D01*
X134573095Y-47714523D01*
X134573095Y-47095476D02*
X133273095Y-47095476D01*
X133892142Y-47095476D02*
X133892142Y-46352619D01*
X134573095Y-46352619D02*
X133273095Y-46352619D01*
X136432142Y-50995476D02*
X136432142Y-50562142D01*
X137113095Y-50376428D02*
X137113095Y-50995476D01*
X135813095Y-50995476D01*
X135813095Y-50376428D01*
X137113095Y-49819285D02*
X135813095Y-49819285D01*
X137113095Y-49076428D01*
X135813095Y-49076428D01*
X136741666Y-48519285D02*
X136741666Y-47900238D01*
X137113095Y-48643095D02*
X135813095Y-48209761D01*
X137113095Y-47776428D01*
X173308095Y-50995476D02*
X172008095Y-50995476D01*
X173308095Y-50252619D01*
X172008095Y-50252619D01*
X173184285Y-48890714D02*
X173246190Y-48952619D01*
X173308095Y-49138333D01*
X173308095Y-49262142D01*
X173246190Y-49447857D01*
X173122380Y-49571666D01*
X172998571Y-49633571D01*
X172750952Y-49695476D01*
X172565238Y-49695476D01*
X172317619Y-49633571D01*
X172193809Y-49571666D01*
X172070000Y-49447857D01*
X172008095Y-49262142D01*
X172008095Y-49138333D01*
X172070000Y-48952619D01*
X172131904Y-48890714D01*
X92926666Y-51057380D02*
X92926666Y-50438333D01*
X93298095Y-51181190D02*
X91998095Y-50747857D01*
X93298095Y-50314523D01*
X93298095Y-49200238D02*
X93298095Y-49943095D01*
X93298095Y-49571666D02*
X91998095Y-49571666D01*
X92183809Y-49695476D01*
X92307619Y-49819285D01*
X92369523Y-49943095D01*
X91998095Y-48766904D02*
X91998095Y-47962142D01*
X92493333Y-48395476D01*
X92493333Y-48209761D01*
X92555238Y-48085952D01*
X92617142Y-48024047D01*
X92740952Y-47962142D01*
X93050476Y-47962142D01*
X93174285Y-48024047D01*
X93236190Y-48085952D01*
X93298095Y-48209761D01*
X93298095Y-48581190D01*
X93236190Y-48705000D01*
X93174285Y-48766904D01*
X126581666Y-51057380D02*
X126581666Y-50438333D01*
X126953095Y-51181190D02*
X125653095Y-50747857D01*
X126953095Y-50314523D01*
X126953095Y-49200238D02*
X126953095Y-49943095D01*
X126953095Y-49571666D02*
X125653095Y-49571666D01*
X125838809Y-49695476D01*
X125962619Y-49819285D01*
X126024523Y-49943095D01*
X125653095Y-48766904D02*
X125653095Y-47962142D01*
X126148333Y-48395476D01*
X126148333Y-48209761D01*
X126210238Y-48085952D01*
X126272142Y-48024047D01*
X126395952Y-47962142D01*
X126705476Y-47962142D01*
X126829285Y-48024047D01*
X126891190Y-48085952D01*
X126953095Y-48209761D01*
X126953095Y-48581190D01*
X126891190Y-48705000D01*
X126829285Y-48766904D01*
X90386666Y-51057380D02*
X90386666Y-50438333D01*
X90758095Y-51181190D02*
X89458095Y-50747857D01*
X90758095Y-50314523D01*
X90758095Y-49200238D02*
X90758095Y-49943095D01*
X90758095Y-49571666D02*
X89458095Y-49571666D01*
X89643809Y-49695476D01*
X89767619Y-49819285D01*
X89829523Y-49943095D01*
X89891428Y-48085952D02*
X90758095Y-48085952D01*
X89396190Y-48395476D02*
X90324761Y-48705000D01*
X90324761Y-47900238D01*
X61811666Y-51057380D02*
X61811666Y-50438333D01*
X62183095Y-51181190D02*
X60883095Y-50747857D01*
X62183095Y-50314523D01*
X62183095Y-49200238D02*
X62183095Y-49943095D01*
X62183095Y-49571666D02*
X60883095Y-49571666D01*
X61068809Y-49695476D01*
X61192619Y-49819285D01*
X61254523Y-49943095D01*
X61006904Y-48705000D02*
X60945000Y-48643095D01*
X60883095Y-48519285D01*
X60883095Y-48209761D01*
X60945000Y-48085952D01*
X61006904Y-48024047D01*
X61130714Y-47962142D01*
X61254523Y-47962142D01*
X61440238Y-48024047D01*
X62183095Y-48766904D01*
X62183095Y-47962142D01*
X165688095Y-50382619D02*
X165069047Y-50815952D01*
X165688095Y-51125476D02*
X164388095Y-51125476D01*
X164388095Y-50630238D01*
X164450000Y-50506428D01*
X164511904Y-50444523D01*
X164635714Y-50382619D01*
X164821428Y-50382619D01*
X164945238Y-50444523D01*
X165007142Y-50506428D01*
X165069047Y-50630238D01*
X165069047Y-51125476D01*
X165316666Y-49887380D02*
X165316666Y-49268333D01*
X165688095Y-50011190D02*
X164388095Y-49577857D01*
X165688095Y-49144523D01*
X165688095Y-48711190D02*
X164388095Y-48711190D01*
X165316666Y-48277857D01*
X164388095Y-47844523D01*
X165688095Y-47844523D01*
D12*
X157948333Y-67127380D02*
X157615000Y-66651190D01*
X157376904Y-67127380D02*
X157376904Y-66127380D01*
X157757857Y-66127380D01*
X157853095Y-66175000D01*
X157900714Y-66222619D01*
X157948333Y-66317857D01*
X157948333Y-66460714D01*
X157900714Y-66555952D01*
X157853095Y-66603571D01*
X157757857Y-66651190D01*
X157376904Y-66651190D01*
X158805476Y-66127380D02*
X158615000Y-66127380D01*
X158519761Y-66175000D01*
X158472142Y-66222619D01*
X158376904Y-66365476D01*
X158329285Y-66555952D01*
X158329285Y-66936904D01*
X158376904Y-67032142D01*
X158424523Y-67079761D01*
X158519761Y-67127380D01*
X158710238Y-67127380D01*
X158805476Y-67079761D01*
X158853095Y-67032142D01*
X158900714Y-66936904D01*
X158900714Y-66698809D01*
X158853095Y-66603571D01*
X158805476Y-66555952D01*
X158710238Y-66508333D01*
X158519761Y-66508333D01*
X158424523Y-66555952D01*
X158376904Y-66603571D01*
X158329285Y-66698809D01*
X161710714Y-67127380D02*
X161139285Y-67127380D01*
X161425000Y-67127380D02*
X161425000Y-66127380D01*
X161329761Y-66270238D01*
X161234523Y-66365476D01*
X161139285Y-66413095D01*
X162139285Y-67127380D02*
X162139285Y-66127380D01*
X162710714Y-67127380D02*
X162282142Y-66555952D01*
X162710714Y-66127380D02*
X162139285Y-66698809D01*
X184602380Y-54776666D02*
X184126190Y-55110000D01*
X184602380Y-55348095D02*
X183602380Y-55348095D01*
X183602380Y-54967142D01*
X183650000Y-54871904D01*
X183697619Y-54824285D01*
X183792857Y-54776666D01*
X183935714Y-54776666D01*
X184030952Y-54824285D01*
X184078571Y-54871904D01*
X184126190Y-54967142D01*
X184126190Y-55348095D01*
X184602380Y-53824285D02*
X184602380Y-54395714D01*
X184602380Y-54110000D02*
X183602380Y-54110000D01*
X183745238Y-54205238D01*
X183840476Y-54300476D01*
X183888095Y-54395714D01*
X184602380Y-51014285D02*
X184602380Y-51585714D01*
X184602380Y-51300000D02*
X183602380Y-51300000D01*
X183745238Y-51395238D01*
X183840476Y-51490476D01*
X183888095Y-51585714D01*
X184602380Y-50585714D02*
X183602380Y-50585714D01*
X184602380Y-50014285D02*
X184030952Y-50442857D01*
X183602380Y-50014285D02*
X184173809Y-50585714D01*
X182062380Y-54141666D02*
X181586190Y-54475000D01*
X182062380Y-54713095D02*
X181062380Y-54713095D01*
X181062380Y-54332142D01*
X181110000Y-54236904D01*
X181157619Y-54189285D01*
X181252857Y-54141666D01*
X181395714Y-54141666D01*
X181490952Y-54189285D01*
X181538571Y-54236904D01*
X181586190Y-54332142D01*
X181586190Y-54713095D01*
X181157619Y-53760714D02*
X181110000Y-53713095D01*
X181062380Y-53617857D01*
X181062380Y-53379761D01*
X181110000Y-53284523D01*
X181157619Y-53236904D01*
X181252857Y-53189285D01*
X181348095Y-53189285D01*
X181490952Y-53236904D01*
X182062380Y-53808333D01*
X182062380Y-53189285D01*
X182062380Y-51014285D02*
X182062380Y-51585714D01*
X182062380Y-51300000D02*
X181062380Y-51300000D01*
X181205238Y-51395238D01*
X181300476Y-51490476D01*
X181348095Y-51585714D01*
X182062380Y-50585714D02*
X181062380Y-50585714D01*
X182062380Y-50014285D02*
X181490952Y-50442857D01*
X181062380Y-50014285D02*
X181633809Y-50585714D01*
X55332380Y-79343095D02*
X56141904Y-79343095D01*
X56237142Y-79295476D01*
X56284761Y-79247857D01*
X56332380Y-79152619D01*
X56332380Y-78962142D01*
X56284761Y-78866904D01*
X56237142Y-78819285D01*
X56141904Y-78771666D01*
X55332380Y-78771666D01*
X55427619Y-78343095D02*
X55380000Y-78295476D01*
X55332380Y-78200238D01*
X55332380Y-77962142D01*
X55380000Y-77866904D01*
X55427619Y-77819285D01*
X55522857Y-77771666D01*
X55618095Y-77771666D01*
X55760952Y-77819285D01*
X56332380Y-78390714D01*
X56332380Y-77771666D01*
X55332380Y-76866904D02*
X55332380Y-77343095D01*
X55808571Y-77390714D01*
X55760952Y-77343095D01*
X55713333Y-77247857D01*
X55713333Y-77009761D01*
X55760952Y-76914523D01*
X55808571Y-76866904D01*
X55903809Y-76819285D01*
X56141904Y-76819285D01*
X56237142Y-76866904D01*
X56284761Y-76914523D01*
X56332380Y-77009761D01*
X56332380Y-77247857D01*
X56284761Y-77343095D01*
X56237142Y-77390714D01*
X109212142Y-67127380D02*
X108878809Y-66651190D01*
X108640714Y-67127380D02*
X108640714Y-66127380D01*
X109021666Y-66127380D01*
X109116904Y-66175000D01*
X109164523Y-66222619D01*
X109212142Y-66317857D01*
X109212142Y-66460714D01*
X109164523Y-66555952D01*
X109116904Y-66603571D01*
X109021666Y-66651190D01*
X108640714Y-66651190D01*
X109593095Y-66222619D02*
X109640714Y-66175000D01*
X109735952Y-66127380D01*
X109974047Y-66127380D01*
X110069285Y-66175000D01*
X110116904Y-66222619D01*
X110164523Y-66317857D01*
X110164523Y-66413095D01*
X110116904Y-66555952D01*
X109545476Y-67127380D01*
X110164523Y-67127380D01*
X110783571Y-66127380D02*
X110878809Y-66127380D01*
X110974047Y-66175000D01*
X111021666Y-66222619D01*
X111069285Y-66317857D01*
X111116904Y-66508333D01*
X111116904Y-66746428D01*
X111069285Y-66936904D01*
X111021666Y-67032142D01*
X110974047Y-67079761D01*
X110878809Y-67127380D01*
X110783571Y-67127380D01*
X110688333Y-67079761D01*
X110640714Y-67032142D01*
X110593095Y-66936904D01*
X110545476Y-66746428D01*
X110545476Y-66508333D01*
X110593095Y-66317857D01*
X110640714Y-66222619D01*
X110688333Y-66175000D01*
X110783571Y-66127380D01*
X105830714Y-67127380D02*
X105259285Y-67127380D01*
X105545000Y-67127380D02*
X105545000Y-66127380D01*
X105449761Y-66270238D01*
X105354523Y-66365476D01*
X105259285Y-66413095D01*
X106259285Y-67127380D02*
X106259285Y-66127380D01*
X106830714Y-67127380D02*
X106402142Y-66555952D01*
X106830714Y-66127380D02*
X106259285Y-66698809D01*
X111791904Y-39457380D02*
X111791904Y-40266904D01*
X111839523Y-40362142D01*
X111887142Y-40409761D01*
X111982380Y-40457380D01*
X112172857Y-40457380D01*
X112268095Y-40409761D01*
X112315714Y-40362142D01*
X112363333Y-40266904D01*
X112363333Y-39457380D01*
X113363333Y-40457380D02*
X112791904Y-40457380D01*
X113077619Y-40457380D02*
X113077619Y-39457380D01*
X112982380Y-39600238D01*
X112887142Y-39695476D01*
X112791904Y-39743095D01*
X113744285Y-39552619D02*
X113791904Y-39505000D01*
X113887142Y-39457380D01*
X114125238Y-39457380D01*
X114220476Y-39505000D01*
X114268095Y-39552619D01*
X114315714Y-39647857D01*
X114315714Y-39743095D01*
X114268095Y-39885952D01*
X113696666Y-40457380D01*
X114315714Y-40457380D01*
X112482380Y-30582857D02*
X112482380Y-29916190D01*
X113482380Y-30344761D01*
X112815714Y-29106666D02*
X113482380Y-29106666D01*
X112434761Y-29344761D02*
X113149047Y-29582857D01*
X113149047Y-28963809D01*
X113482380Y-28106666D02*
X113482380Y-28582857D01*
X112482380Y-28582857D01*
X113434761Y-27820952D02*
X113482380Y-27678095D01*
X113482380Y-27440000D01*
X113434761Y-27344761D01*
X113387142Y-27297142D01*
X113291904Y-27249523D01*
X113196666Y-27249523D01*
X113101428Y-27297142D01*
X113053809Y-27344761D01*
X113006190Y-27440000D01*
X112958571Y-27630476D01*
X112910952Y-27725714D01*
X112863333Y-27773333D01*
X112768095Y-27820952D01*
X112672857Y-27820952D01*
X112577619Y-27773333D01*
X112530000Y-27725714D01*
X112482380Y-27630476D01*
X112482380Y-27392380D01*
X112530000Y-27249523D01*
X112482380Y-26344761D02*
X112482380Y-26820952D01*
X112958571Y-26868571D01*
X112910952Y-26820952D01*
X112863333Y-26725714D01*
X112863333Y-26487619D01*
X112910952Y-26392380D01*
X112958571Y-26344761D01*
X113053809Y-26297142D01*
X113291904Y-26297142D01*
X113387142Y-26344761D01*
X113434761Y-26392380D01*
X113482380Y-26487619D01*
X113482380Y-26725714D01*
X113434761Y-26820952D01*
X113387142Y-26868571D01*
X113482380Y-25344761D02*
X113482380Y-25916190D01*
X113482380Y-25630476D02*
X112482380Y-25630476D01*
X112625238Y-25725714D01*
X112720476Y-25820952D01*
X112768095Y-25916190D01*
X124968095Y-122852380D02*
X124968095Y-123661904D01*
X125015714Y-123757142D01*
X125063333Y-123804761D01*
X125158571Y-123852380D01*
X125349047Y-123852380D01*
X125444285Y-123804761D01*
X125491904Y-123757142D01*
X125539523Y-123661904D01*
X125539523Y-122852380D01*
X126444285Y-123185714D02*
X126444285Y-123852380D01*
X126206190Y-122804761D02*
X125968095Y-123519047D01*
X126587142Y-123519047D01*
X134651904Y-39457380D02*
X134651904Y-40266904D01*
X134699523Y-40362142D01*
X134747142Y-40409761D01*
X134842380Y-40457380D01*
X135032857Y-40457380D01*
X135128095Y-40409761D01*
X135175714Y-40362142D01*
X135223333Y-40266904D01*
X135223333Y-39457380D01*
X136223333Y-40457380D02*
X135651904Y-40457380D01*
X135937619Y-40457380D02*
X135937619Y-39457380D01*
X135842380Y-39600238D01*
X135747142Y-39695476D01*
X135651904Y-39743095D01*
X136842380Y-39457380D02*
X136937619Y-39457380D01*
X137032857Y-39505000D01*
X137080476Y-39552619D01*
X137128095Y-39647857D01*
X137175714Y-39838333D01*
X137175714Y-40076428D01*
X137128095Y-40266904D01*
X137080476Y-40362142D01*
X137032857Y-40409761D01*
X136937619Y-40457380D01*
X136842380Y-40457380D01*
X136747142Y-40409761D01*
X136699523Y-40362142D01*
X136651904Y-40266904D01*
X136604285Y-40076428D01*
X136604285Y-39838333D01*
X136651904Y-39647857D01*
X136699523Y-39552619D01*
X136747142Y-39505000D01*
X136842380Y-39457380D01*
X135342380Y-30582857D02*
X135342380Y-29916190D01*
X136342380Y-30344761D01*
X135675714Y-29106666D02*
X136342380Y-29106666D01*
X135294761Y-29344761D02*
X136009047Y-29582857D01*
X136009047Y-28963809D01*
X136342380Y-28106666D02*
X136342380Y-28582857D01*
X135342380Y-28582857D01*
X136294761Y-27820952D02*
X136342380Y-27678095D01*
X136342380Y-27440000D01*
X136294761Y-27344761D01*
X136247142Y-27297142D01*
X136151904Y-27249523D01*
X136056666Y-27249523D01*
X135961428Y-27297142D01*
X135913809Y-27344761D01*
X135866190Y-27440000D01*
X135818571Y-27630476D01*
X135770952Y-27725714D01*
X135723333Y-27773333D01*
X135628095Y-27820952D01*
X135532857Y-27820952D01*
X135437619Y-27773333D01*
X135390000Y-27725714D01*
X135342380Y-27630476D01*
X135342380Y-27392380D01*
X135390000Y-27249523D01*
X135342380Y-26630476D02*
X135342380Y-26535238D01*
X135390000Y-26440000D01*
X135437619Y-26392380D01*
X135532857Y-26344761D01*
X135723333Y-26297142D01*
X135961428Y-26297142D01*
X136151904Y-26344761D01*
X136247142Y-26392380D01*
X136294761Y-26440000D01*
X136342380Y-26535238D01*
X136342380Y-26630476D01*
X136294761Y-26725714D01*
X136247142Y-26773333D01*
X136151904Y-26820952D01*
X135961428Y-26868571D01*
X135723333Y-26868571D01*
X135532857Y-26820952D01*
X135437619Y-26773333D01*
X135390000Y-26725714D01*
X135342380Y-26630476D01*
X135342380Y-25678095D02*
X135342380Y-25582857D01*
X135390000Y-25487619D01*
X135437619Y-25440000D01*
X135532857Y-25392380D01*
X135723333Y-25344761D01*
X135961428Y-25344761D01*
X136151904Y-25392380D01*
X136247142Y-25440000D01*
X136294761Y-25487619D01*
X136342380Y-25582857D01*
X136342380Y-25678095D01*
X136294761Y-25773333D01*
X136247142Y-25820952D01*
X136151904Y-25868571D01*
X135961428Y-25916190D01*
X135723333Y-25916190D01*
X135532857Y-25868571D01*
X135437619Y-25820952D01*
X135390000Y-25773333D01*
X135342380Y-25678095D01*
X81097380Y-51442857D02*
X80621190Y-51776190D01*
X81097380Y-52014285D02*
X80097380Y-52014285D01*
X80097380Y-51633333D01*
X80145000Y-51538095D01*
X80192619Y-51490476D01*
X80287857Y-51442857D01*
X80430714Y-51442857D01*
X80525952Y-51490476D01*
X80573571Y-51538095D01*
X80621190Y-51633333D01*
X80621190Y-52014285D01*
X80192619Y-51061904D02*
X80145000Y-51014285D01*
X80097380Y-50919047D01*
X80097380Y-50680952D01*
X80145000Y-50585714D01*
X80192619Y-50538095D01*
X80287857Y-50490476D01*
X80383095Y-50490476D01*
X80525952Y-50538095D01*
X81097380Y-51109523D01*
X81097380Y-50490476D01*
X80097380Y-49633333D02*
X80097380Y-49823809D01*
X80145000Y-49919047D01*
X80192619Y-49966666D01*
X80335476Y-50061904D01*
X80525952Y-50109523D01*
X80906904Y-50109523D01*
X81002142Y-50061904D01*
X81049761Y-50014285D01*
X81097380Y-49919047D01*
X81097380Y-49728571D01*
X81049761Y-49633333D01*
X81002142Y-49585714D01*
X80906904Y-49538095D01*
X80668809Y-49538095D01*
X80573571Y-49585714D01*
X80525952Y-49633333D01*
X80478333Y-49728571D01*
X80478333Y-49919047D01*
X80525952Y-50014285D01*
X80573571Y-50061904D01*
X80668809Y-50109523D01*
X81097380Y-54824285D02*
X81097380Y-55395714D01*
X81097380Y-55110000D02*
X80097380Y-55110000D01*
X80240238Y-55205238D01*
X80335476Y-55300476D01*
X80383095Y-55395714D01*
X81097380Y-54395714D02*
X80097380Y-54395714D01*
X81097380Y-53824285D02*
X80525952Y-54252857D01*
X80097380Y-53824285D02*
X80668809Y-54395714D01*
X83637380Y-51442857D02*
X83161190Y-51776190D01*
X83637380Y-52014285D02*
X82637380Y-52014285D01*
X82637380Y-51633333D01*
X82685000Y-51538095D01*
X82732619Y-51490476D01*
X82827857Y-51442857D01*
X82970714Y-51442857D01*
X83065952Y-51490476D01*
X83113571Y-51538095D01*
X83161190Y-51633333D01*
X83161190Y-52014285D01*
X82732619Y-51061904D02*
X82685000Y-51014285D01*
X82637380Y-50919047D01*
X82637380Y-50680952D01*
X82685000Y-50585714D01*
X82732619Y-50538095D01*
X82827857Y-50490476D01*
X82923095Y-50490476D01*
X83065952Y-50538095D01*
X83637380Y-51109523D01*
X83637380Y-50490476D01*
X82637380Y-49585714D02*
X82637380Y-50061904D01*
X83113571Y-50109523D01*
X83065952Y-50061904D01*
X83018333Y-49966666D01*
X83018333Y-49728571D01*
X83065952Y-49633333D01*
X83113571Y-49585714D01*
X83208809Y-49538095D01*
X83446904Y-49538095D01*
X83542142Y-49585714D01*
X83589761Y-49633333D01*
X83637380Y-49728571D01*
X83637380Y-49966666D01*
X83589761Y-50061904D01*
X83542142Y-50109523D01*
X83637380Y-54824285D02*
X83637380Y-55395714D01*
X83637380Y-55110000D02*
X82637380Y-55110000D01*
X82780238Y-55205238D01*
X82875476Y-55300476D01*
X82923095Y-55395714D01*
X83637380Y-54395714D02*
X82637380Y-54395714D01*
X83637380Y-53824285D02*
X83065952Y-54252857D01*
X82637380Y-53824285D02*
X83208809Y-54395714D01*
X175093333Y-45282142D02*
X175045714Y-45329761D01*
X174902857Y-45377380D01*
X174807619Y-45377380D01*
X174664761Y-45329761D01*
X174569523Y-45234523D01*
X174521904Y-45139285D01*
X174474285Y-44948809D01*
X174474285Y-44805952D01*
X174521904Y-44615476D01*
X174569523Y-44520238D01*
X174664761Y-44425000D01*
X174807619Y-44377380D01*
X174902857Y-44377380D01*
X175045714Y-44425000D01*
X175093333Y-44472619D01*
X175474285Y-44472619D02*
X175521904Y-44425000D01*
X175617142Y-44377380D01*
X175855238Y-44377380D01*
X175950476Y-44425000D01*
X175998095Y-44472619D01*
X176045714Y-44567857D01*
X176045714Y-44663095D01*
X175998095Y-44805952D01*
X175426666Y-45377380D01*
X176045714Y-45377380D01*
X56507142Y-67182380D02*
X56173809Y-66706190D01*
X55935714Y-67182380D02*
X55935714Y-66182380D01*
X56316666Y-66182380D01*
X56411904Y-66230000D01*
X56459523Y-66277619D01*
X56507142Y-66372857D01*
X56507142Y-66515714D01*
X56459523Y-66610952D01*
X56411904Y-66658571D01*
X56316666Y-66706190D01*
X55935714Y-66706190D01*
X56840476Y-66182380D02*
X57459523Y-66182380D01*
X57126190Y-66563333D01*
X57269047Y-66563333D01*
X57364285Y-66610952D01*
X57411904Y-66658571D01*
X57459523Y-66753809D01*
X57459523Y-66991904D01*
X57411904Y-67087142D01*
X57364285Y-67134761D01*
X57269047Y-67182380D01*
X56983333Y-67182380D01*
X56888095Y-67134761D01*
X56840476Y-67087142D01*
X58078571Y-66182380D02*
X58173809Y-66182380D01*
X58269047Y-66230000D01*
X58316666Y-66277619D01*
X58364285Y-66372857D01*
X58411904Y-66563333D01*
X58411904Y-66801428D01*
X58364285Y-66991904D01*
X58316666Y-67087142D01*
X58269047Y-67134761D01*
X58173809Y-67182380D01*
X58078571Y-67182380D01*
X57983333Y-67134761D01*
X57935714Y-67087142D01*
X57888095Y-66991904D01*
X57840476Y-66801428D01*
X57840476Y-66563333D01*
X57888095Y-66372857D01*
X57935714Y-66277619D01*
X57983333Y-66230000D01*
X58078571Y-66182380D01*
X60745714Y-67182380D02*
X60174285Y-67182380D01*
X60460000Y-67182380D02*
X60460000Y-66182380D01*
X60364761Y-66325238D01*
X60269523Y-66420476D01*
X60174285Y-66468095D01*
X61174285Y-67182380D02*
X61174285Y-66182380D01*
X61745714Y-67182380D02*
X61317142Y-66610952D01*
X61745714Y-66182380D02*
X61174285Y-66753809D01*
X90162142Y-67127380D02*
X89828809Y-66651190D01*
X89590714Y-67127380D02*
X89590714Y-66127380D01*
X89971666Y-66127380D01*
X90066904Y-66175000D01*
X90114523Y-66222619D01*
X90162142Y-66317857D01*
X90162142Y-66460714D01*
X90114523Y-66555952D01*
X90066904Y-66603571D01*
X89971666Y-66651190D01*
X89590714Y-66651190D01*
X90543095Y-66222619D02*
X90590714Y-66175000D01*
X90685952Y-66127380D01*
X90924047Y-66127380D01*
X91019285Y-66175000D01*
X91066904Y-66222619D01*
X91114523Y-66317857D01*
X91114523Y-66413095D01*
X91066904Y-66555952D01*
X90495476Y-67127380D01*
X91114523Y-67127380D01*
X91495476Y-66222619D02*
X91543095Y-66175000D01*
X91638333Y-66127380D01*
X91876428Y-66127380D01*
X91971666Y-66175000D01*
X92019285Y-66222619D01*
X92066904Y-66317857D01*
X92066904Y-66413095D01*
X92019285Y-66555952D01*
X91447857Y-67127380D01*
X92066904Y-67127380D01*
X94400714Y-67127380D02*
X93829285Y-67127380D01*
X94115000Y-67127380D02*
X94115000Y-66127380D01*
X94019761Y-66270238D01*
X93924523Y-66365476D01*
X93829285Y-66413095D01*
X94829285Y-67127380D02*
X94829285Y-66127380D01*
X95400714Y-67127380D02*
X94972142Y-66555952D01*
X95400714Y-66127380D02*
X94829285Y-66698809D01*
X156297380Y-102203095D02*
X157106904Y-102203095D01*
X157202142Y-102155476D01*
X157249761Y-102107857D01*
X157297380Y-102012619D01*
X157297380Y-101822142D01*
X157249761Y-101726904D01*
X157202142Y-101679285D01*
X157106904Y-101631666D01*
X156297380Y-101631666D01*
X157297380Y-100631666D02*
X157297380Y-101203095D01*
X157297380Y-100917380D02*
X156297380Y-100917380D01*
X156440238Y-101012619D01*
X156535476Y-101107857D01*
X156583095Y-101203095D01*
X156725952Y-100060238D02*
X156678333Y-100155476D01*
X156630714Y-100203095D01*
X156535476Y-100250714D01*
X156487857Y-100250714D01*
X156392619Y-100203095D01*
X156345000Y-100155476D01*
X156297380Y-100060238D01*
X156297380Y-99869761D01*
X156345000Y-99774523D01*
X156392619Y-99726904D01*
X156487857Y-99679285D01*
X156535476Y-99679285D01*
X156630714Y-99726904D01*
X156678333Y-99774523D01*
X156725952Y-99869761D01*
X156725952Y-100060238D01*
X156773571Y-100155476D01*
X156821190Y-100203095D01*
X156916428Y-100250714D01*
X157106904Y-100250714D01*
X157202142Y-100203095D01*
X157249761Y-100155476D01*
X157297380Y-100060238D01*
X157297380Y-99869761D01*
X157249761Y-99774523D01*
X157202142Y-99726904D01*
X157106904Y-99679285D01*
X156916428Y-99679285D01*
X156821190Y-99726904D01*
X156773571Y-99774523D01*
X156725952Y-99869761D01*
X114752380Y-51442857D02*
X114276190Y-51776190D01*
X114752380Y-52014285D02*
X113752380Y-52014285D01*
X113752380Y-51633333D01*
X113800000Y-51538095D01*
X113847619Y-51490476D01*
X113942857Y-51442857D01*
X114085714Y-51442857D01*
X114180952Y-51490476D01*
X114228571Y-51538095D01*
X114276190Y-51633333D01*
X114276190Y-52014285D01*
X114752380Y-50490476D02*
X114752380Y-51061904D01*
X114752380Y-50776190D02*
X113752380Y-50776190D01*
X113895238Y-50871428D01*
X113990476Y-50966666D01*
X114038095Y-51061904D01*
X114180952Y-49919047D02*
X114133333Y-50014285D01*
X114085714Y-50061904D01*
X113990476Y-50109523D01*
X113942857Y-50109523D01*
X113847619Y-50061904D01*
X113800000Y-50014285D01*
X113752380Y-49919047D01*
X113752380Y-49728571D01*
X113800000Y-49633333D01*
X113847619Y-49585714D01*
X113942857Y-49538095D01*
X113990476Y-49538095D01*
X114085714Y-49585714D01*
X114133333Y-49633333D01*
X114180952Y-49728571D01*
X114180952Y-49919047D01*
X114228571Y-50014285D01*
X114276190Y-50061904D01*
X114371428Y-50109523D01*
X114561904Y-50109523D01*
X114657142Y-50061904D01*
X114704761Y-50014285D01*
X114752380Y-49919047D01*
X114752380Y-49728571D01*
X114704761Y-49633333D01*
X114657142Y-49585714D01*
X114561904Y-49538095D01*
X114371428Y-49538095D01*
X114276190Y-49585714D01*
X114228571Y-49633333D01*
X114180952Y-49728571D01*
X114752380Y-54824285D02*
X114752380Y-55395714D01*
X114752380Y-55110000D02*
X113752380Y-55110000D01*
X113895238Y-55205238D01*
X113990476Y-55300476D01*
X114038095Y-55395714D01*
X114752380Y-54395714D02*
X113752380Y-54395714D01*
X114752380Y-53824285D02*
X114180952Y-54252857D01*
X113752380Y-53824285D02*
X114323809Y-54395714D01*
X127347142Y-147506666D02*
X127394761Y-147554285D01*
X127442380Y-147697142D01*
X127442380Y-147792380D01*
X127394761Y-147935238D01*
X127299523Y-148030476D01*
X127204285Y-148078095D01*
X127013809Y-148125714D01*
X126870952Y-148125714D01*
X126680476Y-148078095D01*
X126585238Y-148030476D01*
X126490000Y-147935238D01*
X126442380Y-147792380D01*
X126442380Y-147697142D01*
X126490000Y-147554285D01*
X126537619Y-147506666D01*
X126442380Y-146601904D02*
X126442380Y-147078095D01*
X126918571Y-147125714D01*
X126870952Y-147078095D01*
X126823333Y-146982857D01*
X126823333Y-146744761D01*
X126870952Y-146649523D01*
X126918571Y-146601904D01*
X127013809Y-146554285D01*
X127251904Y-146554285D01*
X127347142Y-146601904D01*
X127394761Y-146649523D01*
X127442380Y-146744761D01*
X127442380Y-146982857D01*
X127394761Y-147078095D01*
X127347142Y-147125714D01*
X157978095Y-39457380D02*
X157978095Y-40266904D01*
X158025714Y-40362142D01*
X158073333Y-40409761D01*
X158168571Y-40457380D01*
X158359047Y-40457380D01*
X158454285Y-40409761D01*
X158501904Y-40362142D01*
X158549523Y-40266904D01*
X158549523Y-39457380D01*
X159168571Y-39885952D02*
X159073333Y-39838333D01*
X159025714Y-39790714D01*
X158978095Y-39695476D01*
X158978095Y-39647857D01*
X159025714Y-39552619D01*
X159073333Y-39505000D01*
X159168571Y-39457380D01*
X159359047Y-39457380D01*
X159454285Y-39505000D01*
X159501904Y-39552619D01*
X159549523Y-39647857D01*
X159549523Y-39695476D01*
X159501904Y-39790714D01*
X159454285Y-39838333D01*
X159359047Y-39885952D01*
X159168571Y-39885952D01*
X159073333Y-39933571D01*
X159025714Y-39981190D01*
X158978095Y-40076428D01*
X158978095Y-40266904D01*
X159025714Y-40362142D01*
X159073333Y-40409761D01*
X159168571Y-40457380D01*
X159359047Y-40457380D01*
X159454285Y-40409761D01*
X159501904Y-40362142D01*
X159549523Y-40266904D01*
X159549523Y-40076428D01*
X159501904Y-39981190D01*
X159454285Y-39933571D01*
X159359047Y-39885952D01*
X158202380Y-30582857D02*
X158202380Y-29916190D01*
X159202380Y-30344761D01*
X158535714Y-29106666D02*
X159202380Y-29106666D01*
X158154761Y-29344761D02*
X158869047Y-29582857D01*
X158869047Y-28963809D01*
X159202380Y-28106666D02*
X159202380Y-28582857D01*
X158202380Y-28582857D01*
X159154761Y-27820952D02*
X159202380Y-27678095D01*
X159202380Y-27440000D01*
X159154761Y-27344761D01*
X159107142Y-27297142D01*
X159011904Y-27249523D01*
X158916666Y-27249523D01*
X158821428Y-27297142D01*
X158773809Y-27344761D01*
X158726190Y-27440000D01*
X158678571Y-27630476D01*
X158630952Y-27725714D01*
X158583333Y-27773333D01*
X158488095Y-27820952D01*
X158392857Y-27820952D01*
X158297619Y-27773333D01*
X158250000Y-27725714D01*
X158202380Y-27630476D01*
X158202380Y-27392380D01*
X158250000Y-27249523D01*
X158630952Y-26678095D02*
X158583333Y-26773333D01*
X158535714Y-26820952D01*
X158440476Y-26868571D01*
X158392857Y-26868571D01*
X158297619Y-26820952D01*
X158250000Y-26773333D01*
X158202380Y-26678095D01*
X158202380Y-26487619D01*
X158250000Y-26392380D01*
X158297619Y-26344761D01*
X158392857Y-26297142D01*
X158440476Y-26297142D01*
X158535714Y-26344761D01*
X158583333Y-26392380D01*
X158630952Y-26487619D01*
X158630952Y-26678095D01*
X158678571Y-26773333D01*
X158726190Y-26820952D01*
X158821428Y-26868571D01*
X159011904Y-26868571D01*
X159107142Y-26820952D01*
X159154761Y-26773333D01*
X159202380Y-26678095D01*
X159202380Y-26487619D01*
X159154761Y-26392380D01*
X159107142Y-26344761D01*
X159011904Y-26297142D01*
X158821428Y-26297142D01*
X158726190Y-26344761D01*
X158678571Y-26392380D01*
X158630952Y-26487619D01*
X158202380Y-25392380D02*
X158202380Y-25868571D01*
X158678571Y-25916190D01*
X158630952Y-25868571D01*
X158583333Y-25773333D01*
X158583333Y-25535238D01*
X158630952Y-25440000D01*
X158678571Y-25392380D01*
X158773809Y-25344761D01*
X159011904Y-25344761D01*
X159107142Y-25392380D01*
X159154761Y-25440000D01*
X159202380Y-25535238D01*
X159202380Y-25773333D01*
X159154761Y-25868571D01*
X159107142Y-25916190D01*
X100996904Y-39457380D02*
X100996904Y-40266904D01*
X101044523Y-40362142D01*
X101092142Y-40409761D01*
X101187380Y-40457380D01*
X101377857Y-40457380D01*
X101473095Y-40409761D01*
X101520714Y-40362142D01*
X101568333Y-40266904D01*
X101568333Y-39457380D01*
X102568333Y-40457380D02*
X101996904Y-40457380D01*
X102282619Y-40457380D02*
X102282619Y-39457380D01*
X102187380Y-39600238D01*
X102092142Y-39695476D01*
X101996904Y-39743095D01*
X102901666Y-39457380D02*
X103520714Y-39457380D01*
X103187380Y-39838333D01*
X103330238Y-39838333D01*
X103425476Y-39885952D01*
X103473095Y-39933571D01*
X103520714Y-40028809D01*
X103520714Y-40266904D01*
X103473095Y-40362142D01*
X103425476Y-40409761D01*
X103330238Y-40457380D01*
X103044523Y-40457380D01*
X102949285Y-40409761D01*
X102901666Y-40362142D01*
X101687380Y-30582857D02*
X101687380Y-29916190D01*
X102687380Y-30344761D01*
X102020714Y-29106666D02*
X102687380Y-29106666D01*
X101639761Y-29344761D02*
X102354047Y-29582857D01*
X102354047Y-28963809D01*
X102687380Y-28106666D02*
X102687380Y-28582857D01*
X101687380Y-28582857D01*
X102639761Y-27820952D02*
X102687380Y-27678095D01*
X102687380Y-27440000D01*
X102639761Y-27344761D01*
X102592142Y-27297142D01*
X102496904Y-27249523D01*
X102401666Y-27249523D01*
X102306428Y-27297142D01*
X102258809Y-27344761D01*
X102211190Y-27440000D01*
X102163571Y-27630476D01*
X102115952Y-27725714D01*
X102068333Y-27773333D01*
X101973095Y-27820952D01*
X101877857Y-27820952D01*
X101782619Y-27773333D01*
X101735000Y-27725714D01*
X101687380Y-27630476D01*
X101687380Y-27392380D01*
X101735000Y-27249523D01*
X101687380Y-26630476D02*
X101687380Y-26535238D01*
X101735000Y-26440000D01*
X101782619Y-26392380D01*
X101877857Y-26344761D01*
X102068333Y-26297142D01*
X102306428Y-26297142D01*
X102496904Y-26344761D01*
X102592142Y-26392380D01*
X102639761Y-26440000D01*
X102687380Y-26535238D01*
X102687380Y-26630476D01*
X102639761Y-26725714D01*
X102592142Y-26773333D01*
X102496904Y-26820952D01*
X102306428Y-26868571D01*
X102068333Y-26868571D01*
X101877857Y-26820952D01*
X101782619Y-26773333D01*
X101735000Y-26725714D01*
X101687380Y-26630476D01*
X101687380Y-25678095D02*
X101687380Y-25582857D01*
X101735000Y-25487619D01*
X101782619Y-25440000D01*
X101877857Y-25392380D01*
X102068333Y-25344761D01*
X102306428Y-25344761D01*
X102496904Y-25392380D01*
X102592142Y-25440000D01*
X102639761Y-25487619D01*
X102687380Y-25582857D01*
X102687380Y-25678095D01*
X102639761Y-25773333D01*
X102592142Y-25820952D01*
X102496904Y-25868571D01*
X102306428Y-25916190D01*
X102068333Y-25916190D01*
X101877857Y-25868571D01*
X101782619Y-25820952D01*
X101735000Y-25773333D01*
X101687380Y-25678095D01*
X55332380Y-102203095D02*
X56141904Y-102203095D01*
X56237142Y-102155476D01*
X56284761Y-102107857D01*
X56332380Y-102012619D01*
X56332380Y-101822142D01*
X56284761Y-101726904D01*
X56237142Y-101679285D01*
X56141904Y-101631666D01*
X55332380Y-101631666D01*
X55427619Y-101203095D02*
X55380000Y-101155476D01*
X55332380Y-101060238D01*
X55332380Y-100822142D01*
X55380000Y-100726904D01*
X55427619Y-100679285D01*
X55522857Y-100631666D01*
X55618095Y-100631666D01*
X55760952Y-100679285D01*
X56332380Y-101250714D01*
X56332380Y-100631666D01*
X56332380Y-99679285D02*
X56332380Y-100250714D01*
X56332380Y-99965000D02*
X55332380Y-99965000D01*
X55475238Y-100060238D01*
X55570476Y-100155476D01*
X55618095Y-100250714D01*
X90162142Y-64587380D02*
X89828809Y-64111190D01*
X89590714Y-64587380D02*
X89590714Y-63587380D01*
X89971666Y-63587380D01*
X90066904Y-63635000D01*
X90114523Y-63682619D01*
X90162142Y-63777857D01*
X90162142Y-63920714D01*
X90114523Y-64015952D01*
X90066904Y-64063571D01*
X89971666Y-64111190D01*
X89590714Y-64111190D01*
X90543095Y-63682619D02*
X90590714Y-63635000D01*
X90685952Y-63587380D01*
X90924047Y-63587380D01*
X91019285Y-63635000D01*
X91066904Y-63682619D01*
X91114523Y-63777857D01*
X91114523Y-63873095D01*
X91066904Y-64015952D01*
X90495476Y-64587380D01*
X91114523Y-64587380D01*
X92066904Y-64587380D02*
X91495476Y-64587380D01*
X91781190Y-64587380D02*
X91781190Y-63587380D01*
X91685952Y-63730238D01*
X91590714Y-63825476D01*
X91495476Y-63873095D01*
X94400714Y-64587380D02*
X93829285Y-64587380D01*
X94115000Y-64587380D02*
X94115000Y-63587380D01*
X94019761Y-63730238D01*
X93924523Y-63825476D01*
X93829285Y-63873095D01*
X94829285Y-64587380D02*
X94829285Y-63587380D01*
X95400714Y-64587380D02*
X94972142Y-64015952D01*
X95400714Y-63587380D02*
X94829285Y-64158809D01*
X67341904Y-39457380D02*
X67341904Y-40266904D01*
X67389523Y-40362142D01*
X67437142Y-40409761D01*
X67532380Y-40457380D01*
X67722857Y-40457380D01*
X67818095Y-40409761D01*
X67865714Y-40362142D01*
X67913333Y-40266904D01*
X67913333Y-39457380D01*
X68913333Y-40457380D02*
X68341904Y-40457380D01*
X68627619Y-40457380D02*
X68627619Y-39457380D01*
X68532380Y-39600238D01*
X68437142Y-39695476D01*
X68341904Y-39743095D01*
X69770476Y-39457380D02*
X69580000Y-39457380D01*
X69484761Y-39505000D01*
X69437142Y-39552619D01*
X69341904Y-39695476D01*
X69294285Y-39885952D01*
X69294285Y-40266904D01*
X69341904Y-40362142D01*
X69389523Y-40409761D01*
X69484761Y-40457380D01*
X69675238Y-40457380D01*
X69770476Y-40409761D01*
X69818095Y-40362142D01*
X69865714Y-40266904D01*
X69865714Y-40028809D01*
X69818095Y-39933571D01*
X69770476Y-39885952D01*
X69675238Y-39838333D01*
X69484761Y-39838333D01*
X69389523Y-39885952D01*
X69341904Y-39933571D01*
X69294285Y-40028809D01*
X68032380Y-30582857D02*
X68032380Y-29916190D01*
X69032380Y-30344761D01*
X68365714Y-29106666D02*
X69032380Y-29106666D01*
X67984761Y-29344761D02*
X68699047Y-29582857D01*
X68699047Y-28963809D01*
X69032380Y-28106666D02*
X69032380Y-28582857D01*
X68032380Y-28582857D01*
X68984761Y-27820952D02*
X69032380Y-27678095D01*
X69032380Y-27440000D01*
X68984761Y-27344761D01*
X68937142Y-27297142D01*
X68841904Y-27249523D01*
X68746666Y-27249523D01*
X68651428Y-27297142D01*
X68603809Y-27344761D01*
X68556190Y-27440000D01*
X68508571Y-27630476D01*
X68460952Y-27725714D01*
X68413333Y-27773333D01*
X68318095Y-27820952D01*
X68222857Y-27820952D01*
X68127619Y-27773333D01*
X68080000Y-27725714D01*
X68032380Y-27630476D01*
X68032380Y-27392380D01*
X68080000Y-27249523D01*
X68032380Y-26630476D02*
X68032380Y-26535238D01*
X68080000Y-26440000D01*
X68127619Y-26392380D01*
X68222857Y-26344761D01*
X68413333Y-26297142D01*
X68651428Y-26297142D01*
X68841904Y-26344761D01*
X68937142Y-26392380D01*
X68984761Y-26440000D01*
X69032380Y-26535238D01*
X69032380Y-26630476D01*
X68984761Y-26725714D01*
X68937142Y-26773333D01*
X68841904Y-26820952D01*
X68651428Y-26868571D01*
X68413333Y-26868571D01*
X68222857Y-26820952D01*
X68127619Y-26773333D01*
X68080000Y-26725714D01*
X68032380Y-26630476D01*
X68032380Y-25678095D02*
X68032380Y-25582857D01*
X68080000Y-25487619D01*
X68127619Y-25440000D01*
X68222857Y-25392380D01*
X68413333Y-25344761D01*
X68651428Y-25344761D01*
X68841904Y-25392380D01*
X68937142Y-25440000D01*
X68984761Y-25487619D01*
X69032380Y-25582857D01*
X69032380Y-25678095D01*
X68984761Y-25773333D01*
X68937142Y-25820952D01*
X68841904Y-25868571D01*
X68651428Y-25916190D01*
X68413333Y-25916190D01*
X68222857Y-25868571D01*
X68127619Y-25820952D01*
X68080000Y-25773333D01*
X68032380Y-25678095D01*
X75557142Y-67127380D02*
X75223809Y-66651190D01*
X74985714Y-67127380D02*
X74985714Y-66127380D01*
X75366666Y-66127380D01*
X75461904Y-66175000D01*
X75509523Y-66222619D01*
X75557142Y-66317857D01*
X75557142Y-66460714D01*
X75509523Y-66555952D01*
X75461904Y-66603571D01*
X75366666Y-66651190D01*
X74985714Y-66651190D01*
X75938095Y-66222619D02*
X75985714Y-66175000D01*
X76080952Y-66127380D01*
X76319047Y-66127380D01*
X76414285Y-66175000D01*
X76461904Y-66222619D01*
X76509523Y-66317857D01*
X76509523Y-66413095D01*
X76461904Y-66555952D01*
X75890476Y-67127380D01*
X76509523Y-67127380D01*
X77080952Y-66555952D02*
X76985714Y-66508333D01*
X76938095Y-66460714D01*
X76890476Y-66365476D01*
X76890476Y-66317857D01*
X76938095Y-66222619D01*
X76985714Y-66175000D01*
X77080952Y-66127380D01*
X77271428Y-66127380D01*
X77366666Y-66175000D01*
X77414285Y-66222619D01*
X77461904Y-66317857D01*
X77461904Y-66365476D01*
X77414285Y-66460714D01*
X77366666Y-66508333D01*
X77271428Y-66555952D01*
X77080952Y-66555952D01*
X76985714Y-66603571D01*
X76938095Y-66651190D01*
X76890476Y-66746428D01*
X76890476Y-66936904D01*
X76938095Y-67032142D01*
X76985714Y-67079761D01*
X77080952Y-67127380D01*
X77271428Y-67127380D01*
X77366666Y-67079761D01*
X77414285Y-67032142D01*
X77461904Y-66936904D01*
X77461904Y-66746428D01*
X77414285Y-66651190D01*
X77366666Y-66603571D01*
X77271428Y-66555952D01*
X72175714Y-67127380D02*
X71604285Y-67127380D01*
X71890000Y-67127380D02*
X71890000Y-66127380D01*
X71794761Y-66270238D01*
X71699523Y-66365476D01*
X71604285Y-66413095D01*
X72604285Y-67127380D02*
X72604285Y-66127380D01*
X73175714Y-67127380D02*
X72747142Y-66555952D01*
X73175714Y-66127380D02*
X72604285Y-66698809D01*
X84107142Y-92442142D02*
X84059523Y-92489761D01*
X83916666Y-92537380D01*
X83821428Y-92537380D01*
X83678571Y-92489761D01*
X83583333Y-92394523D01*
X83535714Y-92299285D01*
X83488095Y-92108809D01*
X83488095Y-91965952D01*
X83535714Y-91775476D01*
X83583333Y-91680238D01*
X83678571Y-91585000D01*
X83821428Y-91537380D01*
X83916666Y-91537380D01*
X84059523Y-91585000D01*
X84107142Y-91632619D01*
X85059523Y-92537380D02*
X84488095Y-92537380D01*
X84773809Y-92537380D02*
X84773809Y-91537380D01*
X84678571Y-91680238D01*
X84583333Y-91775476D01*
X84488095Y-91823095D01*
X85440476Y-91632619D02*
X85488095Y-91585000D01*
X85583333Y-91537380D01*
X85821428Y-91537380D01*
X85916666Y-91585000D01*
X85964285Y-91632619D01*
X86011904Y-91727857D01*
X86011904Y-91823095D01*
X85964285Y-91965952D01*
X85392857Y-92537380D01*
X86011904Y-92537380D01*
X151777142Y-92442142D02*
X151729523Y-92489761D01*
X151586666Y-92537380D01*
X151491428Y-92537380D01*
X151348571Y-92489761D01*
X151253333Y-92394523D01*
X151205714Y-92299285D01*
X151158095Y-92108809D01*
X151158095Y-91965952D01*
X151205714Y-91775476D01*
X151253333Y-91680238D01*
X151348571Y-91585000D01*
X151491428Y-91537380D01*
X151586666Y-91537380D01*
X151729523Y-91585000D01*
X151777142Y-91632619D01*
X152729523Y-92537380D02*
X152158095Y-92537380D01*
X152443809Y-92537380D02*
X152443809Y-91537380D01*
X152348571Y-91680238D01*
X152253333Y-91775476D01*
X152158095Y-91823095D01*
X153681904Y-92537380D02*
X153110476Y-92537380D01*
X153396190Y-92537380D02*
X153396190Y-91537380D01*
X153300952Y-91680238D01*
X153205714Y-91775476D01*
X153110476Y-91823095D01*
X117292380Y-51442857D02*
X116816190Y-51776190D01*
X117292380Y-52014285D02*
X116292380Y-52014285D01*
X116292380Y-51633333D01*
X116340000Y-51538095D01*
X116387619Y-51490476D01*
X116482857Y-51442857D01*
X116625714Y-51442857D01*
X116720952Y-51490476D01*
X116768571Y-51538095D01*
X116816190Y-51633333D01*
X116816190Y-52014285D01*
X117292380Y-50490476D02*
X117292380Y-51061904D01*
X117292380Y-50776190D02*
X116292380Y-50776190D01*
X116435238Y-50871428D01*
X116530476Y-50966666D01*
X116578095Y-51061904D01*
X116292380Y-50157142D02*
X116292380Y-49490476D01*
X117292380Y-49919047D01*
X117292380Y-54824285D02*
X117292380Y-55395714D01*
X117292380Y-55110000D02*
X116292380Y-55110000D01*
X116435238Y-55205238D01*
X116530476Y-55300476D01*
X116578095Y-55395714D01*
X117292380Y-54395714D02*
X116292380Y-54395714D01*
X117292380Y-53824285D02*
X116720952Y-54252857D01*
X116292380Y-53824285D02*
X116863809Y-54395714D01*
X173188333Y-64587380D02*
X172855000Y-64111190D01*
X172616904Y-64587380D02*
X172616904Y-63587380D01*
X172997857Y-63587380D01*
X173093095Y-63635000D01*
X173140714Y-63682619D01*
X173188333Y-63777857D01*
X173188333Y-63920714D01*
X173140714Y-64015952D01*
X173093095Y-64063571D01*
X172997857Y-64111190D01*
X172616904Y-64111190D01*
X173521666Y-63587380D02*
X174140714Y-63587380D01*
X173807380Y-63968333D01*
X173950238Y-63968333D01*
X174045476Y-64015952D01*
X174093095Y-64063571D01*
X174140714Y-64158809D01*
X174140714Y-64396904D01*
X174093095Y-64492142D01*
X174045476Y-64539761D01*
X173950238Y-64587380D01*
X173664523Y-64587380D01*
X173569285Y-64539761D01*
X173521666Y-64492142D01*
X176950714Y-64587380D02*
X176379285Y-64587380D01*
X176665000Y-64587380D02*
X176665000Y-63587380D01*
X176569761Y-63730238D01*
X176474523Y-63825476D01*
X176379285Y-63873095D01*
X177379285Y-64587380D02*
X177379285Y-63587380D01*
X177950714Y-64587380D02*
X177522142Y-64015952D01*
X177950714Y-63587380D02*
X177379285Y-64158809D01*
X173188333Y-67127380D02*
X172855000Y-66651190D01*
X172616904Y-67127380D02*
X172616904Y-66127380D01*
X172997857Y-66127380D01*
X173093095Y-66175000D01*
X173140714Y-66222619D01*
X173188333Y-66317857D01*
X173188333Y-66460714D01*
X173140714Y-66555952D01*
X173093095Y-66603571D01*
X172997857Y-66651190D01*
X172616904Y-66651190D01*
X174045476Y-66460714D02*
X174045476Y-67127380D01*
X173807380Y-66079761D02*
X173569285Y-66794047D01*
X174188333Y-66794047D01*
X176950714Y-67127380D02*
X176379285Y-67127380D01*
X176665000Y-67127380D02*
X176665000Y-66127380D01*
X176569761Y-66270238D01*
X176474523Y-66365476D01*
X176379285Y-66413095D01*
X177379285Y-67127380D02*
X177379285Y-66127380D01*
X177950714Y-67127380D02*
X177522142Y-66555952D01*
X177950714Y-66127380D02*
X177379285Y-66698809D01*
X143327380Y-51442857D02*
X142851190Y-51776190D01*
X143327380Y-52014285D02*
X142327380Y-52014285D01*
X142327380Y-51633333D01*
X142375000Y-51538095D01*
X142422619Y-51490476D01*
X142517857Y-51442857D01*
X142660714Y-51442857D01*
X142755952Y-51490476D01*
X142803571Y-51538095D01*
X142851190Y-51633333D01*
X142851190Y-52014285D01*
X143327380Y-50490476D02*
X143327380Y-51061904D01*
X143327380Y-50776190D02*
X142327380Y-50776190D01*
X142470238Y-50871428D01*
X142565476Y-50966666D01*
X142613095Y-51061904D01*
X142327380Y-49633333D02*
X142327380Y-49823809D01*
X142375000Y-49919047D01*
X142422619Y-49966666D01*
X142565476Y-50061904D01*
X142755952Y-50109523D01*
X143136904Y-50109523D01*
X143232142Y-50061904D01*
X143279761Y-50014285D01*
X143327380Y-49919047D01*
X143327380Y-49728571D01*
X143279761Y-49633333D01*
X143232142Y-49585714D01*
X143136904Y-49538095D01*
X142898809Y-49538095D01*
X142803571Y-49585714D01*
X142755952Y-49633333D01*
X142708333Y-49728571D01*
X142708333Y-49919047D01*
X142755952Y-50014285D01*
X142803571Y-50061904D01*
X142898809Y-50109523D01*
X143327380Y-54824285D02*
X143327380Y-55395714D01*
X143327380Y-55110000D02*
X142327380Y-55110000D01*
X142470238Y-55205238D01*
X142565476Y-55300476D01*
X142613095Y-55395714D01*
X143327380Y-54395714D02*
X142327380Y-54395714D01*
X143327380Y-53824285D02*
X142755952Y-54252857D01*
X142327380Y-53824285D02*
X142898809Y-54395714D01*
X123817142Y-67127380D02*
X123483809Y-66651190D01*
X123245714Y-67127380D02*
X123245714Y-66127380D01*
X123626666Y-66127380D01*
X123721904Y-66175000D01*
X123769523Y-66222619D01*
X123817142Y-66317857D01*
X123817142Y-66460714D01*
X123769523Y-66555952D01*
X123721904Y-66603571D01*
X123626666Y-66651190D01*
X123245714Y-66651190D01*
X124769523Y-67127380D02*
X124198095Y-67127380D01*
X124483809Y-67127380D02*
X124483809Y-66127380D01*
X124388571Y-66270238D01*
X124293333Y-66365476D01*
X124198095Y-66413095D01*
X125626666Y-66460714D02*
X125626666Y-67127380D01*
X125388571Y-66079761D02*
X125150476Y-66794047D01*
X125769523Y-66794047D01*
X128055714Y-67127380D02*
X127484285Y-67127380D01*
X127770000Y-67127380D02*
X127770000Y-66127380D01*
X127674761Y-66270238D01*
X127579523Y-66365476D01*
X127484285Y-66413095D01*
X128484285Y-67127380D02*
X128484285Y-66127380D01*
X129055714Y-67127380D02*
X128627142Y-66555952D01*
X129055714Y-66127380D02*
X128484285Y-66698809D01*
X109672380Y-51442857D02*
X109196190Y-51776190D01*
X109672380Y-52014285D02*
X108672380Y-52014285D01*
X108672380Y-51633333D01*
X108720000Y-51538095D01*
X108767619Y-51490476D01*
X108862857Y-51442857D01*
X109005714Y-51442857D01*
X109100952Y-51490476D01*
X109148571Y-51538095D01*
X109196190Y-51633333D01*
X109196190Y-52014285D01*
X108767619Y-51061904D02*
X108720000Y-51014285D01*
X108672380Y-50919047D01*
X108672380Y-50680952D01*
X108720000Y-50585714D01*
X108767619Y-50538095D01*
X108862857Y-50490476D01*
X108958095Y-50490476D01*
X109100952Y-50538095D01*
X109672380Y-51109523D01*
X109672380Y-50490476D01*
X109005714Y-49633333D02*
X109672380Y-49633333D01*
X108624761Y-49871428D02*
X109339047Y-50109523D01*
X109339047Y-49490476D01*
X109672380Y-54824285D02*
X109672380Y-55395714D01*
X109672380Y-55110000D02*
X108672380Y-55110000D01*
X108815238Y-55205238D01*
X108910476Y-55300476D01*
X108958095Y-55395714D01*
X109672380Y-54395714D02*
X108672380Y-54395714D01*
X109672380Y-53824285D02*
X109100952Y-54252857D01*
X108672380Y-53824285D02*
X109243809Y-54395714D01*
X88987380Y-79343095D02*
X89796904Y-79343095D01*
X89892142Y-79295476D01*
X89939761Y-79247857D01*
X89987380Y-79152619D01*
X89987380Y-78962142D01*
X89939761Y-78866904D01*
X89892142Y-78819285D01*
X89796904Y-78771666D01*
X88987380Y-78771666D01*
X89082619Y-78343095D02*
X89035000Y-78295476D01*
X88987380Y-78200238D01*
X88987380Y-77962142D01*
X89035000Y-77866904D01*
X89082619Y-77819285D01*
X89177857Y-77771666D01*
X89273095Y-77771666D01*
X89415952Y-77819285D01*
X89987380Y-78390714D01*
X89987380Y-77771666D01*
X89320714Y-76914523D02*
X89987380Y-76914523D01*
X88939761Y-77152619D02*
X89654047Y-77390714D01*
X89654047Y-76771666D01*
X156297380Y-79343095D02*
X157106904Y-79343095D01*
X157202142Y-79295476D01*
X157249761Y-79247857D01*
X157297380Y-79152619D01*
X157297380Y-78962142D01*
X157249761Y-78866904D01*
X157202142Y-78819285D01*
X157106904Y-78771666D01*
X156297380Y-78771666D01*
X156392619Y-78343095D02*
X156345000Y-78295476D01*
X156297380Y-78200238D01*
X156297380Y-77962142D01*
X156345000Y-77866904D01*
X156392619Y-77819285D01*
X156487857Y-77771666D01*
X156583095Y-77771666D01*
X156725952Y-77819285D01*
X157297380Y-78390714D01*
X157297380Y-77771666D01*
X156392619Y-77390714D02*
X156345000Y-77343095D01*
X156297380Y-77247857D01*
X156297380Y-77009761D01*
X156345000Y-76914523D01*
X156392619Y-76866904D01*
X156487857Y-76819285D01*
X156583095Y-76819285D01*
X156725952Y-76866904D01*
X157297380Y-77438333D01*
X157297380Y-76819285D01*
X145867380Y-51442857D02*
X145391190Y-51776190D01*
X145867380Y-52014285D02*
X144867380Y-52014285D01*
X144867380Y-51633333D01*
X144915000Y-51538095D01*
X144962619Y-51490476D01*
X145057857Y-51442857D01*
X145200714Y-51442857D01*
X145295952Y-51490476D01*
X145343571Y-51538095D01*
X145391190Y-51633333D01*
X145391190Y-52014285D01*
X145867380Y-50490476D02*
X145867380Y-51061904D01*
X145867380Y-50776190D02*
X144867380Y-50776190D01*
X145010238Y-50871428D01*
X145105476Y-50966666D01*
X145153095Y-51061904D01*
X144867380Y-49585714D02*
X144867380Y-50061904D01*
X145343571Y-50109523D01*
X145295952Y-50061904D01*
X145248333Y-49966666D01*
X145248333Y-49728571D01*
X145295952Y-49633333D01*
X145343571Y-49585714D01*
X145438809Y-49538095D01*
X145676904Y-49538095D01*
X145772142Y-49585714D01*
X145819761Y-49633333D01*
X145867380Y-49728571D01*
X145867380Y-49966666D01*
X145819761Y-50061904D01*
X145772142Y-50109523D01*
X145867380Y-54824285D02*
X145867380Y-55395714D01*
X145867380Y-55110000D02*
X144867380Y-55110000D01*
X145010238Y-55205238D01*
X145105476Y-55300476D01*
X145153095Y-55395714D01*
X145867380Y-54395714D02*
X144867380Y-54395714D01*
X145867380Y-53824285D02*
X145295952Y-54252857D01*
X144867380Y-53824285D02*
X145438809Y-54395714D01*
X95597142Y-147506666D02*
X95644761Y-147554285D01*
X95692380Y-147697142D01*
X95692380Y-147792380D01*
X95644761Y-147935238D01*
X95549523Y-148030476D01*
X95454285Y-148078095D01*
X95263809Y-148125714D01*
X95120952Y-148125714D01*
X94930476Y-148078095D01*
X94835238Y-148030476D01*
X94740000Y-147935238D01*
X94692380Y-147792380D01*
X94692380Y-147697142D01*
X94740000Y-147554285D01*
X94787619Y-147506666D01*
X94692380Y-147173333D02*
X94692380Y-146554285D01*
X95073333Y-146887619D01*
X95073333Y-146744761D01*
X95120952Y-146649523D01*
X95168571Y-146601904D01*
X95263809Y-146554285D01*
X95501904Y-146554285D01*
X95597142Y-146601904D01*
X95644761Y-146649523D01*
X95692380Y-146744761D01*
X95692380Y-147030476D01*
X95644761Y-147125714D01*
X95597142Y-147173333D01*
X100838095Y-154602380D02*
X100838095Y-155411904D01*
X100885714Y-155507142D01*
X100933333Y-155554761D01*
X101028571Y-155602380D01*
X101219047Y-155602380D01*
X101314285Y-155554761D01*
X101361904Y-155507142D01*
X101409523Y-155411904D01*
X101409523Y-154602380D01*
X101790476Y-154602380D02*
X102409523Y-154602380D01*
X102076190Y-154983333D01*
X102219047Y-154983333D01*
X102314285Y-155030952D01*
X102361904Y-155078571D01*
X102409523Y-155173809D01*
X102409523Y-155411904D01*
X102361904Y-155507142D01*
X102314285Y-155554761D01*
X102219047Y-155602380D01*
X101933333Y-155602380D01*
X101838095Y-155554761D01*
X101790476Y-155507142D01*
X104487142Y-120836666D02*
X104534761Y-120884285D01*
X104582380Y-121027142D01*
X104582380Y-121122380D01*
X104534761Y-121265238D01*
X104439523Y-121360476D01*
X104344285Y-121408095D01*
X104153809Y-121455714D01*
X104010952Y-121455714D01*
X103820476Y-121408095D01*
X103725238Y-121360476D01*
X103630000Y-121265238D01*
X103582380Y-121122380D01*
X103582380Y-121027142D01*
X103630000Y-120884285D01*
X103677619Y-120836666D01*
X103582380Y-120503333D02*
X103582380Y-119836666D01*
X104582380Y-120265238D01*
X141438333Y-45442142D02*
X141390714Y-45489761D01*
X141247857Y-45537380D01*
X141152619Y-45537380D01*
X141009761Y-45489761D01*
X140914523Y-45394523D01*
X140866904Y-45299285D01*
X140819285Y-45108809D01*
X140819285Y-44965952D01*
X140866904Y-44775476D01*
X140914523Y-44680238D01*
X141009761Y-44585000D01*
X141152619Y-44537380D01*
X141247857Y-44537380D01*
X141390714Y-44585000D01*
X141438333Y-44632619D01*
X142295476Y-44870714D02*
X142295476Y-45537380D01*
X142057380Y-44489761D02*
X141819285Y-45204047D01*
X142438333Y-45204047D01*
X117348095Y-149522380D02*
X117348095Y-150331904D01*
X117395714Y-150427142D01*
X117443333Y-150474761D01*
X117538571Y-150522380D01*
X117729047Y-150522380D01*
X117824285Y-150474761D01*
X117871904Y-150427142D01*
X117919523Y-150331904D01*
X117919523Y-149522380D01*
X118348095Y-149617619D02*
X118395714Y-149570000D01*
X118490952Y-149522380D01*
X118729047Y-149522380D01*
X118824285Y-149570000D01*
X118871904Y-149617619D01*
X118919523Y-149712857D01*
X118919523Y-149808095D01*
X118871904Y-149950952D01*
X118300476Y-150522380D01*
X118919523Y-150522380D01*
X123856904Y-39457380D02*
X123856904Y-40266904D01*
X123904523Y-40362142D01*
X123952142Y-40409761D01*
X124047380Y-40457380D01*
X124237857Y-40457380D01*
X124333095Y-40409761D01*
X124380714Y-40362142D01*
X124428333Y-40266904D01*
X124428333Y-39457380D01*
X125428333Y-40457380D02*
X124856904Y-40457380D01*
X125142619Y-40457380D02*
X125142619Y-39457380D01*
X125047380Y-39600238D01*
X124952142Y-39695476D01*
X124856904Y-39743095D01*
X126380714Y-40457380D02*
X125809285Y-40457380D01*
X126095000Y-40457380D02*
X126095000Y-39457380D01*
X125999761Y-39600238D01*
X125904523Y-39695476D01*
X125809285Y-39743095D01*
X124547380Y-30582857D02*
X124547380Y-29916190D01*
X125547380Y-30344761D01*
X124880714Y-29106666D02*
X125547380Y-29106666D01*
X124499761Y-29344761D02*
X125214047Y-29582857D01*
X125214047Y-28963809D01*
X125547380Y-28106666D02*
X125547380Y-28582857D01*
X124547380Y-28582857D01*
X125499761Y-27820952D02*
X125547380Y-27678095D01*
X125547380Y-27440000D01*
X125499761Y-27344761D01*
X125452142Y-27297142D01*
X125356904Y-27249523D01*
X125261666Y-27249523D01*
X125166428Y-27297142D01*
X125118809Y-27344761D01*
X125071190Y-27440000D01*
X125023571Y-27630476D01*
X124975952Y-27725714D01*
X124928333Y-27773333D01*
X124833095Y-27820952D01*
X124737857Y-27820952D01*
X124642619Y-27773333D01*
X124595000Y-27725714D01*
X124547380Y-27630476D01*
X124547380Y-27392380D01*
X124595000Y-27249523D01*
X124975952Y-26678095D02*
X124928333Y-26773333D01*
X124880714Y-26820952D01*
X124785476Y-26868571D01*
X124737857Y-26868571D01*
X124642619Y-26820952D01*
X124595000Y-26773333D01*
X124547380Y-26678095D01*
X124547380Y-26487619D01*
X124595000Y-26392380D01*
X124642619Y-26344761D01*
X124737857Y-26297142D01*
X124785476Y-26297142D01*
X124880714Y-26344761D01*
X124928333Y-26392380D01*
X124975952Y-26487619D01*
X124975952Y-26678095D01*
X125023571Y-26773333D01*
X125071190Y-26820952D01*
X125166428Y-26868571D01*
X125356904Y-26868571D01*
X125452142Y-26820952D01*
X125499761Y-26773333D01*
X125547380Y-26678095D01*
X125547380Y-26487619D01*
X125499761Y-26392380D01*
X125452142Y-26344761D01*
X125356904Y-26297142D01*
X125166428Y-26297142D01*
X125071190Y-26344761D01*
X125023571Y-26392380D01*
X124975952Y-26487619D01*
X124547380Y-25392380D02*
X124547380Y-25868571D01*
X125023571Y-25916190D01*
X124975952Y-25868571D01*
X124928333Y-25773333D01*
X124928333Y-25535238D01*
X124975952Y-25440000D01*
X125023571Y-25392380D01*
X125118809Y-25344761D01*
X125356904Y-25344761D01*
X125452142Y-25392380D01*
X125499761Y-25440000D01*
X125547380Y-25535238D01*
X125547380Y-25773333D01*
X125499761Y-25868571D01*
X125452142Y-25916190D01*
X176982380Y-54734166D02*
X176506190Y-55067500D01*
X176982380Y-55305595D02*
X175982380Y-55305595D01*
X175982380Y-54924642D01*
X176030000Y-54829404D01*
X176077619Y-54781785D01*
X176172857Y-54734166D01*
X176315714Y-54734166D01*
X176410952Y-54781785D01*
X176458571Y-54829404D01*
X176506190Y-54924642D01*
X176506190Y-55305595D01*
X176410952Y-54162738D02*
X176363333Y-54257976D01*
X176315714Y-54305595D01*
X176220476Y-54353214D01*
X176172857Y-54353214D01*
X176077619Y-54305595D01*
X176030000Y-54257976D01*
X175982380Y-54162738D01*
X175982380Y-53972261D01*
X176030000Y-53877023D01*
X176077619Y-53829404D01*
X176172857Y-53781785D01*
X176220476Y-53781785D01*
X176315714Y-53829404D01*
X176363333Y-53877023D01*
X176410952Y-53972261D01*
X176410952Y-54162738D01*
X176458571Y-54257976D01*
X176506190Y-54305595D01*
X176601428Y-54353214D01*
X176791904Y-54353214D01*
X176887142Y-54305595D01*
X176934761Y-54257976D01*
X176982380Y-54162738D01*
X176982380Y-53972261D01*
X176934761Y-53877023D01*
X176887142Y-53829404D01*
X176791904Y-53781785D01*
X176601428Y-53781785D01*
X176506190Y-53829404D01*
X176458571Y-53877023D01*
X176410952Y-53972261D01*
X176982380Y-50971785D02*
X176982380Y-51543214D01*
X176982380Y-51257500D02*
X175982380Y-51257500D01*
X176125238Y-51352738D01*
X176220476Y-51447976D01*
X176268095Y-51543214D01*
X176982380Y-50543214D02*
X175982380Y-50543214D01*
X176982380Y-49971785D02*
X176410952Y-50400357D01*
X175982380Y-49971785D02*
X176553809Y-50543214D01*
X132588095Y-149522380D02*
X132588095Y-150331904D01*
X132635714Y-150427142D01*
X132683333Y-150474761D01*
X132778571Y-150522380D01*
X132969047Y-150522380D01*
X133064285Y-150474761D01*
X133111904Y-150427142D01*
X133159523Y-150331904D01*
X133159523Y-149522380D01*
X134159523Y-150522380D02*
X133588095Y-150522380D01*
X133873809Y-150522380D02*
X133873809Y-149522380D01*
X133778571Y-149665238D01*
X133683333Y-149760476D01*
X133588095Y-149808095D01*
X142867142Y-64587380D02*
X142533809Y-64111190D01*
X142295714Y-64587380D02*
X142295714Y-63587380D01*
X142676666Y-63587380D01*
X142771904Y-63635000D01*
X142819523Y-63682619D01*
X142867142Y-63777857D01*
X142867142Y-63920714D01*
X142819523Y-64015952D01*
X142771904Y-64063571D01*
X142676666Y-64111190D01*
X142295714Y-64111190D01*
X143819523Y-64587380D02*
X143248095Y-64587380D01*
X143533809Y-64587380D02*
X143533809Y-63587380D01*
X143438571Y-63730238D01*
X143343333Y-63825476D01*
X143248095Y-63873095D01*
X144771904Y-64587380D02*
X144200476Y-64587380D01*
X144486190Y-64587380D02*
X144486190Y-63587380D01*
X144390952Y-63730238D01*
X144295714Y-63825476D01*
X144200476Y-63873095D01*
X139485714Y-64587380D02*
X138914285Y-64587380D01*
X139200000Y-64587380D02*
X139200000Y-63587380D01*
X139104761Y-63730238D01*
X139009523Y-63825476D01*
X138914285Y-63873095D01*
X139914285Y-64587380D02*
X139914285Y-63587380D01*
X140485714Y-64587380D02*
X140057142Y-64015952D01*
X140485714Y-63587380D02*
X139914285Y-64158809D01*
X179568095Y-40092380D02*
X179568095Y-40901904D01*
X179615714Y-40997142D01*
X179663333Y-41044761D01*
X179758571Y-41092380D01*
X179949047Y-41092380D01*
X180044285Y-41044761D01*
X180091904Y-40997142D01*
X180139523Y-40901904D01*
X180139523Y-40092380D01*
X181044285Y-40092380D02*
X180853809Y-40092380D01*
X180758571Y-40140000D01*
X180710952Y-40187619D01*
X180615714Y-40330476D01*
X180568095Y-40520952D01*
X180568095Y-40901904D01*
X180615714Y-40997142D01*
X180663333Y-41044761D01*
X180758571Y-41092380D01*
X180949047Y-41092380D01*
X181044285Y-41044761D01*
X181091904Y-40997142D01*
X181139523Y-40901904D01*
X181139523Y-40663809D01*
X181091904Y-40568571D01*
X181044285Y-40520952D01*
X180949047Y-40473333D01*
X180758571Y-40473333D01*
X180663333Y-40520952D01*
X180615714Y-40568571D01*
X180568095Y-40663809D01*
X179782380Y-30582857D02*
X179782380Y-29916190D01*
X180782380Y-30344761D01*
X180115714Y-29106666D02*
X180782380Y-29106666D01*
X179734761Y-29344761D02*
X180449047Y-29582857D01*
X180449047Y-28963809D01*
X180782380Y-28106666D02*
X180782380Y-28582857D01*
X179782380Y-28582857D01*
X180734761Y-27820952D02*
X180782380Y-27678095D01*
X180782380Y-27440000D01*
X180734761Y-27344761D01*
X180687142Y-27297142D01*
X180591904Y-27249523D01*
X180496666Y-27249523D01*
X180401428Y-27297142D01*
X180353809Y-27344761D01*
X180306190Y-27440000D01*
X180258571Y-27630476D01*
X180210952Y-27725714D01*
X180163333Y-27773333D01*
X180068095Y-27820952D01*
X179972857Y-27820952D01*
X179877619Y-27773333D01*
X179830000Y-27725714D01*
X179782380Y-27630476D01*
X179782380Y-27392380D01*
X179830000Y-27249523D01*
X179782380Y-26344761D02*
X179782380Y-26820952D01*
X180258571Y-26868571D01*
X180210952Y-26820952D01*
X180163333Y-26725714D01*
X180163333Y-26487619D01*
X180210952Y-26392380D01*
X180258571Y-26344761D01*
X180353809Y-26297142D01*
X180591904Y-26297142D01*
X180687142Y-26344761D01*
X180734761Y-26392380D01*
X180782380Y-26487619D01*
X180782380Y-26725714D01*
X180734761Y-26820952D01*
X180687142Y-26868571D01*
X180782380Y-25344761D02*
X180782380Y-25916190D01*
X180782380Y-25630476D02*
X179782380Y-25630476D01*
X179925238Y-25725714D01*
X180020476Y-25820952D01*
X180068095Y-25916190D01*
X122642380Y-79343095D02*
X123451904Y-79343095D01*
X123547142Y-79295476D01*
X123594761Y-79247857D01*
X123642380Y-79152619D01*
X123642380Y-78962142D01*
X123594761Y-78866904D01*
X123547142Y-78819285D01*
X123451904Y-78771666D01*
X122642380Y-78771666D01*
X122737619Y-78343095D02*
X122690000Y-78295476D01*
X122642380Y-78200238D01*
X122642380Y-77962142D01*
X122690000Y-77866904D01*
X122737619Y-77819285D01*
X122832857Y-77771666D01*
X122928095Y-77771666D01*
X123070952Y-77819285D01*
X123642380Y-78390714D01*
X123642380Y-77771666D01*
X122642380Y-77438333D02*
X122642380Y-76819285D01*
X123023333Y-77152619D01*
X123023333Y-77009761D01*
X123070952Y-76914523D01*
X123118571Y-76866904D01*
X123213809Y-76819285D01*
X123451904Y-76819285D01*
X123547142Y-76866904D01*
X123594761Y-76914523D01*
X123642380Y-77009761D01*
X123642380Y-77295476D01*
X123594761Y-77390714D01*
X123547142Y-77438333D01*
X112107142Y-147506666D02*
X112154761Y-147554285D01*
X112202380Y-147697142D01*
X112202380Y-147792380D01*
X112154761Y-147935238D01*
X112059523Y-148030476D01*
X111964285Y-148078095D01*
X111773809Y-148125714D01*
X111630952Y-148125714D01*
X111440476Y-148078095D01*
X111345238Y-148030476D01*
X111250000Y-147935238D01*
X111202380Y-147792380D01*
X111202380Y-147697142D01*
X111250000Y-147554285D01*
X111297619Y-147506666D01*
X112202380Y-146554285D02*
X112202380Y-147125714D01*
X112202380Y-146840000D02*
X111202380Y-146840000D01*
X111345238Y-146935238D01*
X111440476Y-147030476D01*
X111488095Y-147125714D01*
X109212142Y-64587380D02*
X108878809Y-64111190D01*
X108640714Y-64587380D02*
X108640714Y-63587380D01*
X109021666Y-63587380D01*
X109116904Y-63635000D01*
X109164523Y-63682619D01*
X109212142Y-63777857D01*
X109212142Y-63920714D01*
X109164523Y-64015952D01*
X109116904Y-64063571D01*
X109021666Y-64111190D01*
X108640714Y-64111190D01*
X110164523Y-64587380D02*
X109593095Y-64587380D01*
X109878809Y-64587380D02*
X109878809Y-63587380D01*
X109783571Y-63730238D01*
X109688333Y-63825476D01*
X109593095Y-63873095D01*
X110640714Y-64587380D02*
X110831190Y-64587380D01*
X110926428Y-64539761D01*
X110974047Y-64492142D01*
X111069285Y-64349285D01*
X111116904Y-64158809D01*
X111116904Y-63777857D01*
X111069285Y-63682619D01*
X111021666Y-63635000D01*
X110926428Y-63587380D01*
X110735952Y-63587380D01*
X110640714Y-63635000D01*
X110593095Y-63682619D01*
X110545476Y-63777857D01*
X110545476Y-64015952D01*
X110593095Y-64111190D01*
X110640714Y-64158809D01*
X110735952Y-64206428D01*
X110926428Y-64206428D01*
X111021666Y-64158809D01*
X111069285Y-64111190D01*
X111116904Y-64015952D01*
X105830714Y-64587380D02*
X105259285Y-64587380D01*
X105545000Y-64587380D02*
X105545000Y-63587380D01*
X105449761Y-63730238D01*
X105354523Y-63825476D01*
X105259285Y-63873095D01*
X106259285Y-64587380D02*
X106259285Y-63587380D01*
X106830714Y-64587380D02*
X106402142Y-64015952D01*
X106830714Y-63587380D02*
X106259285Y-64158809D01*
X142867142Y-67127380D02*
X142533809Y-66651190D01*
X142295714Y-67127380D02*
X142295714Y-66127380D01*
X142676666Y-66127380D01*
X142771904Y-66175000D01*
X142819523Y-66222619D01*
X142867142Y-66317857D01*
X142867142Y-66460714D01*
X142819523Y-66555952D01*
X142771904Y-66603571D01*
X142676666Y-66651190D01*
X142295714Y-66651190D01*
X143819523Y-67127380D02*
X143248095Y-67127380D01*
X143533809Y-67127380D02*
X143533809Y-66127380D01*
X143438571Y-66270238D01*
X143343333Y-66365476D01*
X143248095Y-66413095D01*
X144200476Y-66222619D02*
X144248095Y-66175000D01*
X144343333Y-66127380D01*
X144581428Y-66127380D01*
X144676666Y-66175000D01*
X144724285Y-66222619D01*
X144771904Y-66317857D01*
X144771904Y-66413095D01*
X144724285Y-66555952D01*
X144152857Y-67127380D01*
X144771904Y-67127380D01*
X139485714Y-67127380D02*
X138914285Y-67127380D01*
X139200000Y-67127380D02*
X139200000Y-66127380D01*
X139104761Y-66270238D01*
X139009523Y-66365476D01*
X138914285Y-66413095D01*
X139914285Y-67127380D02*
X139914285Y-66127380D01*
X140485714Y-67127380D02*
X140057142Y-66555952D01*
X140485714Y-66127380D02*
X139914285Y-66698809D01*
X58412142Y-112752142D02*
X58364523Y-112799761D01*
X58221666Y-112847380D01*
X58126428Y-112847380D01*
X57983571Y-112799761D01*
X57888333Y-112704523D01*
X57840714Y-112609285D01*
X57793095Y-112418809D01*
X57793095Y-112275952D01*
X57840714Y-112085476D01*
X57888333Y-111990238D01*
X57983571Y-111895000D01*
X58126428Y-111847380D01*
X58221666Y-111847380D01*
X58364523Y-111895000D01*
X58412142Y-111942619D01*
X59364523Y-112847380D02*
X58793095Y-112847380D01*
X59078809Y-112847380D02*
X59078809Y-111847380D01*
X58983571Y-111990238D01*
X58888333Y-112085476D01*
X58793095Y-112133095D01*
X59697857Y-111847380D02*
X60316904Y-111847380D01*
X59983571Y-112228333D01*
X60126428Y-112228333D01*
X60221666Y-112275952D01*
X60269285Y-112323571D01*
X60316904Y-112418809D01*
X60316904Y-112656904D01*
X60269285Y-112752142D01*
X60221666Y-112799761D01*
X60126428Y-112847380D01*
X59840714Y-112847380D01*
X59745476Y-112799761D01*
X59697857Y-112752142D01*
X88566666Y-182992380D02*
X88566666Y-183706666D01*
X88519047Y-183849523D01*
X88423809Y-183944761D01*
X88280952Y-183992380D01*
X88185714Y-183992380D01*
X89566666Y-183992380D02*
X88995238Y-183992380D01*
X89280952Y-183992380D02*
X89280952Y-182992380D01*
X89185714Y-183135238D01*
X89090476Y-183230476D01*
X88995238Y-183278095D01*
X122642380Y-102203095D02*
X123451904Y-102203095D01*
X123547142Y-102155476D01*
X123594761Y-102107857D01*
X123642380Y-102012619D01*
X123642380Y-101822142D01*
X123594761Y-101726904D01*
X123547142Y-101679285D01*
X123451904Y-101631666D01*
X122642380Y-101631666D01*
X123642380Y-100631666D02*
X123642380Y-101203095D01*
X123642380Y-100917380D02*
X122642380Y-100917380D01*
X122785238Y-101012619D01*
X122880476Y-101107857D01*
X122928095Y-101203095D01*
X123642380Y-100155476D02*
X123642380Y-99965000D01*
X123594761Y-99869761D01*
X123547142Y-99822142D01*
X123404285Y-99726904D01*
X123213809Y-99679285D01*
X122832857Y-99679285D01*
X122737619Y-99726904D01*
X122690000Y-99774523D01*
X122642380Y-99869761D01*
X122642380Y-100060238D01*
X122690000Y-100155476D01*
X122737619Y-100203095D01*
X122832857Y-100250714D01*
X123070952Y-100250714D01*
X123166190Y-100203095D01*
X123213809Y-100155476D01*
X123261428Y-100060238D01*
X123261428Y-99869761D01*
X123213809Y-99774523D01*
X123166190Y-99726904D01*
X123070952Y-99679285D01*
X177157142Y-89892142D02*
X177109523Y-89939761D01*
X176966666Y-89987380D01*
X176871428Y-89987380D01*
X176728571Y-89939761D01*
X176633333Y-89844523D01*
X176585714Y-89749285D01*
X176538095Y-89558809D01*
X176538095Y-89415952D01*
X176585714Y-89225476D01*
X176633333Y-89130238D01*
X176728571Y-89035000D01*
X176871428Y-88987380D01*
X176966666Y-88987380D01*
X177109523Y-89035000D01*
X177157142Y-89082619D01*
X178109523Y-89987380D02*
X177538095Y-89987380D01*
X177823809Y-89987380D02*
X177823809Y-88987380D01*
X177728571Y-89130238D01*
X177633333Y-89225476D01*
X177538095Y-89273095D01*
X178728571Y-88987380D02*
X178823809Y-88987380D01*
X178919047Y-89035000D01*
X178966666Y-89082619D01*
X179014285Y-89177857D01*
X179061904Y-89368333D01*
X179061904Y-89606428D01*
X179014285Y-89796904D01*
X178966666Y-89892142D01*
X178919047Y-89939761D01*
X178823809Y-89987380D01*
X178728571Y-89987380D01*
X178633333Y-89939761D01*
X178585714Y-89892142D01*
X178538095Y-89796904D01*
X178490476Y-89606428D01*
X178490476Y-89368333D01*
X178538095Y-89177857D01*
X178585714Y-89082619D01*
X178633333Y-89035000D01*
X178728571Y-88987380D01*
X88987380Y-102203095D02*
X89796904Y-102203095D01*
X89892142Y-102155476D01*
X89939761Y-102107857D01*
X89987380Y-102012619D01*
X89987380Y-101822142D01*
X89939761Y-101726904D01*
X89892142Y-101679285D01*
X89796904Y-101631666D01*
X88987380Y-101631666D01*
X89082619Y-101203095D02*
X89035000Y-101155476D01*
X88987380Y-101060238D01*
X88987380Y-100822142D01*
X89035000Y-100726904D01*
X89082619Y-100679285D01*
X89177857Y-100631666D01*
X89273095Y-100631666D01*
X89415952Y-100679285D01*
X89987380Y-101250714D01*
X89987380Y-100631666D01*
X88987380Y-100012619D02*
X88987380Y-99917380D01*
X89035000Y-99822142D01*
X89082619Y-99774523D01*
X89177857Y-99726904D01*
X89368333Y-99679285D01*
X89606428Y-99679285D01*
X89796904Y-99726904D01*
X89892142Y-99774523D01*
X89939761Y-99822142D01*
X89987380Y-99917380D01*
X89987380Y-100012619D01*
X89939761Y-100107857D01*
X89892142Y-100155476D01*
X89796904Y-100203095D01*
X89606428Y-100250714D01*
X89368333Y-100250714D01*
X89177857Y-100203095D01*
X89082619Y-100155476D01*
X89035000Y-100107857D01*
X88987380Y-100012619D01*
X145923095Y-39457380D02*
X145923095Y-40266904D01*
X145970714Y-40362142D01*
X146018333Y-40409761D01*
X146113571Y-40457380D01*
X146304047Y-40457380D01*
X146399285Y-40409761D01*
X146446904Y-40362142D01*
X146494523Y-40266904D01*
X146494523Y-39457380D01*
X147018333Y-40457380D02*
X147208809Y-40457380D01*
X147304047Y-40409761D01*
X147351666Y-40362142D01*
X147446904Y-40219285D01*
X147494523Y-40028809D01*
X147494523Y-39647857D01*
X147446904Y-39552619D01*
X147399285Y-39505000D01*
X147304047Y-39457380D01*
X147113571Y-39457380D01*
X147018333Y-39505000D01*
X146970714Y-39552619D01*
X146923095Y-39647857D01*
X146923095Y-39885952D01*
X146970714Y-39981190D01*
X147018333Y-40028809D01*
X147113571Y-40076428D01*
X147304047Y-40076428D01*
X147399285Y-40028809D01*
X147446904Y-39981190D01*
X147494523Y-39885952D01*
X146137380Y-30582857D02*
X146137380Y-29916190D01*
X147137380Y-30344761D01*
X146470714Y-29106666D02*
X147137380Y-29106666D01*
X146089761Y-29344761D02*
X146804047Y-29582857D01*
X146804047Y-28963809D01*
X147137380Y-28106666D02*
X147137380Y-28582857D01*
X146137380Y-28582857D01*
X147089761Y-27820952D02*
X147137380Y-27678095D01*
X147137380Y-27440000D01*
X147089761Y-27344761D01*
X147042142Y-27297142D01*
X146946904Y-27249523D01*
X146851666Y-27249523D01*
X146756428Y-27297142D01*
X146708809Y-27344761D01*
X146661190Y-27440000D01*
X146613571Y-27630476D01*
X146565952Y-27725714D01*
X146518333Y-27773333D01*
X146423095Y-27820952D01*
X146327857Y-27820952D01*
X146232619Y-27773333D01*
X146185000Y-27725714D01*
X146137380Y-27630476D01*
X146137380Y-27392380D01*
X146185000Y-27249523D01*
X146137380Y-26344761D02*
X146137380Y-26820952D01*
X146613571Y-26868571D01*
X146565952Y-26820952D01*
X146518333Y-26725714D01*
X146518333Y-26487619D01*
X146565952Y-26392380D01*
X146613571Y-26344761D01*
X146708809Y-26297142D01*
X146946904Y-26297142D01*
X147042142Y-26344761D01*
X147089761Y-26392380D01*
X147137380Y-26487619D01*
X147137380Y-26725714D01*
X147089761Y-26820952D01*
X147042142Y-26868571D01*
X147137380Y-25344761D02*
X147137380Y-25916190D01*
X147137380Y-25630476D02*
X146137380Y-25630476D01*
X146280238Y-25725714D01*
X146375476Y-25820952D01*
X146423095Y-25916190D01*
X112107142Y-120836666D02*
X112154761Y-120884285D01*
X112202380Y-121027142D01*
X112202380Y-121122380D01*
X112154761Y-121265238D01*
X112059523Y-121360476D01*
X111964285Y-121408095D01*
X111773809Y-121455714D01*
X111630952Y-121455714D01*
X111440476Y-121408095D01*
X111345238Y-121360476D01*
X111250000Y-121265238D01*
X111202380Y-121122380D01*
X111202380Y-121027142D01*
X111250000Y-120884285D01*
X111297619Y-120836666D01*
X112202380Y-120360476D02*
X112202380Y-120170000D01*
X112154761Y-120074761D01*
X112107142Y-120027142D01*
X111964285Y-119931904D01*
X111773809Y-119884285D01*
X111392857Y-119884285D01*
X111297619Y-119931904D01*
X111250000Y-119979523D01*
X111202380Y-120074761D01*
X111202380Y-120265238D01*
X111250000Y-120360476D01*
X111297619Y-120408095D01*
X111392857Y-120455714D01*
X111630952Y-120455714D01*
X111726190Y-120408095D01*
X111773809Y-120360476D01*
X111821428Y-120265238D01*
X111821428Y-120074761D01*
X111773809Y-119979523D01*
X111726190Y-119931904D01*
X111630952Y-119884285D01*
X157948333Y-64587380D02*
X157615000Y-64111190D01*
X157376904Y-64587380D02*
X157376904Y-63587380D01*
X157757857Y-63587380D01*
X157853095Y-63635000D01*
X157900714Y-63682619D01*
X157948333Y-63777857D01*
X157948333Y-63920714D01*
X157900714Y-64015952D01*
X157853095Y-64063571D01*
X157757857Y-64111190D01*
X157376904Y-64111190D01*
X158853095Y-63587380D02*
X158376904Y-63587380D01*
X158329285Y-64063571D01*
X158376904Y-64015952D01*
X158472142Y-63968333D01*
X158710238Y-63968333D01*
X158805476Y-64015952D01*
X158853095Y-64063571D01*
X158900714Y-64158809D01*
X158900714Y-64396904D01*
X158853095Y-64492142D01*
X158805476Y-64539761D01*
X158710238Y-64587380D01*
X158472142Y-64587380D01*
X158376904Y-64539761D01*
X158329285Y-64492142D01*
X161710714Y-64587380D02*
X161139285Y-64587380D01*
X161425000Y-64587380D02*
X161425000Y-63587380D01*
X161329761Y-63730238D01*
X161234523Y-63825476D01*
X161139285Y-63873095D01*
X162139285Y-64587380D02*
X162139285Y-63587380D01*
X162710714Y-64587380D02*
X162282142Y-64015952D01*
X162710714Y-63587380D02*
X162139285Y-64158809D01*
X150947380Y-50966666D02*
X150471190Y-51300000D01*
X150947380Y-51538095D02*
X149947380Y-51538095D01*
X149947380Y-51157142D01*
X149995000Y-51061904D01*
X150042619Y-51014285D01*
X150137857Y-50966666D01*
X150280714Y-50966666D01*
X150375952Y-51014285D01*
X150423571Y-51061904D01*
X150471190Y-51157142D01*
X150471190Y-51538095D01*
X150947380Y-50490476D02*
X150947380Y-50300000D01*
X150899761Y-50204761D01*
X150852142Y-50157142D01*
X150709285Y-50061904D01*
X150518809Y-50014285D01*
X150137857Y-50014285D01*
X150042619Y-50061904D01*
X149995000Y-50109523D01*
X149947380Y-50204761D01*
X149947380Y-50395238D01*
X149995000Y-50490476D01*
X150042619Y-50538095D01*
X150137857Y-50585714D01*
X150375952Y-50585714D01*
X150471190Y-50538095D01*
X150518809Y-50490476D01*
X150566428Y-50395238D01*
X150566428Y-50204761D01*
X150518809Y-50109523D01*
X150471190Y-50061904D01*
X150375952Y-50014285D01*
X150947380Y-54824285D02*
X150947380Y-55395714D01*
X150947380Y-55110000D02*
X149947380Y-55110000D01*
X150090238Y-55205238D01*
X150185476Y-55300476D01*
X150233095Y-55395714D01*
X150947380Y-54395714D02*
X149947380Y-54395714D01*
X150947380Y-53824285D02*
X150375952Y-54252857D01*
X149947380Y-53824285D02*
X150518809Y-54395714D01*
X66508333Y-45282142D02*
X66460714Y-45329761D01*
X66317857Y-45377380D01*
X66222619Y-45377380D01*
X66079761Y-45329761D01*
X65984523Y-45234523D01*
X65936904Y-45139285D01*
X65889285Y-44948809D01*
X65889285Y-44805952D01*
X65936904Y-44615476D01*
X65984523Y-44520238D01*
X66079761Y-44425000D01*
X66222619Y-44377380D01*
X66317857Y-44377380D01*
X66460714Y-44425000D01*
X66508333Y-44472619D01*
X67079761Y-44805952D02*
X66984523Y-44758333D01*
X66936904Y-44710714D01*
X66889285Y-44615476D01*
X66889285Y-44567857D01*
X66936904Y-44472619D01*
X66984523Y-44425000D01*
X67079761Y-44377380D01*
X67270238Y-44377380D01*
X67365476Y-44425000D01*
X67413095Y-44472619D01*
X67460714Y-44567857D01*
X67460714Y-44615476D01*
X67413095Y-44710714D01*
X67365476Y-44758333D01*
X67270238Y-44805952D01*
X67079761Y-44805952D01*
X66984523Y-44853571D01*
X66936904Y-44901190D01*
X66889285Y-44996428D01*
X66889285Y-45186904D01*
X66936904Y-45282142D01*
X66984523Y-45329761D01*
X67079761Y-45377380D01*
X67270238Y-45377380D01*
X67365476Y-45329761D01*
X67413095Y-45282142D01*
X67460714Y-45186904D01*
X67460714Y-44996428D01*
X67413095Y-44901190D01*
X67365476Y-44853571D01*
X67270238Y-44805952D01*
X76017380Y-51442857D02*
X75541190Y-51776190D01*
X76017380Y-52014285D02*
X75017380Y-52014285D01*
X75017380Y-51633333D01*
X75065000Y-51538095D01*
X75112619Y-51490476D01*
X75207857Y-51442857D01*
X75350714Y-51442857D01*
X75445952Y-51490476D01*
X75493571Y-51538095D01*
X75541190Y-51633333D01*
X75541190Y-52014285D01*
X75017380Y-51109523D02*
X75017380Y-50490476D01*
X75398333Y-50823809D01*
X75398333Y-50680952D01*
X75445952Y-50585714D01*
X75493571Y-50538095D01*
X75588809Y-50490476D01*
X75826904Y-50490476D01*
X75922142Y-50538095D01*
X75969761Y-50585714D01*
X76017380Y-50680952D01*
X76017380Y-50966666D01*
X75969761Y-51061904D01*
X75922142Y-51109523D01*
X75112619Y-50109523D02*
X75065000Y-50061904D01*
X75017380Y-49966666D01*
X75017380Y-49728571D01*
X75065000Y-49633333D01*
X75112619Y-49585714D01*
X75207857Y-49538095D01*
X75303095Y-49538095D01*
X75445952Y-49585714D01*
X76017380Y-50157142D01*
X76017380Y-49538095D01*
X76017380Y-54824285D02*
X76017380Y-55395714D01*
X76017380Y-55110000D02*
X75017380Y-55110000D01*
X75160238Y-55205238D01*
X75255476Y-55300476D01*
X75303095Y-55395714D01*
X76017380Y-54395714D02*
X75017380Y-54395714D01*
X76017380Y-53824285D02*
X75445952Y-54252857D01*
X75017380Y-53824285D02*
X75588809Y-54395714D01*
X75557142Y-64587380D02*
X75223809Y-64111190D01*
X74985714Y-64587380D02*
X74985714Y-63587380D01*
X75366666Y-63587380D01*
X75461904Y-63635000D01*
X75509523Y-63682619D01*
X75557142Y-63777857D01*
X75557142Y-63920714D01*
X75509523Y-64015952D01*
X75461904Y-64063571D01*
X75366666Y-64111190D01*
X74985714Y-64111190D01*
X75938095Y-63682619D02*
X75985714Y-63635000D01*
X76080952Y-63587380D01*
X76319047Y-63587380D01*
X76414285Y-63635000D01*
X76461904Y-63682619D01*
X76509523Y-63777857D01*
X76509523Y-63873095D01*
X76461904Y-64015952D01*
X75890476Y-64587380D01*
X76509523Y-64587380D01*
X76842857Y-63587380D02*
X77509523Y-63587380D01*
X77080952Y-64587380D01*
X72175714Y-64587380D02*
X71604285Y-64587380D01*
X71890000Y-64587380D02*
X71890000Y-63587380D01*
X71794761Y-63730238D01*
X71699523Y-63825476D01*
X71604285Y-63873095D01*
X72604285Y-64587380D02*
X72604285Y-63587380D01*
X73175714Y-64587380D02*
X72747142Y-64015952D01*
X73175714Y-63587380D02*
X72604285Y-64158809D01*
X112212380Y-51442857D02*
X111736190Y-51776190D01*
X112212380Y-52014285D02*
X111212380Y-52014285D01*
X111212380Y-51633333D01*
X111260000Y-51538095D01*
X111307619Y-51490476D01*
X111402857Y-51442857D01*
X111545714Y-51442857D01*
X111640952Y-51490476D01*
X111688571Y-51538095D01*
X111736190Y-51633333D01*
X111736190Y-52014285D01*
X111307619Y-51061904D02*
X111260000Y-51014285D01*
X111212380Y-50919047D01*
X111212380Y-50680952D01*
X111260000Y-50585714D01*
X111307619Y-50538095D01*
X111402857Y-50490476D01*
X111498095Y-50490476D01*
X111640952Y-50538095D01*
X112212380Y-51109523D01*
X112212380Y-50490476D01*
X111212380Y-50157142D02*
X111212380Y-49538095D01*
X111593333Y-49871428D01*
X111593333Y-49728571D01*
X111640952Y-49633333D01*
X111688571Y-49585714D01*
X111783809Y-49538095D01*
X112021904Y-49538095D01*
X112117142Y-49585714D01*
X112164761Y-49633333D01*
X112212380Y-49728571D01*
X112212380Y-50014285D01*
X112164761Y-50109523D01*
X112117142Y-50157142D01*
X112212380Y-54824285D02*
X112212380Y-55395714D01*
X112212380Y-55110000D02*
X111212380Y-55110000D01*
X111355238Y-55205238D01*
X111450476Y-55300476D01*
X111498095Y-55395714D01*
X112212380Y-54395714D02*
X111212380Y-54395714D01*
X112212380Y-53824285D02*
X111640952Y-54252857D01*
X111212380Y-53824285D02*
X111783809Y-54395714D01*
X56507142Y-64687380D02*
X56173809Y-64211190D01*
X55935714Y-64687380D02*
X55935714Y-63687380D01*
X56316666Y-63687380D01*
X56411904Y-63735000D01*
X56459523Y-63782619D01*
X56507142Y-63877857D01*
X56507142Y-64020714D01*
X56459523Y-64115952D01*
X56411904Y-64163571D01*
X56316666Y-64211190D01*
X55935714Y-64211190D01*
X56888095Y-63782619D02*
X56935714Y-63735000D01*
X57030952Y-63687380D01*
X57269047Y-63687380D01*
X57364285Y-63735000D01*
X57411904Y-63782619D01*
X57459523Y-63877857D01*
X57459523Y-63973095D01*
X57411904Y-64115952D01*
X56840476Y-64687380D01*
X57459523Y-64687380D01*
X57935714Y-64687380D02*
X58126190Y-64687380D01*
X58221428Y-64639761D01*
X58269047Y-64592142D01*
X58364285Y-64449285D01*
X58411904Y-64258809D01*
X58411904Y-63877857D01*
X58364285Y-63782619D01*
X58316666Y-63735000D01*
X58221428Y-63687380D01*
X58030952Y-63687380D01*
X57935714Y-63735000D01*
X57888095Y-63782619D01*
X57840476Y-63877857D01*
X57840476Y-64115952D01*
X57888095Y-64211190D01*
X57935714Y-64258809D01*
X58030952Y-64306428D01*
X58221428Y-64306428D01*
X58316666Y-64258809D01*
X58364285Y-64211190D01*
X58411904Y-64115952D01*
X60745714Y-64587380D02*
X60174285Y-64587380D01*
X60460000Y-64587380D02*
X60460000Y-63587380D01*
X60364761Y-63730238D01*
X60269523Y-63825476D01*
X60174285Y-63873095D01*
X61174285Y-64587380D02*
X61174285Y-63587380D01*
X61745714Y-64587380D02*
X61317142Y-64015952D01*
X61745714Y-63587380D02*
X61174285Y-64158809D01*
X107783333Y-45282142D02*
X107735714Y-45329761D01*
X107592857Y-45377380D01*
X107497619Y-45377380D01*
X107354761Y-45329761D01*
X107259523Y-45234523D01*
X107211904Y-45139285D01*
X107164285Y-44948809D01*
X107164285Y-44805952D01*
X107211904Y-44615476D01*
X107259523Y-44520238D01*
X107354761Y-44425000D01*
X107497619Y-44377380D01*
X107592857Y-44377380D01*
X107735714Y-44425000D01*
X107783333Y-44472619D01*
X108640476Y-44377380D02*
X108450000Y-44377380D01*
X108354761Y-44425000D01*
X108307142Y-44472619D01*
X108211904Y-44615476D01*
X108164285Y-44805952D01*
X108164285Y-45186904D01*
X108211904Y-45282142D01*
X108259523Y-45329761D01*
X108354761Y-45377380D01*
X108545238Y-45377380D01*
X108640476Y-45329761D01*
X108688095Y-45282142D01*
X108735714Y-45186904D01*
X108735714Y-44948809D01*
X108688095Y-44853571D01*
X108640476Y-44805952D01*
X108545238Y-44758333D01*
X108354761Y-44758333D01*
X108259523Y-44805952D01*
X108211904Y-44853571D01*
X108164285Y-44948809D01*
X78136904Y-39457380D02*
X78136904Y-40266904D01*
X78184523Y-40362142D01*
X78232142Y-40409761D01*
X78327380Y-40457380D01*
X78517857Y-40457380D01*
X78613095Y-40409761D01*
X78660714Y-40362142D01*
X78708333Y-40266904D01*
X78708333Y-39457380D01*
X79708333Y-40457380D02*
X79136904Y-40457380D01*
X79422619Y-40457380D02*
X79422619Y-39457380D01*
X79327380Y-39600238D01*
X79232142Y-39695476D01*
X79136904Y-39743095D01*
X80613095Y-39457380D02*
X80136904Y-39457380D01*
X80089285Y-39933571D01*
X80136904Y-39885952D01*
X80232142Y-39838333D01*
X80470238Y-39838333D01*
X80565476Y-39885952D01*
X80613095Y-39933571D01*
X80660714Y-40028809D01*
X80660714Y-40266904D01*
X80613095Y-40362142D01*
X80565476Y-40409761D01*
X80470238Y-40457380D01*
X80232142Y-40457380D01*
X80136904Y-40409761D01*
X80089285Y-40362142D01*
X78827380Y-30582857D02*
X78827380Y-29916190D01*
X79827380Y-30344761D01*
X79160714Y-29106666D02*
X79827380Y-29106666D01*
X78779761Y-29344761D02*
X79494047Y-29582857D01*
X79494047Y-28963809D01*
X79827380Y-28106666D02*
X79827380Y-28582857D01*
X78827380Y-28582857D01*
X79779761Y-27820952D02*
X79827380Y-27678095D01*
X79827380Y-27440000D01*
X79779761Y-27344761D01*
X79732142Y-27297142D01*
X79636904Y-27249523D01*
X79541666Y-27249523D01*
X79446428Y-27297142D01*
X79398809Y-27344761D01*
X79351190Y-27440000D01*
X79303571Y-27630476D01*
X79255952Y-27725714D01*
X79208333Y-27773333D01*
X79113095Y-27820952D01*
X79017857Y-27820952D01*
X78922619Y-27773333D01*
X78875000Y-27725714D01*
X78827380Y-27630476D01*
X78827380Y-27392380D01*
X78875000Y-27249523D01*
X78827380Y-26344761D02*
X78827380Y-26820952D01*
X79303571Y-26868571D01*
X79255952Y-26820952D01*
X79208333Y-26725714D01*
X79208333Y-26487619D01*
X79255952Y-26392380D01*
X79303571Y-26344761D01*
X79398809Y-26297142D01*
X79636904Y-26297142D01*
X79732142Y-26344761D01*
X79779761Y-26392380D01*
X79827380Y-26487619D01*
X79827380Y-26725714D01*
X79779761Y-26820952D01*
X79732142Y-26868571D01*
X79827380Y-25344761D02*
X79827380Y-25916190D01*
X79827380Y-25630476D02*
X78827380Y-25630476D01*
X78970238Y-25725714D01*
X79065476Y-25820952D01*
X79113095Y-25916190D01*
X56546904Y-39457380D02*
X56546904Y-40266904D01*
X56594523Y-40362142D01*
X56642142Y-40409761D01*
X56737380Y-40457380D01*
X56927857Y-40457380D01*
X57023095Y-40409761D01*
X57070714Y-40362142D01*
X57118333Y-40266904D01*
X57118333Y-39457380D01*
X58118333Y-40457380D02*
X57546904Y-40457380D01*
X57832619Y-40457380D02*
X57832619Y-39457380D01*
X57737380Y-39600238D01*
X57642142Y-39695476D01*
X57546904Y-39743095D01*
X58451666Y-39457380D02*
X59118333Y-39457380D01*
X58689761Y-40457380D01*
X57237380Y-30582857D02*
X57237380Y-29916190D01*
X58237380Y-30344761D01*
X57570714Y-29106666D02*
X58237380Y-29106666D01*
X57189761Y-29344761D02*
X57904047Y-29582857D01*
X57904047Y-28963809D01*
X58237380Y-28106666D02*
X58237380Y-28582857D01*
X57237380Y-28582857D01*
X58189761Y-27820952D02*
X58237380Y-27678095D01*
X58237380Y-27440000D01*
X58189761Y-27344761D01*
X58142142Y-27297142D01*
X58046904Y-27249523D01*
X57951666Y-27249523D01*
X57856428Y-27297142D01*
X57808809Y-27344761D01*
X57761190Y-27440000D01*
X57713571Y-27630476D01*
X57665952Y-27725714D01*
X57618333Y-27773333D01*
X57523095Y-27820952D01*
X57427857Y-27820952D01*
X57332619Y-27773333D01*
X57285000Y-27725714D01*
X57237380Y-27630476D01*
X57237380Y-27392380D01*
X57285000Y-27249523D01*
X57665952Y-26678095D02*
X57618333Y-26773333D01*
X57570714Y-26820952D01*
X57475476Y-26868571D01*
X57427857Y-26868571D01*
X57332619Y-26820952D01*
X57285000Y-26773333D01*
X57237380Y-26678095D01*
X57237380Y-26487619D01*
X57285000Y-26392380D01*
X57332619Y-26344761D01*
X57427857Y-26297142D01*
X57475476Y-26297142D01*
X57570714Y-26344761D01*
X57618333Y-26392380D01*
X57665952Y-26487619D01*
X57665952Y-26678095D01*
X57713571Y-26773333D01*
X57761190Y-26820952D01*
X57856428Y-26868571D01*
X58046904Y-26868571D01*
X58142142Y-26820952D01*
X58189761Y-26773333D01*
X58237380Y-26678095D01*
X58237380Y-26487619D01*
X58189761Y-26392380D01*
X58142142Y-26344761D01*
X58046904Y-26297142D01*
X57856428Y-26297142D01*
X57761190Y-26344761D01*
X57713571Y-26392380D01*
X57665952Y-26487619D01*
X57237380Y-25392380D02*
X57237380Y-25868571D01*
X57713571Y-25916190D01*
X57665952Y-25868571D01*
X57618333Y-25773333D01*
X57618333Y-25535238D01*
X57665952Y-25440000D01*
X57713571Y-25392380D01*
X57808809Y-25344761D01*
X58046904Y-25344761D01*
X58142142Y-25392380D01*
X58189761Y-25440000D01*
X58237380Y-25535238D01*
X58237380Y-25773333D01*
X58189761Y-25868571D01*
X58142142Y-25916190D01*
X109728095Y-122852380D02*
X109728095Y-123661904D01*
X109775714Y-123757142D01*
X109823333Y-123804761D01*
X109918571Y-123852380D01*
X110109047Y-123852380D01*
X110204285Y-123804761D01*
X110251904Y-123757142D01*
X110299523Y-123661904D01*
X110299523Y-122852380D01*
X111251904Y-122852380D02*
X110775714Y-122852380D01*
X110728095Y-123328571D01*
X110775714Y-123280952D01*
X110870952Y-123233333D01*
X111109047Y-123233333D01*
X111204285Y-123280952D01*
X111251904Y-123328571D01*
X111299523Y-123423809D01*
X111299523Y-123661904D01*
X111251904Y-123757142D01*
X111204285Y-123804761D01*
X111109047Y-123852380D01*
X110870952Y-123852380D01*
X110775714Y-123804761D01*
X110728095Y-123757142D01*
X90201904Y-39457380D02*
X90201904Y-40266904D01*
X90249523Y-40362142D01*
X90297142Y-40409761D01*
X90392380Y-40457380D01*
X90582857Y-40457380D01*
X90678095Y-40409761D01*
X90725714Y-40362142D01*
X90773333Y-40266904D01*
X90773333Y-39457380D01*
X91773333Y-40457380D02*
X91201904Y-40457380D01*
X91487619Y-40457380D02*
X91487619Y-39457380D01*
X91392380Y-39600238D01*
X91297142Y-39695476D01*
X91201904Y-39743095D01*
X92630476Y-39790714D02*
X92630476Y-40457380D01*
X92392380Y-39409761D02*
X92154285Y-40124047D01*
X92773333Y-40124047D01*
X90892380Y-30582857D02*
X90892380Y-29916190D01*
X91892380Y-30344761D01*
X91225714Y-29106666D02*
X91892380Y-29106666D01*
X90844761Y-29344761D02*
X91559047Y-29582857D01*
X91559047Y-28963809D01*
X91892380Y-28106666D02*
X91892380Y-28582857D01*
X90892380Y-28582857D01*
X91844761Y-27820952D02*
X91892380Y-27678095D01*
X91892380Y-27440000D01*
X91844761Y-27344761D01*
X91797142Y-27297142D01*
X91701904Y-27249523D01*
X91606666Y-27249523D01*
X91511428Y-27297142D01*
X91463809Y-27344761D01*
X91416190Y-27440000D01*
X91368571Y-27630476D01*
X91320952Y-27725714D01*
X91273333Y-27773333D01*
X91178095Y-27820952D01*
X91082857Y-27820952D01*
X90987619Y-27773333D01*
X90940000Y-27725714D01*
X90892380Y-27630476D01*
X90892380Y-27392380D01*
X90940000Y-27249523D01*
X91320952Y-26678095D02*
X91273333Y-26773333D01*
X91225714Y-26820952D01*
X91130476Y-26868571D01*
X91082857Y-26868571D01*
X90987619Y-26820952D01*
X90940000Y-26773333D01*
X90892380Y-26678095D01*
X90892380Y-26487619D01*
X90940000Y-26392380D01*
X90987619Y-26344761D01*
X91082857Y-26297142D01*
X91130476Y-26297142D01*
X91225714Y-26344761D01*
X91273333Y-26392380D01*
X91320952Y-26487619D01*
X91320952Y-26678095D01*
X91368571Y-26773333D01*
X91416190Y-26820952D01*
X91511428Y-26868571D01*
X91701904Y-26868571D01*
X91797142Y-26820952D01*
X91844761Y-26773333D01*
X91892380Y-26678095D01*
X91892380Y-26487619D01*
X91844761Y-26392380D01*
X91797142Y-26344761D01*
X91701904Y-26297142D01*
X91511428Y-26297142D01*
X91416190Y-26344761D01*
X91368571Y-26392380D01*
X91320952Y-26487619D01*
X90892380Y-25392380D02*
X90892380Y-25868571D01*
X91368571Y-25916190D01*
X91320952Y-25868571D01*
X91273333Y-25773333D01*
X91273333Y-25535238D01*
X91320952Y-25440000D01*
X91368571Y-25392380D01*
X91463809Y-25344761D01*
X91701904Y-25344761D01*
X91797142Y-25392380D01*
X91844761Y-25440000D01*
X91892380Y-25535238D01*
X91892380Y-25773333D01*
X91844761Y-25868571D01*
X91797142Y-25916190D01*
X78557380Y-51442857D02*
X78081190Y-51776190D01*
X78557380Y-52014285D02*
X77557380Y-52014285D01*
X77557380Y-51633333D01*
X77605000Y-51538095D01*
X77652619Y-51490476D01*
X77747857Y-51442857D01*
X77890714Y-51442857D01*
X77985952Y-51490476D01*
X78033571Y-51538095D01*
X78081190Y-51633333D01*
X78081190Y-52014285D01*
X77557380Y-51109523D02*
X77557380Y-50490476D01*
X77938333Y-50823809D01*
X77938333Y-50680952D01*
X77985952Y-50585714D01*
X78033571Y-50538095D01*
X78128809Y-50490476D01*
X78366904Y-50490476D01*
X78462142Y-50538095D01*
X78509761Y-50585714D01*
X78557380Y-50680952D01*
X78557380Y-50966666D01*
X78509761Y-51061904D01*
X78462142Y-51109523D01*
X78557380Y-49538095D02*
X78557380Y-50109523D01*
X78557380Y-49823809D02*
X77557380Y-49823809D01*
X77700238Y-49919047D01*
X77795476Y-50014285D01*
X77843095Y-50109523D01*
X78557380Y-54824285D02*
X78557380Y-55395714D01*
X78557380Y-55110000D02*
X77557380Y-55110000D01*
X77700238Y-55205238D01*
X77795476Y-55300476D01*
X77843095Y-55395714D01*
X78557380Y-54395714D02*
X77557380Y-54395714D01*
X78557380Y-53824285D02*
X77985952Y-54252857D01*
X77557380Y-53824285D02*
X78128809Y-54395714D01*
X123817142Y-64587380D02*
X123483809Y-64111190D01*
X123245714Y-64587380D02*
X123245714Y-63587380D01*
X123626666Y-63587380D01*
X123721904Y-63635000D01*
X123769523Y-63682619D01*
X123817142Y-63777857D01*
X123817142Y-63920714D01*
X123769523Y-64015952D01*
X123721904Y-64063571D01*
X123626666Y-64111190D01*
X123245714Y-64111190D01*
X124769523Y-64587380D02*
X124198095Y-64587380D01*
X124483809Y-64587380D02*
X124483809Y-63587380D01*
X124388571Y-63730238D01*
X124293333Y-63825476D01*
X124198095Y-63873095D01*
X125102857Y-63587380D02*
X125721904Y-63587380D01*
X125388571Y-63968333D01*
X125531428Y-63968333D01*
X125626666Y-64015952D01*
X125674285Y-64063571D01*
X125721904Y-64158809D01*
X125721904Y-64396904D01*
X125674285Y-64492142D01*
X125626666Y-64539761D01*
X125531428Y-64587380D01*
X125245714Y-64587380D01*
X125150476Y-64539761D01*
X125102857Y-64492142D01*
X128055714Y-64587380D02*
X127484285Y-64587380D01*
X127770000Y-64587380D02*
X127770000Y-63587380D01*
X127674761Y-63730238D01*
X127579523Y-63825476D01*
X127484285Y-63873095D01*
X128484285Y-64587380D02*
X128484285Y-63587380D01*
X129055714Y-64587380D02*
X128627142Y-64015952D01*
X129055714Y-63587380D02*
X128484285Y-64158809D01*
X179522380Y-54776666D02*
X179046190Y-55110000D01*
X179522380Y-55348095D02*
X178522380Y-55348095D01*
X178522380Y-54967142D01*
X178570000Y-54871904D01*
X178617619Y-54824285D01*
X178712857Y-54776666D01*
X178855714Y-54776666D01*
X178950952Y-54824285D01*
X178998571Y-54871904D01*
X179046190Y-54967142D01*
X179046190Y-55348095D01*
X178522380Y-54443333D02*
X178522380Y-53776666D01*
X179522380Y-54205238D01*
X179522380Y-51014285D02*
X179522380Y-51585714D01*
X179522380Y-51300000D02*
X178522380Y-51300000D01*
X178665238Y-51395238D01*
X178760476Y-51490476D01*
X178808095Y-51585714D01*
X179522380Y-50585714D02*
X178522380Y-50585714D01*
X179522380Y-50014285D02*
X178950952Y-50442857D01*
X178522380Y-50014285D02*
X179093809Y-50585714D01*
X148407380Y-51442857D02*
X147931190Y-51776190D01*
X148407380Y-52014285D02*
X147407380Y-52014285D01*
X147407380Y-51633333D01*
X147455000Y-51538095D01*
X147502619Y-51490476D01*
X147597857Y-51442857D01*
X147740714Y-51442857D01*
X147835952Y-51490476D01*
X147883571Y-51538095D01*
X147931190Y-51633333D01*
X147931190Y-52014285D01*
X148407380Y-50490476D02*
X148407380Y-51061904D01*
X148407380Y-50776190D02*
X147407380Y-50776190D01*
X147550238Y-50871428D01*
X147645476Y-50966666D01*
X147693095Y-51061904D01*
X147407380Y-49871428D02*
X147407380Y-49776190D01*
X147455000Y-49680952D01*
X147502619Y-49633333D01*
X147597857Y-49585714D01*
X147788333Y-49538095D01*
X148026428Y-49538095D01*
X148216904Y-49585714D01*
X148312142Y-49633333D01*
X148359761Y-49680952D01*
X148407380Y-49776190D01*
X148407380Y-49871428D01*
X148359761Y-49966666D01*
X148312142Y-50014285D01*
X148216904Y-50061904D01*
X148026428Y-50109523D01*
X147788333Y-50109523D01*
X147597857Y-50061904D01*
X147502619Y-50014285D01*
X147455000Y-49966666D01*
X147407380Y-49871428D01*
X148407380Y-54824285D02*
X148407380Y-55395714D01*
X148407380Y-55110000D02*
X147407380Y-55110000D01*
X147550238Y-55205238D01*
X147645476Y-55300476D01*
X147693095Y-55395714D01*
X148407380Y-54395714D02*
X147407380Y-54395714D01*
X148407380Y-53824285D02*
X147835952Y-54252857D01*
X147407380Y-53824285D02*
X147978809Y-54395714D01*
X168763095Y-39457380D02*
X168763095Y-40266904D01*
X168810714Y-40362142D01*
X168858333Y-40409761D01*
X168953571Y-40457380D01*
X169144047Y-40457380D01*
X169239285Y-40409761D01*
X169286904Y-40362142D01*
X169334523Y-40266904D01*
X169334523Y-39457380D01*
X169715476Y-39457380D02*
X170382142Y-39457380D01*
X169953571Y-40457380D01*
X168977380Y-30582857D02*
X168977380Y-29916190D01*
X169977380Y-30344761D01*
X169310714Y-29106666D02*
X169977380Y-29106666D01*
X168929761Y-29344761D02*
X169644047Y-29582857D01*
X169644047Y-28963809D01*
X169977380Y-28106666D02*
X169977380Y-28582857D01*
X168977380Y-28582857D01*
X169929761Y-27820952D02*
X169977380Y-27678095D01*
X169977380Y-27440000D01*
X169929761Y-27344761D01*
X169882142Y-27297142D01*
X169786904Y-27249523D01*
X169691666Y-27249523D01*
X169596428Y-27297142D01*
X169548809Y-27344761D01*
X169501190Y-27440000D01*
X169453571Y-27630476D01*
X169405952Y-27725714D01*
X169358333Y-27773333D01*
X169263095Y-27820952D01*
X169167857Y-27820952D01*
X169072619Y-27773333D01*
X169025000Y-27725714D01*
X168977380Y-27630476D01*
X168977380Y-27392380D01*
X169025000Y-27249523D01*
X168977380Y-26630476D02*
X168977380Y-26535238D01*
X169025000Y-26440000D01*
X169072619Y-26392380D01*
X169167857Y-26344761D01*
X169358333Y-26297142D01*
X169596428Y-26297142D01*
X169786904Y-26344761D01*
X169882142Y-26392380D01*
X169929761Y-26440000D01*
X169977380Y-26535238D01*
X169977380Y-26630476D01*
X169929761Y-26725714D01*
X169882142Y-26773333D01*
X169786904Y-26820952D01*
X169596428Y-26868571D01*
X169358333Y-26868571D01*
X169167857Y-26820952D01*
X169072619Y-26773333D01*
X169025000Y-26725714D01*
X168977380Y-26630476D01*
X168977380Y-25678095D02*
X168977380Y-25582857D01*
X169025000Y-25487619D01*
X169072619Y-25440000D01*
X169167857Y-25392380D01*
X169358333Y-25344761D01*
X169596428Y-25344761D01*
X169786904Y-25392380D01*
X169882142Y-25440000D01*
X169929761Y-25487619D01*
X169977380Y-25582857D01*
X169977380Y-25678095D01*
X169929761Y-25773333D01*
X169882142Y-25820952D01*
X169786904Y-25868571D01*
X169596428Y-25916190D01*
X169358333Y-25916190D01*
X169167857Y-25868571D01*
X169072619Y-25820952D01*
X169025000Y-25773333D01*
X168977380Y-25678095D01*
D13*
X155980000Y-66675000D02*
X156750000Y-66675000D01*
X156750000Y-65305000D02*
X156750000Y-68045000D01*
X164060000Y-66675000D02*
X163290000Y-66675000D01*
X163290000Y-65305000D02*
X156750000Y-65305000D01*
X156750000Y-68045000D02*
X163290000Y-68045000D01*
X163290000Y-68045000D02*
X163290000Y-65305000D01*
X185520000Y-49435000D02*
X182780000Y-49435000D01*
X182780000Y-49435000D02*
X182780000Y-55975000D01*
X185520000Y-55975000D02*
X185520000Y-49435000D01*
X184150000Y-56745000D02*
X184150000Y-55975000D01*
X184150000Y-48665000D02*
X184150000Y-49435000D01*
X182780000Y-55975000D02*
X185520000Y-55975000D01*
X181610000Y-48665000D02*
X181610000Y-49435000D01*
X182980000Y-55975000D02*
X182980000Y-49435000D01*
X180240000Y-49435000D02*
X180240000Y-55975000D01*
X180240000Y-55975000D02*
X182980000Y-55975000D01*
X181610000Y-56745000D02*
X181610000Y-55975000D01*
X182980000Y-49435000D02*
X180240000Y-49435000D01*
X52645000Y-79105000D02*
X52645000Y-84565000D01*
X83245000Y-71645000D02*
X52645000Y-71645000D01*
X52645000Y-71645000D02*
X52645000Y-77105000D01*
X83245000Y-84565000D02*
X83245000Y-71645000D01*
X52645000Y-84565000D02*
X83245000Y-84565000D01*
X52645000Y-79105000D02*
G75*
G03*
X52645000Y-77105000I0J1000000D01*
G01*
X104680000Y-68045000D02*
X111220000Y-68045000D01*
X103910000Y-66675000D02*
X104680000Y-66675000D01*
X104680000Y-65305000D02*
X104680000Y-68045000D01*
X111220000Y-65305000D02*
X104680000Y-65305000D01*
X111990000Y-66675000D02*
X111220000Y-66675000D01*
X111220000Y-68045000D02*
X111220000Y-65305000D01*
X110380000Y-24705000D02*
X110380000Y-42605000D01*
X115680000Y-42605000D02*
X115680000Y-24705000D01*
X114030000Y-42605000D02*
X115680000Y-42605000D01*
X110380000Y-42605000D02*
X112030000Y-42605000D01*
X115680000Y-24705000D02*
X110380000Y-24705000D01*
X114030000Y-42605000D02*
G75*
G03*
X112030000Y-42605000I-1000000J0D01*
G01*
X128380000Y-142300000D02*
X128380000Y-124400000D01*
X123080000Y-142300000D02*
X128380000Y-142300000D01*
X128380000Y-124400000D02*
X126730000Y-124400000D01*
X124730000Y-124400000D02*
X123080000Y-124400000D01*
X123080000Y-124400000D02*
X123080000Y-142300000D01*
X124730000Y-124400000D02*
G75*
G03*
X126730000Y-124400000I1000000J0D01*
G01*
X138540000Y-24705000D02*
X133240000Y-24705000D01*
X136890000Y-42605000D02*
X138540000Y-42605000D01*
X133240000Y-24705000D02*
X133240000Y-42605000D01*
X133240000Y-42605000D02*
X134890000Y-42605000D01*
X138540000Y-42605000D02*
X138540000Y-24705000D01*
X136890000Y-42605000D02*
G75*
G03*
X134890000Y-42605000I-1000000J0D01*
G01*
X82015000Y-49435000D02*
X79275000Y-49435000D01*
X79275000Y-49435000D02*
X79275000Y-55975000D01*
X79275000Y-55975000D02*
X82015000Y-55975000D01*
X80645000Y-56745000D02*
X80645000Y-55975000D01*
X82015000Y-55975000D02*
X82015000Y-49435000D01*
X80645000Y-48665000D02*
X80645000Y-49435000D01*
X83185000Y-56745000D02*
X83185000Y-55975000D01*
X83185000Y-48665000D02*
X83185000Y-49435000D01*
X84555000Y-49435000D02*
X81815000Y-49435000D01*
X81815000Y-49435000D02*
X81815000Y-55975000D01*
X84555000Y-55975000D02*
X84555000Y-49435000D01*
X81815000Y-55975000D02*
X84555000Y-55975000D01*
X174085000Y-44300000D02*
X174085000Y-44925000D01*
X170045000Y-44300000D02*
X170045000Y-44925000D01*
X170045000Y-46515000D02*
X170045000Y-47140000D01*
X170045000Y-44300000D02*
X174085000Y-44300000D01*
X174085000Y-46515000D02*
X174085000Y-47140000D01*
X170045000Y-47140000D02*
X174085000Y-47140000D01*
X55015000Y-66675000D02*
X55785000Y-66675000D01*
X62325000Y-68045000D02*
X62325000Y-65305000D01*
X63095000Y-66675000D02*
X62325000Y-66675000D01*
X55785000Y-68045000D02*
X62325000Y-68045000D01*
X55785000Y-65305000D02*
X55785000Y-68045000D01*
X62325000Y-65305000D02*
X55785000Y-65305000D01*
X89440000Y-65305000D02*
X89440000Y-68045000D01*
X95980000Y-68045000D02*
X95980000Y-65305000D01*
X88670000Y-66675000D02*
X89440000Y-66675000D01*
X96750000Y-66675000D02*
X95980000Y-66675000D01*
X89440000Y-68045000D02*
X95980000Y-68045000D01*
X95980000Y-65305000D02*
X89440000Y-65305000D01*
X153610000Y-107425000D02*
X184210000Y-107425000D01*
X184210000Y-94505000D02*
X153610000Y-94505000D01*
X153610000Y-94505000D02*
X153610000Y-99965000D01*
X184210000Y-107425000D02*
X184210000Y-94505000D01*
X153610000Y-101965000D02*
X153610000Y-107425000D01*
X153610000Y-101965000D02*
G75*
G03*
X153610000Y-99965000I0J1000000D01*
G01*
X69850000Y-58545000D02*
X69850000Y-54485000D01*
X71550000Y-54485000D02*
X71550000Y-55838333D01*
X53530000Y-54485000D02*
X53530000Y-55838333D01*
X60960000Y-58545000D02*
X62230000Y-58545000D01*
X54610000Y-55838333D02*
X53340000Y-55838333D01*
X68890000Y-54485000D02*
X68890000Y-55838333D01*
X56550000Y-54485000D02*
X56550000Y-55838333D01*
X64770000Y-54485000D02*
X63500000Y-54485000D01*
X53340000Y-54485000D02*
X53340000Y-58545000D01*
X56430000Y-54485000D02*
X56430000Y-55838333D01*
X54250000Y-54485000D02*
X54250000Y-55838333D01*
X66470000Y-54485000D02*
X66470000Y-55838333D01*
X69370000Y-54485000D02*
X69370000Y-55838333D01*
X57150000Y-55838333D02*
X55880000Y-55838333D01*
X72150000Y-54485000D02*
X72150000Y-55838333D01*
X58610000Y-54485000D02*
X58610000Y-55838333D01*
X58850000Y-54485000D02*
X58850000Y-55838333D01*
X66590000Y-54485000D02*
X66590000Y-55838333D01*
X59690000Y-54485000D02*
X58420000Y-54485000D01*
X64170000Y-54485000D02*
X64170000Y-55838333D01*
X57150000Y-58545000D02*
X57150000Y-54485000D01*
X58420000Y-54485000D02*
X58420000Y-58545000D01*
X56070000Y-54485000D02*
X56070000Y-55838333D01*
X59090000Y-54485000D02*
X59090000Y-55838333D01*
X61150000Y-54485000D02*
X61150000Y-55838333D01*
X66110000Y-54485000D02*
X66110000Y-55838333D01*
X67310000Y-55838333D02*
X66040000Y-55838333D01*
X55880000Y-54485000D02*
X55880000Y-58545000D01*
X68770000Y-54485000D02*
X68770000Y-55838333D01*
X56910000Y-54485000D02*
X56910000Y-55838333D01*
X56310000Y-54485000D02*
X56310000Y-55838333D01*
X62230000Y-55838333D02*
X60960000Y-55838333D01*
X63570000Y-54485000D02*
X63570000Y-55838333D01*
X58730000Y-54485000D02*
X58730000Y-55838333D01*
X57150000Y-54485000D02*
X55880000Y-54485000D01*
X67070000Y-54485000D02*
X67070000Y-55838333D01*
X58490000Y-54485000D02*
X58490000Y-55838333D01*
X71910000Y-54485000D02*
X71910000Y-55838333D01*
X61510000Y-54485000D02*
X61510000Y-55838333D01*
X71790000Y-54485000D02*
X71790000Y-55838333D01*
X53650000Y-54485000D02*
X53650000Y-55838333D01*
X67190000Y-54485000D02*
X67190000Y-55838333D01*
X66040000Y-54485000D02*
X66040000Y-58545000D01*
X71670000Y-54485000D02*
X71670000Y-55838333D01*
X69850000Y-54485000D02*
X68580000Y-54485000D01*
X57030000Y-54485000D02*
X57030000Y-55838333D01*
X54010000Y-54485000D02*
X54010000Y-55838333D01*
X68580000Y-54485000D02*
X68580000Y-58545000D01*
X53340000Y-58545000D02*
X54610000Y-58545000D01*
X59330000Y-54485000D02*
X59330000Y-55838333D01*
X64770000Y-55838333D02*
X63500000Y-55838333D01*
X61990000Y-54485000D02*
X61990000Y-55838333D01*
X72390000Y-55838333D02*
X71120000Y-55838333D01*
X71120000Y-58545000D02*
X72390000Y-58545000D01*
X64530000Y-54485000D02*
X64530000Y-55838333D01*
X68580000Y-58545000D02*
X69850000Y-58545000D01*
X69490000Y-54485000D02*
X69490000Y-55838333D01*
X69610000Y-54485000D02*
X69610000Y-55838333D01*
X71430000Y-54485000D02*
X71430000Y-55838333D01*
X64050000Y-54485000D02*
X64050000Y-55838333D01*
X74175000Y-61465000D02*
X51554000Y-61465000D01*
X59210000Y-54485000D02*
X59210000Y-55838333D01*
X64650000Y-54485000D02*
X64650000Y-55838333D01*
X61630000Y-54485000D02*
X61630000Y-55838333D01*
X64770000Y-58545000D02*
X64770000Y-54485000D01*
X63810000Y-54485000D02*
X63810000Y-55838333D01*
X58420000Y-58545000D02*
X59690000Y-58545000D01*
X69730000Y-54485000D02*
X69730000Y-55838333D01*
X59450000Y-54485000D02*
X59450000Y-55838333D01*
X59690000Y-55838333D02*
X58420000Y-55838333D01*
X53770000Y-54485000D02*
X53770000Y-55838333D01*
X74415000Y-51325000D02*
X74415000Y-52709000D01*
X62230000Y-58545000D02*
X62230000Y-54485000D01*
X72390000Y-54485000D02*
X71120000Y-54485000D01*
X64410000Y-54485000D02*
X64410000Y-55838333D01*
X67310000Y-54485000D02*
X66040000Y-54485000D01*
X55950000Y-54485000D02*
X55950000Y-55838333D01*
X71310000Y-54485000D02*
X71310000Y-55838333D01*
X69130000Y-54485000D02*
X69130000Y-55838333D01*
X71190000Y-54485000D02*
X71190000Y-55838333D01*
X74175000Y-51565000D02*
X74175000Y-61465000D01*
X72390000Y-58545000D02*
X72390000Y-54485000D01*
X59690000Y-58545000D02*
X59690000Y-54485000D01*
X62230000Y-54485000D02*
X60960000Y-54485000D01*
X72030000Y-54485000D02*
X72030000Y-55838333D01*
X71120000Y-54485000D02*
X71120000Y-58545000D01*
X54610000Y-58545000D02*
X54610000Y-54485000D01*
X56670000Y-54485000D02*
X56670000Y-55838333D01*
X53890000Y-54485000D02*
X53890000Y-55838333D01*
X61030000Y-54485000D02*
X61030000Y-55838333D01*
X72270000Y-54485000D02*
X72270000Y-55838333D01*
X55880000Y-58545000D02*
X57150000Y-58545000D01*
X63690000Y-54485000D02*
X63690000Y-55838333D01*
X63500000Y-58545000D02*
X64770000Y-58545000D01*
X74415000Y-51325000D02*
X73032000Y-51325000D01*
X66350000Y-54485000D02*
X66350000Y-55838333D01*
X67310000Y-58545000D02*
X67310000Y-54485000D01*
X61390000Y-54485000D02*
X61390000Y-55838333D01*
X53410000Y-54485000D02*
X53410000Y-55838333D01*
X61750000Y-54485000D02*
X61750000Y-55838333D01*
X54370000Y-54485000D02*
X54370000Y-55838333D01*
X63500000Y-54485000D02*
X63500000Y-58545000D01*
X61870000Y-54485000D02*
X61870000Y-55838333D01*
X69010000Y-54485000D02*
X69010000Y-55838333D01*
X54130000Y-54485000D02*
X54130000Y-55838333D01*
X74175000Y-51565000D02*
X51554000Y-51565000D01*
X59570000Y-54485000D02*
X59570000Y-55838333D01*
X54610000Y-54485000D02*
X53340000Y-54485000D01*
X66710000Y-54485000D02*
X66710000Y-55838333D01*
X54490000Y-54485000D02*
X54490000Y-55838333D01*
X51554000Y-51565000D02*
X51554000Y-61465000D01*
X63930000Y-54485000D02*
X63930000Y-55838333D01*
X58970000Y-54485000D02*
X58970000Y-55838333D01*
X64290000Y-54485000D02*
X64290000Y-55838333D01*
X69850000Y-55838333D02*
X68580000Y-55838333D01*
X56790000Y-54485000D02*
X56790000Y-55838333D01*
X66950000Y-54485000D02*
X66950000Y-55838333D01*
X66230000Y-54485000D02*
X66230000Y-55838333D01*
X66830000Y-54485000D02*
X66830000Y-55838333D01*
X62110000Y-54485000D02*
X62110000Y-55838333D01*
X60960000Y-54485000D02*
X60960000Y-58545000D01*
X61270000Y-54485000D02*
X61270000Y-55838333D01*
X68650000Y-54485000D02*
X68650000Y-55838333D01*
X56190000Y-54485000D02*
X56190000Y-55838333D01*
X69250000Y-54485000D02*
X69250000Y-55838333D01*
X66040000Y-58545000D02*
X67310000Y-58545000D01*
X112930000Y-49435000D02*
X112930000Y-55975000D01*
X112930000Y-55975000D02*
X115670000Y-55975000D01*
X115670000Y-49435000D02*
X112930000Y-49435000D01*
X114300000Y-56745000D02*
X114300000Y-55975000D01*
X114300000Y-48665000D02*
X114300000Y-49435000D01*
X115670000Y-55975000D02*
X115670000Y-49435000D01*
X130335000Y-149360000D02*
X130960000Y-149360000D01*
X128120000Y-145320000D02*
X128745000Y-145320000D01*
X128120000Y-149360000D02*
X128745000Y-149360000D01*
X130335000Y-145320000D02*
X130960000Y-145320000D01*
X130960000Y-149360000D02*
X130960000Y-145320000D01*
X128120000Y-149360000D02*
X128120000Y-145320000D01*
X156090000Y-22122500D02*
X156090000Y-42562500D01*
X159740000Y-42562500D02*
X161390000Y-42562500D01*
X156090000Y-42562500D02*
X157740000Y-42562500D01*
X161390000Y-22122500D02*
X156090000Y-22122500D01*
X161390000Y-42562500D02*
X161390000Y-22122500D01*
X159740000Y-42562500D02*
G75*
G03*
X157740000Y-42562500I-1000000J0D01*
G01*
X99585000Y-24705000D02*
X99585000Y-42605000D01*
X104885000Y-42605000D02*
X104885000Y-24705000D01*
X104885000Y-24705000D02*
X99585000Y-24705000D01*
X99585000Y-42605000D02*
X101235000Y-42605000D01*
X103235000Y-42605000D02*
X104885000Y-42605000D01*
X103235000Y-42605000D02*
G75*
G03*
X101235000Y-42605000I-1000000J0D01*
G01*
X52645000Y-101965000D02*
X52645000Y-107425000D01*
X83245000Y-94505000D02*
X52645000Y-94505000D01*
X83245000Y-107425000D02*
X83245000Y-94505000D01*
X52645000Y-107425000D02*
X83245000Y-107425000D01*
X52645000Y-94505000D02*
X52645000Y-99965000D01*
X52645000Y-101965000D02*
G75*
G03*
X52645000Y-99965000I0J1000000D01*
G01*
X95980000Y-65505000D02*
X95980000Y-62765000D01*
X95980000Y-62765000D02*
X89440000Y-62765000D01*
X88670000Y-64135000D02*
X89440000Y-64135000D01*
X89440000Y-62765000D02*
X89440000Y-65505000D01*
X96750000Y-64135000D02*
X95980000Y-64135000D01*
X89440000Y-65505000D02*
X95980000Y-65505000D01*
X71230000Y-42605000D02*
X71230000Y-24705000D01*
X65930000Y-24705000D02*
X65930000Y-42605000D01*
X69580000Y-42605000D02*
X71230000Y-42605000D01*
X71230000Y-24705000D02*
X65930000Y-24705000D01*
X65930000Y-42605000D02*
X67580000Y-42605000D01*
X69580000Y-42605000D02*
G75*
G03*
X67580000Y-42605000I-1000000J0D01*
G01*
X71025000Y-68045000D02*
X77565000Y-68045000D01*
X70255000Y-66675000D02*
X71025000Y-66675000D01*
X71025000Y-65305000D02*
X71025000Y-68045000D01*
X77565000Y-65305000D02*
X71025000Y-65305000D01*
X78335000Y-66675000D02*
X77565000Y-66675000D01*
X77565000Y-68045000D02*
X77565000Y-65305000D01*
X86770000Y-90955000D02*
X82730000Y-90955000D01*
X86770000Y-88115000D02*
X82730000Y-88115000D01*
X82730000Y-88740000D02*
X82730000Y-88115000D01*
X82730000Y-90955000D02*
X82730000Y-90330000D01*
X86770000Y-88740000D02*
X86770000Y-88115000D01*
X86770000Y-90955000D02*
X86770000Y-90330000D01*
X150400000Y-88740000D02*
X150400000Y-88115000D01*
X150400000Y-90955000D02*
X150400000Y-90330000D01*
X154440000Y-90955000D02*
X150400000Y-90955000D01*
X154440000Y-88115000D02*
X150400000Y-88115000D01*
X154440000Y-88740000D02*
X154440000Y-88115000D01*
X154440000Y-90955000D02*
X154440000Y-90330000D01*
X116840000Y-56745000D02*
X116840000Y-55975000D01*
X116840000Y-48665000D02*
X116840000Y-49435000D01*
X118210000Y-55975000D02*
X118210000Y-49435000D01*
X115470000Y-55975000D02*
X118210000Y-55975000D01*
X115470000Y-49435000D02*
X115470000Y-55975000D01*
X118210000Y-49435000D02*
X115470000Y-49435000D01*
X171990000Y-62765000D02*
X171990000Y-65505000D01*
X171990000Y-65505000D02*
X178530000Y-65505000D01*
X178530000Y-62765000D02*
X171990000Y-62765000D01*
X179300000Y-64135000D02*
X178530000Y-64135000D01*
X178530000Y-65505000D02*
X178530000Y-62765000D01*
X171220000Y-64135000D02*
X171990000Y-64135000D01*
X178530000Y-65305000D02*
X171990000Y-65305000D01*
X178530000Y-68045000D02*
X178530000Y-65305000D01*
X171220000Y-66675000D02*
X171990000Y-66675000D01*
X171990000Y-65305000D02*
X171990000Y-68045000D01*
X179300000Y-66675000D02*
X178530000Y-66675000D01*
X171990000Y-68045000D02*
X178530000Y-68045000D01*
X144245000Y-49435000D02*
X141505000Y-49435000D01*
X142875000Y-56745000D02*
X142875000Y-55975000D01*
X144245000Y-55975000D02*
X144245000Y-49435000D01*
X142875000Y-48665000D02*
X142875000Y-49435000D01*
X141505000Y-49435000D02*
X141505000Y-55975000D01*
X141505000Y-55975000D02*
X144245000Y-55975000D01*
X130405000Y-66675000D02*
X129635000Y-66675000D01*
X129635000Y-68045000D02*
X129635000Y-65305000D01*
X129635000Y-65305000D02*
X123095000Y-65305000D01*
X123095000Y-65305000D02*
X123095000Y-68045000D01*
X123095000Y-68045000D02*
X129635000Y-68045000D01*
X122325000Y-66675000D02*
X123095000Y-66675000D01*
X110590000Y-49435000D02*
X107850000Y-49435000D01*
X107850000Y-55975000D02*
X110590000Y-55975000D01*
X110590000Y-55975000D02*
X110590000Y-49435000D01*
X109220000Y-48665000D02*
X109220000Y-49435000D01*
X109220000Y-56745000D02*
X109220000Y-55975000D01*
X107850000Y-49435000D02*
X107850000Y-55975000D01*
X86300000Y-84565000D02*
X116900000Y-84565000D01*
X86300000Y-79105000D02*
X86300000Y-84565000D01*
X116900000Y-84565000D02*
X116900000Y-71645000D01*
X86300000Y-71645000D02*
X86300000Y-77105000D01*
X116900000Y-71645000D02*
X86300000Y-71645000D01*
X86300000Y-79105000D02*
G75*
G03*
X86300000Y-77105000I0J1000000D01*
G01*
X153615000Y-79105000D02*
X153615000Y-84565000D01*
X153615000Y-71645000D02*
X153615000Y-77105000D01*
X184215000Y-84565000D02*
X184215000Y-71645000D01*
X184215000Y-71645000D02*
X153615000Y-71645000D01*
X153615000Y-84565000D02*
X184215000Y-84565000D01*
X153615000Y-79105000D02*
G75*
G03*
X153615000Y-77105000I0J1000000D01*
G01*
X144045000Y-55975000D02*
X146785000Y-55975000D01*
X146785000Y-55975000D02*
X146785000Y-49435000D01*
X146785000Y-49435000D02*
X144045000Y-49435000D01*
X145415000Y-56745000D02*
X145415000Y-55975000D01*
X144045000Y-49435000D02*
X144045000Y-55975000D01*
X145415000Y-48665000D02*
X145415000Y-49435000D01*
X98585000Y-145320000D02*
X99210000Y-145320000D01*
X96370000Y-149360000D02*
X96370000Y-145320000D01*
X96370000Y-145320000D02*
X96995000Y-145320000D01*
X99210000Y-149360000D02*
X99210000Y-145320000D01*
X96370000Y-149360000D02*
X96995000Y-149360000D01*
X98585000Y-149360000D02*
X99210000Y-149360000D01*
X100600000Y-156150000D02*
X98950000Y-156150000D01*
X104250000Y-156150000D02*
X102600000Y-156150000D01*
X98950000Y-176590000D02*
X104250000Y-176590000D01*
X104250000Y-176590000D02*
X104250000Y-156150000D01*
X98950000Y-156150000D02*
X98950000Y-176590000D01*
X100600000Y-156150000D02*
G75*
G03*
X102600000Y-156150000I1000000J0D01*
G01*
X164895000Y-54485000D02*
X164895000Y-55838333D01*
X164655000Y-54485000D02*
X164655000Y-55838333D01*
X165375000Y-54485000D02*
X165375000Y-55838333D01*
X175140000Y-61465000D02*
X152519000Y-61465000D01*
X170815000Y-54485000D02*
X169545000Y-54485000D01*
X172085000Y-58545000D02*
X173355000Y-58545000D01*
X173355000Y-58545000D02*
X173355000Y-54485000D01*
X162475000Y-54485000D02*
X162475000Y-55838333D01*
X167675000Y-54485000D02*
X167675000Y-55838333D01*
X157275000Y-54485000D02*
X157275000Y-55838333D01*
X152519000Y-51565000D02*
X152519000Y-61465000D01*
X168275000Y-55838333D02*
X167005000Y-55838333D01*
X170335000Y-54485000D02*
X170335000Y-55838333D01*
X155215000Y-54485000D02*
X155215000Y-55838333D01*
X159385000Y-54485000D02*
X159385000Y-58545000D01*
X164465000Y-58545000D02*
X165735000Y-58545000D01*
X167795000Y-54485000D02*
X167795000Y-55838333D01*
X160655000Y-54485000D02*
X159385000Y-54485000D01*
X172395000Y-54485000D02*
X172395000Y-55838333D01*
X157875000Y-54485000D02*
X157875000Y-55838333D01*
X170575000Y-54485000D02*
X170575000Y-55838333D01*
X162955000Y-54485000D02*
X162955000Y-55838333D01*
X169735000Y-54485000D02*
X169735000Y-55838333D01*
X159695000Y-54485000D02*
X159695000Y-55838333D01*
X165735000Y-55838333D02*
X164465000Y-55838333D01*
X172515000Y-54485000D02*
X172515000Y-55838333D01*
X154305000Y-54485000D02*
X154305000Y-58545000D01*
X173235000Y-54485000D02*
X173235000Y-55838333D01*
X154495000Y-54485000D02*
X154495000Y-55838333D01*
X172635000Y-54485000D02*
X172635000Y-55838333D01*
X173115000Y-54485000D02*
X173115000Y-55838333D01*
X165495000Y-54485000D02*
X165495000Y-55838333D01*
X160655000Y-55838333D02*
X159385000Y-55838333D01*
X163075000Y-54485000D02*
X163075000Y-55838333D01*
X172275000Y-54485000D02*
X172275000Y-55838333D01*
X175380000Y-51325000D02*
X173997000Y-51325000D01*
X154305000Y-58545000D02*
X155575000Y-58545000D01*
X169615000Y-54485000D02*
X169615000Y-55838333D01*
X154855000Y-54485000D02*
X154855000Y-55838333D01*
X155575000Y-55838333D02*
X154305000Y-55838333D01*
X154615000Y-54485000D02*
X154615000Y-55838333D01*
X169545000Y-54485000D02*
X169545000Y-58545000D01*
X164775000Y-54485000D02*
X164775000Y-55838333D01*
X155575000Y-58545000D02*
X155575000Y-54485000D01*
X172875000Y-54485000D02*
X172875000Y-55838333D01*
X168035000Y-54485000D02*
X168035000Y-55838333D01*
X155095000Y-54485000D02*
X155095000Y-55838333D01*
X161925000Y-58545000D02*
X163195000Y-58545000D01*
X169975000Y-54485000D02*
X169975000Y-55838333D01*
X162715000Y-54485000D02*
X162715000Y-55838333D01*
X163195000Y-55838333D02*
X161925000Y-55838333D01*
X162115000Y-54485000D02*
X162115000Y-55838333D01*
X157395000Y-54485000D02*
X157395000Y-55838333D01*
X172155000Y-54485000D02*
X172155000Y-55838333D01*
X167555000Y-54485000D02*
X167555000Y-55838333D01*
X155575000Y-54485000D02*
X154305000Y-54485000D01*
X169855000Y-54485000D02*
X169855000Y-55838333D01*
X170455000Y-54485000D02*
X170455000Y-55838333D01*
X167005000Y-54485000D02*
X167005000Y-58545000D01*
X162595000Y-54485000D02*
X162595000Y-55838333D01*
X162355000Y-54485000D02*
X162355000Y-55838333D01*
X165255000Y-54485000D02*
X165255000Y-55838333D01*
X170095000Y-54485000D02*
X170095000Y-55838333D01*
X167915000Y-54485000D02*
X167915000Y-55838333D01*
X175380000Y-51325000D02*
X175380000Y-52709000D01*
X168155000Y-54485000D02*
X168155000Y-55838333D01*
X170815000Y-55838333D02*
X169545000Y-55838333D01*
X159815000Y-54485000D02*
X159815000Y-55838333D01*
X168275000Y-54485000D02*
X167005000Y-54485000D01*
X167435000Y-54485000D02*
X167435000Y-55838333D01*
X172755000Y-54485000D02*
X172755000Y-55838333D01*
X165615000Y-54485000D02*
X165615000Y-55838333D01*
X155335000Y-54485000D02*
X155335000Y-55838333D01*
X173355000Y-54485000D02*
X172085000Y-54485000D01*
X160535000Y-54485000D02*
X160535000Y-55838333D01*
X158115000Y-58545000D02*
X158115000Y-54485000D01*
X173355000Y-55838333D02*
X172085000Y-55838333D01*
X175140000Y-51565000D02*
X152519000Y-51565000D01*
X167315000Y-54485000D02*
X167315000Y-55838333D01*
X172085000Y-54485000D02*
X172085000Y-58545000D01*
X157515000Y-54485000D02*
X157515000Y-55838333D01*
X162235000Y-54485000D02*
X162235000Y-55838333D01*
X154975000Y-54485000D02*
X154975000Y-55838333D01*
X157035000Y-54485000D02*
X157035000Y-55838333D01*
X172995000Y-54485000D02*
X172995000Y-55838333D01*
X157155000Y-54485000D02*
X157155000Y-55838333D01*
X170695000Y-54485000D02*
X170695000Y-55838333D01*
X161995000Y-54485000D02*
X161995000Y-55838333D01*
X157995000Y-54485000D02*
X157995000Y-55838333D01*
X156845000Y-58545000D02*
X158115000Y-58545000D01*
X169545000Y-58545000D02*
X170815000Y-58545000D01*
X168275000Y-58545000D02*
X168275000Y-54485000D01*
X164465000Y-54485000D02*
X164465000Y-58545000D01*
X170215000Y-54485000D02*
X170215000Y-55838333D01*
X165015000Y-54485000D02*
X165015000Y-55838333D01*
X160055000Y-54485000D02*
X160055000Y-55838333D01*
X170815000Y-58545000D02*
X170815000Y-54485000D01*
X156845000Y-54485000D02*
X156845000Y-58545000D01*
X159575000Y-54485000D02*
X159575000Y-55838333D01*
X158115000Y-55838333D02*
X156845000Y-55838333D01*
X160295000Y-54485000D02*
X160295000Y-55838333D01*
X164535000Y-54485000D02*
X164535000Y-55838333D01*
X160655000Y-58545000D02*
X160655000Y-54485000D01*
X160175000Y-54485000D02*
X160175000Y-55838333D01*
X163195000Y-54485000D02*
X161925000Y-54485000D01*
X158115000Y-54485000D02*
X156845000Y-54485000D01*
X157635000Y-54485000D02*
X157635000Y-55838333D01*
X159385000Y-58545000D02*
X160655000Y-58545000D01*
X167195000Y-54485000D02*
X167195000Y-55838333D01*
X154375000Y-54485000D02*
X154375000Y-55838333D01*
X156915000Y-54485000D02*
X156915000Y-55838333D01*
X167005000Y-58545000D02*
X168275000Y-58545000D01*
X160415000Y-54485000D02*
X160415000Y-55838333D01*
X163195000Y-58545000D02*
X163195000Y-54485000D01*
X162835000Y-54485000D02*
X162835000Y-55838333D01*
X161925000Y-54485000D02*
X161925000Y-58545000D01*
X165735000Y-58545000D02*
X165735000Y-54485000D01*
X159455000Y-54485000D02*
X159455000Y-55838333D01*
X165135000Y-54485000D02*
X165135000Y-55838333D01*
X154735000Y-54485000D02*
X154735000Y-55838333D01*
X157755000Y-54485000D02*
X157755000Y-55838333D01*
X155455000Y-54485000D02*
X155455000Y-55838333D01*
X167075000Y-54485000D02*
X167075000Y-55838333D01*
X165735000Y-54485000D02*
X164465000Y-54485000D01*
X159935000Y-54485000D02*
X159935000Y-55838333D01*
X175140000Y-51565000D02*
X175140000Y-61465000D01*
X107475000Y-118650000D02*
X108100000Y-118650000D01*
X107475000Y-122690000D02*
X108100000Y-122690000D01*
X105260000Y-122690000D02*
X105260000Y-118650000D01*
X108100000Y-122690000D02*
X108100000Y-118650000D01*
X105260000Y-122690000D02*
X105885000Y-122690000D01*
X105260000Y-118650000D02*
X105885000Y-118650000D01*
X140470000Y-44300000D02*
X136430000Y-44300000D01*
X136430000Y-44925000D02*
X136430000Y-44300000D01*
X140470000Y-47140000D02*
X140470000Y-46515000D01*
X140470000Y-44925000D02*
X140470000Y-44300000D01*
X140470000Y-47140000D02*
X136430000Y-47140000D01*
X136430000Y-47140000D02*
X136430000Y-46515000D01*
X120760000Y-151070000D02*
X119110000Y-151070000D01*
X117110000Y-151070000D02*
X115460000Y-151070000D01*
X120760000Y-176590000D02*
X120760000Y-151070000D01*
X115460000Y-151070000D02*
X115460000Y-176590000D01*
X115460000Y-176590000D02*
X120760000Y-176590000D01*
X117110000Y-151070000D02*
G75*
G03*
X119110000Y-151070000I1000000J0D01*
G01*
X122445000Y-42605000D02*
X124095000Y-42605000D01*
X126095000Y-42605000D02*
X127745000Y-42605000D01*
X127745000Y-42605000D02*
X127745000Y-22165000D01*
X127745000Y-22165000D02*
X122445000Y-22165000D01*
X122445000Y-22165000D02*
X122445000Y-42605000D01*
X126095000Y-42605000D02*
G75*
G03*
X124095000Y-42605000I-1000000J0D01*
G01*
X175160000Y-49392500D02*
X175160000Y-55932500D01*
X175160000Y-55932500D02*
X177900000Y-55932500D01*
X176530000Y-56702500D02*
X176530000Y-55932500D01*
X177900000Y-55932500D02*
X177900000Y-49392500D01*
X176530000Y-48622500D02*
X176530000Y-49392500D01*
X177900000Y-49392500D02*
X175160000Y-49392500D01*
X136000000Y-151070000D02*
X134350000Y-151070000D01*
X132350000Y-151070000D02*
X130700000Y-151070000D01*
X136000000Y-176590000D02*
X136000000Y-151070000D01*
X130700000Y-151070000D02*
X130700000Y-176590000D01*
X130700000Y-176590000D02*
X136000000Y-176590000D01*
X132350000Y-151070000D02*
G75*
G03*
X134350000Y-151070000I1000000J0D01*
G01*
X145645000Y-64135000D02*
X144875000Y-64135000D01*
X144875000Y-65505000D02*
X144875000Y-62765000D01*
X138335000Y-65505000D02*
X144875000Y-65505000D01*
X137565000Y-64135000D02*
X138335000Y-64135000D01*
X138335000Y-62765000D02*
X138335000Y-65505000D01*
X144875000Y-62765000D02*
X138335000Y-62765000D01*
X177680000Y-24667500D02*
X177680000Y-42567500D01*
X181330000Y-42567500D02*
X182980000Y-42567500D01*
X182980000Y-42567500D02*
X182980000Y-24667500D01*
X177680000Y-42567500D02*
X179330000Y-42567500D01*
X182980000Y-24667500D02*
X177680000Y-24667500D01*
X181330000Y-42567500D02*
G75*
G03*
X179330000Y-42567500I-1000000J0D01*
G01*
X150555000Y-71645000D02*
X119955000Y-71645000D01*
X119955000Y-84565000D02*
X150555000Y-84565000D01*
X150555000Y-84565000D02*
X150555000Y-71645000D01*
X119955000Y-79105000D02*
X119955000Y-84565000D01*
X119955000Y-71645000D02*
X119955000Y-77105000D01*
X119955000Y-79105000D02*
G75*
G03*
X119955000Y-77105000I0J1000000D01*
G01*
X115095000Y-149360000D02*
X115720000Y-149360000D01*
X112880000Y-149360000D02*
X112880000Y-145320000D01*
X115095000Y-145320000D02*
X115720000Y-145320000D01*
X112880000Y-149360000D02*
X113505000Y-149360000D01*
X112880000Y-145320000D02*
X113505000Y-145320000D01*
X115720000Y-149360000D02*
X115720000Y-145320000D01*
X128820000Y-54485000D02*
X128820000Y-55838333D01*
X129300000Y-54485000D02*
X129300000Y-55838333D01*
X121680000Y-54485000D02*
X121680000Y-55838333D01*
X131240000Y-54485000D02*
X131240000Y-55838333D01*
X121200000Y-54485000D02*
X121200000Y-55838333D01*
X138980000Y-54485000D02*
X138980000Y-55838333D01*
X135890000Y-54485000D02*
X135890000Y-58545000D01*
X141725000Y-51325000D02*
X141725000Y-52709000D01*
X120960000Y-54485000D02*
X120960000Y-55838333D01*
X138430000Y-54485000D02*
X138430000Y-58545000D01*
X129540000Y-58545000D02*
X129540000Y-54485000D01*
X133540000Y-54485000D02*
X133540000Y-55838333D01*
X120840000Y-54485000D02*
X120840000Y-55838333D01*
X121800000Y-54485000D02*
X121800000Y-55838333D01*
X134140000Y-54485000D02*
X134140000Y-55838333D01*
X132080000Y-54485000D02*
X130810000Y-54485000D01*
X133420000Y-54485000D02*
X133420000Y-55838333D01*
X128270000Y-54485000D02*
X128270000Y-58545000D01*
X136080000Y-54485000D02*
X136080000Y-55838333D01*
X126280000Y-54485000D02*
X126280000Y-55838333D01*
X130880000Y-54485000D02*
X130880000Y-55838333D01*
X133780000Y-54485000D02*
X133780000Y-55838333D01*
X121920000Y-55838333D02*
X120650000Y-55838333D01*
X136320000Y-54485000D02*
X136320000Y-55838333D01*
X138620000Y-54485000D02*
X138620000Y-55838333D01*
X126760000Y-54485000D02*
X126760000Y-55838333D01*
X139100000Y-54485000D02*
X139100000Y-55838333D01*
X134020000Y-54485000D02*
X134020000Y-55838333D01*
X133660000Y-54485000D02*
X133660000Y-55838333D01*
X120720000Y-54485000D02*
X120720000Y-55838333D01*
X124100000Y-54485000D02*
X124100000Y-55838333D01*
X120650000Y-58545000D02*
X121920000Y-58545000D01*
X139220000Y-54485000D02*
X139220000Y-55838333D01*
X132080000Y-58545000D02*
X132080000Y-54485000D01*
X137160000Y-55838333D02*
X135890000Y-55838333D01*
X134380000Y-54485000D02*
X134380000Y-55838333D01*
X127000000Y-54485000D02*
X125730000Y-54485000D01*
X123740000Y-54485000D02*
X123740000Y-55838333D01*
X126640000Y-54485000D02*
X126640000Y-55838333D01*
X139340000Y-54485000D02*
X139340000Y-55838333D01*
X128580000Y-54485000D02*
X128580000Y-55838333D01*
X136440000Y-54485000D02*
X136440000Y-55838333D01*
X139700000Y-55838333D02*
X138430000Y-55838333D01*
X128270000Y-58545000D02*
X129540000Y-58545000D01*
X139460000Y-54485000D02*
X139460000Y-55838333D01*
X124220000Y-54485000D02*
X124220000Y-55838333D01*
X134620000Y-55838333D02*
X133350000Y-55838333D01*
X141485000Y-61465000D02*
X118864000Y-61465000D01*
X130810000Y-58545000D02*
X132080000Y-58545000D01*
X118864000Y-51565000D02*
X118864000Y-61465000D01*
X123380000Y-54485000D02*
X123380000Y-55838333D01*
X131960000Y-54485000D02*
X131960000Y-55838333D01*
X124460000Y-54485000D02*
X123190000Y-54485000D01*
X127000000Y-58545000D02*
X127000000Y-54485000D01*
X131600000Y-54485000D02*
X131600000Y-55838333D01*
X121920000Y-58545000D02*
X121920000Y-54485000D01*
X131720000Y-54485000D02*
X131720000Y-55838333D01*
X132080000Y-55838333D02*
X130810000Y-55838333D01*
X123190000Y-58545000D02*
X124460000Y-58545000D01*
X126880000Y-54485000D02*
X126880000Y-55838333D01*
X131000000Y-54485000D02*
X131000000Y-55838333D01*
X129180000Y-54485000D02*
X129180000Y-55838333D01*
X136680000Y-54485000D02*
X136680000Y-55838333D01*
X131840000Y-54485000D02*
X131840000Y-55838333D01*
X121920000Y-54485000D02*
X120650000Y-54485000D01*
X134260000Y-54485000D02*
X134260000Y-55838333D01*
X137160000Y-58545000D02*
X137160000Y-54485000D01*
X129540000Y-55838333D02*
X128270000Y-55838333D01*
X127000000Y-55838333D02*
X125730000Y-55838333D01*
X139700000Y-54485000D02*
X138430000Y-54485000D01*
X139700000Y-58545000D02*
X139700000Y-54485000D01*
X126040000Y-54485000D02*
X126040000Y-55838333D01*
X131120000Y-54485000D02*
X131120000Y-55838333D01*
X121080000Y-54485000D02*
X121080000Y-55838333D01*
X138430000Y-58545000D02*
X139700000Y-58545000D01*
X126400000Y-54485000D02*
X126400000Y-55838333D01*
X136800000Y-54485000D02*
X136800000Y-55838333D01*
X133350000Y-54485000D02*
X133350000Y-58545000D01*
X126160000Y-54485000D02*
X126160000Y-55838333D01*
X129420000Y-54485000D02*
X129420000Y-55838333D01*
X129060000Y-54485000D02*
X129060000Y-55838333D01*
X130810000Y-54485000D02*
X130810000Y-58545000D01*
X123860000Y-54485000D02*
X123860000Y-55838333D01*
X134620000Y-58545000D02*
X134620000Y-54485000D01*
X125920000Y-54485000D02*
X125920000Y-55838333D01*
X123980000Y-54485000D02*
X123980000Y-55838333D01*
X129540000Y-54485000D02*
X128270000Y-54485000D01*
X136560000Y-54485000D02*
X136560000Y-55838333D01*
X123260000Y-54485000D02*
X123260000Y-55838333D01*
X135890000Y-58545000D02*
X137160000Y-58545000D01*
X121320000Y-54485000D02*
X121320000Y-55838333D01*
X124340000Y-54485000D02*
X124340000Y-55838333D01*
X128460000Y-54485000D02*
X128460000Y-55838333D01*
X128340000Y-54485000D02*
X128340000Y-55838333D01*
X138740000Y-54485000D02*
X138740000Y-55838333D01*
X141485000Y-51565000D02*
X141485000Y-61465000D01*
X123190000Y-54485000D02*
X123190000Y-58545000D01*
X134620000Y-54485000D02*
X133350000Y-54485000D01*
X123500000Y-54485000D02*
X123500000Y-55838333D01*
X139580000Y-54485000D02*
X139580000Y-55838333D01*
X124460000Y-58545000D02*
X124460000Y-54485000D01*
X137040000Y-54485000D02*
X137040000Y-55838333D01*
X128700000Y-54485000D02*
X128700000Y-55838333D01*
X125730000Y-58545000D02*
X127000000Y-58545000D01*
X136200000Y-54485000D02*
X136200000Y-55838333D01*
X124460000Y-55838333D02*
X123190000Y-55838333D01*
X141485000Y-51565000D02*
X118864000Y-51565000D01*
X138860000Y-54485000D02*
X138860000Y-55838333D01*
X134500000Y-54485000D02*
X134500000Y-55838333D01*
X123620000Y-54485000D02*
X123620000Y-55838333D01*
X133350000Y-58545000D02*
X134620000Y-58545000D01*
X125730000Y-54485000D02*
X125730000Y-58545000D01*
X137160000Y-54485000D02*
X135890000Y-54485000D01*
X128940000Y-54485000D02*
X128940000Y-55838333D01*
X121440000Y-54485000D02*
X121440000Y-55838333D01*
X120650000Y-54485000D02*
X120650000Y-58545000D01*
X136920000Y-54485000D02*
X136920000Y-55838333D01*
X121560000Y-54485000D02*
X121560000Y-55838333D01*
X126520000Y-54485000D02*
X126520000Y-55838333D01*
X125800000Y-54485000D02*
X125800000Y-55838333D01*
X131480000Y-54485000D02*
X131480000Y-55838333D01*
X141725000Y-51325000D02*
X140342000Y-51325000D01*
X138500000Y-54485000D02*
X138500000Y-55838333D01*
X135960000Y-54485000D02*
X135960000Y-55838333D01*
X133900000Y-54485000D02*
X133900000Y-55838333D01*
X131360000Y-54485000D02*
X131360000Y-55838333D01*
X111990000Y-64135000D02*
X111220000Y-64135000D01*
X111220000Y-65505000D02*
X111220000Y-62765000D01*
X104680000Y-65505000D02*
X111220000Y-65505000D01*
X111220000Y-62765000D02*
X104680000Y-62765000D01*
X104680000Y-62765000D02*
X104680000Y-65505000D01*
X103910000Y-64135000D02*
X104680000Y-64135000D01*
X137565000Y-66675000D02*
X138335000Y-66675000D01*
X144875000Y-68045000D02*
X144875000Y-65305000D01*
X138335000Y-65305000D02*
X138335000Y-68045000D01*
X138335000Y-68045000D02*
X144875000Y-68045000D01*
X145645000Y-66675000D02*
X144875000Y-66675000D01*
X144875000Y-65305000D02*
X138335000Y-65305000D01*
X53205000Y-110965000D02*
X53205000Y-110340000D01*
X57245000Y-110965000D02*
X57245000Y-110340000D01*
X53205000Y-113180000D02*
X53205000Y-112555000D01*
X57245000Y-113180000D02*
X57245000Y-112555000D01*
X57245000Y-113180000D02*
X53205000Y-113180000D01*
X57245000Y-110340000D02*
X53205000Y-110340000D01*
X150555000Y-94505000D02*
X119955000Y-94505000D01*
X119955000Y-94505000D02*
X119955000Y-99965000D01*
X150555000Y-107425000D02*
X150555000Y-94505000D01*
X119955000Y-107425000D02*
X150555000Y-107425000D01*
X119955000Y-101965000D02*
X119955000Y-107425000D01*
X119955000Y-101965000D02*
G75*
G03*
X119955000Y-99965000I0J1000000D01*
G01*
X179590000Y-90955000D02*
X183630000Y-90955000D01*
X183630000Y-90330000D02*
X183630000Y-90955000D01*
X179590000Y-90330000D02*
X179590000Y-90955000D01*
X179590000Y-88115000D02*
X179590000Y-88740000D01*
X179590000Y-88115000D02*
X183630000Y-88115000D01*
X183630000Y-88115000D02*
X183630000Y-88740000D01*
X86300000Y-94505000D02*
X86300000Y-99965000D01*
X86300000Y-101965000D02*
X86300000Y-107425000D01*
X86300000Y-107425000D02*
X116900000Y-107425000D01*
X116900000Y-107425000D02*
X116900000Y-94505000D01*
X116900000Y-94505000D02*
X86300000Y-94505000D01*
X86300000Y-101965000D02*
G75*
G03*
X86300000Y-99965000I0J1000000D01*
G01*
X144035000Y-24705000D02*
X144035000Y-42605000D01*
X149335000Y-24705000D02*
X144035000Y-24705000D01*
X144035000Y-42605000D02*
X145685000Y-42605000D01*
X147685000Y-42605000D02*
X149335000Y-42605000D01*
X149335000Y-42605000D02*
X149335000Y-24705000D01*
X147685000Y-42605000D02*
G75*
G03*
X145685000Y-42605000I-1000000J0D01*
G01*
X112880000Y-122690000D02*
X113505000Y-122690000D01*
X115720000Y-122690000D02*
X115720000Y-118650000D01*
X112880000Y-122690000D02*
X112880000Y-118650000D01*
X115095000Y-122690000D02*
X115720000Y-122690000D01*
X115095000Y-118650000D02*
X115720000Y-118650000D01*
X112880000Y-118650000D02*
X113505000Y-118650000D01*
X155980000Y-64135000D02*
X156750000Y-64135000D01*
X164060000Y-64135000D02*
X163290000Y-64135000D01*
X156750000Y-65505000D02*
X163290000Y-65505000D01*
X163290000Y-65505000D02*
X163290000Y-62765000D01*
X163290000Y-62765000D02*
X156750000Y-62765000D01*
X156750000Y-62765000D02*
X156750000Y-65505000D01*
X151865000Y-55975000D02*
X151865000Y-49435000D01*
X151865000Y-49435000D02*
X149125000Y-49435000D01*
X149125000Y-49435000D02*
X149125000Y-55975000D01*
X150495000Y-56745000D02*
X150495000Y-55975000D01*
X149125000Y-55975000D02*
X151865000Y-55975000D01*
X150495000Y-48665000D02*
X150495000Y-49435000D01*
X65520000Y-44300000D02*
X61480000Y-44300000D01*
X61480000Y-47140000D02*
X61480000Y-46515000D01*
X65520000Y-47140000D02*
X65520000Y-46515000D01*
X65520000Y-47140000D02*
X61480000Y-47140000D01*
X65520000Y-44925000D02*
X65520000Y-44300000D01*
X61480000Y-44925000D02*
X61480000Y-44300000D01*
X76935000Y-55975000D02*
X76935000Y-49435000D01*
X74195000Y-55975000D02*
X76935000Y-55975000D01*
X75565000Y-56745000D02*
X75565000Y-55975000D01*
X75565000Y-48665000D02*
X75565000Y-49435000D01*
X74195000Y-49435000D02*
X74195000Y-55975000D01*
X76935000Y-49435000D02*
X74195000Y-49435000D01*
X70255000Y-64135000D02*
X71025000Y-64135000D01*
X77565000Y-65505000D02*
X77565000Y-62765000D01*
X71025000Y-62765000D02*
X71025000Y-65505000D01*
X71025000Y-65505000D02*
X77565000Y-65505000D01*
X78335000Y-64135000D02*
X77565000Y-64135000D01*
X77565000Y-62765000D02*
X71025000Y-62765000D01*
X113130000Y-49435000D02*
X110390000Y-49435000D01*
X110390000Y-49435000D02*
X110390000Y-55975000D01*
X111760000Y-48665000D02*
X111760000Y-49435000D01*
X113130000Y-55975000D02*
X113130000Y-49435000D01*
X111760000Y-56745000D02*
X111760000Y-55975000D01*
X110390000Y-55975000D02*
X113130000Y-55975000D01*
X55785000Y-62765000D02*
X55785000Y-65505000D01*
X62325000Y-62765000D02*
X55785000Y-62765000D01*
X63095000Y-64135000D02*
X62325000Y-64135000D01*
X55015000Y-64135000D02*
X55785000Y-64135000D01*
X62325000Y-65505000D02*
X62325000Y-62765000D01*
X55785000Y-65505000D02*
X62325000Y-65505000D01*
X106795000Y-44925000D02*
X106795000Y-44300000D01*
X102755000Y-44925000D02*
X102755000Y-44300000D01*
X106795000Y-44300000D02*
X102755000Y-44300000D01*
X102755000Y-47140000D02*
X102755000Y-46515000D01*
X106795000Y-47140000D02*
X106795000Y-46515000D01*
X106795000Y-47140000D02*
X102755000Y-47140000D01*
X80375000Y-42605000D02*
X82025000Y-42605000D01*
X82025000Y-24705000D02*
X76725000Y-24705000D01*
X82025000Y-42605000D02*
X82025000Y-24705000D01*
X76725000Y-24705000D02*
X76725000Y-42605000D01*
X76725000Y-42605000D02*
X78375000Y-42605000D01*
X80375000Y-42605000D02*
G75*
G03*
X78375000Y-42605000I-1000000J0D01*
G01*
X55135000Y-42605000D02*
X56785000Y-42605000D01*
X60435000Y-22165000D02*
X55135000Y-22165000D01*
X55135000Y-22165000D02*
X55135000Y-42605000D01*
X60435000Y-42605000D02*
X60435000Y-22165000D01*
X58785000Y-42605000D02*
X60435000Y-42605000D01*
X58785000Y-42605000D02*
G75*
G03*
X56785000Y-42605000I-1000000J0D01*
G01*
X109490000Y-124400000D02*
X107840000Y-124400000D01*
X107840000Y-142300000D02*
X113140000Y-142300000D01*
X113140000Y-142300000D02*
X113140000Y-124400000D01*
X113140000Y-124400000D02*
X111490000Y-124400000D01*
X107840000Y-124400000D02*
X107840000Y-142300000D01*
X109490000Y-124400000D02*
G75*
G03*
X111490000Y-124400000I1000000J0D01*
G01*
X88790000Y-22165000D02*
X88790000Y-42605000D01*
X92440000Y-42605000D02*
X94090000Y-42605000D01*
X88790000Y-42605000D02*
X90440000Y-42605000D01*
X94090000Y-42605000D02*
X94090000Y-22165000D01*
X94090000Y-22165000D02*
X88790000Y-22165000D01*
X92440000Y-42605000D02*
G75*
G03*
X90440000Y-42605000I-1000000J0D01*
G01*
X79475000Y-55975000D02*
X79475000Y-49435000D01*
X78105000Y-56745000D02*
X78105000Y-55975000D01*
X76735000Y-49435000D02*
X76735000Y-55975000D01*
X76735000Y-55975000D02*
X79475000Y-55975000D01*
X78105000Y-48665000D02*
X78105000Y-49435000D01*
X79475000Y-49435000D02*
X76735000Y-49435000D01*
X129635000Y-65505000D02*
X129635000Y-62765000D01*
X123095000Y-62765000D02*
X123095000Y-65505000D01*
X130405000Y-64135000D02*
X129635000Y-64135000D01*
X122325000Y-64135000D02*
X123095000Y-64135000D01*
X129635000Y-62765000D02*
X123095000Y-62765000D01*
X123095000Y-65505000D02*
X129635000Y-65505000D01*
X179070000Y-48665000D02*
X179070000Y-49435000D01*
X180440000Y-49435000D02*
X177700000Y-49435000D01*
X179070000Y-56745000D02*
X179070000Y-55975000D01*
X180440000Y-55975000D02*
X180440000Y-49435000D01*
X177700000Y-55975000D02*
X180440000Y-55975000D01*
X177700000Y-49435000D02*
X177700000Y-55975000D01*
X147955000Y-48665000D02*
X147955000Y-49435000D01*
X146585000Y-55975000D02*
X149325000Y-55975000D01*
X149325000Y-49435000D02*
X146585000Y-49435000D01*
X146585000Y-49435000D02*
X146585000Y-55975000D01*
X147955000Y-56745000D02*
X147955000Y-55975000D01*
X149325000Y-55975000D02*
X149325000Y-49435000D01*
X100605000Y-54485000D02*
X100605000Y-55838333D01*
X102235000Y-58545000D02*
X103505000Y-58545000D01*
X93225000Y-54485000D02*
X93225000Y-55838333D01*
X88265000Y-58545000D02*
X88265000Y-54485000D01*
X97945000Y-54485000D02*
X97945000Y-55838333D01*
X87425000Y-54485000D02*
X87425000Y-55838333D01*
X100965000Y-55838333D02*
X99695000Y-55838333D01*
X92075000Y-54485000D02*
X92075000Y-58545000D01*
X95045000Y-54485000D02*
X95045000Y-55838333D01*
X104845000Y-54485000D02*
X104845000Y-55838333D01*
X106045000Y-58545000D02*
X106045000Y-54485000D01*
X100965000Y-58545000D02*
X100965000Y-54485000D01*
X90205000Y-54485000D02*
X90205000Y-55838333D01*
X106045000Y-54485000D02*
X104775000Y-54485000D01*
X100965000Y-54485000D02*
X99695000Y-54485000D01*
X95885000Y-55838333D02*
X94615000Y-55838333D01*
X105085000Y-54485000D02*
X105085000Y-55838333D01*
X97705000Y-54485000D02*
X97705000Y-55838333D01*
X94685000Y-54485000D02*
X94685000Y-55838333D01*
X89845000Y-54485000D02*
X89845000Y-55838333D01*
X90685000Y-54485000D02*
X90685000Y-55838333D01*
X105325000Y-54485000D02*
X105325000Y-55838333D01*
X107830000Y-51565000D02*
X85209000Y-51565000D01*
X100245000Y-54485000D02*
X100245000Y-55838333D01*
X88265000Y-55838333D02*
X86995000Y-55838333D01*
X103505000Y-55838333D02*
X102235000Y-55838333D01*
X100365000Y-54485000D02*
X100365000Y-55838333D01*
X90805000Y-55838333D02*
X89535000Y-55838333D01*
X94615000Y-54485000D02*
X94615000Y-58545000D01*
X90445000Y-54485000D02*
X90445000Y-55838333D01*
X92075000Y-58545000D02*
X93345000Y-58545000D01*
X89535000Y-58545000D02*
X90805000Y-58545000D01*
X95165000Y-54485000D02*
X95165000Y-55838333D01*
X104775000Y-54485000D02*
X104775000Y-58545000D01*
X95285000Y-54485000D02*
X95285000Y-55838333D01*
X108070000Y-51325000D02*
X106687000Y-51325000D01*
X103145000Y-54485000D02*
X103145000Y-55838333D01*
X103025000Y-54485000D02*
X103025000Y-55838333D01*
X95765000Y-54485000D02*
X95765000Y-55838333D01*
X89965000Y-54485000D02*
X89965000Y-55838333D01*
X85209000Y-51565000D02*
X85209000Y-61465000D01*
X107830000Y-61465000D02*
X85209000Y-61465000D01*
X105925000Y-54485000D02*
X105925000Y-55838333D01*
X104965000Y-54485000D02*
X104965000Y-55838333D01*
X89605000Y-54485000D02*
X89605000Y-55838333D01*
X92985000Y-54485000D02*
X92985000Y-55838333D01*
X99695000Y-58545000D02*
X100965000Y-58545000D01*
X97585000Y-54485000D02*
X97585000Y-55838333D01*
X105205000Y-54485000D02*
X105205000Y-55838333D01*
X95885000Y-54485000D02*
X94615000Y-54485000D01*
X99695000Y-54485000D02*
X99695000Y-58545000D01*
X106045000Y-55838333D02*
X104775000Y-55838333D01*
X87185000Y-54485000D02*
X87185000Y-55838333D01*
X94615000Y-58545000D02*
X95885000Y-58545000D01*
X103385000Y-54485000D02*
X103385000Y-55838333D01*
X87065000Y-54485000D02*
X87065000Y-55838333D01*
X98425000Y-54485000D02*
X97155000Y-54485000D01*
X93105000Y-54485000D02*
X93105000Y-55838333D01*
X105445000Y-54485000D02*
X105445000Y-55838333D01*
X97345000Y-54485000D02*
X97345000Y-55838333D01*
X94925000Y-54485000D02*
X94925000Y-55838333D01*
X100485000Y-54485000D02*
X100485000Y-55838333D01*
X93345000Y-54485000D02*
X92075000Y-54485000D01*
X89535000Y-54485000D02*
X89535000Y-58545000D01*
X108070000Y-51325000D02*
X108070000Y-52709000D01*
X95645000Y-54485000D02*
X95645000Y-55838333D01*
X102545000Y-54485000D02*
X102545000Y-55838333D01*
X92145000Y-54485000D02*
X92145000Y-55838333D01*
X92505000Y-54485000D02*
X92505000Y-55838333D01*
X87305000Y-54485000D02*
X87305000Y-55838333D01*
X87785000Y-54485000D02*
X87785000Y-55838333D01*
X86995000Y-54485000D02*
X86995000Y-58545000D01*
X102785000Y-54485000D02*
X102785000Y-55838333D01*
X107830000Y-51565000D02*
X107830000Y-61465000D01*
X102665000Y-54485000D02*
X102665000Y-55838333D01*
X92865000Y-54485000D02*
X92865000Y-55838333D01*
X98065000Y-54485000D02*
X98065000Y-55838333D01*
X90805000Y-54485000D02*
X89535000Y-54485000D01*
X86995000Y-58545000D02*
X88265000Y-58545000D01*
X95525000Y-54485000D02*
X95525000Y-55838333D01*
X87905000Y-54485000D02*
X87905000Y-55838333D01*
X103265000Y-54485000D02*
X103265000Y-55838333D01*
X102235000Y-54485000D02*
X102235000Y-58545000D01*
X88265000Y-54485000D02*
X86995000Y-54485000D01*
X97225000Y-54485000D02*
X97225000Y-55838333D01*
X100845000Y-54485000D02*
X100845000Y-55838333D01*
X100125000Y-54485000D02*
X100125000Y-55838333D01*
X99885000Y-54485000D02*
X99885000Y-55838333D01*
X105805000Y-54485000D02*
X105805000Y-55838333D01*
X102305000Y-54485000D02*
X102305000Y-55838333D01*
X104775000Y-58545000D02*
X106045000Y-58545000D01*
X90085000Y-54485000D02*
X90085000Y-55838333D01*
X98425000Y-58545000D02*
X98425000Y-54485000D01*
X87665000Y-54485000D02*
X87665000Y-55838333D01*
X98185000Y-54485000D02*
X98185000Y-55838333D01*
X97825000Y-54485000D02*
X97825000Y-55838333D01*
X93345000Y-58545000D02*
X93345000Y-54485000D01*
X98305000Y-54485000D02*
X98305000Y-55838333D01*
X98425000Y-55838333D02*
X97155000Y-55838333D01*
X105565000Y-54485000D02*
X105565000Y-55838333D01*
X87545000Y-54485000D02*
X87545000Y-55838333D01*
X100005000Y-54485000D02*
X100005000Y-55838333D01*
X90325000Y-54485000D02*
X90325000Y-55838333D01*
X97155000Y-58545000D02*
X98425000Y-58545000D01*
X103505000Y-58545000D02*
X103505000Y-54485000D01*
X94805000Y-54485000D02*
X94805000Y-55838333D01*
X105685000Y-54485000D02*
X105685000Y-55838333D01*
X90565000Y-54485000D02*
X90565000Y-55838333D01*
X100725000Y-54485000D02*
X100725000Y-55838333D01*
X99765000Y-54485000D02*
X99765000Y-55838333D01*
X95405000Y-54485000D02*
X95405000Y-55838333D01*
X95885000Y-58545000D02*
X95885000Y-54485000D01*
X93345000Y-55838333D02*
X92075000Y-55838333D01*
X92625000Y-54485000D02*
X92625000Y-55838333D01*
X97155000Y-54485000D02*
X97155000Y-58545000D01*
X89725000Y-54485000D02*
X89725000Y-55838333D01*
X90805000Y-58545000D02*
X90805000Y-54485000D01*
X92745000Y-54485000D02*
X92745000Y-55838333D01*
X97465000Y-54485000D02*
X97465000Y-55838333D01*
X88025000Y-54485000D02*
X88025000Y-55838333D01*
X88145000Y-54485000D02*
X88145000Y-55838333D01*
X92265000Y-54485000D02*
X92265000Y-55838333D01*
X102425000Y-54485000D02*
X102425000Y-55838333D01*
X102905000Y-54485000D02*
X102905000Y-55838333D01*
X103505000Y-54485000D02*
X102235000Y-54485000D01*
X92385000Y-54485000D02*
X92385000Y-55838333D01*
X166875000Y-42567500D02*
X168525000Y-42567500D01*
X170525000Y-42567500D02*
X172175000Y-42567500D01*
X172175000Y-24667500D02*
X166875000Y-24667500D01*
X172175000Y-42567500D02*
X172175000Y-24667500D01*
X166875000Y-24667500D02*
X166875000Y-42567500D01*
X170525000Y-42567500D02*
G75*
G03*
X168525000Y-42567500I-1000000J0D01*
G01*
%LPC*%
D14*
X154940000Y-66675000D03*
D15*
X165100000Y-66675000D03*
D14*
X184150000Y-47625000D03*
D15*
X184150000Y-57785000D03*
D14*
X181610000Y-47625000D03*
D15*
X181610000Y-57785000D03*
D16*
X53975000Y-85725000D03*
D15*
X56515000Y-85725000D03*
X59055000Y-85725000D03*
X61595000Y-85725000D03*
X64135000Y-85725000D03*
X66675000Y-85725000D03*
X69215000Y-85725000D03*
X71755000Y-85725000D03*
X74295000Y-85725000D03*
X76835000Y-85725000D03*
X79375000Y-85725000D03*
X81915000Y-85725000D03*
X81915000Y-70485000D03*
X79375000Y-70485000D03*
X76835000Y-70485000D03*
X74295000Y-70485000D03*
X71755000Y-70485000D03*
X69215000Y-70485000D03*
X66675000Y-70485000D03*
X64135000Y-70485000D03*
X61595000Y-70485000D03*
X59055000Y-70485000D03*
X56515000Y-70485000D03*
X53975000Y-70485000D03*
D14*
X113030000Y-66675000D03*
D15*
X102870000Y-66675000D03*
D16*
X116840000Y-41275000D03*
D15*
X116840000Y-38735000D03*
X116840000Y-36195000D03*
X116840000Y-33655000D03*
X116840000Y-31115000D03*
X116840000Y-28575000D03*
X116840000Y-26035000D03*
X109220000Y-26035000D03*
X109220000Y-28575000D03*
X109220000Y-31115000D03*
X109220000Y-33655000D03*
X109220000Y-36195000D03*
X109220000Y-38735000D03*
X109220000Y-41275000D03*
D16*
X121920000Y-125730000D03*
D15*
X121920000Y-128270000D03*
X121920000Y-130810000D03*
X121920000Y-133350000D03*
X121920000Y-135890000D03*
X121920000Y-138430000D03*
X121920000Y-140970000D03*
X129540000Y-140970000D03*
X129540000Y-138430000D03*
X129540000Y-135890000D03*
X129540000Y-133350000D03*
X129540000Y-130810000D03*
X129540000Y-128270000D03*
X129540000Y-125730000D03*
D16*
X139700000Y-41275000D03*
D15*
X139700000Y-38735000D03*
X139700000Y-36195000D03*
X139700000Y-33655000D03*
X139700000Y-31115000D03*
X139700000Y-28575000D03*
X139700000Y-26035000D03*
X132080000Y-26035000D03*
X132080000Y-28575000D03*
X132080000Y-31115000D03*
X132080000Y-33655000D03*
X132080000Y-36195000D03*
X132080000Y-38735000D03*
X132080000Y-41275000D03*
D14*
X80645000Y-47625000D03*
D15*
X80645000Y-57785000D03*
D14*
X83185000Y-47625000D03*
D15*
X83185000Y-57785000D03*
D14*
X170815000Y-45720000D03*
X173315000Y-45720000D03*
X53975000Y-66675000D03*
D15*
X64135000Y-66675000D03*
D14*
X87630000Y-66675000D03*
D15*
X97790000Y-66675000D03*
D16*
X154940000Y-108585000D03*
D15*
X157480000Y-108585000D03*
X160020000Y-108585000D03*
X162560000Y-108585000D03*
X165100000Y-108585000D03*
X167640000Y-108585000D03*
X170180000Y-108585000D03*
X172720000Y-108585000D03*
X175260000Y-108585000D03*
X177800000Y-108585000D03*
X180340000Y-108585000D03*
X182880000Y-108585000D03*
X182880000Y-93345000D03*
X180340000Y-93345000D03*
X177800000Y-93345000D03*
X175260000Y-93345000D03*
X172720000Y-93345000D03*
X170180000Y-93345000D03*
X167640000Y-93345000D03*
X165100000Y-93345000D03*
X162560000Y-93345000D03*
X160020000Y-93345000D03*
X157480000Y-93345000D03*
X154940000Y-93345000D03*
D16*
X71755000Y-52705000D03*
D15*
X69215000Y-52705000D03*
X66675000Y-52705000D03*
X64135000Y-52705000D03*
X61595000Y-52705000D03*
X59055000Y-52705000D03*
X56515000Y-52705000D03*
X53975000Y-52705000D03*
X53975000Y-60325000D03*
X56515000Y-60325000D03*
X59055000Y-60325000D03*
X61595000Y-60325000D03*
X64135000Y-60325000D03*
X66675000Y-60325000D03*
X69215000Y-60325000D03*
X71755000Y-60325000D03*
D14*
X114300000Y-47625000D03*
D15*
X114300000Y-57785000D03*
D14*
X129540000Y-148590000D03*
X129540000Y-146090000D03*
D16*
X162550000Y-41232500D03*
D15*
X162550000Y-38692500D03*
X162550000Y-36152500D03*
X162550000Y-33612500D03*
X162550000Y-31072500D03*
X162550000Y-28532500D03*
X162550000Y-25992500D03*
X162550000Y-23452500D03*
X154930000Y-23452500D03*
X154930000Y-25992500D03*
X154930000Y-28532500D03*
X154930000Y-31072500D03*
X154930000Y-33612500D03*
X154930000Y-36152500D03*
X154930000Y-38692500D03*
X154930000Y-41232500D03*
D16*
X106045000Y-41275000D03*
D15*
X106045000Y-38735000D03*
X106045000Y-36195000D03*
X106045000Y-33655000D03*
X106045000Y-31115000D03*
X106045000Y-28575000D03*
X106045000Y-26035000D03*
X98425000Y-26035000D03*
X98425000Y-28575000D03*
X98425000Y-31115000D03*
X98425000Y-33655000D03*
X98425000Y-36195000D03*
X98425000Y-38735000D03*
X98425000Y-41275000D03*
D16*
X53975000Y-108585000D03*
D15*
X56515000Y-108585000D03*
X59055000Y-108585000D03*
X61595000Y-108585000D03*
X64135000Y-108585000D03*
X66675000Y-108585000D03*
X69215000Y-108585000D03*
X71755000Y-108585000D03*
X74295000Y-108585000D03*
X76835000Y-108585000D03*
X79375000Y-108585000D03*
X81915000Y-108585000D03*
X81915000Y-93345000D03*
X79375000Y-93345000D03*
X76835000Y-93345000D03*
X74295000Y-93345000D03*
X71755000Y-93345000D03*
X69215000Y-93345000D03*
X66675000Y-93345000D03*
X64135000Y-93345000D03*
X61595000Y-93345000D03*
X59055000Y-93345000D03*
X56515000Y-93345000D03*
X53975000Y-93345000D03*
D14*
X87630000Y-64135000D03*
D15*
X97790000Y-64135000D03*
D16*
X72390000Y-41275000D03*
D15*
X72390000Y-38735000D03*
X72390000Y-36195000D03*
X72390000Y-33655000D03*
X72390000Y-31115000D03*
X72390000Y-28575000D03*
X72390000Y-26035000D03*
X64770000Y-26035000D03*
X64770000Y-28575000D03*
X64770000Y-31115000D03*
X64770000Y-33655000D03*
X64770000Y-36195000D03*
X64770000Y-38735000D03*
X64770000Y-41275000D03*
D14*
X79375000Y-66675000D03*
D15*
X69215000Y-66675000D03*
D14*
X86000000Y-89535000D03*
X83500000Y-89535000D03*
X153670000Y-89535000D03*
X151170000Y-89535000D03*
X116840000Y-47625000D03*
D15*
X116840000Y-57785000D03*
D14*
X180340000Y-64135000D03*
D15*
X170180000Y-64135000D03*
D14*
X180340000Y-66675000D03*
D15*
X170180000Y-66675000D03*
D14*
X142875000Y-47625000D03*
D15*
X142875000Y-57785000D03*
D14*
X121285000Y-66675000D03*
D15*
X131445000Y-66675000D03*
D14*
X109220000Y-47625000D03*
D15*
X109220000Y-57785000D03*
D16*
X87630000Y-85725000D03*
D15*
X90170000Y-85725000D03*
X92710000Y-85725000D03*
X95250000Y-85725000D03*
X97790000Y-85725000D03*
X100330000Y-85725000D03*
X102870000Y-85725000D03*
X105410000Y-85725000D03*
X107950000Y-85725000D03*
X110490000Y-85725000D03*
X113030000Y-85725000D03*
X115570000Y-85725000D03*
X115570000Y-70485000D03*
X113030000Y-70485000D03*
X110490000Y-70485000D03*
X107950000Y-70485000D03*
X105410000Y-70485000D03*
X102870000Y-70485000D03*
X100330000Y-70485000D03*
X97790000Y-70485000D03*
X95250000Y-70485000D03*
X92710000Y-70485000D03*
X90170000Y-70485000D03*
X87630000Y-70485000D03*
D16*
X154945000Y-85725000D03*
D15*
X157485000Y-85725000D03*
X160025000Y-85725000D03*
X162565000Y-85725000D03*
X165105000Y-85725000D03*
X167645000Y-85725000D03*
X170185000Y-85725000D03*
X172725000Y-85725000D03*
X175265000Y-85725000D03*
X177805000Y-85725000D03*
X180345000Y-85725000D03*
X182885000Y-85725000D03*
X182885000Y-70485000D03*
X180345000Y-70485000D03*
X177805000Y-70485000D03*
X175265000Y-70485000D03*
X172725000Y-70485000D03*
X170185000Y-70485000D03*
X167645000Y-70485000D03*
X165105000Y-70485000D03*
X162565000Y-70485000D03*
X160025000Y-70485000D03*
X157485000Y-70485000D03*
X154945000Y-70485000D03*
D14*
X145415000Y-47625000D03*
D15*
X145415000Y-57785000D03*
D14*
X97790000Y-148590000D03*
X97790000Y-146090000D03*
D16*
X97790000Y-157480000D03*
D15*
X97790000Y-160020000D03*
X97790000Y-162560000D03*
X97790000Y-165100000D03*
X97790000Y-167640000D03*
X97790000Y-170180000D03*
X97790000Y-172720000D03*
X97790000Y-175260000D03*
X105410000Y-175260000D03*
X105410000Y-172720000D03*
X105410000Y-170180000D03*
X105410000Y-167640000D03*
X105410000Y-165100000D03*
X105410000Y-162560000D03*
X105410000Y-160020000D03*
X105410000Y-157480000D03*
D16*
X172720000Y-52705000D03*
D15*
X170180000Y-52705000D03*
X167640000Y-52705000D03*
X165100000Y-52705000D03*
X162560000Y-52705000D03*
X160020000Y-52705000D03*
X157480000Y-52705000D03*
X154940000Y-52705000D03*
X154940000Y-60325000D03*
X157480000Y-60325000D03*
X160020000Y-60325000D03*
X162560000Y-60325000D03*
X165100000Y-60325000D03*
X167640000Y-60325000D03*
X170180000Y-60325000D03*
X172720000Y-60325000D03*
D14*
X106680000Y-121920000D03*
X106680000Y-119420000D03*
X139700000Y-45720000D03*
X137200000Y-45720000D03*
D16*
X114300000Y-152400000D03*
D15*
X114300000Y-154940000D03*
X114300000Y-157480000D03*
X114300000Y-160020000D03*
X114300000Y-162560000D03*
X114300000Y-165100000D03*
X114300000Y-167640000D03*
X114300000Y-170180000D03*
X114300000Y-172720000D03*
X114300000Y-175260000D03*
X121920000Y-175260000D03*
X121920000Y-172720000D03*
X121920000Y-170180000D03*
X121920000Y-167640000D03*
X121920000Y-165100000D03*
X121920000Y-162560000D03*
X121920000Y-160020000D03*
X121920000Y-157480000D03*
X121920000Y-154940000D03*
X121920000Y-152400000D03*
D16*
X128905000Y-41275000D03*
D15*
X128905000Y-38735000D03*
X128905000Y-36195000D03*
X128905000Y-33655000D03*
X128905000Y-31115000D03*
X128905000Y-28575000D03*
X128905000Y-26035000D03*
X128905000Y-23495000D03*
X121285000Y-23495000D03*
X121285000Y-26035000D03*
X121285000Y-28575000D03*
X121285000Y-31115000D03*
X121285000Y-33655000D03*
X121285000Y-36195000D03*
X121285000Y-38735000D03*
X121285000Y-41275000D03*
D14*
X176530000Y-47582500D03*
D15*
X176530000Y-57742500D03*
D16*
X129540000Y-152400000D03*
D15*
X129540000Y-154940000D03*
X129540000Y-157480000D03*
X129540000Y-160020000D03*
X129540000Y-162560000D03*
X129540000Y-165100000D03*
X129540000Y-167640000D03*
X129540000Y-170180000D03*
X129540000Y-172720000D03*
X129540000Y-175260000D03*
X137160000Y-175260000D03*
X137160000Y-172720000D03*
X137160000Y-170180000D03*
X137160000Y-167640000D03*
X137160000Y-165100000D03*
X137160000Y-162560000D03*
X137160000Y-160020000D03*
X137160000Y-157480000D03*
X137160000Y-154940000D03*
X137160000Y-152400000D03*
D14*
X146685000Y-64135000D03*
D15*
X136525000Y-64135000D03*
D16*
X184140000Y-41237500D03*
D15*
X184140000Y-38697500D03*
X184140000Y-36157500D03*
X184140000Y-33617500D03*
X184140000Y-31077500D03*
X184140000Y-28537500D03*
X184140000Y-25997500D03*
X176520000Y-25997500D03*
X176520000Y-28537500D03*
X176520000Y-31077500D03*
X176520000Y-33617500D03*
X176520000Y-36157500D03*
X176520000Y-38697500D03*
X176520000Y-41237500D03*
D16*
X121285000Y-85725000D03*
D15*
X123825000Y-85725000D03*
X126365000Y-85725000D03*
X128905000Y-85725000D03*
X131445000Y-85725000D03*
X133985000Y-85725000D03*
X136525000Y-85725000D03*
X139065000Y-85725000D03*
X141605000Y-85725000D03*
X144145000Y-85725000D03*
X146685000Y-85725000D03*
X149225000Y-85725000D03*
X149225000Y-70485000D03*
X146685000Y-70485000D03*
X144145000Y-70485000D03*
X141605000Y-70485000D03*
X139065000Y-70485000D03*
X136525000Y-70485000D03*
X133985000Y-70485000D03*
X131445000Y-70485000D03*
X128905000Y-70485000D03*
X126365000Y-70485000D03*
X123825000Y-70485000D03*
X121285000Y-70485000D03*
D14*
X114300000Y-148590000D03*
X114300000Y-146090000D03*
D16*
X139065000Y-52705000D03*
D15*
X136525000Y-52705000D03*
X133985000Y-52705000D03*
X131445000Y-52705000D03*
X128905000Y-52705000D03*
X126365000Y-52705000D03*
X123825000Y-52705000D03*
X121285000Y-52705000D03*
X121285000Y-60325000D03*
X123825000Y-60325000D03*
X126365000Y-60325000D03*
X128905000Y-60325000D03*
X131445000Y-60325000D03*
X133985000Y-60325000D03*
X136525000Y-60325000D03*
X139065000Y-60325000D03*
D14*
X113030000Y-64135000D03*
D15*
X102870000Y-64135000D03*
D14*
X146685000Y-66675000D03*
D15*
X136525000Y-66675000D03*
D14*
X56475000Y-111760000D03*
X53975000Y-111760000D03*
D17*
X144665700Y-187960000D03*
X142125700Y-187960000D03*
X139585700Y-187960000D03*
X137045700Y-187960000D03*
X134505700Y-187960000D03*
X131965700Y-187960000D03*
X129425700Y-187960000D03*
X126885700Y-187960000D03*
X124345700Y-187960000D03*
X121805700Y-187960000D03*
X119265700Y-187960000D03*
X116725700Y-187960000D03*
X114185700Y-187960000D03*
X111645700Y-187960000D03*
X109105700Y-187960000D03*
X106565700Y-187960000D03*
X104025700Y-187960000D03*
X101485700Y-187960000D03*
X98945700Y-187960000D03*
X96405700Y-187960000D03*
X93865700Y-187960000D03*
X91325700Y-187960000D03*
D16*
X121285000Y-108585000D03*
D15*
X123825000Y-108585000D03*
X126365000Y-108585000D03*
X128905000Y-108585000D03*
X131445000Y-108585000D03*
X133985000Y-108585000D03*
X136525000Y-108585000D03*
X139065000Y-108585000D03*
X141605000Y-108585000D03*
X144145000Y-108585000D03*
X146685000Y-108585000D03*
X149225000Y-108585000D03*
X149225000Y-93345000D03*
X146685000Y-93345000D03*
X144145000Y-93345000D03*
X141605000Y-93345000D03*
X139065000Y-93345000D03*
X136525000Y-93345000D03*
X133985000Y-93345000D03*
X131445000Y-93345000D03*
X128905000Y-93345000D03*
X126365000Y-93345000D03*
X123825000Y-93345000D03*
X121285000Y-93345000D03*
D14*
X180360000Y-89535000D03*
X182860000Y-89535000D03*
D16*
X87630000Y-108585000D03*
D15*
X90170000Y-108585000D03*
X92710000Y-108585000D03*
X95250000Y-108585000D03*
X97790000Y-108585000D03*
X100330000Y-108585000D03*
X102870000Y-108585000D03*
X105410000Y-108585000D03*
X107950000Y-108585000D03*
X110490000Y-108585000D03*
X113030000Y-108585000D03*
X115570000Y-108585000D03*
X115570000Y-93345000D03*
X113030000Y-93345000D03*
X110490000Y-93345000D03*
X107950000Y-93345000D03*
X105410000Y-93345000D03*
X102870000Y-93345000D03*
X100330000Y-93345000D03*
X97790000Y-93345000D03*
X95250000Y-93345000D03*
X92710000Y-93345000D03*
X90170000Y-93345000D03*
X87630000Y-93345000D03*
D16*
X150495000Y-41275000D03*
D15*
X150495000Y-38735000D03*
X150495000Y-36195000D03*
X150495000Y-33655000D03*
X150495000Y-31115000D03*
X150495000Y-28575000D03*
X150495000Y-26035000D03*
X142875000Y-26035000D03*
X142875000Y-28575000D03*
X142875000Y-31115000D03*
X142875000Y-33655000D03*
X142875000Y-36195000D03*
X142875000Y-38735000D03*
X142875000Y-41275000D03*
D14*
X114300000Y-121920000D03*
X114300000Y-119420000D03*
X154940000Y-64135000D03*
D15*
X165100000Y-64135000D03*
D14*
X150495000Y-47625000D03*
D15*
X150495000Y-57785000D03*
D14*
X64750000Y-45720000D03*
X62250000Y-45720000D03*
X75565000Y-47625000D03*
D15*
X75565000Y-57785000D03*
D14*
X79375000Y-64135000D03*
D15*
X69215000Y-64135000D03*
D14*
X111760000Y-47625000D03*
D15*
X111760000Y-57785000D03*
D14*
X53975000Y-64135000D03*
D15*
X64135000Y-64135000D03*
D14*
X106025000Y-45720000D03*
X103525000Y-45720000D03*
D16*
X83185000Y-41275000D03*
D15*
X83185000Y-38735000D03*
X83185000Y-36195000D03*
X83185000Y-33655000D03*
X83185000Y-31115000D03*
X83185000Y-28575000D03*
X83185000Y-26035000D03*
X75565000Y-26035000D03*
X75565000Y-28575000D03*
X75565000Y-31115000D03*
X75565000Y-33655000D03*
X75565000Y-36195000D03*
X75565000Y-38735000D03*
X75565000Y-41275000D03*
D16*
X61595000Y-41275000D03*
D15*
X61595000Y-38735000D03*
X61595000Y-36195000D03*
X61595000Y-33655000D03*
X61595000Y-31115000D03*
X61595000Y-28575000D03*
X61595000Y-26035000D03*
X61595000Y-23495000D03*
X53975000Y-23495000D03*
X53975000Y-26035000D03*
X53975000Y-28575000D03*
X53975000Y-31115000D03*
X53975000Y-33655000D03*
X53975000Y-36195000D03*
X53975000Y-38735000D03*
X53975000Y-41275000D03*
D16*
X106680000Y-125730000D03*
D15*
X106680000Y-128270000D03*
X106680000Y-130810000D03*
X106680000Y-133350000D03*
X106680000Y-135890000D03*
X106680000Y-138430000D03*
X106680000Y-140970000D03*
X114300000Y-140970000D03*
X114300000Y-138430000D03*
X114300000Y-135890000D03*
X114300000Y-133350000D03*
X114300000Y-130810000D03*
X114300000Y-128270000D03*
X114300000Y-125730000D03*
D16*
X95250000Y-41275000D03*
D15*
X95250000Y-38735000D03*
X95250000Y-36195000D03*
X95250000Y-33655000D03*
X95250000Y-31115000D03*
X95250000Y-28575000D03*
X95250000Y-26035000D03*
X95250000Y-23495000D03*
X87630000Y-23495000D03*
X87630000Y-26035000D03*
X87630000Y-28575000D03*
X87630000Y-31115000D03*
X87630000Y-33655000D03*
X87630000Y-36195000D03*
X87630000Y-38735000D03*
X87630000Y-41275000D03*
D14*
X78105000Y-47625000D03*
D15*
X78105000Y-57785000D03*
D14*
X121285000Y-64135000D03*
D15*
X131445000Y-64135000D03*
D14*
X179070000Y-47625000D03*
D15*
X179070000Y-57785000D03*
D14*
X147955000Y-47625000D03*
D15*
X147955000Y-57785000D03*
D16*
X105410000Y-52705000D03*
D15*
X102870000Y-52705000D03*
X100330000Y-52705000D03*
X97790000Y-52705000D03*
X95250000Y-52705000D03*
X92710000Y-52705000D03*
X90170000Y-52705000D03*
X87630000Y-52705000D03*
X87630000Y-60325000D03*
X90170000Y-60325000D03*
X92710000Y-60325000D03*
X95250000Y-60325000D03*
X97790000Y-60325000D03*
X100330000Y-60325000D03*
X102870000Y-60325000D03*
X105410000Y-60325000D03*
D16*
X173335000Y-41237500D03*
D15*
X173335000Y-38697500D03*
X173335000Y-36157500D03*
X173335000Y-33617500D03*
X173335000Y-31077500D03*
X173335000Y-28537500D03*
X173335000Y-25997500D03*
X165715000Y-25997500D03*
X165715000Y-28537500D03*
X165715000Y-31077500D03*
X165715000Y-33617500D03*
X165715000Y-36157500D03*
X165715000Y-38697500D03*
X165715000Y-41237500D03*
M02*
