G04 #@! TF.GenerationSoftware,KiCad,Pcbnew,(6.0.0)*
G04 #@! TF.CreationDate,2022-08-18T21:38:13-04:00*
G04 #@! TF.ProjectId,intellivision t-card replic,696e7465-6c6c-4697-9669-73696f6e2074,rev?*
G04 #@! TF.SameCoordinates,Original*
G04 #@! TF.FileFunction,Copper,L1,Top*
G04 #@! TF.FilePolarity,Positive*
%FSLAX46Y46*%
G04 Gerber Fmt 4.6, Leading zero omitted, Abs format (unit mm)*
G04 Created by KiCad (PCBNEW (6.0.0)) date 2022-08-18 21:38:13*
%MOMM*%
%LPD*%
G01*
G04 APERTURE LIST*
G04 #@! TA.AperFunction,ComponentPad*
%ADD10C,1.600000*%
G04 #@! TD*
G04 #@! TA.AperFunction,ComponentPad*
%ADD11O,1.600000X1.600000*%
G04 #@! TD*
G04 #@! TA.AperFunction,ComponentPad*
%ADD12R,1.600000X1.600000*%
G04 #@! TD*
G04 #@! TA.AperFunction,ConnectorPad*
%ADD13R,1.270000X8.840000*%
G04 #@! TD*
G04 #@! TA.AperFunction,ViaPad*
%ADD14C,0.800000*%
G04 #@! TD*
G04 #@! TA.AperFunction,Conductor*
%ADD15C,1.000000*%
G04 #@! TD*
G04 #@! TA.AperFunction,Conductor*
%ADD16C,0.250000*%
G04 #@! TD*
G04 APERTURE END LIST*
D10*
X154940000Y-66675000D03*
D11*
X165100000Y-66675000D03*
D10*
X184150000Y-47625000D03*
D11*
X184150000Y-57785000D03*
D10*
X181610000Y-47625000D03*
D11*
X181610000Y-57785000D03*
D12*
X53975000Y-85725000D03*
D11*
X56515000Y-85725000D03*
X59055000Y-85725000D03*
X61595000Y-85725000D03*
X64135000Y-85725000D03*
X66675000Y-85725000D03*
X69215000Y-85725000D03*
X71755000Y-85725000D03*
X74295000Y-85725000D03*
X76835000Y-85725000D03*
X79375000Y-85725000D03*
X81915000Y-85725000D03*
X81915000Y-70485000D03*
X79375000Y-70485000D03*
X76835000Y-70485000D03*
X74295000Y-70485000D03*
X71755000Y-70485000D03*
X69215000Y-70485000D03*
X66675000Y-70485000D03*
X64135000Y-70485000D03*
X61595000Y-70485000D03*
X59055000Y-70485000D03*
X56515000Y-70485000D03*
X53975000Y-70485000D03*
D10*
X113030000Y-66675000D03*
D11*
X102870000Y-66675000D03*
D12*
X116840000Y-41275000D03*
D11*
X116840000Y-38735000D03*
X116840000Y-36195000D03*
X116840000Y-33655000D03*
X116840000Y-31115000D03*
X116840000Y-28575000D03*
X116840000Y-26035000D03*
X109220000Y-26035000D03*
X109220000Y-28575000D03*
X109220000Y-31115000D03*
X109220000Y-33655000D03*
X109220000Y-36195000D03*
X109220000Y-38735000D03*
X109220000Y-41275000D03*
D12*
X121920000Y-125730000D03*
D11*
X121920000Y-128270000D03*
X121920000Y-130810000D03*
X121920000Y-133350000D03*
X121920000Y-135890000D03*
X121920000Y-138430000D03*
X121920000Y-140970000D03*
X129540000Y-140970000D03*
X129540000Y-138430000D03*
X129540000Y-135890000D03*
X129540000Y-133350000D03*
X129540000Y-130810000D03*
X129540000Y-128270000D03*
X129540000Y-125730000D03*
D12*
X139700000Y-41275000D03*
D11*
X139700000Y-38735000D03*
X139700000Y-36195000D03*
X139700000Y-33655000D03*
X139700000Y-31115000D03*
X139700000Y-28575000D03*
X139700000Y-26035000D03*
X132080000Y-26035000D03*
X132080000Y-28575000D03*
X132080000Y-31115000D03*
X132080000Y-33655000D03*
X132080000Y-36195000D03*
X132080000Y-38735000D03*
X132080000Y-41275000D03*
D10*
X80645000Y-47625000D03*
D11*
X80645000Y-57785000D03*
D10*
X83185000Y-47625000D03*
D11*
X83185000Y-57785000D03*
D10*
X170815000Y-45720000D03*
X173315000Y-45720000D03*
X53975000Y-66675000D03*
D11*
X64135000Y-66675000D03*
D10*
X87630000Y-66675000D03*
D11*
X97790000Y-66675000D03*
D12*
X154940000Y-108585000D03*
D11*
X157480000Y-108585000D03*
X160020000Y-108585000D03*
X162560000Y-108585000D03*
X165100000Y-108585000D03*
X167640000Y-108585000D03*
X170180000Y-108585000D03*
X172720000Y-108585000D03*
X175260000Y-108585000D03*
X177800000Y-108585000D03*
X180340000Y-108585000D03*
X182880000Y-108585000D03*
X182880000Y-93345000D03*
X180340000Y-93345000D03*
X177800000Y-93345000D03*
X175260000Y-93345000D03*
X172720000Y-93345000D03*
X170180000Y-93345000D03*
X167640000Y-93345000D03*
X165100000Y-93345000D03*
X162560000Y-93345000D03*
X160020000Y-93345000D03*
X157480000Y-93345000D03*
X154940000Y-93345000D03*
D12*
X71755000Y-52705000D03*
D11*
X69215000Y-52705000D03*
X66675000Y-52705000D03*
X64135000Y-52705000D03*
X61595000Y-52705000D03*
X59055000Y-52705000D03*
X56515000Y-52705000D03*
X53975000Y-52705000D03*
X53975000Y-60325000D03*
X56515000Y-60325000D03*
X59055000Y-60325000D03*
X61595000Y-60325000D03*
X64135000Y-60325000D03*
X66675000Y-60325000D03*
X69215000Y-60325000D03*
X71755000Y-60325000D03*
D10*
X114300000Y-47625000D03*
D11*
X114300000Y-57785000D03*
D10*
X129540000Y-148590000D03*
X129540000Y-146090000D03*
D12*
X162550000Y-41232500D03*
D11*
X162550000Y-38692500D03*
X162550000Y-36152500D03*
X162550000Y-33612500D03*
X162550000Y-31072500D03*
X162550000Y-28532500D03*
X162550000Y-25992500D03*
X162550000Y-23452500D03*
X154930000Y-23452500D03*
X154930000Y-25992500D03*
X154930000Y-28532500D03*
X154930000Y-31072500D03*
X154930000Y-33612500D03*
X154930000Y-36152500D03*
X154930000Y-38692500D03*
X154930000Y-41232500D03*
D12*
X106045000Y-41275000D03*
D11*
X106045000Y-38735000D03*
X106045000Y-36195000D03*
X106045000Y-33655000D03*
X106045000Y-31115000D03*
X106045000Y-28575000D03*
X106045000Y-26035000D03*
X98425000Y-26035000D03*
X98425000Y-28575000D03*
X98425000Y-31115000D03*
X98425000Y-33655000D03*
X98425000Y-36195000D03*
X98425000Y-38735000D03*
X98425000Y-41275000D03*
D12*
X53975000Y-108585000D03*
D11*
X56515000Y-108585000D03*
X59055000Y-108585000D03*
X61595000Y-108585000D03*
X64135000Y-108585000D03*
X66675000Y-108585000D03*
X69215000Y-108585000D03*
X71755000Y-108585000D03*
X74295000Y-108585000D03*
X76835000Y-108585000D03*
X79375000Y-108585000D03*
X81915000Y-108585000D03*
X81915000Y-93345000D03*
X79375000Y-93345000D03*
X76835000Y-93345000D03*
X74295000Y-93345000D03*
X71755000Y-93345000D03*
X69215000Y-93345000D03*
X66675000Y-93345000D03*
X64135000Y-93345000D03*
X61595000Y-93345000D03*
X59055000Y-93345000D03*
X56515000Y-93345000D03*
X53975000Y-93345000D03*
D10*
X87630000Y-64135000D03*
D11*
X97790000Y-64135000D03*
D12*
X72390000Y-41275000D03*
D11*
X72390000Y-38735000D03*
X72390000Y-36195000D03*
X72390000Y-33655000D03*
X72390000Y-31115000D03*
X72390000Y-28575000D03*
X72390000Y-26035000D03*
X64770000Y-26035000D03*
X64770000Y-28575000D03*
X64770000Y-31115000D03*
X64770000Y-33655000D03*
X64770000Y-36195000D03*
X64770000Y-38735000D03*
X64770000Y-41275000D03*
D10*
X79375000Y-66675000D03*
D11*
X69215000Y-66675000D03*
D10*
X86000000Y-89535000D03*
X83500000Y-89535000D03*
X153670000Y-89535000D03*
X151170000Y-89535000D03*
X116840000Y-47625000D03*
D11*
X116840000Y-57785000D03*
D10*
X180340000Y-64135000D03*
D11*
X170180000Y-64135000D03*
D10*
X180340000Y-66675000D03*
D11*
X170180000Y-66675000D03*
D10*
X142875000Y-47625000D03*
D11*
X142875000Y-57785000D03*
D10*
X121285000Y-66675000D03*
D11*
X131445000Y-66675000D03*
D10*
X109220000Y-47625000D03*
D11*
X109220000Y-57785000D03*
D12*
X87630000Y-85725000D03*
D11*
X90170000Y-85725000D03*
X92710000Y-85725000D03*
X95250000Y-85725000D03*
X97790000Y-85725000D03*
X100330000Y-85725000D03*
X102870000Y-85725000D03*
X105410000Y-85725000D03*
X107950000Y-85725000D03*
X110490000Y-85725000D03*
X113030000Y-85725000D03*
X115570000Y-85725000D03*
X115570000Y-70485000D03*
X113030000Y-70485000D03*
X110490000Y-70485000D03*
X107950000Y-70485000D03*
X105410000Y-70485000D03*
X102870000Y-70485000D03*
X100330000Y-70485000D03*
X97790000Y-70485000D03*
X95250000Y-70485000D03*
X92710000Y-70485000D03*
X90170000Y-70485000D03*
X87630000Y-70485000D03*
D12*
X154945000Y-85725000D03*
D11*
X157485000Y-85725000D03*
X160025000Y-85725000D03*
X162565000Y-85725000D03*
X165105000Y-85725000D03*
X167645000Y-85725000D03*
X170185000Y-85725000D03*
X172725000Y-85725000D03*
X175265000Y-85725000D03*
X177805000Y-85725000D03*
X180345000Y-85725000D03*
X182885000Y-85725000D03*
X182885000Y-70485000D03*
X180345000Y-70485000D03*
X177805000Y-70485000D03*
X175265000Y-70485000D03*
X172725000Y-70485000D03*
X170185000Y-70485000D03*
X167645000Y-70485000D03*
X165105000Y-70485000D03*
X162565000Y-70485000D03*
X160025000Y-70485000D03*
X157485000Y-70485000D03*
X154945000Y-70485000D03*
D10*
X145415000Y-47625000D03*
D11*
X145415000Y-57785000D03*
D10*
X97790000Y-148590000D03*
X97790000Y-146090000D03*
D12*
X97790000Y-157480000D03*
D11*
X97790000Y-160020000D03*
X97790000Y-162560000D03*
X97790000Y-165100000D03*
X97790000Y-167640000D03*
X97790000Y-170180000D03*
X97790000Y-172720000D03*
X97790000Y-175260000D03*
X105410000Y-175260000D03*
X105410000Y-172720000D03*
X105410000Y-170180000D03*
X105410000Y-167640000D03*
X105410000Y-165100000D03*
X105410000Y-162560000D03*
X105410000Y-160020000D03*
X105410000Y-157480000D03*
D12*
X172720000Y-52705000D03*
D11*
X170180000Y-52705000D03*
X167640000Y-52705000D03*
X165100000Y-52705000D03*
X162560000Y-52705000D03*
X160020000Y-52705000D03*
X157480000Y-52705000D03*
X154940000Y-52705000D03*
X154940000Y-60325000D03*
X157480000Y-60325000D03*
X160020000Y-60325000D03*
X162560000Y-60325000D03*
X165100000Y-60325000D03*
X167640000Y-60325000D03*
X170180000Y-60325000D03*
X172720000Y-60325000D03*
D10*
X106680000Y-121920000D03*
X106680000Y-119420000D03*
X139700000Y-45720000D03*
X137200000Y-45720000D03*
D12*
X114300000Y-152400000D03*
D11*
X114300000Y-154940000D03*
X114300000Y-157480000D03*
X114300000Y-160020000D03*
X114300000Y-162560000D03*
X114300000Y-165100000D03*
X114300000Y-167640000D03*
X114300000Y-170180000D03*
X114300000Y-172720000D03*
X114300000Y-175260000D03*
X121920000Y-175260000D03*
X121920000Y-172720000D03*
X121920000Y-170180000D03*
X121920000Y-167640000D03*
X121920000Y-165100000D03*
X121920000Y-162560000D03*
X121920000Y-160020000D03*
X121920000Y-157480000D03*
X121920000Y-154940000D03*
X121920000Y-152400000D03*
D12*
X128905000Y-41275000D03*
D11*
X128905000Y-38735000D03*
X128905000Y-36195000D03*
X128905000Y-33655000D03*
X128905000Y-31115000D03*
X128905000Y-28575000D03*
X128905000Y-26035000D03*
X128905000Y-23495000D03*
X121285000Y-23495000D03*
X121285000Y-26035000D03*
X121285000Y-28575000D03*
X121285000Y-31115000D03*
X121285000Y-33655000D03*
X121285000Y-36195000D03*
X121285000Y-38735000D03*
X121285000Y-41275000D03*
D10*
X176530000Y-47582500D03*
D11*
X176530000Y-57742500D03*
D12*
X129540000Y-152400000D03*
D11*
X129540000Y-154940000D03*
X129540000Y-157480000D03*
X129540000Y-160020000D03*
X129540000Y-162560000D03*
X129540000Y-165100000D03*
X129540000Y-167640000D03*
X129540000Y-170180000D03*
X129540000Y-172720000D03*
X129540000Y-175260000D03*
X137160000Y-175260000D03*
X137160000Y-172720000D03*
X137160000Y-170180000D03*
X137160000Y-167640000D03*
X137160000Y-165100000D03*
X137160000Y-162560000D03*
X137160000Y-160020000D03*
X137160000Y-157480000D03*
X137160000Y-154940000D03*
X137160000Y-152400000D03*
D10*
X146685000Y-64135000D03*
D11*
X136525000Y-64135000D03*
D12*
X184140000Y-41237500D03*
D11*
X184140000Y-38697500D03*
X184140000Y-36157500D03*
X184140000Y-33617500D03*
X184140000Y-31077500D03*
X184140000Y-28537500D03*
X184140000Y-25997500D03*
X176520000Y-25997500D03*
X176520000Y-28537500D03*
X176520000Y-31077500D03*
X176520000Y-33617500D03*
X176520000Y-36157500D03*
X176520000Y-38697500D03*
X176520000Y-41237500D03*
D12*
X121285000Y-85725000D03*
D11*
X123825000Y-85725000D03*
X126365000Y-85725000D03*
X128905000Y-85725000D03*
X131445000Y-85725000D03*
X133985000Y-85725000D03*
X136525000Y-85725000D03*
X139065000Y-85725000D03*
X141605000Y-85725000D03*
X144145000Y-85725000D03*
X146685000Y-85725000D03*
X149225000Y-85725000D03*
X149225000Y-70485000D03*
X146685000Y-70485000D03*
X144145000Y-70485000D03*
X141605000Y-70485000D03*
X139065000Y-70485000D03*
X136525000Y-70485000D03*
X133985000Y-70485000D03*
X131445000Y-70485000D03*
X128905000Y-70485000D03*
X126365000Y-70485000D03*
X123825000Y-70485000D03*
X121285000Y-70485000D03*
D10*
X114300000Y-148590000D03*
X114300000Y-146090000D03*
D12*
X139065000Y-52705000D03*
D11*
X136525000Y-52705000D03*
X133985000Y-52705000D03*
X131445000Y-52705000D03*
X128905000Y-52705000D03*
X126365000Y-52705000D03*
X123825000Y-52705000D03*
X121285000Y-52705000D03*
X121285000Y-60325000D03*
X123825000Y-60325000D03*
X126365000Y-60325000D03*
X128905000Y-60325000D03*
X131445000Y-60325000D03*
X133985000Y-60325000D03*
X136525000Y-60325000D03*
X139065000Y-60325000D03*
D10*
X113030000Y-64135000D03*
D11*
X102870000Y-64135000D03*
D10*
X146685000Y-66675000D03*
D11*
X136525000Y-66675000D03*
D10*
X56475000Y-111760000D03*
X53975000Y-111760000D03*
D13*
X144665700Y-187960000D03*
X142125700Y-187960000D03*
X139585700Y-187960000D03*
X137045700Y-187960000D03*
X134505700Y-187960000D03*
X131965700Y-187960000D03*
X129425700Y-187960000D03*
X126885700Y-187960000D03*
X124345700Y-187960000D03*
X121805700Y-187960000D03*
X119265700Y-187960000D03*
X116725700Y-187960000D03*
X114185700Y-187960000D03*
X111645700Y-187960000D03*
X109105700Y-187960000D03*
X106565700Y-187960000D03*
X104025700Y-187960000D03*
X101485700Y-187960000D03*
X98945700Y-187960000D03*
X96405700Y-187960000D03*
X93865700Y-187960000D03*
X91325700Y-187960000D03*
D12*
X121285000Y-108585000D03*
D11*
X123825000Y-108585000D03*
X126365000Y-108585000D03*
X128905000Y-108585000D03*
X131445000Y-108585000D03*
X133985000Y-108585000D03*
X136525000Y-108585000D03*
X139065000Y-108585000D03*
X141605000Y-108585000D03*
X144145000Y-108585000D03*
X146685000Y-108585000D03*
X149225000Y-108585000D03*
X149225000Y-93345000D03*
X146685000Y-93345000D03*
X144145000Y-93345000D03*
X141605000Y-93345000D03*
X139065000Y-93345000D03*
X136525000Y-93345000D03*
X133985000Y-93345000D03*
X131445000Y-93345000D03*
X128905000Y-93345000D03*
X126365000Y-93345000D03*
X123825000Y-93345000D03*
X121285000Y-93345000D03*
D10*
X180360000Y-89535000D03*
X182860000Y-89535000D03*
D12*
X87630000Y-108585000D03*
D11*
X90170000Y-108585000D03*
X92710000Y-108585000D03*
X95250000Y-108585000D03*
X97790000Y-108585000D03*
X100330000Y-108585000D03*
X102870000Y-108585000D03*
X105410000Y-108585000D03*
X107950000Y-108585000D03*
X110490000Y-108585000D03*
X113030000Y-108585000D03*
X115570000Y-108585000D03*
X115570000Y-93345000D03*
X113030000Y-93345000D03*
X110490000Y-93345000D03*
X107950000Y-93345000D03*
X105410000Y-93345000D03*
X102870000Y-93345000D03*
X100330000Y-93345000D03*
X97790000Y-93345000D03*
X95250000Y-93345000D03*
X92710000Y-93345000D03*
X90170000Y-93345000D03*
X87630000Y-93345000D03*
D12*
X150495000Y-41275000D03*
D11*
X150495000Y-38735000D03*
X150495000Y-36195000D03*
X150495000Y-33655000D03*
X150495000Y-31115000D03*
X150495000Y-28575000D03*
X150495000Y-26035000D03*
X142875000Y-26035000D03*
X142875000Y-28575000D03*
X142875000Y-31115000D03*
X142875000Y-33655000D03*
X142875000Y-36195000D03*
X142875000Y-38735000D03*
X142875000Y-41275000D03*
D10*
X114300000Y-121920000D03*
X114300000Y-119420000D03*
X154940000Y-64135000D03*
D11*
X165100000Y-64135000D03*
D10*
X150495000Y-47625000D03*
D11*
X150495000Y-57785000D03*
D10*
X64750000Y-45720000D03*
X62250000Y-45720000D03*
X75565000Y-47625000D03*
D11*
X75565000Y-57785000D03*
D10*
X79375000Y-64135000D03*
D11*
X69215000Y-64135000D03*
D10*
X111760000Y-47625000D03*
D11*
X111760000Y-57785000D03*
D10*
X53975000Y-64135000D03*
D11*
X64135000Y-64135000D03*
D10*
X106025000Y-45720000D03*
X103525000Y-45720000D03*
D12*
X83185000Y-41275000D03*
D11*
X83185000Y-38735000D03*
X83185000Y-36195000D03*
X83185000Y-33655000D03*
X83185000Y-31115000D03*
X83185000Y-28575000D03*
X83185000Y-26035000D03*
X75565000Y-26035000D03*
X75565000Y-28575000D03*
X75565000Y-31115000D03*
X75565000Y-33655000D03*
X75565000Y-36195000D03*
X75565000Y-38735000D03*
X75565000Y-41275000D03*
D12*
X61595000Y-41275000D03*
D11*
X61595000Y-38735000D03*
X61595000Y-36195000D03*
X61595000Y-33655000D03*
X61595000Y-31115000D03*
X61595000Y-28575000D03*
X61595000Y-26035000D03*
X61595000Y-23495000D03*
X53975000Y-23495000D03*
X53975000Y-26035000D03*
X53975000Y-28575000D03*
X53975000Y-31115000D03*
X53975000Y-33655000D03*
X53975000Y-36195000D03*
X53975000Y-38735000D03*
X53975000Y-41275000D03*
D12*
X106680000Y-125730000D03*
D11*
X106680000Y-128270000D03*
X106680000Y-130810000D03*
X106680000Y-133350000D03*
X106680000Y-135890000D03*
X106680000Y-138430000D03*
X106680000Y-140970000D03*
X114300000Y-140970000D03*
X114300000Y-138430000D03*
X114300000Y-135890000D03*
X114300000Y-133350000D03*
X114300000Y-130810000D03*
X114300000Y-128270000D03*
X114300000Y-125730000D03*
D12*
X95250000Y-41275000D03*
D11*
X95250000Y-38735000D03*
X95250000Y-36195000D03*
X95250000Y-33655000D03*
X95250000Y-31115000D03*
X95250000Y-28575000D03*
X95250000Y-26035000D03*
X95250000Y-23495000D03*
X87630000Y-23495000D03*
X87630000Y-26035000D03*
X87630000Y-28575000D03*
X87630000Y-31115000D03*
X87630000Y-33655000D03*
X87630000Y-36195000D03*
X87630000Y-38735000D03*
X87630000Y-41275000D03*
D10*
X78105000Y-47625000D03*
D11*
X78105000Y-57785000D03*
D10*
X121285000Y-64135000D03*
D11*
X131445000Y-64135000D03*
D10*
X179070000Y-47625000D03*
D11*
X179070000Y-57785000D03*
D10*
X147955000Y-47625000D03*
D11*
X147955000Y-57785000D03*
D12*
X105410000Y-52705000D03*
D11*
X102870000Y-52705000D03*
X100330000Y-52705000D03*
X97790000Y-52705000D03*
X95250000Y-52705000D03*
X92710000Y-52705000D03*
X90170000Y-52705000D03*
X87630000Y-52705000D03*
X87630000Y-60325000D03*
X90170000Y-60325000D03*
X92710000Y-60325000D03*
X95250000Y-60325000D03*
X97790000Y-60325000D03*
X100330000Y-60325000D03*
X102870000Y-60325000D03*
X105410000Y-60325000D03*
D12*
X173335000Y-41237500D03*
D11*
X173335000Y-38697500D03*
X173335000Y-36157500D03*
X173335000Y-33617500D03*
X173335000Y-31077500D03*
X173335000Y-28537500D03*
X173335000Y-25997500D03*
X165715000Y-25997500D03*
X165715000Y-28537500D03*
X165715000Y-31077500D03*
X165715000Y-33617500D03*
X165715000Y-36157500D03*
X165715000Y-38697500D03*
X165715000Y-41237500D03*
D14*
X95250000Y-121920000D03*
X129654300Y-180454300D03*
X182880000Y-114300000D03*
X149225000Y-114300000D03*
X82175000Y-60325000D03*
X183515000Y-62230000D03*
X144780000Y-180340000D03*
X133985000Y-156845000D03*
X106680000Y-61595000D03*
X174000000Y-63000000D03*
X140970000Y-62865000D03*
X107950000Y-105410000D03*
X141605000Y-105410000D03*
X175260000Y-105410000D03*
X137795000Y-123825000D03*
X133985000Y-123825000D03*
X132080000Y-158750000D03*
X142500000Y-65000000D03*
X108000000Y-64000000D03*
X176000000Y-65000000D03*
X133350000Y-122555000D03*
X138430000Y-126365000D03*
X110490000Y-106680000D03*
X144145000Y-106680000D03*
X177800000Y-106680000D03*
X144145000Y-66675000D03*
X131445000Y-168910000D03*
X111000000Y-66500000D03*
X177805000Y-66695000D03*
X139700000Y-171450000D03*
X149000000Y-68500000D03*
X115500000Y-68500000D03*
X120015000Y-169545000D03*
X128270000Y-177165000D03*
X139700000Y-177165000D03*
X118745000Y-170815000D03*
X146685000Y-95250000D03*
X180340000Y-95250000D03*
X113030000Y-95250000D03*
X117475000Y-166370000D03*
X117475000Y-163830000D03*
X177800000Y-96520000D03*
X144145000Y-96520000D03*
X110490000Y-96520000D03*
X107950000Y-97790000D03*
X111125000Y-173990000D03*
X141605000Y-97790000D03*
X175260000Y-97790000D03*
X110490000Y-87630000D03*
X144150000Y-87625000D03*
X177805000Y-87625000D03*
X109855000Y-175895000D03*
X108585000Y-157480000D03*
X175265000Y-88895000D03*
X107950000Y-88900000D03*
X141459511Y-88410489D03*
X139065000Y-99060000D03*
X105410000Y-99060000D03*
X107315000Y-156210000D03*
X172720000Y-99060000D03*
X163830000Y-54610000D03*
X162560000Y-46355000D03*
X155575000Y-46355000D03*
X130029511Y-54470489D03*
X128905000Y-46355000D03*
X121285000Y-46355000D03*
X96520000Y-54610000D03*
X87630000Y-45720000D03*
X95250000Y-45720000D03*
X69215000Y-37465000D03*
X107950000Y-153670000D03*
X135255000Y-152400000D03*
X123190000Y-119380000D03*
X90000000Y-75500000D03*
X157480000Y-75565000D03*
X128270000Y-119380000D03*
X123500000Y-75500000D03*
X125095000Y-115570000D03*
X126365000Y-74135000D03*
X160020000Y-74295000D03*
X92500000Y-74500000D03*
X130810000Y-115570000D03*
X170815000Y-37465000D03*
X105410000Y-90805000D03*
X139065000Y-90805000D03*
X172720000Y-90805000D03*
X125730000Y-172720000D03*
X162560000Y-81915000D03*
X128939511Y-82060489D03*
X95250000Y-82200000D03*
X160020000Y-81280000D03*
X92710000Y-81240000D03*
X126385000Y-81240000D03*
X167640000Y-83820000D03*
X100255000Y-83820000D03*
X133980000Y-83820000D03*
X90175489Y-80099511D03*
X123750489Y-80099511D03*
X157480000Y-80010000D03*
X165100000Y-82550000D03*
X131465000Y-82785000D03*
X97790000Y-82785000D03*
X87630000Y-79270000D03*
X121230000Y-79270000D03*
X154940000Y-79375000D03*
X75565000Y-111125000D03*
X103505000Y-120650000D03*
X100330000Y-123825000D03*
X78105000Y-109855000D03*
X100330000Y-119380000D03*
X97790000Y-119380000D03*
X60325000Y-111125000D03*
X97790000Y-123825000D03*
X133985000Y-115570000D03*
X152400000Y-108585000D03*
X102235000Y-134620000D03*
X132715000Y-117475000D03*
X179070000Y-104140000D03*
X127635000Y-113665000D03*
X149225000Y-49530000D03*
X79375000Y-50800000D03*
X80645000Y-110490000D03*
X131445000Y-102235000D03*
X97790000Y-102235000D03*
X165100000Y-102235000D03*
D15*
X111760000Y-47625000D02*
X109220000Y-47625000D01*
X142875000Y-47625000D02*
X150495000Y-47625000D01*
X75565000Y-43180000D02*
X64770000Y-43180000D01*
X176520000Y-41237500D02*
X176520000Y-43170000D01*
X54204511Y-47219511D02*
X64540489Y-47219511D01*
X105680000Y-43180000D02*
X98425000Y-43180000D01*
X87630000Y-41275000D02*
X87630000Y-43180000D01*
X64750000Y-43200000D02*
X64750000Y-41295000D01*
X165715000Y-43140000D02*
X165745000Y-43170000D01*
X154315000Y-43170000D02*
X154305000Y-43180000D01*
X107930000Y-47625000D02*
X106025000Y-45720000D01*
X142875000Y-47625000D02*
X141605000Y-47625000D01*
X111760000Y-47625000D02*
X116840000Y-47625000D01*
X106025000Y-43525000D02*
X105680000Y-43180000D01*
X121285000Y-41275000D02*
X121285000Y-43180000D01*
X105410000Y-157480000D02*
X105410000Y-148590000D01*
X154930000Y-41232500D02*
X154930000Y-43150000D01*
X132080000Y-42545000D02*
X132715000Y-43180000D01*
X132080000Y-41275000D02*
X132080000Y-42545000D01*
X154930000Y-43150000D02*
X154950000Y-43170000D01*
X139700000Y-45720000D02*
X139700000Y-43200000D01*
X53975000Y-41275000D02*
X53975000Y-46990000D01*
X64750000Y-41295000D02*
X64770000Y-41275000D01*
X176520000Y-47572500D02*
X176530000Y-47582500D01*
X114300000Y-148590000D02*
X121920000Y-148590000D01*
X170815000Y-45720000D02*
X170815000Y-43180000D01*
X109220000Y-47625000D02*
X107930000Y-47625000D01*
X64770000Y-43180000D02*
X64750000Y-43200000D01*
X121285000Y-64135000D02*
X113030000Y-64135000D01*
X170805000Y-43170000D02*
X165745000Y-43170000D01*
X154940000Y-64135000D02*
X146685000Y-64135000D01*
X87630000Y-43180000D02*
X75565000Y-43180000D01*
X106025000Y-45720000D02*
X106025000Y-43525000D01*
X129540000Y-121920000D02*
X129540000Y-125730000D01*
X64750000Y-47010000D02*
X64750000Y-45720000D01*
X109220000Y-41275000D02*
X109220000Y-43180000D01*
X132715000Y-43180000D02*
X121285000Y-43180000D01*
X75565000Y-43180000D02*
X75565000Y-41275000D01*
X114300000Y-121920000D02*
X129540000Y-121920000D01*
X97790000Y-148590000D02*
X105410000Y-148590000D01*
X170815000Y-43180000D02*
X170805000Y-43170000D01*
X121920000Y-148590000D02*
X129540000Y-148590000D01*
X176530000Y-47582500D02*
X184150000Y-47582500D01*
X176520000Y-43170000D02*
X176520000Y-47572500D01*
X121285000Y-43180000D02*
X109220000Y-43180000D01*
X165715000Y-41237500D02*
X165715000Y-43140000D01*
X64540489Y-47219511D02*
X64750000Y-47010000D01*
X98425000Y-43180000D02*
X87630000Y-43180000D01*
X114300000Y-121920000D02*
X114300000Y-125730000D01*
X64750000Y-45720000D02*
X64750000Y-43200000D01*
X75565000Y-47625000D02*
X83185000Y-47625000D01*
X165745000Y-43170000D02*
X154950000Y-43170000D01*
X137160000Y-148590000D02*
X137160000Y-152400000D01*
X154305000Y-43180000D02*
X139680000Y-43180000D01*
X154950000Y-43170000D02*
X154315000Y-43170000D01*
X87630000Y-64135000D02*
X79375000Y-64135000D01*
X121920000Y-152400000D02*
X121920000Y-148590000D01*
X139680000Y-43180000D02*
X132715000Y-43180000D01*
X98425000Y-41275000D02*
X98425000Y-43180000D01*
X139700000Y-43200000D02*
X139680000Y-43180000D01*
X75565000Y-47625000D02*
X75565000Y-43180000D01*
X129540000Y-148590000D02*
X137160000Y-148590000D01*
X106680000Y-121920000D02*
X114300000Y-121920000D01*
X176520000Y-43170000D02*
X170805000Y-43170000D01*
X105410000Y-148590000D02*
X114300000Y-148590000D01*
X106680000Y-121920000D02*
X95250000Y-121920000D01*
X141605000Y-47625000D02*
X139700000Y-45720000D01*
X53975000Y-46990000D02*
X54204511Y-47219511D01*
X109220000Y-43180000D02*
X105680000Y-43180000D01*
X106045000Y-26035000D02*
X106045000Y-19050000D01*
X97790000Y-175260000D02*
X97790000Y-180340000D01*
X112395000Y-145495000D02*
X112990000Y-146090000D01*
X61595000Y-19050000D02*
X47625000Y-19050000D01*
X91440000Y-114935000D02*
X91440000Y-121920000D01*
X91400000Y-146090000D02*
X91325700Y-146164300D01*
X116725700Y-180682900D02*
X116954300Y-180454300D01*
X173335000Y-19070000D02*
X173355000Y-19050000D01*
X162550000Y-23452500D02*
X162550000Y-19060000D01*
X91325700Y-180454300D02*
X91325700Y-146164300D01*
X132600700Y-180454300D02*
X144665700Y-180454300D01*
X114414300Y-180454300D02*
X116954300Y-180454300D01*
X188595000Y-19050000D02*
X184785000Y-19050000D01*
X47625000Y-114935000D02*
X91440000Y-114935000D01*
X114300000Y-175260000D02*
X114300000Y-180568600D01*
X144665700Y-180454300D02*
X144780000Y-180340000D01*
X47625000Y-19050000D02*
X47625000Y-60325000D01*
X47625000Y-112395000D02*
X47625000Y-114935000D01*
X85319511Y-110084511D02*
X85090000Y-109855000D01*
X139700000Y-19050000D02*
X128550000Y-19050000D01*
X139700000Y-26035000D02*
X139700000Y-19050000D01*
X97790000Y-146090000D02*
X91400000Y-146090000D01*
X114185700Y-187960000D02*
X114185700Y-180682900D01*
X91325700Y-187960000D02*
X91325700Y-180454300D01*
X53975000Y-111760000D02*
X48260000Y-111760000D01*
X48260000Y-111760000D02*
X47625000Y-112395000D01*
X106045000Y-19050000D02*
X95250000Y-19050000D01*
X129540000Y-146090000D02*
X121960000Y-146090000D01*
X129654300Y-180454300D02*
X132600700Y-180454300D01*
X128905000Y-19405000D02*
X128550000Y-19050000D01*
X106680000Y-140970000D02*
X106680000Y-146050000D01*
X116725700Y-187960000D02*
X116725700Y-180682900D01*
X83185000Y-19050000D02*
X72390000Y-19050000D01*
X129540000Y-138430000D02*
X131445000Y-138430000D01*
X172720000Y-60325000D02*
X154940000Y-60325000D01*
X131445000Y-146050000D02*
X131405000Y-146090000D01*
X106680000Y-119420000D02*
X114300000Y-119420000D01*
X162560000Y-19050000D02*
X150495000Y-19050000D01*
X91325700Y-146164300D02*
X91325700Y-122034300D01*
X72390000Y-26035000D02*
X72390000Y-19050000D01*
X121920000Y-140970000D02*
X121920000Y-146050000D01*
X95250000Y-23495000D02*
X95250000Y-19050000D01*
X121805700Y-187960000D02*
X121805700Y-180454300D01*
X72390000Y-19050000D02*
X61595000Y-19050000D01*
X119265700Y-187960000D02*
X119265700Y-180454300D01*
X115340489Y-110084511D02*
X85319511Y-110084511D01*
X111645700Y-187960000D02*
X111645700Y-180454300D01*
X97675700Y-180454300D02*
X111645700Y-180454300D01*
X149225000Y-114300000D02*
X143510000Y-114300000D01*
X121805700Y-180454300D02*
X129654300Y-180454300D01*
X114300000Y-135890000D02*
X112395000Y-135890000D01*
X106680000Y-146050000D02*
X106720000Y-146090000D01*
X121960000Y-146090000D02*
X114300000Y-146090000D01*
X91325700Y-180454300D02*
X97675700Y-180454300D01*
X128550000Y-19050000D02*
X116840000Y-19050000D01*
X173355000Y-19050000D02*
X162560000Y-19050000D01*
X173335000Y-25997500D02*
X173335000Y-19070000D01*
X114300000Y-180568600D02*
X114185700Y-180682900D01*
X184140000Y-19695000D02*
X184785000Y-19050000D01*
X183515000Y-59690000D02*
X183513469Y-59691531D01*
X106720000Y-146090000D02*
X97790000Y-146090000D01*
X85090000Y-109855000D02*
X85090000Y-108585000D01*
X154940000Y-60325000D02*
X139065000Y-60325000D01*
X115570000Y-109855000D02*
X115340489Y-110084511D01*
X184140000Y-25997500D02*
X184140000Y-19695000D01*
X121285000Y-60325000D02*
X105410000Y-60325000D01*
X183513469Y-59691531D02*
X172720000Y-59691531D01*
X116954300Y-180454300D02*
X119265700Y-180454300D01*
X85090000Y-108585000D02*
X81915000Y-108585000D01*
X97790000Y-180340000D02*
X97675700Y-180454300D01*
X83185000Y-26035000D02*
X83185000Y-19050000D01*
X112395000Y-135890000D02*
X112395000Y-145495000D01*
X114185700Y-180682900D02*
X114414300Y-180454300D01*
X53975000Y-60325000D02*
X47625000Y-60325000D01*
X131965700Y-181089300D02*
X132600700Y-180454300D01*
X121920000Y-146050000D02*
X121960000Y-146090000D01*
X128905000Y-23495000D02*
X128905000Y-19405000D01*
X150495000Y-26035000D02*
X150495000Y-19050000D01*
X114300000Y-135890000D02*
X121920000Y-135890000D01*
X131965700Y-187960000D02*
X131965700Y-181089300D01*
X91325700Y-122034300D02*
X91440000Y-121920000D01*
X116840000Y-19050000D02*
X106045000Y-19050000D01*
X188595000Y-114300000D02*
X188595000Y-19050000D01*
X139065000Y-60325000D02*
X121285000Y-60325000D01*
X131405000Y-146090000D02*
X129540000Y-146090000D01*
X119265700Y-180454300D02*
X121805700Y-180454300D01*
X183515000Y-62230000D02*
X183515000Y-59690000D01*
X114300000Y-146090000D02*
X112990000Y-146090000D01*
X47625000Y-60325000D02*
X47625000Y-112395000D01*
X172720000Y-59691531D02*
X172720000Y-60325000D01*
X150495000Y-19050000D02*
X139700000Y-19050000D01*
X82175000Y-60325000D02*
X53975000Y-60325000D01*
X131445000Y-138430000D02*
X131445000Y-146050000D01*
X182880000Y-114300000D02*
X188595000Y-114300000D01*
X184785000Y-19050000D02*
X173355000Y-19050000D01*
X95250000Y-19050000D02*
X83185000Y-19050000D01*
X112990000Y-146090000D02*
X106720000Y-146090000D01*
D16*
X105410000Y-167640000D02*
X97790000Y-175260000D01*
D15*
X111645700Y-180454300D02*
X114414300Y-180454300D01*
X105410000Y-60325000D02*
X82175000Y-60325000D01*
X162550000Y-19060000D02*
X162560000Y-19050000D01*
X61595000Y-23495000D02*
X61595000Y-19050000D01*
X116840000Y-26035000D02*
X116840000Y-19050000D01*
X115570000Y-108585000D02*
X115570000Y-109855000D01*
X149225000Y-114300000D02*
X182880000Y-114300000D01*
D16*
X174000000Y-63000000D02*
X172657500Y-61657500D01*
X105410000Y-72390000D02*
X105410000Y-70485000D01*
X74373560Y-73103560D02*
X104696440Y-73103560D01*
X124460000Y-157480000D02*
X125730000Y-156210000D01*
X140970000Y-61595000D02*
X140970000Y-62865000D01*
X172595000Y-61595000D02*
X172657500Y-61657500D01*
X106680000Y-61595000D02*
X140970000Y-61595000D01*
X125730000Y-156210000D02*
X133350000Y-156210000D01*
X104696440Y-73103560D02*
X105410000Y-72390000D01*
X133350000Y-156210000D02*
X133985000Y-156845000D01*
X121920000Y-157480000D02*
X124460000Y-157480000D01*
X71755000Y-70485000D02*
X74373560Y-73103560D01*
X140970000Y-61595000D02*
X172595000Y-61595000D01*
X137795000Y-123825000D02*
X133985000Y-123825000D01*
X107950000Y-105410000D02*
X77470000Y-105410000D01*
X141605000Y-105410000D02*
X107950000Y-105410000D01*
X77470000Y-105410000D02*
X74295000Y-108585000D01*
X175260000Y-105410000D02*
X141605000Y-105410000D01*
X142500000Y-65000000D02*
X145270000Y-62230000D01*
X141000000Y-65000000D02*
X142500000Y-65000000D01*
X121920000Y-160020000D02*
X124460000Y-160020000D01*
X104140000Y-69850000D02*
X104775000Y-69215000D01*
X103240960Y-72654040D02*
X104140000Y-71755000D01*
X108000000Y-64000000D02*
X108989511Y-63010489D01*
X104140000Y-71755000D02*
X104140000Y-69850000D01*
X76464040Y-72654040D02*
X103240960Y-72654040D01*
X125730000Y-158750000D02*
X132080000Y-158750000D01*
X124460000Y-160020000D02*
X125730000Y-158750000D01*
X171730000Y-62230000D02*
X174500000Y-65000000D01*
X174500000Y-65000000D02*
X176000000Y-65000000D01*
X139010489Y-63010489D02*
X141000000Y-65000000D01*
X104775000Y-69215000D02*
X106680000Y-69215000D01*
X74295000Y-70485000D02*
X76464040Y-72654040D01*
X145270000Y-62230000D02*
X171730000Y-62230000D01*
X106680000Y-69215000D02*
X107950000Y-70485000D01*
X108989511Y-63010489D02*
X139010489Y-63010489D01*
X137795000Y-122555000D02*
X133350000Y-122555000D01*
X110490000Y-106680000D02*
X78740000Y-106680000D01*
X78740000Y-106680000D02*
X76835000Y-108585000D01*
X138519511Y-123279511D02*
X137795000Y-122555000D01*
X177800000Y-106680000D02*
X144145000Y-106680000D01*
X138519511Y-126275489D02*
X138519511Y-123279511D01*
X144145000Y-106680000D02*
X110490000Y-106680000D01*
X138430000Y-126365000D02*
X138519511Y-126275489D01*
X146050000Y-65405000D02*
X172905000Y-65405000D01*
X111000000Y-66500000D02*
X112095000Y-65405000D01*
X76835000Y-70485000D02*
X76835000Y-71569520D01*
X76835000Y-71569520D02*
X77470000Y-72204520D01*
X126365000Y-168910000D02*
X125095000Y-167640000D01*
X102235000Y-68580000D02*
X108585000Y-68580000D01*
X144145000Y-66675000D02*
X145415000Y-65405000D01*
X101150480Y-72204520D02*
X101600000Y-71755000D01*
X145415000Y-65405000D02*
X146050000Y-65405000D01*
X131445000Y-168910000D02*
X126365000Y-168910000D01*
X174195000Y-66695000D02*
X177805000Y-66695000D01*
X77470000Y-72204520D02*
X101150480Y-72204520D01*
X139700000Y-65405000D02*
X140970000Y-66675000D01*
X112095000Y-65405000D02*
X139700000Y-65405000D01*
X140970000Y-66675000D02*
X144145000Y-66675000D01*
X108585000Y-68580000D02*
X110490000Y-70485000D01*
X101600000Y-71755000D02*
X101600000Y-69215000D01*
X172905000Y-65405000D02*
X174195000Y-66695000D01*
X101600000Y-69215000D02*
X102235000Y-68580000D01*
X125095000Y-167640000D02*
X121920000Y-167640000D01*
X180340000Y-108585000D02*
X179215489Y-107460489D01*
X129540000Y-167640000D02*
X132738722Y-167640000D01*
X136548722Y-171450000D02*
X139700000Y-171450000D01*
X112884511Y-108439511D02*
X112884511Y-107460489D01*
X179215489Y-107460489D02*
X146539511Y-107460489D01*
X146539511Y-107460489D02*
X112884511Y-107460489D01*
X132738722Y-167640000D02*
X136548722Y-171450000D01*
X146685000Y-107605978D02*
X146539511Y-107460489D01*
X113030000Y-108585000D02*
X112884511Y-108439511D01*
X112884511Y-107460489D02*
X80499511Y-107460489D01*
X146685000Y-108585000D02*
X146685000Y-107605978D01*
X80499511Y-107460489D02*
X79375000Y-108585000D01*
X108439511Y-65259511D02*
X111680000Y-68500000D01*
X98110300Y-67945000D02*
X100795789Y-65259511D01*
X79375000Y-70485000D02*
X81915000Y-67945000D01*
X149000000Y-68500000D02*
X178360000Y-68500000D01*
X178360000Y-68500000D02*
X180345000Y-70485000D01*
X100795789Y-65259511D02*
X108439511Y-65259511D01*
X111680000Y-68500000D02*
X115500000Y-68500000D01*
X81915000Y-67945000D02*
X98110300Y-67945000D01*
X115500000Y-68500000D02*
X149000000Y-68500000D01*
X116694511Y-94469511D02*
X148100489Y-94469511D01*
X83039511Y-94469511D02*
X114445489Y-94469511D01*
X115570000Y-93345000D02*
X116694511Y-94469511D01*
X126365000Y-170180000D02*
X129540000Y-170180000D01*
X149225000Y-93345000D02*
X150349511Y-94469511D01*
X128270000Y-177165000D02*
X139700000Y-177165000D01*
X114445489Y-94469511D02*
X115570000Y-93345000D01*
X120015000Y-169545000D02*
X120650000Y-168910000D01*
X148100489Y-94469511D02*
X149225000Y-93345000D01*
X150349511Y-94469511D02*
X181755489Y-94469511D01*
X125095000Y-168910000D02*
X126365000Y-170180000D01*
X181755489Y-94469511D02*
X182880000Y-93345000D01*
X81915000Y-93345000D02*
X83039511Y-94469511D01*
X120650000Y-168910000D02*
X125095000Y-168910000D01*
X78105000Y-69850000D02*
X77470000Y-69215000D01*
X118110000Y-170180000D02*
X114300000Y-170180000D01*
X77470000Y-69215000D02*
X71120000Y-69215000D01*
X81915000Y-70485000D02*
X80645000Y-71755000D01*
X78740000Y-71755000D02*
X78105000Y-71120000D01*
X118110000Y-170180000D02*
X118745000Y-170815000D01*
X71648080Y-73553080D02*
X112501920Y-73553080D01*
X150349511Y-71609511D02*
X149225000Y-70485000D01*
X149225000Y-70485000D02*
X148100489Y-71609511D01*
X182885000Y-70485000D02*
X181760489Y-71609511D01*
X148100489Y-71609511D02*
X116694511Y-71609511D01*
X112501920Y-73553080D02*
X115570000Y-70485000D01*
X70485000Y-69850000D02*
X70485000Y-72390000D01*
X116694511Y-71609511D02*
X115570000Y-70485000D01*
X80645000Y-71755000D02*
X78740000Y-71755000D01*
X181760489Y-71609511D02*
X150349511Y-71609511D01*
X78105000Y-71120000D02*
X78105000Y-69850000D01*
X71120000Y-69215000D02*
X70485000Y-69850000D01*
X70485000Y-72390000D02*
X71648080Y-73553080D01*
X146685000Y-95250000D02*
X113030000Y-95250000D01*
X113030000Y-95250000D02*
X81280000Y-95250000D01*
X117475000Y-166370000D02*
X133350000Y-166370000D01*
X180340000Y-95250000D02*
X146685000Y-95250000D01*
X133350000Y-166370000D02*
X137160000Y-170180000D01*
X81280000Y-95250000D02*
X79375000Y-93345000D01*
X133350000Y-163830000D02*
X117475000Y-163830000D01*
X110490000Y-96520000D02*
X80010000Y-96520000D01*
X137160000Y-167640000D02*
X133350000Y-163830000D01*
X80010000Y-96520000D02*
X76835000Y-93345000D01*
X177800000Y-96520000D02*
X144145000Y-96520000D01*
X144145000Y-96520000D02*
X110490000Y-96520000D01*
X179220489Y-86849511D02*
X147809511Y-86849511D01*
X145560489Y-86849511D02*
X114154511Y-86849511D01*
X114154511Y-86849511D02*
X113030000Y-85725000D01*
X79520489Y-86849511D02*
X79375000Y-86704022D01*
X180345000Y-85725000D02*
X179220489Y-86849511D01*
X113030000Y-85725000D02*
X111905489Y-86849511D01*
X146685000Y-85725000D02*
X145560489Y-86849511D01*
X79375000Y-86704022D02*
X79375000Y-85725000D01*
X111905489Y-86849511D02*
X79520489Y-86849511D01*
X147809511Y-86849511D02*
X146685000Y-85725000D01*
X78740000Y-97790000D02*
X74295000Y-93345000D01*
X111125000Y-173990000D02*
X111125000Y-161290000D01*
X141605000Y-97790000D02*
X107950000Y-97790000D01*
X135890000Y-161290000D02*
X137160000Y-160020000D01*
X111125000Y-161290000D02*
X135890000Y-161290000D01*
X175260000Y-97790000D02*
X141605000Y-97790000D01*
X107950000Y-97790000D02*
X78740000Y-97790000D01*
X109855000Y-160020000D02*
X114300000Y-160020000D01*
X109855000Y-175895000D02*
X109855000Y-160020000D01*
X78730000Y-87630000D02*
X76835000Y-87630000D01*
X177805000Y-87625000D02*
X144150000Y-87625000D01*
X78735000Y-87625000D02*
X78730000Y-87630000D01*
X76835000Y-87630000D02*
X76835000Y-85725000D01*
X144150000Y-87625000D02*
X78735000Y-87625000D01*
X93865700Y-181724300D02*
X93980000Y-181610000D01*
X106045000Y-181610000D02*
X106565700Y-182130700D01*
X93980000Y-181610000D02*
X106045000Y-181610000D01*
X93865700Y-187960000D02*
X93865700Y-181724300D01*
X106565700Y-182130700D02*
X106565700Y-187960000D01*
X74295000Y-88265000D02*
X74295000Y-85725000D01*
X141459511Y-88410489D02*
X107804511Y-88410489D01*
X109855000Y-157480000D02*
X114300000Y-157480000D01*
X74440489Y-88410489D02*
X74295000Y-88265000D01*
X175265000Y-88895000D02*
X174780489Y-88410489D01*
X107950000Y-88900000D02*
X107950000Y-88555978D01*
X109855000Y-157480000D02*
X108585000Y-157480000D01*
X107804511Y-88410489D02*
X74440489Y-88410489D01*
X107950000Y-88555978D02*
X107804511Y-88410489D01*
X174780489Y-88410489D02*
X141459511Y-88410489D01*
X103505000Y-182245000D02*
X104025700Y-182765700D01*
X96405700Y-182359300D02*
X96520000Y-182245000D01*
X96405700Y-187960000D02*
X96405700Y-182359300D01*
X96520000Y-182245000D02*
X103505000Y-182245000D01*
X104025700Y-182765700D02*
X104025700Y-187960000D01*
X172720000Y-99060000D02*
X139065000Y-99060000D01*
X133350000Y-153670000D02*
X137160000Y-157480000D01*
X107315000Y-156210000D02*
X109855000Y-156210000D01*
X109855000Y-156210000D02*
X123825000Y-156210000D01*
X77470000Y-99060000D02*
X71755000Y-93345000D01*
X123825000Y-156210000D02*
X126365000Y-153670000D01*
X126365000Y-153670000D02*
X133350000Y-153670000D01*
X105410000Y-99060000D02*
X77470000Y-99060000D01*
X139065000Y-99060000D02*
X105410000Y-99060000D01*
X98945700Y-182994300D02*
X99060000Y-182880000D01*
X99060000Y-182880000D02*
X100965000Y-182880000D01*
X101485700Y-183400700D02*
X101485700Y-187960000D01*
X101485700Y-183400700D02*
X100965000Y-182880000D01*
X98945700Y-187960000D02*
X98945700Y-182994300D01*
X172720000Y-52705000D02*
X179070000Y-52705000D01*
X179070000Y-52705000D02*
X184150000Y-57785000D01*
X163830000Y-54610000D02*
X168275000Y-54610000D01*
X181610000Y-57785000D02*
X178435000Y-54610000D01*
X172085000Y-54610000D02*
X178435000Y-54610000D01*
X168275000Y-54610000D02*
X170180000Y-52705000D01*
X170180000Y-52705000D02*
X172085000Y-54610000D01*
X174662500Y-31077500D02*
X173335000Y-31077500D01*
X178397500Y-31077500D02*
X177165000Y-29845000D01*
X165715000Y-31077500D02*
X173335000Y-31077500D01*
X177165000Y-29845000D02*
X175895000Y-29845000D01*
X175895000Y-29845000D02*
X174662500Y-31077500D01*
X184140000Y-31077500D02*
X178397500Y-31077500D01*
X161392989Y-56617989D02*
X157480000Y-52705000D01*
X179070000Y-57785000D02*
X177902989Y-56617989D01*
X177902989Y-56617989D02*
X161392989Y-56617989D01*
X176530000Y-57742500D02*
X159977500Y-57742500D01*
X155575000Y-46355000D02*
X162560000Y-46355000D01*
X159977500Y-57742500D02*
X154940000Y-52705000D01*
X150495000Y-57785000D02*
X145415000Y-52705000D01*
X145415000Y-52705000D02*
X139065000Y-52705000D01*
X130029511Y-54470489D02*
X134759511Y-54470489D01*
X136525000Y-52705000D02*
X137795000Y-53975000D01*
X137795000Y-53975000D02*
X144145000Y-53975000D01*
X144145000Y-53975000D02*
X147955000Y-57785000D01*
X134759511Y-54470489D02*
X136525000Y-52705000D01*
X139700000Y-31115000D02*
X140865978Y-31115000D01*
X139700000Y-31115000D02*
X132080000Y-31115000D01*
X140865978Y-31115000D02*
X141990489Y-29990489D01*
X149370489Y-29990489D02*
X141990489Y-29990489D01*
X150495000Y-31115000D02*
X149370489Y-29990489D01*
X144145000Y-56515000D02*
X127635000Y-56515000D01*
X127635000Y-56515000D02*
X123825000Y-52705000D01*
X145415000Y-57785000D02*
X144145000Y-56515000D01*
X142875000Y-57785000D02*
X126365000Y-57785000D01*
X128905000Y-46355000D02*
X121285000Y-46355000D01*
X126365000Y-57785000D02*
X121285000Y-52705000D01*
X111760000Y-52705000D02*
X105410000Y-52705000D01*
X116840000Y-57785000D02*
X111760000Y-52705000D01*
X96520000Y-54610000D02*
X100965000Y-54610000D01*
X100965000Y-54610000D02*
X102870000Y-52705000D01*
X110490000Y-53975000D02*
X114300000Y-57785000D01*
X102870000Y-52705000D02*
X104140000Y-53975000D01*
X104140000Y-53975000D02*
X110490000Y-53975000D01*
X106045000Y-31115000D02*
X98425000Y-31115000D01*
X106045000Y-31115000D02*
X107385000Y-31115000D01*
X115570000Y-29845000D02*
X116840000Y-31115000D01*
X107385000Y-31115000D02*
X108655000Y-29845000D01*
X108655000Y-29845000D02*
X115570000Y-29845000D01*
X93980000Y-56515000D02*
X90170000Y-52705000D01*
X110490000Y-56515000D02*
X93980000Y-56515000D01*
X111760000Y-57785000D02*
X110490000Y-56515000D01*
X95250000Y-45720000D02*
X87630000Y-45720000D01*
X109220000Y-57785000D02*
X92710000Y-57785000D01*
X92710000Y-57785000D02*
X87630000Y-52705000D01*
X83185000Y-57785000D02*
X78105000Y-52705000D01*
X78105000Y-52705000D02*
X71755000Y-52705000D01*
X80645000Y-57785000D02*
X76689511Y-53829511D01*
X62865000Y-37465000D02*
X62547500Y-37147500D01*
X63500000Y-37465000D02*
X62865000Y-37465000D01*
X70339511Y-53829511D02*
X69215000Y-52705000D01*
X61595000Y-36195000D02*
X62547500Y-37147500D01*
X69215000Y-37465000D02*
X63500000Y-37465000D01*
X62865000Y-37465000D02*
X61595000Y-36195000D01*
X76689511Y-53829511D02*
X70339511Y-53829511D01*
X81915000Y-29845000D02*
X83185000Y-31115000D01*
X74930000Y-29845000D02*
X81915000Y-29845000D01*
X64770000Y-31115000D02*
X72390000Y-31115000D01*
X72390000Y-31115000D02*
X73660000Y-31115000D01*
X73660000Y-31115000D02*
X74930000Y-29845000D01*
X60325000Y-56515000D02*
X56515000Y-52705000D01*
X76835000Y-56515000D02*
X60325000Y-56515000D01*
X78105000Y-57785000D02*
X76835000Y-56515000D01*
X75565000Y-57785000D02*
X59055000Y-57785000D01*
X59055000Y-57785000D02*
X53975000Y-52705000D01*
X53340000Y-40005000D02*
X52500000Y-40845000D01*
X52500000Y-40845000D02*
X52500000Y-51230000D01*
X55880000Y-41275000D02*
X54610000Y-40005000D01*
X61595000Y-41275000D02*
X55880000Y-41275000D01*
X52500000Y-51230000D02*
X53975000Y-52705000D01*
X54610000Y-40005000D02*
X53340000Y-40005000D01*
X125095000Y-175260000D02*
X126365000Y-173990000D01*
X123825000Y-153670000D02*
X107950000Y-153670000D01*
X126365000Y-173990000D02*
X130810000Y-173990000D01*
X121920000Y-175260000D02*
X125095000Y-175260000D01*
X123970489Y-153524511D02*
X123825000Y-153670000D01*
X132080000Y-175260000D02*
X137160000Y-175260000D01*
X126365000Y-151130000D02*
X133985000Y-151130000D01*
X130810000Y-173990000D02*
X132080000Y-175260000D01*
X123970489Y-153524511D02*
X126365000Y-151130000D01*
X133985000Y-151130000D02*
X135255000Y-152400000D01*
X157480000Y-75565000D02*
X90065000Y-75565000D01*
X61530000Y-75500000D02*
X56515000Y-70485000D01*
X90065000Y-75565000D02*
X90000000Y-75500000D01*
X90000000Y-75500000D02*
X61530000Y-75500000D01*
X128270000Y-119380000D02*
X123190000Y-119380000D01*
X180340000Y-29845000D02*
X184785000Y-29845000D01*
X184785000Y-29845000D02*
X185420000Y-30480000D01*
X185420000Y-43815000D02*
X187320960Y-45715960D01*
X135890000Y-145415000D02*
X140970000Y-145415000D01*
X141609040Y-113025960D02*
X141605000Y-113030000D01*
X121285000Y-26035000D02*
X122555000Y-27305000D01*
X153617500Y-27305000D02*
X154930000Y-25992500D01*
X177800000Y-27305000D02*
X180340000Y-29845000D01*
X156242500Y-27305000D02*
X177800000Y-27305000D01*
X187320960Y-113025960D02*
X141609040Y-113025960D01*
X55245000Y-27305000D02*
X86360000Y-27305000D01*
X181610000Y-33655000D02*
X181610000Y-43180000D01*
X120015000Y-27305000D02*
X121285000Y-26035000D01*
X154930000Y-25992500D02*
X156242500Y-27305000D01*
X140970000Y-145415000D02*
X140970000Y-172720000D01*
X140970000Y-172720000D02*
X137160000Y-172720000D01*
X122555000Y-27305000D02*
X153617500Y-27305000D01*
X182245000Y-43815000D02*
X185420000Y-43815000D01*
X87630000Y-26035000D02*
X88900000Y-27305000D01*
X88900000Y-27305000D02*
X120015000Y-27305000D01*
X182880000Y-32385000D02*
X181610000Y-33655000D01*
X181610000Y-43180000D02*
X182245000Y-43815000D01*
X135890000Y-129540000D02*
X135890000Y-145415000D01*
X185420000Y-30480000D02*
X185420000Y-31750000D01*
X141605000Y-129540000D02*
X135890000Y-129540000D01*
X185420000Y-31750000D02*
X184785000Y-32385000D01*
X141605000Y-113030000D02*
X141605000Y-129540000D01*
X53975000Y-26035000D02*
X55245000Y-27305000D01*
X184785000Y-32385000D02*
X182880000Y-32385000D01*
X86360000Y-27305000D02*
X87630000Y-26035000D01*
X187320960Y-45715960D02*
X187320960Y-113025960D01*
X126525000Y-74295000D02*
X126365000Y-74135000D01*
X160020000Y-74295000D02*
X126525000Y-74295000D01*
X125095000Y-115570000D02*
X130810000Y-115570000D01*
X63070000Y-74500000D02*
X59055000Y-70485000D01*
X92500000Y-74500000D02*
X63070000Y-74500000D01*
X92865000Y-74135000D02*
X92500000Y-74500000D01*
X126365000Y-74135000D02*
X92865000Y-74135000D01*
X156167500Y-31072500D02*
X157480000Y-32385000D01*
X153617500Y-32385000D02*
X122555000Y-32385000D01*
X177800000Y-34925000D02*
X180340000Y-37465000D01*
X86360000Y-32385000D02*
X55245000Y-32385000D01*
X171450000Y-34925000D02*
X177800000Y-34925000D01*
X55245000Y-32385000D02*
X53975000Y-31115000D01*
X180340000Y-37465000D02*
X180340000Y-44450000D01*
X185420000Y-45085000D02*
X186871440Y-46536440D01*
X186871440Y-46536440D02*
X186871440Y-112576440D01*
X140335000Y-146050000D02*
X140335000Y-165100000D01*
X135255000Y-146050000D02*
X140335000Y-146050000D01*
X157480000Y-32385000D02*
X168910000Y-32385000D01*
X154930000Y-31072500D02*
X156167500Y-31072500D01*
X180340000Y-44450000D02*
X180975000Y-45085000D01*
X135255000Y-128905000D02*
X135255000Y-146050000D01*
X141422843Y-112576440D02*
X140970000Y-113029283D01*
X154930000Y-31072500D02*
X153617500Y-32385000D01*
X186871440Y-112576440D02*
X141422843Y-112576440D01*
X120015000Y-32385000D02*
X88900000Y-32385000D01*
X121285000Y-31115000D02*
X120015000Y-32385000D01*
X140970000Y-128905000D02*
X135255000Y-128905000D01*
X180975000Y-45085000D02*
X185420000Y-45085000D01*
X168910000Y-32385000D02*
X171450000Y-34925000D01*
X140970000Y-113029283D02*
X140970000Y-128905000D01*
X88900000Y-32385000D02*
X87630000Y-31115000D01*
X140335000Y-165100000D02*
X137160000Y-165100000D01*
X87630000Y-31115000D02*
X86360000Y-32385000D01*
X122555000Y-32385000D02*
X121285000Y-31115000D01*
X110199022Y-67945000D02*
X100965000Y-67945000D01*
X100330000Y-93345000D02*
X99205489Y-92220489D01*
X111614511Y-69360489D02*
X110199022Y-67945000D01*
X100965000Y-67945000D02*
X100330000Y-68580000D01*
X132860489Y-69360489D02*
X111614511Y-69360489D01*
X99205489Y-92220489D02*
X67799511Y-92220489D01*
X133985000Y-70485000D02*
X132860489Y-69360489D01*
X100330000Y-68580000D02*
X100330000Y-70485000D01*
X67799511Y-92220489D02*
X66675000Y-93345000D01*
X166520489Y-69360489D02*
X167645000Y-70485000D01*
X133985000Y-70485000D02*
X135109511Y-69360489D01*
X135109511Y-69360489D02*
X166520489Y-69360489D01*
X121285000Y-33655000D02*
X122555000Y-34925000D01*
X120015000Y-34925000D02*
X121285000Y-33655000D01*
X53975000Y-33655000D02*
X55245000Y-34925000D01*
X186421920Y-47356203D02*
X184785717Y-45720000D01*
X140335000Y-128270000D02*
X140335000Y-113028566D01*
X156242500Y-34925000D02*
X154930000Y-33612500D01*
X134620000Y-146685000D02*
X134620000Y-128270000D01*
X169545000Y-34925000D02*
X156242500Y-34925000D01*
X186421920Y-112126920D02*
X186421920Y-47356203D01*
X55245000Y-34925000D02*
X86360000Y-34925000D01*
X179070000Y-44450000D02*
X179070000Y-38735000D01*
X180340000Y-45720000D02*
X179070000Y-44450000D01*
X139700000Y-162560000D02*
X139700000Y-146685000D01*
X179070000Y-38735000D02*
X177800000Y-37465000D01*
X137160000Y-162560000D02*
X139700000Y-162560000D01*
X140335000Y-113028566D02*
X141236646Y-112126920D01*
X86360000Y-34925000D02*
X87630000Y-33655000D01*
X122555000Y-34925000D02*
X153617500Y-34925000D01*
X177800000Y-37465000D02*
X172085000Y-37465000D01*
X87630000Y-33655000D02*
X88900000Y-34925000D01*
X184785717Y-45720000D02*
X180340000Y-45720000D01*
X153617500Y-34925000D02*
X154930000Y-33612500D01*
X172085000Y-37465000D02*
X169545000Y-34925000D01*
X134620000Y-128270000D02*
X140335000Y-128270000D01*
X139700000Y-146685000D02*
X134620000Y-146685000D01*
X88900000Y-34925000D02*
X120015000Y-34925000D01*
X141236646Y-112126920D02*
X186421920Y-112126920D01*
X132080000Y-172720000D02*
X133350000Y-173990000D01*
X142240000Y-130175000D02*
X142240000Y-113665000D01*
X187770480Y-41085480D02*
X185382500Y-38697500D01*
X149225000Y-37465000D02*
X150495000Y-38735000D01*
X141605000Y-173990000D02*
X141605000Y-144780000D01*
X129540000Y-172720000D02*
X132080000Y-172720000D01*
X173335000Y-33617500D02*
X176520000Y-33617500D01*
X142429520Y-113475480D02*
X187770480Y-113475480D01*
X142875000Y-33655000D02*
X139700000Y-33655000D01*
X72390000Y-33655000D02*
X75565000Y-33655000D01*
X141605000Y-144780000D02*
X136525000Y-144780000D01*
X106045000Y-33655000D02*
X109220000Y-33655000D01*
X187770480Y-113475480D02*
X187770480Y-41085480D01*
X170815000Y-37465000D02*
X151765000Y-37465000D01*
X115570000Y-37465000D02*
X116840000Y-38735000D01*
X84455000Y-37465000D02*
X115570000Y-37465000D01*
X142240000Y-113665000D02*
X142429520Y-113475480D01*
X133350000Y-173990000D02*
X141605000Y-173990000D01*
X118110000Y-37465000D02*
X149225000Y-37465000D01*
X151765000Y-37465000D02*
X150495000Y-38735000D01*
X185382500Y-38697500D02*
X184140000Y-38697500D01*
X136525000Y-130175000D02*
X142240000Y-130175000D01*
X116840000Y-38735000D02*
X118110000Y-37465000D01*
X136525000Y-144780000D02*
X136525000Y-130175000D01*
X83185000Y-38735000D02*
X84455000Y-37465000D01*
X154930000Y-38692500D02*
X153617500Y-40005000D01*
X88895000Y-40000000D02*
X87630000Y-38735000D01*
X156210000Y-40005000D02*
X156210000Y-39972500D01*
X179070000Y-46355000D02*
X177800000Y-45085000D01*
X86360000Y-40005000D02*
X87630000Y-38735000D01*
X141050449Y-111677400D02*
X185502600Y-111677400D01*
X185502600Y-111677400D02*
X185972400Y-111207600D01*
X58785978Y-40005000D02*
X86360000Y-40005000D01*
X133985000Y-147320000D02*
X133985000Y-127635000D01*
X53975000Y-38735000D02*
X57515978Y-38735000D01*
X185972400Y-111207600D02*
X185972400Y-47542400D01*
X137160000Y-154940000D02*
X139065000Y-154940000D01*
X139065000Y-154940000D02*
X139065000Y-147320000D01*
X139065000Y-147320000D02*
X133985000Y-147320000D01*
X121285000Y-38735000D02*
X120020000Y-40000000D01*
X177800000Y-45085000D02*
X177800000Y-40640000D01*
X120020000Y-40000000D02*
X88895000Y-40000000D01*
X185972400Y-47542400D02*
X184785000Y-46355000D01*
X57515978Y-38735000D02*
X58785978Y-40005000D01*
X177800000Y-40640000D02*
X177165000Y-40005000D01*
X153617500Y-40005000D02*
X122555000Y-40005000D01*
X133985000Y-127635000D02*
X139700000Y-127635000D01*
X139700000Y-127635000D02*
X139700000Y-113027849D01*
X184785000Y-46355000D02*
X179070000Y-46355000D01*
X156210000Y-39972500D02*
X154930000Y-38692500D01*
X139700000Y-113027849D02*
X141050449Y-111677400D01*
X177165000Y-40005000D02*
X156210000Y-40005000D01*
X122555000Y-40005000D02*
X121285000Y-38735000D01*
X105410000Y-90805000D02*
X71755000Y-90805000D01*
X172720000Y-90805000D02*
X139065000Y-90805000D01*
X139065000Y-90805000D02*
X105410000Y-90805000D01*
X71755000Y-90805000D02*
X71755000Y-85725000D01*
X121920000Y-172720000D02*
X125730000Y-172720000D01*
X162414511Y-82060489D02*
X162560000Y-81915000D01*
X95250000Y-82200000D02*
X95389511Y-82060489D01*
X95250000Y-82200000D02*
X65120000Y-82200000D01*
X65120000Y-82200000D02*
X61595000Y-85725000D01*
X95389511Y-82060489D02*
X128939511Y-82060489D01*
X128939511Y-82060489D02*
X162414511Y-82060489D01*
X169060489Y-84600489D02*
X170185000Y-85725000D01*
X70339511Y-84600489D02*
X69215000Y-85725000D01*
X101745489Y-84600489D02*
X70339511Y-84600489D01*
X102870000Y-85725000D02*
X103994511Y-84600489D01*
X137649511Y-84600489D02*
X169060489Y-84600489D01*
X103994511Y-84600489D02*
X135400489Y-84600489D01*
X136525000Y-85725000D02*
X137649511Y-84600489D01*
X135400489Y-84600489D02*
X136525000Y-85725000D01*
X102870000Y-85725000D02*
X101745489Y-84600489D01*
X157274614Y-81240000D02*
X157314614Y-81280000D01*
X63540000Y-81240000D02*
X59055000Y-85725000D01*
X126385000Y-81240000D02*
X157274614Y-81240000D01*
X92710000Y-81240000D02*
X63540000Y-81240000D01*
X92710000Y-81240000D02*
X126385000Y-81240000D01*
X157314614Y-81280000D02*
X160020000Y-81280000D01*
X133980000Y-83820000D02*
X100255000Y-83820000D01*
X100255000Y-83820000D02*
X68580000Y-83820000D01*
X167640000Y-83820000D02*
X133980000Y-83820000D01*
X68580000Y-83820000D02*
X66675000Y-85725000D01*
X90175489Y-80099511D02*
X62140489Y-80099511D01*
X123750489Y-80099511D02*
X90175489Y-80099511D01*
X157480000Y-80010000D02*
X157390489Y-80099511D01*
X157390489Y-80099511D02*
X123750489Y-80099511D01*
X62140489Y-80099511D02*
X56515000Y-85725000D01*
X164865000Y-82785000D02*
X165100000Y-82550000D01*
X97790000Y-82785000D02*
X131465000Y-82785000D01*
X131465000Y-82785000D02*
X164865000Y-82785000D01*
X66935489Y-82924511D02*
X64135000Y-85725000D01*
X97650489Y-82924511D02*
X66935489Y-82924511D01*
X97790000Y-82785000D02*
X97650489Y-82924511D01*
X87630000Y-79270000D02*
X121230000Y-79270000D01*
X154835000Y-79270000D02*
X154940000Y-79375000D01*
X60430000Y-79270000D02*
X53975000Y-85725000D01*
X121230000Y-79270000D02*
X154835000Y-79270000D01*
X87630000Y-79270000D02*
X60430000Y-79270000D01*
X75565000Y-111125000D02*
X76697591Y-112257591D01*
X96520000Y-112257591D02*
X96520000Y-120650000D01*
X76697591Y-112257591D02*
X96520000Y-112257591D01*
X96520000Y-120650000D02*
X103505000Y-120650000D01*
X100330000Y-125730000D02*
X101600000Y-127000000D01*
X100330000Y-123825000D02*
X100330000Y-125730000D01*
X100330000Y-111358551D02*
X100330000Y-119380000D01*
X120650000Y-127000000D02*
X121920000Y-125730000D01*
X78105000Y-109855000D02*
X79608551Y-111358551D01*
X79608551Y-111358551D02*
X100330000Y-111358551D01*
X101600000Y-127000000D02*
X120650000Y-127000000D01*
X60414511Y-110400489D02*
X60325000Y-110490000D01*
X77380489Y-110400489D02*
X78788071Y-111808071D01*
X97790000Y-111808071D02*
X97790000Y-119380000D01*
X97790000Y-126365000D02*
X100819511Y-129394511D01*
X120795489Y-129394511D02*
X121920000Y-128270000D01*
X60414511Y-110400489D02*
X77380489Y-110400489D01*
X97790000Y-123825000D02*
X97790000Y-126365000D01*
X78788071Y-111808071D02*
X97790000Y-111808071D01*
X100819511Y-129394511D02*
X120795489Y-129394511D01*
X60325000Y-110490000D02*
X60325000Y-111125000D01*
X151130000Y-109855000D02*
X152400000Y-108585000D01*
X133985000Y-115570000D02*
X139700000Y-109855000D01*
X139700000Y-109855000D02*
X151130000Y-109855000D01*
X102235000Y-134620000D02*
X120650000Y-134620000D01*
X120650000Y-134620000D02*
X121920000Y-133350000D01*
X180975000Y-110490000D02*
X140335000Y-110490000D01*
X133350000Y-117475000D02*
X132715000Y-117475000D01*
X140335000Y-110490000D02*
X133350000Y-117475000D01*
X179070000Y-104140000D02*
X181610000Y-106680000D01*
X181610000Y-109855000D02*
X180975000Y-110490000D01*
X181610000Y-106680000D02*
X181610000Y-109855000D01*
X121920000Y-113665000D02*
X121920000Y-120015000D01*
X131445000Y-130810000D02*
X129540000Y-130810000D01*
X121920000Y-120015000D02*
X122009511Y-120104511D01*
X122009511Y-120104511D02*
X130899511Y-120104511D01*
X131445000Y-120650000D02*
X131445000Y-130810000D01*
X130899511Y-120104511D02*
X131445000Y-120650000D01*
X127635000Y-113665000D02*
X121920000Y-113665000D01*
X130810000Y-128270000D02*
X129540000Y-128270000D01*
X80645000Y-49530000D02*
X79375000Y-50800000D01*
X118325969Y-110909031D02*
X120434031Y-110909031D01*
X121285000Y-120650000D02*
X125730000Y-120650000D01*
X120434031Y-110909031D02*
X121285000Y-111760000D01*
X81064031Y-110909031D02*
X118325969Y-110909031D01*
X130810000Y-120650718D02*
X130810000Y-128270000D01*
X121285000Y-111760000D02*
X121285000Y-120650000D01*
X149225000Y-49530000D02*
X80645000Y-49530000D01*
X80645000Y-110490000D02*
X81064031Y-110909031D01*
X125730000Y-120650000D02*
X130809282Y-120650000D01*
X130809282Y-120650000D02*
X130810000Y-120650718D01*
X165100000Y-102235000D02*
X131445000Y-102235000D01*
X97790000Y-102235000D02*
X73025000Y-102235000D01*
X73025000Y-102235000D02*
X64135000Y-93345000D01*
X131445000Y-102235000D02*
X97790000Y-102235000D01*
X176482500Y-28575000D02*
X175895000Y-28575000D01*
X174625000Y-29845000D02*
X163862500Y-29845000D01*
X163862500Y-29845000D02*
X162550000Y-28532500D01*
X175895000Y-28575000D02*
X174625000Y-29845000D01*
X176520000Y-28537500D02*
X176482500Y-28575000D01*
X140165789Y-29699511D02*
X130029511Y-29699511D01*
X142875000Y-28575000D02*
X141290300Y-28575000D01*
X141290300Y-28575000D02*
X140165789Y-29699511D01*
X130029511Y-29699511D02*
X128905000Y-28575000D01*
X107315000Y-29845000D02*
X96520000Y-29845000D01*
X109220000Y-28575000D02*
X108585000Y-28575000D01*
X108585000Y-28575000D02*
X107315000Y-29845000D01*
X96520000Y-29845000D02*
X95250000Y-28575000D01*
X75565000Y-28575000D02*
X74930000Y-28575000D01*
X74930000Y-28575000D02*
X73660000Y-29845000D01*
X62865000Y-29845000D02*
X61595000Y-28575000D01*
X73660000Y-29845000D02*
X62865000Y-29845000D01*
G04 #@! TA.AperFunction,Conductor*
G36*
X183685947Y-24766010D02*
G01*
X183488489Y-24858086D01*
X183478993Y-24863569D01*
X183300533Y-24988528D01*
X183292125Y-24995584D01*
X183138084Y-25149625D01*
X183131028Y-25158033D01*
X183006069Y-25336493D01*
X183000586Y-25345989D01*
X182908510Y-25543447D01*
X182904764Y-25553739D01*
X182858606Y-25726003D01*
X182858942Y-25740099D01*
X182866884Y-25743500D01*
X185407967Y-25743500D01*
X185421498Y-25739527D01*
X185422727Y-25730978D01*
X185375236Y-25553739D01*
X185371490Y-25543447D01*
X185279414Y-25345989D01*
X185273931Y-25336493D01*
X185148972Y-25158033D01*
X185141916Y-25149625D01*
X184987875Y-24995584D01*
X184979467Y-24988528D01*
X184801007Y-24863569D01*
X184791511Y-24858086D01*
X184594053Y-24766010D01*
X184591278Y-24765000D01*
X188993400Y-24765000D01*
X188993400Y-41149000D01*
X188973398Y-41217121D01*
X188919742Y-41263614D01*
X188867400Y-41275000D01*
X188531422Y-41275000D01*
X188463301Y-41254998D01*
X188416808Y-41201342D01*
X188407396Y-41145534D01*
X188406182Y-41145572D01*
X188404042Y-41077482D01*
X188403980Y-41073524D01*
X188403980Y-41045624D01*
X188403476Y-41041633D01*
X188402543Y-41029791D01*
X188401403Y-40993516D01*
X188401154Y-40985591D01*
X188398942Y-40977977D01*
X188398941Y-40977972D01*
X188395503Y-40966139D01*
X188391492Y-40946775D01*
X188389947Y-40934544D01*
X188388954Y-40926683D01*
X188386037Y-40919316D01*
X188386036Y-40919311D01*
X188372678Y-40885572D01*
X188368834Y-40874345D01*
X188358710Y-40839502D01*
X188356498Y-40831887D01*
X188346187Y-40814452D01*
X188337492Y-40796704D01*
X188330032Y-40777863D01*
X188304044Y-40742093D01*
X188297528Y-40732173D01*
X188279060Y-40700945D01*
X188279058Y-40700942D01*
X188275022Y-40694118D01*
X188260701Y-40679797D01*
X188247860Y-40664763D01*
X188240611Y-40654786D01*
X188235952Y-40648373D01*
X188201875Y-40620182D01*
X188193096Y-40612192D01*
X185886152Y-38305247D01*
X185878612Y-38296961D01*
X185874500Y-38290482D01*
X185824848Y-38243856D01*
X185822007Y-38241102D01*
X185802270Y-38221365D01*
X185799073Y-38218885D01*
X185790051Y-38211180D01*
X185763600Y-38186341D01*
X185757821Y-38180914D01*
X185750875Y-38177095D01*
X185750872Y-38177093D01*
X185740066Y-38171152D01*
X185723547Y-38160301D01*
X185723083Y-38159941D01*
X185707541Y-38147886D01*
X185700272Y-38144741D01*
X185700268Y-38144738D01*
X185666963Y-38130326D01*
X185656313Y-38125109D01*
X185617560Y-38103805D01*
X185597937Y-38098767D01*
X185579234Y-38092363D01*
X185567920Y-38087467D01*
X185567919Y-38087467D01*
X185560645Y-38084319D01*
X185552822Y-38083080D01*
X185552819Y-38083079D01*
X185526288Y-38078877D01*
X185462135Y-38048464D01*
X185424609Y-37988195D01*
X185420000Y-37954428D01*
X185420000Y-36452719D01*
X185424293Y-36420107D01*
X185433543Y-36385587D01*
X185453498Y-36157500D01*
X185433543Y-35929413D01*
X185424293Y-35894891D01*
X185420000Y-35862281D01*
X185420000Y-33912719D01*
X185424293Y-33880107D01*
X185433543Y-33845587D01*
X185453498Y-33617500D01*
X185433543Y-33389413D01*
X185424293Y-33354891D01*
X185420000Y-33322281D01*
X185420000Y-32698094D01*
X185440002Y-32629973D01*
X185456905Y-32608999D01*
X185812247Y-32253657D01*
X185820537Y-32246113D01*
X185827018Y-32242000D01*
X185873659Y-32192332D01*
X185876413Y-32189491D01*
X185896135Y-32169769D01*
X185898612Y-32166576D01*
X185906317Y-32157555D01*
X185931159Y-32131100D01*
X185936586Y-32125321D01*
X185940407Y-32118371D01*
X185946346Y-32107568D01*
X185957202Y-32091041D01*
X185964757Y-32081302D01*
X185964758Y-32081300D01*
X185969614Y-32075040D01*
X185987174Y-32034460D01*
X185992391Y-32023812D01*
X186009875Y-31992009D01*
X186009876Y-31992007D01*
X186013695Y-31985060D01*
X186018733Y-31965437D01*
X186025137Y-31946734D01*
X186030033Y-31935420D01*
X186030033Y-31935419D01*
X186033181Y-31928145D01*
X186034420Y-31920322D01*
X186034423Y-31920312D01*
X186040099Y-31884476D01*
X186042505Y-31872856D01*
X186051528Y-31837711D01*
X186051528Y-31837710D01*
X186053500Y-31830030D01*
X186053500Y-31809776D01*
X186055051Y-31790065D01*
X186056980Y-31777886D01*
X186058220Y-31770057D01*
X186054059Y-31726038D01*
X186053500Y-31714181D01*
X186053500Y-30558768D01*
X186054027Y-30547585D01*
X186055702Y-30540092D01*
X186053562Y-30472001D01*
X186053500Y-30468044D01*
X186053500Y-30440144D01*
X186052996Y-30436153D01*
X186052063Y-30424311D01*
X186050923Y-30388036D01*
X186050674Y-30380111D01*
X186045021Y-30360652D01*
X186041012Y-30341293D01*
X186040846Y-30339983D01*
X186038474Y-30321203D01*
X186035558Y-30313837D01*
X186035556Y-30313831D01*
X186022200Y-30280098D01*
X186018355Y-30268868D01*
X186008230Y-30234017D01*
X186008230Y-30234016D01*
X186006019Y-30226407D01*
X185995705Y-30208966D01*
X185987008Y-30191213D01*
X185982472Y-30179758D01*
X185979552Y-30172383D01*
X185953563Y-30136612D01*
X185947047Y-30126692D01*
X185928578Y-30095463D01*
X185924542Y-30088638D01*
X185910221Y-30074317D01*
X185897380Y-30059283D01*
X185890132Y-30049307D01*
X185885472Y-30042893D01*
X185851407Y-30014712D01*
X185842626Y-30006722D01*
X185288647Y-29452742D01*
X185281113Y-29444463D01*
X185277000Y-29437982D01*
X185253917Y-29416306D01*
X185217951Y-29355093D01*
X185220788Y-29284153D01*
X185236956Y-29252184D01*
X185265444Y-29211500D01*
X185277523Y-29194249D01*
X185279846Y-29189267D01*
X185279849Y-29189262D01*
X185371961Y-28991725D01*
X185371961Y-28991724D01*
X185374284Y-28986743D01*
X185433543Y-28765587D01*
X185453498Y-28537500D01*
X185433543Y-28309413D01*
X185374284Y-28088257D01*
X185304452Y-27938500D01*
X185279849Y-27885738D01*
X185279846Y-27885733D01*
X185277523Y-27880751D01*
X185146198Y-27693200D01*
X184984300Y-27531302D01*
X184979792Y-27528145D01*
X184979789Y-27528143D01*
X184901611Y-27473402D01*
X184796749Y-27399977D01*
X184791767Y-27397654D01*
X184791762Y-27397651D01*
X184756951Y-27381419D01*
X184703666Y-27334502D01*
X184684205Y-27266225D01*
X184704747Y-27198265D01*
X184756951Y-27153029D01*
X184791511Y-27136914D01*
X184801007Y-27131431D01*
X184979467Y-27006472D01*
X184987875Y-26999416D01*
X185141916Y-26845375D01*
X185148972Y-26836967D01*
X185273931Y-26658507D01*
X185279414Y-26649011D01*
X185371490Y-26451553D01*
X185375236Y-26441261D01*
X185421394Y-26268997D01*
X185421058Y-26254901D01*
X185413116Y-26251500D01*
X182872033Y-26251500D01*
X182858502Y-26255473D01*
X182857273Y-26264022D01*
X182904764Y-26441261D01*
X182908510Y-26451553D01*
X183000586Y-26649011D01*
X183006069Y-26658507D01*
X183131028Y-26836967D01*
X183138084Y-26845375D01*
X183292125Y-26999416D01*
X183300533Y-27006472D01*
X183478993Y-27131431D01*
X183488489Y-27136914D01*
X183523049Y-27153029D01*
X183576334Y-27199946D01*
X183595795Y-27268223D01*
X183575253Y-27336183D01*
X183523049Y-27381419D01*
X183488238Y-27397651D01*
X183488233Y-27397654D01*
X183483251Y-27399977D01*
X183378389Y-27473402D01*
X183300211Y-27528143D01*
X183300208Y-27528145D01*
X183295700Y-27531302D01*
X183133802Y-27693200D01*
X183002477Y-27880751D01*
X183000154Y-27885733D01*
X183000151Y-27885738D01*
X182975548Y-27938500D01*
X182905716Y-28088257D01*
X182846457Y-28309413D01*
X182826502Y-28537500D01*
X182846457Y-28765587D01*
X182905716Y-28986743D01*
X182908039Y-28991725D01*
X182908041Y-28991730D01*
X182926936Y-29032251D01*
X182937597Y-29102442D01*
X182908617Y-29167255D01*
X182849197Y-29206111D01*
X182812741Y-29211500D01*
X180654595Y-29211500D01*
X180586474Y-29191498D01*
X180565500Y-29174595D01*
X178303652Y-26912747D01*
X178296112Y-26904461D01*
X178292000Y-26897982D01*
X178242348Y-26851356D01*
X178239507Y-26848602D01*
X178219770Y-26828865D01*
X178216573Y-26826385D01*
X178207551Y-26818680D01*
X178181100Y-26793841D01*
X178175321Y-26788414D01*
X178168375Y-26784595D01*
X178168372Y-26784593D01*
X178157566Y-26778652D01*
X178141047Y-26767801D01*
X178140583Y-26767441D01*
X178125041Y-26755386D01*
X178117772Y-26752241D01*
X178117768Y-26752238D01*
X178084463Y-26737826D01*
X178073813Y-26732609D01*
X178035060Y-26711305D01*
X178015437Y-26706267D01*
X177996734Y-26699863D01*
X177985420Y-26694967D01*
X177985419Y-26694967D01*
X177978145Y-26691819D01*
X177970322Y-26690580D01*
X177970312Y-26690577D01*
X177934476Y-26684901D01*
X177922857Y-26682495D01*
X177894668Y-26675258D01*
X177833661Y-26638945D01*
X177801971Y-26575414D01*
X177800000Y-26553216D01*
X177800000Y-26292719D01*
X177804293Y-26260107D01*
X177805688Y-26254901D01*
X177813543Y-26225587D01*
X177833498Y-25997500D01*
X177813543Y-25769413D01*
X177804293Y-25734891D01*
X177800000Y-25702281D01*
X177800000Y-24765000D01*
X183688722Y-24765000D01*
X183685947Y-24766010D01*
G37*
G04 #@! TD.AperFunction*
G04 #@! TA.AperFunction,Conductor*
G36*
X93922121Y-112911093D02*
G01*
X93968614Y-112964749D01*
X93980000Y-113017091D01*
X93980000Y-130529008D01*
X93959998Y-130597129D01*
X93901200Y-130645833D01*
X93588861Y-130772026D01*
X93588857Y-130772028D01*
X93585597Y-130773345D01*
X93582510Y-130775014D01*
X93582506Y-130775016D01*
X93549878Y-130792658D01*
X93271205Y-130943336D01*
X92977721Y-131147313D01*
X92708803Y-131382733D01*
X92467802Y-131646662D01*
X92257724Y-131935810D01*
X92081186Y-132246573D01*
X91940388Y-132575079D01*
X91837086Y-132917231D01*
X91772567Y-133268766D01*
X91747636Y-133625302D01*
X91748552Y-133647168D01*
X91762603Y-133982396D01*
X91817281Y-134335595D01*
X91910989Y-134680499D01*
X92042559Y-135012807D01*
X92210352Y-135328379D01*
X92212337Y-135331278D01*
X92410284Y-135620373D01*
X92410289Y-135620379D01*
X92412275Y-135623280D01*
X92645812Y-135893835D01*
X92908052Y-136136672D01*
X93195726Y-136348764D01*
X93505249Y-136527467D01*
X93637861Y-136585404D01*
X93829543Y-136669148D01*
X93829546Y-136669149D01*
X93832764Y-136670555D01*
X93836121Y-136671594D01*
X93836126Y-136671596D01*
X93867707Y-136681372D01*
X93891260Y-136688662D01*
X93950418Y-136727913D01*
X93978966Y-136792917D01*
X93980000Y-136809027D01*
X93980000Y-177165000D01*
X89408000Y-177165000D01*
X89408000Y-115864902D01*
X89408002Y-115864132D01*
X89408421Y-115795522D01*
X89408476Y-115786548D01*
X89406010Y-115777919D01*
X89406009Y-115777914D01*
X89400361Y-115758152D01*
X89396783Y-115741391D01*
X89393870Y-115721048D01*
X89393867Y-115721038D01*
X89392595Y-115712155D01*
X89381979Y-115688805D01*
X89375536Y-115671293D01*
X89370954Y-115655263D01*
X89368488Y-115646635D01*
X89352726Y-115621652D01*
X89344596Y-115606586D01*
X89332367Y-115579690D01*
X89315626Y-115560261D01*
X89304521Y-115545253D01*
X89295630Y-115531161D01*
X89290840Y-115523569D01*
X89268703Y-115504018D01*
X89256659Y-115491826D01*
X89243239Y-115476251D01*
X89243237Y-115476250D01*
X89237381Y-115469453D01*
X89229853Y-115464574D01*
X89229850Y-115464571D01*
X89215861Y-115455504D01*
X89200987Y-115444214D01*
X89188502Y-115433188D01*
X89181772Y-115427244D01*
X89173646Y-115423429D01*
X89173645Y-115423428D01*
X89167979Y-115420768D01*
X89155034Y-115414690D01*
X89140065Y-115406376D01*
X89115273Y-115390307D01*
X89090709Y-115382961D01*
X89073264Y-115376299D01*
X89050052Y-115365401D01*
X89020870Y-115360857D01*
X89004151Y-115357074D01*
X88984464Y-115351186D01*
X88984461Y-115351185D01*
X88975859Y-115348613D01*
X88966884Y-115348558D01*
X88966883Y-115348558D01*
X88960190Y-115348517D01*
X88941444Y-115348403D01*
X88940672Y-115348370D01*
X88939577Y-115348200D01*
X88908702Y-115348200D01*
X88907932Y-115348198D01*
X88834284Y-115347748D01*
X88834283Y-115347748D01*
X88830348Y-115347724D01*
X88829004Y-115348108D01*
X88827659Y-115348200D01*
X87630000Y-115348200D01*
X87630000Y-112891091D01*
X93854000Y-112891091D01*
X93922121Y-112911093D01*
G37*
G04 #@! TD.AperFunction*
G04 #@! TA.AperFunction,Conductor*
G36*
X127311166Y-177185002D02*
G01*
X127357659Y-177238658D01*
X127368355Y-177277829D01*
X127376458Y-177354928D01*
X127435473Y-177536556D01*
X127530960Y-177701944D01*
X127658747Y-177843866D01*
X127813248Y-177956118D01*
X127819276Y-177958802D01*
X127819278Y-177958803D01*
X127981681Y-178031109D01*
X127987712Y-178033794D01*
X128081113Y-178053647D01*
X128168056Y-178072128D01*
X128168061Y-178072128D01*
X128174513Y-178073500D01*
X128365487Y-178073500D01*
X128371939Y-178072128D01*
X128371944Y-178072128D01*
X128458887Y-178053647D01*
X128552288Y-178033794D01*
X128558319Y-178031109D01*
X128720722Y-177958803D01*
X128720724Y-177958802D01*
X128726752Y-177956118D01*
X128881253Y-177843866D01*
X128885668Y-177838963D01*
X128890580Y-177834540D01*
X128891705Y-177835789D01*
X128945014Y-177802949D01*
X128978200Y-177798500D01*
X138991800Y-177798500D01*
X139059921Y-177818502D01*
X139079147Y-177834843D01*
X139079420Y-177834540D01*
X139084332Y-177838963D01*
X139088747Y-177843866D01*
X139243248Y-177956118D01*
X139249276Y-177958802D01*
X139249278Y-177958803D01*
X139411681Y-178031109D01*
X139417712Y-178033794D01*
X139511113Y-178053647D01*
X139598056Y-178072128D01*
X139598061Y-178072128D01*
X139604513Y-178073500D01*
X139795487Y-178073500D01*
X139801939Y-178072128D01*
X139801944Y-178072128D01*
X139888887Y-178053647D01*
X139982288Y-178033794D01*
X139988319Y-178031109D01*
X140150722Y-177958803D01*
X140150724Y-177958802D01*
X140156752Y-177956118D01*
X140311253Y-177843866D01*
X140439040Y-177701944D01*
X140534527Y-177536556D01*
X140593542Y-177354928D01*
X140601645Y-177277829D01*
X140628658Y-177212173D01*
X140686879Y-177171543D01*
X140726955Y-177165000D01*
X146583400Y-177165000D01*
X146583400Y-182754000D01*
X146563398Y-182822121D01*
X146509742Y-182868614D01*
X146457400Y-182880000D01*
X107325200Y-182880000D01*
X107257079Y-182859998D01*
X107210586Y-182806342D01*
X107199200Y-182754000D01*
X107199200Y-182209467D01*
X107199727Y-182198284D01*
X107201402Y-182190791D01*
X107199262Y-182122714D01*
X107199200Y-182118755D01*
X107199200Y-182090844D01*
X107198695Y-182086844D01*
X107197762Y-182075001D01*
X107196622Y-182038730D01*
X107196373Y-182030811D01*
X107190721Y-182011357D01*
X107186713Y-181992000D01*
X107185168Y-181979770D01*
X107185168Y-181979769D01*
X107184174Y-181971903D01*
X107181255Y-181964530D01*
X107167896Y-181930788D01*
X107164051Y-181919558D01*
X107153929Y-181884717D01*
X107153929Y-181884716D01*
X107151718Y-181877107D01*
X107147685Y-181870288D01*
X107147683Y-181870283D01*
X107141407Y-181859672D01*
X107132712Y-181841924D01*
X107125252Y-181823083D01*
X107099264Y-181787313D01*
X107092748Y-181777393D01*
X107074280Y-181746165D01*
X107074278Y-181746162D01*
X107070242Y-181739338D01*
X107055921Y-181725017D01*
X107043080Y-181709983D01*
X107035832Y-181700007D01*
X107031172Y-181693593D01*
X106997107Y-181665412D01*
X106988326Y-181657422D01*
X106548647Y-181217742D01*
X106541113Y-181209463D01*
X106537000Y-181202982D01*
X106487348Y-181156356D01*
X106484507Y-181153602D01*
X106464770Y-181133865D01*
X106461573Y-181131385D01*
X106452551Y-181123680D01*
X106448400Y-181119782D01*
X106420321Y-181093414D01*
X106413375Y-181089595D01*
X106413372Y-181089593D01*
X106402566Y-181083652D01*
X106386047Y-181072801D01*
X106385583Y-181072441D01*
X106370041Y-181060386D01*
X106362772Y-181057241D01*
X106362768Y-181057238D01*
X106329463Y-181042826D01*
X106318813Y-181037609D01*
X106280060Y-181016305D01*
X106260437Y-181011267D01*
X106241734Y-181004863D01*
X106230420Y-180999967D01*
X106230419Y-180999967D01*
X106223145Y-180996819D01*
X106215322Y-180995580D01*
X106215312Y-180995577D01*
X106179476Y-180989901D01*
X106167856Y-180987495D01*
X106132711Y-180978472D01*
X106132710Y-180978472D01*
X106125030Y-180976500D01*
X106104776Y-180976500D01*
X106085065Y-180974949D01*
X106072886Y-180973020D01*
X106065057Y-180971780D01*
X106035786Y-180974547D01*
X106021039Y-180975941D01*
X106009181Y-180976500D01*
X94058768Y-180976500D01*
X94047585Y-180975973D01*
X94040092Y-180974298D01*
X94032166Y-180974547D01*
X94032165Y-180974547D01*
X93972002Y-180976438D01*
X93968044Y-180976500D01*
X93940144Y-180976500D01*
X93936154Y-180977004D01*
X93924320Y-180977936D01*
X93880111Y-180979326D01*
X93872495Y-180981539D01*
X93872493Y-180981539D01*
X93860652Y-180984979D01*
X93841293Y-180988988D01*
X93839983Y-180989154D01*
X93821203Y-180991526D01*
X93813837Y-180994442D01*
X93813831Y-180994444D01*
X93780098Y-181007800D01*
X93768868Y-181011645D01*
X93752828Y-181016305D01*
X93726407Y-181023981D01*
X93719584Y-181028016D01*
X93708966Y-181034295D01*
X93691213Y-181042992D01*
X93683568Y-181046019D01*
X93672383Y-181050448D01*
X93658705Y-181060386D01*
X93636612Y-181076437D01*
X93626695Y-181082951D01*
X93588638Y-181105458D01*
X93574314Y-181119782D01*
X93559287Y-181132617D01*
X93542893Y-181144528D01*
X93537840Y-181150636D01*
X93537838Y-181150638D01*
X93514708Y-181178598D01*
X93506718Y-181187378D01*
X93473449Y-181220647D01*
X93465160Y-181228190D01*
X93458682Y-181232300D01*
X93453259Y-181238075D01*
X93412072Y-181281936D01*
X93409316Y-181284780D01*
X93389565Y-181304530D01*
X93387085Y-181307727D01*
X93379382Y-181316747D01*
X93349114Y-181348979D01*
X93345295Y-181355925D01*
X93345293Y-181355928D01*
X93339352Y-181366734D01*
X93328501Y-181383253D01*
X93316086Y-181399259D01*
X93312941Y-181406528D01*
X93312938Y-181406532D01*
X93298526Y-181439837D01*
X93293309Y-181450487D01*
X93272005Y-181489240D01*
X93270034Y-181496915D01*
X93270034Y-181496916D01*
X93266967Y-181508862D01*
X93260563Y-181527566D01*
X93252519Y-181546155D01*
X93251280Y-181553978D01*
X93251277Y-181553988D01*
X93245601Y-181589824D01*
X93243195Y-181601444D01*
X93232200Y-181644270D01*
X93232200Y-181664524D01*
X93230649Y-181684234D01*
X93227480Y-181704243D01*
X93230798Y-181739338D01*
X93231641Y-181748261D01*
X93232200Y-181760119D01*
X93232200Y-182754000D01*
X93212198Y-182822121D01*
X93158542Y-182868614D01*
X93106200Y-182880000D01*
X89534000Y-182880000D01*
X89465879Y-182859998D01*
X89419386Y-182806342D01*
X89408000Y-182754000D01*
X89408000Y-177165000D01*
X127243045Y-177165000D01*
X127311166Y-177185002D01*
G37*
G04 #@! TD.AperFunction*
G04 #@! TA.AperFunction,Conductor*
G36*
X188935521Y-18199602D02*
G01*
X188982014Y-18253258D01*
X188993400Y-18305600D01*
X188993400Y-24765000D01*
X184591278Y-24765000D01*
X184583761Y-24762264D01*
X184411497Y-24716106D01*
X184397401Y-24716442D01*
X184394000Y-24724384D01*
X184394000Y-24765000D01*
X183886000Y-24765000D01*
X183886000Y-24729533D01*
X183882027Y-24716002D01*
X183873478Y-24714773D01*
X183696239Y-24762264D01*
X183688722Y-24765000D01*
X176992490Y-24765000D01*
X176959879Y-24760707D01*
X176753402Y-24705381D01*
X176753400Y-24705381D01*
X176748087Y-24703957D01*
X176520000Y-24684002D01*
X176291913Y-24703957D01*
X176286600Y-24705381D01*
X176286598Y-24705381D01*
X176080121Y-24760707D01*
X176047510Y-24765000D01*
X173805560Y-24765000D01*
X173772949Y-24760707D01*
X173606497Y-24716106D01*
X173592401Y-24716442D01*
X173589000Y-24724384D01*
X173589000Y-24765000D01*
X173081000Y-24765000D01*
X173081000Y-24729533D01*
X173077027Y-24716002D01*
X173068478Y-24714773D01*
X172897051Y-24760707D01*
X172864440Y-24765000D01*
X166187490Y-24765000D01*
X166154879Y-24760707D01*
X165948402Y-24705381D01*
X165948400Y-24705381D01*
X165943087Y-24703957D01*
X165715000Y-24684002D01*
X165486913Y-24703957D01*
X165481600Y-24705381D01*
X165481598Y-24705381D01*
X165275121Y-24760707D01*
X165242510Y-24765000D01*
X163355605Y-24765000D01*
X163287484Y-24744998D01*
X163240991Y-24691342D01*
X163230887Y-24621068D01*
X163260381Y-24556488D01*
X163283334Y-24535787D01*
X163389467Y-24461472D01*
X163397875Y-24454416D01*
X163551916Y-24300375D01*
X163558972Y-24291967D01*
X163683931Y-24113507D01*
X163689414Y-24104011D01*
X163781490Y-23906553D01*
X163785236Y-23896261D01*
X163831394Y-23723997D01*
X163831058Y-23709901D01*
X163823116Y-23706500D01*
X161282033Y-23706500D01*
X161268502Y-23710473D01*
X161267273Y-23719022D01*
X161314764Y-23896261D01*
X161318510Y-23906553D01*
X161410586Y-24104011D01*
X161416069Y-24113507D01*
X161541028Y-24291967D01*
X161548084Y-24300375D01*
X161702125Y-24454416D01*
X161710533Y-24461472D01*
X161816666Y-24535787D01*
X161860994Y-24591244D01*
X161868303Y-24661864D01*
X161836272Y-24725224D01*
X161775071Y-24761209D01*
X161744395Y-24765000D01*
X155736477Y-24765000D01*
X155668356Y-24744998D01*
X155621863Y-24691342D01*
X155611759Y-24621068D01*
X155641253Y-24556488D01*
X155664206Y-24535787D01*
X155769789Y-24461857D01*
X155769792Y-24461855D01*
X155774300Y-24458698D01*
X155936198Y-24296800D01*
X156067523Y-24109249D01*
X156069846Y-24104267D01*
X156069849Y-24104262D01*
X156161961Y-23906725D01*
X156161961Y-23906724D01*
X156164284Y-23901743D01*
X156201857Y-23761522D01*
X156222119Y-23685902D01*
X156222119Y-23685900D01*
X156223543Y-23680587D01*
X156243498Y-23452500D01*
X156223543Y-23224413D01*
X156213244Y-23185978D01*
X156211911Y-23181003D01*
X161268606Y-23181003D01*
X161268942Y-23195099D01*
X161276884Y-23198500D01*
X162277885Y-23198500D01*
X162293124Y-23194025D01*
X162294329Y-23192635D01*
X162296000Y-23184952D01*
X162296000Y-23180385D01*
X162804000Y-23180385D01*
X162808475Y-23195624D01*
X162809865Y-23196829D01*
X162817548Y-23198500D01*
X163817967Y-23198500D01*
X163831498Y-23194527D01*
X163832727Y-23185978D01*
X163785236Y-23008739D01*
X163781490Y-22998447D01*
X163689414Y-22800989D01*
X163683931Y-22791493D01*
X163558972Y-22613033D01*
X163551916Y-22604625D01*
X163397875Y-22450584D01*
X163389467Y-22443528D01*
X163211007Y-22318569D01*
X163201511Y-22313086D01*
X163004053Y-22221010D01*
X162993761Y-22217264D01*
X162821497Y-22171106D01*
X162807401Y-22171442D01*
X162804000Y-22179384D01*
X162804000Y-23180385D01*
X162296000Y-23180385D01*
X162296000Y-22184533D01*
X162292027Y-22171002D01*
X162283478Y-22169773D01*
X162106239Y-22217264D01*
X162095947Y-22221010D01*
X161898489Y-22313086D01*
X161888993Y-22318569D01*
X161710533Y-22443528D01*
X161702125Y-22450584D01*
X161548084Y-22604625D01*
X161541028Y-22613033D01*
X161416069Y-22791493D01*
X161410586Y-22800989D01*
X161318510Y-22998447D01*
X161314764Y-23008739D01*
X161268606Y-23181003D01*
X156211911Y-23181003D01*
X156165707Y-23008567D01*
X156165706Y-23008565D01*
X156164284Y-23003257D01*
X156161961Y-22998275D01*
X156069849Y-22800738D01*
X156069846Y-22800733D01*
X156067523Y-22795751D01*
X155936198Y-22608200D01*
X155774300Y-22446302D01*
X155769792Y-22443145D01*
X155769789Y-22443143D01*
X155644123Y-22355151D01*
X155586749Y-22314977D01*
X155581767Y-22312654D01*
X155581762Y-22312651D01*
X155384225Y-22220539D01*
X155384224Y-22220539D01*
X155379243Y-22218216D01*
X155373935Y-22216794D01*
X155373933Y-22216793D01*
X155163402Y-22160381D01*
X155163400Y-22160381D01*
X155158087Y-22158957D01*
X154930000Y-22139002D01*
X154701913Y-22158957D01*
X154696600Y-22160381D01*
X154696598Y-22160381D01*
X154486067Y-22216793D01*
X154486065Y-22216794D01*
X154480757Y-22218216D01*
X154475776Y-22220539D01*
X154475775Y-22220539D01*
X154278238Y-22312651D01*
X154278233Y-22312654D01*
X154273251Y-22314977D01*
X154215877Y-22355151D01*
X154090211Y-22443143D01*
X154090208Y-22443145D01*
X154085700Y-22446302D01*
X153923802Y-22608200D01*
X153792477Y-22795751D01*
X153790154Y-22800733D01*
X153790151Y-22800738D01*
X153698039Y-22998275D01*
X153695716Y-23003257D01*
X153694294Y-23008565D01*
X153694293Y-23008567D01*
X153646756Y-23185978D01*
X153636457Y-23224413D01*
X153616502Y-23452500D01*
X153636457Y-23680587D01*
X153637881Y-23685900D01*
X153637881Y-23685902D01*
X153658144Y-23761522D01*
X153695716Y-23901743D01*
X153698039Y-23906724D01*
X153698039Y-23906725D01*
X153790151Y-24104262D01*
X153790154Y-24104267D01*
X153792477Y-24109249D01*
X153923802Y-24296800D01*
X154085700Y-24458698D01*
X154090208Y-24461855D01*
X154090211Y-24461857D01*
X154195794Y-24535787D01*
X154240122Y-24591244D01*
X154247431Y-24661864D01*
X154215400Y-24725224D01*
X154154199Y-24761209D01*
X154123523Y-24765000D01*
X150825608Y-24765000D01*
X150792997Y-24760707D01*
X150766497Y-24753606D01*
X150752401Y-24753942D01*
X150749000Y-24761884D01*
X150749000Y-24765000D01*
X150240403Y-24765000D01*
X150237027Y-24753502D01*
X150228478Y-24752273D01*
X150197003Y-24760707D01*
X150164392Y-24765000D01*
X143207539Y-24765000D01*
X143174930Y-24760707D01*
X143103087Y-24741457D01*
X142875000Y-24721502D01*
X142646913Y-24741457D01*
X142575070Y-24760707D01*
X142542461Y-24765000D01*
X140030608Y-24765000D01*
X139997997Y-24760707D01*
X139971497Y-24753606D01*
X139957401Y-24753942D01*
X139954000Y-24761884D01*
X139954000Y-24765000D01*
X139445403Y-24765000D01*
X139442027Y-24753502D01*
X139433478Y-24752273D01*
X139402003Y-24760707D01*
X139369392Y-24765000D01*
X132412539Y-24765000D01*
X132379930Y-24760707D01*
X132308087Y-24741457D01*
X132080000Y-24721502D01*
X131851913Y-24741457D01*
X131780070Y-24760707D01*
X131747461Y-24765000D01*
X129771301Y-24765000D01*
X129703180Y-24744998D01*
X129656687Y-24691342D01*
X129646583Y-24621068D01*
X129676077Y-24556488D01*
X129699030Y-24535787D01*
X129744467Y-24503972D01*
X129752875Y-24496916D01*
X129906916Y-24342875D01*
X129913972Y-24334467D01*
X130038931Y-24156007D01*
X130044414Y-24146511D01*
X130136490Y-23949053D01*
X130140236Y-23938761D01*
X130186394Y-23766497D01*
X130186058Y-23752401D01*
X130178116Y-23749000D01*
X127637033Y-23749000D01*
X127623502Y-23752973D01*
X127622273Y-23761522D01*
X127669764Y-23938761D01*
X127673510Y-23949053D01*
X127765586Y-24146511D01*
X127771069Y-24156007D01*
X127896028Y-24334467D01*
X127903084Y-24342875D01*
X128057125Y-24496916D01*
X128065533Y-24503972D01*
X128110970Y-24535787D01*
X128155298Y-24591244D01*
X128162607Y-24661863D01*
X128130576Y-24725224D01*
X128069375Y-24761209D01*
X128038699Y-24765000D01*
X122152173Y-24765000D01*
X122084052Y-24744998D01*
X122037559Y-24691342D01*
X122027455Y-24621068D01*
X122056949Y-24556488D01*
X122079902Y-24535787D01*
X122124789Y-24504357D01*
X122124792Y-24504355D01*
X122129300Y-24501198D01*
X122291198Y-24339300D01*
X122422523Y-24151749D01*
X122424846Y-24146767D01*
X122424849Y-24146762D01*
X122516961Y-23949225D01*
X122516961Y-23949224D01*
X122519284Y-23944243D01*
X122578543Y-23723087D01*
X122598498Y-23495000D01*
X122578543Y-23266913D01*
X122570028Y-23235135D01*
X122566911Y-23223503D01*
X127623606Y-23223503D01*
X127623942Y-23237599D01*
X127631884Y-23241000D01*
X128632885Y-23241000D01*
X128648124Y-23236525D01*
X128649329Y-23235135D01*
X128651000Y-23227452D01*
X128651000Y-23222885D01*
X129159000Y-23222885D01*
X129163475Y-23238124D01*
X129164865Y-23239329D01*
X129172548Y-23241000D01*
X130172967Y-23241000D01*
X130186498Y-23237027D01*
X130187727Y-23228478D01*
X130140236Y-23051239D01*
X130136490Y-23040947D01*
X130044414Y-22843489D01*
X130038931Y-22833993D01*
X129913972Y-22655533D01*
X129906916Y-22647125D01*
X129752875Y-22493084D01*
X129744467Y-22486028D01*
X129566007Y-22361069D01*
X129556511Y-22355586D01*
X129359053Y-22263510D01*
X129348761Y-22259764D01*
X129176497Y-22213606D01*
X129162401Y-22213942D01*
X129159000Y-22221884D01*
X129159000Y-23222885D01*
X128651000Y-23222885D01*
X128651000Y-22227033D01*
X128647027Y-22213502D01*
X128638478Y-22212273D01*
X128461239Y-22259764D01*
X128450947Y-22263510D01*
X128253489Y-22355586D01*
X128243993Y-22361069D01*
X128065533Y-22486028D01*
X128057125Y-22493084D01*
X127903084Y-22647125D01*
X127896028Y-22655533D01*
X127771069Y-22833993D01*
X127765586Y-22843489D01*
X127673510Y-23040947D01*
X127669764Y-23051239D01*
X127623606Y-23223503D01*
X122566911Y-23223503D01*
X122520707Y-23051067D01*
X122520706Y-23051065D01*
X122519284Y-23045757D01*
X122516961Y-23040775D01*
X122424849Y-22843238D01*
X122424846Y-22843233D01*
X122422523Y-22838251D01*
X122291198Y-22650700D01*
X122129300Y-22488802D01*
X122124792Y-22485645D01*
X122124789Y-22485643D01*
X122046611Y-22430902D01*
X121941749Y-22357477D01*
X121936767Y-22355154D01*
X121936762Y-22355151D01*
X121739225Y-22263039D01*
X121739224Y-22263039D01*
X121734243Y-22260716D01*
X121728935Y-22259294D01*
X121728933Y-22259293D01*
X121518402Y-22202881D01*
X121518400Y-22202881D01*
X121513087Y-22201457D01*
X121285000Y-22181502D01*
X121056913Y-22201457D01*
X121051600Y-22202881D01*
X121051598Y-22202881D01*
X120841067Y-22259293D01*
X120841065Y-22259294D01*
X120835757Y-22260716D01*
X120830776Y-22263039D01*
X120830775Y-22263039D01*
X120633238Y-22355151D01*
X120633233Y-22355154D01*
X120628251Y-22357477D01*
X120523389Y-22430902D01*
X120445211Y-22485643D01*
X120445208Y-22485645D01*
X120440700Y-22488802D01*
X120278802Y-22650700D01*
X120147477Y-22838251D01*
X120145154Y-22843233D01*
X120145151Y-22843238D01*
X120053039Y-23040775D01*
X120050716Y-23045757D01*
X120049294Y-23051065D01*
X120049293Y-23051067D01*
X119999972Y-23235135D01*
X119991457Y-23266913D01*
X119971502Y-23495000D01*
X119991457Y-23723087D01*
X120050716Y-23944243D01*
X120053039Y-23949224D01*
X120053039Y-23949225D01*
X120145151Y-24146762D01*
X120145154Y-24146767D01*
X120147477Y-24151749D01*
X120278802Y-24339300D01*
X120440700Y-24501198D01*
X120445208Y-24504355D01*
X120445211Y-24504357D01*
X120490098Y-24535787D01*
X120534426Y-24591244D01*
X120541735Y-24661864D01*
X120509704Y-24725224D01*
X120448503Y-24761209D01*
X120417827Y-24765000D01*
X117170608Y-24765000D01*
X117137997Y-24760707D01*
X117111497Y-24753606D01*
X117097401Y-24753942D01*
X117094000Y-24761884D01*
X117094000Y-24765000D01*
X116585403Y-24765000D01*
X116582027Y-24753502D01*
X116573478Y-24752273D01*
X116542003Y-24760707D01*
X116509392Y-24765000D01*
X109552539Y-24765000D01*
X109519930Y-24760707D01*
X109448087Y-24741457D01*
X109220000Y-24721502D01*
X108991913Y-24741457D01*
X108920070Y-24760707D01*
X108887461Y-24765000D01*
X106375608Y-24765000D01*
X106342997Y-24760707D01*
X106316497Y-24753606D01*
X106302401Y-24753942D01*
X106299000Y-24761884D01*
X106299000Y-24765000D01*
X105790403Y-24765000D01*
X105787027Y-24753502D01*
X105778478Y-24752273D01*
X105747003Y-24760707D01*
X105714392Y-24765000D01*
X98757539Y-24765000D01*
X98724930Y-24760707D01*
X98653087Y-24741457D01*
X98425000Y-24721502D01*
X98196913Y-24741457D01*
X98125070Y-24760707D01*
X98092461Y-24765000D01*
X96116301Y-24765000D01*
X96048180Y-24744998D01*
X96001687Y-24691342D01*
X95991583Y-24621068D01*
X96021077Y-24556488D01*
X96044030Y-24535787D01*
X96089467Y-24503972D01*
X96097875Y-24496916D01*
X96251916Y-24342875D01*
X96258972Y-24334467D01*
X96383931Y-24156007D01*
X96389414Y-24146511D01*
X96481490Y-23949053D01*
X96485236Y-23938761D01*
X96531394Y-23766497D01*
X96531058Y-23752401D01*
X96523116Y-23749000D01*
X93982033Y-23749000D01*
X93968502Y-23752973D01*
X93967273Y-23761522D01*
X94014764Y-23938761D01*
X94018510Y-23949053D01*
X94110586Y-24146511D01*
X94116069Y-24156007D01*
X94241028Y-24334467D01*
X94248084Y-24342875D01*
X94402125Y-24496916D01*
X94410533Y-24503972D01*
X94455970Y-24535787D01*
X94500298Y-24591244D01*
X94507607Y-24661863D01*
X94475576Y-24725224D01*
X94414375Y-24761209D01*
X94383699Y-24765000D01*
X88497173Y-24765000D01*
X88429052Y-24744998D01*
X88382559Y-24691342D01*
X88372455Y-24621068D01*
X88401949Y-24556488D01*
X88424902Y-24535787D01*
X88469789Y-24504357D01*
X88469792Y-24504355D01*
X88474300Y-24501198D01*
X88636198Y-24339300D01*
X88767523Y-24151749D01*
X88769846Y-24146767D01*
X88769849Y-24146762D01*
X88861961Y-23949225D01*
X88861961Y-23949224D01*
X88864284Y-23944243D01*
X88923543Y-23723087D01*
X88943498Y-23495000D01*
X88923543Y-23266913D01*
X88915028Y-23235135D01*
X88911911Y-23223503D01*
X93968606Y-23223503D01*
X93968942Y-23237599D01*
X93976884Y-23241000D01*
X94977885Y-23241000D01*
X94993124Y-23236525D01*
X94994329Y-23235135D01*
X94996000Y-23227452D01*
X94996000Y-23222885D01*
X95504000Y-23222885D01*
X95508475Y-23238124D01*
X95509865Y-23239329D01*
X95517548Y-23241000D01*
X96517967Y-23241000D01*
X96531498Y-23237027D01*
X96532727Y-23228478D01*
X96485236Y-23051239D01*
X96481490Y-23040947D01*
X96389414Y-22843489D01*
X96383931Y-22833993D01*
X96258972Y-22655533D01*
X96251916Y-22647125D01*
X96097875Y-22493084D01*
X96089467Y-22486028D01*
X95911007Y-22361069D01*
X95901511Y-22355586D01*
X95704053Y-22263510D01*
X95693761Y-22259764D01*
X95521497Y-22213606D01*
X95507401Y-22213942D01*
X95504000Y-22221884D01*
X95504000Y-23222885D01*
X94996000Y-23222885D01*
X94996000Y-22227033D01*
X94992027Y-22213502D01*
X94983478Y-22212273D01*
X94806239Y-22259764D01*
X94795947Y-22263510D01*
X94598489Y-22355586D01*
X94588993Y-22361069D01*
X94410533Y-22486028D01*
X94402125Y-22493084D01*
X94248084Y-22647125D01*
X94241028Y-22655533D01*
X94116069Y-22833993D01*
X94110586Y-22843489D01*
X94018510Y-23040947D01*
X94014764Y-23051239D01*
X93968606Y-23223503D01*
X88911911Y-23223503D01*
X88865707Y-23051067D01*
X88865706Y-23051065D01*
X88864284Y-23045757D01*
X88861961Y-23040775D01*
X88769849Y-22843238D01*
X88769846Y-22843233D01*
X88767523Y-22838251D01*
X88636198Y-22650700D01*
X88474300Y-22488802D01*
X88469792Y-22485645D01*
X88469789Y-22485643D01*
X88391611Y-22430902D01*
X88286749Y-22357477D01*
X88281767Y-22355154D01*
X88281762Y-22355151D01*
X88084225Y-22263039D01*
X88084224Y-22263039D01*
X88079243Y-22260716D01*
X88073935Y-22259294D01*
X88073933Y-22259293D01*
X87863402Y-22202881D01*
X87863400Y-22202881D01*
X87858087Y-22201457D01*
X87630000Y-22181502D01*
X87401913Y-22201457D01*
X87396600Y-22202881D01*
X87396598Y-22202881D01*
X87186067Y-22259293D01*
X87186065Y-22259294D01*
X87180757Y-22260716D01*
X87175776Y-22263039D01*
X87175775Y-22263039D01*
X86978238Y-22355151D01*
X86978233Y-22355154D01*
X86973251Y-22357477D01*
X86868389Y-22430902D01*
X86790211Y-22485643D01*
X86790208Y-22485645D01*
X86785700Y-22488802D01*
X86623802Y-22650700D01*
X86492477Y-22838251D01*
X86490154Y-22843233D01*
X86490151Y-22843238D01*
X86398039Y-23040775D01*
X86395716Y-23045757D01*
X86394294Y-23051065D01*
X86394293Y-23051067D01*
X86344972Y-23235135D01*
X86336457Y-23266913D01*
X86316502Y-23495000D01*
X86336457Y-23723087D01*
X86395716Y-23944243D01*
X86398039Y-23949224D01*
X86398039Y-23949225D01*
X86490151Y-24146762D01*
X86490154Y-24146767D01*
X86492477Y-24151749D01*
X86623802Y-24339300D01*
X86785700Y-24501198D01*
X86790208Y-24504355D01*
X86790211Y-24504357D01*
X86835098Y-24535787D01*
X86879426Y-24591244D01*
X86886735Y-24661864D01*
X86854704Y-24725224D01*
X86793503Y-24761209D01*
X86762827Y-24765000D01*
X83515608Y-24765000D01*
X83482997Y-24760707D01*
X83456497Y-24753606D01*
X83442401Y-24753942D01*
X83439000Y-24761884D01*
X83439000Y-24765000D01*
X82930403Y-24765000D01*
X82927027Y-24753502D01*
X82918478Y-24752273D01*
X82887003Y-24760707D01*
X82854392Y-24765000D01*
X75897539Y-24765000D01*
X75864930Y-24760707D01*
X75793087Y-24741457D01*
X75565000Y-24721502D01*
X75336913Y-24741457D01*
X75265070Y-24760707D01*
X75232461Y-24765000D01*
X72720608Y-24765000D01*
X72687997Y-24760707D01*
X72661497Y-24753606D01*
X72647401Y-24753942D01*
X72644000Y-24761884D01*
X72644000Y-24765000D01*
X72135403Y-24765000D01*
X72132027Y-24753502D01*
X72123478Y-24752273D01*
X72092003Y-24760707D01*
X72059392Y-24765000D01*
X65102539Y-24765000D01*
X65069930Y-24760707D01*
X64998087Y-24741457D01*
X64770000Y-24721502D01*
X64541913Y-24741457D01*
X64470070Y-24760707D01*
X64437461Y-24765000D01*
X62461301Y-24765000D01*
X62393180Y-24744998D01*
X62346687Y-24691342D01*
X62336583Y-24621068D01*
X62366077Y-24556488D01*
X62389030Y-24535787D01*
X62434467Y-24503972D01*
X62442875Y-24496916D01*
X62596916Y-24342875D01*
X62603972Y-24334467D01*
X62728931Y-24156007D01*
X62734414Y-24146511D01*
X62826490Y-23949053D01*
X62830236Y-23938761D01*
X62876394Y-23766497D01*
X62876058Y-23752401D01*
X62868116Y-23749000D01*
X60327033Y-23749000D01*
X60313502Y-23752973D01*
X60312273Y-23761522D01*
X60359764Y-23938761D01*
X60363510Y-23949053D01*
X60455586Y-24146511D01*
X60461069Y-24156007D01*
X60586028Y-24334467D01*
X60593084Y-24342875D01*
X60747125Y-24496916D01*
X60755533Y-24503972D01*
X60800970Y-24535787D01*
X60845298Y-24591244D01*
X60852607Y-24661863D01*
X60820576Y-24725224D01*
X60759375Y-24761209D01*
X60728699Y-24765000D01*
X54842173Y-24765000D01*
X54774052Y-24744998D01*
X54727559Y-24691342D01*
X54717455Y-24621068D01*
X54746949Y-24556488D01*
X54769902Y-24535787D01*
X54814789Y-24504357D01*
X54814792Y-24504355D01*
X54819300Y-24501198D01*
X54981198Y-24339300D01*
X55112523Y-24151749D01*
X55114846Y-24146767D01*
X55114849Y-24146762D01*
X55206961Y-23949225D01*
X55206961Y-23949224D01*
X55209284Y-23944243D01*
X55268543Y-23723087D01*
X55288498Y-23495000D01*
X55268543Y-23266913D01*
X55260028Y-23235135D01*
X55256911Y-23223503D01*
X60313606Y-23223503D01*
X60313942Y-23237599D01*
X60321884Y-23241000D01*
X61322885Y-23241000D01*
X61338124Y-23236525D01*
X61339329Y-23235135D01*
X61341000Y-23227452D01*
X61341000Y-23222885D01*
X61849000Y-23222885D01*
X61853475Y-23238124D01*
X61854865Y-23239329D01*
X61862548Y-23241000D01*
X62862967Y-23241000D01*
X62876498Y-23237027D01*
X62877727Y-23228478D01*
X62830236Y-23051239D01*
X62826490Y-23040947D01*
X62734414Y-22843489D01*
X62728931Y-22833993D01*
X62603972Y-22655533D01*
X62596916Y-22647125D01*
X62442875Y-22493084D01*
X62434467Y-22486028D01*
X62256007Y-22361069D01*
X62246511Y-22355586D01*
X62049053Y-22263510D01*
X62038761Y-22259764D01*
X61866497Y-22213606D01*
X61852401Y-22213942D01*
X61849000Y-22221884D01*
X61849000Y-23222885D01*
X61341000Y-23222885D01*
X61341000Y-22227033D01*
X61337027Y-22213502D01*
X61328478Y-22212273D01*
X61151239Y-22259764D01*
X61140947Y-22263510D01*
X60943489Y-22355586D01*
X60933993Y-22361069D01*
X60755533Y-22486028D01*
X60747125Y-22493084D01*
X60593084Y-22647125D01*
X60586028Y-22655533D01*
X60461069Y-22833993D01*
X60455586Y-22843489D01*
X60363510Y-23040947D01*
X60359764Y-23051239D01*
X60313606Y-23223503D01*
X55256911Y-23223503D01*
X55210707Y-23051067D01*
X55210706Y-23051065D01*
X55209284Y-23045757D01*
X55206961Y-23040775D01*
X55114849Y-22843238D01*
X55114846Y-22843233D01*
X55112523Y-22838251D01*
X54981198Y-22650700D01*
X54819300Y-22488802D01*
X54814792Y-22485645D01*
X54814789Y-22485643D01*
X54736611Y-22430902D01*
X54631749Y-22357477D01*
X54626767Y-22355154D01*
X54626762Y-22355151D01*
X54429225Y-22263039D01*
X54429224Y-22263039D01*
X54424243Y-22260716D01*
X54418935Y-22259294D01*
X54418933Y-22259293D01*
X54208402Y-22202881D01*
X54208400Y-22202881D01*
X54203087Y-22201457D01*
X53975000Y-22181502D01*
X53746913Y-22201457D01*
X53741600Y-22202881D01*
X53741598Y-22202881D01*
X53531067Y-22259293D01*
X53531065Y-22259294D01*
X53525757Y-22260716D01*
X53520776Y-22263039D01*
X53520775Y-22263039D01*
X53323238Y-22355151D01*
X53323233Y-22355154D01*
X53318251Y-22357477D01*
X53213389Y-22430902D01*
X53135211Y-22485643D01*
X53135208Y-22485645D01*
X53130700Y-22488802D01*
X52968802Y-22650700D01*
X52837477Y-22838251D01*
X52835154Y-22843233D01*
X52835151Y-22843238D01*
X52743039Y-23040775D01*
X52740716Y-23045757D01*
X52705000Y-23179050D01*
X52705000Y-18179600D01*
X188867400Y-18179600D01*
X188935521Y-18199602D01*
G37*
G04 #@! TD.AperFunction*
G04 #@! TA.AperFunction,Conductor*
G36*
X52740716Y-23944243D02*
G01*
X52743039Y-23949224D01*
X52743039Y-23949225D01*
X52835151Y-24146762D01*
X52835154Y-24146767D01*
X52837477Y-24151749D01*
X52968802Y-24339300D01*
X53130700Y-24501198D01*
X53135208Y-24504355D01*
X53135211Y-24504357D01*
X53180098Y-24535787D01*
X53224426Y-24591244D01*
X53231735Y-24661864D01*
X53199704Y-24725224D01*
X53138503Y-24761209D01*
X53107827Y-24765000D01*
X52705000Y-24765000D01*
X52705000Y-23810950D01*
X52740716Y-23944243D01*
G37*
G04 #@! TD.AperFunction*
G04 #@! TA.AperFunction,Conductor*
G36*
X52825389Y-112415002D02*
G01*
X52860481Y-112448730D01*
X52877508Y-112473047D01*
X52887988Y-112481424D01*
X52901434Y-112474356D01*
X52980790Y-112395000D01*
X53699210Y-112395000D01*
X53259923Y-112834287D01*
X53253493Y-112846062D01*
X53262789Y-112858077D01*
X53313994Y-112893931D01*
X53323489Y-112899414D01*
X53520947Y-112991490D01*
X53531239Y-112995236D01*
X53741688Y-113051625D01*
X53752481Y-113053528D01*
X53969525Y-113072517D01*
X53980475Y-113072517D01*
X54197519Y-113053528D01*
X54208312Y-113051625D01*
X54418761Y-112995236D01*
X54429053Y-112991490D01*
X54626511Y-112899414D01*
X54636006Y-112893931D01*
X54688048Y-112857491D01*
X54696424Y-112847012D01*
X54689356Y-112833566D01*
X54250790Y-112395000D01*
X54969210Y-112395000D01*
X55049287Y-112475077D01*
X55061062Y-112481507D01*
X55073078Y-112472210D01*
X55089519Y-112448730D01*
X55144976Y-112404401D01*
X55192732Y-112395000D01*
X55256657Y-112395000D01*
X55324778Y-112415002D01*
X55359869Y-112448728D01*
X55377814Y-112474356D01*
X55465606Y-112599735D01*
X55468802Y-112604300D01*
X55630700Y-112766198D01*
X55635208Y-112769355D01*
X55635211Y-112769357D01*
X55671538Y-112794793D01*
X55818251Y-112897523D01*
X55823233Y-112899846D01*
X55823238Y-112899849D01*
X56019765Y-112991490D01*
X56025757Y-112994284D01*
X56031065Y-112995706D01*
X56031067Y-112995707D01*
X56241598Y-113052119D01*
X56241600Y-113052119D01*
X56246913Y-113053543D01*
X56475000Y-113073498D01*
X56703087Y-113053543D01*
X56708400Y-113052119D01*
X56708402Y-113052119D01*
X56918933Y-112995707D01*
X56918935Y-112995706D01*
X56924243Y-112994284D01*
X56930235Y-112991490D01*
X57126762Y-112899849D01*
X57126767Y-112899846D01*
X57131749Y-112897523D01*
X57278462Y-112794793D01*
X57314789Y-112769357D01*
X57314792Y-112769355D01*
X57319300Y-112766198D01*
X57481198Y-112604300D01*
X57484395Y-112599735D01*
X57572186Y-112474356D01*
X57590131Y-112448728D01*
X57645587Y-112404401D01*
X57693343Y-112395000D01*
X75886906Y-112395000D01*
X75955027Y-112415002D01*
X75976001Y-112431905D01*
X76193934Y-112649838D01*
X76201478Y-112658128D01*
X76205591Y-112664609D01*
X76211368Y-112670034D01*
X76255258Y-112711249D01*
X76258100Y-112714004D01*
X76277822Y-112733726D01*
X76280946Y-112736149D01*
X76280950Y-112736153D01*
X76281015Y-112736203D01*
X76290036Y-112743908D01*
X76322270Y-112774177D01*
X76329218Y-112777996D01*
X76329220Y-112777998D01*
X76340023Y-112783937D01*
X76356550Y-112794793D01*
X76366289Y-112802348D01*
X76366291Y-112802349D01*
X76372551Y-112807205D01*
X76413131Y-112824765D01*
X76423779Y-112829982D01*
X76454757Y-112847012D01*
X76462531Y-112851286D01*
X76470207Y-112853257D01*
X76470210Y-112853258D01*
X76482153Y-112856324D01*
X76500858Y-112862728D01*
X76519446Y-112870772D01*
X76527269Y-112872011D01*
X76527279Y-112872014D01*
X76563115Y-112877690D01*
X76574735Y-112880096D01*
X76609880Y-112889119D01*
X76617561Y-112891091D01*
X76637815Y-112891091D01*
X76657525Y-112892642D01*
X76677534Y-112895811D01*
X76685426Y-112895065D01*
X76721552Y-112891650D01*
X76733410Y-112891091D01*
X87630000Y-112891091D01*
X87630000Y-115348200D01*
X47124000Y-115348200D01*
X47055879Y-115328198D01*
X47009386Y-115274542D01*
X46998000Y-115222200D01*
X46998000Y-112395000D01*
X52757268Y-112395000D01*
X52825389Y-112415002D01*
G37*
G04 #@! TD.AperFunction*
G04 #@! TA.AperFunction,Conductor*
G36*
X52705000Y-23179049D02*
G01*
X52681457Y-23266913D01*
X52661502Y-23495000D01*
X52681457Y-23723087D01*
X52682881Y-23728400D01*
X52682881Y-23728402D01*
X52705000Y-23810951D01*
X52705000Y-25702461D01*
X52700707Y-25735070D01*
X52681457Y-25806913D01*
X52661502Y-26035000D01*
X52681457Y-26263087D01*
X52700707Y-26334927D01*
X52705000Y-26367539D01*
X52705000Y-28242461D01*
X52700707Y-28275070D01*
X52681457Y-28346913D01*
X52661502Y-28575000D01*
X52681457Y-28803087D01*
X52700707Y-28874927D01*
X52705000Y-28907539D01*
X52705000Y-30782461D01*
X52700707Y-30815070D01*
X52681457Y-30886913D01*
X52661502Y-31115000D01*
X52681457Y-31343087D01*
X52700707Y-31414927D01*
X52705000Y-31447539D01*
X52705000Y-33322461D01*
X52700707Y-33355070D01*
X52681457Y-33426913D01*
X52661502Y-33655000D01*
X52681457Y-33883087D01*
X52700707Y-33954927D01*
X52705000Y-33987539D01*
X52705000Y-35862461D01*
X52700707Y-35895070D01*
X52681457Y-35966913D01*
X52661502Y-36195000D01*
X52681457Y-36423087D01*
X52700707Y-36494927D01*
X52705000Y-36527539D01*
X52705000Y-38402461D01*
X52700707Y-38435070D01*
X52681457Y-38506913D01*
X52661502Y-38735000D01*
X52681457Y-38963087D01*
X52700707Y-39034927D01*
X52705000Y-39067539D01*
X52705000Y-39691905D01*
X52684998Y-39760026D01*
X52668095Y-39781000D01*
X52107747Y-40341348D01*
X52099461Y-40348888D01*
X52092982Y-40353000D01*
X52087557Y-40358777D01*
X52046357Y-40402651D01*
X52043602Y-40405493D01*
X52023865Y-40425230D01*
X52021385Y-40428427D01*
X52013682Y-40437447D01*
X51983414Y-40469679D01*
X51979595Y-40476625D01*
X51979593Y-40476628D01*
X51973652Y-40487434D01*
X51962801Y-40503953D01*
X51950386Y-40519959D01*
X51947241Y-40527228D01*
X51947238Y-40527232D01*
X51932826Y-40560537D01*
X51927609Y-40571187D01*
X51906305Y-40609940D01*
X51904334Y-40617615D01*
X51904334Y-40617616D01*
X51901267Y-40629562D01*
X51894863Y-40648266D01*
X51886819Y-40666855D01*
X51885580Y-40674678D01*
X51885577Y-40674688D01*
X51879901Y-40710524D01*
X51877495Y-40722144D01*
X51866500Y-40764970D01*
X51866500Y-40785224D01*
X51864949Y-40804934D01*
X51861780Y-40824943D01*
X51862526Y-40832835D01*
X51865941Y-40868961D01*
X51866500Y-40880819D01*
X51866500Y-51151233D01*
X51865973Y-51162416D01*
X51864298Y-51169909D01*
X51864547Y-51177835D01*
X51864547Y-51177836D01*
X51866438Y-51237986D01*
X51866500Y-51241945D01*
X51866500Y-51269856D01*
X51866997Y-51273790D01*
X51866997Y-51273791D01*
X51867005Y-51273856D01*
X51867938Y-51285693D01*
X51869327Y-51329889D01*
X51874978Y-51349339D01*
X51878987Y-51368700D01*
X51881526Y-51388797D01*
X51884445Y-51396168D01*
X51884445Y-51396170D01*
X51897804Y-51429912D01*
X51901649Y-51441142D01*
X51913982Y-51483593D01*
X51918015Y-51490412D01*
X51918017Y-51490417D01*
X51924293Y-51501028D01*
X51932988Y-51518776D01*
X51940448Y-51537617D01*
X51945110Y-51544033D01*
X51945110Y-51544034D01*
X51966436Y-51573387D01*
X51972952Y-51583307D01*
X51995458Y-51621362D01*
X52009779Y-51635683D01*
X52022619Y-51650716D01*
X52034528Y-51667107D01*
X52040634Y-51672158D01*
X52068605Y-51695298D01*
X52077384Y-51703288D01*
X52665849Y-52291753D01*
X52699875Y-52354065D01*
X52698460Y-52413458D01*
X52681457Y-52476913D01*
X52661502Y-52705000D01*
X52681457Y-52933087D01*
X52700707Y-53004927D01*
X52705000Y-53037539D01*
X52705000Y-59994392D01*
X52700707Y-60027003D01*
X52693606Y-60053503D01*
X52693942Y-60067599D01*
X52701884Y-60071000D01*
X52705000Y-60071000D01*
X52705000Y-60579597D01*
X52693502Y-60582973D01*
X52692273Y-60591522D01*
X52700707Y-60622997D01*
X52705000Y-60655608D01*
X52705000Y-63802461D01*
X52700707Y-63835070D01*
X52681457Y-63906913D01*
X52661502Y-64135000D01*
X52681457Y-64363087D01*
X52700707Y-64434927D01*
X52705000Y-64467539D01*
X52705000Y-66342461D01*
X52700707Y-66375070D01*
X52681457Y-66446913D01*
X52661502Y-66675000D01*
X52681457Y-66903087D01*
X52700707Y-66974927D01*
X52705000Y-67007539D01*
X52705000Y-70152461D01*
X52700707Y-70185070D01*
X52681457Y-70256913D01*
X52661502Y-70485000D01*
X52681457Y-70713087D01*
X52700707Y-70784927D01*
X52705000Y-70817539D01*
X52705000Y-84707163D01*
X52696982Y-84751392D01*
X52673255Y-84814684D01*
X52666500Y-84876866D01*
X52666500Y-86573134D01*
X52673255Y-86635316D01*
X52676027Y-86642709D01*
X52676027Y-86642711D01*
X52696982Y-86698608D01*
X52705000Y-86742837D01*
X52705000Y-93012461D01*
X52700707Y-93045070D01*
X52681457Y-93116913D01*
X52661502Y-93345000D01*
X52681457Y-93573087D01*
X52700707Y-93644927D01*
X52705000Y-93677539D01*
X52705000Y-107567163D01*
X52696982Y-107611392D01*
X52673255Y-107674684D01*
X52666500Y-107736866D01*
X52666500Y-109433134D01*
X52673255Y-109495316D01*
X52676027Y-109502709D01*
X52676027Y-109502711D01*
X52696982Y-109558608D01*
X52705000Y-109602837D01*
X52705000Y-111429392D01*
X52700707Y-111462003D01*
X52683375Y-111526688D01*
X52681472Y-111537481D01*
X52662483Y-111754525D01*
X52662483Y-111765475D01*
X52681472Y-111982519D01*
X52683375Y-111993312D01*
X52700707Y-112057997D01*
X52705000Y-112090608D01*
X52705000Y-112395000D01*
X46998000Y-112395000D01*
X46998000Y-18305600D01*
X47018002Y-18237479D01*
X47071658Y-18190986D01*
X47124000Y-18179600D01*
X52705000Y-18179600D01*
X52705000Y-23179049D01*
G37*
G04 #@! TD.AperFunction*
G04 #@! TA.AperFunction,Conductor*
G36*
X128263227Y-137815002D02*
G01*
X128309720Y-137868658D01*
X128319824Y-137938932D01*
X128310343Y-137970756D01*
X128310393Y-137970774D01*
X128310087Y-137971614D01*
X128309304Y-137974243D01*
X128308512Y-137975941D01*
X128304764Y-137986239D01*
X128258606Y-138158503D01*
X128258942Y-138172599D01*
X128266884Y-138176000D01*
X130807967Y-138176000D01*
X130821498Y-138172027D01*
X130822727Y-138163478D01*
X130775236Y-137986239D01*
X130771488Y-137975941D01*
X130770696Y-137974243D01*
X130770572Y-137973425D01*
X130769607Y-137970774D01*
X130770140Y-137970580D01*
X130760039Y-137904051D01*
X130789023Y-137839240D01*
X130848445Y-137800387D01*
X130884894Y-137795000D01*
X131954000Y-137795000D01*
X132022121Y-137815002D01*
X132068614Y-137868658D01*
X132080000Y-137921000D01*
X132080000Y-146559000D01*
X132059998Y-146627121D01*
X132006342Y-146673614D01*
X131954000Y-146685000D01*
X130898918Y-146685000D01*
X130830797Y-146664998D01*
X130784304Y-146611342D01*
X130774200Y-146541068D01*
X130777211Y-146526389D01*
X130831625Y-146323312D01*
X130833528Y-146312519D01*
X130852517Y-146095475D01*
X130852517Y-146084525D01*
X130833528Y-145867481D01*
X130831625Y-145856688D01*
X130775236Y-145646239D01*
X130771490Y-145635947D01*
X130679414Y-145438489D01*
X130673931Y-145428994D01*
X130637491Y-145376952D01*
X130627012Y-145368576D01*
X130613566Y-145375644D01*
X129629095Y-146360115D01*
X129566783Y-146394141D01*
X129495968Y-146389076D01*
X129450905Y-146360115D01*
X128465713Y-145374923D01*
X128453938Y-145368493D01*
X128441923Y-145377789D01*
X128406069Y-145428994D01*
X128400586Y-145438489D01*
X128308510Y-145635947D01*
X128304764Y-145646239D01*
X128248375Y-145856688D01*
X128246472Y-145867481D01*
X128227483Y-146084525D01*
X128227483Y-146095475D01*
X128246472Y-146312519D01*
X128248375Y-146323312D01*
X128302789Y-146526389D01*
X128301099Y-146597365D01*
X128261305Y-146656161D01*
X128196041Y-146684109D01*
X128181082Y-146685000D01*
X115658918Y-146685000D01*
X115590797Y-146664998D01*
X115544304Y-146611342D01*
X115534200Y-146541068D01*
X115537211Y-146526389D01*
X115591625Y-146323312D01*
X115593528Y-146312519D01*
X115612517Y-146095475D01*
X115612517Y-146084525D01*
X115593528Y-145867481D01*
X115591625Y-145856688D01*
X115535236Y-145646239D01*
X115531490Y-145635947D01*
X115439414Y-145438489D01*
X115433931Y-145428994D01*
X115397491Y-145376952D01*
X115387012Y-145368576D01*
X115373566Y-145375644D01*
X114389095Y-146360115D01*
X114326783Y-146394141D01*
X114255968Y-146389076D01*
X114210905Y-146360115D01*
X113225713Y-145374923D01*
X113213938Y-145368493D01*
X113201923Y-145377789D01*
X113166069Y-145428994D01*
X113160586Y-145438489D01*
X113068510Y-145635947D01*
X113064764Y-145646239D01*
X113008375Y-145856688D01*
X113006472Y-145867481D01*
X112987483Y-146084525D01*
X112987483Y-146095475D01*
X113006472Y-146312519D01*
X113008375Y-146323312D01*
X113062789Y-146526389D01*
X113061099Y-146597365D01*
X113021305Y-146656161D01*
X112956041Y-146684109D01*
X112941082Y-146685000D01*
X99148918Y-146685000D01*
X99080797Y-146664998D01*
X99034304Y-146611342D01*
X99024200Y-146541068D01*
X99027211Y-146526389D01*
X99081625Y-146323312D01*
X99083528Y-146312519D01*
X99102517Y-146095475D01*
X99102517Y-146084525D01*
X99083528Y-145867481D01*
X99081625Y-145856688D01*
X99025236Y-145646239D01*
X99021490Y-145635947D01*
X98929414Y-145438489D01*
X98923931Y-145428994D01*
X98887491Y-145376952D01*
X98877012Y-145368576D01*
X98863566Y-145375644D01*
X97879095Y-146360115D01*
X97816783Y-146394141D01*
X97745968Y-146389076D01*
X97700905Y-146360115D01*
X96715713Y-145374923D01*
X96703938Y-145368493D01*
X96691923Y-145377789D01*
X96656069Y-145428994D01*
X96650586Y-145438489D01*
X96558510Y-145635947D01*
X96554764Y-145646239D01*
X96498375Y-145856688D01*
X96496472Y-145867481D01*
X96477483Y-146084525D01*
X96477483Y-146095475D01*
X96496472Y-146312519D01*
X96498375Y-146323312D01*
X96552789Y-146526389D01*
X96551099Y-146597365D01*
X96511305Y-146656161D01*
X96446041Y-146684109D01*
X96431082Y-146685000D01*
X93980000Y-146685000D01*
X93980000Y-145002988D01*
X97068576Y-145002988D01*
X97075644Y-145016434D01*
X97777188Y-145717978D01*
X97791132Y-145725592D01*
X97792965Y-145725461D01*
X97799580Y-145721210D01*
X98505077Y-145015713D01*
X98511507Y-145003938D01*
X98510772Y-145002988D01*
X113578576Y-145002988D01*
X113585644Y-145016434D01*
X114287188Y-145717978D01*
X114301132Y-145725592D01*
X114302965Y-145725461D01*
X114309580Y-145721210D01*
X115015077Y-145015713D01*
X115021507Y-145003938D01*
X115020772Y-145002988D01*
X128818576Y-145002988D01*
X128825644Y-145016434D01*
X129527188Y-145717978D01*
X129541132Y-145725592D01*
X129542965Y-145725461D01*
X129549580Y-145721210D01*
X130255077Y-145015713D01*
X130261507Y-145003938D01*
X130252211Y-144991923D01*
X130201006Y-144956069D01*
X130191511Y-144950586D01*
X129994053Y-144858510D01*
X129983761Y-144854764D01*
X129773312Y-144798375D01*
X129762519Y-144796472D01*
X129545475Y-144777483D01*
X129534525Y-144777483D01*
X129317481Y-144796472D01*
X129306688Y-144798375D01*
X129096239Y-144854764D01*
X129085947Y-144858510D01*
X128888489Y-144950586D01*
X128878994Y-144956069D01*
X128826952Y-144992509D01*
X128818576Y-145002988D01*
X115020772Y-145002988D01*
X115012211Y-144991923D01*
X114961006Y-144956069D01*
X114951511Y-144950586D01*
X114754053Y-144858510D01*
X114743761Y-144854764D01*
X114533312Y-144798375D01*
X114522519Y-144796472D01*
X114305475Y-144777483D01*
X114294525Y-144777483D01*
X114077481Y-144796472D01*
X114066688Y-144798375D01*
X113856239Y-144854764D01*
X113845947Y-144858510D01*
X113648489Y-144950586D01*
X113638994Y-144956069D01*
X113586952Y-144992509D01*
X113578576Y-145002988D01*
X98510772Y-145002988D01*
X98502211Y-144991923D01*
X98451006Y-144956069D01*
X98441511Y-144950586D01*
X98244053Y-144858510D01*
X98233761Y-144854764D01*
X98023312Y-144798375D01*
X98012519Y-144796472D01*
X97795475Y-144777483D01*
X97784525Y-144777483D01*
X97567481Y-144796472D01*
X97556688Y-144798375D01*
X97346239Y-144854764D01*
X97335947Y-144858510D01*
X97138489Y-144950586D01*
X97128994Y-144956069D01*
X97076952Y-144992509D01*
X97068576Y-145002988D01*
X93980000Y-145002988D01*
X93980000Y-142240000D01*
X106349392Y-142240000D01*
X106382003Y-142244293D01*
X106408503Y-142251394D01*
X106422599Y-142251058D01*
X106426000Y-142243116D01*
X106426000Y-142240000D01*
X106934597Y-142240000D01*
X106937973Y-142251498D01*
X106946522Y-142252727D01*
X106977997Y-142244293D01*
X107010608Y-142240000D01*
X113967461Y-142240000D01*
X114000070Y-142244293D01*
X114071913Y-142263543D01*
X114300000Y-142283498D01*
X114528087Y-142263543D01*
X114599930Y-142244293D01*
X114632539Y-142240000D01*
X121589392Y-142240000D01*
X121622003Y-142244293D01*
X121648503Y-142251394D01*
X121662599Y-142251058D01*
X121666000Y-142243116D01*
X121666000Y-142240000D01*
X122174597Y-142240000D01*
X122177973Y-142251498D01*
X122186522Y-142252727D01*
X122217997Y-142244293D01*
X122250608Y-142240000D01*
X123190000Y-142240000D01*
X123190000Y-141300608D01*
X123194293Y-141267997D01*
X123201394Y-141241497D01*
X123201058Y-141227401D01*
X123193116Y-141224000D01*
X123190000Y-141224000D01*
X123190000Y-140970000D01*
X128226502Y-140970000D01*
X128246457Y-141198087D01*
X128247881Y-141203400D01*
X128247881Y-141203402D01*
X128273928Y-141300608D01*
X128305716Y-141419243D01*
X128308039Y-141424224D01*
X128308039Y-141424225D01*
X128400151Y-141621762D01*
X128400154Y-141621767D01*
X128402477Y-141626749D01*
X128533802Y-141814300D01*
X128695700Y-141976198D01*
X128700208Y-141979355D01*
X128700211Y-141979357D01*
X128778389Y-142034098D01*
X128883251Y-142107523D01*
X128888233Y-142109846D01*
X128888238Y-142109849D01*
X129085775Y-142201961D01*
X129090757Y-142204284D01*
X129096065Y-142205706D01*
X129096067Y-142205707D01*
X129306598Y-142262119D01*
X129306600Y-142262119D01*
X129311913Y-142263543D01*
X129540000Y-142283498D01*
X129768087Y-142263543D01*
X129773400Y-142262119D01*
X129773402Y-142262119D01*
X129983933Y-142205707D01*
X129983935Y-142205706D01*
X129989243Y-142204284D01*
X129994225Y-142201961D01*
X130191762Y-142109849D01*
X130191767Y-142109846D01*
X130196749Y-142107523D01*
X130301611Y-142034098D01*
X130379789Y-141979357D01*
X130379792Y-141979355D01*
X130384300Y-141976198D01*
X130546198Y-141814300D01*
X130677523Y-141626749D01*
X130679846Y-141621767D01*
X130679849Y-141621762D01*
X130771961Y-141424225D01*
X130771961Y-141424224D01*
X130774284Y-141419243D01*
X130806073Y-141300608D01*
X130832119Y-141203402D01*
X130832119Y-141203400D01*
X130833543Y-141198087D01*
X130853498Y-140970000D01*
X130833543Y-140741913D01*
X130814811Y-140672003D01*
X130775707Y-140526067D01*
X130775706Y-140526065D01*
X130774284Y-140520757D01*
X130771961Y-140515775D01*
X130679849Y-140318238D01*
X130679846Y-140318233D01*
X130677523Y-140313251D01*
X130546198Y-140125700D01*
X130384300Y-139963802D01*
X130379792Y-139960645D01*
X130379789Y-139960643D01*
X130301611Y-139905902D01*
X130196749Y-139832477D01*
X130191767Y-139830154D01*
X130191762Y-139830151D01*
X130156951Y-139813919D01*
X130103666Y-139767002D01*
X130084205Y-139698725D01*
X130104747Y-139630765D01*
X130156951Y-139585529D01*
X130191511Y-139569414D01*
X130201007Y-139563931D01*
X130379467Y-139438972D01*
X130387875Y-139431916D01*
X130541916Y-139277875D01*
X130548972Y-139269467D01*
X130673931Y-139091007D01*
X130679414Y-139081511D01*
X130771490Y-138884053D01*
X130775236Y-138873761D01*
X130821394Y-138701497D01*
X130821058Y-138687401D01*
X130813116Y-138684000D01*
X128272033Y-138684000D01*
X128258502Y-138687973D01*
X128257273Y-138696522D01*
X128304764Y-138873761D01*
X128308510Y-138884053D01*
X128400586Y-139081511D01*
X128406069Y-139091007D01*
X128531028Y-139269467D01*
X128538084Y-139277875D01*
X128692125Y-139431916D01*
X128700533Y-139438972D01*
X128878993Y-139563931D01*
X128888489Y-139569414D01*
X128923049Y-139585529D01*
X128976334Y-139632446D01*
X128995795Y-139700723D01*
X128975253Y-139768683D01*
X128923049Y-139813919D01*
X128888238Y-139830151D01*
X128888233Y-139830154D01*
X128883251Y-139832477D01*
X128778389Y-139905902D01*
X128700211Y-139960643D01*
X128700208Y-139960645D01*
X128695700Y-139963802D01*
X128533802Y-140125700D01*
X128402477Y-140313251D01*
X128400154Y-140318233D01*
X128400151Y-140318238D01*
X128308039Y-140515775D01*
X128305716Y-140520757D01*
X128304294Y-140526065D01*
X128304293Y-140526067D01*
X128265189Y-140672003D01*
X128246457Y-140741913D01*
X128226502Y-140970000D01*
X123190000Y-140970000D01*
X123190000Y-140715403D01*
X123201498Y-140712027D01*
X123202727Y-140703478D01*
X123194293Y-140672003D01*
X123190000Y-140639392D01*
X123190000Y-138762539D01*
X123194293Y-138729927D01*
X123203244Y-138696522D01*
X123213543Y-138658087D01*
X123233498Y-138430000D01*
X123213543Y-138201913D01*
X123194293Y-138130070D01*
X123190000Y-138097461D01*
X123190000Y-137921000D01*
X123210002Y-137852879D01*
X123263658Y-137806386D01*
X123316000Y-137795000D01*
X128195106Y-137795000D01*
X128263227Y-137815002D01*
G37*
G04 #@! TD.AperFunction*
G04 #@! TA.AperFunction,Conductor*
G36*
X188935521Y-113685002D02*
G01*
X188982014Y-113738658D01*
X188993400Y-113791000D01*
X188993400Y-115222200D01*
X188973398Y-115290321D01*
X188919742Y-115336814D01*
X188867400Y-115348200D01*
X148590000Y-115348200D01*
X148590000Y-114108980D01*
X187698687Y-114108980D01*
X187722296Y-114111212D01*
X187722599Y-114111270D01*
X187722603Y-114111270D01*
X187730386Y-114112755D01*
X187786431Y-114109229D01*
X187794342Y-114108980D01*
X187810336Y-114108980D01*
X187826210Y-114106974D01*
X187834070Y-114106232D01*
X187861529Y-114104504D01*
X187882217Y-114103203D01*
X187882218Y-114103203D01*
X187890130Y-114102705D01*
X187897671Y-114100255D01*
X187897967Y-114100159D01*
X187921111Y-114094986D01*
X187921415Y-114094948D01*
X187921420Y-114094947D01*
X187929277Y-114093954D01*
X187936642Y-114091038D01*
X187936646Y-114091037D01*
X187981491Y-114073281D01*
X187988910Y-114070609D01*
X188042355Y-114053244D01*
X188049052Y-114048994D01*
X188049311Y-114048830D01*
X188070438Y-114038065D01*
X188070726Y-114037951D01*
X188070731Y-114037948D01*
X188078097Y-114035032D01*
X188084505Y-114030376D01*
X188084511Y-114030373D01*
X188123532Y-114002022D01*
X188130069Y-113997579D01*
X188177498Y-113967480D01*
X188183139Y-113961473D01*
X188200926Y-113945792D01*
X188201171Y-113945614D01*
X188201173Y-113945612D01*
X188207587Y-113940952D01*
X188212642Y-113934842D01*
X188243383Y-113897684D01*
X188248614Y-113891750D01*
X188281638Y-113856582D01*
X188281640Y-113856579D01*
X188287066Y-113850801D01*
X188291038Y-113843577D01*
X188304361Y-113823974D01*
X188304560Y-113823734D01*
X188304564Y-113823727D01*
X188309613Y-113817624D01*
X188333527Y-113766804D01*
X188337120Y-113759752D01*
X188353313Y-113730298D01*
X188403656Y-113680241D01*
X188463726Y-113665000D01*
X188867400Y-113665000D01*
X188935521Y-113685002D01*
G37*
G04 #@! TD.AperFunction*
G04 #@! TA.AperFunction,Conductor*
G36*
X148590000Y-115348200D02*
G01*
X147100102Y-115348200D01*
X147099332Y-115348198D01*
X147098478Y-115348193D01*
X147021748Y-115347724D01*
X147013119Y-115350190D01*
X147013114Y-115350191D01*
X146993352Y-115355839D01*
X146976591Y-115359417D01*
X146956248Y-115362330D01*
X146956238Y-115362333D01*
X146947355Y-115363605D01*
X146924005Y-115374221D01*
X146906493Y-115380664D01*
X146893600Y-115384349D01*
X146881835Y-115387712D01*
X146856852Y-115403474D01*
X146841786Y-115411604D01*
X146814890Y-115423833D01*
X146795461Y-115440574D01*
X146780453Y-115451679D01*
X146758769Y-115465360D01*
X146752827Y-115472088D01*
X146739219Y-115487496D01*
X146727027Y-115499540D01*
X146704653Y-115518819D01*
X146699774Y-115526347D01*
X146699771Y-115526350D01*
X146690704Y-115540339D01*
X146679414Y-115555213D01*
X146662444Y-115574428D01*
X146649890Y-115601166D01*
X146641576Y-115616135D01*
X146625507Y-115640927D01*
X146622935Y-115649527D01*
X146618161Y-115665490D01*
X146611499Y-115682936D01*
X146600601Y-115706148D01*
X146599220Y-115715021D01*
X146596058Y-115735328D01*
X146592274Y-115752049D01*
X146586386Y-115771736D01*
X146586385Y-115771739D01*
X146583813Y-115780341D01*
X146583758Y-115789316D01*
X146583758Y-115789317D01*
X146583603Y-115814746D01*
X146583570Y-115815528D01*
X146583400Y-115816623D01*
X146583400Y-115847498D01*
X146583398Y-115848268D01*
X146582924Y-115925852D01*
X146583308Y-115927196D01*
X146583400Y-115928541D01*
X146583400Y-177165000D01*
X142875000Y-177165000D01*
X142875000Y-136356609D01*
X142895002Y-136288488D01*
X142930541Y-136252151D01*
X142975345Y-136221930D01*
X142975350Y-136221926D01*
X142978265Y-136219960D01*
X143250444Y-135988317D01*
X143416317Y-135811681D01*
X143492695Y-135730347D01*
X143492699Y-135730342D01*
X143495106Y-135727779D01*
X143497211Y-135724965D01*
X143497217Y-135724958D01*
X143707092Y-135444411D01*
X143709201Y-135441592D01*
X143890061Y-135133324D01*
X143891493Y-135130108D01*
X144033999Y-134810034D01*
X144034001Y-134810029D01*
X144035431Y-134806817D01*
X144143500Y-134466140D01*
X144212921Y-134115540D01*
X144242828Y-133759387D01*
X144243439Y-133715661D01*
X144244046Y-133672178D01*
X144244046Y-133672166D01*
X144244076Y-133670000D01*
X144242800Y-133647168D01*
X144230158Y-133421060D01*
X144224125Y-133313150D01*
X144164521Y-132960749D01*
X144066006Y-132617187D01*
X143934403Y-132297893D01*
X143931147Y-132289993D01*
X143931143Y-132289985D01*
X143929809Y-132286748D01*
X143757627Y-131973550D01*
X143551606Y-131681497D01*
X143314314Y-131414229D01*
X143048709Y-131175077D01*
X143045856Y-131173035D01*
X143045848Y-131173028D01*
X142976376Y-131123292D01*
X142927652Y-131088409D01*
X142883907Y-131032492D01*
X142875000Y-130985959D01*
X142875000Y-114234980D01*
X142895002Y-114166859D01*
X142948658Y-114120366D01*
X143001000Y-114108980D01*
X148590000Y-114108980D01*
X148590000Y-115348200D01*
G37*
G04 #@! TD.AperFunction*
M02*
