G04 #@! TF.GenerationSoftware,KiCad,Pcbnew,(6.0.0)*
G04 #@! TF.CreationDate,2022-08-18T21:38:14-04:00*
G04 #@! TF.ProjectId,intellivision t-card replic,696e7465-6c6c-4697-9669-73696f6e2074,rev?*
G04 #@! TF.SameCoordinates,Original*
G04 #@! TF.FileFunction,Legend,Bot*
G04 #@! TF.FilePolarity,Positive*
%FSLAX46Y46*%
G04 Gerber Fmt 4.6, Leading zero omitted, Abs format (unit mm)*
G04 Created by KiCad (PCBNEW (6.0.0)) date 2022-08-18 21:38:14*
%MOMM*%
%LPD*%
G01*
G04 APERTURE LIST*
%ADD10C,0.150000*%
%ADD11C,1.600000*%
%ADD12O,1.600000X1.600000*%
%ADD13R,1.600000X1.600000*%
%ADD14R,1.270000X8.840000*%
G04 APERTURE END LIST*
D10*
X143149761Y-21407380D02*
X143149761Y-20407380D01*
X142673571Y-20740714D02*
X142673571Y-21407380D01*
X142673571Y-20835952D02*
X142625952Y-20788333D01*
X142530714Y-20740714D01*
X142387857Y-20740714D01*
X142292619Y-20788333D01*
X142245000Y-20883571D01*
X142245000Y-21407380D01*
X141911666Y-20740714D02*
X141530714Y-20740714D01*
X141768809Y-20407380D02*
X141768809Y-21264523D01*
X141721190Y-21359761D01*
X141625952Y-21407380D01*
X141530714Y-21407380D01*
X140816428Y-21359761D02*
X140911666Y-21407380D01*
X141102142Y-21407380D01*
X141197380Y-21359761D01*
X141245000Y-21264523D01*
X141245000Y-20883571D01*
X141197380Y-20788333D01*
X141102142Y-20740714D01*
X140911666Y-20740714D01*
X140816428Y-20788333D01*
X140768809Y-20883571D01*
X140768809Y-20978809D01*
X141245000Y-21074047D01*
X140197380Y-21407380D02*
X140292619Y-21359761D01*
X140340238Y-21264523D01*
X140340238Y-20407380D01*
X139673571Y-21407380D02*
X139768809Y-21359761D01*
X139816428Y-21264523D01*
X139816428Y-20407380D01*
X139292619Y-21407380D02*
X139292619Y-20740714D01*
X139292619Y-20407380D02*
X139340238Y-20455000D01*
X139292619Y-20502619D01*
X139245000Y-20455000D01*
X139292619Y-20407380D01*
X139292619Y-20502619D01*
X138911666Y-20740714D02*
X138673571Y-21407380D01*
X138435476Y-20740714D01*
X138054523Y-21407380D02*
X138054523Y-20740714D01*
X138054523Y-20407380D02*
X138102142Y-20455000D01*
X138054523Y-20502619D01*
X138006904Y-20455000D01*
X138054523Y-20407380D01*
X138054523Y-20502619D01*
X137625952Y-21359761D02*
X137530714Y-21407380D01*
X137340238Y-21407380D01*
X137245000Y-21359761D01*
X137197380Y-21264523D01*
X137197380Y-21216904D01*
X137245000Y-21121666D01*
X137340238Y-21074047D01*
X137483095Y-21074047D01*
X137578333Y-21026428D01*
X137625952Y-20931190D01*
X137625952Y-20883571D01*
X137578333Y-20788333D01*
X137483095Y-20740714D01*
X137340238Y-20740714D01*
X137245000Y-20788333D01*
X136768809Y-21407380D02*
X136768809Y-20740714D01*
X136768809Y-20407380D02*
X136816428Y-20455000D01*
X136768809Y-20502619D01*
X136721190Y-20455000D01*
X136768809Y-20407380D01*
X136768809Y-20502619D01*
X136149761Y-21407380D02*
X136245000Y-21359761D01*
X136292619Y-21312142D01*
X136340238Y-21216904D01*
X136340238Y-20931190D01*
X136292619Y-20835952D01*
X136245000Y-20788333D01*
X136149761Y-20740714D01*
X136006904Y-20740714D01*
X135911666Y-20788333D01*
X135864047Y-20835952D01*
X135816428Y-20931190D01*
X135816428Y-21216904D01*
X135864047Y-21312142D01*
X135911666Y-21359761D01*
X136006904Y-21407380D01*
X136149761Y-21407380D01*
X135387857Y-20740714D02*
X135387857Y-21407380D01*
X135387857Y-20835952D02*
X135340238Y-20788333D01*
X135245000Y-20740714D01*
X135102142Y-20740714D01*
X135006904Y-20788333D01*
X134959285Y-20883571D01*
X134959285Y-21407380D01*
X133864047Y-20407380D02*
X133292619Y-20407380D01*
X133578333Y-21407380D02*
X133578333Y-20407380D01*
X132959285Y-21026428D02*
X132197380Y-21026428D01*
X131292619Y-21359761D02*
X131387857Y-21407380D01*
X131578333Y-21407380D01*
X131673571Y-21359761D01*
X131721190Y-21312142D01*
X131768809Y-21216904D01*
X131768809Y-20931190D01*
X131721190Y-20835952D01*
X131673571Y-20788333D01*
X131578333Y-20740714D01*
X131387857Y-20740714D01*
X131292619Y-20788333D01*
X130435476Y-21407380D02*
X130435476Y-20883571D01*
X130483095Y-20788333D01*
X130578333Y-20740714D01*
X130768809Y-20740714D01*
X130864047Y-20788333D01*
X130435476Y-21359761D02*
X130530714Y-21407380D01*
X130768809Y-21407380D01*
X130864047Y-21359761D01*
X130911666Y-21264523D01*
X130911666Y-21169285D01*
X130864047Y-21074047D01*
X130768809Y-21026428D01*
X130530714Y-21026428D01*
X130435476Y-20978809D01*
X129959285Y-21407380D02*
X129959285Y-20740714D01*
X129959285Y-20931190D02*
X129911666Y-20835952D01*
X129864047Y-20788333D01*
X129768809Y-20740714D01*
X129673571Y-20740714D01*
X128911666Y-21407380D02*
X128911666Y-20407380D01*
X128911666Y-21359761D02*
X129006904Y-21407380D01*
X129197380Y-21407380D01*
X129292619Y-21359761D01*
X129340238Y-21312142D01*
X129387857Y-21216904D01*
X129387857Y-20931190D01*
X129340238Y-20835952D01*
X129292619Y-20788333D01*
X129197380Y-20740714D01*
X129006904Y-20740714D01*
X128911666Y-20788333D01*
X127816428Y-20740714D02*
X127435476Y-20740714D01*
X127673571Y-21407380D02*
X127673571Y-20550238D01*
X127625952Y-20455000D01*
X127530714Y-20407380D01*
X127435476Y-20407380D01*
X126959285Y-21407380D02*
X127054523Y-21359761D01*
X127102142Y-21312142D01*
X127149761Y-21216904D01*
X127149761Y-20931190D01*
X127102142Y-20835952D01*
X127054523Y-20788333D01*
X126959285Y-20740714D01*
X126816428Y-20740714D01*
X126721190Y-20788333D01*
X126673571Y-20835952D01*
X126625952Y-20931190D01*
X126625952Y-21216904D01*
X126673571Y-21312142D01*
X126721190Y-21359761D01*
X126816428Y-21407380D01*
X126959285Y-21407380D01*
X126197380Y-21407380D02*
X126197380Y-20740714D01*
X126197380Y-20931190D02*
X126149761Y-20835952D01*
X126102142Y-20788333D01*
X126006904Y-20740714D01*
X125911666Y-20740714D01*
X124387857Y-20740714D02*
X124387857Y-21407380D01*
X124816428Y-20740714D02*
X124816428Y-21264523D01*
X124768809Y-21359761D01*
X124673571Y-21407380D01*
X124530714Y-21407380D01*
X124435476Y-21359761D01*
X124387857Y-21312142D01*
X123959285Y-21359761D02*
X123864047Y-21407380D01*
X123673571Y-21407380D01*
X123578333Y-21359761D01*
X123530714Y-21264523D01*
X123530714Y-21216904D01*
X123578333Y-21121666D01*
X123673571Y-21074047D01*
X123816428Y-21074047D01*
X123911666Y-21026428D01*
X123959285Y-20931190D01*
X123959285Y-20883571D01*
X123911666Y-20788333D01*
X123816428Y-20740714D01*
X123673571Y-20740714D01*
X123578333Y-20788333D01*
X122721190Y-21359761D02*
X122816428Y-21407380D01*
X123006904Y-21407380D01*
X123102142Y-21359761D01*
X123149761Y-21264523D01*
X123149761Y-20883571D01*
X123102142Y-20788333D01*
X123006904Y-20740714D01*
X122816428Y-20740714D01*
X122721190Y-20788333D01*
X122673571Y-20883571D01*
X122673571Y-20978809D01*
X123149761Y-21074047D01*
X121578333Y-20740714D02*
X121387857Y-21407380D01*
X121197380Y-20931190D01*
X121006904Y-21407380D01*
X120816428Y-20740714D01*
X120435476Y-21407380D02*
X120435476Y-20740714D01*
X120435476Y-20407380D02*
X120483095Y-20455000D01*
X120435476Y-20502619D01*
X120387857Y-20455000D01*
X120435476Y-20407380D01*
X120435476Y-20502619D01*
X120102142Y-20740714D02*
X119721190Y-20740714D01*
X119959285Y-20407380D02*
X119959285Y-21264523D01*
X119911666Y-21359761D01*
X119816428Y-21407380D01*
X119721190Y-21407380D01*
X119387857Y-21407380D02*
X119387857Y-20407380D01*
X118959285Y-21407380D02*
X118959285Y-20883571D01*
X119006904Y-20788333D01*
X119102142Y-20740714D01*
X119245000Y-20740714D01*
X119340238Y-20788333D01*
X119387857Y-20835952D01*
X117149761Y-21407380D02*
X117483095Y-20931190D01*
X117721190Y-21407380D02*
X117721190Y-20407380D01*
X117340238Y-20407380D01*
X117245000Y-20455000D01*
X117197380Y-20502619D01*
X117149761Y-20597857D01*
X117149761Y-20740714D01*
X117197380Y-20835952D01*
X117245000Y-20883571D01*
X117340238Y-20931190D01*
X117721190Y-20931190D01*
X116768809Y-21121666D02*
X116292619Y-21121666D01*
X116864047Y-21407380D02*
X116530714Y-20407380D01*
X116197380Y-21407380D01*
X115864047Y-21407380D02*
X115864047Y-20407380D01*
X115530714Y-21121666D01*
X115197380Y-20407380D01*
X115197380Y-21407380D01*
X113816428Y-21407380D02*
X113911666Y-21359761D01*
X113959285Y-21312142D01*
X114006904Y-21216904D01*
X114006904Y-20931190D01*
X113959285Y-20835952D01*
X113911666Y-20788333D01*
X113816428Y-20740714D01*
X113673571Y-20740714D01*
X113578333Y-20788333D01*
X113530714Y-20835952D01*
X113483095Y-20931190D01*
X113483095Y-21216904D01*
X113530714Y-21312142D01*
X113578333Y-21359761D01*
X113673571Y-21407380D01*
X113816428Y-21407380D01*
X113054523Y-21407380D02*
X113054523Y-20740714D01*
X113054523Y-20931190D02*
X113006904Y-20835952D01*
X112959285Y-20788333D01*
X112864047Y-20740714D01*
X112768809Y-20740714D01*
X111721190Y-21359761D02*
X111625952Y-21407380D01*
X111435476Y-21407380D01*
X111340238Y-21359761D01*
X111292619Y-21264523D01*
X111292619Y-21216904D01*
X111340238Y-21121666D01*
X111435476Y-21074047D01*
X111578333Y-21074047D01*
X111673571Y-21026428D01*
X111721190Y-20931190D01*
X111721190Y-20883571D01*
X111673571Y-20788333D01*
X111578333Y-20740714D01*
X111435476Y-20740714D01*
X111340238Y-20788333D01*
X111006904Y-20740714D02*
X110625952Y-20740714D01*
X110864047Y-20407380D02*
X110864047Y-21264523D01*
X110816428Y-21359761D01*
X110721190Y-21407380D01*
X110625952Y-21407380D01*
X109864047Y-21407380D02*
X109864047Y-20883571D01*
X109911666Y-20788333D01*
X110006904Y-20740714D01*
X110197380Y-20740714D01*
X110292619Y-20788333D01*
X109864047Y-21359761D02*
X109959285Y-21407380D01*
X110197380Y-21407380D01*
X110292619Y-21359761D01*
X110340238Y-21264523D01*
X110340238Y-21169285D01*
X110292619Y-21074047D01*
X110197380Y-21026428D01*
X109959285Y-21026428D01*
X109864047Y-20978809D01*
X109387857Y-20740714D02*
X109387857Y-21407380D01*
X109387857Y-20835952D02*
X109340238Y-20788333D01*
X109245000Y-20740714D01*
X109102142Y-20740714D01*
X109006904Y-20788333D01*
X108959285Y-20883571D01*
X108959285Y-21407380D01*
X108054523Y-21407380D02*
X108054523Y-20407380D01*
X108054523Y-21359761D02*
X108149761Y-21407380D01*
X108340238Y-21407380D01*
X108435476Y-21359761D01*
X108483095Y-21312142D01*
X108530714Y-21216904D01*
X108530714Y-20931190D01*
X108483095Y-20835952D01*
X108435476Y-20788333D01*
X108340238Y-20740714D01*
X108149761Y-20740714D01*
X108054523Y-20788333D01*
X107149761Y-21407380D02*
X107149761Y-20883571D01*
X107197380Y-20788333D01*
X107292619Y-20740714D01*
X107483095Y-20740714D01*
X107578333Y-20788333D01*
X107149761Y-21359761D02*
X107245000Y-21407380D01*
X107483095Y-21407380D01*
X107578333Y-21359761D01*
X107625952Y-21264523D01*
X107625952Y-21169285D01*
X107578333Y-21074047D01*
X107483095Y-21026428D01*
X107245000Y-21026428D01*
X107149761Y-20978809D01*
X106673571Y-21407380D02*
X106673571Y-20740714D01*
X106673571Y-20931190D02*
X106625952Y-20835952D01*
X106578333Y-20788333D01*
X106483095Y-20740714D01*
X106387857Y-20740714D01*
X105625952Y-21407380D02*
X105625952Y-20407380D01*
X105625952Y-21359761D02*
X105721190Y-21407380D01*
X105911666Y-21407380D01*
X106006904Y-21359761D01*
X106054523Y-21312142D01*
X106102142Y-21216904D01*
X106102142Y-20931190D01*
X106054523Y-20835952D01*
X106006904Y-20788333D01*
X105911666Y-20740714D01*
X105721190Y-20740714D01*
X105625952Y-20788333D01*
X104387857Y-20740714D02*
X104387857Y-21740714D01*
X104387857Y-20788333D02*
X104292619Y-20740714D01*
X104102142Y-20740714D01*
X104006904Y-20788333D01*
X103959285Y-20835952D01*
X103911666Y-20931190D01*
X103911666Y-21216904D01*
X103959285Y-21312142D01*
X104006904Y-21359761D01*
X104102142Y-21407380D01*
X104292619Y-21407380D01*
X104387857Y-21359761D01*
X103054523Y-21407380D02*
X103054523Y-20883571D01*
X103102142Y-20788333D01*
X103197380Y-20740714D01*
X103387857Y-20740714D01*
X103483095Y-20788333D01*
X103054523Y-21359761D02*
X103149761Y-21407380D01*
X103387857Y-21407380D01*
X103483095Y-21359761D01*
X103530714Y-21264523D01*
X103530714Y-21169285D01*
X103483095Y-21074047D01*
X103387857Y-21026428D01*
X103149761Y-21026428D01*
X103054523Y-20978809D01*
X102578333Y-21407380D02*
X102578333Y-20740714D01*
X102578333Y-20931190D02*
X102530714Y-20835952D01*
X102483095Y-20788333D01*
X102387857Y-20740714D01*
X102292619Y-20740714D01*
X101530714Y-21407380D02*
X101530714Y-20883571D01*
X101578333Y-20788333D01*
X101673571Y-20740714D01*
X101864047Y-20740714D01*
X101959285Y-20788333D01*
X101530714Y-21359761D02*
X101625952Y-21407380D01*
X101864047Y-21407380D01*
X101959285Y-21359761D01*
X102006904Y-21264523D01*
X102006904Y-21169285D01*
X101959285Y-21074047D01*
X101864047Y-21026428D01*
X101625952Y-21026428D01*
X101530714Y-20978809D01*
X100911666Y-21407380D02*
X101006904Y-21359761D01*
X101054523Y-21264523D01*
X101054523Y-20407380D01*
X100387857Y-21407380D02*
X100483095Y-21359761D01*
X100530714Y-21264523D01*
X100530714Y-20407380D01*
X99625952Y-21359761D02*
X99721190Y-21407380D01*
X99911666Y-21407380D01*
X100006904Y-21359761D01*
X100054523Y-21264523D01*
X100054523Y-20883571D01*
X100006904Y-20788333D01*
X99911666Y-20740714D01*
X99721190Y-20740714D01*
X99625952Y-20788333D01*
X99578333Y-20883571D01*
X99578333Y-20978809D01*
X100054523Y-21074047D01*
X99006904Y-21407380D02*
X99102142Y-21359761D01*
X99149761Y-21264523D01*
X99149761Y-20407380D01*
X97292619Y-21407380D02*
X97625952Y-20931190D01*
X97864047Y-21407380D02*
X97864047Y-20407380D01*
X97483095Y-20407380D01*
X97387857Y-20455000D01*
X97340238Y-20502619D01*
X97292619Y-20597857D01*
X97292619Y-20740714D01*
X97340238Y-20835952D01*
X97387857Y-20883571D01*
X97483095Y-20931190D01*
X97864047Y-20931190D01*
X96673571Y-20407380D02*
X96483095Y-20407380D01*
X96387857Y-20455000D01*
X96292619Y-20550238D01*
X96245000Y-20740714D01*
X96245000Y-21074047D01*
X96292619Y-21264523D01*
X96387857Y-21359761D01*
X96483095Y-21407380D01*
X96673571Y-21407380D01*
X96768809Y-21359761D01*
X96864047Y-21264523D01*
X96911666Y-21074047D01*
X96911666Y-20740714D01*
X96864047Y-20550238D01*
X96768809Y-20455000D01*
X96673571Y-20407380D01*
X95816428Y-21407380D02*
X95816428Y-20407380D01*
X95483095Y-21121666D01*
X95149761Y-20407380D01*
X95149761Y-21407380D01*
X94721190Y-21359761D02*
X94625952Y-21407380D01*
X94435476Y-21407380D01*
X94340238Y-21359761D01*
X94292619Y-21264523D01*
X94292619Y-21216904D01*
X94340238Y-21121666D01*
X94435476Y-21074047D01*
X94578333Y-21074047D01*
X94673571Y-21026428D01*
X94721190Y-20931190D01*
X94721190Y-20883571D01*
X94673571Y-20788333D01*
X94578333Y-20740714D01*
X94435476Y-20740714D01*
X94340238Y-20788333D01*
X71722142Y-21407380D02*
X71722142Y-20883571D01*
X71769761Y-20788333D01*
X71865000Y-20740714D01*
X72055476Y-20740714D01*
X72150714Y-20788333D01*
X71722142Y-21359761D02*
X71817380Y-21407380D01*
X72055476Y-21407380D01*
X72150714Y-21359761D01*
X72198333Y-21264523D01*
X72198333Y-21169285D01*
X72150714Y-21074047D01*
X72055476Y-21026428D01*
X71817380Y-21026428D01*
X71722142Y-20978809D01*
X71245952Y-21407380D02*
X71245952Y-20407380D01*
X71245952Y-20788333D02*
X71150714Y-20740714D01*
X70960238Y-20740714D01*
X70865000Y-20788333D01*
X70817380Y-20835952D01*
X70769761Y-20931190D01*
X70769761Y-21216904D01*
X70817380Y-21312142D01*
X70865000Y-21359761D01*
X70960238Y-21407380D01*
X71150714Y-21407380D01*
X71245952Y-21359761D01*
X70436428Y-20740714D02*
X69912619Y-20740714D01*
X70436428Y-21407380D01*
X69912619Y-21407380D01*
X69531666Y-21407380D02*
X69531666Y-20740714D01*
X69531666Y-20835952D02*
X69484047Y-20788333D01*
X69388809Y-20740714D01*
X69245952Y-20740714D01*
X69150714Y-20788333D01*
X69103095Y-20883571D01*
X69103095Y-21407380D01*
X69103095Y-20883571D02*
X69055476Y-20788333D01*
X68960238Y-20740714D01*
X68817380Y-20740714D01*
X68722142Y-20788333D01*
X68674523Y-20883571D01*
X68674523Y-21407380D01*
X67769761Y-21407380D02*
X67769761Y-20883571D01*
X67817380Y-20788333D01*
X67912619Y-20740714D01*
X68103095Y-20740714D01*
X68198333Y-20788333D01*
X67769761Y-21359761D02*
X67865000Y-21407380D01*
X68103095Y-21407380D01*
X68198333Y-21359761D01*
X68245952Y-21264523D01*
X68245952Y-21169285D01*
X68198333Y-21074047D01*
X68103095Y-21026428D01*
X67865000Y-21026428D01*
X67769761Y-20978809D01*
X67293571Y-20740714D02*
X67293571Y-21407380D01*
X67293571Y-20835952D02*
X67245952Y-20788333D01*
X67150714Y-20740714D01*
X67007857Y-20740714D01*
X66912619Y-20788333D01*
X66865000Y-20883571D01*
X66865000Y-21407380D01*
X66436428Y-20502619D02*
X66388809Y-20455000D01*
X66293571Y-20407380D01*
X66055476Y-20407380D01*
X65960238Y-20455000D01*
X65912619Y-20502619D01*
X65865000Y-20597857D01*
X65865000Y-20693095D01*
X65912619Y-20835952D01*
X66484047Y-21407380D01*
X65865000Y-21407380D01*
X65436428Y-21407380D02*
X65436428Y-20407380D01*
X65341190Y-21026428D02*
X65055476Y-21407380D01*
X65055476Y-20740714D02*
X65436428Y-21121666D01*
X64626904Y-21312142D02*
X64579285Y-21359761D01*
X64626904Y-21407380D01*
X64674523Y-21359761D01*
X64626904Y-21312142D01*
X64626904Y-21407380D01*
X64245952Y-20740714D02*
X64055476Y-21407380D01*
X63865000Y-20931190D01*
X63674523Y-21407380D01*
X63484047Y-20740714D01*
X62960238Y-21407380D02*
X63055476Y-21359761D01*
X63103095Y-21312142D01*
X63150714Y-21216904D01*
X63150714Y-20931190D01*
X63103095Y-20835952D01*
X63055476Y-20788333D01*
X62960238Y-20740714D01*
X62817380Y-20740714D01*
X62722142Y-20788333D01*
X62674523Y-20835952D01*
X62626904Y-20931190D01*
X62626904Y-21216904D01*
X62674523Y-21312142D01*
X62722142Y-21359761D01*
X62817380Y-21407380D01*
X62960238Y-21407380D01*
X62198333Y-21407380D02*
X62198333Y-20740714D01*
X62198333Y-20931190D02*
X62150714Y-20835952D01*
X62103095Y-20788333D01*
X62007857Y-20740714D01*
X61912619Y-20740714D01*
X61150714Y-21407380D02*
X61150714Y-20407380D01*
X61150714Y-21359761D02*
X61245952Y-21407380D01*
X61436428Y-21407380D01*
X61531666Y-21359761D01*
X61579285Y-21312142D01*
X61626904Y-21216904D01*
X61626904Y-20931190D01*
X61579285Y-20835952D01*
X61531666Y-20788333D01*
X61436428Y-20740714D01*
X61245952Y-20740714D01*
X61150714Y-20788333D01*
X60674523Y-20740714D02*
X60674523Y-21740714D01*
X60674523Y-20788333D02*
X60579285Y-20740714D01*
X60388809Y-20740714D01*
X60293571Y-20788333D01*
X60245952Y-20835952D01*
X60198333Y-20931190D01*
X60198333Y-21216904D01*
X60245952Y-21312142D01*
X60293571Y-21359761D01*
X60388809Y-21407380D01*
X60579285Y-21407380D01*
X60674523Y-21359761D01*
X59769761Y-21407380D02*
X59769761Y-20740714D01*
X59769761Y-20931190D02*
X59722142Y-20835952D01*
X59674523Y-20788333D01*
X59579285Y-20740714D01*
X59484047Y-20740714D01*
X58769761Y-21359761D02*
X58865000Y-21407380D01*
X59055476Y-21407380D01*
X59150714Y-21359761D01*
X59198333Y-21264523D01*
X59198333Y-20883571D01*
X59150714Y-20788333D01*
X59055476Y-20740714D01*
X58865000Y-20740714D01*
X58769761Y-20788333D01*
X58722142Y-20883571D01*
X58722142Y-20978809D01*
X59198333Y-21074047D01*
X58341190Y-21359761D02*
X58245952Y-21407380D01*
X58055476Y-21407380D01*
X57960238Y-21359761D01*
X57912619Y-21264523D01*
X57912619Y-21216904D01*
X57960238Y-21121666D01*
X58055476Y-21074047D01*
X58198333Y-21074047D01*
X58293571Y-21026428D01*
X58341190Y-20931190D01*
X58341190Y-20883571D01*
X58293571Y-20788333D01*
X58198333Y-20740714D01*
X58055476Y-20740714D01*
X57960238Y-20788333D01*
X57531666Y-21359761D02*
X57436428Y-21407380D01*
X57245952Y-21407380D01*
X57150714Y-21359761D01*
X57103095Y-21264523D01*
X57103095Y-21216904D01*
X57150714Y-21121666D01*
X57245952Y-21074047D01*
X57388809Y-21074047D01*
X57484047Y-21026428D01*
X57531666Y-20931190D01*
X57531666Y-20883571D01*
X57484047Y-20788333D01*
X57388809Y-20740714D01*
X57245952Y-20740714D01*
X57150714Y-20788333D01*
X56674523Y-21312142D02*
X56626904Y-21359761D01*
X56674523Y-21407380D01*
X56722142Y-21359761D01*
X56674523Y-21312142D01*
X56674523Y-21407380D01*
X55769761Y-21359761D02*
X55865000Y-21407380D01*
X56055476Y-21407380D01*
X56150714Y-21359761D01*
X56198333Y-21312142D01*
X56245952Y-21216904D01*
X56245952Y-20931190D01*
X56198333Y-20835952D01*
X56150714Y-20788333D01*
X56055476Y-20740714D01*
X55865000Y-20740714D01*
X55769761Y-20788333D01*
X55198333Y-21407380D02*
X55293571Y-21359761D01*
X55341190Y-21312142D01*
X55388809Y-21216904D01*
X55388809Y-20931190D01*
X55341190Y-20835952D01*
X55293571Y-20788333D01*
X55198333Y-20740714D01*
X55055476Y-20740714D01*
X54960238Y-20788333D01*
X54912619Y-20835952D01*
X54865000Y-20931190D01*
X54865000Y-21216904D01*
X54912619Y-21312142D01*
X54960238Y-21359761D01*
X55055476Y-21407380D01*
X55198333Y-21407380D01*
X54436428Y-21407380D02*
X54436428Y-20740714D01*
X54436428Y-20835952D02*
X54388809Y-20788333D01*
X54293571Y-20740714D01*
X54150714Y-20740714D01*
X54055476Y-20788333D01*
X54007857Y-20883571D01*
X54007857Y-21407380D01*
X54007857Y-20883571D02*
X53960238Y-20788333D01*
X53865000Y-20740714D01*
X53722142Y-20740714D01*
X53626904Y-20788333D01*
X53579285Y-20883571D01*
X53579285Y-21407380D01*
G36*
X50745080Y-20909859D02*
G01*
X50745399Y-21018477D01*
X50732785Y-21122408D01*
X50707796Y-21220020D01*
X50670991Y-21309683D01*
X50622929Y-21389762D01*
X50564169Y-21458628D01*
X50495268Y-21514647D01*
X50488495Y-21519074D01*
X50419598Y-21557187D01*
X50346017Y-21587088D01*
X50275052Y-21605755D01*
X50253559Y-21608331D01*
X50216299Y-21610520D01*
X50171899Y-21611519D01*
X50125936Y-21611126D01*
X50106075Y-21610533D01*
X50059504Y-21607992D01*
X50022324Y-21603480D01*
X49988664Y-21596109D01*
X49952651Y-21584994D01*
X49948035Y-21583405D01*
X49860265Y-21543702D01*
X49780979Y-21489289D01*
X49711504Y-21421246D01*
X49653164Y-21340656D01*
X49623112Y-21290979D01*
X49660791Y-21257542D01*
X49685981Y-21237277D01*
X49708626Y-21226219D01*
X49727147Y-21228128D01*
X49744806Y-21242417D01*
X49763582Y-21261027D01*
X49799548Y-21291290D01*
X49841253Y-21322265D01*
X49882971Y-21349771D01*
X49918977Y-21369626D01*
X49927758Y-21373676D01*
X49949668Y-21382626D01*
X49970726Y-21388375D01*
X49995486Y-21391620D01*
X50028498Y-21393056D01*
X50074315Y-21393380D01*
X50116034Y-21393233D01*
X50148698Y-21392181D01*
X50173174Y-21389312D01*
X50194222Y-21383715D01*
X50216604Y-21374478D01*
X50245080Y-21360690D01*
X50281383Y-21340049D01*
X50341803Y-21291123D01*
X50391083Y-21230660D01*
X50427999Y-21160712D01*
X50451327Y-21083333D01*
X50459842Y-21000575D01*
X50460147Y-20963681D01*
X49661914Y-20963681D01*
X49647645Y-20941905D01*
X49642364Y-20930497D01*
X49635124Y-20899590D01*
X49630367Y-20858038D01*
X49628225Y-20809999D01*
X49628834Y-20759630D01*
X49632327Y-20711089D01*
X49635518Y-20690236D01*
X49892443Y-20690236D01*
X49893771Y-20719768D01*
X49903602Y-20757702D01*
X49923810Y-20783391D01*
X49955383Y-20798536D01*
X49969613Y-20800656D01*
X50000057Y-20802846D01*
X50043191Y-20804695D01*
X50096517Y-20806122D01*
X50157539Y-20807044D01*
X50223760Y-20807378D01*
X50460477Y-20807427D01*
X50456038Y-20787895D01*
X50454227Y-20779802D01*
X50448720Y-20754636D01*
X50442389Y-20725233D01*
X50434859Y-20695827D01*
X50406522Y-20625999D01*
X50366287Y-20563330D01*
X50316433Y-20510970D01*
X50259236Y-20472067D01*
X50241922Y-20464245D01*
X50190614Y-20450451D01*
X50135236Y-20446305D01*
X50081870Y-20451932D01*
X50036598Y-20467458D01*
X50016218Y-20479184D01*
X49964868Y-20520575D01*
X49926079Y-20571158D01*
X49901417Y-20628517D01*
X49892443Y-20690236D01*
X49635518Y-20690236D01*
X49638838Y-20668534D01*
X49648140Y-20631304D01*
X49680034Y-20548253D01*
X49724696Y-20473467D01*
X49780535Y-20409327D01*
X49845964Y-20358214D01*
X49848833Y-20356419D01*
X49908995Y-20323449D01*
X49968820Y-20300862D01*
X50033920Y-20287002D01*
X50109906Y-20280209D01*
X50149920Y-20278736D01*
X50186102Y-20278961D01*
X50216721Y-20281919D01*
X50248112Y-20288276D01*
X50286607Y-20298691D01*
X50316918Y-20308108D01*
X50404009Y-20344972D01*
X50482373Y-20394793D01*
X50555635Y-20459742D01*
X50574297Y-20479349D01*
X50634085Y-20553627D01*
X50679521Y-20632170D01*
X50712370Y-20718491D01*
X50732436Y-20807427D01*
X50734395Y-20816108D01*
X50745080Y-20909859D01*
G37*
G36*
X50558848Y-18652420D02*
G01*
X50560735Y-18666815D01*
X50564397Y-18698163D01*
X50568713Y-18737796D01*
X50573100Y-18780462D01*
X50576075Y-18809705D01*
X50582082Y-18866621D01*
X50588604Y-18926411D01*
X50594673Y-18980120D01*
X50599132Y-19018732D01*
X50604246Y-19063232D01*
X50608603Y-19101377D01*
X50611581Y-19127722D01*
X50616431Y-19171154D01*
X50293056Y-19493359D01*
X49969682Y-19815563D01*
X49904576Y-19830648D01*
X49884007Y-19835608D01*
X49751294Y-19877275D01*
X49625690Y-19933675D01*
X49509600Y-20003755D01*
X49490730Y-20016776D01*
X49464208Y-20034881D01*
X49445565Y-20047347D01*
X49437983Y-20052030D01*
X49437736Y-20049690D01*
X49437290Y-20032930D01*
X49436883Y-20001546D01*
X49436527Y-19957329D01*
X49436230Y-19902074D01*
X49436006Y-19837574D01*
X49435863Y-19765622D01*
X49435813Y-19688011D01*
X49435813Y-19323824D01*
X49472706Y-19307531D01*
X49482956Y-19303315D01*
X49511261Y-19292674D01*
X49548603Y-19279318D01*
X49590206Y-19264895D01*
X49631292Y-19251049D01*
X49667087Y-19239428D01*
X49692812Y-19231677D01*
X49694582Y-19230136D01*
X49699736Y-19215435D01*
X49704562Y-19188289D01*
X49708352Y-19152320D01*
X49710378Y-19128277D01*
X49715072Y-19079312D01*
X49720727Y-19025838D01*
X49726525Y-18975780D01*
X49729631Y-18949929D01*
X49736295Y-18892018D01*
X49742851Y-18832369D01*
X49748243Y-18780462D01*
X49751346Y-18749954D01*
X49755734Y-18708914D01*
X49759636Y-18674651D01*
X49762471Y-18652420D01*
X49767209Y-18619867D01*
X50554109Y-18619867D01*
X50558848Y-18652420D01*
G37*
G36*
X50876454Y-21872310D02*
G01*
X50878890Y-21878565D01*
X50880877Y-21893265D01*
X50882452Y-21917686D01*
X50883654Y-21953100D01*
X50884522Y-22000781D01*
X50885094Y-22062002D01*
X50885409Y-22138036D01*
X50885505Y-22230158D01*
X50885505Y-22594858D01*
X50848612Y-22611151D01*
X50838363Y-22615367D01*
X50810058Y-22626008D01*
X50772716Y-22639363D01*
X50731113Y-22653787D01*
X50690026Y-22667632D01*
X50654232Y-22679254D01*
X50628507Y-22687004D01*
X50626736Y-22688545D01*
X50621583Y-22703247D01*
X50616756Y-22730393D01*
X50612966Y-22766362D01*
X50610940Y-22790404D01*
X50606246Y-22839369D01*
X50600592Y-22892843D01*
X50594793Y-22942902D01*
X50591687Y-22968753D01*
X50585023Y-23026664D01*
X50578468Y-23086312D01*
X50573075Y-23138220D01*
X50569973Y-23168727D01*
X50565585Y-23209768D01*
X50561682Y-23244030D01*
X50558848Y-23266261D01*
X50554109Y-23298814D01*
X49767209Y-23298814D01*
X49762471Y-23266261D01*
X49760583Y-23251867D01*
X49756922Y-23220518D01*
X49752606Y-23180885D01*
X49748218Y-23138220D01*
X49745244Y-23108977D01*
X49739236Y-23052060D01*
X49732715Y-22992271D01*
X49726646Y-22938562D01*
X49722228Y-22900338D01*
X49716982Y-22854812D01*
X49712435Y-22815214D01*
X49709239Y-22787204D01*
X49703892Y-22740016D01*
X50023380Y-22420441D01*
X50046120Y-22397728D01*
X50106745Y-22337520D01*
X50163523Y-22281618D01*
X50215260Y-22231168D01*
X50260760Y-22187318D01*
X50298826Y-22151216D01*
X50328264Y-22124008D01*
X50347876Y-22106842D01*
X50356468Y-22100865D01*
X50357689Y-22100837D01*
X50377927Y-22097782D01*
X50409881Y-22090502D01*
X50449241Y-22080177D01*
X50491697Y-22067990D01*
X50532939Y-22055119D01*
X50568657Y-22042745D01*
X50587564Y-22035426D01*
X50664561Y-22000821D01*
X50742057Y-21959323D01*
X50811204Y-21915574D01*
X50813689Y-21913838D01*
X50840679Y-21895119D01*
X50862508Y-21880189D01*
X50874654Y-21872143D01*
X50876454Y-21872310D01*
G37*
G36*
X51812469Y-20271388D02*
G01*
X51816685Y-20281637D01*
X51827326Y-20309942D01*
X51840682Y-20347284D01*
X51855105Y-20388887D01*
X51868951Y-20429974D01*
X51880572Y-20465768D01*
X51888323Y-20491493D01*
X51889864Y-20493264D01*
X51904565Y-20498417D01*
X51931711Y-20503244D01*
X51967680Y-20507034D01*
X51991723Y-20509060D01*
X52040688Y-20513754D01*
X52094162Y-20519408D01*
X52144220Y-20525207D01*
X52170071Y-20528313D01*
X52227982Y-20534977D01*
X52287631Y-20541532D01*
X52339538Y-20546925D01*
X52370046Y-20550027D01*
X52411086Y-20554415D01*
X52445349Y-20558318D01*
X52467580Y-20561152D01*
X52500133Y-20565891D01*
X52500133Y-21352791D01*
X52467580Y-21357529D01*
X52453184Y-21359419D01*
X52421835Y-21363088D01*
X52382203Y-21367417D01*
X52339538Y-21371820D01*
X52311284Y-21374678D01*
X52276136Y-21378340D01*
X52238221Y-21382427D01*
X52194643Y-21387261D01*
X52142508Y-21393164D01*
X52078921Y-21400458D01*
X52000987Y-21409464D01*
X51979226Y-21411805D01*
X51957627Y-21413782D01*
X51954841Y-21412666D01*
X51940515Y-21401807D01*
X51916126Y-21380534D01*
X51883086Y-21350246D01*
X51842804Y-21312343D01*
X51796693Y-21268225D01*
X51746162Y-21219292D01*
X51692623Y-21166943D01*
X51637487Y-21112578D01*
X51582164Y-21057597D01*
X51528066Y-21003400D01*
X51476604Y-20951385D01*
X51429187Y-20902954D01*
X51387228Y-20859505D01*
X51352138Y-20822439D01*
X51325326Y-20793154D01*
X51308204Y-20773052D01*
X51302184Y-20763532D01*
X51302156Y-20762311D01*
X51299100Y-20742073D01*
X51291820Y-20710119D01*
X51281496Y-20670759D01*
X51269308Y-20628303D01*
X51256437Y-20587061D01*
X51244064Y-20551343D01*
X51236745Y-20532436D01*
X51202139Y-20455439D01*
X51160642Y-20377943D01*
X51116892Y-20308796D01*
X51115157Y-20306311D01*
X51096437Y-20279321D01*
X51081507Y-20257492D01*
X51073462Y-20245346D01*
X51073629Y-20243546D01*
X51079883Y-20241110D01*
X51094584Y-20239123D01*
X51119004Y-20237548D01*
X51154418Y-20236346D01*
X51202099Y-20235478D01*
X51263320Y-20234906D01*
X51339355Y-20234591D01*
X51431477Y-20234495D01*
X51796176Y-20234495D01*
X51812469Y-20271388D01*
G37*
G36*
X49539115Y-21934601D02*
G01*
X49583967Y-21961905D01*
X49707822Y-22024530D01*
X49835007Y-22070751D01*
X49964321Y-22100102D01*
X49991489Y-22104860D01*
X50013713Y-22109624D01*
X50023731Y-22112957D01*
X50022598Y-22114976D01*
X50011703Y-22127503D01*
X49990370Y-22150304D01*
X49959854Y-22182090D01*
X49921405Y-22221568D01*
X49876278Y-22267451D01*
X49825723Y-22318448D01*
X49770993Y-22373269D01*
X49514249Y-22629575D01*
X49464180Y-22607591D01*
X49454399Y-22603220D01*
X49419420Y-22586928D01*
X49378486Y-22567184D01*
X49338556Y-22547326D01*
X49263000Y-22509045D01*
X49195353Y-22563208D01*
X49177752Y-22577318D01*
X49148288Y-22601016D01*
X49124492Y-22620249D01*
X49110314Y-22631832D01*
X49106769Y-22634745D01*
X49089906Y-22648456D01*
X49062694Y-22670486D01*
X49027347Y-22699046D01*
X48986078Y-22732347D01*
X48941102Y-22768599D01*
X48789283Y-22890908D01*
X48509614Y-22611337D01*
X48487947Y-22589643D01*
X48424303Y-22525463D01*
X48368680Y-22468655D01*
X48321821Y-22420004D01*
X48284466Y-22380294D01*
X48257357Y-22350309D01*
X48241236Y-22330835D01*
X48236843Y-22322656D01*
X48242254Y-22315794D01*
X48257117Y-22297160D01*
X48279304Y-22269434D01*
X48306879Y-22235025D01*
X48337907Y-22196344D01*
X48370453Y-22155801D01*
X48402582Y-22115806D01*
X48432360Y-22078769D01*
X48457852Y-22047100D01*
X48477123Y-22023210D01*
X48488237Y-22009508D01*
X48500833Y-21993910D01*
X48520039Y-21969886D01*
X48541691Y-21942643D01*
X48580755Y-21893347D01*
X49026949Y-21892937D01*
X49473142Y-21892526D01*
X49539115Y-21934601D01*
G37*
G36*
X52091063Y-19586602D02*
G01*
X52072626Y-19612494D01*
X52071815Y-19613627D01*
X52056473Y-19634078D01*
X52034856Y-19661827D01*
X52011373Y-19691208D01*
X52006147Y-19697662D01*
X51982298Y-19727214D01*
X51951936Y-19764937D01*
X51918419Y-19806657D01*
X51885105Y-19848199D01*
X51870172Y-19866803D01*
X51841617Y-19902155D01*
X51817276Y-19932006D01*
X51799351Y-19953665D01*
X51790043Y-19964438D01*
X51779403Y-19977040D01*
X51765010Y-19996991D01*
X51751588Y-20017475D01*
X50830877Y-20017475D01*
X50786575Y-19988083D01*
X50741961Y-19960761D01*
X50685849Y-19930198D01*
X50628103Y-19901823D01*
X50576360Y-19879578D01*
X50556235Y-19872316D01*
X50512298Y-19858387D01*
X50461721Y-19844030D01*
X50410266Y-19830772D01*
X50363693Y-19820141D01*
X50327765Y-19813664D01*
X50314017Y-19811453D01*
X50294284Y-19806601D01*
X50286531Y-19802038D01*
X50287975Y-19799953D01*
X50299467Y-19787216D01*
X50321368Y-19764185D01*
X50352397Y-19732168D01*
X50391277Y-19692474D01*
X50436729Y-19646411D01*
X50487475Y-19595287D01*
X50542235Y-19540411D01*
X50797938Y-19284817D01*
X50865594Y-19313898D01*
X50866006Y-19314075D01*
X50908376Y-19333224D01*
X50954437Y-19355444D01*
X50994290Y-19375960D01*
X51055330Y-19408942D01*
X51094119Y-19378454D01*
X51109750Y-19366099D01*
X51133623Y-19346992D01*
X51150340Y-19333318D01*
X51153391Y-19330766D01*
X51176611Y-19311657D01*
X51209926Y-19284561D01*
X51250397Y-19251837D01*
X51295085Y-19215845D01*
X51341053Y-19178943D01*
X51385363Y-19143493D01*
X51425076Y-19111852D01*
X51457255Y-19086380D01*
X51478961Y-19069436D01*
X51532225Y-19028540D01*
X52091063Y-19586602D01*
G37*
G36*
X48703621Y-20817442D02*
G01*
X48715959Y-20829783D01*
X48796702Y-20910950D01*
X48864882Y-20980258D01*
X48920550Y-21037761D01*
X48963758Y-21083513D01*
X48994557Y-21117569D01*
X49012999Y-21139983D01*
X49019135Y-21150809D01*
X49021097Y-21168149D01*
X49027663Y-21199955D01*
X49037726Y-21240114D01*
X49050121Y-21284289D01*
X49063686Y-21328143D01*
X49077255Y-21367338D01*
X49081980Y-21379711D01*
X49117134Y-21459100D01*
X49160095Y-21539605D01*
X49206258Y-21612471D01*
X49210526Y-21618602D01*
X49227968Y-21644212D01*
X49240214Y-21663113D01*
X49244836Y-21671582D01*
X49242613Y-21672016D01*
X49226060Y-21672825D01*
X49194863Y-21673563D01*
X49150817Y-21674211D01*
X49095722Y-21674748D01*
X49031375Y-21675156D01*
X48959573Y-21675415D01*
X48882116Y-21675506D01*
X48519397Y-21675506D01*
X48496844Y-21616911D01*
X48487083Y-21590666D01*
X48471946Y-21547770D01*
X48456457Y-21501966D01*
X48442764Y-21459643D01*
X48433017Y-21427188D01*
X48431464Y-21425413D01*
X48416741Y-21420262D01*
X48389589Y-21415436D01*
X48353638Y-21411648D01*
X48329596Y-21409622D01*
X48280631Y-21404928D01*
X48227157Y-21399273D01*
X48177098Y-21393475D01*
X48151247Y-21390369D01*
X48093336Y-21383705D01*
X48033688Y-21377149D01*
X47981780Y-21371757D01*
X47951273Y-21368654D01*
X47910232Y-21364266D01*
X47875970Y-21360364D01*
X47853739Y-21357529D01*
X47821186Y-21352791D01*
X47821186Y-20565891D01*
X47853739Y-20561152D01*
X47868133Y-20559265D01*
X47899482Y-20555603D01*
X47939115Y-20551287D01*
X47981780Y-20546900D01*
X48011031Y-20543922D01*
X48067945Y-20537902D01*
X48127732Y-20531358D01*
X48181438Y-20525261D01*
X48219230Y-20520885D01*
X48265859Y-20515542D01*
X48307032Y-20510882D01*
X48336857Y-20507576D01*
X48388106Y-20502016D01*
X48703621Y-20817442D01*
G37*
G36*
X51319776Y-21095216D02*
G01*
X51332313Y-21106474D01*
X51355164Y-21128163D01*
X51387015Y-21158999D01*
X51426555Y-21197702D01*
X51472469Y-21242987D01*
X51523446Y-21293573D01*
X51578171Y-21348178D01*
X51832347Y-21602463D01*
X51809636Y-21654176D01*
X51805254Y-21663989D01*
X51788644Y-21699696D01*
X51768639Y-21741217D01*
X51748645Y-21781444D01*
X51710363Y-21857000D01*
X51764527Y-21924647D01*
X51778637Y-21942248D01*
X51802334Y-21971712D01*
X51821567Y-21995508D01*
X51833150Y-22009686D01*
X51836064Y-22013231D01*
X51849774Y-22030094D01*
X51871804Y-22057306D01*
X51900364Y-22092653D01*
X51933665Y-22133922D01*
X51969918Y-22178898D01*
X52092226Y-22330717D01*
X51812656Y-22610386D01*
X51790962Y-22632053D01*
X51726782Y-22695697D01*
X51669974Y-22751320D01*
X51621322Y-22798179D01*
X51581612Y-22835534D01*
X51551628Y-22862643D01*
X51532153Y-22878764D01*
X51523974Y-22883157D01*
X51522461Y-22881981D01*
X51509471Y-22871657D01*
X51485755Y-22852690D01*
X51453452Y-22826793D01*
X51414697Y-22795679D01*
X51371630Y-22761060D01*
X51362407Y-22753643D01*
X51317576Y-22717607D01*
X51275683Y-22683961D01*
X51239375Y-22654827D01*
X51211299Y-22632331D01*
X51194102Y-22618595D01*
X51185196Y-22611459D01*
X51156448Y-22587902D01*
X51131166Y-22566558D01*
X51102525Y-22541787D01*
X51102525Y-21632644D01*
X51140810Y-21573462D01*
X51182745Y-21502138D01*
X51236769Y-21384660D01*
X51278410Y-21258415D01*
X51306542Y-21126446D01*
X51307586Y-21120466D01*
X51312665Y-21101527D01*
X51317823Y-21093893D01*
X51319776Y-21095216D01*
G37*
G36*
X48941102Y-19150230D02*
G01*
X48958267Y-19164073D01*
X49003919Y-19200870D01*
X49046166Y-19234896D01*
X49082483Y-19264119D01*
X49110342Y-19286504D01*
X49127217Y-19300018D01*
X49136154Y-19307197D01*
X49164888Y-19330779D01*
X49190153Y-19352123D01*
X49218793Y-19376895D01*
X49218793Y-20286038D01*
X49181012Y-20344904D01*
X49141476Y-20410571D01*
X49107901Y-20477207D01*
X49077471Y-20551343D01*
X49066580Y-20582113D01*
X49052619Y-20626092D01*
X49039725Y-20671170D01*
X49029066Y-20712975D01*
X49021813Y-20747138D01*
X49019135Y-20769288D01*
X49018242Y-20782365D01*
X49013866Y-20802376D01*
X49010482Y-20809224D01*
X49002959Y-20816108D01*
X49001326Y-20815003D01*
X48989348Y-20804202D01*
X48967007Y-20782931D01*
X48935619Y-20752478D01*
X48896504Y-20714133D01*
X48850977Y-20669185D01*
X48800357Y-20618923D01*
X48745962Y-20564637D01*
X48494603Y-20313166D01*
X48506190Y-20280341D01*
X48513259Y-20262804D01*
X48526983Y-20232103D01*
X48544689Y-20194476D01*
X48564272Y-20154481D01*
X48610766Y-20061447D01*
X48556697Y-19993917D01*
X48542678Y-19976426D01*
X48519004Y-19946974D01*
X48499795Y-19923179D01*
X48488237Y-19908995D01*
X48479944Y-19898821D01*
X48462405Y-19877128D01*
X48438143Y-19847029D01*
X48409115Y-19810962D01*
X48377277Y-19771363D01*
X48344587Y-19730668D01*
X48313001Y-19691313D01*
X48284477Y-19655735D01*
X48260971Y-19626371D01*
X48244441Y-19605655D01*
X48236843Y-19596026D01*
X48236919Y-19594709D01*
X48245099Y-19582875D01*
X48264774Y-19559993D01*
X48295202Y-19526850D01*
X48335641Y-19484228D01*
X48385350Y-19432914D01*
X48443588Y-19373691D01*
X48509614Y-19307344D01*
X48789283Y-19027774D01*
X48941102Y-19150230D01*
G37*
G36*
X185559277Y-23985740D02*
G01*
X185550922Y-24005757D01*
X185527580Y-24037802D01*
X185494911Y-24063586D01*
X185454545Y-24081616D01*
X185429158Y-24087020D01*
X185394418Y-24089812D01*
X185359401Y-24088875D01*
X185330172Y-24084088D01*
X185328691Y-24083657D01*
X185307317Y-24074380D01*
X185287974Y-24061687D01*
X185269025Y-24045743D01*
X185269025Y-24084364D01*
X185161651Y-24084364D01*
X185163978Y-23912272D01*
X185269025Y-23912272D01*
X185269604Y-23926452D01*
X185274725Y-23954494D01*
X185284335Y-23975439D01*
X185297451Y-23986712D01*
X185300155Y-23987600D01*
X185318169Y-23990827D01*
X185343171Y-23992946D01*
X185370707Y-23993796D01*
X185396328Y-23993214D01*
X185415582Y-23991036D01*
X185423641Y-23988911D01*
X185446465Y-23976711D01*
X185461844Y-23958733D01*
X185468743Y-23937599D01*
X185466127Y-23915929D01*
X185452961Y-23896344D01*
X185446341Y-23890676D01*
X185438387Y-23886213D01*
X185427449Y-23883238D01*
X185411148Y-23881340D01*
X185387103Y-23880111D01*
X185352937Y-23879141D01*
X185269025Y-23877094D01*
X185269025Y-23912272D01*
X185163978Y-23912272D01*
X185164208Y-23895255D01*
X185164247Y-23892355D01*
X185165275Y-23831620D01*
X185166548Y-23782473D01*
X185168113Y-23744040D01*
X185170012Y-23715444D01*
X185172292Y-23695811D01*
X185174998Y-23684265D01*
X185188443Y-23656681D01*
X185213282Y-23627763D01*
X185247901Y-23605477D01*
X185257053Y-23601171D01*
X185274787Y-23594373D01*
X185293670Y-23589986D01*
X185317486Y-23587268D01*
X185350020Y-23585479D01*
X185376432Y-23584870D01*
X185420015Y-23587008D01*
X185455425Y-23594034D01*
X185485091Y-23606543D01*
X185511440Y-23625132D01*
X185522170Y-23634729D01*
X185533461Y-23646123D01*
X185537841Y-23652491D01*
X185537693Y-23653031D01*
X185531611Y-23659955D01*
X185518396Y-23671767D01*
X185500504Y-23686248D01*
X185463166Y-23715244D01*
X185447277Y-23700518D01*
X185438270Y-23693351D01*
X185419153Y-23684342D01*
X185393587Y-23679474D01*
X185358690Y-23678014D01*
X185343294Y-23678657D01*
X185313148Y-23684125D01*
X185289732Y-23694349D01*
X185275780Y-23708331D01*
X185273340Y-23715205D01*
X185270238Y-23733354D01*
X185269025Y-23755065D01*
X185269025Y-23789179D01*
X185361235Y-23791805D01*
X185404004Y-23793565D01*
X185438830Y-23796623D01*
X185465680Y-23801508D01*
X185486863Y-23808814D01*
X185504688Y-23819137D01*
X185521462Y-23833071D01*
X185532949Y-23845966D01*
X185550503Y-23877197D01*
X185561417Y-23913625D01*
X185563499Y-23937599D01*
X185564678Y-23951167D01*
X185559277Y-23985740D01*
G37*
G36*
X184221034Y-22799672D02*
G01*
X184248052Y-22804969D01*
X184293806Y-22820908D01*
X184329404Y-22844083D01*
X184354811Y-22874461D01*
X184369994Y-22912007D01*
X184374918Y-22956686D01*
X184374589Y-22964215D01*
X184370491Y-22989819D01*
X184363240Y-23012225D01*
X184357293Y-23023849D01*
X184339563Y-23047793D01*
X184315917Y-23066253D01*
X184284764Y-23080022D01*
X184244509Y-23089892D01*
X184193561Y-23096656D01*
X184175634Y-23098527D01*
X184141289Y-23103525D01*
X184117082Y-23109940D01*
X184101351Y-23118542D01*
X184092435Y-23130105D01*
X184088673Y-23145399D01*
X184088821Y-23161094D01*
X184097321Y-23182300D01*
X184116313Y-23197297D01*
X184145985Y-23206206D01*
X184186522Y-23209148D01*
X184188223Y-23209144D01*
X184232636Y-23205304D01*
X184271468Y-23193264D01*
X184309541Y-23171552D01*
X184337662Y-23152204D01*
X184371908Y-23182239D01*
X184373980Y-23184063D01*
X184390281Y-23198995D01*
X184401828Y-23210578D01*
X184406234Y-23216437D01*
X184405980Y-23217685D01*
X184398841Y-23226242D01*
X184383832Y-23238355D01*
X184363578Y-23252200D01*
X184340705Y-23265956D01*
X184317836Y-23277800D01*
X184296866Y-23286572D01*
X184268345Y-23296252D01*
X184243773Y-23302356D01*
X184231179Y-23304276D01*
X184180867Y-23306589D01*
X184132437Y-23300800D01*
X184087848Y-23287634D01*
X184049057Y-23267812D01*
X184018021Y-23242060D01*
X183996698Y-23211098D01*
X183988237Y-23183604D01*
X183985599Y-23147819D01*
X183989934Y-23111406D01*
X184001076Y-23079383D01*
X184002275Y-23077092D01*
X184017337Y-23054241D01*
X184036404Y-23036351D01*
X184061162Y-23022699D01*
X184093295Y-23012565D01*
X184134489Y-23005225D01*
X184186428Y-22999958D01*
X184186530Y-22999950D01*
X184212059Y-22996876D01*
X184235007Y-22992231D01*
X184250415Y-22987017D01*
X184263646Y-22977077D01*
X184273031Y-22959409D01*
X184272530Y-22939678D01*
X184262407Y-22920755D01*
X184242926Y-22905511D01*
X184223901Y-22899058D01*
X184192701Y-22896109D01*
X184157712Y-22898912D01*
X184122846Y-22907083D01*
X184092016Y-22920241D01*
X184057313Y-22939826D01*
X184028638Y-22906261D01*
X184027762Y-22905233D01*
X184013730Y-22888032D01*
X184003776Y-22874483D01*
X184000006Y-22867442D01*
X184000502Y-22865712D01*
X184008643Y-22857151D01*
X184024678Y-22845807D01*
X184045883Y-22833462D01*
X184069536Y-22821902D01*
X184092332Y-22813958D01*
X184125363Y-22806275D01*
X184161007Y-22800866D01*
X184194489Y-22798432D01*
X184221034Y-22799672D01*
G37*
G36*
X183922346Y-23126582D02*
G01*
X183916019Y-23164055D01*
X183906937Y-23192669D01*
X183883952Y-23230762D01*
X183850511Y-23264331D01*
X183809831Y-23288832D01*
X183763744Y-23302858D01*
X183753955Y-23304265D01*
X183714030Y-23305441D01*
X183673786Y-23300546D01*
X183639142Y-23290182D01*
X183613385Y-23275797D01*
X183581608Y-23249539D01*
X183554630Y-23218013D01*
X183536189Y-23185035D01*
X183532326Y-23174799D01*
X183527857Y-23159735D01*
X183524882Y-23143039D01*
X183523102Y-23121993D01*
X183522216Y-23093881D01*
X183521924Y-23055986D01*
X183521927Y-23052860D01*
X183621745Y-23052860D01*
X183621952Y-23075778D01*
X183623744Y-23110510D01*
X183627992Y-23136462D01*
X183635436Y-23156017D01*
X183646813Y-23171558D01*
X183662864Y-23185466D01*
X183681824Y-23196316D01*
X183714867Y-23203735D01*
X183751407Y-23199881D01*
X183751645Y-23199820D01*
X183777325Y-23190895D01*
X183796516Y-23177919D01*
X183810038Y-23159248D01*
X183818710Y-23133237D01*
X183823352Y-23098243D01*
X183824783Y-23052622D01*
X183824607Y-23023170D01*
X183823570Y-22998809D01*
X183821222Y-22981081D01*
X183817129Y-22966870D01*
X183810854Y-22953059D01*
X183806791Y-22945788D01*
X183785656Y-22921670D01*
X183757357Y-22907473D01*
X183721229Y-22902823D01*
X183720513Y-22902825D01*
X183685830Y-22908568D01*
X183657112Y-22925289D01*
X183634586Y-22952856D01*
X183633985Y-22953891D01*
X183628655Y-22964874D01*
X183625112Y-22977566D01*
X183623011Y-22994662D01*
X183622004Y-23018861D01*
X183621745Y-23052860D01*
X183521927Y-23052860D01*
X183521939Y-23042509D01*
X183523012Y-22997476D01*
X183526176Y-22961867D01*
X183532068Y-22933289D01*
X183541324Y-22909350D01*
X183554579Y-22887655D01*
X183572471Y-22865813D01*
X183604808Y-22836796D01*
X183645034Y-22814438D01*
X183688285Y-22801922D01*
X183732743Y-22798968D01*
X183776586Y-22805294D01*
X183817998Y-22820621D01*
X183855157Y-22844667D01*
X183886246Y-22877152D01*
X183909445Y-22917796D01*
X183911595Y-22923404D01*
X183919498Y-22955000D01*
X183924494Y-22994460D01*
X183926614Y-23038440D01*
X183926386Y-23052622D01*
X183925888Y-23083596D01*
X183922346Y-23126582D01*
G37*
G36*
X185932434Y-24084364D02*
G01*
X185930498Y-23917135D01*
X185930145Y-23887512D01*
X185929519Y-23843597D01*
X185928783Y-23809697D01*
X185927805Y-23784222D01*
X185926451Y-23765577D01*
X185924587Y-23752172D01*
X185922080Y-23742412D01*
X185918797Y-23734706D01*
X185914603Y-23727461D01*
X185913992Y-23726494D01*
X185893149Y-23704799D01*
X185865512Y-23690771D01*
X185834521Y-23685062D01*
X185803620Y-23688325D01*
X185776249Y-23701214D01*
X185765982Y-23709294D01*
X185757244Y-23718344D01*
X185750528Y-23729322D01*
X185745571Y-23743738D01*
X185742107Y-23763103D01*
X185739873Y-23788927D01*
X185738603Y-23822721D01*
X185738034Y-23865995D01*
X185737900Y-23920261D01*
X185737891Y-24084364D01*
X185637354Y-24084364D01*
X185639173Y-23892129D01*
X185639271Y-23881827D01*
X185639871Y-23826085D01*
X185640686Y-23781100D01*
X185641998Y-23745373D01*
X185644088Y-23717404D01*
X185647240Y-23695694D01*
X185651735Y-23678744D01*
X185657855Y-23665054D01*
X185665884Y-23653126D01*
X185676103Y-23641460D01*
X185688794Y-23628557D01*
X185703956Y-23615508D01*
X185739671Y-23595927D01*
X185779792Y-23585566D01*
X185821391Y-23584657D01*
X185861538Y-23593430D01*
X185897305Y-23612116D01*
X185899334Y-23613586D01*
X185913775Y-23623746D01*
X185923874Y-23630376D01*
X185924701Y-23630602D01*
X185926820Y-23627698D01*
X185928492Y-23618631D01*
X185929761Y-23602346D01*
X185930671Y-23577785D01*
X185931266Y-23543893D01*
X185931590Y-23499612D01*
X185931688Y-23443886D01*
X185931688Y-23252781D01*
X185898868Y-23274443D01*
X185883662Y-23283433D01*
X185858440Y-23295327D01*
X185836229Y-23302693D01*
X185805194Y-23306451D01*
X185763136Y-23301887D01*
X185724242Y-23286972D01*
X185690504Y-23262870D01*
X185663914Y-23230746D01*
X185646464Y-23191763D01*
X185645652Y-23188742D01*
X185641495Y-23164146D01*
X185638559Y-23130661D01*
X185636844Y-23091333D01*
X185636429Y-23055986D01*
X185741016Y-23055986D01*
X185741498Y-23094380D01*
X185743482Y-23126556D01*
X185747532Y-23150193D01*
X185754210Y-23167347D01*
X185764076Y-23180073D01*
X185777691Y-23190429D01*
X185794756Y-23198480D01*
X185824223Y-23204127D01*
X185854651Y-23202293D01*
X185882119Y-23193372D01*
X185902704Y-23177764D01*
X185908699Y-23169379D01*
X185920967Y-23141046D01*
X185928757Y-23105414D01*
X185932088Y-23065623D01*
X185930979Y-23024815D01*
X185925449Y-22986130D01*
X185915516Y-22952709D01*
X185901200Y-22927694D01*
X185892345Y-22917959D01*
X185881478Y-22910372D01*
X185866875Y-22906336D01*
X185844153Y-22904032D01*
X185821858Y-22903596D01*
X185791395Y-22909064D01*
X185768702Y-22922914D01*
X185752286Y-22945828D01*
X185747575Y-22957489D01*
X185744331Y-22971916D01*
X185742323Y-22991514D01*
X185741301Y-23018724D01*
X185741016Y-23055986D01*
X185636429Y-23055986D01*
X185636349Y-23049209D01*
X185637072Y-23007334D01*
X185639014Y-22968754D01*
X185642173Y-22936517D01*
X185646548Y-22913668D01*
X185653244Y-22894939D01*
X185674648Y-22859125D01*
X185703730Y-22831222D01*
X185738672Y-22811821D01*
X185777654Y-22801514D01*
X185818855Y-22800892D01*
X185860457Y-22810547D01*
X185900638Y-22831070D01*
X185931688Y-22851965D01*
X185931688Y-22802798D01*
X186031713Y-22802798D01*
X186031713Y-24084364D01*
X185932434Y-24084364D01*
G37*
G36*
X183549104Y-23997519D02*
G01*
X183528170Y-24031522D01*
X183497454Y-24059309D01*
X183457723Y-24079415D01*
X183457225Y-24079592D01*
X183426950Y-24086670D01*
X183390665Y-24089914D01*
X183354211Y-24089122D01*
X183323428Y-24084088D01*
X183321948Y-24083657D01*
X183300574Y-24074380D01*
X183281230Y-24061687D01*
X183262282Y-24045743D01*
X183262282Y-24084364D01*
X183162257Y-24084364D01*
X183162290Y-23908914D01*
X183262282Y-23908914D01*
X183262292Y-23911370D01*
X183265254Y-23943220D01*
X183273993Y-23965765D01*
X183289273Y-23981041D01*
X183290103Y-23981552D01*
X183305408Y-23987004D01*
X183328263Y-23991400D01*
X183354125Y-23994227D01*
X183378449Y-23994973D01*
X183396690Y-23993129D01*
X183405981Y-23990948D01*
X183423418Y-23987062D01*
X183442570Y-23978436D01*
X183457057Y-23960406D01*
X183462132Y-23935890D01*
X183462006Y-23930813D01*
X183459113Y-23911719D01*
X183451296Y-23897699D01*
X183437058Y-23888037D01*
X183414900Y-23882020D01*
X183383326Y-23878933D01*
X183340837Y-23878063D01*
X183262282Y-23878063D01*
X183262282Y-23908914D01*
X183162290Y-23908914D01*
X183162292Y-23898380D01*
X183162382Y-23863627D01*
X183162913Y-23809609D01*
X183163890Y-23763939D01*
X183165281Y-23727654D01*
X183167052Y-23701792D01*
X183169168Y-23687391D01*
X183170314Y-23683610D01*
X183185105Y-23655853D01*
X183209012Y-23630037D01*
X183239090Y-23608802D01*
X183272397Y-23594788D01*
X183292901Y-23590206D01*
X183332569Y-23585574D01*
X183375106Y-23584642D01*
X183415581Y-23587434D01*
X183449066Y-23593971D01*
X183453677Y-23595500D01*
X183473408Y-23604593D01*
X183494069Y-23617137D01*
X183512605Y-23630921D01*
X183525966Y-23643735D01*
X183531098Y-23653369D01*
X183530993Y-23653840D01*
X183525122Y-23660775D01*
X183512043Y-23672545D01*
X183494241Y-23686889D01*
X183488737Y-23691106D01*
X183471575Y-23703615D01*
X183460906Y-23709431D01*
X183454197Y-23709568D01*
X183448917Y-23705041D01*
X183438209Y-23695698D01*
X183413983Y-23684890D01*
X183383858Y-23678970D01*
X183351278Y-23677950D01*
X183319683Y-23681843D01*
X183292517Y-23690661D01*
X183273222Y-23704416D01*
X183269920Y-23708986D01*
X183264094Y-23726354D01*
X183262282Y-23753151D01*
X183262282Y-23789395D01*
X183354492Y-23791639D01*
X183364728Y-23791901D01*
X183400375Y-23793178D01*
X183426670Y-23794992D01*
X183446151Y-23797665D01*
X183461359Y-23801518D01*
X183474834Y-23806873D01*
X183509530Y-23828461D01*
X183536796Y-23858661D01*
X183553840Y-23895731D01*
X183558558Y-23916733D01*
X183558982Y-23935890D01*
X183559489Y-23958767D01*
X183549104Y-23997519D01*
G37*
G36*
X185567203Y-23069975D02*
G01*
X185561932Y-23121625D01*
X185549793Y-23170000D01*
X185530756Y-23212730D01*
X185504791Y-23247443D01*
X185481627Y-23266949D01*
X185442548Y-23288874D01*
X185399484Y-23302715D01*
X185371693Y-23305811D01*
X185333059Y-23304766D01*
X185293420Y-23299114D01*
X185258299Y-23289376D01*
X185244327Y-23283062D01*
X185219128Y-23268007D01*
X185197143Y-23250966D01*
X185168651Y-23224777D01*
X185204512Y-23195185D01*
X185212670Y-23188494D01*
X185228416Y-23176362D01*
X185238562Y-23170842D01*
X185245879Y-23170788D01*
X185253136Y-23175052D01*
X185256204Y-23177275D01*
X185293821Y-23197592D01*
X185333693Y-23207834D01*
X185373191Y-23207639D01*
X185409686Y-23196645D01*
X185434884Y-23178031D01*
X185454138Y-23149670D01*
X185465468Y-23113812D01*
X185469641Y-23090369D01*
X185156498Y-23090369D01*
X185156545Y-23051297D01*
X185157040Y-23026930D01*
X185158854Y-23009099D01*
X185262774Y-23009099D01*
X185468762Y-23009099D01*
X185465094Y-22988781D01*
X185458204Y-22963361D01*
X185441984Y-22932597D01*
X185419701Y-22910720D01*
X185403629Y-22902794D01*
X185373501Y-22896741D01*
X185341586Y-22898494D01*
X185312844Y-22908170D01*
X185297805Y-22919653D01*
X185280333Y-22941635D01*
X185267661Y-22967179D01*
X185262774Y-22991328D01*
X185262774Y-23009099D01*
X185158854Y-23009099D01*
X185162486Y-22973407D01*
X185174400Y-22928594D01*
X185193352Y-22890759D01*
X185219910Y-22858165D01*
X185247283Y-22835489D01*
X185288213Y-22814044D01*
X185332552Y-22802312D01*
X185378093Y-22800332D01*
X185422628Y-22808143D01*
X185463948Y-22825782D01*
X185499848Y-22853288D01*
X185520202Y-22878073D01*
X185542106Y-22919101D01*
X185557260Y-22966342D01*
X185564271Y-23009099D01*
X185565636Y-23017424D01*
X185567203Y-23069975D01*
G37*
G36*
X184715114Y-23927442D02*
G01*
X184714103Y-23949143D01*
X184712385Y-23965095D01*
X184709777Y-23977291D01*
X184706093Y-23987724D01*
X184701149Y-23998388D01*
X184697195Y-24005791D01*
X184673698Y-24037005D01*
X184643343Y-24063135D01*
X184610205Y-24080505D01*
X184604798Y-24082243D01*
X184579846Y-24087683D01*
X184555022Y-24090122D01*
X184543513Y-24089651D01*
X184515922Y-24084859D01*
X184487695Y-24076148D01*
X184463205Y-24065019D01*
X184446829Y-24052975D01*
X184442352Y-24048290D01*
X184432225Y-24041470D01*
X184426726Y-24046086D01*
X184425068Y-24062483D01*
X184425068Y-24084364D01*
X184325043Y-24084364D01*
X184325043Y-23837428D01*
X184428195Y-23837428D01*
X184428196Y-23839233D01*
X184429024Y-23881573D01*
X184431879Y-23913550D01*
X184437463Y-23937164D01*
X184446481Y-23954413D01*
X184459637Y-23967296D01*
X184477635Y-23977811D01*
X184497996Y-23985832D01*
X184528773Y-23989449D01*
X184561549Y-23982097D01*
X184567719Y-23979566D01*
X184588569Y-23964740D01*
X184603700Y-23941685D01*
X184613397Y-23909552D01*
X184617944Y-23867486D01*
X184617628Y-23814638D01*
X184615138Y-23779000D01*
X184610555Y-23748902D01*
X184603972Y-23729312D01*
X184593224Y-23713578D01*
X184570335Y-23695411D01*
X184542788Y-23685724D01*
X184513338Y-23684486D01*
X184484741Y-23691665D01*
X184459751Y-23707231D01*
X184441125Y-23731152D01*
X184440206Y-23732958D01*
X184434997Y-23745206D01*
X184431524Y-23759052D01*
X184429453Y-23777222D01*
X184428454Y-23802439D01*
X184428195Y-23837428D01*
X184325043Y-23837428D01*
X184325043Y-23383665D01*
X184373492Y-23385491D01*
X184421942Y-23387317D01*
X184423637Y-23510785D01*
X184423732Y-23517201D01*
X184424580Y-23554317D01*
X184425807Y-23586464D01*
X184427305Y-23611758D01*
X184428967Y-23628315D01*
X184430686Y-23634253D01*
X184435460Y-23632273D01*
X184444620Y-23623881D01*
X184447474Y-23620796D01*
X184466595Y-23607342D01*
X184492867Y-23595674D01*
X184521917Y-23587443D01*
X184549373Y-23584302D01*
X184558717Y-23584433D01*
X184597895Y-23589481D01*
X184631270Y-23602925D01*
X184662812Y-23626230D01*
X184678726Y-23641443D01*
X184691296Y-23656465D01*
X184700678Y-23672877D01*
X184707329Y-23692528D01*
X184711705Y-23717270D01*
X184714265Y-23748955D01*
X184715466Y-23789432D01*
X184715764Y-23840554D01*
X184715756Y-23858820D01*
X184715722Y-23867486D01*
X184715604Y-23897999D01*
X184715114Y-23927442D01*
G37*
G36*
X183920161Y-23591764D02*
G01*
X183958541Y-23593618D01*
X184012073Y-23760724D01*
X184014243Y-23767491D01*
X184028064Y-23810207D01*
X184040670Y-23848542D01*
X184051551Y-23880989D01*
X184060195Y-23906040D01*
X184066092Y-23922185D01*
X184068730Y-23927917D01*
X184070299Y-23924573D01*
X184074835Y-23910741D01*
X184081742Y-23887694D01*
X184090544Y-23857062D01*
X184100767Y-23820475D01*
X184111935Y-23779565D01*
X184119697Y-23750819D01*
X184130638Y-23710316D01*
X184140418Y-23674124D01*
X184148514Y-23644182D01*
X184154400Y-23622430D01*
X184157552Y-23610810D01*
X184163091Y-23590492D01*
X184215935Y-23590492D01*
X184225474Y-23590550D01*
X184247613Y-23591203D01*
X184263008Y-23592426D01*
X184268779Y-23594029D01*
X184268748Y-23594205D01*
X184266472Y-23601929D01*
X184260944Y-23619824D01*
X184252652Y-23646349D01*
X184242086Y-23679962D01*
X184229735Y-23719123D01*
X184216087Y-23762290D01*
X184201631Y-23807923D01*
X184186857Y-23854480D01*
X184172253Y-23900421D01*
X184158308Y-23944204D01*
X184145512Y-23984289D01*
X184134352Y-24019135D01*
X184125319Y-24047200D01*
X184118901Y-24066944D01*
X184115587Y-24076825D01*
X184115417Y-24077237D01*
X184108905Y-24081492D01*
X184093421Y-24083366D01*
X184067274Y-24083076D01*
X184021877Y-24081238D01*
X183972357Y-23914291D01*
X183970537Y-23908166D01*
X183957663Y-23865454D01*
X183945845Y-23827276D01*
X183935569Y-23795128D01*
X183927321Y-23770504D01*
X183921588Y-23754899D01*
X183918855Y-23749806D01*
X183918726Y-23749938D01*
X183915634Y-23757492D01*
X183909564Y-23775325D01*
X183901008Y-23801880D01*
X183890463Y-23835601D01*
X183878420Y-23874932D01*
X183865375Y-23918315D01*
X183815876Y-24084364D01*
X183725728Y-24084364D01*
X183685176Y-23957770D01*
X183673145Y-23920180D01*
X183656415Y-23867832D01*
X183639160Y-23813767D01*
X183622827Y-23762526D01*
X183608867Y-23718649D01*
X183608752Y-23718288D01*
X183597362Y-23682513D01*
X183587164Y-23650618D01*
X183578806Y-23624612D01*
X183572932Y-23606505D01*
X183570190Y-23598306D01*
X183570443Y-23595595D01*
X183577278Y-23592595D01*
X183593403Y-23590977D01*
X183620407Y-23590492D01*
X183622737Y-23590495D01*
X183651858Y-23591390D01*
X183669500Y-23593953D01*
X183676537Y-23598306D01*
X183678478Y-23604707D01*
X183683336Y-23621867D01*
X183690566Y-23647913D01*
X183699700Y-23681149D01*
X183710270Y-23719880D01*
X183721808Y-23762409D01*
X183732133Y-23800260D01*
X183742930Y-23839124D01*
X183752419Y-23872524D01*
X183760121Y-23898806D01*
X183765559Y-23916314D01*
X183768256Y-23923395D01*
X183768566Y-23923400D01*
X183772187Y-23916638D01*
X183778952Y-23899696D01*
X183788342Y-23874018D01*
X183799842Y-23841047D01*
X183812934Y-23802228D01*
X183827103Y-23759002D01*
X183881781Y-23589911D01*
X183920161Y-23591764D01*
G37*
G36*
X182847677Y-23585800D02*
G01*
X182889860Y-23596756D01*
X182927837Y-23618210D01*
X182949705Y-23634889D01*
X182949705Y-23590492D01*
X183049729Y-23590492D01*
X183049729Y-24084364D01*
X182949705Y-24084364D01*
X182949695Y-23920261D01*
X182949662Y-23887446D01*
X182949441Y-23843757D01*
X182948930Y-23810000D01*
X182948036Y-23784591D01*
X182946665Y-23765944D01*
X182944723Y-23752474D01*
X182942118Y-23742595D01*
X182938755Y-23734722D01*
X182928847Y-23719290D01*
X182905113Y-23698292D01*
X182876121Y-23686753D01*
X182844599Y-23685525D01*
X182813272Y-23695462D01*
X182788794Y-23708221D01*
X182752699Y-23664346D01*
X182751920Y-23663397D01*
X182734951Y-23641992D01*
X182725510Y-23627879D01*
X182722623Y-23619283D01*
X182725315Y-23614426D01*
X182761343Y-23595579D01*
X182803950Y-23585391D01*
X182847677Y-23585800D01*
G37*
G36*
X183382908Y-22804113D02*
G01*
X183434199Y-22805924D01*
X183434167Y-22990344D01*
X183434165Y-22996771D01*
X183434114Y-23048487D01*
X183433920Y-23089436D01*
X183433477Y-23121183D01*
X183432682Y-23145292D01*
X183431431Y-23163328D01*
X183429617Y-23176855D01*
X183427138Y-23187436D01*
X183423889Y-23196638D01*
X183419765Y-23206022D01*
X183410605Y-23223573D01*
X183382353Y-23259845D01*
X183346198Y-23286638D01*
X183302917Y-23303307D01*
X183293313Y-23305289D01*
X183251678Y-23306291D01*
X183209252Y-23295917D01*
X183168301Y-23274650D01*
X183137251Y-23253754D01*
X183137251Y-23302921D01*
X183037226Y-23302921D01*
X183037226Y-22802798D01*
X183137251Y-22802798D01*
X183137251Y-22964014D01*
X183137256Y-22985468D01*
X183137356Y-23030131D01*
X183137679Y-23064655D01*
X183138351Y-23090721D01*
X183139496Y-23110008D01*
X183141241Y-23124197D01*
X183143709Y-23134969D01*
X183147026Y-23144003D01*
X183151317Y-23152980D01*
X183155968Y-23161387D01*
X183176686Y-23185627D01*
X183203805Y-23199554D01*
X183238485Y-23203845D01*
X183243369Y-23203738D01*
X183271247Y-23199097D01*
X183293879Y-23186186D01*
X183315033Y-23162994D01*
X183317169Y-23159993D01*
X183320555Y-23153882D01*
X183323186Y-23145918D01*
X183325181Y-23134580D01*
X183326658Y-23118346D01*
X183327737Y-23095694D01*
X183328537Y-23065104D01*
X183329174Y-23025054D01*
X183329770Y-22974023D01*
X183331616Y-22802302D01*
X183382908Y-22804113D01*
G37*
G36*
X184891162Y-22805800D02*
G01*
X184924466Y-22818183D01*
X184950345Y-22837339D01*
X184959651Y-22846500D01*
X184969149Y-22851696D01*
X184973904Y-22845629D01*
X184975203Y-22827804D01*
X184975203Y-22802798D01*
X185075228Y-22802798D01*
X185075228Y-23302921D01*
X184976110Y-23302921D01*
X184974094Y-23135693D01*
X184973639Y-23099193D01*
X184973001Y-23056886D01*
X184972245Y-23024355D01*
X184971232Y-23000000D01*
X184969821Y-22982222D01*
X184967873Y-22969420D01*
X184965248Y-22959994D01*
X184961807Y-22952343D01*
X184957408Y-22944869D01*
X184954596Y-22940537D01*
X184934343Y-22918786D01*
X184908559Y-22906614D01*
X184874891Y-22902823D01*
X184842499Y-22906765D01*
X184816129Y-22919841D01*
X184796319Y-22942742D01*
X184792962Y-22949182D01*
X184790067Y-22957755D01*
X184787791Y-22969551D01*
X184786011Y-22986116D01*
X184784606Y-23008997D01*
X184783451Y-23039741D01*
X184782425Y-23079895D01*
X184781405Y-23131004D01*
X184778280Y-23299796D01*
X184726213Y-23301619D01*
X184674147Y-23303443D01*
X184676201Y-23117199D01*
X184676230Y-23114587D01*
X184676854Y-23061735D01*
X184677503Y-23019759D01*
X184678296Y-22987104D01*
X184679349Y-22962211D01*
X184680782Y-22943524D01*
X184682711Y-22929486D01*
X184685255Y-22918541D01*
X184688530Y-22909130D01*
X184692656Y-22899697D01*
X184711194Y-22867025D01*
X184737145Y-22839184D01*
X184772028Y-22816819D01*
X184779898Y-22813112D01*
X184815558Y-22802882D01*
X184853753Y-22800572D01*
X184891162Y-22805800D01*
G37*
G36*
X186523389Y-23110644D02*
G01*
X186516887Y-23154692D01*
X186505432Y-23191065D01*
X186488383Y-23221840D01*
X186465101Y-23249091D01*
X186449543Y-23263032D01*
X186408530Y-23288863D01*
X186363542Y-23303036D01*
X186328314Y-23305788D01*
X186287745Y-23303121D01*
X186250517Y-23295277D01*
X186224930Y-23284783D01*
X186187903Y-23259732D01*
X186156822Y-23226289D01*
X186134305Y-23186896D01*
X186129959Y-23173802D01*
X186123969Y-23142798D01*
X186120166Y-23104595D01*
X186118555Y-23062443D01*
X186118688Y-23052622D01*
X186219396Y-23052622D01*
X186220009Y-23081827D01*
X186223610Y-23121015D01*
X186230818Y-23150494D01*
X186242071Y-23171791D01*
X186257807Y-23186431D01*
X186257842Y-23186454D01*
X186287699Y-23199496D01*
X186320910Y-23203697D01*
X186353383Y-23199083D01*
X186381031Y-23185678D01*
X186390491Y-23178094D01*
X186403977Y-23163574D01*
X186413170Y-23146180D01*
X186418813Y-23123524D01*
X186421653Y-23093214D01*
X186422434Y-23052860D01*
X186422432Y-23049198D01*
X186422118Y-23016228D01*
X186421024Y-22992807D01*
X186418802Y-22976236D01*
X186415107Y-22963818D01*
X186409593Y-22952856D01*
X186394118Y-22932609D01*
X186368291Y-22913528D01*
X186338772Y-22903446D01*
X186308039Y-22902361D01*
X186278569Y-22910271D01*
X186252838Y-22927171D01*
X186233325Y-22953059D01*
X186227672Y-22965271D01*
X186223343Y-22979273D01*
X186220811Y-22996421D01*
X186219641Y-23019832D01*
X186219396Y-23052622D01*
X186118688Y-23052622D01*
X186119137Y-23019595D01*
X186121916Y-22979300D01*
X186126894Y-22944811D01*
X186134074Y-22919377D01*
X186143503Y-22899878D01*
X186170757Y-22862228D01*
X186205129Y-22832967D01*
X186244824Y-22812456D01*
X186288045Y-22801056D01*
X186332997Y-22799129D01*
X186377884Y-22807034D01*
X186420911Y-22825134D01*
X186460281Y-22853789D01*
X186469752Y-22862975D01*
X186491751Y-22889849D01*
X186507622Y-22920103D01*
X186518076Y-22955908D01*
X186523826Y-22999437D01*
X186525584Y-23052860D01*
X186525576Y-23056846D01*
X186523389Y-23110644D01*
G37*
G36*
X184179369Y-19089388D02*
G01*
X184235570Y-19089442D01*
X184281038Y-19089603D01*
X184316952Y-19089928D01*
X184344490Y-19090476D01*
X184364834Y-19091302D01*
X184379163Y-19092464D01*
X184388655Y-19094019D01*
X184394491Y-19096024D01*
X184397851Y-19098535D01*
X184399913Y-19101610D01*
X184400182Y-19102217D01*
X184403094Y-19112783D01*
X184407909Y-19134002D01*
X184414341Y-19164450D01*
X184422099Y-19202706D01*
X184430894Y-19247349D01*
X184440438Y-19296957D01*
X184450441Y-19350108D01*
X184452182Y-19359436D01*
X184462164Y-19411856D01*
X184471712Y-19460320D01*
X184480530Y-19503436D01*
X184488320Y-19539812D01*
X184494787Y-19568058D01*
X184499633Y-19586782D01*
X184502563Y-19594591D01*
X184504658Y-19596118D01*
X184517227Y-19602716D01*
X184538847Y-19612748D01*
X184567660Y-19625451D01*
X184601810Y-19640066D01*
X184639439Y-19655832D01*
X184678689Y-19671987D01*
X184717702Y-19687772D01*
X184754621Y-19702425D01*
X184787588Y-19715186D01*
X184814746Y-19725293D01*
X184834236Y-19731986D01*
X184844203Y-19734505D01*
X184847560Y-19733922D01*
X184860228Y-19728311D01*
X184880948Y-19716554D01*
X184910122Y-19698396D01*
X184948152Y-19673582D01*
X184995442Y-19641858D01*
X185052394Y-19602970D01*
X185069748Y-19591042D01*
X185119170Y-19557091D01*
X185159576Y-19529409D01*
X185191953Y-19507381D01*
X185217288Y-19490393D01*
X185236566Y-19477831D01*
X185250776Y-19469079D01*
X185260904Y-19463523D01*
X185267935Y-19460549D01*
X185272857Y-19459541D01*
X185276656Y-19459885D01*
X185280318Y-19460967D01*
X185285804Y-19464512D01*
X185299480Y-19476125D01*
X185319484Y-19494557D01*
X185344641Y-19518611D01*
X185373776Y-19547093D01*
X185405713Y-19578804D01*
X185439278Y-19612550D01*
X185473294Y-19647134D01*
X185506588Y-19681359D01*
X185537984Y-19714030D01*
X185566307Y-19743950D01*
X185590381Y-19769924D01*
X185609032Y-19790754D01*
X185621084Y-19805244D01*
X185625363Y-19812199D01*
X185625303Y-19812667D01*
X185620995Y-19821787D01*
X185610427Y-19839805D01*
X185594378Y-19865510D01*
X185573628Y-19897693D01*
X185548955Y-19935143D01*
X185521137Y-19976652D01*
X185490955Y-20021009D01*
X185488078Y-20025208D01*
X185448190Y-20083896D01*
X185415392Y-20133116D01*
X185389756Y-20172756D01*
X185371355Y-20202699D01*
X185360261Y-20222831D01*
X185356547Y-20233039D01*
X185357603Y-20239070D01*
X185363022Y-20256357D01*
X185372352Y-20281753D01*
X185384817Y-20313465D01*
X185399640Y-20349699D01*
X185416045Y-20388663D01*
X185433256Y-20428564D01*
X185450496Y-20467609D01*
X185466988Y-20504004D01*
X185481956Y-20535958D01*
X185494623Y-20561676D01*
X185504213Y-20579366D01*
X185509949Y-20587235D01*
X185517881Y-20590017D01*
X185536930Y-20594846D01*
X185565433Y-20601271D01*
X185601910Y-20608982D01*
X185644880Y-20617665D01*
X185692864Y-20627008D01*
X185744382Y-20636699D01*
X185792241Y-20645626D01*
X185840653Y-20654820D01*
X185884213Y-20663264D01*
X185921432Y-20670660D01*
X185950819Y-20676713D01*
X185970884Y-20681125D01*
X185980138Y-20683600D01*
X185994204Y-20689510D01*
X185994204Y-20939037D01*
X185994203Y-20947380D01*
X185994163Y-21008530D01*
X185994021Y-21058474D01*
X185993728Y-21098368D01*
X185993234Y-21129366D01*
X185992489Y-21152623D01*
X185991444Y-21169295D01*
X185990048Y-21180537D01*
X185988253Y-21187504D01*
X185986008Y-21191351D01*
X185983264Y-21193233D01*
X185974961Y-21195385D01*
X185955765Y-21199547D01*
X185927157Y-21205416D01*
X185890589Y-21212702D01*
X185847512Y-21221116D01*
X185799377Y-21230369D01*
X185747634Y-21240173D01*
X185718245Y-21245726D01*
X185660864Y-21256767D01*
X185614477Y-21266034D01*
X185578161Y-21273736D01*
X185550993Y-21280085D01*
X185532050Y-21285289D01*
X185520409Y-21289560D01*
X185515147Y-21293108D01*
X185514256Y-21294600D01*
X185508683Y-21306358D01*
X185499362Y-21327708D01*
X185486938Y-21357110D01*
X185472058Y-21393027D01*
X185455365Y-21433920D01*
X185437505Y-21478250D01*
X185421714Y-21518008D01*
X185402031Y-21568836D01*
X185387214Y-21608990D01*
X185377111Y-21638911D01*
X185371565Y-21659039D01*
X185370424Y-21669813D01*
X185373652Y-21677173D01*
X185383347Y-21694078D01*
X185398649Y-21718802D01*
X185418726Y-21750050D01*
X185442744Y-21786529D01*
X185469871Y-21826944D01*
X185499274Y-21870001D01*
X185525617Y-21908495D01*
X185552734Y-21948662D01*
X185576729Y-21984781D01*
X185596796Y-22015609D01*
X185612129Y-22039907D01*
X185621920Y-22056434D01*
X185625363Y-22063948D01*
X185625066Y-22064879D01*
X185618614Y-22073668D01*
X185604451Y-22089950D01*
X185583532Y-22112715D01*
X185556814Y-22140948D01*
X185525250Y-22173639D01*
X185489795Y-22209775D01*
X185451405Y-22248343D01*
X185423224Y-22276412D01*
X185382831Y-22316395D01*
X185349910Y-22348566D01*
X185323679Y-22373638D01*
X185303353Y-22392324D01*
X185288148Y-22405336D01*
X185277280Y-22413387D01*
X185269966Y-22417190D01*
X185265422Y-22417458D01*
X185259536Y-22414169D01*
X185244082Y-22404400D01*
X185220667Y-22389073D01*
X185190557Y-22369033D01*
X185155020Y-22345125D01*
X185115323Y-22318193D01*
X185072733Y-22289082D01*
X185036698Y-22264526D01*
X184996497Y-22237542D01*
X184960239Y-22213644D01*
X184929187Y-22193642D01*
X184904604Y-22178350D01*
X184887754Y-22168579D01*
X184879900Y-22165141D01*
X184876969Y-22165687D01*
X184863341Y-22170812D01*
X184842033Y-22180468D01*
X184815324Y-22193594D01*
X184785496Y-22209128D01*
X184772227Y-22216123D01*
X184743606Y-22230502D01*
X184719150Y-22241838D01*
X184701112Y-22249117D01*
X184691744Y-22251325D01*
X184689848Y-22250138D01*
X184685288Y-22243986D01*
X184678617Y-22232039D01*
X184669550Y-22213651D01*
X184657803Y-22188179D01*
X184643093Y-22154977D01*
X184625134Y-22113400D01*
X184603643Y-22062804D01*
X184578336Y-22002543D01*
X184548929Y-21931973D01*
X184515138Y-21850449D01*
X184497557Y-21807880D01*
X184470740Y-21742673D01*
X184445624Y-21681273D01*
X184422597Y-21624647D01*
X184402047Y-21573760D01*
X184384363Y-21529580D01*
X184369933Y-21493075D01*
X184359145Y-21465210D01*
X184352388Y-21446954D01*
X184350049Y-21439273D01*
X184350602Y-21436090D01*
X184359234Y-21423750D01*
X184376618Y-21410067D01*
X184380212Y-21407721D01*
X184399778Y-21394425D01*
X184423886Y-21377478D01*
X184448140Y-21359960D01*
X184485171Y-21330131D01*
X184540147Y-21273696D01*
X184585472Y-21210520D01*
X184620672Y-21141825D01*
X184645274Y-21068831D01*
X184658806Y-20992763D01*
X184660795Y-20914841D01*
X184650767Y-20836288D01*
X184646093Y-20815870D01*
X184621475Y-20742745D01*
X184586150Y-20674523D01*
X184541131Y-20612286D01*
X184487433Y-20557119D01*
X184426070Y-20510104D01*
X184358057Y-20472327D01*
X184284408Y-20444870D01*
X184264525Y-20439961D01*
X184215764Y-20432619D01*
X184161556Y-20429439D01*
X184106210Y-20430421D01*
X184054035Y-20435565D01*
X184009340Y-20444870D01*
X183963361Y-20460173D01*
X183900513Y-20489533D01*
X183842811Y-20527993D01*
X183787411Y-20577248D01*
X183779356Y-20585386D01*
X183742607Y-20625485D01*
X183713888Y-20663186D01*
X183690897Y-20701811D01*
X183671331Y-20744684D01*
X183649609Y-20810314D01*
X183635542Y-20887516D01*
X183633158Y-20964636D01*
X183642126Y-21040501D01*
X183662114Y-21113939D01*
X183692787Y-21183777D01*
X183733816Y-21248842D01*
X183784867Y-21307961D01*
X183845608Y-21359960D01*
X183851316Y-21364131D01*
X183875940Y-21381793D01*
X183899344Y-21398132D01*
X183917130Y-21410067D01*
X183923343Y-21414321D01*
X183938241Y-21427847D01*
X183943699Y-21439273D01*
X183942763Y-21442824D01*
X183937597Y-21457276D01*
X183928257Y-21481694D01*
X183915131Y-21515111D01*
X183898607Y-21556561D01*
X183879073Y-21605076D01*
X183856919Y-21659689D01*
X183832531Y-21719434D01*
X183806299Y-21783343D01*
X183778610Y-21850449D01*
X183757065Y-21902472D01*
X183726033Y-21977107D01*
X183699210Y-22041190D01*
X183676309Y-22095365D01*
X183657049Y-22140276D01*
X183641143Y-22176569D01*
X183628309Y-22204888D01*
X183618262Y-22225879D01*
X183610719Y-22240185D01*
X183605394Y-22248452D01*
X183602004Y-22251325D01*
X183599113Y-22251047D01*
X183585671Y-22246494D01*
X183564546Y-22237313D01*
X183537989Y-22224520D01*
X183508253Y-22209128D01*
X183495186Y-22202219D01*
X183466421Y-22187591D01*
X183441755Y-22175827D01*
X183423471Y-22167990D01*
X183413848Y-22165141D01*
X183407851Y-22167601D01*
X183392327Y-22176434D01*
X183368872Y-22190915D01*
X183338750Y-22210232D01*
X183303224Y-22233574D01*
X183263558Y-22260128D01*
X183221015Y-22289082D01*
X183185292Y-22313514D01*
X183145030Y-22340865D01*
X183108719Y-22365330D01*
X183077625Y-22386066D01*
X183053017Y-22402229D01*
X183036162Y-22412975D01*
X183028327Y-22417458D01*
X183025885Y-22417681D01*
X183019771Y-22415376D01*
X183010417Y-22409106D01*
X182997038Y-22398161D01*
X182978851Y-22381827D01*
X182955072Y-22359390D01*
X182924917Y-22330140D01*
X182887602Y-22293362D01*
X182842344Y-22248343D01*
X182832160Y-22238165D01*
X182794439Y-22200130D01*
X182759902Y-22164790D01*
X182729502Y-22133158D01*
X182704196Y-22106246D01*
X182684938Y-22085065D01*
X182672683Y-22070628D01*
X182668385Y-22063948D01*
X182671172Y-22057635D01*
X182680352Y-22041972D01*
X182695156Y-22018411D01*
X182714777Y-21988192D01*
X182738408Y-21952557D01*
X182765243Y-21912746D01*
X182794474Y-21870001D01*
X182820296Y-21832226D01*
X182847755Y-21791409D01*
X182872209Y-21754366D01*
X182892825Y-21722391D01*
X182908772Y-21696777D01*
X182919216Y-21678820D01*
X182923325Y-21669813D01*
X182923053Y-21663701D01*
X182919012Y-21646780D01*
X182910465Y-21620215D01*
X182897257Y-21583565D01*
X182879234Y-21536390D01*
X182856243Y-21478250D01*
X182850400Y-21463684D01*
X182832846Y-21420294D01*
X182816667Y-21380836D01*
X182802507Y-21346850D01*
X182791013Y-21319875D01*
X182782829Y-21301448D01*
X182778601Y-21293108D01*
X182776983Y-21291601D01*
X182768989Y-21287757D01*
X182754204Y-21283095D01*
X182731706Y-21277406D01*
X182700571Y-21270480D01*
X182659876Y-21262106D01*
X182608698Y-21252073D01*
X182546114Y-21240173D01*
X182495036Y-21230496D01*
X182446844Y-21221233D01*
X182403690Y-21212806D01*
X182367027Y-21205504D01*
X182338304Y-21199615D01*
X182318973Y-21195428D01*
X182310485Y-21193233D01*
X182310119Y-21193069D01*
X182307439Y-21191007D01*
X182305252Y-21186839D01*
X182303508Y-21179409D01*
X182302158Y-21167563D01*
X182301152Y-21150144D01*
X182300441Y-21125997D01*
X182299974Y-21093969D01*
X182299702Y-21052903D01*
X182299576Y-21001644D01*
X182299545Y-20939037D01*
X182299545Y-20689510D01*
X182313611Y-20683600D01*
X182321791Y-20681378D01*
X182341108Y-20677099D01*
X182369856Y-20671158D01*
X182406547Y-20663851D01*
X182449689Y-20655474D01*
X182497792Y-20646325D01*
X182549367Y-20636699D01*
X182597324Y-20627689D01*
X182645608Y-20618311D01*
X182688983Y-20609570D01*
X182725969Y-20601780D01*
X182755088Y-20595253D01*
X182774858Y-20590301D01*
X182783800Y-20587235D01*
X182787040Y-20583343D01*
X182795364Y-20568900D01*
X182807038Y-20545799D01*
X182821286Y-20515833D01*
X182837331Y-20480794D01*
X182854396Y-20442476D01*
X182871706Y-20402672D01*
X182888483Y-20363174D01*
X182903951Y-20325776D01*
X182917333Y-20292271D01*
X182927853Y-20264451D01*
X182934735Y-20244109D01*
X182937202Y-20233039D01*
X182937185Y-20232674D01*
X182932982Y-20221809D01*
X182921405Y-20201026D01*
X182902524Y-20170440D01*
X182876414Y-20130165D01*
X182843146Y-20080317D01*
X182802793Y-20021009D01*
X182798773Y-20015138D01*
X182768853Y-19971082D01*
X182741400Y-19930031D01*
X182717191Y-19893195D01*
X182697007Y-19861784D01*
X182681625Y-19837008D01*
X182671825Y-19820076D01*
X182668385Y-19812199D01*
X182670960Y-19807539D01*
X182681341Y-19794664D01*
X182698589Y-19775176D01*
X182721528Y-19750271D01*
X182748985Y-19721147D01*
X182779782Y-19688999D01*
X182812746Y-19655023D01*
X182846702Y-19620415D01*
X182880473Y-19586373D01*
X182912885Y-19554092D01*
X182942763Y-19524767D01*
X182968932Y-19499596D01*
X182990216Y-19479775D01*
X183005440Y-19466500D01*
X183013430Y-19460967D01*
X183014880Y-19460499D01*
X183018361Y-19459597D01*
X183022291Y-19459616D01*
X183027658Y-19461169D01*
X183035448Y-19464870D01*
X183046647Y-19471336D01*
X183062241Y-19481181D01*
X183083218Y-19495019D01*
X183110563Y-19513465D01*
X183145262Y-19537134D01*
X183188303Y-19566641D01*
X183240671Y-19602601D01*
X183270897Y-19623294D01*
X183322936Y-19658517D01*
X183365523Y-19686719D01*
X183399069Y-19708158D01*
X183423982Y-19723093D01*
X183440673Y-19731783D01*
X183449551Y-19734485D01*
X183452454Y-19733981D01*
X183466626Y-19729611D01*
X183489537Y-19721387D01*
X183519331Y-19710071D01*
X183554154Y-19696422D01*
X183592152Y-19681200D01*
X183631470Y-19665166D01*
X183670254Y-19649079D01*
X183706648Y-19633700D01*
X183738798Y-19619788D01*
X183764851Y-19608103D01*
X183782950Y-19599406D01*
X183791241Y-19594457D01*
X183791593Y-19593946D01*
X183794835Y-19584161D01*
X183799950Y-19563705D01*
X183806645Y-19533968D01*
X183814621Y-19496339D01*
X183823584Y-19452209D01*
X183833237Y-19402967D01*
X183843285Y-19350004D01*
X183844932Y-19341196D01*
X183854905Y-19288520D01*
X183864367Y-19239621D01*
X183873029Y-19195921D01*
X183880602Y-19158839D01*
X183886796Y-19129795D01*
X183891322Y-19110210D01*
X183893892Y-19101505D01*
X183894765Y-19100010D01*
X183897314Y-19097228D01*
X183901754Y-19094980D01*
X183909266Y-19093207D01*
X183921028Y-19091854D01*
X183938219Y-19090864D01*
X183962018Y-19090181D01*
X183993604Y-19089748D01*
X184034156Y-19089508D01*
X184084853Y-19089406D01*
X184146874Y-19089385D01*
X184179369Y-19089388D01*
G37*
G36*
X184856188Y-23585965D02*
G01*
X184896323Y-23597909D01*
X184931490Y-23620115D01*
X184956448Y-23641479D01*
X184956448Y-23590492D01*
X185056473Y-23590492D01*
X185056473Y-24084364D01*
X184956448Y-24084364D01*
X184956448Y-23923148D01*
X184956443Y-23901833D01*
X184956343Y-23857135D01*
X184956020Y-23822579D01*
X184955349Y-23796483D01*
X184954203Y-23777165D01*
X184952459Y-23762943D01*
X184949991Y-23752136D01*
X184946674Y-23743062D01*
X184942382Y-23734039D01*
X184928404Y-23713807D01*
X184903789Y-23694808D01*
X184874661Y-23685030D01*
X184843927Y-23685323D01*
X184814490Y-23696539D01*
X184794436Y-23708766D01*
X184759789Y-23667025D01*
X184753301Y-23659116D01*
X184738896Y-23640800D01*
X184728890Y-23626956D01*
X184725141Y-23620103D01*
X184728363Y-23616371D01*
X184740279Y-23608697D01*
X184757962Y-23599643D01*
X184771396Y-23594084D01*
X184813680Y-23584588D01*
X184856188Y-23585965D01*
G37*
G36*
X182175054Y-23045519D02*
G01*
X182174451Y-23083025D01*
X182171988Y-23117379D01*
X182167700Y-23143969D01*
X182155097Y-23182741D01*
X182130702Y-23226724D01*
X182097952Y-23261624D01*
X182057212Y-23287074D01*
X182008848Y-23302708D01*
X182005870Y-23303295D01*
X181951895Y-23307426D01*
X181898548Y-23299787D01*
X181848082Y-23280941D01*
X181802750Y-23251447D01*
X181796269Y-23245882D01*
X181785090Y-23234868D01*
X181780667Y-23228207D01*
X181780698Y-23227966D01*
X181785789Y-23221179D01*
X181797907Y-23209098D01*
X181814612Y-23194170D01*
X181848557Y-23165169D01*
X181871184Y-23180524D01*
X181874735Y-23182850D01*
X181895897Y-23194624D01*
X181916045Y-23203217D01*
X181925905Y-23205786D01*
X181953319Y-23208513D01*
X181982851Y-23206956D01*
X182009746Y-23201555D01*
X182029250Y-23192748D01*
X182044816Y-23176790D01*
X182059510Y-23153823D01*
X182070297Y-23129144D01*
X182074489Y-23107799D01*
X182074489Y-23090369D01*
X181766814Y-23090369D01*
X181769378Y-23020039D01*
X181770152Y-23009099D01*
X181866797Y-23009099D01*
X182074489Y-23009099D01*
X182074489Y-22991328D01*
X182071450Y-22972786D01*
X182060235Y-22947124D01*
X182043563Y-22923933D01*
X182024419Y-22908170D01*
X182023520Y-22907698D01*
X181999303Y-22899620D01*
X181970798Y-22896571D01*
X181963949Y-22896768D01*
X181930333Y-22904359D01*
X181902972Y-22922311D01*
X181882886Y-22949713D01*
X181871091Y-22985656D01*
X181866797Y-23009099D01*
X181770152Y-23009099D01*
X181772583Y-22974718D01*
X181779361Y-22937731D01*
X181790730Y-22907451D01*
X181807751Y-22881071D01*
X181831484Y-22855789D01*
X181869084Y-22827394D01*
X181913904Y-22807477D01*
X181961608Y-22799200D01*
X182010733Y-22802995D01*
X182053329Y-22816291D01*
X182093831Y-22840633D01*
X182126761Y-22874780D01*
X182151894Y-22918495D01*
X182169006Y-22971537D01*
X182170540Y-22979494D01*
X182173722Y-23009099D01*
X182173762Y-23009472D01*
X182175054Y-23045519D01*
G37*
G36*
X182755005Y-22808593D02*
G01*
X182787825Y-22823131D01*
X182813031Y-22844542D01*
X182813815Y-22845481D01*
X182819088Y-22849819D01*
X182822196Y-22845413D01*
X182824674Y-22830400D01*
X182827800Y-22805924D01*
X182879375Y-22804108D01*
X182930950Y-22802293D01*
X182930950Y-23303427D01*
X182879375Y-23301611D01*
X182827800Y-23299796D01*
X182824674Y-23127878D01*
X182824187Y-23101424D01*
X182823170Y-23053364D01*
X182821942Y-23015612D01*
X182820209Y-22986674D01*
X182817680Y-22965055D01*
X182814060Y-22949263D01*
X182809057Y-22937801D01*
X182802378Y-22929178D01*
X182793730Y-22921898D01*
X182782820Y-22914468D01*
X182766225Y-22907232D01*
X182739115Y-22903181D01*
X182710425Y-22905096D01*
X182685488Y-22913054D01*
X182665703Y-22923286D01*
X182641691Y-22895863D01*
X182631917Y-22884505D01*
X182616626Y-22866055D01*
X182605480Y-22851784D01*
X182593280Y-22835129D01*
X182613842Y-22822421D01*
X182641317Y-22809594D01*
X182678705Y-22801486D01*
X182717616Y-22801265D01*
X182755005Y-22808593D01*
G37*
G36*
X182713331Y-23802044D02*
G01*
X182714412Y-23857588D01*
X182708479Y-23910463D01*
X182696012Y-23957828D01*
X182677494Y-23996842D01*
X182662636Y-24018242D01*
X182636727Y-24045475D01*
X182605432Y-24065912D01*
X182565235Y-24082229D01*
X182543192Y-24087181D01*
X182507098Y-24089604D01*
X182467906Y-24087480D01*
X182430380Y-24081135D01*
X182399284Y-24070895D01*
X182393193Y-24067955D01*
X182372075Y-24055974D01*
X182351587Y-24042124D01*
X182334302Y-24028394D01*
X182322791Y-24016774D01*
X182319626Y-24009256D01*
X182319699Y-24009097D01*
X182325529Y-24002625D01*
X182338223Y-23990762D01*
X182355172Y-23975952D01*
X182388920Y-23947278D01*
X182407163Y-23962629D01*
X182428700Y-23976108D01*
X182458946Y-23987553D01*
X182490689Y-23993929D01*
X182518433Y-23993702D01*
X182551551Y-23982814D01*
X182579754Y-23962784D01*
X182600044Y-23935845D01*
X182610277Y-23904091D01*
X182613768Y-23878063D01*
X182304223Y-23878063D01*
X182306949Y-23806836D01*
X182307147Y-23801763D01*
X182307719Y-23790541D01*
X182406133Y-23790541D01*
X182613768Y-23790541D01*
X182610277Y-23764513D01*
X182601081Y-23733679D01*
X182581720Y-23707012D01*
X182554121Y-23688467D01*
X182519917Y-23679577D01*
X182501192Y-23679240D01*
X182468592Y-23687018D01*
X182441900Y-23705292D01*
X182422057Y-23733287D01*
X182410005Y-23770224D01*
X182406133Y-23790541D01*
X182307719Y-23790541D01*
X182308720Y-23770901D01*
X182311051Y-23748369D01*
X182314895Y-23730495D01*
X182321006Y-23713609D01*
X182330140Y-23694040D01*
X182352066Y-23658225D01*
X182385135Y-23624336D01*
X182425076Y-23600766D01*
X182471448Y-23587762D01*
X182523808Y-23585572D01*
X182530076Y-23586027D01*
X182578579Y-23595742D01*
X182620299Y-23615773D01*
X182654883Y-23645736D01*
X182681977Y-23685243D01*
X182701229Y-23733909D01*
X182712129Y-23790541D01*
X182712285Y-23791349D01*
X182713331Y-23802044D01*
G37*
G36*
X182413871Y-22802238D02*
G01*
X182451992Y-22811047D01*
X182498834Y-22831097D01*
X182537027Y-22860091D01*
X182566702Y-22898168D01*
X182587990Y-22945468D01*
X182601022Y-23002132D01*
X182604813Y-23056952D01*
X182600257Y-23111558D01*
X182587680Y-23162106D01*
X182567645Y-23206354D01*
X182540717Y-23242062D01*
X182534313Y-23248200D01*
X182501202Y-23272577D01*
X182462916Y-23291771D01*
X182425003Y-23302867D01*
X182401022Y-23306394D01*
X182373330Y-23307908D01*
X182348099Y-23305074D01*
X182319799Y-23297619D01*
X182307987Y-23293538D01*
X182272908Y-23277273D01*
X182240545Y-23256747D01*
X182215743Y-23234882D01*
X182208316Y-23225808D01*
X182207768Y-23218513D01*
X182215743Y-23208459D01*
X182219378Y-23204658D01*
X182233995Y-23191044D01*
X182250962Y-23176782D01*
X182274272Y-23158296D01*
X182296727Y-23175423D01*
X182301668Y-23179027D01*
X182335678Y-23196417D01*
X182371569Y-23203831D01*
X182407033Y-23201672D01*
X182439765Y-23190349D01*
X182467459Y-23170264D01*
X182487808Y-23141825D01*
X182488576Y-23140244D01*
X182495531Y-23123391D01*
X182499699Y-23105822D01*
X182501716Y-23083618D01*
X182502216Y-23052860D01*
X182502177Y-23043915D01*
X182501349Y-23016334D01*
X182498925Y-22996228D01*
X182494215Y-22979631D01*
X182486532Y-22962574D01*
X182469896Y-22937155D01*
X182445032Y-22916800D01*
X182413211Y-22905986D01*
X182373239Y-22904096D01*
X182361983Y-22904829D01*
X182339422Y-22908086D01*
X182321471Y-22914754D01*
X182302473Y-22926636D01*
X182273664Y-22946942D01*
X182250658Y-22928697D01*
X182244917Y-22924039D01*
X182228153Y-22909426D01*
X182215684Y-22897195D01*
X182213840Y-22895144D01*
X182207560Y-22886479D01*
X182208929Y-22879261D01*
X182218449Y-22868254D01*
X182221187Y-22865425D01*
X182251986Y-22840751D01*
X182290070Y-22819886D01*
X182330764Y-22805443D01*
X182340832Y-22802973D01*
X182364491Y-22798847D01*
X182386570Y-22798690D01*
X182413871Y-22802238D01*
G37*
%LPC*%
D11*
X154940000Y-66675000D03*
D12*
X165100000Y-66675000D03*
D11*
X184150000Y-47625000D03*
D12*
X184150000Y-57785000D03*
D11*
X181610000Y-47625000D03*
D12*
X181610000Y-57785000D03*
D13*
X53975000Y-85725000D03*
D12*
X56515000Y-85725000D03*
X59055000Y-85725000D03*
X61595000Y-85725000D03*
X64135000Y-85725000D03*
X66675000Y-85725000D03*
X69215000Y-85725000D03*
X71755000Y-85725000D03*
X74295000Y-85725000D03*
X76835000Y-85725000D03*
X79375000Y-85725000D03*
X81915000Y-85725000D03*
X81915000Y-70485000D03*
X79375000Y-70485000D03*
X76835000Y-70485000D03*
X74295000Y-70485000D03*
X71755000Y-70485000D03*
X69215000Y-70485000D03*
X66675000Y-70485000D03*
X64135000Y-70485000D03*
X61595000Y-70485000D03*
X59055000Y-70485000D03*
X56515000Y-70485000D03*
X53975000Y-70485000D03*
D11*
X113030000Y-66675000D03*
D12*
X102870000Y-66675000D03*
D13*
X116840000Y-41275000D03*
D12*
X116840000Y-38735000D03*
X116840000Y-36195000D03*
X116840000Y-33655000D03*
X116840000Y-31115000D03*
X116840000Y-28575000D03*
X116840000Y-26035000D03*
X109220000Y-26035000D03*
X109220000Y-28575000D03*
X109220000Y-31115000D03*
X109220000Y-33655000D03*
X109220000Y-36195000D03*
X109220000Y-38735000D03*
X109220000Y-41275000D03*
D13*
X121920000Y-125730000D03*
D12*
X121920000Y-128270000D03*
X121920000Y-130810000D03*
X121920000Y-133350000D03*
X121920000Y-135890000D03*
X121920000Y-138430000D03*
X121920000Y-140970000D03*
X129540000Y-140970000D03*
X129540000Y-138430000D03*
X129540000Y-135890000D03*
X129540000Y-133350000D03*
X129540000Y-130810000D03*
X129540000Y-128270000D03*
X129540000Y-125730000D03*
D13*
X139700000Y-41275000D03*
D12*
X139700000Y-38735000D03*
X139700000Y-36195000D03*
X139700000Y-33655000D03*
X139700000Y-31115000D03*
X139700000Y-28575000D03*
X139700000Y-26035000D03*
X132080000Y-26035000D03*
X132080000Y-28575000D03*
X132080000Y-31115000D03*
X132080000Y-33655000D03*
X132080000Y-36195000D03*
X132080000Y-38735000D03*
X132080000Y-41275000D03*
D11*
X80645000Y-47625000D03*
D12*
X80645000Y-57785000D03*
D11*
X83185000Y-47625000D03*
D12*
X83185000Y-57785000D03*
D11*
X170815000Y-45720000D03*
X173315000Y-45720000D03*
X53975000Y-66675000D03*
D12*
X64135000Y-66675000D03*
D11*
X87630000Y-66675000D03*
D12*
X97790000Y-66675000D03*
D13*
X154940000Y-108585000D03*
D12*
X157480000Y-108585000D03*
X160020000Y-108585000D03*
X162560000Y-108585000D03*
X165100000Y-108585000D03*
X167640000Y-108585000D03*
X170180000Y-108585000D03*
X172720000Y-108585000D03*
X175260000Y-108585000D03*
X177800000Y-108585000D03*
X180340000Y-108585000D03*
X182880000Y-108585000D03*
X182880000Y-93345000D03*
X180340000Y-93345000D03*
X177800000Y-93345000D03*
X175260000Y-93345000D03*
X172720000Y-93345000D03*
X170180000Y-93345000D03*
X167640000Y-93345000D03*
X165100000Y-93345000D03*
X162560000Y-93345000D03*
X160020000Y-93345000D03*
X157480000Y-93345000D03*
X154940000Y-93345000D03*
D13*
X71755000Y-52705000D03*
D12*
X69215000Y-52705000D03*
X66675000Y-52705000D03*
X64135000Y-52705000D03*
X61595000Y-52705000D03*
X59055000Y-52705000D03*
X56515000Y-52705000D03*
X53975000Y-52705000D03*
X53975000Y-60325000D03*
X56515000Y-60325000D03*
X59055000Y-60325000D03*
X61595000Y-60325000D03*
X64135000Y-60325000D03*
X66675000Y-60325000D03*
X69215000Y-60325000D03*
X71755000Y-60325000D03*
D11*
X114300000Y-47625000D03*
D12*
X114300000Y-57785000D03*
D11*
X129540000Y-148590000D03*
X129540000Y-146090000D03*
D13*
X162550000Y-41232500D03*
D12*
X162550000Y-38692500D03*
X162550000Y-36152500D03*
X162550000Y-33612500D03*
X162550000Y-31072500D03*
X162550000Y-28532500D03*
X162550000Y-25992500D03*
X162550000Y-23452500D03*
X154930000Y-23452500D03*
X154930000Y-25992500D03*
X154930000Y-28532500D03*
X154930000Y-31072500D03*
X154930000Y-33612500D03*
X154930000Y-36152500D03*
X154930000Y-38692500D03*
X154930000Y-41232500D03*
D13*
X106045000Y-41275000D03*
D12*
X106045000Y-38735000D03*
X106045000Y-36195000D03*
X106045000Y-33655000D03*
X106045000Y-31115000D03*
X106045000Y-28575000D03*
X106045000Y-26035000D03*
X98425000Y-26035000D03*
X98425000Y-28575000D03*
X98425000Y-31115000D03*
X98425000Y-33655000D03*
X98425000Y-36195000D03*
X98425000Y-38735000D03*
X98425000Y-41275000D03*
D13*
X53975000Y-108585000D03*
D12*
X56515000Y-108585000D03*
X59055000Y-108585000D03*
X61595000Y-108585000D03*
X64135000Y-108585000D03*
X66675000Y-108585000D03*
X69215000Y-108585000D03*
X71755000Y-108585000D03*
X74295000Y-108585000D03*
X76835000Y-108585000D03*
X79375000Y-108585000D03*
X81915000Y-108585000D03*
X81915000Y-93345000D03*
X79375000Y-93345000D03*
X76835000Y-93345000D03*
X74295000Y-93345000D03*
X71755000Y-93345000D03*
X69215000Y-93345000D03*
X66675000Y-93345000D03*
X64135000Y-93345000D03*
X61595000Y-93345000D03*
X59055000Y-93345000D03*
X56515000Y-93345000D03*
X53975000Y-93345000D03*
D11*
X87630000Y-64135000D03*
D12*
X97790000Y-64135000D03*
D13*
X72390000Y-41275000D03*
D12*
X72390000Y-38735000D03*
X72390000Y-36195000D03*
X72390000Y-33655000D03*
X72390000Y-31115000D03*
X72390000Y-28575000D03*
X72390000Y-26035000D03*
X64770000Y-26035000D03*
X64770000Y-28575000D03*
X64770000Y-31115000D03*
X64770000Y-33655000D03*
X64770000Y-36195000D03*
X64770000Y-38735000D03*
X64770000Y-41275000D03*
D11*
X79375000Y-66675000D03*
D12*
X69215000Y-66675000D03*
D11*
X86000000Y-89535000D03*
X83500000Y-89535000D03*
X153670000Y-89535000D03*
X151170000Y-89535000D03*
X116840000Y-47625000D03*
D12*
X116840000Y-57785000D03*
D11*
X180340000Y-64135000D03*
D12*
X170180000Y-64135000D03*
D11*
X180340000Y-66675000D03*
D12*
X170180000Y-66675000D03*
D11*
X142875000Y-47625000D03*
D12*
X142875000Y-57785000D03*
D11*
X121285000Y-66675000D03*
D12*
X131445000Y-66675000D03*
D11*
X109220000Y-47625000D03*
D12*
X109220000Y-57785000D03*
D13*
X87630000Y-85725000D03*
D12*
X90170000Y-85725000D03*
X92710000Y-85725000D03*
X95250000Y-85725000D03*
X97790000Y-85725000D03*
X100330000Y-85725000D03*
X102870000Y-85725000D03*
X105410000Y-85725000D03*
X107950000Y-85725000D03*
X110490000Y-85725000D03*
X113030000Y-85725000D03*
X115570000Y-85725000D03*
X115570000Y-70485000D03*
X113030000Y-70485000D03*
X110490000Y-70485000D03*
X107950000Y-70485000D03*
X105410000Y-70485000D03*
X102870000Y-70485000D03*
X100330000Y-70485000D03*
X97790000Y-70485000D03*
X95250000Y-70485000D03*
X92710000Y-70485000D03*
X90170000Y-70485000D03*
X87630000Y-70485000D03*
D13*
X154945000Y-85725000D03*
D12*
X157485000Y-85725000D03*
X160025000Y-85725000D03*
X162565000Y-85725000D03*
X165105000Y-85725000D03*
X167645000Y-85725000D03*
X170185000Y-85725000D03*
X172725000Y-85725000D03*
X175265000Y-85725000D03*
X177805000Y-85725000D03*
X180345000Y-85725000D03*
X182885000Y-85725000D03*
X182885000Y-70485000D03*
X180345000Y-70485000D03*
X177805000Y-70485000D03*
X175265000Y-70485000D03*
X172725000Y-70485000D03*
X170185000Y-70485000D03*
X167645000Y-70485000D03*
X165105000Y-70485000D03*
X162565000Y-70485000D03*
X160025000Y-70485000D03*
X157485000Y-70485000D03*
X154945000Y-70485000D03*
D11*
X145415000Y-47625000D03*
D12*
X145415000Y-57785000D03*
D11*
X97790000Y-148590000D03*
X97790000Y-146090000D03*
D13*
X97790000Y-157480000D03*
D12*
X97790000Y-160020000D03*
X97790000Y-162560000D03*
X97790000Y-165100000D03*
X97790000Y-167640000D03*
X97790000Y-170180000D03*
X97790000Y-172720000D03*
X97790000Y-175260000D03*
X105410000Y-175260000D03*
X105410000Y-172720000D03*
X105410000Y-170180000D03*
X105410000Y-167640000D03*
X105410000Y-165100000D03*
X105410000Y-162560000D03*
X105410000Y-160020000D03*
X105410000Y-157480000D03*
D13*
X172720000Y-52705000D03*
D12*
X170180000Y-52705000D03*
X167640000Y-52705000D03*
X165100000Y-52705000D03*
X162560000Y-52705000D03*
X160020000Y-52705000D03*
X157480000Y-52705000D03*
X154940000Y-52705000D03*
X154940000Y-60325000D03*
X157480000Y-60325000D03*
X160020000Y-60325000D03*
X162560000Y-60325000D03*
X165100000Y-60325000D03*
X167640000Y-60325000D03*
X170180000Y-60325000D03*
X172720000Y-60325000D03*
D11*
X106680000Y-121920000D03*
X106680000Y-119420000D03*
X139700000Y-45720000D03*
X137200000Y-45720000D03*
D13*
X114300000Y-152400000D03*
D12*
X114300000Y-154940000D03*
X114300000Y-157480000D03*
X114300000Y-160020000D03*
X114300000Y-162560000D03*
X114300000Y-165100000D03*
X114300000Y-167640000D03*
X114300000Y-170180000D03*
X114300000Y-172720000D03*
X114300000Y-175260000D03*
X121920000Y-175260000D03*
X121920000Y-172720000D03*
X121920000Y-170180000D03*
X121920000Y-167640000D03*
X121920000Y-165100000D03*
X121920000Y-162560000D03*
X121920000Y-160020000D03*
X121920000Y-157480000D03*
X121920000Y-154940000D03*
X121920000Y-152400000D03*
D13*
X128905000Y-41275000D03*
D12*
X128905000Y-38735000D03*
X128905000Y-36195000D03*
X128905000Y-33655000D03*
X128905000Y-31115000D03*
X128905000Y-28575000D03*
X128905000Y-26035000D03*
X128905000Y-23495000D03*
X121285000Y-23495000D03*
X121285000Y-26035000D03*
X121285000Y-28575000D03*
X121285000Y-31115000D03*
X121285000Y-33655000D03*
X121285000Y-36195000D03*
X121285000Y-38735000D03*
X121285000Y-41275000D03*
D11*
X176530000Y-47582500D03*
D12*
X176530000Y-57742500D03*
D13*
X129540000Y-152400000D03*
D12*
X129540000Y-154940000D03*
X129540000Y-157480000D03*
X129540000Y-160020000D03*
X129540000Y-162560000D03*
X129540000Y-165100000D03*
X129540000Y-167640000D03*
X129540000Y-170180000D03*
X129540000Y-172720000D03*
X129540000Y-175260000D03*
X137160000Y-175260000D03*
X137160000Y-172720000D03*
X137160000Y-170180000D03*
X137160000Y-167640000D03*
X137160000Y-165100000D03*
X137160000Y-162560000D03*
X137160000Y-160020000D03*
X137160000Y-157480000D03*
X137160000Y-154940000D03*
X137160000Y-152400000D03*
D11*
X146685000Y-64135000D03*
D12*
X136525000Y-64135000D03*
D13*
X184140000Y-41237500D03*
D12*
X184140000Y-38697500D03*
X184140000Y-36157500D03*
X184140000Y-33617500D03*
X184140000Y-31077500D03*
X184140000Y-28537500D03*
X184140000Y-25997500D03*
X176520000Y-25997500D03*
X176520000Y-28537500D03*
X176520000Y-31077500D03*
X176520000Y-33617500D03*
X176520000Y-36157500D03*
X176520000Y-38697500D03*
X176520000Y-41237500D03*
D13*
X121285000Y-85725000D03*
D12*
X123825000Y-85725000D03*
X126365000Y-85725000D03*
X128905000Y-85725000D03*
X131445000Y-85725000D03*
X133985000Y-85725000D03*
X136525000Y-85725000D03*
X139065000Y-85725000D03*
X141605000Y-85725000D03*
X144145000Y-85725000D03*
X146685000Y-85725000D03*
X149225000Y-85725000D03*
X149225000Y-70485000D03*
X146685000Y-70485000D03*
X144145000Y-70485000D03*
X141605000Y-70485000D03*
X139065000Y-70485000D03*
X136525000Y-70485000D03*
X133985000Y-70485000D03*
X131445000Y-70485000D03*
X128905000Y-70485000D03*
X126365000Y-70485000D03*
X123825000Y-70485000D03*
X121285000Y-70485000D03*
D11*
X114300000Y-148590000D03*
X114300000Y-146090000D03*
D13*
X139065000Y-52705000D03*
D12*
X136525000Y-52705000D03*
X133985000Y-52705000D03*
X131445000Y-52705000D03*
X128905000Y-52705000D03*
X126365000Y-52705000D03*
X123825000Y-52705000D03*
X121285000Y-52705000D03*
X121285000Y-60325000D03*
X123825000Y-60325000D03*
X126365000Y-60325000D03*
X128905000Y-60325000D03*
X131445000Y-60325000D03*
X133985000Y-60325000D03*
X136525000Y-60325000D03*
X139065000Y-60325000D03*
D11*
X113030000Y-64135000D03*
D12*
X102870000Y-64135000D03*
D11*
X146685000Y-66675000D03*
D12*
X136525000Y-66675000D03*
D11*
X56475000Y-111760000D03*
X53975000Y-111760000D03*
D14*
X144665700Y-187960000D03*
X142125700Y-187960000D03*
X139585700Y-187960000D03*
X137045700Y-187960000D03*
X134505700Y-187960000D03*
X131965700Y-187960000D03*
X129425700Y-187960000D03*
X126885700Y-187960000D03*
X124345700Y-187960000D03*
X121805700Y-187960000D03*
X119265700Y-187960000D03*
X116725700Y-187960000D03*
X114185700Y-187960000D03*
X111645700Y-187960000D03*
X109105700Y-187960000D03*
X106565700Y-187960000D03*
X104025700Y-187960000D03*
X101485700Y-187960000D03*
X98945700Y-187960000D03*
X96405700Y-187960000D03*
X93865700Y-187960000D03*
X91325700Y-187960000D03*
D13*
X121285000Y-108585000D03*
D12*
X123825000Y-108585000D03*
X126365000Y-108585000D03*
X128905000Y-108585000D03*
X131445000Y-108585000D03*
X133985000Y-108585000D03*
X136525000Y-108585000D03*
X139065000Y-108585000D03*
X141605000Y-108585000D03*
X144145000Y-108585000D03*
X146685000Y-108585000D03*
X149225000Y-108585000D03*
X149225000Y-93345000D03*
X146685000Y-93345000D03*
X144145000Y-93345000D03*
X141605000Y-93345000D03*
X139065000Y-93345000D03*
X136525000Y-93345000D03*
X133985000Y-93345000D03*
X131445000Y-93345000D03*
X128905000Y-93345000D03*
X126365000Y-93345000D03*
X123825000Y-93345000D03*
X121285000Y-93345000D03*
D11*
X180360000Y-89535000D03*
X182860000Y-89535000D03*
D13*
X87630000Y-108585000D03*
D12*
X90170000Y-108585000D03*
X92710000Y-108585000D03*
X95250000Y-108585000D03*
X97790000Y-108585000D03*
X100330000Y-108585000D03*
X102870000Y-108585000D03*
X105410000Y-108585000D03*
X107950000Y-108585000D03*
X110490000Y-108585000D03*
X113030000Y-108585000D03*
X115570000Y-108585000D03*
X115570000Y-93345000D03*
X113030000Y-93345000D03*
X110490000Y-93345000D03*
X107950000Y-93345000D03*
X105410000Y-93345000D03*
X102870000Y-93345000D03*
X100330000Y-93345000D03*
X97790000Y-93345000D03*
X95250000Y-93345000D03*
X92710000Y-93345000D03*
X90170000Y-93345000D03*
X87630000Y-93345000D03*
D13*
X150495000Y-41275000D03*
D12*
X150495000Y-38735000D03*
X150495000Y-36195000D03*
X150495000Y-33655000D03*
X150495000Y-31115000D03*
X150495000Y-28575000D03*
X150495000Y-26035000D03*
X142875000Y-26035000D03*
X142875000Y-28575000D03*
X142875000Y-31115000D03*
X142875000Y-33655000D03*
X142875000Y-36195000D03*
X142875000Y-38735000D03*
X142875000Y-41275000D03*
D11*
X114300000Y-121920000D03*
X114300000Y-119420000D03*
X154940000Y-64135000D03*
D12*
X165100000Y-64135000D03*
D11*
X150495000Y-47625000D03*
D12*
X150495000Y-57785000D03*
D11*
X64750000Y-45720000D03*
X62250000Y-45720000D03*
X75565000Y-47625000D03*
D12*
X75565000Y-57785000D03*
D11*
X79375000Y-64135000D03*
D12*
X69215000Y-64135000D03*
D11*
X111760000Y-47625000D03*
D12*
X111760000Y-57785000D03*
D11*
X53975000Y-64135000D03*
D12*
X64135000Y-64135000D03*
D11*
X106025000Y-45720000D03*
X103525000Y-45720000D03*
D13*
X83185000Y-41275000D03*
D12*
X83185000Y-38735000D03*
X83185000Y-36195000D03*
X83185000Y-33655000D03*
X83185000Y-31115000D03*
X83185000Y-28575000D03*
X83185000Y-26035000D03*
X75565000Y-26035000D03*
X75565000Y-28575000D03*
X75565000Y-31115000D03*
X75565000Y-33655000D03*
X75565000Y-36195000D03*
X75565000Y-38735000D03*
X75565000Y-41275000D03*
D13*
X61595000Y-41275000D03*
D12*
X61595000Y-38735000D03*
X61595000Y-36195000D03*
X61595000Y-33655000D03*
X61595000Y-31115000D03*
X61595000Y-28575000D03*
X61595000Y-26035000D03*
X61595000Y-23495000D03*
X53975000Y-23495000D03*
X53975000Y-26035000D03*
X53975000Y-28575000D03*
X53975000Y-31115000D03*
X53975000Y-33655000D03*
X53975000Y-36195000D03*
X53975000Y-38735000D03*
X53975000Y-41275000D03*
D13*
X106680000Y-125730000D03*
D12*
X106680000Y-128270000D03*
X106680000Y-130810000D03*
X106680000Y-133350000D03*
X106680000Y-135890000D03*
X106680000Y-138430000D03*
X106680000Y-140970000D03*
X114300000Y-140970000D03*
X114300000Y-138430000D03*
X114300000Y-135890000D03*
X114300000Y-133350000D03*
X114300000Y-130810000D03*
X114300000Y-128270000D03*
X114300000Y-125730000D03*
D13*
X95250000Y-41275000D03*
D12*
X95250000Y-38735000D03*
X95250000Y-36195000D03*
X95250000Y-33655000D03*
X95250000Y-31115000D03*
X95250000Y-28575000D03*
X95250000Y-26035000D03*
X95250000Y-23495000D03*
X87630000Y-23495000D03*
X87630000Y-26035000D03*
X87630000Y-28575000D03*
X87630000Y-31115000D03*
X87630000Y-33655000D03*
X87630000Y-36195000D03*
X87630000Y-38735000D03*
X87630000Y-41275000D03*
D11*
X78105000Y-47625000D03*
D12*
X78105000Y-57785000D03*
D11*
X121285000Y-64135000D03*
D12*
X131445000Y-64135000D03*
D11*
X179070000Y-47625000D03*
D12*
X179070000Y-57785000D03*
D11*
X147955000Y-47625000D03*
D12*
X147955000Y-57785000D03*
D13*
X105410000Y-52705000D03*
D12*
X102870000Y-52705000D03*
X100330000Y-52705000D03*
X97790000Y-52705000D03*
X95250000Y-52705000D03*
X92710000Y-52705000D03*
X90170000Y-52705000D03*
X87630000Y-52705000D03*
X87630000Y-60325000D03*
X90170000Y-60325000D03*
X92710000Y-60325000D03*
X95250000Y-60325000D03*
X97790000Y-60325000D03*
X100330000Y-60325000D03*
X102870000Y-60325000D03*
X105410000Y-60325000D03*
D13*
X173335000Y-41237500D03*
D12*
X173335000Y-38697500D03*
X173335000Y-36157500D03*
X173335000Y-33617500D03*
X173335000Y-31077500D03*
X173335000Y-28537500D03*
X173335000Y-25997500D03*
X165715000Y-25997500D03*
X165715000Y-28537500D03*
X165715000Y-31077500D03*
X165715000Y-33617500D03*
X165715000Y-36157500D03*
X165715000Y-38697500D03*
X165715000Y-41237500D03*
M02*
