G04 #@! TF.GenerationSoftware,KiCad,Pcbnew,(6.0.4)*
G04 #@! TF.CreationDate,2022-12-31T00:25:53-05:00*
G04 #@! TF.ProjectId,intellivision t-card replic,696e7465-6c6c-4697-9669-73696f6e2074,rev?*
G04 #@! TF.SameCoordinates,Original*
G04 #@! TF.FileFunction,Soldermask,Bot*
G04 #@! TF.FilePolarity,Negative*
%FSLAX46Y46*%
G04 Gerber Fmt 4.6, Leading zero omitted, Abs format (unit mm)*
G04 Created by KiCad (PCBNEW (6.0.4)) date 2022-12-31 00:25:53*
%MOMM*%
%LPD*%
G01*
G04 APERTURE LIST*
%ADD10C,1.600000*%
%ADD11O,1.600000X1.600000*%
%ADD12C,3.200000*%
%ADD13R,1.600000X1.600000*%
%ADD14R,1.700000X1.700000*%
%ADD15O,1.700000X1.700000*%
G04 APERTURE END LIST*
D10*
X105405000Y-66082500D03*
D11*
X115565000Y-66082500D03*
D10*
X134615000Y-47032500D03*
D11*
X134615000Y-57192500D03*
D10*
X132075000Y-47032500D03*
D11*
X132075000Y-57192500D03*
D12*
X95250000Y-29210000D03*
X140335000Y-29210000D03*
D10*
X109240000Y-44450000D03*
X111740000Y-44450000D03*
D13*
X105405000Y-107992500D03*
D11*
X107945000Y-107992500D03*
X110485000Y-107992500D03*
X113025000Y-107992500D03*
X115565000Y-107992500D03*
X118105000Y-107992500D03*
X120645000Y-107992500D03*
X123185000Y-107992500D03*
X125725000Y-107992500D03*
X128265000Y-107992500D03*
X130805000Y-107992500D03*
X133345000Y-107992500D03*
X133345000Y-92752500D03*
X130805000Y-92752500D03*
X128265000Y-92752500D03*
X125725000Y-92752500D03*
X123185000Y-92752500D03*
X120645000Y-92752500D03*
X118105000Y-92752500D03*
X115565000Y-92752500D03*
X113025000Y-92752500D03*
X110485000Y-92752500D03*
X107945000Y-92752500D03*
X105405000Y-92752500D03*
D13*
X113015000Y-40640000D03*
D11*
X113015000Y-38100000D03*
X113015000Y-35560000D03*
X113015000Y-33020000D03*
X113015000Y-30480000D03*
X113015000Y-27940000D03*
X113015000Y-25400000D03*
X113015000Y-22860000D03*
X105395000Y-22860000D03*
X105395000Y-25400000D03*
X105395000Y-27940000D03*
X105395000Y-30480000D03*
X105395000Y-33020000D03*
X105395000Y-35560000D03*
X105395000Y-38100000D03*
X105395000Y-40640000D03*
D14*
X142240000Y-60960000D03*
D15*
X142240000Y-63500000D03*
X142240000Y-66040000D03*
X142240000Y-68580000D03*
X142240000Y-71120000D03*
X142240000Y-73660000D03*
X142240000Y-76200000D03*
X142240000Y-78740000D03*
X142240000Y-81280000D03*
X142240000Y-83820000D03*
X142240000Y-86360000D03*
X142240000Y-88900000D03*
X142240000Y-91440000D03*
X142240000Y-93980000D03*
X142240000Y-96520000D03*
X142240000Y-99060000D03*
X142240000Y-101600000D03*
X142240000Y-104140000D03*
X142240000Y-106680000D03*
X142240000Y-109220000D03*
D10*
X130805000Y-63542500D03*
D11*
X120645000Y-63542500D03*
D10*
X130805000Y-66082500D03*
D11*
X120645000Y-66082500D03*
D13*
X105410000Y-85132500D03*
D11*
X107950000Y-85132500D03*
X110490000Y-85132500D03*
X113030000Y-85132500D03*
X115570000Y-85132500D03*
X118110000Y-85132500D03*
X120650000Y-85132500D03*
X123190000Y-85132500D03*
X125730000Y-85132500D03*
X128270000Y-85132500D03*
X130810000Y-85132500D03*
X133350000Y-85132500D03*
X133350000Y-69892500D03*
X130810000Y-69892500D03*
X128270000Y-69892500D03*
X125730000Y-69892500D03*
X123190000Y-69892500D03*
X120650000Y-69892500D03*
X118110000Y-69892500D03*
X115570000Y-69892500D03*
X113030000Y-69892500D03*
X110490000Y-69892500D03*
X107950000Y-69892500D03*
X105410000Y-69892500D03*
D13*
X99017500Y-56525000D03*
D11*
X99017500Y-53985000D03*
X99017500Y-51445000D03*
X99017500Y-48905000D03*
X99017500Y-46365000D03*
X99017500Y-43825000D03*
X99017500Y-41285000D03*
X99017500Y-38745000D03*
X91397500Y-38745000D03*
X91397500Y-41285000D03*
X91397500Y-43825000D03*
X91397500Y-46365000D03*
X91397500Y-48905000D03*
X91397500Y-51445000D03*
X91397500Y-53985000D03*
X91397500Y-56525000D03*
D10*
X126995000Y-46990000D03*
D11*
X126995000Y-57150000D03*
D13*
X134605000Y-40645000D03*
D11*
X134605000Y-38105000D03*
X134605000Y-35565000D03*
X134605000Y-33025000D03*
X134605000Y-30485000D03*
X134605000Y-27945000D03*
X134605000Y-25405000D03*
X126985000Y-25405000D03*
X126985000Y-27945000D03*
X126985000Y-30485000D03*
X126985000Y-33025000D03*
X126985000Y-35565000D03*
X126985000Y-38105000D03*
X126985000Y-40645000D03*
D10*
X136485000Y-61595000D03*
X133985000Y-61595000D03*
D14*
X96520000Y-60960000D03*
D15*
X96520000Y-63500000D03*
X96520000Y-66040000D03*
X96520000Y-68580000D03*
X96520000Y-71120000D03*
X96520000Y-73660000D03*
X96520000Y-76200000D03*
X96520000Y-78740000D03*
X96520000Y-81280000D03*
X96520000Y-83820000D03*
X96520000Y-86360000D03*
X96520000Y-88900000D03*
X96520000Y-91440000D03*
X96520000Y-93980000D03*
X96520000Y-96520000D03*
X96520000Y-99060000D03*
X96520000Y-101600000D03*
X96520000Y-104140000D03*
X96520000Y-106680000D03*
X96520000Y-109220000D03*
D10*
X105405000Y-63542500D03*
D11*
X115565000Y-63542500D03*
D10*
X129535000Y-47032500D03*
D11*
X129535000Y-57192500D03*
D13*
X123800000Y-40645000D03*
D11*
X123800000Y-38105000D03*
X123800000Y-35565000D03*
X123800000Y-33025000D03*
X123800000Y-30485000D03*
X123800000Y-27945000D03*
X123800000Y-25405000D03*
X116180000Y-25405000D03*
X116180000Y-27945000D03*
X116180000Y-30485000D03*
X116180000Y-33025000D03*
X116180000Y-35565000D03*
X116180000Y-38105000D03*
X116180000Y-40645000D03*
M02*
