G04 #@! TF.GenerationSoftware,KiCad,Pcbnew,(6.0.4)*
G04 #@! TF.CreationDate,2022-12-31T00:25:52-05:00*
G04 #@! TF.ProjectId,intellivision t-card replic,696e7465-6c6c-4697-9669-73696f6e2074,rev?*
G04 #@! TF.SameCoordinates,Original*
G04 #@! TF.FileFunction,Copper,L2,Bot*
G04 #@! TF.FilePolarity,Positive*
%FSLAX46Y46*%
G04 Gerber Fmt 4.6, Leading zero omitted, Abs format (unit mm)*
G04 Created by KiCad (PCBNEW (6.0.4)) date 2022-12-31 00:25:52*
%MOMM*%
%LPD*%
G01*
G04 APERTURE LIST*
G04 #@! TA.AperFunction,ComponentPad*
%ADD10C,1.600000*%
G04 #@! TD*
G04 #@! TA.AperFunction,ComponentPad*
%ADD11O,1.600000X1.600000*%
G04 #@! TD*
G04 #@! TA.AperFunction,ComponentPad*
%ADD12R,1.600000X1.600000*%
G04 #@! TD*
G04 #@! TA.AperFunction,ComponentPad*
%ADD13R,1.700000X1.700000*%
G04 #@! TD*
G04 #@! TA.AperFunction,ComponentPad*
%ADD14O,1.700000X1.700000*%
G04 #@! TD*
G04 #@! TA.AperFunction,ViaPad*
%ADD15C,0.800000*%
G04 #@! TD*
G04 #@! TA.AperFunction,Conductor*
%ADD16C,1.000000*%
G04 #@! TD*
G04 #@! TA.AperFunction,Conductor*
%ADD17C,0.250000*%
G04 #@! TD*
G04 APERTURE END LIST*
D10*
X105405000Y-66082500D03*
D11*
X115565000Y-66082500D03*
D10*
X134615000Y-47032500D03*
D11*
X134615000Y-57192500D03*
D10*
X132075000Y-47032500D03*
D11*
X132075000Y-57192500D03*
D10*
X109240000Y-44450000D03*
X111740000Y-44450000D03*
D12*
X105405000Y-107992500D03*
D11*
X107945000Y-107992500D03*
X110485000Y-107992500D03*
X113025000Y-107992500D03*
X115565000Y-107992500D03*
X118105000Y-107992500D03*
X120645000Y-107992500D03*
X123185000Y-107992500D03*
X125725000Y-107992500D03*
X128265000Y-107992500D03*
X130805000Y-107992500D03*
X133345000Y-107992500D03*
X133345000Y-92752500D03*
X130805000Y-92752500D03*
X128265000Y-92752500D03*
X125725000Y-92752500D03*
X123185000Y-92752500D03*
X120645000Y-92752500D03*
X118105000Y-92752500D03*
X115565000Y-92752500D03*
X113025000Y-92752500D03*
X110485000Y-92752500D03*
X107945000Y-92752500D03*
X105405000Y-92752500D03*
D12*
X113015000Y-40640000D03*
D11*
X113015000Y-38100000D03*
X113015000Y-35560000D03*
X113015000Y-33020000D03*
X113015000Y-30480000D03*
X113015000Y-27940000D03*
X113015000Y-25400000D03*
X113015000Y-22860000D03*
X105395000Y-22860000D03*
X105395000Y-25400000D03*
X105395000Y-27940000D03*
X105395000Y-30480000D03*
X105395000Y-33020000D03*
X105395000Y-35560000D03*
X105395000Y-38100000D03*
X105395000Y-40640000D03*
D13*
X142240000Y-60960000D03*
D14*
X142240000Y-63500000D03*
X142240000Y-66040000D03*
X142240000Y-68580000D03*
X142240000Y-71120000D03*
X142240000Y-73660000D03*
X142240000Y-76200000D03*
X142240000Y-78740000D03*
X142240000Y-81280000D03*
X142240000Y-83820000D03*
X142240000Y-86360000D03*
X142240000Y-88900000D03*
X142240000Y-91440000D03*
X142240000Y-93980000D03*
X142240000Y-96520000D03*
X142240000Y-99060000D03*
X142240000Y-101600000D03*
X142240000Y-104140000D03*
X142240000Y-106680000D03*
X142240000Y-109220000D03*
D10*
X130805000Y-63542500D03*
D11*
X120645000Y-63542500D03*
D10*
X130805000Y-66082500D03*
D11*
X120645000Y-66082500D03*
D12*
X105410000Y-85132500D03*
D11*
X107950000Y-85132500D03*
X110490000Y-85132500D03*
X113030000Y-85132500D03*
X115570000Y-85132500D03*
X118110000Y-85132500D03*
X120650000Y-85132500D03*
X123190000Y-85132500D03*
X125730000Y-85132500D03*
X128270000Y-85132500D03*
X130810000Y-85132500D03*
X133350000Y-85132500D03*
X133350000Y-69892500D03*
X130810000Y-69892500D03*
X128270000Y-69892500D03*
X125730000Y-69892500D03*
X123190000Y-69892500D03*
X120650000Y-69892500D03*
X118110000Y-69892500D03*
X115570000Y-69892500D03*
X113030000Y-69892500D03*
X110490000Y-69892500D03*
X107950000Y-69892500D03*
X105410000Y-69892500D03*
D12*
X99017500Y-56525000D03*
D11*
X99017500Y-53985000D03*
X99017500Y-51445000D03*
X99017500Y-48905000D03*
X99017500Y-46365000D03*
X99017500Y-43825000D03*
X99017500Y-41285000D03*
X99017500Y-38745000D03*
X91397500Y-38745000D03*
X91397500Y-41285000D03*
X91397500Y-43825000D03*
X91397500Y-46365000D03*
X91397500Y-48905000D03*
X91397500Y-51445000D03*
X91397500Y-53985000D03*
X91397500Y-56525000D03*
D10*
X126995000Y-46990000D03*
D11*
X126995000Y-57150000D03*
D12*
X134605000Y-40645000D03*
D11*
X134605000Y-38105000D03*
X134605000Y-35565000D03*
X134605000Y-33025000D03*
X134605000Y-30485000D03*
X134605000Y-27945000D03*
X134605000Y-25405000D03*
X126985000Y-25405000D03*
X126985000Y-27945000D03*
X126985000Y-30485000D03*
X126985000Y-33025000D03*
X126985000Y-35565000D03*
X126985000Y-38105000D03*
X126985000Y-40645000D03*
D10*
X136485000Y-61595000D03*
X133985000Y-61595000D03*
D13*
X96520000Y-60960000D03*
D14*
X96520000Y-63500000D03*
X96520000Y-66040000D03*
X96520000Y-68580000D03*
X96520000Y-71120000D03*
X96520000Y-73660000D03*
X96520000Y-76200000D03*
X96520000Y-78740000D03*
X96520000Y-81280000D03*
X96520000Y-83820000D03*
X96520000Y-86360000D03*
X96520000Y-88900000D03*
X96520000Y-91440000D03*
X96520000Y-93980000D03*
X96520000Y-96520000D03*
X96520000Y-99060000D03*
X96520000Y-101600000D03*
X96520000Y-104140000D03*
X96520000Y-106680000D03*
X96520000Y-109220000D03*
D10*
X105405000Y-63542500D03*
D11*
X115565000Y-63542500D03*
D10*
X129535000Y-47032500D03*
D11*
X129535000Y-57192500D03*
D12*
X123800000Y-40645000D03*
D11*
X123800000Y-38105000D03*
X123800000Y-35565000D03*
X123800000Y-33025000D03*
X123800000Y-30485000D03*
X123800000Y-27945000D03*
X123800000Y-25405000D03*
X116180000Y-25405000D03*
X116180000Y-27945000D03*
X116180000Y-30485000D03*
X116180000Y-33025000D03*
X116180000Y-35565000D03*
X116180000Y-38105000D03*
X116180000Y-40645000D03*
D15*
X103505000Y-60960000D03*
X137160000Y-109855000D03*
X99060000Y-109855000D03*
X121920000Y-78740000D03*
X127000000Y-88900000D03*
X124460000Y-77470000D03*
X129540000Y-90170000D03*
X127000000Y-76200000D03*
X132080000Y-91440000D03*
X130810000Y-74930000D03*
X133350000Y-73660000D03*
X130805000Y-94657500D03*
X128265000Y-95927500D03*
X132080000Y-71120000D03*
X125725000Y-97197500D03*
X129540000Y-68580000D03*
X127000000Y-67310000D03*
X123185000Y-98467500D03*
X114300000Y-54610000D03*
X119380000Y-53340000D03*
X116840000Y-52070000D03*
X109220000Y-48260000D03*
X109069511Y-50697011D03*
X106680000Y-57150000D03*
X113030000Y-57150000D03*
X106680000Y-82550000D03*
X102596920Y-30841920D03*
X109220000Y-86995000D03*
X118110000Y-88265000D03*
X101740489Y-34149511D03*
X124460000Y-71755000D03*
X113030000Y-77470000D03*
X121920000Y-73660000D03*
X110490000Y-78740000D03*
X119380000Y-74930000D03*
X107950000Y-80010000D03*
X115570000Y-76200000D03*
X105410000Y-81280000D03*
X101454511Y-31895489D03*
X136525000Y-39370000D03*
X129540000Y-34925000D03*
X124455000Y-64775000D03*
X113030000Y-67310000D03*
X130810000Y-26670000D03*
X117475000Y-36830000D03*
D16*
X103500000Y-63542500D02*
X103500000Y-50842500D01*
X105405000Y-90212500D02*
X104135000Y-88942500D01*
X103500000Y-66082500D02*
X103500000Y-69257500D01*
X145415000Y-106045000D02*
X145415000Y-108236341D01*
X136520000Y-52065000D02*
X136520000Y-59060000D01*
X134615000Y-50160000D02*
X134615000Y-47032500D01*
X105405000Y-63542500D02*
X105405000Y-66082500D01*
X103500000Y-88307500D02*
X104135000Y-88942500D01*
X105405000Y-66082500D02*
X103500000Y-66082500D01*
X145415000Y-108236341D02*
X142526341Y-111125000D01*
X138430000Y-111125000D02*
X137160000Y-109855000D01*
X103500000Y-69257500D02*
X103500000Y-88307500D01*
X104770000Y-49572500D02*
X104770000Y-41265000D01*
X105405000Y-63542500D02*
X103500000Y-63542500D01*
X103500000Y-50842500D02*
X104770000Y-49572500D01*
X96520000Y-60960000D02*
X92710000Y-60960000D01*
X136520000Y-61560000D02*
X136485000Y-61595000D01*
X145415000Y-62865000D02*
X145415000Y-106045000D01*
X105405000Y-92752500D02*
X105405000Y-90212500D01*
X104770000Y-41265000D02*
X105395000Y-40640000D01*
X136520000Y-52065000D02*
X134615000Y-50160000D01*
X103500000Y-69257500D02*
X103500000Y-69892500D01*
X126995000Y-40655000D02*
X126985000Y-40645000D01*
X103500000Y-69892500D02*
X105410000Y-69892500D01*
X142240000Y-60960000D02*
X143510000Y-60960000D01*
X103500000Y-63542500D02*
X103500000Y-66082500D01*
X126995000Y-46990000D02*
X126995000Y-40655000D01*
X97790000Y-111125000D02*
X94615000Y-111125000D01*
X130805000Y-63542500D02*
X130805000Y-66082500D01*
X136520000Y-59060000D02*
X136520000Y-61560000D01*
X94615000Y-111125000D02*
X92710000Y-109220000D01*
X143510000Y-60960000D02*
X145415000Y-62865000D01*
X99060000Y-109855000D02*
X97790000Y-111125000D01*
X142526341Y-111125000D02*
X138430000Y-111125000D01*
X111515489Y-44225489D02*
X111740000Y-44450000D01*
X113015000Y-38100000D02*
X111712500Y-38100000D01*
X113015000Y-33020000D02*
X111162500Y-33020000D01*
X111120000Y-33062500D02*
X111120000Y-37507500D01*
X133985000Y-64135000D02*
X133985000Y-61595000D01*
X111712500Y-38100000D02*
X111120000Y-37507500D01*
X133350000Y-85132500D02*
X133350000Y-77470000D01*
X111515489Y-38468141D02*
X111515489Y-44225489D01*
X113015000Y-22860000D02*
X111162500Y-22860000D01*
X135250000Y-75570000D02*
X135250000Y-65400000D01*
X135250000Y-65400000D02*
X133985000Y-64135000D01*
X113015000Y-38100000D02*
X111883630Y-38100000D01*
X111162500Y-22860000D02*
X111120000Y-22902500D01*
X111883630Y-38100000D02*
X111515489Y-38468141D01*
X111120000Y-22902500D02*
X111120000Y-33062500D01*
X133350000Y-77470000D02*
X135250000Y-75570000D01*
X111162500Y-33020000D02*
X111120000Y-33062500D01*
D17*
X121920000Y-76200000D02*
X123190000Y-74930000D01*
X123190000Y-74930000D02*
X123190000Y-69892500D01*
X121920000Y-78740000D02*
X121920000Y-76200000D01*
X125725000Y-101605000D02*
X127000000Y-100330000D01*
X125725000Y-107992500D02*
X125725000Y-101605000D01*
X127000000Y-100330000D02*
X127000000Y-88900000D01*
X125730000Y-74930000D02*
X124460000Y-76200000D01*
X125730000Y-69892500D02*
X125730000Y-74930000D01*
X124460000Y-77470000D02*
X124460000Y-76200000D01*
X128265000Y-101605000D02*
X129540000Y-100330000D01*
X129540000Y-100330000D02*
X129540000Y-90170000D01*
X128265000Y-107992500D02*
X128265000Y-101605000D01*
X128270000Y-74930000D02*
X127000000Y-76200000D01*
X128270000Y-69892500D02*
X128270000Y-74930000D01*
X130805000Y-101605000D02*
X132080000Y-100330000D01*
X132080000Y-100330000D02*
X132080000Y-91440000D01*
X130805000Y-107992500D02*
X130805000Y-101605000D01*
X130810000Y-69892500D02*
X130810000Y-74930000D01*
X133350000Y-69892500D02*
X133350000Y-73660000D01*
X130805000Y-92752500D02*
X130805000Y-94657500D01*
X128265000Y-92752500D02*
X128265000Y-95927500D01*
X130810000Y-76200000D02*
X132080000Y-74930000D01*
X132080000Y-74930000D02*
X132080000Y-71120000D01*
X130810000Y-85132500D02*
X130810000Y-76200000D01*
X125725000Y-92752500D02*
X125725000Y-97197500D01*
X129540000Y-74930000D02*
X129540000Y-68580000D01*
X128270000Y-76200000D02*
X129540000Y-74930000D01*
X128270000Y-85132500D02*
X128270000Y-76200000D01*
X127000000Y-74930000D02*
X127000000Y-67310000D01*
X125730000Y-76200000D02*
X127000000Y-74930000D01*
X125730000Y-85132500D02*
X125730000Y-76200000D01*
X123185000Y-92752500D02*
X123185000Y-98467500D01*
X114300000Y-54610000D02*
X114300000Y-54022500D01*
X113015000Y-35560000D02*
X114295000Y-36840000D01*
X114300000Y-54022500D02*
X114295000Y-54017500D01*
X114295000Y-36840000D02*
X114295000Y-54017500D01*
X120645000Y-54605000D02*
X120645000Y-63542500D01*
X120645000Y-54605000D02*
X119380000Y-53340000D01*
X119380000Y-49530000D02*
X119380000Y-29210000D01*
X120967500Y-27622500D02*
X121285000Y-27305000D01*
X120645000Y-27945000D02*
X120967500Y-27622500D01*
X128265000Y-24760000D02*
X127247500Y-23742500D01*
X119380000Y-29210000D02*
X120967500Y-27622500D01*
X127247500Y-23742500D02*
X122802500Y-23742500D01*
X116180000Y-27945000D02*
X120645000Y-27945000D01*
X122802500Y-23742500D02*
X121285000Y-25260000D01*
X128265000Y-30447500D02*
X128265000Y-24760000D01*
X128227500Y-30485000D02*
X128265000Y-30447500D01*
X121285000Y-25260000D02*
X121285000Y-27305000D01*
X119380000Y-53340000D02*
X119380000Y-49530000D01*
X126985000Y-30485000D02*
X128227500Y-30485000D01*
X116980489Y-53527989D02*
X116980489Y-52210489D01*
X114930000Y-38142500D02*
X114930000Y-48265000D01*
X116980489Y-66052989D02*
X117010000Y-66082500D01*
X114967500Y-30485000D02*
X114930000Y-30522500D01*
X114930000Y-50160000D02*
X114930000Y-48265000D01*
X116180000Y-38105000D02*
X114967500Y-38105000D01*
X114930000Y-30522500D02*
X114930000Y-35602500D01*
X114967500Y-38105000D02*
X114930000Y-38142500D01*
X116180000Y-35565000D02*
X114967500Y-35565000D01*
X117010000Y-66082500D02*
X120645000Y-66082500D01*
X116980489Y-52210489D02*
X116840000Y-52070000D01*
X116980489Y-53527989D02*
X116980489Y-66052989D01*
X114930000Y-35602500D02*
X114930000Y-38142500D01*
X114967500Y-35565000D02*
X114930000Y-35602500D01*
X116180000Y-30485000D02*
X114967500Y-30485000D01*
X116840000Y-52070000D02*
X114930000Y-50160000D01*
X115565000Y-63542500D02*
X111859022Y-63542500D01*
X107663551Y-46068551D02*
X107663551Y-25128551D01*
X111609511Y-50649511D02*
X109220000Y-48260000D01*
X109220000Y-48260000D02*
X107663551Y-46703551D01*
X111609511Y-63292989D02*
X111609511Y-50649511D01*
X107663551Y-46703551D02*
X107663551Y-46068551D01*
X107663551Y-46751051D02*
X107663551Y-46068551D01*
X111859022Y-63542500D02*
X111609511Y-63292989D01*
X107663551Y-25128551D02*
X105395000Y-22860000D01*
X115565000Y-66082500D02*
X109185000Y-66082500D01*
X109185000Y-66082500D02*
X109069511Y-65967011D01*
X109069511Y-50697011D02*
X107214031Y-48841531D01*
X109069511Y-65967011D02*
X109069511Y-50697011D01*
X107214031Y-48841531D02*
X107214031Y-29759031D01*
X107214031Y-29759031D02*
X105395000Y-27940000D01*
X106764511Y-57065489D02*
X106680000Y-57150000D01*
X105395000Y-35560000D02*
X106764511Y-36929511D01*
X106764511Y-36929511D02*
X106764511Y-57065489D01*
X113015000Y-45752500D02*
X113030000Y-45767500D01*
X113030000Y-45767500D02*
X113030000Y-57150000D01*
X113015000Y-40640000D02*
X113015000Y-45752500D01*
X107945000Y-74972500D02*
X106675000Y-76242500D01*
X106675000Y-76242500D02*
X106675000Y-87037500D01*
X107945000Y-88307500D02*
X107945000Y-92752500D01*
X106675000Y-87037500D02*
X107945000Y-88307500D01*
X107950000Y-74967500D02*
X107945000Y-74972500D01*
X107950000Y-69892500D02*
X107950000Y-74967500D01*
X102596920Y-46990000D02*
X101326920Y-48260000D01*
X101326920Y-48260000D02*
X101326920Y-91713080D01*
X102596920Y-30841920D02*
X102596920Y-46990000D01*
X101326920Y-91713080D02*
X96520000Y-96520000D01*
X110490000Y-74930000D02*
X109215000Y-76205000D01*
X110490000Y-69892500D02*
X110490000Y-74930000D01*
X109215000Y-76205000D02*
X109215000Y-87037500D01*
X109215000Y-87037500D02*
X110485000Y-88307500D01*
X110485000Y-88307500D02*
X110485000Y-92752500D01*
X105395000Y-30480000D02*
X103046440Y-32828560D01*
X101776440Y-48718560D02*
X101776440Y-93803560D01*
X103046440Y-32828560D02*
X103046440Y-47448560D01*
X103046440Y-47448560D02*
X101776440Y-48718560D01*
X101776440Y-93803560D02*
X96520000Y-99060000D01*
X118110000Y-69892500D02*
X118110000Y-74967500D01*
X116835000Y-76242500D02*
X116835000Y-87037500D01*
X118105000Y-88307500D02*
X118105000Y-92752500D01*
X116835000Y-87037500D02*
X118105000Y-88307500D01*
X118110000Y-74967500D02*
X116835000Y-76242500D01*
X102225960Y-95894040D02*
X96520000Y-101600000D01*
X103495960Y-48260000D02*
X102225960Y-49530000D01*
X105395000Y-33020000D02*
X103495960Y-34919040D01*
X103495960Y-34919040D02*
X103495960Y-48260000D01*
X102225960Y-49530000D02*
X102225960Y-95894040D01*
X102147400Y-46442600D02*
X100877400Y-47712600D01*
X100877400Y-89622600D02*
X96520000Y-93980000D01*
X101740489Y-34149511D02*
X102147400Y-34556422D01*
X100877400Y-47712600D02*
X100877400Y-89622600D01*
X102147400Y-34556422D02*
X102147400Y-46442600D01*
X102675480Y-50165000D02*
X102675480Y-97984520D01*
X103945480Y-39549520D02*
X103945480Y-48895000D01*
X102675480Y-97984520D02*
X96520000Y-104140000D01*
X105395000Y-38100000D02*
X103945480Y-39549520D01*
X103945480Y-48895000D02*
X102675480Y-50165000D01*
X123190000Y-76200000D02*
X124460000Y-74930000D01*
X123185000Y-107992500D02*
X123185000Y-101642500D01*
X124460000Y-74930000D02*
X124460000Y-71755000D01*
X124309511Y-100517989D02*
X124309511Y-87479511D01*
X124309511Y-87479511D02*
X123190000Y-86360000D01*
X123185000Y-101642500D02*
X124309511Y-100517989D01*
X123190000Y-85132500D02*
X123190000Y-76200000D01*
X123190000Y-86360000D02*
X123190000Y-85132500D01*
X113030000Y-87042500D02*
X114295000Y-88307500D01*
X113030000Y-81327500D02*
X113025000Y-81322500D01*
X114295000Y-88307500D02*
X114295000Y-99737500D01*
X113030000Y-85132500D02*
X113030000Y-87042500D01*
X113025000Y-81322500D02*
X113025000Y-77475000D01*
X113025000Y-101007500D02*
X113025000Y-107992500D01*
X114295000Y-99737500D02*
X113025000Y-101007500D01*
X113025000Y-77475000D02*
X113030000Y-77470000D01*
X113030000Y-85132500D02*
X113030000Y-81327500D01*
X121915000Y-99737500D02*
X121915000Y-87672500D01*
X120645000Y-101007500D02*
X121915000Y-99737500D01*
X121920000Y-74930000D02*
X121920000Y-73660000D01*
X121915000Y-87672500D02*
X120650000Y-86407500D01*
X120650000Y-76200000D02*
X121920000Y-74930000D01*
X120645000Y-107992500D02*
X120645000Y-101007500D01*
X120650000Y-85132500D02*
X120650000Y-76200000D01*
X120650000Y-86407500D02*
X120650000Y-85132500D01*
X110490000Y-80692500D02*
X110490000Y-78740000D01*
X110490000Y-85132500D02*
X110490000Y-87042500D01*
X111755000Y-88307500D02*
X111755000Y-99737500D01*
X110490000Y-87042500D02*
X111755000Y-88307500D01*
X110490000Y-85132500D02*
X110490000Y-80692500D01*
X111755000Y-99737500D02*
X110485000Y-101007500D01*
X110485000Y-101007500D02*
X110485000Y-107992500D01*
X119375000Y-99737500D02*
X118105000Y-101007500D01*
X118110000Y-85132500D02*
X118110000Y-83232500D01*
X118110000Y-83232500D02*
X118110000Y-76200000D01*
X118110000Y-85132500D02*
X118110000Y-87042500D01*
X118105000Y-101007500D02*
X118105000Y-107992500D01*
X118110000Y-87042500D02*
X119375000Y-88307500D01*
X119375000Y-88307500D02*
X119375000Y-99737500D01*
X118110000Y-76200000D02*
X119380000Y-74930000D01*
X107945000Y-101007500D02*
X107945000Y-107992500D01*
X107950000Y-85132500D02*
X107950000Y-87042500D01*
X109215000Y-88307500D02*
X109215000Y-99737500D01*
X109215000Y-99737500D02*
X107945000Y-101007500D01*
X107950000Y-85132500D02*
X107950000Y-80010000D01*
X107950000Y-87042500D02*
X109215000Y-88307500D01*
X115570000Y-81962500D02*
X115570000Y-76200000D01*
X115565000Y-100960000D02*
X116835000Y-99690000D01*
X115570000Y-85132500D02*
X115570000Y-81962500D01*
X116835000Y-99690000D02*
X116835000Y-88307500D01*
X115565000Y-107992500D02*
X115565000Y-100960000D01*
X115570000Y-87042500D02*
X115570000Y-85132500D01*
X116835000Y-88307500D02*
X115570000Y-87042500D01*
X106820489Y-99592011D02*
X105405000Y-101007500D01*
X105410000Y-85132500D02*
X105410000Y-87042500D01*
X105410000Y-87042500D02*
X106820489Y-88452989D01*
X105410000Y-85132500D02*
X105410000Y-81280000D01*
X106820489Y-88452989D02*
X106820489Y-99592011D01*
X105405000Y-101007500D02*
X105405000Y-107992500D01*
X97694511Y-62325489D02*
X97694511Y-35020489D01*
X97694511Y-35020489D02*
X100819511Y-31895489D01*
X100819511Y-31895489D02*
X101454511Y-31895489D01*
X97694511Y-62325489D02*
X96520000Y-63500000D01*
X115570000Y-69892500D02*
X115570000Y-74967500D01*
X114295000Y-87037500D02*
X115565000Y-88307500D01*
X115565000Y-88307500D02*
X115565000Y-92752500D01*
X114295000Y-76242500D02*
X114295000Y-87037500D01*
X115570000Y-74967500D02*
X114295000Y-76242500D01*
X135890000Y-34925000D02*
X136525000Y-35560000D01*
X134605000Y-27945000D02*
X135890000Y-29230000D01*
X123800000Y-38105000D02*
X123800000Y-40645000D01*
X135890000Y-29230000D02*
X135890000Y-34925000D01*
X136525000Y-39370000D02*
X136525000Y-35560000D01*
X121915000Y-68627500D02*
X120650000Y-69892500D01*
X120645000Y-88307500D02*
X120645000Y-92752500D01*
X119375000Y-87037500D02*
X120645000Y-88307500D01*
X120650000Y-69892500D02*
X120650000Y-74967500D01*
X121915000Y-28239700D02*
X121915000Y-68627500D01*
X125677500Y-26712500D02*
X123442200Y-26712500D01*
X120650000Y-74967500D02*
X119375000Y-76242500D01*
X123442200Y-26712500D02*
X121915000Y-28239700D01*
X126985000Y-25405000D02*
X125677500Y-26712500D01*
X119375000Y-76242500D02*
X119375000Y-87037500D01*
X113030000Y-72554500D02*
X113030000Y-74967500D01*
X128265000Y-45090000D02*
X129540000Y-43815000D01*
X111755000Y-87037500D02*
X113025000Y-88307500D01*
X113030000Y-67310000D02*
X113030000Y-69892500D01*
X128265000Y-60367500D02*
X128265000Y-46360000D01*
X129540000Y-34925000D02*
X129540000Y-43815000D01*
X111755000Y-76242500D02*
X111755000Y-87037500D01*
X128265000Y-45725000D02*
X128265000Y-45381500D01*
X124455000Y-64177500D02*
X128265000Y-60367500D01*
X113030000Y-74967500D02*
X111755000Y-76242500D01*
X128265000Y-46360000D02*
X128265000Y-45725000D01*
X113030000Y-69892500D02*
X113030000Y-72554500D01*
X113025000Y-88307500D02*
X113025000Y-92752500D01*
X124455000Y-64775000D02*
X124455000Y-64177500D01*
X128265000Y-46360000D02*
X128265000Y-45090000D01*
X137795000Y-35560000D02*
X136525000Y-34290000D01*
X136525000Y-34290000D02*
X136525000Y-28274700D01*
X134605000Y-40645000D02*
X136274614Y-40645000D01*
X134920300Y-26670000D02*
X130810000Y-26670000D01*
X136525000Y-28274700D02*
X134920300Y-26670000D01*
X136274614Y-40645000D02*
X137795000Y-39124614D01*
X137795000Y-39124614D02*
X137795000Y-35560000D01*
X125090000Y-33670000D02*
X126985000Y-35565000D01*
X125090000Y-29840000D02*
X125090000Y-33670000D01*
X126985000Y-27945000D02*
X125090000Y-29840000D01*
X117475000Y-34320000D02*
X116180000Y-33025000D01*
X117475000Y-36830000D02*
X117475000Y-34320000D01*
X127602500Y-22827500D02*
X118757500Y-22827500D01*
X126985000Y-38105000D02*
X128122500Y-38105000D01*
X129535000Y-31110000D02*
X129535000Y-24770000D01*
X128122500Y-38105000D02*
X128330000Y-37897500D01*
X127602500Y-22837500D02*
X127602500Y-22827500D01*
X128330000Y-37897500D02*
X128330000Y-32315000D01*
X118757500Y-22827500D02*
X116180000Y-25405000D01*
X129535000Y-24770000D02*
X127602500Y-22837500D01*
X128330000Y-32315000D02*
X129535000Y-31110000D01*
G04 #@! TA.AperFunction,Conductor*
G36*
X93922121Y-59456002D02*
G01*
X93968614Y-59509658D01*
X93980000Y-59562000D01*
X93980000Y-112642831D01*
X93959998Y-112710952D01*
X93906342Y-112757445D01*
X93836068Y-112767549D01*
X93803614Y-112758318D01*
X93573411Y-112657883D01*
X93564921Y-112653795D01*
X93145041Y-112431882D01*
X93136888Y-112427175D01*
X92734748Y-112174495D01*
X92727002Y-112169213D01*
X92344887Y-111887199D01*
X92337532Y-111881334D01*
X91977554Y-111571548D01*
X91970647Y-111565139D01*
X91634861Y-111229353D01*
X91628452Y-111222446D01*
X91318666Y-110862468D01*
X91312801Y-110855113D01*
X91030787Y-110472998D01*
X91025505Y-110465252D01*
X90772825Y-110063112D01*
X90768118Y-110054959D01*
X90546205Y-109635079D01*
X90542117Y-109626589D01*
X90352211Y-109191315D01*
X90348769Y-109182544D01*
X90191925Y-108734305D01*
X90189147Y-108725301D01*
X90173174Y-108665687D01*
X90066227Y-108266551D01*
X90064137Y-108257391D01*
X89975850Y-107790770D01*
X89974446Y-107781461D01*
X89921276Y-107309536D01*
X89920572Y-107300140D01*
X89904289Y-106864918D01*
X89905702Y-106840817D01*
X89906451Y-106836009D01*
X89906451Y-106836007D01*
X89907832Y-106827138D01*
X89906668Y-106818235D01*
X89906668Y-106818230D01*
X89903705Y-106795568D01*
X89902641Y-106779232D01*
X89902641Y-59562000D01*
X89922643Y-59493879D01*
X89976299Y-59447386D01*
X90028641Y-59436000D01*
X93854000Y-59436000D01*
X93922121Y-59456002D01*
G37*
G04 #@! TD.AperFunction*
M02*
