G04 #@! TF.GenerationSoftware,KiCad,Pcbnew,(6.0.4)*
G04 #@! TF.CreationDate,2022-12-31T00:25:52-05:00*
G04 #@! TF.ProjectId,intellivision t-card replic,696e7465-6c6c-4697-9669-73696f6e2074,rev?*
G04 #@! TF.SameCoordinates,Original*
G04 #@! TF.FileFunction,Legend,Top*
G04 #@! TF.FilePolarity,Positive*
%FSLAX46Y46*%
G04 Gerber Fmt 4.6, Leading zero omitted, Abs format (unit mm)*
G04 Created by KiCad (PCBNEW (6.0.4)) date 2022-12-31 00:25:52*
%MOMM*%
%LPD*%
G01*
G04 APERTURE LIST*
%ADD10C,0.150000*%
%ADD11C,0.200000*%
%ADD12C,0.120000*%
%ADD13C,1.600000*%
%ADD14O,1.600000X1.600000*%
%ADD15C,3.200000*%
%ADD16R,1.600000X1.600000*%
%ADD17R,1.700000X1.700000*%
%ADD18O,1.700000X1.700000*%
G04 APERTURE END LIST*
D10*
X123317380Y-82367380D02*
X122841190Y-82367380D01*
X122841190Y-81367380D01*
X123650714Y-82367380D02*
X123650714Y-81700714D01*
X123650714Y-81367380D02*
X123603095Y-81415000D01*
X123650714Y-81462619D01*
X123698333Y-81415000D01*
X123650714Y-81367380D01*
X123650714Y-81462619D01*
X124126904Y-82367380D02*
X124126904Y-81367380D01*
X124222142Y-81986428D02*
X124507857Y-82367380D01*
X124507857Y-81700714D02*
X124126904Y-82081666D01*
X125317380Y-82319761D02*
X125222142Y-82367380D01*
X125031666Y-82367380D01*
X124936428Y-82319761D01*
X124888809Y-82224523D01*
X124888809Y-81843571D01*
X124936428Y-81748333D01*
X125031666Y-81700714D01*
X125222142Y-81700714D01*
X125317380Y-81748333D01*
X125365000Y-81843571D01*
X125365000Y-81938809D01*
X124888809Y-82034047D01*
X126984047Y-81367380D02*
X126793571Y-81367380D01*
X126698333Y-81415000D01*
X126650714Y-81462619D01*
X126555476Y-81605476D01*
X126507857Y-81795952D01*
X126507857Y-82176904D01*
X126555476Y-82272142D01*
X126603095Y-82319761D01*
X126698333Y-82367380D01*
X126888809Y-82367380D01*
X126984047Y-82319761D01*
X127031666Y-82272142D01*
X127079285Y-82176904D01*
X127079285Y-81938809D01*
X127031666Y-81843571D01*
X126984047Y-81795952D01*
X126888809Y-81748333D01*
X126698333Y-81748333D01*
X126603095Y-81795952D01*
X126555476Y-81843571D01*
X126507857Y-81938809D01*
X128031666Y-82367380D02*
X127460238Y-82367380D01*
X127745952Y-82367380D02*
X127745952Y-81367380D01*
X127650714Y-81510238D01*
X127555476Y-81605476D01*
X127460238Y-81653095D01*
X128984047Y-82367380D02*
X128412619Y-82367380D01*
X128698333Y-82367380D02*
X128698333Y-81367380D01*
X128603095Y-81510238D01*
X128507857Y-81605476D01*
X128412619Y-81653095D01*
X129841190Y-81367380D02*
X129650714Y-81367380D01*
X129555476Y-81415000D01*
X129507857Y-81462619D01*
X129412619Y-81605476D01*
X129365000Y-81795952D01*
X129365000Y-82176904D01*
X129412619Y-82272142D01*
X129460238Y-82319761D01*
X129555476Y-82367380D01*
X129745952Y-82367380D01*
X129841190Y-82319761D01*
X129888809Y-82272142D01*
X129936428Y-82176904D01*
X129936428Y-81938809D01*
X129888809Y-81843571D01*
X129841190Y-81795952D01*
X129745952Y-81748333D01*
X129555476Y-81748333D01*
X129460238Y-81795952D01*
X129412619Y-81843571D01*
X129365000Y-81938809D01*
D11*
X100707619Y-44031666D02*
X101326666Y-44031666D01*
X100583809Y-44403095D02*
X101017142Y-43103095D01*
X101450476Y-44403095D01*
X102564761Y-44403095D02*
X101821904Y-44403095D01*
X102193333Y-44403095D02*
X102193333Y-43103095D01*
X102069523Y-43288809D01*
X101945714Y-43412619D01*
X101821904Y-43474523D01*
X102998095Y-43103095D02*
X103802857Y-43103095D01*
X103369523Y-43598333D01*
X103555238Y-43598333D01*
X103679047Y-43660238D01*
X103740952Y-43722142D01*
X103802857Y-43845952D01*
X103802857Y-44155476D01*
X103740952Y-44279285D01*
X103679047Y-44341190D01*
X103555238Y-44403095D01*
X103183809Y-44403095D01*
X103060000Y-44341190D01*
X102998095Y-44279285D01*
X100769523Y-53882142D02*
X101202857Y-53882142D01*
X101388571Y-54563095D02*
X100769523Y-54563095D01*
X100769523Y-53263095D01*
X101388571Y-53263095D01*
X101945714Y-54563095D02*
X101945714Y-53263095D01*
X102688571Y-54563095D01*
X102688571Y-53263095D01*
X103245714Y-54191666D02*
X103864761Y-54191666D01*
X103121904Y-54563095D02*
X103555238Y-53263095D01*
X103988571Y-54563095D01*
X100707619Y-38951666D02*
X101326666Y-38951666D01*
X100583809Y-39323095D02*
X101017142Y-38023095D01*
X101450476Y-39323095D01*
X102564761Y-39323095D02*
X101821904Y-39323095D01*
X102193333Y-39323095D02*
X102193333Y-38023095D01*
X102069523Y-38208809D01*
X101945714Y-38332619D01*
X101821904Y-38394523D01*
X103740952Y-38023095D02*
X103121904Y-38023095D01*
X103060000Y-38642142D01*
X103121904Y-38580238D01*
X103245714Y-38518333D01*
X103555238Y-38518333D01*
X103679047Y-38580238D01*
X103740952Y-38642142D01*
X103802857Y-38765952D01*
X103802857Y-39075476D01*
X103740952Y-39199285D01*
X103679047Y-39261190D01*
X103555238Y-39323095D01*
X103245714Y-39323095D01*
X103121904Y-39261190D01*
X103060000Y-39199285D01*
D10*
X95440952Y-24534761D02*
X95536190Y-24582380D01*
X95726666Y-24582380D01*
X95821904Y-24534761D01*
X95869523Y-24439523D01*
X95869523Y-24391904D01*
X95821904Y-24296666D01*
X95726666Y-24249047D01*
X95583809Y-24249047D01*
X95488571Y-24201428D01*
X95440952Y-24106190D01*
X95440952Y-24058571D01*
X95488571Y-23963333D01*
X95583809Y-23915714D01*
X95726666Y-23915714D01*
X95821904Y-23963333D01*
X96155238Y-23915714D02*
X96536190Y-23915714D01*
X96298095Y-23582380D02*
X96298095Y-24439523D01*
X96345714Y-24534761D01*
X96440952Y-24582380D01*
X96536190Y-24582380D01*
X97298095Y-24582380D02*
X97298095Y-24058571D01*
X97250476Y-23963333D01*
X97155238Y-23915714D01*
X96964761Y-23915714D01*
X96869523Y-23963333D01*
X97298095Y-24534761D02*
X97202857Y-24582380D01*
X96964761Y-24582380D01*
X96869523Y-24534761D01*
X96821904Y-24439523D01*
X96821904Y-24344285D01*
X96869523Y-24249047D01*
X96964761Y-24201428D01*
X97202857Y-24201428D01*
X97298095Y-24153809D01*
X98202857Y-24534761D02*
X98107619Y-24582380D01*
X97917142Y-24582380D01*
X97821904Y-24534761D01*
X97774285Y-24487142D01*
X97726666Y-24391904D01*
X97726666Y-24106190D01*
X97774285Y-24010952D01*
X97821904Y-23963333D01*
X97917142Y-23915714D01*
X98107619Y-23915714D01*
X98202857Y-23963333D01*
X98631428Y-24582380D02*
X98631428Y-23582380D01*
X98726666Y-24201428D02*
X99012380Y-24582380D01*
X99012380Y-23915714D02*
X98631428Y-24296666D01*
X99869523Y-24582380D02*
X99869523Y-24058571D01*
X99821904Y-23963333D01*
X99726666Y-23915714D01*
X99536190Y-23915714D01*
X99440952Y-23963333D01*
X99869523Y-24534761D02*
X99774285Y-24582380D01*
X99536190Y-24582380D01*
X99440952Y-24534761D01*
X99393333Y-24439523D01*
X99393333Y-24344285D01*
X99440952Y-24249047D01*
X99536190Y-24201428D01*
X99774285Y-24201428D01*
X99869523Y-24153809D01*
X100345714Y-24582380D02*
X100345714Y-23582380D01*
X100345714Y-23963333D02*
X100440952Y-23915714D01*
X100631428Y-23915714D01*
X100726666Y-23963333D01*
X100774285Y-24010952D01*
X100821904Y-24106190D01*
X100821904Y-24391904D01*
X100774285Y-24487142D01*
X100726666Y-24534761D01*
X100631428Y-24582380D01*
X100440952Y-24582380D01*
X100345714Y-24534761D01*
X101393333Y-24582380D02*
X101298095Y-24534761D01*
X101250476Y-24439523D01*
X101250476Y-23582380D01*
X102155238Y-24534761D02*
X102060000Y-24582380D01*
X101869523Y-24582380D01*
X101774285Y-24534761D01*
X101726666Y-24439523D01*
X101726666Y-24058571D01*
X101774285Y-23963333D01*
X101869523Y-23915714D01*
X102060000Y-23915714D01*
X102155238Y-23963333D01*
X102202857Y-24058571D01*
X102202857Y-24153809D01*
X101726666Y-24249047D01*
X102631428Y-24487142D02*
X102679047Y-24534761D01*
X102631428Y-24582380D01*
X102583809Y-24534761D01*
X102631428Y-24487142D01*
X102631428Y-24582380D01*
X102631428Y-24201428D02*
X102583809Y-23630000D01*
X102631428Y-23582380D01*
X102679047Y-23630000D01*
X102631428Y-24201428D01*
X102631428Y-23582380D01*
X123952380Y-74112380D02*
X123476190Y-74112380D01*
X123476190Y-73112380D01*
X124285714Y-74112380D02*
X124285714Y-73445714D01*
X124285714Y-73112380D02*
X124238095Y-73160000D01*
X124285714Y-73207619D01*
X124333333Y-73160000D01*
X124285714Y-73112380D01*
X124285714Y-73207619D01*
X124761904Y-74112380D02*
X124761904Y-73112380D01*
X124857142Y-73731428D02*
X125142857Y-74112380D01*
X125142857Y-73445714D02*
X124761904Y-73826666D01*
X125952380Y-74064761D02*
X125857142Y-74112380D01*
X125666666Y-74112380D01*
X125571428Y-74064761D01*
X125523809Y-73969523D01*
X125523809Y-73588571D01*
X125571428Y-73493333D01*
X125666666Y-73445714D01*
X125857142Y-73445714D01*
X125952380Y-73493333D01*
X126000000Y-73588571D01*
X126000000Y-73683809D01*
X125523809Y-73779047D01*
X127142857Y-73207619D02*
X127190476Y-73160000D01*
X127285714Y-73112380D01*
X127523809Y-73112380D01*
X127619047Y-73160000D01*
X127666666Y-73207619D01*
X127714285Y-73302857D01*
X127714285Y-73398095D01*
X127666666Y-73540952D01*
X127095238Y-74112380D01*
X127714285Y-74112380D01*
X128047619Y-73112380D02*
X128714285Y-73112380D01*
X128285714Y-74112380D01*
X129000000Y-73112380D02*
X129619047Y-73112380D01*
X129285714Y-73493333D01*
X129428571Y-73493333D01*
X129523809Y-73540952D01*
X129571428Y-73588571D01*
X129619047Y-73683809D01*
X129619047Y-73921904D01*
X129571428Y-74017142D01*
X129523809Y-74064761D01*
X129428571Y-74112380D01*
X129142857Y-74112380D01*
X129047619Y-74064761D01*
X129000000Y-74017142D01*
X130000000Y-73207619D02*
X130047619Y-73160000D01*
X130142857Y-73112380D01*
X130380952Y-73112380D01*
X130476190Y-73160000D01*
X130523809Y-73207619D01*
X130571428Y-73302857D01*
X130571428Y-73398095D01*
X130523809Y-73540952D01*
X129952380Y-74112380D01*
X130571428Y-74112380D01*
D11*
X100707619Y-41491666D02*
X101326666Y-41491666D01*
X100583809Y-41863095D02*
X101017142Y-40563095D01*
X101450476Y-41863095D01*
X102564761Y-41863095D02*
X101821904Y-41863095D01*
X102193333Y-41863095D02*
X102193333Y-40563095D01*
X102069523Y-40748809D01*
X101945714Y-40872619D01*
X101821904Y-40934523D01*
X103679047Y-40996428D02*
X103679047Y-41863095D01*
X103369523Y-40501190D02*
X103060000Y-41429761D01*
X103864761Y-41429761D01*
D10*
X106688571Y-80562380D02*
X106879047Y-80562380D01*
X106974285Y-80610000D01*
X107069523Y-80705238D01*
X107117142Y-80895714D01*
X107117142Y-81229047D01*
X107069523Y-81419523D01*
X106974285Y-81514761D01*
X106879047Y-81562380D01*
X106688571Y-81562380D01*
X106593333Y-81514761D01*
X106498095Y-81419523D01*
X106450476Y-81229047D01*
X106450476Y-80895714D01*
X106498095Y-80705238D01*
X106593333Y-80610000D01*
X106688571Y-80562380D01*
X107545714Y-81562380D02*
X107545714Y-80895714D01*
X107545714Y-81086190D02*
X107593333Y-80990952D01*
X107640952Y-80943333D01*
X107736190Y-80895714D01*
X107831428Y-80895714D01*
X108926666Y-81562380D02*
X108926666Y-80895714D01*
X108926666Y-80562380D02*
X108879047Y-80610000D01*
X108926666Y-80657619D01*
X108974285Y-80610000D01*
X108926666Y-80562380D01*
X108926666Y-80657619D01*
X109260000Y-80895714D02*
X109640952Y-80895714D01*
X109402857Y-80562380D02*
X109402857Y-81419523D01*
X109450476Y-81514761D01*
X109545714Y-81562380D01*
X109640952Y-81562380D01*
X111164761Y-81514761D02*
X111069523Y-81562380D01*
X110879047Y-81562380D01*
X110783809Y-81514761D01*
X110736190Y-81467142D01*
X110688571Y-81371904D01*
X110688571Y-81086190D01*
X110736190Y-80990952D01*
X110783809Y-80943333D01*
X110879047Y-80895714D01*
X111069523Y-80895714D01*
X111164761Y-80943333D01*
X112021904Y-81562380D02*
X112021904Y-81038571D01*
X111974285Y-80943333D01*
X111879047Y-80895714D01*
X111688571Y-80895714D01*
X111593333Y-80943333D01*
X112021904Y-81514761D02*
X111926666Y-81562380D01*
X111688571Y-81562380D01*
X111593333Y-81514761D01*
X111545714Y-81419523D01*
X111545714Y-81324285D01*
X111593333Y-81229047D01*
X111688571Y-81181428D01*
X111926666Y-81181428D01*
X112021904Y-81133809D01*
X112498095Y-80895714D02*
X112498095Y-81562380D01*
X112498095Y-80990952D02*
X112545714Y-80943333D01*
X112640952Y-80895714D01*
X112783809Y-80895714D01*
X112879047Y-80943333D01*
X112926666Y-81038571D01*
X112926666Y-81562380D01*
X114593333Y-80895714D02*
X114593333Y-81562380D01*
X114164761Y-80895714D02*
X114164761Y-81419523D01*
X114212380Y-81514761D01*
X114307619Y-81562380D01*
X114450476Y-81562380D01*
X114545714Y-81514761D01*
X114593333Y-81467142D01*
X115021904Y-81514761D02*
X115117142Y-81562380D01*
X115307619Y-81562380D01*
X115402857Y-81514761D01*
X115450476Y-81419523D01*
X115450476Y-81371904D01*
X115402857Y-81276666D01*
X115307619Y-81229047D01*
X115164761Y-81229047D01*
X115069523Y-81181428D01*
X115021904Y-81086190D01*
X115021904Y-81038571D01*
X115069523Y-80943333D01*
X115164761Y-80895714D01*
X115307619Y-80895714D01*
X115402857Y-80943333D01*
X116260000Y-81514761D02*
X116164761Y-81562380D01*
X115974285Y-81562380D01*
X115879047Y-81514761D01*
X115831428Y-81419523D01*
X115831428Y-81038571D01*
X115879047Y-80943333D01*
X115974285Y-80895714D01*
X116164761Y-80895714D01*
X116260000Y-80943333D01*
X116307619Y-81038571D01*
X116307619Y-81133809D01*
X115831428Y-81229047D01*
X109164761Y-82267619D02*
X109212380Y-82220000D01*
X109307619Y-82172380D01*
X109545714Y-82172380D01*
X109640952Y-82220000D01*
X109688571Y-82267619D01*
X109736190Y-82362857D01*
X109736190Y-82458095D01*
X109688571Y-82600952D01*
X109117142Y-83172380D01*
X109736190Y-83172380D01*
X110164761Y-83172380D02*
X110164761Y-82172380D01*
X110736190Y-83172380D02*
X110307619Y-82600952D01*
X110736190Y-82172380D02*
X110164761Y-82743809D01*
X111926666Y-83172380D02*
X111926666Y-82505714D01*
X111926666Y-82696190D02*
X111974285Y-82600952D01*
X112021904Y-82553333D01*
X112117142Y-82505714D01*
X112212380Y-82505714D01*
X112974285Y-83172380D02*
X112974285Y-82648571D01*
X112926666Y-82553333D01*
X112831428Y-82505714D01*
X112640952Y-82505714D01*
X112545714Y-82553333D01*
X112974285Y-83124761D02*
X112879047Y-83172380D01*
X112640952Y-83172380D01*
X112545714Y-83124761D01*
X112498095Y-83029523D01*
X112498095Y-82934285D01*
X112545714Y-82839047D01*
X112640952Y-82791428D01*
X112879047Y-82791428D01*
X112974285Y-82743809D01*
X113450476Y-83172380D02*
X113450476Y-82505714D01*
X113450476Y-82600952D02*
X113498095Y-82553333D01*
X113593333Y-82505714D01*
X113736190Y-82505714D01*
X113831428Y-82553333D01*
X113879047Y-82648571D01*
X113879047Y-83172380D01*
X113879047Y-82648571D02*
X113926666Y-82553333D01*
X114021904Y-82505714D01*
X114164761Y-82505714D01*
X114260000Y-82553333D01*
X114307619Y-82648571D01*
X114307619Y-83172380D01*
X99395476Y-19470714D02*
X99776428Y-19470714D01*
X99538333Y-20137380D02*
X99538333Y-19280238D01*
X99585952Y-19185000D01*
X99681190Y-19137380D01*
X99776428Y-19137380D01*
X100252619Y-20137380D02*
X100157380Y-20089761D01*
X100109761Y-20042142D01*
X100062142Y-19946904D01*
X100062142Y-19661190D01*
X100109761Y-19565952D01*
X100157380Y-19518333D01*
X100252619Y-19470714D01*
X100395476Y-19470714D01*
X100490714Y-19518333D01*
X100538333Y-19565952D01*
X100585952Y-19661190D01*
X100585952Y-19946904D01*
X100538333Y-20042142D01*
X100490714Y-20089761D01*
X100395476Y-20137380D01*
X100252619Y-20137380D01*
X101014523Y-20137380D02*
X101014523Y-19470714D01*
X101014523Y-19661190D02*
X101062142Y-19565952D01*
X101109761Y-19518333D01*
X101205000Y-19470714D01*
X101300238Y-19470714D01*
X102824047Y-19470714D02*
X102824047Y-20137380D01*
X102395476Y-19470714D02*
X102395476Y-19994523D01*
X102443095Y-20089761D01*
X102538333Y-20137380D01*
X102681190Y-20137380D01*
X102776428Y-20089761D01*
X102824047Y-20042142D01*
X103252619Y-20089761D02*
X103347857Y-20137380D01*
X103538333Y-20137380D01*
X103633571Y-20089761D01*
X103681190Y-19994523D01*
X103681190Y-19946904D01*
X103633571Y-19851666D01*
X103538333Y-19804047D01*
X103395476Y-19804047D01*
X103300238Y-19756428D01*
X103252619Y-19661190D01*
X103252619Y-19613571D01*
X103300238Y-19518333D01*
X103395476Y-19470714D01*
X103538333Y-19470714D01*
X103633571Y-19518333D01*
X104490714Y-20089761D02*
X104395476Y-20137380D01*
X104205000Y-20137380D01*
X104109761Y-20089761D01*
X104062142Y-19994523D01*
X104062142Y-19613571D01*
X104109761Y-19518333D01*
X104205000Y-19470714D01*
X104395476Y-19470714D01*
X104490714Y-19518333D01*
X104538333Y-19613571D01*
X104538333Y-19708809D01*
X104062142Y-19804047D01*
X105633571Y-19470714D02*
X105824047Y-20137380D01*
X106014523Y-19661190D01*
X106205000Y-20137380D01*
X106395476Y-19470714D01*
X106776428Y-20137380D02*
X106776428Y-19470714D01*
X106776428Y-19137380D02*
X106728809Y-19185000D01*
X106776428Y-19232619D01*
X106824047Y-19185000D01*
X106776428Y-19137380D01*
X106776428Y-19232619D01*
X107109761Y-19470714D02*
X107490714Y-19470714D01*
X107252619Y-19137380D02*
X107252619Y-19994523D01*
X107300238Y-20089761D01*
X107395476Y-20137380D01*
X107490714Y-20137380D01*
X107824047Y-20137380D02*
X107824047Y-19137380D01*
X108252619Y-20137380D02*
X108252619Y-19613571D01*
X108205000Y-19518333D01*
X108109761Y-19470714D01*
X107966904Y-19470714D01*
X107871666Y-19518333D01*
X107824047Y-19565952D01*
X110062142Y-20137380D02*
X109728809Y-19661190D01*
X109490714Y-20137380D02*
X109490714Y-19137380D01*
X109871666Y-19137380D01*
X109966904Y-19185000D01*
X110014523Y-19232619D01*
X110062142Y-19327857D01*
X110062142Y-19470714D01*
X110014523Y-19565952D01*
X109966904Y-19613571D01*
X109871666Y-19661190D01*
X109490714Y-19661190D01*
X110443095Y-19851666D02*
X110919285Y-19851666D01*
X110347857Y-20137380D02*
X110681190Y-19137380D01*
X111014523Y-20137380D01*
X111347857Y-20137380D02*
X111347857Y-19137380D01*
X111681190Y-19851666D01*
X112014523Y-19137380D01*
X112014523Y-20137380D01*
X113395476Y-20137380D02*
X113300238Y-20089761D01*
X113252619Y-20042142D01*
X113205000Y-19946904D01*
X113205000Y-19661190D01*
X113252619Y-19565952D01*
X113300238Y-19518333D01*
X113395476Y-19470714D01*
X113538333Y-19470714D01*
X113633571Y-19518333D01*
X113681190Y-19565952D01*
X113728809Y-19661190D01*
X113728809Y-19946904D01*
X113681190Y-20042142D01*
X113633571Y-20089761D01*
X113538333Y-20137380D01*
X113395476Y-20137380D01*
X114157380Y-20137380D02*
X114157380Y-19470714D01*
X114157380Y-19661190D02*
X114205000Y-19565952D01*
X114252619Y-19518333D01*
X114347857Y-19470714D01*
X114443095Y-19470714D01*
X115490714Y-20089761D02*
X115585952Y-20137380D01*
X115776428Y-20137380D01*
X115871666Y-20089761D01*
X115919285Y-19994523D01*
X115919285Y-19946904D01*
X115871666Y-19851666D01*
X115776428Y-19804047D01*
X115633571Y-19804047D01*
X115538333Y-19756428D01*
X115490714Y-19661190D01*
X115490714Y-19613571D01*
X115538333Y-19518333D01*
X115633571Y-19470714D01*
X115776428Y-19470714D01*
X115871666Y-19518333D01*
X116205000Y-19470714D02*
X116585952Y-19470714D01*
X116347857Y-19137380D02*
X116347857Y-19994523D01*
X116395476Y-20089761D01*
X116490714Y-20137380D01*
X116585952Y-20137380D01*
X117347857Y-20137380D02*
X117347857Y-19613571D01*
X117300238Y-19518333D01*
X117204999Y-19470714D01*
X117014523Y-19470714D01*
X116919285Y-19518333D01*
X117347857Y-20089761D02*
X117252619Y-20137380D01*
X117014523Y-20137380D01*
X116919285Y-20089761D01*
X116871666Y-19994523D01*
X116871666Y-19899285D01*
X116919285Y-19804047D01*
X117014523Y-19756428D01*
X117252619Y-19756428D01*
X117347857Y-19708809D01*
X117824047Y-19470714D02*
X117824047Y-20137380D01*
X117824047Y-19565952D02*
X117871666Y-19518333D01*
X117966904Y-19470714D01*
X118109761Y-19470714D01*
X118204999Y-19518333D01*
X118252619Y-19613571D01*
X118252619Y-20137380D01*
X119157380Y-20137380D02*
X119157380Y-19137380D01*
X119157380Y-20089761D02*
X119062142Y-20137380D01*
X118871666Y-20137380D01*
X118776428Y-20089761D01*
X118728809Y-20042142D01*
X118681190Y-19946904D01*
X118681190Y-19661190D01*
X118728809Y-19565952D01*
X118776428Y-19518333D01*
X118871666Y-19470714D01*
X119062142Y-19470714D01*
X119157380Y-19518333D01*
X120062142Y-20137380D02*
X120062142Y-19613571D01*
X120014523Y-19518333D01*
X119919285Y-19470714D01*
X119728809Y-19470714D01*
X119633571Y-19518333D01*
X120062142Y-20089761D02*
X119966904Y-20137380D01*
X119728809Y-20137380D01*
X119633571Y-20089761D01*
X119585952Y-19994523D01*
X119585952Y-19899285D01*
X119633571Y-19804047D01*
X119728809Y-19756428D01*
X119966904Y-19756428D01*
X120062142Y-19708809D01*
X120538333Y-20137380D02*
X120538333Y-19470714D01*
X120538333Y-19661190D02*
X120585952Y-19565952D01*
X120633571Y-19518333D01*
X120728809Y-19470714D01*
X120824047Y-19470714D01*
X121585952Y-20137380D02*
X121585952Y-19137380D01*
X121585952Y-20089761D02*
X121490714Y-20137380D01*
X121300238Y-20137380D01*
X121204999Y-20089761D01*
X121157380Y-20042142D01*
X121109761Y-19946904D01*
X121109761Y-19661190D01*
X121157380Y-19565952D01*
X121204999Y-19518333D01*
X121300238Y-19470714D01*
X121490714Y-19470714D01*
X121585952Y-19518333D01*
X122824047Y-19470714D02*
X122824047Y-20470714D01*
X122824047Y-19518333D02*
X122919285Y-19470714D01*
X123109761Y-19470714D01*
X123204999Y-19518333D01*
X123252619Y-19565952D01*
X123300238Y-19661190D01*
X123300238Y-19946904D01*
X123252619Y-20042142D01*
X123204999Y-20089761D01*
X123109761Y-20137380D01*
X122919285Y-20137380D01*
X122824047Y-20089761D01*
X124157380Y-20137380D02*
X124157380Y-19613571D01*
X124109761Y-19518333D01*
X124014523Y-19470714D01*
X123824047Y-19470714D01*
X123728809Y-19518333D01*
X124157380Y-20089761D02*
X124062142Y-20137380D01*
X123824047Y-20137380D01*
X123728809Y-20089761D01*
X123681190Y-19994523D01*
X123681190Y-19899285D01*
X123728809Y-19804047D01*
X123824047Y-19756428D01*
X124062142Y-19756428D01*
X124157380Y-19708809D01*
X124633571Y-20137380D02*
X124633571Y-19470714D01*
X124633571Y-19661190D02*
X124681190Y-19565952D01*
X124728809Y-19518333D01*
X124824047Y-19470714D01*
X124919285Y-19470714D01*
X125681190Y-20137380D02*
X125681190Y-19613571D01*
X125633571Y-19518333D01*
X125538333Y-19470714D01*
X125347857Y-19470714D01*
X125252619Y-19518333D01*
X125681190Y-20089761D02*
X125585952Y-20137380D01*
X125347857Y-20137380D01*
X125252619Y-20089761D01*
X125204999Y-19994523D01*
X125204999Y-19899285D01*
X125252619Y-19804047D01*
X125347857Y-19756428D01*
X125585952Y-19756428D01*
X125681190Y-19708809D01*
X126300238Y-20137380D02*
X126204999Y-20089761D01*
X126157380Y-19994523D01*
X126157380Y-19137380D01*
X126824047Y-20137380D02*
X126728809Y-20089761D01*
X126681190Y-19994523D01*
X126681190Y-19137380D01*
X127585952Y-20089761D02*
X127490714Y-20137380D01*
X127300238Y-20137380D01*
X127204999Y-20089761D01*
X127157380Y-19994523D01*
X127157380Y-19613571D01*
X127204999Y-19518333D01*
X127300238Y-19470714D01*
X127490714Y-19470714D01*
X127585952Y-19518333D01*
X127633571Y-19613571D01*
X127633571Y-19708809D01*
X127157380Y-19804047D01*
X128204999Y-20137380D02*
X128109761Y-20089761D01*
X128062142Y-19994523D01*
X128062142Y-19137380D01*
X129919285Y-20137380D02*
X129585952Y-19661190D01*
X129347857Y-20137380D02*
X129347857Y-19137380D01*
X129728809Y-19137380D01*
X129824047Y-19185000D01*
X129871666Y-19232619D01*
X129919285Y-19327857D01*
X129919285Y-19470714D01*
X129871666Y-19565952D01*
X129824047Y-19613571D01*
X129728809Y-19661190D01*
X129347857Y-19661190D01*
X130538333Y-19137380D02*
X130728809Y-19137380D01*
X130824047Y-19185000D01*
X130919285Y-19280238D01*
X130966904Y-19470714D01*
X130966904Y-19804047D01*
X130919285Y-19994523D01*
X130824047Y-20089761D01*
X130728809Y-20137380D01*
X130538333Y-20137380D01*
X130443095Y-20089761D01*
X130347857Y-19994523D01*
X130300238Y-19804047D01*
X130300238Y-19470714D01*
X130347857Y-19280238D01*
X130443095Y-19185000D01*
X130538333Y-19137380D01*
X131395476Y-20137380D02*
X131395476Y-19137380D01*
X131728809Y-19851666D01*
X132062142Y-19137380D01*
X132062142Y-20137380D01*
X132490714Y-20089761D02*
X132585952Y-20137380D01*
X132776428Y-20137380D01*
X132871666Y-20089761D01*
X132919285Y-19994523D01*
X132919285Y-19946904D01*
X132871666Y-19851666D01*
X132776428Y-19804047D01*
X132633571Y-19804047D01*
X132538333Y-19756428D01*
X132490714Y-19661190D01*
X132490714Y-19613571D01*
X132538333Y-19518333D01*
X132633571Y-19470714D01*
X132776428Y-19470714D01*
X132871666Y-19518333D01*
D11*
X100707619Y-46571666D02*
X101326666Y-46571666D01*
X100583809Y-46943095D02*
X101017142Y-45643095D01*
X101450476Y-46943095D01*
X102564761Y-46943095D02*
X101821904Y-46943095D01*
X102193333Y-46943095D02*
X102193333Y-45643095D01*
X102069523Y-45828809D01*
X101945714Y-45952619D01*
X101821904Y-46014523D01*
X103060000Y-45766904D02*
X103121904Y-45705000D01*
X103245714Y-45643095D01*
X103555238Y-45643095D01*
X103679047Y-45705000D01*
X103740952Y-45766904D01*
X103802857Y-45890714D01*
X103802857Y-46014523D01*
X103740952Y-46200238D01*
X102998095Y-46943095D01*
X103802857Y-46943095D01*
D10*
X114065476Y-101982380D02*
X114255952Y-101982380D01*
X114351190Y-102030000D01*
X114446428Y-102125238D01*
X114494047Y-102315714D01*
X114494047Y-102649047D01*
X114446428Y-102839523D01*
X114351190Y-102934761D01*
X114255952Y-102982380D01*
X114065476Y-102982380D01*
X113970238Y-102934761D01*
X113875000Y-102839523D01*
X113827380Y-102649047D01*
X113827380Y-102315714D01*
X113875000Y-102125238D01*
X113970238Y-102030000D01*
X114065476Y-101982380D01*
X114922619Y-102982380D02*
X114922619Y-102315714D01*
X114922619Y-102506190D02*
X114970238Y-102410952D01*
X115017857Y-102363333D01*
X115113095Y-102315714D01*
X115208333Y-102315714D01*
X116255952Y-102077619D02*
X116303571Y-102030000D01*
X116398809Y-101982380D01*
X116636904Y-101982380D01*
X116732142Y-102030000D01*
X116779761Y-102077619D01*
X116827380Y-102172857D01*
X116827380Y-102268095D01*
X116779761Y-102410952D01*
X116208333Y-102982380D01*
X116827380Y-102982380D01*
X117255952Y-102982380D02*
X117255952Y-101982380D01*
X117827380Y-102982380D02*
X117398809Y-102410952D01*
X117827380Y-101982380D02*
X117255952Y-102553809D01*
X119351190Y-102458571D02*
X119017857Y-102458571D01*
X119017857Y-102982380D02*
X119017857Y-101982380D01*
X119494047Y-101982380D01*
X120255952Y-102934761D02*
X120160714Y-102982380D01*
X119970238Y-102982380D01*
X119875000Y-102934761D01*
X119827380Y-102839523D01*
X119827380Y-102458571D01*
X119875000Y-102363333D01*
X119970238Y-102315714D01*
X120160714Y-102315714D01*
X120255952Y-102363333D01*
X120303571Y-102458571D01*
X120303571Y-102553809D01*
X119827380Y-102649047D01*
X121303571Y-102982380D02*
X120970238Y-102506190D01*
X120732142Y-102982380D02*
X120732142Y-101982380D01*
X121113095Y-101982380D01*
X121208333Y-102030000D01*
X121255952Y-102077619D01*
X121303571Y-102172857D01*
X121303571Y-102315714D01*
X121255952Y-102410952D01*
X121208333Y-102458571D01*
X121113095Y-102506190D01*
X120732142Y-102506190D01*
X121684523Y-102696666D02*
X122160714Y-102696666D01*
X121589285Y-102982380D02*
X121922619Y-101982380D01*
X122255952Y-102982380D01*
X122589285Y-102982380D02*
X122589285Y-101982380D01*
X122922619Y-102696666D01*
X123255952Y-101982380D01*
X123255952Y-102982380D01*
X123875000Y-102887142D02*
X123922619Y-102934761D01*
X123875000Y-102982380D01*
X123827380Y-102934761D01*
X123875000Y-102887142D01*
X123875000Y-102982380D01*
X123684523Y-102030000D02*
X123779761Y-101982380D01*
X124017857Y-101982380D01*
X124113095Y-102030000D01*
X124160714Y-102125238D01*
X124160714Y-102220476D01*
X124113095Y-102315714D01*
X124065476Y-102363333D01*
X123970238Y-102410952D01*
X123922619Y-102458571D01*
X123875000Y-102553809D01*
X123875000Y-102601428D01*
X104732142Y-104116190D02*
X104732142Y-104592380D01*
X104398809Y-103592380D02*
X104732142Y-104116190D01*
X105065476Y-103592380D01*
X105541666Y-104592380D02*
X105446428Y-104544761D01*
X105398809Y-104497142D01*
X105351190Y-104401904D01*
X105351190Y-104116190D01*
X105398809Y-104020952D01*
X105446428Y-103973333D01*
X105541666Y-103925714D01*
X105684523Y-103925714D01*
X105779761Y-103973333D01*
X105827380Y-104020952D01*
X105875000Y-104116190D01*
X105875000Y-104401904D01*
X105827380Y-104497142D01*
X105779761Y-104544761D01*
X105684523Y-104592380D01*
X105541666Y-104592380D01*
X106732142Y-103925714D02*
X106732142Y-104592380D01*
X106303571Y-103925714D02*
X106303571Y-104449523D01*
X106351190Y-104544761D01*
X106446428Y-104592380D01*
X106589285Y-104592380D01*
X106684523Y-104544761D01*
X106732142Y-104497142D01*
X108398809Y-104544761D02*
X108303571Y-104592380D01*
X108113095Y-104592380D01*
X108017857Y-104544761D01*
X107970238Y-104497142D01*
X107922619Y-104401904D01*
X107922619Y-104116190D01*
X107970238Y-104020952D01*
X108017857Y-103973333D01*
X108113095Y-103925714D01*
X108303571Y-103925714D01*
X108398809Y-103973333D01*
X109255952Y-104592380D02*
X109255952Y-104068571D01*
X109208333Y-103973333D01*
X109113095Y-103925714D01*
X108922619Y-103925714D01*
X108827380Y-103973333D01*
X109255952Y-104544761D02*
X109160714Y-104592380D01*
X108922619Y-104592380D01*
X108827380Y-104544761D01*
X108779761Y-104449523D01*
X108779761Y-104354285D01*
X108827380Y-104259047D01*
X108922619Y-104211428D01*
X109160714Y-104211428D01*
X109255952Y-104163809D01*
X109732142Y-103925714D02*
X109732142Y-104592380D01*
X109732142Y-104020952D02*
X109779761Y-103973333D01*
X109875000Y-103925714D01*
X110017857Y-103925714D01*
X110113095Y-103973333D01*
X110160714Y-104068571D01*
X110160714Y-104592380D01*
X111255952Y-103925714D02*
X111636904Y-103925714D01*
X111398809Y-103592380D02*
X111398809Y-104449523D01*
X111446428Y-104544761D01*
X111541666Y-104592380D01*
X111636904Y-104592380D01*
X112351190Y-104544761D02*
X112255952Y-104592380D01*
X112065476Y-104592380D01*
X111970238Y-104544761D01*
X111922619Y-104449523D01*
X111922619Y-104068571D01*
X111970238Y-103973333D01*
X112065476Y-103925714D01*
X112255952Y-103925714D01*
X112351190Y-103973333D01*
X112398809Y-104068571D01*
X112398809Y-104163809D01*
X111922619Y-104259047D01*
X112970238Y-104592380D02*
X112875000Y-104544761D01*
X112827380Y-104449523D01*
X112827380Y-103592380D01*
X113494047Y-104592380D02*
X113398809Y-104544761D01*
X113351190Y-104449523D01*
X113351190Y-103592380D01*
X114541666Y-103925714D02*
X114732142Y-104592380D01*
X114922619Y-104116190D01*
X115113095Y-104592380D01*
X115303571Y-103925714D01*
X115684523Y-104592380D02*
X115684523Y-103592380D01*
X116113095Y-104592380D02*
X116113095Y-104068571D01*
X116065476Y-103973333D01*
X115970238Y-103925714D01*
X115827380Y-103925714D01*
X115732142Y-103973333D01*
X115684523Y-104020952D01*
X117017857Y-104592380D02*
X117017857Y-104068571D01*
X116970238Y-103973333D01*
X116875000Y-103925714D01*
X116684523Y-103925714D01*
X116589285Y-103973333D01*
X117017857Y-104544761D02*
X116922619Y-104592380D01*
X116684523Y-104592380D01*
X116589285Y-104544761D01*
X116541666Y-104449523D01*
X116541666Y-104354285D01*
X116589285Y-104259047D01*
X116684523Y-104211428D01*
X116922619Y-104211428D01*
X117017857Y-104163809D01*
X117351190Y-103925714D02*
X117732142Y-103925714D01*
X117494047Y-103592380D02*
X117494047Y-104449523D01*
X117541666Y-104544761D01*
X117636904Y-104592380D01*
X117732142Y-104592380D01*
X118684523Y-103925714D02*
X119065476Y-103925714D01*
X118827380Y-103592380D02*
X118827380Y-104449523D01*
X118875000Y-104544761D01*
X118970238Y-104592380D01*
X119065476Y-104592380D01*
X119398809Y-104592380D02*
X119398809Y-103592380D01*
X119827380Y-104592380D02*
X119827380Y-104068571D01*
X119779761Y-103973333D01*
X119684523Y-103925714D01*
X119541666Y-103925714D01*
X119446428Y-103973333D01*
X119398809Y-104020952D01*
X120684523Y-104544761D02*
X120589285Y-104592380D01*
X120398809Y-104592380D01*
X120303571Y-104544761D01*
X120255952Y-104449523D01*
X120255952Y-104068571D01*
X120303571Y-103973333D01*
X120398809Y-103925714D01*
X120589285Y-103925714D01*
X120684523Y-103973333D01*
X120732142Y-104068571D01*
X120732142Y-104163809D01*
X120255952Y-104259047D01*
X121922619Y-103925714D02*
X121922619Y-104925714D01*
X121922619Y-103973333D02*
X122017857Y-103925714D01*
X122208333Y-103925714D01*
X122303571Y-103973333D01*
X122351190Y-104020952D01*
X122398809Y-104116190D01*
X122398809Y-104401904D01*
X122351190Y-104497142D01*
X122303571Y-104544761D01*
X122208333Y-104592380D01*
X122017857Y-104592380D01*
X121922619Y-104544761D01*
X122827380Y-104592380D02*
X122827380Y-103925714D01*
X122827380Y-103592380D02*
X122779761Y-103640000D01*
X122827380Y-103687619D01*
X122875000Y-103640000D01*
X122827380Y-103592380D01*
X122827380Y-103687619D01*
X123303571Y-103925714D02*
X123303571Y-104592380D01*
X123303571Y-104020952D02*
X123351190Y-103973333D01*
X123446428Y-103925714D01*
X123589285Y-103925714D01*
X123684523Y-103973333D01*
X123732142Y-104068571D01*
X123732142Y-104592380D01*
X124351190Y-104592380D02*
X124255952Y-104544761D01*
X124208333Y-104497142D01*
X124160714Y-104401904D01*
X124160714Y-104116190D01*
X124208333Y-104020952D01*
X124255952Y-103973333D01*
X124351190Y-103925714D01*
X124494047Y-103925714D01*
X124589285Y-103973333D01*
X124636904Y-104020952D01*
X124684523Y-104116190D01*
X124684523Y-104401904D01*
X124636904Y-104497142D01*
X124589285Y-104544761D01*
X124494047Y-104592380D01*
X124351190Y-104592380D01*
X125541666Y-103925714D02*
X125541666Y-104592380D01*
X125113095Y-103925714D02*
X125113095Y-104449523D01*
X125160714Y-104544761D01*
X125255952Y-104592380D01*
X125398809Y-104592380D01*
X125494047Y-104544761D01*
X125541666Y-104497142D01*
X125875000Y-103925714D02*
X126255952Y-103925714D01*
X126017857Y-103592380D02*
X126017857Y-104449523D01*
X126065476Y-104544761D01*
X126160714Y-104592380D01*
X126255952Y-104592380D01*
X127351190Y-104592380D02*
X127351190Y-103925714D01*
X127351190Y-103592380D02*
X127303571Y-103640000D01*
X127351190Y-103687619D01*
X127398809Y-103640000D01*
X127351190Y-103592380D01*
X127351190Y-103687619D01*
X127779761Y-104544761D02*
X127875000Y-104592380D01*
X128065476Y-104592380D01*
X128160714Y-104544761D01*
X128208333Y-104449523D01*
X128208333Y-104401904D01*
X128160714Y-104306666D01*
X128065476Y-104259047D01*
X127922619Y-104259047D01*
X127827380Y-104211428D01*
X127779761Y-104116190D01*
X127779761Y-104068571D01*
X127827380Y-103973333D01*
X127922619Y-103925714D01*
X128065476Y-103925714D01*
X128160714Y-103973333D01*
X129398809Y-104592380D02*
X129398809Y-103592380D01*
X129398809Y-103973333D02*
X129494047Y-103925714D01*
X129684523Y-103925714D01*
X129779761Y-103973333D01*
X129827380Y-104020952D01*
X129875000Y-104116190D01*
X129875000Y-104401904D01*
X129827380Y-104497142D01*
X129779761Y-104544761D01*
X129684523Y-104592380D01*
X129494047Y-104592380D01*
X129398809Y-104544761D01*
X130208333Y-103925714D02*
X130446428Y-104592380D01*
X130684523Y-103925714D02*
X130446428Y-104592380D01*
X130351190Y-104830476D01*
X130303571Y-104878095D01*
X130208333Y-104925714D01*
X131827380Y-103925714D02*
X131827380Y-104592380D01*
X131827380Y-104020952D02*
X131875000Y-103973333D01*
X131970238Y-103925714D01*
X132113095Y-103925714D01*
X132208333Y-103973333D01*
X132255952Y-104068571D01*
X132255952Y-104592380D01*
X132874999Y-104592380D02*
X132779761Y-104544761D01*
X132732142Y-104497142D01*
X132684523Y-104401904D01*
X132684523Y-104116190D01*
X132732142Y-104020952D01*
X132779761Y-103973333D01*
X132874999Y-103925714D01*
X133017857Y-103925714D01*
X133113095Y-103973333D01*
X133160714Y-104020952D01*
X133208333Y-104116190D01*
X133208333Y-104401904D01*
X133160714Y-104497142D01*
X133113095Y-104544761D01*
X133017857Y-104592380D01*
X132874999Y-104592380D01*
X133541666Y-103925714D02*
X133732142Y-104592380D01*
X133922619Y-104116190D01*
X134113095Y-104592380D01*
X134303571Y-103925714D01*
X107851190Y-105535714D02*
X107851190Y-106392857D01*
X107803571Y-106488095D01*
X107708333Y-106535714D01*
X107660714Y-106535714D01*
X107851190Y-105202380D02*
X107803571Y-105250000D01*
X107851190Y-105297619D01*
X107898809Y-105250000D01*
X107851190Y-105202380D01*
X107851190Y-105297619D01*
X108755952Y-105535714D02*
X108755952Y-106202380D01*
X108327380Y-105535714D02*
X108327380Y-106059523D01*
X108375000Y-106154761D01*
X108470238Y-106202380D01*
X108613095Y-106202380D01*
X108708333Y-106154761D01*
X108755952Y-106107142D01*
X109184523Y-106154761D02*
X109279761Y-106202380D01*
X109470238Y-106202380D01*
X109565476Y-106154761D01*
X109613095Y-106059523D01*
X109613095Y-106011904D01*
X109565476Y-105916666D01*
X109470238Y-105869047D01*
X109327380Y-105869047D01*
X109232142Y-105821428D01*
X109184523Y-105726190D01*
X109184523Y-105678571D01*
X109232142Y-105583333D01*
X109327380Y-105535714D01*
X109470238Y-105535714D01*
X109565476Y-105583333D01*
X109898809Y-105535714D02*
X110279761Y-105535714D01*
X110041666Y-105202380D02*
X110041666Y-106059523D01*
X110089285Y-106154761D01*
X110184523Y-106202380D01*
X110279761Y-106202380D01*
X111803571Y-105535714D02*
X111803571Y-106202380D01*
X111375000Y-105535714D02*
X111375000Y-106059523D01*
X111422619Y-106154761D01*
X111517857Y-106202380D01*
X111660714Y-106202380D01*
X111755952Y-106154761D01*
X111803571Y-106107142D01*
X112232142Y-106154761D02*
X112327380Y-106202380D01*
X112517857Y-106202380D01*
X112613095Y-106154761D01*
X112660714Y-106059523D01*
X112660714Y-106011904D01*
X112613095Y-105916666D01*
X112517857Y-105869047D01*
X112375000Y-105869047D01*
X112279761Y-105821428D01*
X112232142Y-105726190D01*
X112232142Y-105678571D01*
X112279761Y-105583333D01*
X112375000Y-105535714D01*
X112517857Y-105535714D01*
X112613095Y-105583333D01*
X113470238Y-106154761D02*
X113375000Y-106202380D01*
X113184523Y-106202380D01*
X113089285Y-106154761D01*
X113041666Y-106059523D01*
X113041666Y-105678571D01*
X113089285Y-105583333D01*
X113184523Y-105535714D01*
X113375000Y-105535714D01*
X113470238Y-105583333D01*
X113517857Y-105678571D01*
X113517857Y-105773809D01*
X113041666Y-105869047D01*
X114660714Y-106154761D02*
X114755952Y-106202380D01*
X114946428Y-106202380D01*
X115041666Y-106154761D01*
X115089285Y-106059523D01*
X115089285Y-106011904D01*
X115041666Y-105916666D01*
X114946428Y-105869047D01*
X114803571Y-105869047D01*
X114708333Y-105821428D01*
X114660714Y-105726190D01*
X114660714Y-105678571D01*
X114708333Y-105583333D01*
X114803571Y-105535714D01*
X114946428Y-105535714D01*
X115041666Y-105583333D01*
X115660714Y-106202380D02*
X115565476Y-106154761D01*
X115517857Y-106107142D01*
X115470238Y-106011904D01*
X115470238Y-105726190D01*
X115517857Y-105630952D01*
X115565476Y-105583333D01*
X115660714Y-105535714D01*
X115803571Y-105535714D01*
X115898809Y-105583333D01*
X115946428Y-105630952D01*
X115994047Y-105726190D01*
X115994047Y-106011904D01*
X115946428Y-106107142D01*
X115898809Y-106154761D01*
X115803571Y-106202380D01*
X115660714Y-106202380D01*
X116422619Y-106202380D02*
X116422619Y-105535714D01*
X116422619Y-105630952D02*
X116470238Y-105583333D01*
X116565476Y-105535714D01*
X116708333Y-105535714D01*
X116803571Y-105583333D01*
X116851190Y-105678571D01*
X116851190Y-106202380D01*
X116851190Y-105678571D02*
X116898809Y-105583333D01*
X116994047Y-105535714D01*
X117136904Y-105535714D01*
X117232142Y-105583333D01*
X117279761Y-105678571D01*
X117279761Y-106202380D01*
X118136904Y-106154761D02*
X118041666Y-106202380D01*
X117851190Y-106202380D01*
X117755952Y-106154761D01*
X117708333Y-106059523D01*
X117708333Y-105678571D01*
X117755952Y-105583333D01*
X117851190Y-105535714D01*
X118041666Y-105535714D01*
X118136904Y-105583333D01*
X118184523Y-105678571D01*
X118184523Y-105773809D01*
X117708333Y-105869047D01*
X118470238Y-105535714D02*
X118851190Y-105535714D01*
X118613095Y-105202380D02*
X118613095Y-106059523D01*
X118660714Y-106154761D01*
X118755952Y-106202380D01*
X118851190Y-106202380D01*
X119184523Y-106202380D02*
X119184523Y-105202380D01*
X119613095Y-106202380D02*
X119613095Y-105678571D01*
X119565476Y-105583333D01*
X119470238Y-105535714D01*
X119327380Y-105535714D01*
X119232142Y-105583333D01*
X119184523Y-105630952D01*
X120089285Y-106202380D02*
X120089285Y-105535714D01*
X120089285Y-105202380D02*
X120041666Y-105250000D01*
X120089285Y-105297619D01*
X120136904Y-105250000D01*
X120089285Y-105202380D01*
X120089285Y-105297619D01*
X120565476Y-105535714D02*
X120565476Y-106202380D01*
X120565476Y-105630952D02*
X120613095Y-105583333D01*
X120708333Y-105535714D01*
X120851190Y-105535714D01*
X120946428Y-105583333D01*
X120994047Y-105678571D01*
X120994047Y-106202380D01*
X121898809Y-105535714D02*
X121898809Y-106345238D01*
X121851190Y-106440476D01*
X121803571Y-106488095D01*
X121708333Y-106535714D01*
X121565476Y-106535714D01*
X121470238Y-106488095D01*
X121898809Y-106154761D02*
X121803571Y-106202380D01*
X121613095Y-106202380D01*
X121517857Y-106154761D01*
X121470238Y-106107142D01*
X121422619Y-106011904D01*
X121422619Y-105726190D01*
X121470238Y-105630952D01*
X121517857Y-105583333D01*
X121613095Y-105535714D01*
X121803571Y-105535714D01*
X121898809Y-105583333D01*
X123565476Y-106154761D02*
X123470238Y-106202380D01*
X123279761Y-106202380D01*
X123184523Y-106154761D01*
X123136904Y-106107142D01*
X123089285Y-106011904D01*
X123089285Y-105726190D01*
X123136904Y-105630952D01*
X123184523Y-105583333D01*
X123279761Y-105535714D01*
X123470238Y-105535714D01*
X123565476Y-105583333D01*
X124136904Y-106202380D02*
X124041666Y-106154761D01*
X123994047Y-106107142D01*
X123946428Y-106011904D01*
X123946428Y-105726190D01*
X123994047Y-105630952D01*
X124041666Y-105583333D01*
X124136904Y-105535714D01*
X124279761Y-105535714D01*
X124375000Y-105583333D01*
X124422619Y-105630952D01*
X124470238Y-105726190D01*
X124470238Y-106011904D01*
X124422619Y-106107142D01*
X124375000Y-106154761D01*
X124279761Y-106202380D01*
X124136904Y-106202380D01*
X124898809Y-106202380D02*
X124898809Y-105535714D01*
X124898809Y-105630952D02*
X124946428Y-105583333D01*
X125041666Y-105535714D01*
X125184523Y-105535714D01*
X125279761Y-105583333D01*
X125327380Y-105678571D01*
X125327380Y-106202380D01*
X125327380Y-105678571D02*
X125375000Y-105583333D01*
X125470238Y-105535714D01*
X125613095Y-105535714D01*
X125708333Y-105583333D01*
X125755952Y-105678571D01*
X125755952Y-106202380D01*
X126232142Y-105535714D02*
X126232142Y-106535714D01*
X126232142Y-105583333D02*
X126327380Y-105535714D01*
X126517857Y-105535714D01*
X126613095Y-105583333D01*
X126660714Y-105630952D01*
X126708333Y-105726190D01*
X126708333Y-106011904D01*
X126660714Y-106107142D01*
X126613095Y-106154761D01*
X126517857Y-106202380D01*
X126327380Y-106202380D01*
X126232142Y-106154761D01*
X127565476Y-106202380D02*
X127565476Y-105678571D01*
X127517857Y-105583333D01*
X127422619Y-105535714D01*
X127232142Y-105535714D01*
X127136904Y-105583333D01*
X127565476Y-106154761D02*
X127470238Y-106202380D01*
X127232142Y-106202380D01*
X127136904Y-106154761D01*
X127089285Y-106059523D01*
X127089285Y-105964285D01*
X127136904Y-105869047D01*
X127232142Y-105821428D01*
X127470238Y-105821428D01*
X127565476Y-105773809D01*
X127898809Y-105535714D02*
X128279761Y-105535714D01*
X128041666Y-105202380D02*
X128041666Y-106059523D01*
X128089285Y-106154761D01*
X128184523Y-106202380D01*
X128279761Y-106202380D01*
X128613095Y-106202380D02*
X128613095Y-105535714D01*
X128613095Y-105202380D02*
X128565476Y-105250000D01*
X128613095Y-105297619D01*
X128660714Y-105250000D01*
X128613095Y-105202380D01*
X128613095Y-105297619D01*
X129089285Y-106202380D02*
X129089285Y-105202380D01*
X129089285Y-105583333D02*
X129184523Y-105535714D01*
X129375000Y-105535714D01*
X129470238Y-105583333D01*
X129517857Y-105630952D01*
X129565476Y-105726190D01*
X129565476Y-106011904D01*
X129517857Y-106107142D01*
X129470238Y-106154761D01*
X129375000Y-106202380D01*
X129184523Y-106202380D01*
X129089285Y-106154761D01*
X130136904Y-106202380D02*
X130041666Y-106154761D01*
X129994047Y-106059523D01*
X129994047Y-105202380D01*
X130898809Y-106154761D02*
X130803571Y-106202380D01*
X130613095Y-106202380D01*
X130517857Y-106154761D01*
X130470238Y-106059523D01*
X130470238Y-105678571D01*
X130517857Y-105583333D01*
X130613095Y-105535714D01*
X130803571Y-105535714D01*
X130898809Y-105583333D01*
X130946428Y-105678571D01*
X130946428Y-105773809D01*
X130470238Y-105869047D01*
D11*
X101512380Y-52023095D02*
X101079047Y-51404047D01*
X100769523Y-52023095D02*
X100769523Y-50723095D01*
X101264761Y-50723095D01*
X101388571Y-50785000D01*
X101450476Y-50846904D01*
X101512380Y-50970714D01*
X101512380Y-51156428D01*
X101450476Y-51280238D01*
X101388571Y-51342142D01*
X101264761Y-51404047D01*
X100769523Y-51404047D01*
X102007619Y-51651666D02*
X102626666Y-51651666D01*
X101883809Y-52023095D02*
X102317142Y-50723095D01*
X102750476Y-52023095D01*
X103183809Y-52023095D02*
X103183809Y-50723095D01*
X103617142Y-51651666D01*
X104050476Y-50723095D01*
X104050476Y-52023095D01*
X104669523Y-52023095D02*
X104669523Y-50723095D01*
X104669523Y-51342142D02*
X105412380Y-51342142D01*
X105412380Y-52023095D02*
X105412380Y-50723095D01*
D10*
X91225714Y-89343571D02*
X91892380Y-89343571D01*
X91225714Y-89772142D02*
X91749523Y-89772142D01*
X91844761Y-89724523D01*
X91892380Y-89629285D01*
X91892380Y-89486428D01*
X91844761Y-89391190D01*
X91797142Y-89343571D01*
X91844761Y-88915000D02*
X91892380Y-88819761D01*
X91892380Y-88629285D01*
X91844761Y-88534047D01*
X91749523Y-88486428D01*
X91701904Y-88486428D01*
X91606666Y-88534047D01*
X91559047Y-88629285D01*
X91559047Y-88772142D01*
X91511428Y-88867380D01*
X91416190Y-88915000D01*
X91368571Y-88915000D01*
X91273333Y-88867380D01*
X91225714Y-88772142D01*
X91225714Y-88629285D01*
X91273333Y-88534047D01*
X91844761Y-87676904D02*
X91892380Y-87772142D01*
X91892380Y-87962619D01*
X91844761Y-88057857D01*
X91749523Y-88105476D01*
X91368571Y-88105476D01*
X91273333Y-88057857D01*
X91225714Y-87962619D01*
X91225714Y-87772142D01*
X91273333Y-87676904D01*
X91368571Y-87629285D01*
X91463809Y-87629285D01*
X91559047Y-88105476D01*
X91844761Y-86486428D02*
X91892380Y-86391190D01*
X91892380Y-86200714D01*
X91844761Y-86105476D01*
X91749523Y-86057857D01*
X91701904Y-86057857D01*
X91606666Y-86105476D01*
X91559047Y-86200714D01*
X91559047Y-86343571D01*
X91511428Y-86438809D01*
X91416190Y-86486428D01*
X91368571Y-86486428D01*
X91273333Y-86438809D01*
X91225714Y-86343571D01*
X91225714Y-86200714D01*
X91273333Y-86105476D01*
X91225714Y-85772142D02*
X91225714Y-85391190D01*
X90892380Y-85629285D02*
X91749523Y-85629285D01*
X91844761Y-85581666D01*
X91892380Y-85486428D01*
X91892380Y-85391190D01*
X91892380Y-84629285D02*
X91368571Y-84629285D01*
X91273333Y-84676904D01*
X91225714Y-84772142D01*
X91225714Y-84962619D01*
X91273333Y-85057857D01*
X91844761Y-84629285D02*
X91892380Y-84724523D01*
X91892380Y-84962619D01*
X91844761Y-85057857D01*
X91749523Y-85105476D01*
X91654285Y-85105476D01*
X91559047Y-85057857D01*
X91511428Y-84962619D01*
X91511428Y-84724523D01*
X91463809Y-84629285D01*
X91844761Y-83724523D02*
X91892380Y-83819761D01*
X91892380Y-84010238D01*
X91844761Y-84105476D01*
X91797142Y-84153095D01*
X91701904Y-84200714D01*
X91416190Y-84200714D01*
X91320952Y-84153095D01*
X91273333Y-84105476D01*
X91225714Y-84010238D01*
X91225714Y-83819761D01*
X91273333Y-83724523D01*
X91892380Y-83295952D02*
X90892380Y-83295952D01*
X91511428Y-83200714D02*
X91892380Y-82915000D01*
X91225714Y-82915000D02*
X91606666Y-83295952D01*
X91892380Y-82486428D02*
X91225714Y-82486428D01*
X90892380Y-82486428D02*
X90940000Y-82534047D01*
X90987619Y-82486428D01*
X90940000Y-82438809D01*
X90892380Y-82486428D01*
X90987619Y-82486428D01*
X91225714Y-82010238D02*
X91892380Y-82010238D01*
X91320952Y-82010238D02*
X91273333Y-81962619D01*
X91225714Y-81867380D01*
X91225714Y-81724523D01*
X91273333Y-81629285D01*
X91368571Y-81581666D01*
X91892380Y-81581666D01*
X91225714Y-80676904D02*
X92035238Y-80676904D01*
X92130476Y-80724523D01*
X92178095Y-80772142D01*
X92225714Y-80867380D01*
X92225714Y-81010238D01*
X92178095Y-81105476D01*
X91844761Y-80676904D02*
X91892380Y-80772142D01*
X91892380Y-80962619D01*
X91844761Y-81057857D01*
X91797142Y-81105476D01*
X91701904Y-81153095D01*
X91416190Y-81153095D01*
X91320952Y-81105476D01*
X91273333Y-81057857D01*
X91225714Y-80962619D01*
X91225714Y-80772142D01*
X91273333Y-80676904D01*
X91892380Y-79438809D02*
X90892380Y-79438809D01*
X91892380Y-79010238D02*
X91368571Y-79010238D01*
X91273333Y-79057857D01*
X91225714Y-79153095D01*
X91225714Y-79295952D01*
X91273333Y-79391190D01*
X91320952Y-79438809D01*
X91844761Y-78153095D02*
X91892380Y-78248333D01*
X91892380Y-78438809D01*
X91844761Y-78534047D01*
X91749523Y-78581666D01*
X91368571Y-78581666D01*
X91273333Y-78534047D01*
X91225714Y-78438809D01*
X91225714Y-78248333D01*
X91273333Y-78153095D01*
X91368571Y-78105476D01*
X91463809Y-78105476D01*
X91559047Y-78581666D01*
X91892380Y-77248333D02*
X91368571Y-77248333D01*
X91273333Y-77295952D01*
X91225714Y-77391190D01*
X91225714Y-77581666D01*
X91273333Y-77676904D01*
X91844761Y-77248333D02*
X91892380Y-77343571D01*
X91892380Y-77581666D01*
X91844761Y-77676904D01*
X91749523Y-77724523D01*
X91654285Y-77724523D01*
X91559047Y-77676904D01*
X91511428Y-77581666D01*
X91511428Y-77343571D01*
X91463809Y-77248333D01*
X91892380Y-76343571D02*
X90892380Y-76343571D01*
X91844761Y-76343571D02*
X91892380Y-76438809D01*
X91892380Y-76629285D01*
X91844761Y-76724523D01*
X91797142Y-76772142D01*
X91701904Y-76819761D01*
X91416190Y-76819761D01*
X91320952Y-76772142D01*
X91273333Y-76724523D01*
X91225714Y-76629285D01*
X91225714Y-76438809D01*
X91273333Y-76343571D01*
X91844761Y-75486428D02*
X91892380Y-75581666D01*
X91892380Y-75772142D01*
X91844761Y-75867380D01*
X91749523Y-75915000D01*
X91368571Y-75915000D01*
X91273333Y-75867380D01*
X91225714Y-75772142D01*
X91225714Y-75581666D01*
X91273333Y-75486428D01*
X91368571Y-75438809D01*
X91463809Y-75438809D01*
X91559047Y-75915000D01*
X91892380Y-75010238D02*
X91225714Y-75010238D01*
X91416190Y-75010238D02*
X91320952Y-74962619D01*
X91273333Y-74915000D01*
X91225714Y-74819761D01*
X91225714Y-74724523D01*
X91844761Y-74438809D02*
X91892380Y-74343571D01*
X91892380Y-74153095D01*
X91844761Y-74057857D01*
X91749523Y-74010238D01*
X91701904Y-74010238D01*
X91606666Y-74057857D01*
X91559047Y-74153095D01*
X91559047Y-74295952D01*
X91511428Y-74391190D01*
X91416190Y-74438809D01*
X91368571Y-74438809D01*
X91273333Y-74391190D01*
X91225714Y-74295952D01*
X91225714Y-74153095D01*
X91273333Y-74057857D01*
X118055714Y-22677380D02*
X118055714Y-21677380D01*
X118531904Y-22010714D02*
X118531904Y-22677380D01*
X118531904Y-22105952D02*
X118579523Y-22058333D01*
X118674761Y-22010714D01*
X118817619Y-22010714D01*
X118912857Y-22058333D01*
X118960476Y-22153571D01*
X118960476Y-22677380D01*
X119293809Y-22010714D02*
X119674761Y-22010714D01*
X119436666Y-21677380D02*
X119436666Y-22534523D01*
X119484285Y-22629761D01*
X119579523Y-22677380D01*
X119674761Y-22677380D01*
X120389047Y-22629761D02*
X120293809Y-22677380D01*
X120103333Y-22677380D01*
X120008095Y-22629761D01*
X119960476Y-22534523D01*
X119960476Y-22153571D01*
X120008095Y-22058333D01*
X120103333Y-22010714D01*
X120293809Y-22010714D01*
X120389047Y-22058333D01*
X120436666Y-22153571D01*
X120436666Y-22248809D01*
X119960476Y-22344047D01*
X121008095Y-22677380D02*
X120912857Y-22629761D01*
X120865238Y-22534523D01*
X120865238Y-21677380D01*
X121531904Y-22677380D02*
X121436666Y-22629761D01*
X121389047Y-22534523D01*
X121389047Y-21677380D01*
X121912857Y-22677380D02*
X121912857Y-22010714D01*
X121912857Y-21677380D02*
X121865238Y-21725000D01*
X121912857Y-21772619D01*
X121960476Y-21725000D01*
X121912857Y-21677380D01*
X121912857Y-21772619D01*
X122293809Y-22010714D02*
X122531904Y-22677380D01*
X122770000Y-22010714D01*
X123150952Y-22677380D02*
X123150952Y-22010714D01*
X123150952Y-21677380D02*
X123103333Y-21725000D01*
X123150952Y-21772619D01*
X123198571Y-21725000D01*
X123150952Y-21677380D01*
X123150952Y-21772619D01*
X123579523Y-22629761D02*
X123674761Y-22677380D01*
X123865238Y-22677380D01*
X123960476Y-22629761D01*
X124008095Y-22534523D01*
X124008095Y-22486904D01*
X123960476Y-22391666D01*
X123865238Y-22344047D01*
X123722380Y-22344047D01*
X123627142Y-22296428D01*
X123579523Y-22201190D01*
X123579523Y-22153571D01*
X123627142Y-22058333D01*
X123722380Y-22010714D01*
X123865238Y-22010714D01*
X123960476Y-22058333D01*
X124436666Y-22677380D02*
X124436666Y-22010714D01*
X124436666Y-21677380D02*
X124389047Y-21725000D01*
X124436666Y-21772619D01*
X124484285Y-21725000D01*
X124436666Y-21677380D01*
X124436666Y-21772619D01*
X125055714Y-22677380D02*
X124960476Y-22629761D01*
X124912857Y-22582142D01*
X124865238Y-22486904D01*
X124865238Y-22201190D01*
X124912857Y-22105952D01*
X124960476Y-22058333D01*
X125055714Y-22010714D01*
X125198571Y-22010714D01*
X125293809Y-22058333D01*
X125341428Y-22105952D01*
X125389047Y-22201190D01*
X125389047Y-22486904D01*
X125341428Y-22582142D01*
X125293809Y-22629761D01*
X125198571Y-22677380D01*
X125055714Y-22677380D01*
X125817619Y-22010714D02*
X125817619Y-22677380D01*
X125817619Y-22105952D02*
X125865238Y-22058333D01*
X125960476Y-22010714D01*
X126103333Y-22010714D01*
X126198571Y-22058333D01*
X126246190Y-22153571D01*
X126246190Y-22677380D01*
X127341428Y-21677380D02*
X127912857Y-21677380D01*
X127627142Y-22677380D02*
X127627142Y-21677380D01*
X128246190Y-22296428D02*
X129008095Y-22296428D01*
X129912857Y-22629761D02*
X129817619Y-22677380D01*
X129627142Y-22677380D01*
X129531904Y-22629761D01*
X129484285Y-22582142D01*
X129436666Y-22486904D01*
X129436666Y-22201190D01*
X129484285Y-22105952D01*
X129531904Y-22058333D01*
X129627142Y-22010714D01*
X129817619Y-22010714D01*
X129912857Y-22058333D01*
X130770000Y-22677380D02*
X130770000Y-22153571D01*
X130722380Y-22058333D01*
X130627142Y-22010714D01*
X130436666Y-22010714D01*
X130341428Y-22058333D01*
X130770000Y-22629761D02*
X130674761Y-22677380D01*
X130436666Y-22677380D01*
X130341428Y-22629761D01*
X130293809Y-22534523D01*
X130293809Y-22439285D01*
X130341428Y-22344047D01*
X130436666Y-22296428D01*
X130674761Y-22296428D01*
X130770000Y-22248809D01*
X131246190Y-22677380D02*
X131246190Y-22010714D01*
X131246190Y-22201190D02*
X131293809Y-22105952D01*
X131341428Y-22058333D01*
X131436666Y-22010714D01*
X131531904Y-22010714D01*
X132293809Y-22677380D02*
X132293809Y-21677380D01*
X132293809Y-22629761D02*
X132198571Y-22677380D01*
X132008095Y-22677380D01*
X131912857Y-22629761D01*
X131865238Y-22582142D01*
X131817619Y-22486904D01*
X131817619Y-22201190D01*
X131865238Y-22105952D01*
X131912857Y-22058333D01*
X132008095Y-22010714D01*
X132198571Y-22010714D01*
X132293809Y-22058333D01*
X133531904Y-22677380D02*
X133531904Y-22010714D01*
X133531904Y-22105952D02*
X133579523Y-22058333D01*
X133674761Y-22010714D01*
X133817619Y-22010714D01*
X133912857Y-22058333D01*
X133960476Y-22153571D01*
X133960476Y-22677380D01*
X133960476Y-22153571D02*
X134008095Y-22058333D01*
X134103333Y-22010714D01*
X134246190Y-22010714D01*
X134341428Y-22058333D01*
X134389047Y-22153571D01*
X134389047Y-22677380D01*
X135008095Y-22677380D02*
X134912857Y-22629761D01*
X134865238Y-22582142D01*
X134817619Y-22486904D01*
X134817619Y-22201190D01*
X134865238Y-22105952D01*
X134912857Y-22058333D01*
X135008095Y-22010714D01*
X135150952Y-22010714D01*
X135246190Y-22058333D01*
X135293809Y-22105952D01*
X135341428Y-22201190D01*
X135341428Y-22486904D01*
X135293809Y-22582142D01*
X135246190Y-22629761D01*
X135150952Y-22677380D01*
X135008095Y-22677380D01*
X136198571Y-22677380D02*
X136198571Y-21677380D01*
X136198571Y-22629761D02*
X136103333Y-22677380D01*
X135912857Y-22677380D01*
X135817619Y-22629761D01*
X135770000Y-22582142D01*
X135722380Y-22486904D01*
X135722380Y-22201190D01*
X135770000Y-22105952D01*
X135817619Y-22058333D01*
X135912857Y-22010714D01*
X136103333Y-22010714D01*
X136198571Y-22058333D01*
X137103333Y-22010714D02*
X137103333Y-22677380D01*
X136674761Y-22010714D02*
X136674761Y-22534523D01*
X136722380Y-22629761D01*
X136817619Y-22677380D01*
X136960476Y-22677380D01*
X137055714Y-22629761D01*
X137103333Y-22582142D01*
X137722380Y-22677380D02*
X137627142Y-22629761D01*
X137579523Y-22534523D01*
X137579523Y-21677380D01*
X138484285Y-22629761D02*
X138389047Y-22677380D01*
X138198571Y-22677380D01*
X138103333Y-22629761D01*
X138055714Y-22534523D01*
X138055714Y-22153571D01*
X138103333Y-22058333D01*
X138198571Y-22010714D01*
X138389047Y-22010714D01*
X138484285Y-22058333D01*
X138531904Y-22153571D01*
X138531904Y-22248809D01*
X138055714Y-22344047D01*
D11*
X100769523Y-57103095D02*
X100769523Y-55803095D01*
X101512380Y-57103095D01*
X101512380Y-55803095D01*
X102874285Y-56979285D02*
X102812380Y-57041190D01*
X102626666Y-57103095D01*
X102502857Y-57103095D01*
X102317142Y-57041190D01*
X102193333Y-56917380D01*
X102131428Y-56793571D01*
X102069523Y-56545952D01*
X102069523Y-56360238D01*
X102131428Y-56112619D01*
X102193333Y-55988809D01*
X102317142Y-55865000D01*
X102502857Y-55803095D01*
X102626666Y-55803095D01*
X102812380Y-55865000D01*
X102874285Y-55926904D01*
D10*
X105339761Y-95532380D02*
X105339761Y-94532380D01*
X105673095Y-94865714D02*
X106054047Y-94865714D01*
X105815952Y-94532380D02*
X105815952Y-95389523D01*
X105863571Y-95484761D01*
X105958809Y-95532380D01*
X106054047Y-95532380D01*
X107577857Y-95484761D02*
X107482619Y-95532380D01*
X107292142Y-95532380D01*
X107196904Y-95484761D01*
X107149285Y-95437142D01*
X107101666Y-95341904D01*
X107101666Y-95056190D01*
X107149285Y-94960952D01*
X107196904Y-94913333D01*
X107292142Y-94865714D01*
X107482619Y-94865714D01*
X107577857Y-94913333D01*
X108434999Y-95532380D02*
X108434999Y-95008571D01*
X108387380Y-94913333D01*
X108292142Y-94865714D01*
X108101666Y-94865714D01*
X108006428Y-94913333D01*
X108434999Y-95484761D02*
X108339761Y-95532380D01*
X108101666Y-95532380D01*
X108006428Y-95484761D01*
X107958809Y-95389523D01*
X107958809Y-95294285D01*
X108006428Y-95199047D01*
X108101666Y-95151428D01*
X108339761Y-95151428D01*
X108434999Y-95103809D01*
X108911190Y-94865714D02*
X108911190Y-95532380D01*
X108911190Y-94960952D02*
X108958809Y-94913333D01*
X109054047Y-94865714D01*
X109196904Y-94865714D01*
X109292142Y-94913333D01*
X109339761Y-95008571D01*
X109339761Y-95532380D01*
X110577857Y-94865714D02*
X110577857Y-95865714D01*
X110577857Y-94913333D02*
X110673095Y-94865714D01*
X110863571Y-94865714D01*
X110958809Y-94913333D01*
X111006428Y-94960952D01*
X111054047Y-95056190D01*
X111054047Y-95341904D01*
X111006428Y-95437142D01*
X110958809Y-95484761D01*
X110863571Y-95532380D01*
X110673095Y-95532380D01*
X110577857Y-95484761D01*
X111482619Y-95532380D02*
X111482619Y-94865714D01*
X111482619Y-95056190D02*
X111530238Y-94960952D01*
X111577857Y-94913333D01*
X111673095Y-94865714D01*
X111768333Y-94865714D01*
X112244523Y-95532380D02*
X112149285Y-95484761D01*
X112101666Y-95437142D01*
X112054047Y-95341904D01*
X112054047Y-95056190D01*
X112101666Y-94960952D01*
X112149285Y-94913333D01*
X112244523Y-94865714D01*
X112387380Y-94865714D01*
X112482619Y-94913333D01*
X112530238Y-94960952D01*
X112577857Y-95056190D01*
X112577857Y-95341904D01*
X112530238Y-95437142D01*
X112482619Y-95484761D01*
X112387380Y-95532380D01*
X112244523Y-95532380D01*
X113006428Y-95532380D02*
X113006428Y-94532380D01*
X113006428Y-94913333D02*
X113101666Y-94865714D01*
X113292142Y-94865714D01*
X113387380Y-94913333D01*
X113434999Y-94960952D01*
X113482619Y-95056190D01*
X113482619Y-95341904D01*
X113434999Y-95437142D01*
X113387380Y-95484761D01*
X113292142Y-95532380D01*
X113101666Y-95532380D01*
X113006428Y-95484761D01*
X114339761Y-95532380D02*
X114339761Y-95008571D01*
X114292142Y-94913333D01*
X114196904Y-94865714D01*
X114006428Y-94865714D01*
X113911190Y-94913333D01*
X114339761Y-95484761D02*
X114244523Y-95532380D01*
X114006428Y-95532380D01*
X113911190Y-95484761D01*
X113863571Y-95389523D01*
X113863571Y-95294285D01*
X113911190Y-95199047D01*
X114006428Y-95151428D01*
X114244523Y-95151428D01*
X114339761Y-95103809D01*
X114815952Y-95532380D02*
X114815952Y-94532380D01*
X114815952Y-94913333D02*
X114911190Y-94865714D01*
X115101666Y-94865714D01*
X115196904Y-94913333D01*
X115244523Y-94960952D01*
X115292142Y-95056190D01*
X115292142Y-95341904D01*
X115244523Y-95437142D01*
X115196904Y-95484761D01*
X115101666Y-95532380D01*
X114911190Y-95532380D01*
X114815952Y-95484761D01*
X115863571Y-95532380D02*
X115768333Y-95484761D01*
X115720714Y-95389523D01*
X115720714Y-94532380D01*
X116149285Y-94865714D02*
X116387380Y-95532380D01*
X116625476Y-94865714D02*
X116387380Y-95532380D01*
X116292142Y-95770476D01*
X116244523Y-95818095D01*
X116149285Y-95865714D01*
X118196904Y-95532380D02*
X118196904Y-95008571D01*
X118149285Y-94913333D01*
X118054047Y-94865714D01*
X117863571Y-94865714D01*
X117768333Y-94913333D01*
X118196904Y-95484761D02*
X118101666Y-95532380D01*
X117863571Y-95532380D01*
X117768333Y-95484761D01*
X117720714Y-95389523D01*
X117720714Y-95294285D01*
X117768333Y-95199047D01*
X117863571Y-95151428D01*
X118101666Y-95151428D01*
X118196904Y-95103809D01*
X118815952Y-95532380D02*
X118720714Y-95484761D01*
X118673095Y-95389523D01*
X118673095Y-94532380D01*
X119149285Y-95484761D02*
X119244523Y-95532380D01*
X119434999Y-95532380D01*
X119530238Y-95484761D01*
X119577857Y-95389523D01*
X119577857Y-95341904D01*
X119530238Y-95246666D01*
X119434999Y-95199047D01*
X119292142Y-95199047D01*
X119196904Y-95151428D01*
X119149285Y-95056190D01*
X119149285Y-95008571D01*
X119196904Y-94913333D01*
X119292142Y-94865714D01*
X119434999Y-94865714D01*
X119530238Y-94913333D01*
X120149285Y-95532380D02*
X120054047Y-95484761D01*
X120006428Y-95437142D01*
X119958809Y-95341904D01*
X119958809Y-95056190D01*
X120006428Y-94960952D01*
X120054047Y-94913333D01*
X120149285Y-94865714D01*
X120292142Y-94865714D01*
X120387380Y-94913333D01*
X120434999Y-94960952D01*
X120482619Y-95056190D01*
X120482619Y-95341904D01*
X120434999Y-95437142D01*
X120387380Y-95484761D01*
X120292142Y-95532380D01*
X120149285Y-95532380D01*
X122101666Y-94865714D02*
X122101666Y-95532380D01*
X121673095Y-94865714D02*
X121673095Y-95389523D01*
X121720714Y-95484761D01*
X121815952Y-95532380D01*
X121958809Y-95532380D01*
X122054047Y-95484761D01*
X122101666Y-95437142D01*
X122530238Y-95484761D02*
X122625476Y-95532380D01*
X122815952Y-95532380D01*
X122911190Y-95484761D01*
X122958809Y-95389523D01*
X122958809Y-95341904D01*
X122911190Y-95246666D01*
X122815952Y-95199047D01*
X122673095Y-95199047D01*
X122577857Y-95151428D01*
X122530238Y-95056190D01*
X122530238Y-95008571D01*
X122577857Y-94913333D01*
X122673095Y-94865714D01*
X122815952Y-94865714D01*
X122911190Y-94913333D01*
X123768333Y-95484761D02*
X123673095Y-95532380D01*
X123482619Y-95532380D01*
X123387380Y-95484761D01*
X123339761Y-95389523D01*
X123339761Y-95008571D01*
X123387380Y-94913333D01*
X123482619Y-94865714D01*
X123673095Y-94865714D01*
X123768333Y-94913333D01*
X123815952Y-95008571D01*
X123815952Y-95103809D01*
X123339761Y-95199047D01*
X105530238Y-96237619D02*
X105577857Y-96190000D01*
X105673095Y-96142380D01*
X105911190Y-96142380D01*
X106006428Y-96190000D01*
X106054047Y-96237619D01*
X106101666Y-96332857D01*
X106101666Y-96428095D01*
X106054047Y-96570952D01*
X105482619Y-97142380D01*
X106101666Y-97142380D01*
X106530238Y-97142380D02*
X106530238Y-96142380D01*
X107101666Y-97142380D02*
X106673095Y-96570952D01*
X107101666Y-96142380D02*
X106530238Y-96713809D01*
X108292142Y-97142380D02*
X108292142Y-96142380D01*
X108292142Y-96523333D02*
X108387380Y-96475714D01*
X108577857Y-96475714D01*
X108673095Y-96523333D01*
X108720714Y-96570952D01*
X108768333Y-96666190D01*
X108768333Y-96951904D01*
X108720714Y-97047142D01*
X108673095Y-97094761D01*
X108577857Y-97142380D01*
X108387380Y-97142380D01*
X108292142Y-97094761D01*
X109625476Y-97142380D02*
X109625476Y-96618571D01*
X109577857Y-96523333D01*
X109482619Y-96475714D01*
X109292142Y-96475714D01*
X109196904Y-96523333D01*
X109625476Y-97094761D02*
X109530238Y-97142380D01*
X109292142Y-97142380D01*
X109196904Y-97094761D01*
X109149285Y-96999523D01*
X109149285Y-96904285D01*
X109196904Y-96809047D01*
X109292142Y-96761428D01*
X109530238Y-96761428D01*
X109625476Y-96713809D01*
X109958809Y-96475714D02*
X110339761Y-96475714D01*
X110101666Y-96142380D02*
X110101666Y-96999523D01*
X110149285Y-97094761D01*
X110244523Y-97142380D01*
X110339761Y-97142380D01*
X110530238Y-96475714D02*
X110911190Y-96475714D01*
X110673095Y-96142380D02*
X110673095Y-96999523D01*
X110720714Y-97094761D01*
X110815952Y-97142380D01*
X110911190Y-97142380D01*
X111625476Y-97094761D02*
X111530238Y-97142380D01*
X111339761Y-97142380D01*
X111244523Y-97094761D01*
X111196904Y-96999523D01*
X111196904Y-96618571D01*
X111244523Y-96523333D01*
X111339761Y-96475714D01*
X111530238Y-96475714D01*
X111625476Y-96523333D01*
X111673095Y-96618571D01*
X111673095Y-96713809D01*
X111196904Y-96809047D01*
X112101666Y-97142380D02*
X112101666Y-96475714D01*
X112101666Y-96666190D02*
X112149285Y-96570952D01*
X112196904Y-96523333D01*
X112292142Y-96475714D01*
X112387380Y-96475714D01*
X112625476Y-96475714D02*
X112863571Y-97142380D01*
X113101666Y-96475714D02*
X112863571Y-97142380D01*
X112768333Y-97380476D01*
X112720714Y-97428095D01*
X112625476Y-97475714D01*
X114244523Y-97142380D02*
X114244523Y-96142380D01*
X114244523Y-96523333D02*
X114339761Y-96475714D01*
X114530238Y-96475714D01*
X114625476Y-96523333D01*
X114673095Y-96570952D01*
X114720714Y-96666190D01*
X114720714Y-96951904D01*
X114673095Y-97047142D01*
X114625476Y-97094761D01*
X114530238Y-97142380D01*
X114339761Y-97142380D01*
X114244523Y-97094761D01*
X115577857Y-97142380D02*
X115577857Y-96618571D01*
X115530238Y-96523333D01*
X115435000Y-96475714D01*
X115244523Y-96475714D01*
X115149285Y-96523333D01*
X115577857Y-97094761D02*
X115482619Y-97142380D01*
X115244523Y-97142380D01*
X115149285Y-97094761D01*
X115101666Y-96999523D01*
X115101666Y-96904285D01*
X115149285Y-96809047D01*
X115244523Y-96761428D01*
X115482619Y-96761428D01*
X115577857Y-96713809D01*
X116482619Y-97094761D02*
X116387380Y-97142380D01*
X116196904Y-97142380D01*
X116101666Y-97094761D01*
X116054047Y-97047142D01*
X116006428Y-96951904D01*
X116006428Y-96666190D01*
X116054047Y-96570952D01*
X116101666Y-96523333D01*
X116196904Y-96475714D01*
X116387380Y-96475714D01*
X116482619Y-96523333D01*
X116911190Y-97142380D02*
X116911190Y-96142380D01*
X117006428Y-96761428D02*
X117292142Y-97142380D01*
X117292142Y-96475714D02*
X116911190Y-96856666D01*
X118101666Y-97094761D02*
X118006428Y-97142380D01*
X117815952Y-97142380D01*
X117720714Y-97094761D01*
X117673095Y-96999523D01*
X117673095Y-96618571D01*
X117720714Y-96523333D01*
X117815952Y-96475714D01*
X118006428Y-96475714D01*
X118101666Y-96523333D01*
X118149285Y-96618571D01*
X118149285Y-96713809D01*
X117673095Y-96809047D01*
X119006428Y-97142380D02*
X119006428Y-96142380D01*
X119006428Y-97094761D02*
X118911190Y-97142380D01*
X118720714Y-97142380D01*
X118625476Y-97094761D01*
X118577857Y-97047142D01*
X118530238Y-96951904D01*
X118530238Y-96666190D01*
X118577857Y-96570952D01*
X118625476Y-96523333D01*
X118720714Y-96475714D01*
X118911190Y-96475714D01*
X119006428Y-96523333D01*
X120244523Y-96475714D02*
X120244523Y-97142380D01*
X120244523Y-96570952D02*
X120292142Y-96523333D01*
X120387380Y-96475714D01*
X120530238Y-96475714D01*
X120625476Y-96523333D01*
X120673095Y-96618571D01*
X120673095Y-97142380D01*
X121054047Y-96475714D02*
X121292142Y-97142380D01*
X121530238Y-96475714D01*
X121911190Y-97142380D02*
X121911190Y-96475714D01*
X121911190Y-96666190D02*
X121958809Y-96570952D01*
X122006428Y-96523333D01*
X122101666Y-96475714D01*
X122196904Y-96475714D01*
X122958809Y-97142380D02*
X122958809Y-96618571D01*
X122911190Y-96523333D01*
X122815952Y-96475714D01*
X122625476Y-96475714D01*
X122530238Y-96523333D01*
X122958809Y-97094761D02*
X122863571Y-97142380D01*
X122625476Y-97142380D01*
X122530238Y-97094761D01*
X122482619Y-96999523D01*
X122482619Y-96904285D01*
X122530238Y-96809047D01*
X122625476Y-96761428D01*
X122863571Y-96761428D01*
X122958809Y-96713809D01*
X123435000Y-97142380D02*
X123435000Y-96475714D01*
X123435000Y-96570952D02*
X123482619Y-96523333D01*
X123577857Y-96475714D01*
X123720714Y-96475714D01*
X123815952Y-96523333D01*
X123863571Y-96618571D01*
X123863571Y-97142380D01*
X123863571Y-96618571D02*
X123911190Y-96523333D01*
X124006428Y-96475714D01*
X124149285Y-96475714D01*
X124244523Y-96523333D01*
X124292142Y-96618571D01*
X124292142Y-97142380D01*
X145200714Y-88073571D02*
X145867380Y-88073571D01*
X145200714Y-88502142D02*
X145724523Y-88502142D01*
X145819761Y-88454523D01*
X145867380Y-88359285D01*
X145867380Y-88216428D01*
X145819761Y-88121190D01*
X145772142Y-88073571D01*
X145819761Y-87645000D02*
X145867380Y-87549761D01*
X145867380Y-87359285D01*
X145819761Y-87264047D01*
X145724523Y-87216428D01*
X145676904Y-87216428D01*
X145581666Y-87264047D01*
X145534047Y-87359285D01*
X145534047Y-87502142D01*
X145486428Y-87597380D01*
X145391190Y-87645000D01*
X145343571Y-87645000D01*
X145248333Y-87597380D01*
X145200714Y-87502142D01*
X145200714Y-87359285D01*
X145248333Y-87264047D01*
X145819761Y-86406904D02*
X145867380Y-86502142D01*
X145867380Y-86692619D01*
X145819761Y-86787857D01*
X145724523Y-86835476D01*
X145343571Y-86835476D01*
X145248333Y-86787857D01*
X145200714Y-86692619D01*
X145200714Y-86502142D01*
X145248333Y-86406904D01*
X145343571Y-86359285D01*
X145438809Y-86359285D01*
X145534047Y-86835476D01*
X145819761Y-85216428D02*
X145867380Y-85121190D01*
X145867380Y-84930714D01*
X145819761Y-84835476D01*
X145724523Y-84787857D01*
X145676904Y-84787857D01*
X145581666Y-84835476D01*
X145534047Y-84930714D01*
X145534047Y-85073571D01*
X145486428Y-85168809D01*
X145391190Y-85216428D01*
X145343571Y-85216428D01*
X145248333Y-85168809D01*
X145200714Y-85073571D01*
X145200714Y-84930714D01*
X145248333Y-84835476D01*
X145200714Y-84502142D02*
X145200714Y-84121190D01*
X144867380Y-84359285D02*
X145724523Y-84359285D01*
X145819761Y-84311666D01*
X145867380Y-84216428D01*
X145867380Y-84121190D01*
X145867380Y-83359285D02*
X145343571Y-83359285D01*
X145248333Y-83406904D01*
X145200714Y-83502142D01*
X145200714Y-83692619D01*
X145248333Y-83787857D01*
X145819761Y-83359285D02*
X145867380Y-83454523D01*
X145867380Y-83692619D01*
X145819761Y-83787857D01*
X145724523Y-83835476D01*
X145629285Y-83835476D01*
X145534047Y-83787857D01*
X145486428Y-83692619D01*
X145486428Y-83454523D01*
X145438809Y-83359285D01*
X145819761Y-82454523D02*
X145867380Y-82549761D01*
X145867380Y-82740238D01*
X145819761Y-82835476D01*
X145772142Y-82883095D01*
X145676904Y-82930714D01*
X145391190Y-82930714D01*
X145295952Y-82883095D01*
X145248333Y-82835476D01*
X145200714Y-82740238D01*
X145200714Y-82549761D01*
X145248333Y-82454523D01*
X145867380Y-82025952D02*
X144867380Y-82025952D01*
X145486428Y-81930714D02*
X145867380Y-81645000D01*
X145200714Y-81645000D02*
X145581666Y-82025952D01*
X145867380Y-81216428D02*
X145200714Y-81216428D01*
X144867380Y-81216428D02*
X144915000Y-81264047D01*
X144962619Y-81216428D01*
X144915000Y-81168809D01*
X144867380Y-81216428D01*
X144962619Y-81216428D01*
X145200714Y-80740238D02*
X145867380Y-80740238D01*
X145295952Y-80740238D02*
X145248333Y-80692619D01*
X145200714Y-80597380D01*
X145200714Y-80454523D01*
X145248333Y-80359285D01*
X145343571Y-80311666D01*
X145867380Y-80311666D01*
X145200714Y-79406904D02*
X146010238Y-79406904D01*
X146105476Y-79454523D01*
X146153095Y-79502142D01*
X146200714Y-79597380D01*
X146200714Y-79740238D01*
X146153095Y-79835476D01*
X145819761Y-79406904D02*
X145867380Y-79502142D01*
X145867380Y-79692619D01*
X145819761Y-79787857D01*
X145772142Y-79835476D01*
X145676904Y-79883095D01*
X145391190Y-79883095D01*
X145295952Y-79835476D01*
X145248333Y-79787857D01*
X145200714Y-79692619D01*
X145200714Y-79502142D01*
X145248333Y-79406904D01*
X145867380Y-78168809D02*
X144867380Y-78168809D01*
X145867380Y-77740238D02*
X145343571Y-77740238D01*
X145248333Y-77787857D01*
X145200714Y-77883095D01*
X145200714Y-78025952D01*
X145248333Y-78121190D01*
X145295952Y-78168809D01*
X145819761Y-76883095D02*
X145867380Y-76978333D01*
X145867380Y-77168809D01*
X145819761Y-77264047D01*
X145724523Y-77311666D01*
X145343571Y-77311666D01*
X145248333Y-77264047D01*
X145200714Y-77168809D01*
X145200714Y-76978333D01*
X145248333Y-76883095D01*
X145343571Y-76835476D01*
X145438809Y-76835476D01*
X145534047Y-77311666D01*
X145867380Y-75978333D02*
X145343571Y-75978333D01*
X145248333Y-76025952D01*
X145200714Y-76121190D01*
X145200714Y-76311666D01*
X145248333Y-76406904D01*
X145819761Y-75978333D02*
X145867380Y-76073571D01*
X145867380Y-76311666D01*
X145819761Y-76406904D01*
X145724523Y-76454523D01*
X145629285Y-76454523D01*
X145534047Y-76406904D01*
X145486428Y-76311666D01*
X145486428Y-76073571D01*
X145438809Y-75978333D01*
X145867380Y-75073571D02*
X144867380Y-75073571D01*
X145819761Y-75073571D02*
X145867380Y-75168809D01*
X145867380Y-75359285D01*
X145819761Y-75454523D01*
X145772142Y-75502142D01*
X145676904Y-75549761D01*
X145391190Y-75549761D01*
X145295952Y-75502142D01*
X145248333Y-75454523D01*
X145200714Y-75359285D01*
X145200714Y-75168809D01*
X145248333Y-75073571D01*
X145819761Y-74216428D02*
X145867380Y-74311666D01*
X145867380Y-74502142D01*
X145819761Y-74597380D01*
X145724523Y-74645000D01*
X145343571Y-74645000D01*
X145248333Y-74597380D01*
X145200714Y-74502142D01*
X145200714Y-74311666D01*
X145248333Y-74216428D01*
X145343571Y-74168809D01*
X145438809Y-74168809D01*
X145534047Y-74645000D01*
X145867380Y-73740238D02*
X145200714Y-73740238D01*
X145391190Y-73740238D02*
X145295952Y-73692619D01*
X145248333Y-73645000D01*
X145200714Y-73549761D01*
X145200714Y-73454523D01*
X145819761Y-73168809D02*
X145867380Y-73073571D01*
X145867380Y-72883095D01*
X145819761Y-72787857D01*
X145724523Y-72740238D01*
X145676904Y-72740238D01*
X145581666Y-72787857D01*
X145534047Y-72883095D01*
X145534047Y-73025952D01*
X145486428Y-73121190D01*
X145391190Y-73168809D01*
X145343571Y-73168809D01*
X145248333Y-73121190D01*
X145200714Y-73025952D01*
X145200714Y-72883095D01*
X145248333Y-72787857D01*
X105768095Y-72307380D02*
X106339523Y-72307380D01*
X106053809Y-73307380D02*
X106053809Y-72307380D01*
X106672857Y-73307380D02*
X106672857Y-72307380D01*
X107101428Y-73307380D02*
X107101428Y-72783571D01*
X107053809Y-72688333D01*
X106958571Y-72640714D01*
X106815714Y-72640714D01*
X106720476Y-72688333D01*
X106672857Y-72735952D01*
X107577619Y-73307380D02*
X107577619Y-72640714D01*
X107577619Y-72307380D02*
X107529999Y-72355000D01*
X107577619Y-72402619D01*
X107625238Y-72355000D01*
X107577619Y-72307380D01*
X107577619Y-72402619D01*
X108006190Y-73259761D02*
X108101428Y-73307380D01*
X108291904Y-73307380D01*
X108387142Y-73259761D01*
X108434761Y-73164523D01*
X108434761Y-73116904D01*
X108387142Y-73021666D01*
X108291904Y-72974047D01*
X108149047Y-72974047D01*
X108053809Y-72926428D01*
X108006190Y-72831190D01*
X108006190Y-72783571D01*
X108053809Y-72688333D01*
X108149047Y-72640714D01*
X108291904Y-72640714D01*
X108387142Y-72688333D01*
X109625238Y-73307380D02*
X109625238Y-72307380D01*
X109625238Y-72688333D02*
X109720476Y-72640714D01*
X109910952Y-72640714D01*
X110006190Y-72688333D01*
X110053809Y-72735952D01*
X110101428Y-72831190D01*
X110101428Y-73116904D01*
X110053809Y-73212142D01*
X110006190Y-73259761D01*
X109910952Y-73307380D01*
X109720476Y-73307380D01*
X109625238Y-73259761D01*
X110672857Y-73307380D02*
X110577619Y-73259761D01*
X110529999Y-73212142D01*
X110482380Y-73116904D01*
X110482380Y-72831190D01*
X110529999Y-72735952D01*
X110577619Y-72688333D01*
X110672857Y-72640714D01*
X110815714Y-72640714D01*
X110910952Y-72688333D01*
X110958571Y-72735952D01*
X111006190Y-72831190D01*
X111006190Y-73116904D01*
X110958571Y-73212142D01*
X110910952Y-73259761D01*
X110815714Y-73307380D01*
X110672857Y-73307380D01*
X111863333Y-73307380D02*
X111863333Y-72783571D01*
X111815714Y-72688333D01*
X111720476Y-72640714D01*
X111529999Y-72640714D01*
X111434761Y-72688333D01*
X111863333Y-73259761D02*
X111768095Y-73307380D01*
X111529999Y-73307380D01*
X111434761Y-73259761D01*
X111387142Y-73164523D01*
X111387142Y-73069285D01*
X111434761Y-72974047D01*
X111529999Y-72926428D01*
X111768095Y-72926428D01*
X111863333Y-72878809D01*
X112339523Y-73307380D02*
X112339523Y-72640714D01*
X112339523Y-72831190D02*
X112387142Y-72735952D01*
X112434761Y-72688333D01*
X112529999Y-72640714D01*
X112625238Y-72640714D01*
X113387142Y-73307380D02*
X113387142Y-72307380D01*
X113387142Y-73259761D02*
X113291904Y-73307380D01*
X113101428Y-73307380D01*
X113006190Y-73259761D01*
X112958571Y-73212142D01*
X112910952Y-73116904D01*
X112910952Y-72831190D01*
X112958571Y-72735952D01*
X113006190Y-72688333D01*
X113101428Y-72640714D01*
X113291904Y-72640714D01*
X113387142Y-72688333D01*
X115053809Y-73259761D02*
X114958571Y-73307380D01*
X114768095Y-73307380D01*
X114672857Y-73259761D01*
X114625238Y-73212142D01*
X114577619Y-73116904D01*
X114577619Y-72831190D01*
X114625238Y-72735952D01*
X114672857Y-72688333D01*
X114768095Y-72640714D01*
X114958571Y-72640714D01*
X115053809Y-72688333D01*
X115910952Y-73307380D02*
X115910952Y-72783571D01*
X115863333Y-72688333D01*
X115768095Y-72640714D01*
X115577619Y-72640714D01*
X115482380Y-72688333D01*
X115910952Y-73259761D02*
X115815714Y-73307380D01*
X115577619Y-73307380D01*
X115482380Y-73259761D01*
X115434761Y-73164523D01*
X115434761Y-73069285D01*
X115482380Y-72974047D01*
X115577619Y-72926428D01*
X115815714Y-72926428D01*
X115910952Y-72878809D01*
X116387142Y-72640714D02*
X116387142Y-73307380D01*
X116387142Y-72735952D02*
X116434761Y-72688333D01*
X116529999Y-72640714D01*
X116672857Y-72640714D01*
X116768095Y-72688333D01*
X116815714Y-72783571D01*
X116815714Y-73307380D01*
X118482380Y-72640714D02*
X118482380Y-73307380D01*
X118053809Y-72640714D02*
X118053809Y-73164523D01*
X118101428Y-73259761D01*
X118196666Y-73307380D01*
X118339523Y-73307380D01*
X118434761Y-73259761D01*
X118482380Y-73212142D01*
X118910952Y-73259761D02*
X119006190Y-73307380D01*
X119196666Y-73307380D01*
X119291904Y-73259761D01*
X119339523Y-73164523D01*
X119339523Y-73116904D01*
X119291904Y-73021666D01*
X119196666Y-72974047D01*
X119053809Y-72974047D01*
X118958571Y-72926428D01*
X118910952Y-72831190D01*
X118910952Y-72783571D01*
X118958571Y-72688333D01*
X119053809Y-72640714D01*
X119196666Y-72640714D01*
X119291904Y-72688333D01*
X120149047Y-73259761D02*
X120053809Y-73307380D01*
X119863333Y-73307380D01*
X119768095Y-73259761D01*
X119720476Y-73164523D01*
X119720476Y-72783571D01*
X119768095Y-72688333D01*
X119863333Y-72640714D01*
X120053809Y-72640714D01*
X120149047Y-72688333D01*
X120196666Y-72783571D01*
X120196666Y-72878809D01*
X119720476Y-72974047D01*
X110506190Y-74250714D02*
X110506190Y-74917380D01*
X110268095Y-73869761D02*
X110030000Y-74584047D01*
X110649047Y-74584047D01*
X111030000Y-74917380D02*
X111030000Y-73917380D01*
X111601428Y-74917380D02*
X111172857Y-74345952D01*
X111601428Y-73917380D02*
X111030000Y-74488809D01*
X112791904Y-74917380D02*
X112791904Y-74250714D01*
X112791904Y-74441190D02*
X112839523Y-74345952D01*
X112887142Y-74298333D01*
X112982380Y-74250714D01*
X113077619Y-74250714D01*
X113553809Y-74917380D02*
X113458571Y-74869761D01*
X113410952Y-74822142D01*
X113363333Y-74726904D01*
X113363333Y-74441190D01*
X113410952Y-74345952D01*
X113458571Y-74298333D01*
X113553809Y-74250714D01*
X113696666Y-74250714D01*
X113791904Y-74298333D01*
X113839523Y-74345952D01*
X113887142Y-74441190D01*
X113887142Y-74726904D01*
X113839523Y-74822142D01*
X113791904Y-74869761D01*
X113696666Y-74917380D01*
X113553809Y-74917380D01*
X114315714Y-74917380D02*
X114315714Y-74250714D01*
X114315714Y-74345952D02*
X114363333Y-74298333D01*
X114458571Y-74250714D01*
X114601428Y-74250714D01*
X114696666Y-74298333D01*
X114744285Y-74393571D01*
X114744285Y-74917380D01*
X114744285Y-74393571D02*
X114791904Y-74298333D01*
X114887142Y-74250714D01*
X115030000Y-74250714D01*
X115125238Y-74298333D01*
X115172857Y-74393571D01*
X115172857Y-74917380D01*
X115601428Y-74869761D02*
X115696666Y-74917380D01*
X115887142Y-74917380D01*
X115982380Y-74869761D01*
X116030000Y-74774523D01*
X116030000Y-74726904D01*
X115982380Y-74631666D01*
X115887142Y-74584047D01*
X115744285Y-74584047D01*
X115649047Y-74536428D01*
X115601428Y-74441190D01*
X115601428Y-74393571D01*
X115649047Y-74298333D01*
X115744285Y-74250714D01*
X115887142Y-74250714D01*
X115982380Y-74298333D01*
D11*
X101382380Y-49483095D02*
X100949047Y-48864047D01*
X100639523Y-49483095D02*
X100639523Y-48183095D01*
X101134761Y-48183095D01*
X101258571Y-48245000D01*
X101320476Y-48306904D01*
X101382380Y-48430714D01*
X101382380Y-48616428D01*
X101320476Y-48740238D01*
X101258571Y-48802142D01*
X101134761Y-48864047D01*
X100639523Y-48864047D01*
X101877619Y-49111666D02*
X102496666Y-49111666D01*
X101753809Y-49483095D02*
X102187142Y-48183095D01*
X102620476Y-49483095D01*
X103053809Y-49483095D02*
X103053809Y-48183095D01*
X103487142Y-49111666D01*
X103920476Y-48183095D01*
X103920476Y-49483095D01*
D10*
X108413333Y-66534880D02*
X108080000Y-66058690D01*
X107841904Y-66534880D02*
X107841904Y-65534880D01*
X108222857Y-65534880D01*
X108318095Y-65582500D01*
X108365714Y-65630119D01*
X108413333Y-65725357D01*
X108413333Y-65868214D01*
X108365714Y-65963452D01*
X108318095Y-66011071D01*
X108222857Y-66058690D01*
X107841904Y-66058690D01*
X109270476Y-65534880D02*
X109080000Y-65534880D01*
X108984761Y-65582500D01*
X108937142Y-65630119D01*
X108841904Y-65772976D01*
X108794285Y-65963452D01*
X108794285Y-66344404D01*
X108841904Y-66439642D01*
X108889523Y-66487261D01*
X108984761Y-66534880D01*
X109175238Y-66534880D01*
X109270476Y-66487261D01*
X109318095Y-66439642D01*
X109365714Y-66344404D01*
X109365714Y-66106309D01*
X109318095Y-66011071D01*
X109270476Y-65963452D01*
X109175238Y-65915833D01*
X108984761Y-65915833D01*
X108889523Y-65963452D01*
X108841904Y-66011071D01*
X108794285Y-66106309D01*
X112175714Y-66534880D02*
X111604285Y-66534880D01*
X111890000Y-66534880D02*
X111890000Y-65534880D01*
X111794761Y-65677738D01*
X111699523Y-65772976D01*
X111604285Y-65820595D01*
X112604285Y-66534880D02*
X112604285Y-65534880D01*
X113175714Y-66534880D02*
X112747142Y-65963452D01*
X113175714Y-65534880D02*
X112604285Y-66106309D01*
X135067380Y-54184166D02*
X134591190Y-54517500D01*
X135067380Y-54755595D02*
X134067380Y-54755595D01*
X134067380Y-54374642D01*
X134115000Y-54279404D01*
X134162619Y-54231785D01*
X134257857Y-54184166D01*
X134400714Y-54184166D01*
X134495952Y-54231785D01*
X134543571Y-54279404D01*
X134591190Y-54374642D01*
X134591190Y-54755595D01*
X135067380Y-53231785D02*
X135067380Y-53803214D01*
X135067380Y-53517500D02*
X134067380Y-53517500D01*
X134210238Y-53612738D01*
X134305476Y-53707976D01*
X134353095Y-53803214D01*
X135067380Y-50421785D02*
X135067380Y-50993214D01*
X135067380Y-50707500D02*
X134067380Y-50707500D01*
X134210238Y-50802738D01*
X134305476Y-50897976D01*
X134353095Y-50993214D01*
X135067380Y-49993214D02*
X134067380Y-49993214D01*
X135067380Y-49421785D02*
X134495952Y-49850357D01*
X134067380Y-49421785D02*
X134638809Y-49993214D01*
X132527380Y-53549166D02*
X132051190Y-53882500D01*
X132527380Y-54120595D02*
X131527380Y-54120595D01*
X131527380Y-53739642D01*
X131575000Y-53644404D01*
X131622619Y-53596785D01*
X131717857Y-53549166D01*
X131860714Y-53549166D01*
X131955952Y-53596785D01*
X132003571Y-53644404D01*
X132051190Y-53739642D01*
X132051190Y-54120595D01*
X131622619Y-53168214D02*
X131575000Y-53120595D01*
X131527380Y-53025357D01*
X131527380Y-52787261D01*
X131575000Y-52692023D01*
X131622619Y-52644404D01*
X131717857Y-52596785D01*
X131813095Y-52596785D01*
X131955952Y-52644404D01*
X132527380Y-53215833D01*
X132527380Y-52596785D01*
X132527380Y-50421785D02*
X132527380Y-50993214D01*
X132527380Y-50707500D02*
X131527380Y-50707500D01*
X131670238Y-50802738D01*
X131765476Y-50897976D01*
X131813095Y-50993214D01*
X132527380Y-49993214D02*
X131527380Y-49993214D01*
X132527380Y-49421785D02*
X131955952Y-49850357D01*
X131527380Y-49421785D02*
X132098809Y-49993214D01*
X113518333Y-44012142D02*
X113470714Y-44059761D01*
X113327857Y-44107380D01*
X113232619Y-44107380D01*
X113089761Y-44059761D01*
X112994523Y-43964523D01*
X112946904Y-43869285D01*
X112899285Y-43678809D01*
X112899285Y-43535952D01*
X112946904Y-43345476D01*
X112994523Y-43250238D01*
X113089761Y-43155000D01*
X113232619Y-43107380D01*
X113327857Y-43107380D01*
X113470714Y-43155000D01*
X113518333Y-43202619D01*
X113899285Y-43202619D02*
X113946904Y-43155000D01*
X114042142Y-43107380D01*
X114280238Y-43107380D01*
X114375476Y-43155000D01*
X114423095Y-43202619D01*
X114470714Y-43297857D01*
X114470714Y-43393095D01*
X114423095Y-43535952D01*
X113851666Y-44107380D01*
X114470714Y-44107380D01*
X106762380Y-101610595D02*
X107571904Y-101610595D01*
X107667142Y-101562976D01*
X107714761Y-101515357D01*
X107762380Y-101420119D01*
X107762380Y-101229642D01*
X107714761Y-101134404D01*
X107667142Y-101086785D01*
X107571904Y-101039166D01*
X106762380Y-101039166D01*
X107762380Y-100039166D02*
X107762380Y-100610595D01*
X107762380Y-100324880D02*
X106762380Y-100324880D01*
X106905238Y-100420119D01*
X107000476Y-100515357D01*
X107048095Y-100610595D01*
X107190952Y-99467738D02*
X107143333Y-99562976D01*
X107095714Y-99610595D01*
X107000476Y-99658214D01*
X106952857Y-99658214D01*
X106857619Y-99610595D01*
X106810000Y-99562976D01*
X106762380Y-99467738D01*
X106762380Y-99277261D01*
X106810000Y-99182023D01*
X106857619Y-99134404D01*
X106952857Y-99086785D01*
X107000476Y-99086785D01*
X107095714Y-99134404D01*
X107143333Y-99182023D01*
X107190952Y-99277261D01*
X107190952Y-99467738D01*
X107238571Y-99562976D01*
X107286190Y-99610595D01*
X107381428Y-99658214D01*
X107571904Y-99658214D01*
X107667142Y-99610595D01*
X107714761Y-99562976D01*
X107762380Y-99467738D01*
X107762380Y-99277261D01*
X107714761Y-99182023D01*
X107667142Y-99134404D01*
X107571904Y-99086785D01*
X107381428Y-99086785D01*
X107286190Y-99134404D01*
X107238571Y-99182023D01*
X107190952Y-99277261D01*
X108443095Y-38864880D02*
X108443095Y-39674404D01*
X108490714Y-39769642D01*
X108538333Y-39817261D01*
X108633571Y-39864880D01*
X108824047Y-39864880D01*
X108919285Y-39817261D01*
X108966904Y-39769642D01*
X109014523Y-39674404D01*
X109014523Y-38864880D01*
X109633571Y-39293452D02*
X109538333Y-39245833D01*
X109490714Y-39198214D01*
X109443095Y-39102976D01*
X109443095Y-39055357D01*
X109490714Y-38960119D01*
X109538333Y-38912500D01*
X109633571Y-38864880D01*
X109824047Y-38864880D01*
X109919285Y-38912500D01*
X109966904Y-38960119D01*
X110014523Y-39055357D01*
X110014523Y-39102976D01*
X109966904Y-39198214D01*
X109919285Y-39245833D01*
X109824047Y-39293452D01*
X109633571Y-39293452D01*
X109538333Y-39341071D01*
X109490714Y-39388690D01*
X109443095Y-39483928D01*
X109443095Y-39674404D01*
X109490714Y-39769642D01*
X109538333Y-39817261D01*
X109633571Y-39864880D01*
X109824047Y-39864880D01*
X109919285Y-39817261D01*
X109966904Y-39769642D01*
X110014523Y-39674404D01*
X110014523Y-39483928D01*
X109966904Y-39388690D01*
X109919285Y-39341071D01*
X109824047Y-39293452D01*
X108667380Y-29990357D02*
X108667380Y-29323690D01*
X109667380Y-29752261D01*
X109000714Y-28514166D02*
X109667380Y-28514166D01*
X108619761Y-28752261D02*
X109334047Y-28990357D01*
X109334047Y-28371309D01*
X109667380Y-27514166D02*
X109667380Y-27990357D01*
X108667380Y-27990357D01*
X109619761Y-27228452D02*
X109667380Y-27085595D01*
X109667380Y-26847500D01*
X109619761Y-26752261D01*
X109572142Y-26704642D01*
X109476904Y-26657023D01*
X109381666Y-26657023D01*
X109286428Y-26704642D01*
X109238809Y-26752261D01*
X109191190Y-26847500D01*
X109143571Y-27037976D01*
X109095952Y-27133214D01*
X109048333Y-27180833D01*
X108953095Y-27228452D01*
X108857857Y-27228452D01*
X108762619Y-27180833D01*
X108715000Y-27133214D01*
X108667380Y-27037976D01*
X108667380Y-26799880D01*
X108715000Y-26657023D01*
X109095952Y-26085595D02*
X109048333Y-26180833D01*
X109000714Y-26228452D01*
X108905476Y-26276071D01*
X108857857Y-26276071D01*
X108762619Y-26228452D01*
X108715000Y-26180833D01*
X108667380Y-26085595D01*
X108667380Y-25895119D01*
X108715000Y-25799880D01*
X108762619Y-25752261D01*
X108857857Y-25704642D01*
X108905476Y-25704642D01*
X109000714Y-25752261D01*
X109048333Y-25799880D01*
X109095952Y-25895119D01*
X109095952Y-26085595D01*
X109143571Y-26180833D01*
X109191190Y-26228452D01*
X109286428Y-26276071D01*
X109476904Y-26276071D01*
X109572142Y-26228452D01*
X109619761Y-26180833D01*
X109667380Y-26085595D01*
X109667380Y-25895119D01*
X109619761Y-25799880D01*
X109572142Y-25752261D01*
X109476904Y-25704642D01*
X109286428Y-25704642D01*
X109191190Y-25752261D01*
X109143571Y-25799880D01*
X109095952Y-25895119D01*
X108667380Y-24799880D02*
X108667380Y-25276071D01*
X109143571Y-25323690D01*
X109095952Y-25276071D01*
X109048333Y-25180833D01*
X109048333Y-24942738D01*
X109095952Y-24847500D01*
X109143571Y-24799880D01*
X109238809Y-24752261D01*
X109476904Y-24752261D01*
X109572142Y-24799880D01*
X109619761Y-24847500D01*
X109667380Y-24942738D01*
X109667380Y-25180833D01*
X109619761Y-25276071D01*
X109572142Y-25323690D01*
X123653333Y-63994880D02*
X123320000Y-63518690D01*
X123081904Y-63994880D02*
X123081904Y-62994880D01*
X123462857Y-62994880D01*
X123558095Y-63042500D01*
X123605714Y-63090119D01*
X123653333Y-63185357D01*
X123653333Y-63328214D01*
X123605714Y-63423452D01*
X123558095Y-63471071D01*
X123462857Y-63518690D01*
X123081904Y-63518690D01*
X123986666Y-62994880D02*
X124605714Y-62994880D01*
X124272380Y-63375833D01*
X124415238Y-63375833D01*
X124510476Y-63423452D01*
X124558095Y-63471071D01*
X124605714Y-63566309D01*
X124605714Y-63804404D01*
X124558095Y-63899642D01*
X124510476Y-63947261D01*
X124415238Y-63994880D01*
X124129523Y-63994880D01*
X124034285Y-63947261D01*
X123986666Y-63899642D01*
X127415714Y-63994880D02*
X126844285Y-63994880D01*
X127130000Y-63994880D02*
X127130000Y-62994880D01*
X127034761Y-63137738D01*
X126939523Y-63232976D01*
X126844285Y-63280595D01*
X127844285Y-63994880D02*
X127844285Y-62994880D01*
X128415714Y-63994880D02*
X127987142Y-63423452D01*
X128415714Y-62994880D02*
X127844285Y-63566309D01*
X123653333Y-66534880D02*
X123320000Y-66058690D01*
X123081904Y-66534880D02*
X123081904Y-65534880D01*
X123462857Y-65534880D01*
X123558095Y-65582500D01*
X123605714Y-65630119D01*
X123653333Y-65725357D01*
X123653333Y-65868214D01*
X123605714Y-65963452D01*
X123558095Y-66011071D01*
X123462857Y-66058690D01*
X123081904Y-66058690D01*
X124510476Y-65868214D02*
X124510476Y-66534880D01*
X124272380Y-65487261D02*
X124034285Y-66201547D01*
X124653333Y-66201547D01*
X127415714Y-66534880D02*
X126844285Y-66534880D01*
X127130000Y-66534880D02*
X127130000Y-65534880D01*
X127034761Y-65677738D01*
X126939523Y-65772976D01*
X126844285Y-65820595D01*
X127844285Y-66534880D02*
X127844285Y-65534880D01*
X128415714Y-66534880D02*
X127987142Y-65963452D01*
X128415714Y-65534880D02*
X127844285Y-66106309D01*
X106762380Y-78750595D02*
X107571904Y-78750595D01*
X107667142Y-78702976D01*
X107714761Y-78655357D01*
X107762380Y-78560119D01*
X107762380Y-78369642D01*
X107714761Y-78274404D01*
X107667142Y-78226785D01*
X107571904Y-78179166D01*
X106762380Y-78179166D01*
X106857619Y-77750595D02*
X106810000Y-77702976D01*
X106762380Y-77607738D01*
X106762380Y-77369642D01*
X106810000Y-77274404D01*
X106857619Y-77226785D01*
X106952857Y-77179166D01*
X107048095Y-77179166D01*
X107190952Y-77226785D01*
X107762380Y-77798214D01*
X107762380Y-77179166D01*
X106857619Y-76798214D02*
X106810000Y-76750595D01*
X106762380Y-76655357D01*
X106762380Y-76417261D01*
X106810000Y-76322023D01*
X106857619Y-76274404D01*
X106952857Y-76226785D01*
X107048095Y-76226785D01*
X107190952Y-76274404D01*
X107762380Y-76845833D01*
X107762380Y-76226785D01*
X127447380Y-54141666D02*
X126971190Y-54475000D01*
X127447380Y-54713095D02*
X126447380Y-54713095D01*
X126447380Y-54332142D01*
X126495000Y-54236904D01*
X126542619Y-54189285D01*
X126637857Y-54141666D01*
X126780714Y-54141666D01*
X126875952Y-54189285D01*
X126923571Y-54236904D01*
X126971190Y-54332142D01*
X126971190Y-54713095D01*
X126875952Y-53570238D02*
X126828333Y-53665476D01*
X126780714Y-53713095D01*
X126685476Y-53760714D01*
X126637857Y-53760714D01*
X126542619Y-53713095D01*
X126495000Y-53665476D01*
X126447380Y-53570238D01*
X126447380Y-53379761D01*
X126495000Y-53284523D01*
X126542619Y-53236904D01*
X126637857Y-53189285D01*
X126685476Y-53189285D01*
X126780714Y-53236904D01*
X126828333Y-53284523D01*
X126875952Y-53379761D01*
X126875952Y-53570238D01*
X126923571Y-53665476D01*
X126971190Y-53713095D01*
X127066428Y-53760714D01*
X127256904Y-53760714D01*
X127352142Y-53713095D01*
X127399761Y-53665476D01*
X127447380Y-53570238D01*
X127447380Y-53379761D01*
X127399761Y-53284523D01*
X127352142Y-53236904D01*
X127256904Y-53189285D01*
X127066428Y-53189285D01*
X126971190Y-53236904D01*
X126923571Y-53284523D01*
X126875952Y-53379761D01*
X127447380Y-50379285D02*
X127447380Y-50950714D01*
X127447380Y-50665000D02*
X126447380Y-50665000D01*
X126590238Y-50760238D01*
X126685476Y-50855476D01*
X126733095Y-50950714D01*
X127447380Y-49950714D02*
X126447380Y-49950714D01*
X127447380Y-49379285D02*
X126875952Y-49807857D01*
X126447380Y-49379285D02*
X127018809Y-49950714D01*
X130033095Y-39499880D02*
X130033095Y-40309404D01*
X130080714Y-40404642D01*
X130128333Y-40452261D01*
X130223571Y-40499880D01*
X130414047Y-40499880D01*
X130509285Y-40452261D01*
X130556904Y-40404642D01*
X130604523Y-40309404D01*
X130604523Y-39499880D01*
X131509285Y-39499880D02*
X131318809Y-39499880D01*
X131223571Y-39547500D01*
X131175952Y-39595119D01*
X131080714Y-39737976D01*
X131033095Y-39928452D01*
X131033095Y-40309404D01*
X131080714Y-40404642D01*
X131128333Y-40452261D01*
X131223571Y-40499880D01*
X131414047Y-40499880D01*
X131509285Y-40452261D01*
X131556904Y-40404642D01*
X131604523Y-40309404D01*
X131604523Y-40071309D01*
X131556904Y-39976071D01*
X131509285Y-39928452D01*
X131414047Y-39880833D01*
X131223571Y-39880833D01*
X131128333Y-39928452D01*
X131080714Y-39976071D01*
X131033095Y-40071309D01*
X130247380Y-29990357D02*
X130247380Y-29323690D01*
X131247380Y-29752261D01*
X130580714Y-28514166D02*
X131247380Y-28514166D01*
X130199761Y-28752261D02*
X130914047Y-28990357D01*
X130914047Y-28371309D01*
X131247380Y-27514166D02*
X131247380Y-27990357D01*
X130247380Y-27990357D01*
X131199761Y-27228452D02*
X131247380Y-27085595D01*
X131247380Y-26847500D01*
X131199761Y-26752261D01*
X131152142Y-26704642D01*
X131056904Y-26657023D01*
X130961666Y-26657023D01*
X130866428Y-26704642D01*
X130818809Y-26752261D01*
X130771190Y-26847500D01*
X130723571Y-27037976D01*
X130675952Y-27133214D01*
X130628333Y-27180833D01*
X130533095Y-27228452D01*
X130437857Y-27228452D01*
X130342619Y-27180833D01*
X130295000Y-27133214D01*
X130247380Y-27037976D01*
X130247380Y-26799880D01*
X130295000Y-26657023D01*
X130247380Y-25752261D02*
X130247380Y-26228452D01*
X130723571Y-26276071D01*
X130675952Y-26228452D01*
X130628333Y-26133214D01*
X130628333Y-25895119D01*
X130675952Y-25799880D01*
X130723571Y-25752261D01*
X130818809Y-25704642D01*
X131056904Y-25704642D01*
X131152142Y-25752261D01*
X131199761Y-25799880D01*
X131247380Y-25895119D01*
X131247380Y-26133214D01*
X131199761Y-26228452D01*
X131152142Y-26276071D01*
X131247380Y-24752261D02*
X131247380Y-25323690D01*
X131247380Y-25037976D02*
X130247380Y-25037976D01*
X130390238Y-25133214D01*
X130485476Y-25228452D01*
X130533095Y-25323690D01*
X138402142Y-61952142D02*
X138354523Y-61999761D01*
X138211666Y-62047380D01*
X138116428Y-62047380D01*
X137973571Y-61999761D01*
X137878333Y-61904523D01*
X137830714Y-61809285D01*
X137783095Y-61618809D01*
X137783095Y-61475952D01*
X137830714Y-61285476D01*
X137878333Y-61190238D01*
X137973571Y-61095000D01*
X138116428Y-61047380D01*
X138211666Y-61047380D01*
X138354523Y-61095000D01*
X138402142Y-61142619D01*
X139354523Y-62047380D02*
X138783095Y-62047380D01*
X139068809Y-62047380D02*
X139068809Y-61047380D01*
X138973571Y-61190238D01*
X138878333Y-61285476D01*
X138783095Y-61333095D01*
X139973571Y-61047380D02*
X140068809Y-61047380D01*
X140164047Y-61095000D01*
X140211666Y-61142619D01*
X140259285Y-61237857D01*
X140306904Y-61428333D01*
X140306904Y-61666428D01*
X140259285Y-61856904D01*
X140211666Y-61952142D01*
X140164047Y-61999761D01*
X140068809Y-62047380D01*
X139973571Y-62047380D01*
X139878333Y-61999761D01*
X139830714Y-61952142D01*
X139783095Y-61856904D01*
X139735476Y-61666428D01*
X139735476Y-61428333D01*
X139783095Y-61237857D01*
X139830714Y-61142619D01*
X139878333Y-61095000D01*
X139973571Y-61047380D01*
X108413333Y-63994880D02*
X108080000Y-63518690D01*
X107841904Y-63994880D02*
X107841904Y-62994880D01*
X108222857Y-62994880D01*
X108318095Y-63042500D01*
X108365714Y-63090119D01*
X108413333Y-63185357D01*
X108413333Y-63328214D01*
X108365714Y-63423452D01*
X108318095Y-63471071D01*
X108222857Y-63518690D01*
X107841904Y-63518690D01*
X109318095Y-62994880D02*
X108841904Y-62994880D01*
X108794285Y-63471071D01*
X108841904Y-63423452D01*
X108937142Y-63375833D01*
X109175238Y-63375833D01*
X109270476Y-63423452D01*
X109318095Y-63471071D01*
X109365714Y-63566309D01*
X109365714Y-63804404D01*
X109318095Y-63899642D01*
X109270476Y-63947261D01*
X109175238Y-63994880D01*
X108937142Y-63994880D01*
X108841904Y-63947261D01*
X108794285Y-63899642D01*
X112175714Y-63994880D02*
X111604285Y-63994880D01*
X111890000Y-63994880D02*
X111890000Y-62994880D01*
X111794761Y-63137738D01*
X111699523Y-63232976D01*
X111604285Y-63280595D01*
X112604285Y-63994880D02*
X112604285Y-62994880D01*
X113175714Y-63994880D02*
X112747142Y-63423452D01*
X113175714Y-62994880D02*
X112604285Y-63566309D01*
X129987380Y-54184166D02*
X129511190Y-54517500D01*
X129987380Y-54755595D02*
X128987380Y-54755595D01*
X128987380Y-54374642D01*
X129035000Y-54279404D01*
X129082619Y-54231785D01*
X129177857Y-54184166D01*
X129320714Y-54184166D01*
X129415952Y-54231785D01*
X129463571Y-54279404D01*
X129511190Y-54374642D01*
X129511190Y-54755595D01*
X128987380Y-53850833D02*
X128987380Y-53184166D01*
X129987380Y-53612738D01*
X129987380Y-50421785D02*
X129987380Y-50993214D01*
X129987380Y-50707500D02*
X128987380Y-50707500D01*
X129130238Y-50802738D01*
X129225476Y-50897976D01*
X129273095Y-50993214D01*
X129987380Y-49993214D02*
X128987380Y-49993214D01*
X129987380Y-49421785D02*
X129415952Y-49850357D01*
X128987380Y-49421785D02*
X129558809Y-49993214D01*
X119228095Y-38864880D02*
X119228095Y-39674404D01*
X119275714Y-39769642D01*
X119323333Y-39817261D01*
X119418571Y-39864880D01*
X119609047Y-39864880D01*
X119704285Y-39817261D01*
X119751904Y-39769642D01*
X119799523Y-39674404D01*
X119799523Y-38864880D01*
X120180476Y-38864880D02*
X120847142Y-38864880D01*
X120418571Y-39864880D01*
X119442380Y-29990357D02*
X119442380Y-29323690D01*
X120442380Y-29752261D01*
X119775714Y-28514166D02*
X120442380Y-28514166D01*
X119394761Y-28752261D02*
X120109047Y-28990357D01*
X120109047Y-28371309D01*
X120442380Y-27514166D02*
X120442380Y-27990357D01*
X119442380Y-27990357D01*
X120394761Y-27228452D02*
X120442380Y-27085595D01*
X120442380Y-26847500D01*
X120394761Y-26752261D01*
X120347142Y-26704642D01*
X120251904Y-26657023D01*
X120156666Y-26657023D01*
X120061428Y-26704642D01*
X120013809Y-26752261D01*
X119966190Y-26847500D01*
X119918571Y-27037976D01*
X119870952Y-27133214D01*
X119823333Y-27180833D01*
X119728095Y-27228452D01*
X119632857Y-27228452D01*
X119537619Y-27180833D01*
X119490000Y-27133214D01*
X119442380Y-27037976D01*
X119442380Y-26799880D01*
X119490000Y-26657023D01*
X119442380Y-26037976D02*
X119442380Y-25942738D01*
X119490000Y-25847500D01*
X119537619Y-25799880D01*
X119632857Y-25752261D01*
X119823333Y-25704642D01*
X120061428Y-25704642D01*
X120251904Y-25752261D01*
X120347142Y-25799880D01*
X120394761Y-25847500D01*
X120442380Y-25942738D01*
X120442380Y-26037976D01*
X120394761Y-26133214D01*
X120347142Y-26180833D01*
X120251904Y-26228452D01*
X120061428Y-26276071D01*
X119823333Y-26276071D01*
X119632857Y-26228452D01*
X119537619Y-26180833D01*
X119490000Y-26133214D01*
X119442380Y-26037976D01*
X119442380Y-25085595D02*
X119442380Y-24990357D01*
X119490000Y-24895119D01*
X119537619Y-24847500D01*
X119632857Y-24799880D01*
X119823333Y-24752261D01*
X120061428Y-24752261D01*
X120251904Y-24799880D01*
X120347142Y-24847500D01*
X120394761Y-24895119D01*
X120442380Y-24990357D01*
X120442380Y-25085595D01*
X120394761Y-25180833D01*
X120347142Y-25228452D01*
X120251904Y-25276071D01*
X120061428Y-25323690D01*
X119823333Y-25323690D01*
X119632857Y-25276071D01*
X119537619Y-25228452D01*
X119490000Y-25180833D01*
X119442380Y-25085595D01*
D12*
X106445000Y-66082500D02*
X107215000Y-66082500D01*
X107215000Y-64712500D02*
X107215000Y-67452500D01*
X114525000Y-66082500D02*
X113755000Y-66082500D01*
X113755000Y-64712500D02*
X107215000Y-64712500D01*
X107215000Y-67452500D02*
X113755000Y-67452500D01*
X113755000Y-67452500D02*
X113755000Y-64712500D01*
X135985000Y-48842500D02*
X133245000Y-48842500D01*
X133245000Y-48842500D02*
X133245000Y-55382500D01*
X135985000Y-55382500D02*
X135985000Y-48842500D01*
X134615000Y-56152500D02*
X134615000Y-55382500D01*
X134615000Y-48072500D02*
X134615000Y-48842500D01*
X133245000Y-55382500D02*
X135985000Y-55382500D01*
X132075000Y-48072500D02*
X132075000Y-48842500D01*
X133445000Y-55382500D02*
X133445000Y-48842500D01*
X130705000Y-48842500D02*
X130705000Y-55382500D01*
X130705000Y-55382500D02*
X133445000Y-55382500D01*
X132075000Y-56152500D02*
X132075000Y-55382500D01*
X133445000Y-48842500D02*
X130705000Y-48842500D01*
X112510000Y-43030000D02*
X112510000Y-43655000D01*
X108470000Y-43030000D02*
X108470000Y-43655000D01*
X108470000Y-45245000D02*
X108470000Y-45870000D01*
X108470000Y-43030000D02*
X112510000Y-43030000D01*
X112510000Y-45245000D02*
X112510000Y-45870000D01*
X108470000Y-45870000D02*
X112510000Y-45870000D01*
X104075000Y-106832500D02*
X134675000Y-106832500D01*
X134675000Y-93912500D02*
X104075000Y-93912500D01*
X104075000Y-93912500D02*
X104075000Y-99372500D01*
X134675000Y-106832500D02*
X134675000Y-93912500D01*
X104075000Y-101372500D02*
X104075000Y-106832500D01*
X104075000Y-101372500D02*
G75*
G03*
X104075000Y-99372500I0J1000000D01*
G01*
X106555000Y-21530000D02*
X106555000Y-41970000D01*
X110205000Y-41970000D02*
X111855000Y-41970000D01*
X106555000Y-41970000D02*
X108205000Y-41970000D01*
X111855000Y-21530000D02*
X106555000Y-21530000D01*
X111855000Y-41970000D02*
X111855000Y-21530000D01*
X110205000Y-41970000D02*
G75*
G03*
X108205000Y-41970000I-1000000J0D01*
G01*
X143570000Y-59630000D02*
X143570000Y-60960000D01*
X140910000Y-110550000D02*
X143570000Y-110550000D01*
X140910000Y-62230000D02*
X143570000Y-62230000D01*
X140910000Y-62230000D02*
X140910000Y-110550000D01*
X142240000Y-59630000D02*
X143570000Y-59630000D01*
X143570000Y-62230000D02*
X143570000Y-110550000D01*
X122455000Y-62172500D02*
X122455000Y-64912500D01*
X122455000Y-64912500D02*
X128995000Y-64912500D01*
X128995000Y-62172500D02*
X122455000Y-62172500D01*
X129765000Y-63542500D02*
X128995000Y-63542500D01*
X128995000Y-64912500D02*
X128995000Y-62172500D01*
X121685000Y-63542500D02*
X122455000Y-63542500D01*
X128995000Y-64712500D02*
X122455000Y-64712500D01*
X128995000Y-67452500D02*
X128995000Y-64712500D01*
X121685000Y-66082500D02*
X122455000Y-66082500D01*
X122455000Y-64712500D02*
X122455000Y-67452500D01*
X129765000Y-66082500D02*
X128995000Y-66082500D01*
X122455000Y-67452500D02*
X128995000Y-67452500D01*
X104080000Y-78512500D02*
X104080000Y-83972500D01*
X104080000Y-71052500D02*
X104080000Y-76512500D01*
X134680000Y-83972500D02*
X134680000Y-71052500D01*
X134680000Y-71052500D02*
X104080000Y-71052500D01*
X104080000Y-83972500D02*
X134680000Y-83972500D01*
X104080000Y-78512500D02*
G75*
G03*
X104080000Y-76512500I0J1000000D01*
G01*
X97237500Y-48700000D02*
X95884167Y-48700000D01*
X97237500Y-48460000D02*
X95884167Y-48460000D01*
X97237500Y-49180000D02*
X95884167Y-49180000D01*
X90257500Y-58945000D02*
X90257500Y-36324000D01*
X97237500Y-54620000D02*
X97237500Y-53350000D01*
X93177500Y-55890000D02*
X93177500Y-57160000D01*
X93177500Y-57160000D02*
X97237500Y-57160000D01*
X97237500Y-46280000D02*
X95884167Y-46280000D01*
X97237500Y-51480000D02*
X95884167Y-51480000D01*
X97237500Y-41080000D02*
X95884167Y-41080000D01*
X100157500Y-36324000D02*
X90257500Y-36324000D01*
X95884167Y-52080000D02*
X95884167Y-50810000D01*
X97237500Y-54140000D02*
X95884167Y-54140000D01*
X97237500Y-39020000D02*
X95884167Y-39020000D01*
X97237500Y-43190000D02*
X93177500Y-43190000D01*
X93177500Y-48270000D02*
X93177500Y-49540000D01*
X97237500Y-51600000D02*
X95884167Y-51600000D01*
X97237500Y-44460000D02*
X97237500Y-43190000D01*
X97237500Y-56200000D02*
X95884167Y-56200000D01*
X97237500Y-41680000D02*
X95884167Y-41680000D01*
X97237500Y-54380000D02*
X95884167Y-54380000D01*
X97237500Y-46760000D02*
X95884167Y-46760000D01*
X97237500Y-53540000D02*
X95884167Y-53540000D01*
X97237500Y-43500000D02*
X95884167Y-43500000D01*
X95884167Y-49540000D02*
X95884167Y-48270000D01*
X97237500Y-56320000D02*
X95884167Y-56320000D01*
X97237500Y-38110000D02*
X93177500Y-38110000D01*
X97237500Y-57040000D02*
X95884167Y-57040000D01*
X97237500Y-38300000D02*
X95884167Y-38300000D01*
X97237500Y-56440000D02*
X95884167Y-56440000D01*
X97237500Y-56920000D02*
X95884167Y-56920000D01*
X97237500Y-49300000D02*
X95884167Y-49300000D01*
X95884167Y-44460000D02*
X95884167Y-43190000D01*
X97237500Y-46880000D02*
X95884167Y-46880000D01*
X97237500Y-56080000D02*
X95884167Y-56080000D01*
X100397500Y-59185000D02*
X100397500Y-57802000D01*
X93177500Y-38110000D02*
X93177500Y-39380000D01*
X97237500Y-53420000D02*
X95884167Y-53420000D01*
X97237500Y-38660000D02*
X95884167Y-38660000D01*
X95884167Y-39380000D02*
X95884167Y-38110000D01*
X97237500Y-38420000D02*
X95884167Y-38420000D01*
X97237500Y-53350000D02*
X93177500Y-53350000D01*
X97237500Y-48580000D02*
X95884167Y-48580000D01*
X93177500Y-39380000D02*
X97237500Y-39380000D01*
X97237500Y-56680000D02*
X95884167Y-56680000D01*
X97237500Y-51840000D02*
X95884167Y-51840000D01*
X97237500Y-38900000D02*
X95884167Y-38900000D01*
X93177500Y-45730000D02*
X93177500Y-47000000D01*
X97237500Y-53780000D02*
X95884167Y-53780000D01*
X97237500Y-46520000D02*
X95884167Y-46520000D01*
X95884167Y-47000000D02*
X95884167Y-45730000D01*
X97237500Y-45920000D02*
X95884167Y-45920000D01*
X97237500Y-41200000D02*
X95884167Y-41200000D01*
X97237500Y-55960000D02*
X95884167Y-55960000D01*
X97237500Y-51360000D02*
X95884167Y-51360000D01*
X97237500Y-39380000D02*
X97237500Y-38110000D01*
X97237500Y-53660000D02*
X95884167Y-53660000D01*
X97237500Y-54260000D02*
X95884167Y-54260000D01*
X97237500Y-50810000D02*
X93177500Y-50810000D01*
X97237500Y-46400000D02*
X95884167Y-46400000D01*
X97237500Y-46160000D02*
X95884167Y-46160000D01*
X97237500Y-49060000D02*
X95884167Y-49060000D01*
X97237500Y-53900000D02*
X95884167Y-53900000D01*
X97237500Y-51720000D02*
X95884167Y-51720000D01*
X100397500Y-59185000D02*
X99013500Y-59185000D01*
X97237500Y-51960000D02*
X95884167Y-51960000D01*
X95884167Y-54620000D02*
X95884167Y-53350000D01*
X97237500Y-43620000D02*
X95884167Y-43620000D01*
X97237500Y-52080000D02*
X97237500Y-50810000D01*
X97237500Y-51240000D02*
X95884167Y-51240000D01*
X97237500Y-56560000D02*
X95884167Y-56560000D01*
X97237500Y-49420000D02*
X95884167Y-49420000D01*
X97237500Y-39140000D02*
X95884167Y-39140000D01*
X97237500Y-57160000D02*
X97237500Y-55890000D01*
X97237500Y-44340000D02*
X95884167Y-44340000D01*
X93177500Y-41920000D02*
X97237500Y-41920000D01*
X95884167Y-57160000D02*
X95884167Y-55890000D01*
X100157500Y-58945000D02*
X100157500Y-36324000D01*
X97237500Y-51120000D02*
X95884167Y-51120000D01*
X97237500Y-55890000D02*
X93177500Y-55890000D01*
X97237500Y-41320000D02*
X95884167Y-41320000D01*
X97237500Y-46040000D02*
X95884167Y-46040000D01*
X97237500Y-38780000D02*
X95884167Y-38780000D01*
X97237500Y-40840000D02*
X95884167Y-40840000D01*
X97237500Y-56800000D02*
X95884167Y-56800000D01*
X97237500Y-40960000D02*
X95884167Y-40960000D01*
X97237500Y-54500000D02*
X95884167Y-54500000D01*
X97237500Y-45800000D02*
X95884167Y-45800000D01*
X97237500Y-41800000D02*
X95884167Y-41800000D01*
X93177500Y-40650000D02*
X93177500Y-41920000D01*
X93177500Y-53350000D02*
X93177500Y-54620000D01*
X93177500Y-52080000D02*
X97237500Y-52080000D01*
X97237500Y-48270000D02*
X93177500Y-48270000D01*
X97237500Y-54020000D02*
X95884167Y-54020000D01*
X97237500Y-48820000D02*
X95884167Y-48820000D01*
X97237500Y-43860000D02*
X95884167Y-43860000D01*
X93177500Y-54620000D02*
X97237500Y-54620000D01*
X97237500Y-40650000D02*
X93177500Y-40650000D01*
X97237500Y-43380000D02*
X95884167Y-43380000D01*
X95884167Y-41920000D02*
X95884167Y-40650000D01*
X97237500Y-44100000D02*
X95884167Y-44100000D01*
X97237500Y-48340000D02*
X95884167Y-48340000D01*
X93177500Y-44460000D02*
X97237500Y-44460000D01*
X97237500Y-43980000D02*
X95884167Y-43980000D01*
X97237500Y-47000000D02*
X97237500Y-45730000D01*
X97237500Y-41920000D02*
X97237500Y-40650000D01*
X97237500Y-41440000D02*
X95884167Y-41440000D01*
X93177500Y-43190000D02*
X93177500Y-44460000D01*
X97237500Y-51000000D02*
X95884167Y-51000000D01*
X97237500Y-38180000D02*
X95884167Y-38180000D01*
X97237500Y-40720000D02*
X95884167Y-40720000D01*
X93177500Y-50810000D02*
X93177500Y-52080000D01*
X97237500Y-44220000D02*
X95884167Y-44220000D01*
X93177500Y-47000000D02*
X97237500Y-47000000D01*
X97237500Y-46640000D02*
X95884167Y-46640000D01*
X97237500Y-45730000D02*
X93177500Y-45730000D01*
X93177500Y-49540000D02*
X97237500Y-49540000D01*
X97237500Y-43260000D02*
X95884167Y-43260000D01*
X97237500Y-48940000D02*
X95884167Y-48940000D01*
X97237500Y-38540000D02*
X95884167Y-38540000D01*
X97237500Y-41560000D02*
X95884167Y-41560000D01*
X97237500Y-39260000D02*
X95884167Y-39260000D01*
X97237500Y-50880000D02*
X95884167Y-50880000D01*
X97237500Y-49540000D02*
X97237500Y-48270000D01*
X97237500Y-43740000D02*
X95884167Y-43740000D01*
X100157500Y-58945000D02*
X90257500Y-58945000D01*
X125625000Y-48800000D02*
X125625000Y-55340000D01*
X125625000Y-55340000D02*
X128365000Y-55340000D01*
X126995000Y-56110000D02*
X126995000Y-55340000D01*
X128365000Y-55340000D02*
X128365000Y-48800000D01*
X126995000Y-48030000D02*
X126995000Y-48800000D01*
X128365000Y-48800000D02*
X125625000Y-48800000D01*
X128145000Y-24075000D02*
X128145000Y-41975000D01*
X131795000Y-41975000D02*
X133445000Y-41975000D01*
X133445000Y-41975000D02*
X133445000Y-24075000D01*
X128145000Y-41975000D02*
X129795000Y-41975000D01*
X133445000Y-24075000D02*
X128145000Y-24075000D01*
X131795000Y-41975000D02*
G75*
G03*
X129795000Y-41975000I-1000000J0D01*
G01*
X137255000Y-60175000D02*
X133215000Y-60175000D01*
X133215000Y-60800000D02*
X133215000Y-60175000D01*
X137255000Y-60800000D02*
X137255000Y-60175000D01*
X137255000Y-63015000D02*
X137255000Y-62390000D01*
X137255000Y-63015000D02*
X133215000Y-63015000D01*
X133215000Y-63015000D02*
X133215000Y-62390000D01*
X97850000Y-62230000D02*
X97850000Y-110550000D01*
X96520000Y-59630000D02*
X97850000Y-59630000D01*
X95190000Y-62230000D02*
X95190000Y-110550000D01*
X95190000Y-62230000D02*
X97850000Y-62230000D01*
X95190000Y-110550000D02*
X97850000Y-110550000D01*
X97850000Y-59630000D02*
X97850000Y-60960000D01*
X106445000Y-63542500D02*
X107215000Y-63542500D01*
X114525000Y-63542500D02*
X113755000Y-63542500D01*
X107215000Y-64912500D02*
X113755000Y-64912500D01*
X113755000Y-64912500D02*
X113755000Y-62172500D01*
X113755000Y-62172500D02*
X107215000Y-62172500D01*
X107215000Y-62172500D02*
X107215000Y-64912500D01*
X129535000Y-48072500D02*
X129535000Y-48842500D01*
X130905000Y-48842500D02*
X128165000Y-48842500D01*
X129535000Y-56152500D02*
X129535000Y-55382500D01*
X130905000Y-55382500D02*
X130905000Y-48842500D01*
X128165000Y-55382500D02*
X130905000Y-55382500D01*
X128165000Y-48842500D02*
X128165000Y-55382500D01*
G36*
X138934497Y-48007197D02*
G01*
X138952051Y-47975966D01*
X138963538Y-47963071D01*
X138980312Y-47949137D01*
X138998137Y-47938814D01*
X139019320Y-47931508D01*
X139046170Y-47926623D01*
X139080996Y-47923565D01*
X139123765Y-47921805D01*
X139215975Y-47919179D01*
X139215975Y-47885065D01*
X139214762Y-47863354D01*
X139211660Y-47845205D01*
X139209220Y-47838331D01*
X139195268Y-47824349D01*
X139171852Y-47814125D01*
X139141706Y-47808657D01*
X139126310Y-47808014D01*
X139091413Y-47809474D01*
X139065847Y-47814342D01*
X139046730Y-47823351D01*
X139037723Y-47830518D01*
X139021834Y-47845244D01*
X138984496Y-47816248D01*
X138966604Y-47801767D01*
X138953389Y-47789955D01*
X138947307Y-47783031D01*
X138947159Y-47782491D01*
X138951539Y-47776123D01*
X138962830Y-47764729D01*
X138973560Y-47755132D01*
X138999909Y-47736543D01*
X139029575Y-47724034D01*
X139064985Y-47717008D01*
X139108568Y-47714870D01*
X139134980Y-47715479D01*
X139167514Y-47717268D01*
X139191330Y-47719986D01*
X139210213Y-47724373D01*
X139227947Y-47731171D01*
X139237099Y-47735477D01*
X139271718Y-47757763D01*
X139296557Y-47786681D01*
X139310002Y-47814265D01*
X139312708Y-47825811D01*
X139314988Y-47845444D01*
X139316887Y-47874040D01*
X139318452Y-47912473D01*
X139319725Y-47961620D01*
X139320753Y-48022355D01*
X139320792Y-48025255D01*
X139323349Y-48214364D01*
X139215975Y-48214364D01*
X139215975Y-48175743D01*
X139197026Y-48191687D01*
X139177683Y-48204380D01*
X139156309Y-48213657D01*
X139154828Y-48214088D01*
X139125599Y-48218875D01*
X139090582Y-48219812D01*
X139055842Y-48217020D01*
X139030455Y-48211616D01*
X138990089Y-48193586D01*
X138957420Y-48167802D01*
X138934078Y-48135757D01*
X138925723Y-48115740D01*
X138920322Y-48081167D01*
X138921501Y-48067599D01*
X139016257Y-48067599D01*
X139023156Y-48088733D01*
X139038535Y-48106711D01*
X139061359Y-48118911D01*
X139069418Y-48121036D01*
X139088672Y-48123214D01*
X139114293Y-48123796D01*
X139141829Y-48122946D01*
X139166831Y-48120827D01*
X139184845Y-48117600D01*
X139187549Y-48116712D01*
X139200665Y-48105439D01*
X139210275Y-48084494D01*
X139215396Y-48056452D01*
X139215975Y-48042272D01*
X139215975Y-48007094D01*
X139132063Y-48009141D01*
X139097897Y-48010111D01*
X139073852Y-48011340D01*
X139057551Y-48013238D01*
X139046613Y-48016213D01*
X139038659Y-48020676D01*
X139032039Y-48026344D01*
X139018873Y-48045929D01*
X139016257Y-48067599D01*
X138921501Y-48067599D01*
X138923583Y-48043625D01*
X138934497Y-48007197D01*
G37*
G36*
X140323993Y-46930866D02*
G01*
X140359637Y-46936275D01*
X140392668Y-46943958D01*
X140415464Y-46951902D01*
X140439117Y-46963462D01*
X140460322Y-46975807D01*
X140476357Y-46987151D01*
X140484498Y-46995712D01*
X140484994Y-46997442D01*
X140481224Y-47004483D01*
X140471270Y-47018032D01*
X140457238Y-47035233D01*
X140456362Y-47036261D01*
X140427687Y-47069826D01*
X140392984Y-47050241D01*
X140362154Y-47037083D01*
X140327288Y-47028912D01*
X140292299Y-47026109D01*
X140261099Y-47029058D01*
X140242074Y-47035511D01*
X140222593Y-47050755D01*
X140212470Y-47069678D01*
X140211969Y-47089409D01*
X140221354Y-47107077D01*
X140234585Y-47117017D01*
X140249993Y-47122231D01*
X140272941Y-47126876D01*
X140298470Y-47129950D01*
X140298572Y-47129958D01*
X140350511Y-47135225D01*
X140391705Y-47142565D01*
X140423838Y-47152699D01*
X140448596Y-47166351D01*
X140467663Y-47184241D01*
X140482725Y-47207092D01*
X140483924Y-47209383D01*
X140495066Y-47241406D01*
X140499401Y-47277819D01*
X140496763Y-47313604D01*
X140488302Y-47341098D01*
X140466979Y-47372060D01*
X140435943Y-47397812D01*
X140397152Y-47417634D01*
X140352563Y-47430800D01*
X140304133Y-47436589D01*
X140253821Y-47434276D01*
X140241227Y-47432356D01*
X140216655Y-47426252D01*
X140188134Y-47416572D01*
X140167164Y-47407800D01*
X140144295Y-47395956D01*
X140121422Y-47382200D01*
X140101168Y-47368355D01*
X140086159Y-47356242D01*
X140079020Y-47347685D01*
X140078766Y-47346437D01*
X140083172Y-47340578D01*
X140094719Y-47328995D01*
X140111020Y-47314063D01*
X140113092Y-47312239D01*
X140147338Y-47282204D01*
X140175459Y-47301552D01*
X140213532Y-47323264D01*
X140252364Y-47335304D01*
X140296777Y-47339144D01*
X140298478Y-47339148D01*
X140339015Y-47336206D01*
X140368687Y-47327297D01*
X140387679Y-47312300D01*
X140396179Y-47291094D01*
X140396327Y-47275399D01*
X140392565Y-47260105D01*
X140383649Y-47248542D01*
X140367918Y-47239940D01*
X140343711Y-47233525D01*
X140309366Y-47228527D01*
X140291439Y-47226656D01*
X140240491Y-47219892D01*
X140200236Y-47210022D01*
X140169083Y-47196253D01*
X140145437Y-47177793D01*
X140127707Y-47153849D01*
X140121760Y-47142225D01*
X140114509Y-47119819D01*
X140110411Y-47094215D01*
X140110082Y-47086686D01*
X140115006Y-47042007D01*
X140130189Y-47004461D01*
X140155596Y-46974083D01*
X140191194Y-46950908D01*
X140236948Y-46934969D01*
X140263966Y-46929672D01*
X140290511Y-46928432D01*
X140323993Y-46930866D01*
G37*
G36*
X140560506Y-47124460D02*
G01*
X140565502Y-47085000D01*
X140573405Y-47053404D01*
X140575555Y-47047796D01*
X140598754Y-47007152D01*
X140629843Y-46974667D01*
X140667002Y-46950621D01*
X140708414Y-46935294D01*
X140752257Y-46928968D01*
X140796715Y-46931922D01*
X140839966Y-46944438D01*
X140880192Y-46966796D01*
X140912529Y-46995813D01*
X140930421Y-47017655D01*
X140943676Y-47039350D01*
X140952932Y-47063289D01*
X140958824Y-47091867D01*
X140961988Y-47127476D01*
X140963061Y-47172509D01*
X140963076Y-47185986D01*
X140962784Y-47223881D01*
X140961898Y-47251993D01*
X140960118Y-47273039D01*
X140957143Y-47289735D01*
X140952674Y-47304799D01*
X140948811Y-47315035D01*
X140930370Y-47348013D01*
X140903392Y-47379539D01*
X140871615Y-47405797D01*
X140845858Y-47420182D01*
X140811214Y-47430546D01*
X140770970Y-47435441D01*
X140731045Y-47434265D01*
X140721256Y-47432858D01*
X140675169Y-47418832D01*
X140634489Y-47394331D01*
X140601048Y-47360762D01*
X140578063Y-47322669D01*
X140568981Y-47294055D01*
X140562654Y-47256582D01*
X140559112Y-47213596D01*
X140558614Y-47182622D01*
X140660217Y-47182622D01*
X140661648Y-47228243D01*
X140666290Y-47263237D01*
X140674962Y-47289248D01*
X140688484Y-47307919D01*
X140707675Y-47320895D01*
X140733355Y-47329820D01*
X140733593Y-47329881D01*
X140770133Y-47333735D01*
X140803176Y-47326316D01*
X140822136Y-47315466D01*
X140838187Y-47301558D01*
X140849564Y-47286017D01*
X140857008Y-47266462D01*
X140861256Y-47240510D01*
X140863048Y-47205778D01*
X140863255Y-47182860D01*
X140862996Y-47148861D01*
X140861989Y-47124662D01*
X140859888Y-47107566D01*
X140856345Y-47094874D01*
X140851015Y-47083891D01*
X140850414Y-47082856D01*
X140827888Y-47055289D01*
X140799170Y-47038568D01*
X140764487Y-47032825D01*
X140763771Y-47032823D01*
X140727643Y-47037473D01*
X140699344Y-47051670D01*
X140678209Y-47075788D01*
X140674146Y-47083059D01*
X140667871Y-47096870D01*
X140663778Y-47111081D01*
X140661430Y-47128809D01*
X140660393Y-47153170D01*
X140660217Y-47182622D01*
X140558614Y-47182622D01*
X140558386Y-47168440D01*
X140560506Y-47124460D01*
G37*
G36*
X138553312Y-46932798D02*
G01*
X138553312Y-46981965D01*
X138584362Y-46961070D01*
X138624543Y-46940547D01*
X138666145Y-46930892D01*
X138707346Y-46931514D01*
X138746328Y-46941821D01*
X138781270Y-46961222D01*
X138810352Y-46989125D01*
X138831756Y-47024939D01*
X138838452Y-47043668D01*
X138842827Y-47066517D01*
X138845986Y-47098754D01*
X138847928Y-47137334D01*
X138848651Y-47179209D01*
X138848156Y-47221333D01*
X138846441Y-47260661D01*
X138843505Y-47294146D01*
X138839348Y-47318742D01*
X138838536Y-47321763D01*
X138821086Y-47360746D01*
X138794496Y-47392870D01*
X138760758Y-47416972D01*
X138721864Y-47431887D01*
X138679806Y-47436451D01*
X138648771Y-47432693D01*
X138626560Y-47425327D01*
X138601338Y-47413433D01*
X138586132Y-47404443D01*
X138553312Y-47382781D01*
X138553312Y-47573886D01*
X138553410Y-47629612D01*
X138553734Y-47673893D01*
X138554329Y-47707785D01*
X138555239Y-47732346D01*
X138556508Y-47748631D01*
X138558180Y-47757698D01*
X138560299Y-47760602D01*
X138561126Y-47760376D01*
X138571225Y-47753746D01*
X138585666Y-47743586D01*
X138587695Y-47742116D01*
X138623462Y-47723430D01*
X138663609Y-47714657D01*
X138705208Y-47715566D01*
X138745329Y-47725927D01*
X138781044Y-47745508D01*
X138796206Y-47758557D01*
X138808897Y-47771460D01*
X138819116Y-47783126D01*
X138827145Y-47795054D01*
X138833265Y-47808744D01*
X138837760Y-47825694D01*
X138840912Y-47847404D01*
X138843002Y-47875373D01*
X138844314Y-47911100D01*
X138845129Y-47956085D01*
X138845729Y-48011827D01*
X138845827Y-48022129D01*
X138847646Y-48214364D01*
X138747109Y-48214364D01*
X138747100Y-48050261D01*
X138746966Y-47995995D01*
X138746397Y-47952721D01*
X138745127Y-47918927D01*
X138742893Y-47893103D01*
X138739429Y-47873738D01*
X138734472Y-47859322D01*
X138727756Y-47848344D01*
X138719018Y-47839294D01*
X138708751Y-47831214D01*
X138681380Y-47818325D01*
X138650479Y-47815062D01*
X138619488Y-47820771D01*
X138591851Y-47834799D01*
X138571008Y-47856494D01*
X138570397Y-47857461D01*
X138566203Y-47864706D01*
X138562920Y-47872412D01*
X138560413Y-47882172D01*
X138558549Y-47895577D01*
X138557195Y-47914222D01*
X138556217Y-47939697D01*
X138555481Y-47973597D01*
X138554855Y-48017512D01*
X138554502Y-48047135D01*
X138552566Y-48214364D01*
X138453287Y-48214364D01*
X138453287Y-47195623D01*
X138552912Y-47195623D01*
X138556243Y-47235414D01*
X138564033Y-47271046D01*
X138576301Y-47299379D01*
X138582296Y-47307764D01*
X138602881Y-47323372D01*
X138630349Y-47332293D01*
X138660777Y-47334127D01*
X138690244Y-47328480D01*
X138707309Y-47320429D01*
X138720924Y-47310073D01*
X138730790Y-47297347D01*
X138737468Y-47280193D01*
X138741518Y-47256556D01*
X138743502Y-47224380D01*
X138743984Y-47185986D01*
X138743699Y-47148724D01*
X138742677Y-47121514D01*
X138740669Y-47101916D01*
X138737425Y-47087489D01*
X138732714Y-47075828D01*
X138716298Y-47052914D01*
X138693605Y-47039064D01*
X138663142Y-47033596D01*
X138640847Y-47034032D01*
X138618125Y-47036336D01*
X138603522Y-47040372D01*
X138592655Y-47047959D01*
X138583800Y-47057694D01*
X138569484Y-47082709D01*
X138559551Y-47116130D01*
X138554021Y-47154815D01*
X138552912Y-47195623D01*
X138453287Y-47195623D01*
X138453287Y-46932798D01*
X138553312Y-46932798D01*
G37*
G36*
X140931160Y-48025731D02*
G01*
X140948204Y-47988661D01*
X140975470Y-47958461D01*
X141010166Y-47936873D01*
X141023641Y-47931518D01*
X141038849Y-47927665D01*
X141058330Y-47924992D01*
X141084625Y-47923178D01*
X141120272Y-47921901D01*
X141130508Y-47921639D01*
X141222718Y-47919395D01*
X141222718Y-47883151D01*
X141220906Y-47856354D01*
X141215080Y-47838986D01*
X141211778Y-47834416D01*
X141192483Y-47820661D01*
X141165317Y-47811843D01*
X141133722Y-47807950D01*
X141101142Y-47808970D01*
X141071017Y-47814890D01*
X141046791Y-47825698D01*
X141036083Y-47835041D01*
X141030803Y-47839568D01*
X141024094Y-47839431D01*
X141013425Y-47833615D01*
X140996263Y-47821106D01*
X140990759Y-47816889D01*
X140972957Y-47802545D01*
X140959878Y-47790775D01*
X140954007Y-47783840D01*
X140953902Y-47783369D01*
X140959034Y-47773735D01*
X140972395Y-47760921D01*
X140990931Y-47747137D01*
X141011592Y-47734593D01*
X141031323Y-47725500D01*
X141035934Y-47723971D01*
X141069419Y-47717434D01*
X141109894Y-47714642D01*
X141152431Y-47715574D01*
X141192099Y-47720206D01*
X141212603Y-47724788D01*
X141245910Y-47738802D01*
X141275988Y-47760037D01*
X141299895Y-47785853D01*
X141314686Y-47813610D01*
X141315832Y-47817391D01*
X141317948Y-47831792D01*
X141319719Y-47857654D01*
X141321110Y-47893939D01*
X141322087Y-47939609D01*
X141322618Y-47993627D01*
X141322708Y-48028380D01*
X141322743Y-48214364D01*
X141222718Y-48214364D01*
X141222718Y-48175743D01*
X141203770Y-48191687D01*
X141184426Y-48204380D01*
X141163052Y-48213657D01*
X141161572Y-48214088D01*
X141130789Y-48219122D01*
X141094335Y-48219914D01*
X141058050Y-48216670D01*
X141027775Y-48209592D01*
X141027277Y-48209415D01*
X140987546Y-48189309D01*
X140956830Y-48161522D01*
X140935896Y-48127519D01*
X140925511Y-48088767D01*
X140926018Y-48065890D01*
X141022868Y-48065890D01*
X141027943Y-48090406D01*
X141042430Y-48108436D01*
X141061582Y-48117062D01*
X141079019Y-48120948D01*
X141088310Y-48123129D01*
X141106551Y-48124973D01*
X141130875Y-48124227D01*
X141156737Y-48121400D01*
X141179592Y-48117004D01*
X141194897Y-48111552D01*
X141195727Y-48111041D01*
X141211007Y-48095765D01*
X141219746Y-48073220D01*
X141222708Y-48041370D01*
X141222718Y-48038914D01*
X141222718Y-48008063D01*
X141144163Y-48008063D01*
X141101674Y-48008933D01*
X141070100Y-48012020D01*
X141047942Y-48018037D01*
X141033704Y-48027699D01*
X141025887Y-48041719D01*
X141022994Y-48060813D01*
X141022868Y-48065890D01*
X140926018Y-48065890D01*
X140926442Y-48046733D01*
X140931160Y-48025731D01*
G37*
G36*
X138942894Y-47049101D02*
G01*
X138964798Y-47008073D01*
X138985152Y-46983288D01*
X139021052Y-46955782D01*
X139062372Y-46938143D01*
X139106907Y-46930332D01*
X139152448Y-46932312D01*
X139196787Y-46944044D01*
X139237717Y-46965489D01*
X139265090Y-46988165D01*
X139291648Y-47020759D01*
X139310600Y-47058594D01*
X139322514Y-47103407D01*
X139327960Y-47156930D01*
X139328455Y-47181297D01*
X139328502Y-47220369D01*
X139015359Y-47220369D01*
X139019532Y-47243812D01*
X139030862Y-47279670D01*
X139050116Y-47308031D01*
X139075314Y-47326645D01*
X139111809Y-47337639D01*
X139151307Y-47337834D01*
X139191179Y-47327592D01*
X139228796Y-47307275D01*
X139231864Y-47305052D01*
X139239121Y-47300788D01*
X139246438Y-47300842D01*
X139256584Y-47306362D01*
X139272330Y-47318494D01*
X139280488Y-47325185D01*
X139316349Y-47354777D01*
X139287857Y-47380966D01*
X139265872Y-47398007D01*
X139240673Y-47413062D01*
X139226701Y-47419376D01*
X139191580Y-47429114D01*
X139151941Y-47434766D01*
X139113307Y-47435811D01*
X139085516Y-47432715D01*
X139042452Y-47418874D01*
X139003373Y-47396949D01*
X138980209Y-47377443D01*
X138954244Y-47342730D01*
X138935207Y-47300000D01*
X138923068Y-47251625D01*
X138917797Y-47199975D01*
X138919364Y-47147424D01*
X138920729Y-47139099D01*
X139016238Y-47139099D01*
X139222226Y-47139099D01*
X139222226Y-47121328D01*
X139217339Y-47097179D01*
X139204667Y-47071635D01*
X139187195Y-47049653D01*
X139172156Y-47038170D01*
X139143414Y-47028494D01*
X139111499Y-47026741D01*
X139081371Y-47032794D01*
X139065299Y-47040720D01*
X139043016Y-47062597D01*
X139026796Y-47093361D01*
X139019906Y-47118781D01*
X139016238Y-47139099D01*
X138920729Y-47139099D01*
X138927740Y-47096342D01*
X138942894Y-47049101D01*
G37*
G36*
X139769236Y-47970554D02*
G01*
X139769534Y-47919432D01*
X139770735Y-47878955D01*
X139773295Y-47847270D01*
X139777671Y-47822528D01*
X139784322Y-47802877D01*
X139793704Y-47786465D01*
X139806274Y-47771443D01*
X139822188Y-47756230D01*
X139853730Y-47732925D01*
X139887105Y-47719481D01*
X139926283Y-47714433D01*
X139935627Y-47714302D01*
X139963083Y-47717443D01*
X139992133Y-47725674D01*
X140018405Y-47737342D01*
X140037526Y-47750796D01*
X140040380Y-47753881D01*
X140049540Y-47762273D01*
X140054314Y-47764253D01*
X140056033Y-47758315D01*
X140057695Y-47741758D01*
X140059193Y-47716464D01*
X140060420Y-47684317D01*
X140061268Y-47647201D01*
X140061363Y-47640785D01*
X140063058Y-47517317D01*
X140111508Y-47515491D01*
X140159957Y-47513665D01*
X140159957Y-48214364D01*
X140059932Y-48214364D01*
X140059932Y-48192483D01*
X140058274Y-48176086D01*
X140052775Y-48171470D01*
X140042648Y-48178290D01*
X140038171Y-48182975D01*
X140021795Y-48195019D01*
X139997305Y-48206148D01*
X139969078Y-48214859D01*
X139941487Y-48219651D01*
X139929978Y-48220122D01*
X139905154Y-48217683D01*
X139880202Y-48212243D01*
X139874795Y-48210505D01*
X139841657Y-48193135D01*
X139811302Y-48167005D01*
X139787805Y-48135791D01*
X139783851Y-48128388D01*
X139778907Y-48117724D01*
X139775223Y-48107291D01*
X139772615Y-48095095D01*
X139770897Y-48079143D01*
X139769886Y-48057442D01*
X139769396Y-48027999D01*
X139769278Y-47997486D01*
X139867056Y-47997486D01*
X139871603Y-48039552D01*
X139881300Y-48071685D01*
X139896431Y-48094740D01*
X139917281Y-48109566D01*
X139923451Y-48112097D01*
X139956227Y-48119449D01*
X139987004Y-48115832D01*
X140007365Y-48107811D01*
X140025363Y-48097296D01*
X140038519Y-48084413D01*
X140047537Y-48067164D01*
X140053121Y-48043550D01*
X140055976Y-48011573D01*
X140056804Y-47969233D01*
X140056805Y-47967428D01*
X140056546Y-47932439D01*
X140055547Y-47907222D01*
X140053476Y-47889052D01*
X140050003Y-47875206D01*
X140044794Y-47862958D01*
X140043875Y-47861152D01*
X140025249Y-47837231D01*
X140000259Y-47821665D01*
X139971662Y-47814486D01*
X139942212Y-47815724D01*
X139914665Y-47825411D01*
X139891776Y-47843578D01*
X139881028Y-47859312D01*
X139874445Y-47878902D01*
X139869862Y-47909000D01*
X139867372Y-47944638D01*
X139867056Y-47997486D01*
X139769278Y-47997486D01*
X139769244Y-47988820D01*
X139769236Y-47970554D01*
G37*
G36*
X140657897Y-47889002D02*
G01*
X140672066Y-47932228D01*
X140685158Y-47971047D01*
X140696658Y-48004018D01*
X140706048Y-48029696D01*
X140712813Y-48046638D01*
X140716434Y-48053400D01*
X140716744Y-48053395D01*
X140719441Y-48046314D01*
X140724879Y-48028806D01*
X140732581Y-48002524D01*
X140742070Y-47969124D01*
X140752867Y-47930260D01*
X140763192Y-47892409D01*
X140774730Y-47849880D01*
X140785300Y-47811149D01*
X140794434Y-47777913D01*
X140801664Y-47751867D01*
X140806522Y-47734707D01*
X140808463Y-47728306D01*
X140815500Y-47723953D01*
X140833142Y-47721390D01*
X140862263Y-47720495D01*
X140864593Y-47720492D01*
X140891597Y-47720977D01*
X140907722Y-47722595D01*
X140914557Y-47725595D01*
X140914810Y-47728306D01*
X140912068Y-47736505D01*
X140906194Y-47754612D01*
X140897836Y-47780618D01*
X140887638Y-47812513D01*
X140876248Y-47848288D01*
X140876133Y-47848649D01*
X140862173Y-47892526D01*
X140845840Y-47943767D01*
X140828585Y-47997832D01*
X140811855Y-48050180D01*
X140799824Y-48087770D01*
X140759272Y-48214364D01*
X140669124Y-48214364D01*
X140619625Y-48048315D01*
X140606580Y-48004932D01*
X140594537Y-47965601D01*
X140583992Y-47931880D01*
X140575436Y-47905325D01*
X140569366Y-47887492D01*
X140566274Y-47879938D01*
X140566145Y-47879806D01*
X140563412Y-47884899D01*
X140557679Y-47900504D01*
X140549431Y-47925128D01*
X140539155Y-47957276D01*
X140527337Y-47995454D01*
X140514463Y-48038166D01*
X140512643Y-48044291D01*
X140463123Y-48211238D01*
X140417726Y-48213076D01*
X140391579Y-48213366D01*
X140376095Y-48211492D01*
X140369583Y-48207237D01*
X140369413Y-48206825D01*
X140366099Y-48196944D01*
X140359681Y-48177200D01*
X140350648Y-48149135D01*
X140339488Y-48114289D01*
X140326692Y-48074204D01*
X140312747Y-48030421D01*
X140298143Y-47984480D01*
X140283369Y-47937923D01*
X140268913Y-47892290D01*
X140255265Y-47849123D01*
X140242914Y-47809962D01*
X140232348Y-47776349D01*
X140224056Y-47749824D01*
X140218528Y-47731929D01*
X140216252Y-47724205D01*
X140216221Y-47724029D01*
X140221992Y-47722426D01*
X140237387Y-47721203D01*
X140259526Y-47720550D01*
X140269065Y-47720492D01*
X140321909Y-47720492D01*
X140327448Y-47740810D01*
X140330600Y-47752430D01*
X140336486Y-47774182D01*
X140344582Y-47804124D01*
X140354362Y-47840316D01*
X140365303Y-47880819D01*
X140373065Y-47909565D01*
X140384233Y-47950475D01*
X140394456Y-47987062D01*
X140403258Y-48017694D01*
X140410165Y-48040741D01*
X140414701Y-48054573D01*
X140416270Y-48057917D01*
X140418908Y-48052185D01*
X140424805Y-48036040D01*
X140433449Y-48010989D01*
X140444330Y-47978542D01*
X140456936Y-47940207D01*
X140470757Y-47897491D01*
X140472927Y-47890724D01*
X140526459Y-47723618D01*
X140564839Y-47721764D01*
X140603219Y-47719911D01*
X140657897Y-47889002D01*
G37*
G36*
X141723657Y-47725579D02*
G01*
X141759685Y-47744426D01*
X141762377Y-47749283D01*
X141759490Y-47757879D01*
X141750049Y-47771992D01*
X141733080Y-47793397D01*
X141732301Y-47794346D01*
X141696206Y-47838221D01*
X141671728Y-47825462D01*
X141640401Y-47815525D01*
X141608879Y-47816753D01*
X141579887Y-47828292D01*
X141556153Y-47849290D01*
X141546245Y-47864722D01*
X141542882Y-47872595D01*
X141540277Y-47882474D01*
X141538335Y-47895944D01*
X141536964Y-47914591D01*
X141536070Y-47940000D01*
X141535559Y-47973757D01*
X141535338Y-48017446D01*
X141535305Y-48050261D01*
X141535295Y-48214364D01*
X141435271Y-48214364D01*
X141435271Y-47720492D01*
X141535295Y-47720492D01*
X141535295Y-47764889D01*
X141557163Y-47748210D01*
X141595140Y-47726756D01*
X141637323Y-47715800D01*
X141681050Y-47715391D01*
X141723657Y-47725579D01*
G37*
G36*
X141155230Y-47104023D02*
G01*
X141155826Y-47155054D01*
X141156463Y-47195104D01*
X141157263Y-47225694D01*
X141158342Y-47248346D01*
X141159819Y-47264580D01*
X141161814Y-47275918D01*
X141164445Y-47283882D01*
X141167831Y-47289993D01*
X141169967Y-47292994D01*
X141191121Y-47316186D01*
X141213753Y-47329097D01*
X141241631Y-47333738D01*
X141246515Y-47333845D01*
X141281195Y-47329554D01*
X141308314Y-47315627D01*
X141329032Y-47291387D01*
X141333683Y-47282980D01*
X141337974Y-47274003D01*
X141341291Y-47264969D01*
X141343759Y-47254197D01*
X141345504Y-47240008D01*
X141346649Y-47220721D01*
X141347321Y-47194655D01*
X141347644Y-47160131D01*
X141347744Y-47115468D01*
X141347749Y-47094014D01*
X141347749Y-46932798D01*
X141447774Y-46932798D01*
X141447774Y-47432921D01*
X141347749Y-47432921D01*
X141347749Y-47383754D01*
X141316699Y-47404650D01*
X141275748Y-47425917D01*
X141233322Y-47436291D01*
X141191687Y-47435289D01*
X141182083Y-47433307D01*
X141138802Y-47416638D01*
X141102647Y-47389845D01*
X141074395Y-47353573D01*
X141065235Y-47336022D01*
X141061111Y-47326638D01*
X141057862Y-47317436D01*
X141055383Y-47306855D01*
X141053569Y-47293328D01*
X141052318Y-47275292D01*
X141051523Y-47251183D01*
X141051080Y-47219436D01*
X141050886Y-47178487D01*
X141050835Y-47126771D01*
X141050833Y-47120344D01*
X141050801Y-46935924D01*
X141102092Y-46934113D01*
X141153384Y-46932302D01*
X141155230Y-47104023D01*
G37*
G36*
X139669442Y-46932882D02*
G01*
X139705102Y-46943112D01*
X139712972Y-46946819D01*
X139747855Y-46969184D01*
X139773806Y-46997025D01*
X139792344Y-47029697D01*
X139796470Y-47039130D01*
X139799745Y-47048541D01*
X139802289Y-47059486D01*
X139804218Y-47073524D01*
X139805651Y-47092211D01*
X139806704Y-47117104D01*
X139807497Y-47149759D01*
X139808146Y-47191735D01*
X139808770Y-47244587D01*
X139808799Y-47247199D01*
X139810853Y-47433443D01*
X139758787Y-47431619D01*
X139706720Y-47429796D01*
X139703595Y-47261004D01*
X139702575Y-47209895D01*
X139701549Y-47169741D01*
X139700394Y-47138997D01*
X139698989Y-47116116D01*
X139697209Y-47099551D01*
X139694933Y-47087755D01*
X139692038Y-47079182D01*
X139688681Y-47072742D01*
X139668871Y-47049841D01*
X139642501Y-47036765D01*
X139610109Y-47032823D01*
X139576441Y-47036614D01*
X139550657Y-47048786D01*
X139530404Y-47070537D01*
X139527592Y-47074869D01*
X139523193Y-47082343D01*
X139519752Y-47089994D01*
X139517127Y-47099420D01*
X139515179Y-47112222D01*
X139513768Y-47130000D01*
X139512755Y-47154355D01*
X139511999Y-47186886D01*
X139511361Y-47229193D01*
X139510906Y-47265693D01*
X139508890Y-47432921D01*
X139409772Y-47432921D01*
X139409772Y-46932798D01*
X139509797Y-46932798D01*
X139509797Y-46957804D01*
X139511096Y-46975629D01*
X139515851Y-46981696D01*
X139525349Y-46976500D01*
X139534655Y-46967339D01*
X139560534Y-46948183D01*
X139593838Y-46935800D01*
X139631247Y-46930572D01*
X139669442Y-46932882D01*
G37*
G36*
X137966924Y-47085908D02*
G01*
X137977378Y-47050103D01*
X137993249Y-47019849D01*
X138015248Y-46992975D01*
X138024719Y-46983789D01*
X138064089Y-46955134D01*
X138107116Y-46937034D01*
X138152003Y-46929129D01*
X138196955Y-46931056D01*
X138240176Y-46942456D01*
X138279871Y-46962967D01*
X138314243Y-46992228D01*
X138341497Y-47029878D01*
X138350926Y-47049377D01*
X138358106Y-47074811D01*
X138363084Y-47109300D01*
X138365863Y-47149595D01*
X138366445Y-47192443D01*
X138364834Y-47234595D01*
X138361031Y-47272798D01*
X138355041Y-47303802D01*
X138350695Y-47316896D01*
X138328178Y-47356289D01*
X138297097Y-47389732D01*
X138260070Y-47414783D01*
X138234483Y-47425277D01*
X138197255Y-47433121D01*
X138156686Y-47435788D01*
X138121458Y-47433036D01*
X138076470Y-47418863D01*
X138035457Y-47393032D01*
X138019899Y-47379091D01*
X137996617Y-47351840D01*
X137979568Y-47321065D01*
X137968113Y-47284692D01*
X137961611Y-47240644D01*
X137959424Y-47186846D01*
X137959416Y-47182860D01*
X138062566Y-47182860D01*
X138063347Y-47223214D01*
X138066187Y-47253524D01*
X138071830Y-47276180D01*
X138081023Y-47293574D01*
X138094509Y-47308094D01*
X138103969Y-47315678D01*
X138131617Y-47329083D01*
X138164090Y-47333697D01*
X138197301Y-47329496D01*
X138227158Y-47316454D01*
X138227193Y-47316431D01*
X138242929Y-47301791D01*
X138254182Y-47280494D01*
X138261390Y-47251015D01*
X138264991Y-47211827D01*
X138265604Y-47182622D01*
X138265359Y-47149832D01*
X138264189Y-47126421D01*
X138261657Y-47109273D01*
X138257328Y-47095271D01*
X138251675Y-47083059D01*
X138232162Y-47057171D01*
X138206431Y-47040271D01*
X138176961Y-47032361D01*
X138146228Y-47033446D01*
X138116709Y-47043528D01*
X138090882Y-47062609D01*
X138075407Y-47082856D01*
X138069893Y-47093818D01*
X138066198Y-47106236D01*
X138063976Y-47122807D01*
X138062882Y-47146228D01*
X138062568Y-47179198D01*
X138062566Y-47182860D01*
X137959416Y-47182860D01*
X137961174Y-47129437D01*
X137966924Y-47085908D01*
G37*
G36*
X140400147Y-43219406D02*
G01*
X140450844Y-43219508D01*
X140491396Y-43219748D01*
X140522982Y-43220181D01*
X140546781Y-43220864D01*
X140563972Y-43221854D01*
X140575734Y-43223207D01*
X140583246Y-43224980D01*
X140587686Y-43227228D01*
X140590235Y-43230010D01*
X140591108Y-43231505D01*
X140593678Y-43240210D01*
X140598204Y-43259795D01*
X140604398Y-43288839D01*
X140611971Y-43325921D01*
X140620633Y-43369621D01*
X140630095Y-43418520D01*
X140640068Y-43471196D01*
X140641715Y-43480004D01*
X140651763Y-43532967D01*
X140661416Y-43582209D01*
X140670379Y-43626339D01*
X140678355Y-43663968D01*
X140685050Y-43693705D01*
X140690165Y-43714161D01*
X140693407Y-43723946D01*
X140693759Y-43724457D01*
X140702050Y-43729406D01*
X140720149Y-43738103D01*
X140746202Y-43749788D01*
X140778352Y-43763700D01*
X140814746Y-43779079D01*
X140853530Y-43795166D01*
X140892848Y-43811200D01*
X140930846Y-43826422D01*
X140965669Y-43840071D01*
X140995463Y-43851387D01*
X141018374Y-43859611D01*
X141032546Y-43863981D01*
X141035449Y-43864485D01*
X141044327Y-43861783D01*
X141061018Y-43853093D01*
X141085931Y-43838158D01*
X141119477Y-43816719D01*
X141162064Y-43788517D01*
X141214103Y-43753294D01*
X141244329Y-43732601D01*
X141296697Y-43696641D01*
X141339738Y-43667134D01*
X141374437Y-43643465D01*
X141401782Y-43625019D01*
X141422759Y-43611181D01*
X141438353Y-43601336D01*
X141449552Y-43594870D01*
X141457342Y-43591169D01*
X141462709Y-43589616D01*
X141466639Y-43589597D01*
X141470120Y-43590499D01*
X141471570Y-43590967D01*
X141479560Y-43596500D01*
X141494784Y-43609775D01*
X141516068Y-43629596D01*
X141542237Y-43654767D01*
X141572115Y-43684092D01*
X141604527Y-43716373D01*
X141638298Y-43750415D01*
X141672254Y-43785023D01*
X141705218Y-43818999D01*
X141736015Y-43851147D01*
X141763472Y-43880271D01*
X141786411Y-43905176D01*
X141803659Y-43924664D01*
X141814040Y-43937539D01*
X141816615Y-43942199D01*
X141813175Y-43950076D01*
X141803375Y-43967008D01*
X141787993Y-43991784D01*
X141767809Y-44023195D01*
X141743600Y-44060031D01*
X141716147Y-44101082D01*
X141686227Y-44145138D01*
X141682207Y-44151009D01*
X141641854Y-44210317D01*
X141608586Y-44260165D01*
X141582476Y-44300440D01*
X141563595Y-44331026D01*
X141552018Y-44351809D01*
X141547815Y-44362674D01*
X141547798Y-44363039D01*
X141550265Y-44374109D01*
X141557147Y-44394451D01*
X141567667Y-44422271D01*
X141581049Y-44455776D01*
X141596517Y-44493174D01*
X141613294Y-44532672D01*
X141630604Y-44572476D01*
X141647669Y-44610794D01*
X141663714Y-44645833D01*
X141677962Y-44675799D01*
X141689636Y-44698900D01*
X141697960Y-44713343D01*
X141701200Y-44717235D01*
X141710142Y-44720301D01*
X141729912Y-44725253D01*
X141759031Y-44731780D01*
X141796017Y-44739570D01*
X141839392Y-44748311D01*
X141887676Y-44757689D01*
X141935633Y-44766699D01*
X141987208Y-44776325D01*
X142035311Y-44785474D01*
X142078453Y-44793851D01*
X142115144Y-44801158D01*
X142143892Y-44807099D01*
X142163209Y-44811378D01*
X142171389Y-44813600D01*
X142185455Y-44819510D01*
X142185455Y-45069037D01*
X142185424Y-45131644D01*
X142185298Y-45182903D01*
X142185026Y-45223969D01*
X142184559Y-45255997D01*
X142183848Y-45280144D01*
X142182842Y-45297563D01*
X142181492Y-45309409D01*
X142179748Y-45316839D01*
X142177561Y-45321007D01*
X142174881Y-45323069D01*
X142174515Y-45323233D01*
X142166027Y-45325428D01*
X142146696Y-45329615D01*
X142117973Y-45335504D01*
X142081310Y-45342806D01*
X142038156Y-45351233D01*
X141989964Y-45360496D01*
X141938886Y-45370173D01*
X141876302Y-45382073D01*
X141825124Y-45392106D01*
X141784429Y-45400480D01*
X141753294Y-45407406D01*
X141730796Y-45413095D01*
X141716011Y-45417757D01*
X141708017Y-45421601D01*
X141706399Y-45423108D01*
X141702171Y-45431448D01*
X141693987Y-45449875D01*
X141682493Y-45476850D01*
X141668333Y-45510836D01*
X141652154Y-45550294D01*
X141634600Y-45593684D01*
X141628757Y-45608250D01*
X141605766Y-45666390D01*
X141587743Y-45713565D01*
X141574535Y-45750215D01*
X141565988Y-45776780D01*
X141561947Y-45793701D01*
X141561675Y-45799813D01*
X141565784Y-45808820D01*
X141576228Y-45826777D01*
X141592175Y-45852391D01*
X141612791Y-45884366D01*
X141637245Y-45921409D01*
X141664704Y-45962226D01*
X141690526Y-46000001D01*
X141719757Y-46042746D01*
X141746592Y-46082557D01*
X141770223Y-46118192D01*
X141789844Y-46148411D01*
X141804648Y-46171972D01*
X141813828Y-46187635D01*
X141816615Y-46193948D01*
X141812317Y-46200628D01*
X141800062Y-46215065D01*
X141780804Y-46236246D01*
X141755498Y-46263158D01*
X141725098Y-46294790D01*
X141690561Y-46330130D01*
X141652840Y-46368165D01*
X141642656Y-46378343D01*
X141597398Y-46423362D01*
X141560083Y-46460140D01*
X141529928Y-46489390D01*
X141506149Y-46511827D01*
X141487962Y-46528161D01*
X141474583Y-46539106D01*
X141465229Y-46545376D01*
X141459115Y-46547681D01*
X141456673Y-46547458D01*
X141448838Y-46542975D01*
X141431983Y-46532229D01*
X141407375Y-46516066D01*
X141376281Y-46495330D01*
X141339970Y-46470865D01*
X141299708Y-46443514D01*
X141263985Y-46419082D01*
X141221442Y-46390128D01*
X141181776Y-46363574D01*
X141146250Y-46340232D01*
X141116128Y-46320915D01*
X141092673Y-46306434D01*
X141077149Y-46297601D01*
X141071152Y-46295141D01*
X141061529Y-46297990D01*
X141043245Y-46305827D01*
X141018579Y-46317591D01*
X140989814Y-46332219D01*
X140976747Y-46339128D01*
X140947011Y-46354520D01*
X140920454Y-46367313D01*
X140899329Y-46376494D01*
X140885887Y-46381047D01*
X140882996Y-46381325D01*
X140879606Y-46378452D01*
X140874281Y-46370185D01*
X140866738Y-46355879D01*
X140856691Y-46334888D01*
X140843857Y-46306569D01*
X140827951Y-46270276D01*
X140808691Y-46225365D01*
X140785790Y-46171190D01*
X140758967Y-46107107D01*
X140727935Y-46032472D01*
X140706390Y-45980449D01*
X140678701Y-45913343D01*
X140652469Y-45849434D01*
X140628081Y-45789689D01*
X140605927Y-45735076D01*
X140586393Y-45686561D01*
X140569869Y-45645111D01*
X140556743Y-45611694D01*
X140547403Y-45587276D01*
X140542237Y-45572824D01*
X140541301Y-45569273D01*
X140546759Y-45557847D01*
X140561657Y-45544321D01*
X140567870Y-45540067D01*
X140585656Y-45528132D01*
X140609060Y-45511793D01*
X140633684Y-45494131D01*
X140639392Y-45489960D01*
X140700133Y-45437961D01*
X140751184Y-45378842D01*
X140792213Y-45313777D01*
X140822886Y-45243939D01*
X140842874Y-45170501D01*
X140851842Y-45094636D01*
X140849458Y-45017516D01*
X140835391Y-44940314D01*
X140813669Y-44874684D01*
X140794103Y-44831811D01*
X140771112Y-44793186D01*
X140742393Y-44755485D01*
X140705644Y-44715386D01*
X140697589Y-44707248D01*
X140642189Y-44657993D01*
X140584487Y-44619533D01*
X140521639Y-44590173D01*
X140475660Y-44574870D01*
X140430965Y-44565565D01*
X140378790Y-44560421D01*
X140323444Y-44559439D01*
X140269236Y-44562619D01*
X140220475Y-44569961D01*
X140200592Y-44574870D01*
X140126943Y-44602327D01*
X140058930Y-44640104D01*
X139997567Y-44687119D01*
X139943869Y-44742286D01*
X139898850Y-44804523D01*
X139863525Y-44872745D01*
X139838907Y-44945870D01*
X139834233Y-44966288D01*
X139824205Y-45044841D01*
X139826194Y-45122763D01*
X139839726Y-45198831D01*
X139864328Y-45271825D01*
X139899528Y-45340520D01*
X139944853Y-45403696D01*
X139999829Y-45460131D01*
X140036860Y-45489960D01*
X140061114Y-45507478D01*
X140085222Y-45524425D01*
X140104788Y-45537721D01*
X140108382Y-45540067D01*
X140125766Y-45553750D01*
X140134398Y-45566090D01*
X140134951Y-45569273D01*
X140132612Y-45576954D01*
X140125855Y-45595210D01*
X140115067Y-45623075D01*
X140100637Y-45659580D01*
X140082953Y-45703760D01*
X140062403Y-45754647D01*
X140039376Y-45811273D01*
X140014260Y-45872673D01*
X139987443Y-45937880D01*
X139969862Y-45980449D01*
X139936071Y-46061973D01*
X139906664Y-46132543D01*
X139881357Y-46192804D01*
X139859866Y-46243400D01*
X139841907Y-46284977D01*
X139827197Y-46318179D01*
X139815450Y-46343651D01*
X139806383Y-46362039D01*
X139799712Y-46373986D01*
X139795152Y-46380138D01*
X139793256Y-46381325D01*
X139783888Y-46379117D01*
X139765850Y-46371838D01*
X139741394Y-46360502D01*
X139712773Y-46346123D01*
X139699504Y-46339128D01*
X139669676Y-46323594D01*
X139642967Y-46310468D01*
X139621659Y-46300812D01*
X139608031Y-46295687D01*
X139605100Y-46295141D01*
X139597246Y-46298579D01*
X139580396Y-46308350D01*
X139555813Y-46323642D01*
X139524761Y-46343644D01*
X139488503Y-46367542D01*
X139448302Y-46394526D01*
X139412267Y-46419082D01*
X139369677Y-46448193D01*
X139329980Y-46475125D01*
X139294443Y-46499033D01*
X139264333Y-46519073D01*
X139240918Y-46534400D01*
X139225464Y-46544169D01*
X139219578Y-46547458D01*
X139215034Y-46547190D01*
X139207720Y-46543387D01*
X139196852Y-46535336D01*
X139181647Y-46522324D01*
X139161321Y-46503638D01*
X139135090Y-46478566D01*
X139102169Y-46446395D01*
X139061776Y-46406412D01*
X139033595Y-46378343D01*
X138995205Y-46339775D01*
X138959750Y-46303639D01*
X138928186Y-46270948D01*
X138901468Y-46242715D01*
X138880549Y-46219950D01*
X138866386Y-46203668D01*
X138859934Y-46194879D01*
X138859637Y-46193948D01*
X138863080Y-46186434D01*
X138872871Y-46169907D01*
X138888204Y-46145609D01*
X138908271Y-46114781D01*
X138932266Y-46078662D01*
X138959383Y-46038495D01*
X138985726Y-46000001D01*
X139015129Y-45956944D01*
X139042256Y-45916529D01*
X139066274Y-45880050D01*
X139086351Y-45848802D01*
X139101653Y-45824078D01*
X139111348Y-45807173D01*
X139114576Y-45799813D01*
X139113435Y-45789039D01*
X139107889Y-45768911D01*
X139097786Y-45738990D01*
X139082969Y-45698836D01*
X139063286Y-45648008D01*
X139047495Y-45608250D01*
X139029635Y-45563920D01*
X139012942Y-45523027D01*
X138998062Y-45487110D01*
X138985638Y-45457708D01*
X138976317Y-45436358D01*
X138970744Y-45424600D01*
X138969853Y-45423108D01*
X138964591Y-45419560D01*
X138952950Y-45415289D01*
X138934007Y-45410085D01*
X138906839Y-45403736D01*
X138870523Y-45396034D01*
X138824136Y-45386767D01*
X138766755Y-45375726D01*
X138737366Y-45370173D01*
X138685623Y-45360369D01*
X138637488Y-45351116D01*
X138594411Y-45342702D01*
X138557843Y-45335416D01*
X138529235Y-45329547D01*
X138510039Y-45325385D01*
X138501736Y-45323233D01*
X138498992Y-45321351D01*
X138496747Y-45317504D01*
X138494952Y-45310537D01*
X138493556Y-45299295D01*
X138492511Y-45282623D01*
X138491766Y-45259366D01*
X138491272Y-45228368D01*
X138490979Y-45188474D01*
X138490837Y-45138530D01*
X138490797Y-45077380D01*
X138490796Y-45069037D01*
X138490796Y-44819510D01*
X138504862Y-44813600D01*
X138514116Y-44811125D01*
X138534181Y-44806713D01*
X138563568Y-44800660D01*
X138600787Y-44793264D01*
X138644347Y-44784820D01*
X138692759Y-44775626D01*
X138740618Y-44766699D01*
X138792136Y-44757008D01*
X138840120Y-44747665D01*
X138883090Y-44738982D01*
X138919567Y-44731271D01*
X138948070Y-44724846D01*
X138967119Y-44720017D01*
X138975051Y-44717235D01*
X138980787Y-44709366D01*
X138990377Y-44691676D01*
X139003044Y-44665958D01*
X139018012Y-44634004D01*
X139034504Y-44597609D01*
X139051744Y-44558564D01*
X139068955Y-44518663D01*
X139085360Y-44479699D01*
X139100183Y-44443465D01*
X139112648Y-44411753D01*
X139121978Y-44386357D01*
X139127397Y-44369070D01*
X139128453Y-44363039D01*
X139124739Y-44352831D01*
X139113645Y-44332699D01*
X139095244Y-44302756D01*
X139069608Y-44263116D01*
X139036810Y-44213896D01*
X138996922Y-44155208D01*
X138994045Y-44151009D01*
X138963863Y-44106652D01*
X138936045Y-44065143D01*
X138911372Y-44027693D01*
X138890622Y-43995510D01*
X138874573Y-43969805D01*
X138864005Y-43951787D01*
X138859697Y-43942667D01*
X138859637Y-43942199D01*
X138863916Y-43935244D01*
X138875968Y-43920754D01*
X138894619Y-43899924D01*
X138918693Y-43873950D01*
X138947016Y-43844030D01*
X138978412Y-43811359D01*
X139011706Y-43777134D01*
X139045722Y-43742550D01*
X139079287Y-43708804D01*
X139111224Y-43677093D01*
X139140359Y-43648611D01*
X139165516Y-43624557D01*
X139185520Y-43606125D01*
X139199196Y-43594512D01*
X139204682Y-43590967D01*
X139208344Y-43589885D01*
X139212143Y-43589541D01*
X139217065Y-43590549D01*
X139224096Y-43593523D01*
X139234224Y-43599079D01*
X139248434Y-43607831D01*
X139267712Y-43620393D01*
X139293047Y-43637381D01*
X139325424Y-43659409D01*
X139365830Y-43687091D01*
X139415252Y-43721042D01*
X139432606Y-43732970D01*
X139489558Y-43771858D01*
X139536848Y-43803582D01*
X139574878Y-43828396D01*
X139604052Y-43846554D01*
X139624772Y-43858311D01*
X139637440Y-43863922D01*
X139640797Y-43864505D01*
X139650764Y-43861986D01*
X139670254Y-43855293D01*
X139697412Y-43845186D01*
X139730379Y-43832425D01*
X139767298Y-43817772D01*
X139806311Y-43801987D01*
X139845561Y-43785832D01*
X139883190Y-43770066D01*
X139917340Y-43755451D01*
X139946153Y-43742748D01*
X139967773Y-43732716D01*
X139980342Y-43726118D01*
X139982437Y-43724591D01*
X139985367Y-43716782D01*
X139990213Y-43698058D01*
X139996680Y-43669812D01*
X140004470Y-43633436D01*
X140013288Y-43590320D01*
X140022836Y-43541856D01*
X140032818Y-43489436D01*
X140034559Y-43480108D01*
X140044562Y-43426957D01*
X140054106Y-43377349D01*
X140062901Y-43332706D01*
X140070659Y-43294450D01*
X140077091Y-43264002D01*
X140081906Y-43242783D01*
X140084818Y-43232217D01*
X140085087Y-43231610D01*
X140087149Y-43228535D01*
X140090509Y-43226024D01*
X140096345Y-43224019D01*
X140105837Y-43222464D01*
X140120166Y-43221302D01*
X140140510Y-43220476D01*
X140168048Y-43219928D01*
X140203962Y-43219603D01*
X140249430Y-43219442D01*
X140305631Y-43219388D01*
X140338126Y-43219385D01*
X140400147Y-43219406D01*
G37*
G36*
X139713604Y-47724084D02*
G01*
X139727038Y-47729643D01*
X139744721Y-47738697D01*
X139756637Y-47746371D01*
X139759859Y-47750103D01*
X139756110Y-47756956D01*
X139746104Y-47770800D01*
X139731699Y-47789116D01*
X139725211Y-47797025D01*
X139690564Y-47838766D01*
X139670510Y-47826539D01*
X139641073Y-47815323D01*
X139610339Y-47815030D01*
X139581211Y-47824808D01*
X139556596Y-47843807D01*
X139542618Y-47864039D01*
X139538326Y-47873062D01*
X139535009Y-47882136D01*
X139532541Y-47892943D01*
X139530797Y-47907165D01*
X139529651Y-47926483D01*
X139528980Y-47952579D01*
X139528657Y-47987135D01*
X139528557Y-48031833D01*
X139528552Y-48053148D01*
X139528552Y-48214364D01*
X139428527Y-48214364D01*
X139428527Y-47720492D01*
X139528552Y-47720492D01*
X139528552Y-47771479D01*
X139553510Y-47750115D01*
X139588677Y-47727909D01*
X139628812Y-47715965D01*
X139671320Y-47714588D01*
X139713604Y-47724084D01*
G37*
G36*
X142315994Y-47101537D02*
G01*
X142333106Y-47048495D01*
X142358239Y-47004780D01*
X142391169Y-46970633D01*
X142431671Y-46946291D01*
X142474267Y-46932995D01*
X142523392Y-46929200D01*
X142571096Y-46937477D01*
X142615916Y-46957394D01*
X142653516Y-46985789D01*
X142677249Y-47011071D01*
X142694270Y-47037451D01*
X142705639Y-47067731D01*
X142712417Y-47104718D01*
X142715622Y-47150039D01*
X142718186Y-47220369D01*
X142410511Y-47220369D01*
X142410511Y-47237799D01*
X142414703Y-47259144D01*
X142425490Y-47283823D01*
X142440184Y-47306790D01*
X142455750Y-47322748D01*
X142475254Y-47331555D01*
X142502149Y-47336956D01*
X142531681Y-47338513D01*
X142559095Y-47335786D01*
X142568955Y-47333217D01*
X142589103Y-47324624D01*
X142610265Y-47312850D01*
X142613816Y-47310524D01*
X142636443Y-47295169D01*
X142670388Y-47324170D01*
X142687093Y-47339098D01*
X142699211Y-47351179D01*
X142704302Y-47357966D01*
X142704333Y-47358207D01*
X142699910Y-47364868D01*
X142688731Y-47375882D01*
X142682250Y-47381447D01*
X142636918Y-47410941D01*
X142586452Y-47429787D01*
X142533105Y-47437426D01*
X142479130Y-47433295D01*
X142476152Y-47432708D01*
X142427788Y-47417074D01*
X142387048Y-47391624D01*
X142354298Y-47356724D01*
X142329903Y-47312741D01*
X142317300Y-47273969D01*
X142313012Y-47247379D01*
X142310549Y-47213025D01*
X142309946Y-47175519D01*
X142311238Y-47139472D01*
X142311278Y-47139099D01*
X142410511Y-47139099D01*
X142618203Y-47139099D01*
X142613909Y-47115656D01*
X142602114Y-47079713D01*
X142582028Y-47052311D01*
X142554667Y-47034359D01*
X142521051Y-47026768D01*
X142514202Y-47026571D01*
X142485697Y-47029620D01*
X142461480Y-47037698D01*
X142460581Y-47038170D01*
X142441437Y-47053933D01*
X142424765Y-47077124D01*
X142413550Y-47102786D01*
X142410511Y-47121328D01*
X142410511Y-47139099D01*
X142311278Y-47139099D01*
X142314460Y-47109494D01*
X142315994Y-47101537D01*
G37*
G36*
X141806295Y-46931486D02*
G01*
X141843683Y-46939594D01*
X141871158Y-46952421D01*
X141891720Y-46965129D01*
X141879520Y-46981784D01*
X141868374Y-46996055D01*
X141853083Y-47014505D01*
X141843309Y-47025863D01*
X141819297Y-47053286D01*
X141799512Y-47043054D01*
X141774575Y-47035096D01*
X141745885Y-47033181D01*
X141718775Y-47037232D01*
X141702180Y-47044468D01*
X141691270Y-47051898D01*
X141682622Y-47059178D01*
X141675943Y-47067801D01*
X141670940Y-47079263D01*
X141667320Y-47095055D01*
X141664791Y-47116674D01*
X141663058Y-47145612D01*
X141661830Y-47183364D01*
X141660813Y-47231424D01*
X141660326Y-47257878D01*
X141657200Y-47429796D01*
X141605625Y-47431611D01*
X141554050Y-47433427D01*
X141554050Y-46932293D01*
X141605625Y-46934108D01*
X141657200Y-46935924D01*
X141660326Y-46960400D01*
X141662804Y-46975413D01*
X141665912Y-46979819D01*
X141671185Y-46975481D01*
X141671969Y-46974542D01*
X141697175Y-46953131D01*
X141729995Y-46938593D01*
X141767384Y-46931265D01*
X141806295Y-46931486D01*
G37*
G36*
X141803023Y-47815243D02*
G01*
X141830117Y-47775736D01*
X141864701Y-47745773D01*
X141906421Y-47725742D01*
X141954924Y-47716027D01*
X141961192Y-47715572D01*
X142013552Y-47717762D01*
X142059924Y-47730766D01*
X142099865Y-47754336D01*
X142132934Y-47788225D01*
X142154860Y-47824040D01*
X142163994Y-47843609D01*
X142170105Y-47860495D01*
X142173949Y-47878369D01*
X142176280Y-47900901D01*
X142177853Y-47931763D01*
X142178051Y-47936836D01*
X142180777Y-48008063D01*
X141871232Y-48008063D01*
X141874723Y-48034091D01*
X141884956Y-48065845D01*
X141905246Y-48092784D01*
X141933449Y-48112814D01*
X141966567Y-48123702D01*
X141994311Y-48123929D01*
X142026054Y-48117553D01*
X142056300Y-48106108D01*
X142077837Y-48092629D01*
X142096080Y-48077278D01*
X142129828Y-48105952D01*
X142146777Y-48120762D01*
X142159471Y-48132625D01*
X142165301Y-48139097D01*
X142165374Y-48139256D01*
X142162209Y-48146774D01*
X142150698Y-48158394D01*
X142133413Y-48172124D01*
X142112925Y-48185974D01*
X142091807Y-48197955D01*
X142085716Y-48200895D01*
X142054620Y-48211135D01*
X142017094Y-48217480D01*
X141977902Y-48219604D01*
X141941808Y-48217181D01*
X141919765Y-48212229D01*
X141879568Y-48195912D01*
X141848273Y-48175475D01*
X141822364Y-48148242D01*
X141807506Y-48126842D01*
X141788988Y-48087828D01*
X141776521Y-48040463D01*
X141770588Y-47987588D01*
X141771669Y-47932044D01*
X141772715Y-47921349D01*
X141772871Y-47920541D01*
X141871232Y-47920541D01*
X142078867Y-47920541D01*
X142074995Y-47900224D01*
X142062943Y-47863287D01*
X142043100Y-47835292D01*
X142016408Y-47817018D01*
X141983808Y-47809240D01*
X141965083Y-47809577D01*
X141930879Y-47818467D01*
X141903280Y-47837012D01*
X141883919Y-47863679D01*
X141874723Y-47894513D01*
X141871232Y-47920541D01*
X141772871Y-47920541D01*
X141783771Y-47863909D01*
X141803023Y-47815243D01*
G37*
G36*
X142120509Y-46928847D02*
G01*
X142144168Y-46932973D01*
X142154236Y-46935443D01*
X142194930Y-46949886D01*
X142233014Y-46970751D01*
X142263813Y-46995425D01*
X142266551Y-46998254D01*
X142276071Y-47009261D01*
X142277440Y-47016479D01*
X142271160Y-47025144D01*
X142269316Y-47027195D01*
X142256847Y-47039426D01*
X142240083Y-47054039D01*
X142234342Y-47058697D01*
X142211336Y-47076942D01*
X142182527Y-47056636D01*
X142163529Y-47044754D01*
X142145578Y-47038086D01*
X142123017Y-47034829D01*
X142111761Y-47034096D01*
X142071789Y-47035986D01*
X142039968Y-47046800D01*
X142015104Y-47067155D01*
X141998468Y-47092574D01*
X141990785Y-47109631D01*
X141986075Y-47126228D01*
X141983651Y-47146334D01*
X141982823Y-47173915D01*
X141982784Y-47182860D01*
X141983284Y-47213618D01*
X141985301Y-47235822D01*
X141989469Y-47253391D01*
X141996424Y-47270244D01*
X141997192Y-47271825D01*
X142017541Y-47300264D01*
X142045235Y-47320349D01*
X142077967Y-47331672D01*
X142113431Y-47333831D01*
X142149322Y-47326417D01*
X142183332Y-47309027D01*
X142188273Y-47305423D01*
X142210728Y-47288296D01*
X142234038Y-47306782D01*
X142251005Y-47321044D01*
X142265622Y-47334658D01*
X142269257Y-47338459D01*
X142277232Y-47348513D01*
X142276684Y-47355808D01*
X142269257Y-47364882D01*
X142244455Y-47386747D01*
X142212092Y-47407273D01*
X142177013Y-47423538D01*
X142165201Y-47427619D01*
X142136901Y-47435074D01*
X142111670Y-47437908D01*
X142083978Y-47436394D01*
X142059997Y-47432867D01*
X142022084Y-47421771D01*
X141983798Y-47402577D01*
X141950687Y-47378200D01*
X141944283Y-47372062D01*
X141917355Y-47336354D01*
X141897320Y-47292106D01*
X141884743Y-47241558D01*
X141880187Y-47186952D01*
X141883978Y-47132132D01*
X141897010Y-47075468D01*
X141918298Y-47028168D01*
X141947973Y-46990091D01*
X141986166Y-46961097D01*
X142033008Y-46941047D01*
X142071129Y-46932238D01*
X142098430Y-46928690D01*
X142120509Y-46928847D01*
G37*
X117340000Y-41975000D02*
X118990000Y-41975000D01*
X120990000Y-41975000D02*
X122640000Y-41975000D01*
X122640000Y-24075000D02*
X117340000Y-24075000D01*
X122640000Y-41975000D02*
X122640000Y-24075000D01*
X117340000Y-24075000D02*
X117340000Y-41975000D01*
X120990000Y-41975000D02*
G75*
G03*
X118990000Y-41975000I-1000000J0D01*
G01*
%LPC*%
D13*
X105405000Y-66082500D03*
D14*
X115565000Y-66082500D03*
D13*
X134615000Y-47032500D03*
D14*
X134615000Y-57192500D03*
D13*
X132075000Y-47032500D03*
D14*
X132075000Y-57192500D03*
D15*
X95250000Y-29210000D03*
X140335000Y-29210000D03*
D13*
X109240000Y-44450000D03*
X111740000Y-44450000D03*
D16*
X105405000Y-107992500D03*
D14*
X107945000Y-107992500D03*
X110485000Y-107992500D03*
X113025000Y-107992500D03*
X115565000Y-107992500D03*
X118105000Y-107992500D03*
X120645000Y-107992500D03*
X123185000Y-107992500D03*
X125725000Y-107992500D03*
X128265000Y-107992500D03*
X130805000Y-107992500D03*
X133345000Y-107992500D03*
X133345000Y-92752500D03*
X130805000Y-92752500D03*
X128265000Y-92752500D03*
X125725000Y-92752500D03*
X123185000Y-92752500D03*
X120645000Y-92752500D03*
X118105000Y-92752500D03*
X115565000Y-92752500D03*
X113025000Y-92752500D03*
X110485000Y-92752500D03*
X107945000Y-92752500D03*
X105405000Y-92752500D03*
D16*
X113015000Y-40640000D03*
D14*
X113015000Y-38100000D03*
X113015000Y-35560000D03*
X113015000Y-33020000D03*
X113015000Y-30480000D03*
X113015000Y-27940000D03*
X113015000Y-25400000D03*
X113015000Y-22860000D03*
X105395000Y-22860000D03*
X105395000Y-25400000D03*
X105395000Y-27940000D03*
X105395000Y-30480000D03*
X105395000Y-33020000D03*
X105395000Y-35560000D03*
X105395000Y-38100000D03*
X105395000Y-40640000D03*
D17*
X142240000Y-60960000D03*
D18*
X142240000Y-63500000D03*
X142240000Y-66040000D03*
X142240000Y-68580000D03*
X142240000Y-71120000D03*
X142240000Y-73660000D03*
X142240000Y-76200000D03*
X142240000Y-78740000D03*
X142240000Y-81280000D03*
X142240000Y-83820000D03*
X142240000Y-86360000D03*
X142240000Y-88900000D03*
X142240000Y-91440000D03*
X142240000Y-93980000D03*
X142240000Y-96520000D03*
X142240000Y-99060000D03*
X142240000Y-101600000D03*
X142240000Y-104140000D03*
X142240000Y-106680000D03*
X142240000Y-109220000D03*
D13*
X130805000Y-63542500D03*
D14*
X120645000Y-63542500D03*
D13*
X130805000Y-66082500D03*
D14*
X120645000Y-66082500D03*
D16*
X105410000Y-85132500D03*
D14*
X107950000Y-85132500D03*
X110490000Y-85132500D03*
X113030000Y-85132500D03*
X115570000Y-85132500D03*
X118110000Y-85132500D03*
X120650000Y-85132500D03*
X123190000Y-85132500D03*
X125730000Y-85132500D03*
X128270000Y-85132500D03*
X130810000Y-85132500D03*
X133350000Y-85132500D03*
X133350000Y-69892500D03*
X130810000Y-69892500D03*
X128270000Y-69892500D03*
X125730000Y-69892500D03*
X123190000Y-69892500D03*
X120650000Y-69892500D03*
X118110000Y-69892500D03*
X115570000Y-69892500D03*
X113030000Y-69892500D03*
X110490000Y-69892500D03*
X107950000Y-69892500D03*
X105410000Y-69892500D03*
D16*
X99017500Y-56525000D03*
D14*
X99017500Y-53985000D03*
X99017500Y-51445000D03*
X99017500Y-48905000D03*
X99017500Y-46365000D03*
X99017500Y-43825000D03*
X99017500Y-41285000D03*
X99017500Y-38745000D03*
X91397500Y-38745000D03*
X91397500Y-41285000D03*
X91397500Y-43825000D03*
X91397500Y-46365000D03*
X91397500Y-48905000D03*
X91397500Y-51445000D03*
X91397500Y-53985000D03*
X91397500Y-56525000D03*
D13*
X126995000Y-46990000D03*
D14*
X126995000Y-57150000D03*
D16*
X134605000Y-40645000D03*
D14*
X134605000Y-38105000D03*
X134605000Y-35565000D03*
X134605000Y-33025000D03*
X134605000Y-30485000D03*
X134605000Y-27945000D03*
X134605000Y-25405000D03*
X126985000Y-25405000D03*
X126985000Y-27945000D03*
X126985000Y-30485000D03*
X126985000Y-33025000D03*
X126985000Y-35565000D03*
X126985000Y-38105000D03*
X126985000Y-40645000D03*
D13*
X136485000Y-61595000D03*
X133985000Y-61595000D03*
D17*
X96520000Y-60960000D03*
D18*
X96520000Y-63500000D03*
X96520000Y-66040000D03*
X96520000Y-68580000D03*
X96520000Y-71120000D03*
X96520000Y-73660000D03*
X96520000Y-76200000D03*
X96520000Y-78740000D03*
X96520000Y-81280000D03*
X96520000Y-83820000D03*
X96520000Y-86360000D03*
X96520000Y-88900000D03*
X96520000Y-91440000D03*
X96520000Y-93980000D03*
X96520000Y-96520000D03*
X96520000Y-99060000D03*
X96520000Y-101600000D03*
X96520000Y-104140000D03*
X96520000Y-106680000D03*
X96520000Y-109220000D03*
D13*
X105405000Y-63542500D03*
D14*
X115565000Y-63542500D03*
D13*
X129535000Y-47032500D03*
D14*
X129535000Y-57192500D03*
D16*
X123800000Y-40645000D03*
D14*
X123800000Y-38105000D03*
X123800000Y-35565000D03*
X123800000Y-33025000D03*
X123800000Y-30485000D03*
X123800000Y-27945000D03*
X123800000Y-25405000D03*
X116180000Y-25405000D03*
X116180000Y-27945000D03*
X116180000Y-30485000D03*
X116180000Y-33025000D03*
X116180000Y-35565000D03*
X116180000Y-38105000D03*
X116180000Y-40645000D03*
M02*
