M48
; DRILL file {KiCad (6.0.4)} date Sat Dec 31 00:26:04 2022
; FORMAT={-:-/ absolute / metric / decimal}
; #@! TF.CreationDate,2022-12-31T00:26:04-05:00
; #@! TF.GenerationSoftware,Kicad,Pcbnew,(6.0.4)
; #@! TF.FileFunction,Plated,1,2,PTH
FMAT,2
METRIC
; #@! TA.AperFunction,Plated,PTH,ViaDrill
T1C0.400
; #@! TA.AperFunction,Plated,PTH,ComponentDrill
T2C0.800
; #@! TA.AperFunction,Plated,PTH,ComponentDrill
T3C1.000
%
G90
G05
T1
X99.06Y-109.855
X101.455Y-31.895
X101.74Y-34.15
X102.597Y-30.842
X103.505Y-60.96
X105.41Y-81.28
X106.68Y-57.15
X106.68Y-82.55
X107.95Y-80.01
X109.07Y-50.697
X109.22Y-48.26
X109.22Y-86.995
X110.49Y-78.74
X113.03Y-57.15
X113.03Y-67.31
X113.03Y-77.47
X114.3Y-54.61
X115.57Y-76.2
X116.84Y-52.07
X117.475Y-36.83
X118.11Y-88.265
X119.38Y-53.34
X119.38Y-74.93
X121.92Y-73.66
X121.92Y-78.74
X123.185Y-98.468
X124.455Y-64.775
X124.46Y-71.755
X124.46Y-77.47
X125.725Y-97.197
X127.0Y-67.31
X127.0Y-76.2
X127.0Y-88.9
X128.265Y-95.927
X129.54Y-34.925
X129.54Y-68.58
X129.54Y-90.17
X130.805Y-94.657
X130.81Y-26.67
X130.81Y-74.93
X132.08Y-71.12
X132.08Y-91.44
X133.35Y-73.66
X136.525Y-39.37
X137.16Y-109.855
T2
X91.397Y-38.745
X91.397Y-41.285
X91.397Y-43.825
X91.397Y-46.365
X91.397Y-48.905
X91.397Y-51.445
X91.397Y-53.985
X91.397Y-56.525
X99.017Y-38.745
X99.017Y-41.285
X99.017Y-43.825
X99.017Y-46.365
X99.017Y-48.905
X99.017Y-51.445
X99.017Y-53.985
X99.017Y-56.525
X105.395Y-22.86
X105.395Y-25.4
X105.395Y-27.94
X105.395Y-30.48
X105.395Y-33.02
X105.395Y-35.56
X105.395Y-38.1
X105.395Y-40.64
X105.405Y-63.542
X105.405Y-66.082
X105.405Y-92.752
X105.405Y-107.992
X105.41Y-69.892
X105.41Y-85.132
X107.945Y-92.752
X107.945Y-107.992
X107.95Y-69.892
X107.95Y-85.132
X109.24Y-44.45
X110.485Y-92.752
X110.485Y-107.992
X110.49Y-69.892
X110.49Y-85.132
X111.74Y-44.45
X113.015Y-22.86
X113.015Y-25.4
X113.015Y-27.94
X113.015Y-30.48
X113.015Y-33.02
X113.015Y-35.56
X113.015Y-38.1
X113.015Y-40.64
X113.025Y-92.752
X113.025Y-107.992
X113.03Y-69.892
X113.03Y-85.132
X115.565Y-63.542
X115.565Y-66.082
X115.565Y-92.752
X115.565Y-107.992
X115.57Y-69.892
X115.57Y-85.132
X116.18Y-25.405
X116.18Y-27.945
X116.18Y-30.485
X116.18Y-33.025
X116.18Y-35.565
X116.18Y-38.105
X116.18Y-40.645
X118.105Y-92.752
X118.105Y-107.992
X118.11Y-69.892
X118.11Y-85.132
X120.645Y-63.542
X120.645Y-66.082
X120.645Y-92.752
X120.645Y-107.992
X120.65Y-69.892
X120.65Y-85.132
X123.185Y-92.752
X123.185Y-107.992
X123.19Y-69.892
X123.19Y-85.132
X123.8Y-25.405
X123.8Y-27.945
X123.8Y-30.485
X123.8Y-33.025
X123.8Y-35.565
X123.8Y-38.105
X123.8Y-40.645
X125.725Y-92.752
X125.725Y-107.992
X125.73Y-69.892
X125.73Y-85.132
X126.985Y-25.405
X126.985Y-27.945
X126.985Y-30.485
X126.985Y-33.025
X126.985Y-35.565
X126.985Y-38.105
X126.985Y-40.645
X126.995Y-46.99
X126.995Y-57.15
X128.265Y-92.752
X128.265Y-107.992
X128.27Y-69.892
X128.27Y-85.132
X129.535Y-47.032
X129.535Y-57.192
X130.805Y-63.542
X130.805Y-66.082
X130.805Y-92.752
X130.805Y-107.992
X130.81Y-69.892
X130.81Y-85.132
X132.075Y-47.032
X132.075Y-57.192
X133.345Y-92.752
X133.345Y-107.992
X133.35Y-69.892
X133.35Y-85.132
X133.985Y-61.595
X134.605Y-25.405
X134.605Y-27.945
X134.605Y-30.485
X134.605Y-33.025
X134.605Y-35.565
X134.605Y-38.105
X134.605Y-40.645
X134.615Y-47.032
X134.615Y-57.192
X136.485Y-61.595
T3
X96.52Y-60.96
X96.52Y-63.5
X96.52Y-66.04
X96.52Y-68.58
X96.52Y-71.12
X96.52Y-73.66
X96.52Y-76.2
X96.52Y-78.74
X96.52Y-81.28
X96.52Y-83.82
X96.52Y-86.36
X96.52Y-88.9
X96.52Y-91.44
X96.52Y-93.98
X96.52Y-96.52
X96.52Y-99.06
X96.52Y-101.6
X96.52Y-104.14
X96.52Y-106.68
X96.52Y-109.22
X142.24Y-60.96
X142.24Y-63.5
X142.24Y-66.04
X142.24Y-68.58
X142.24Y-71.12
X142.24Y-73.66
X142.24Y-76.2
X142.24Y-78.74
X142.24Y-81.28
X142.24Y-83.82
X142.24Y-86.36
X142.24Y-88.9
X142.24Y-91.44
X142.24Y-93.98
X142.24Y-96.52
X142.24Y-99.06
X142.24Y-101.6
X142.24Y-104.14
X142.24Y-106.68
X142.24Y-109.22
T0
M30
