%FSLAX45Y45*%
G04 Gerber Fmt 4.5, Leading zero omitted, Abs format (unit mm)*
G04 Created by KiCad (PCBNEW (6.0.4)) date 2022-12-31 00:26:05*
%MOMM*%
%LPD*%
G01*
G04 APERTURE LIST*
%TA.AperFunction,Profile*%
%ADD10C,0.100000*%
%TD*%
%ADD11C,0.200000*%
%ADD12C,0.040000*%
%ADD13C,0.080000*%
%ADD14C,0.100000*%
G04 APERTURE END LIST*
D10*
X14682590Y-2476500D02*
G75*
G03*
X13984086Y-1778000I-698500J0D01*
G01*
X8939414Y-10682086D02*
G75*
G03*
X9637914Y-11380586I698496J-4D01*
G01*
X9637914Y-1778000D02*
X13984086Y-1778000D01*
X13984086Y-11380586D02*
G75*
G03*
X14682586Y-10682086I0J698500D01*
G01*
X8939414Y-10682086D02*
X8939414Y-2476500D01*
X13984086Y-11380586D02*
X9637914Y-11380586D01*
X14682586Y-2476500D02*
X14682586Y-10682086D01*
X9637914Y-1778004D02*
G75*
G03*
X8939414Y-2476500I-4J-698496D01*
G01*
D11*
D12*
X9886000Y-10965500D02*
X9926000Y-11005500D01*
X9926000Y-10965500D02*
X9886000Y-11005500D01*
X10125451Y-3169549D02*
X10165451Y-3209549D01*
X10165451Y-3169549D02*
X10125451Y-3209549D01*
X10154049Y-3394951D02*
X10194049Y-3434951D01*
X10194049Y-3394951D02*
X10154049Y-3434951D01*
X10239692Y-3064192D02*
X10279692Y-3104192D01*
X10279692Y-3064192D02*
X10239692Y-3104192D01*
X10330500Y-6076000D02*
X10370500Y-6116000D01*
X10370500Y-6076000D02*
X10330500Y-6116000D01*
X10521000Y-8108000D02*
X10561000Y-8148000D01*
X10561000Y-8108000D02*
X10521000Y-8148000D01*
X10648000Y-5695000D02*
X10688000Y-5735000D01*
X10688000Y-5695000D02*
X10648000Y-5735000D01*
X10648000Y-8235000D02*
X10688000Y-8275000D01*
X10688000Y-8235000D02*
X10648000Y-8275000D01*
X10775000Y-7981000D02*
X10815000Y-8021000D01*
X10815000Y-7981000D02*
X10775000Y-8021000D01*
X10886951Y-5049701D02*
X10926951Y-5089701D01*
X10926951Y-5049701D02*
X10886951Y-5089701D01*
X10902000Y-4806000D02*
X10942000Y-4846000D01*
X10942000Y-4806000D02*
X10902000Y-4846000D01*
X10902000Y-8679500D02*
X10942000Y-8719500D01*
X10942000Y-8679500D02*
X10902000Y-8719500D01*
X11029000Y-7854000D02*
X11069000Y-7894000D01*
X11069000Y-7854000D02*
X11029000Y-7894000D01*
X11283000Y-5695000D02*
X11323000Y-5735000D01*
X11323000Y-5695000D02*
X11283000Y-5735000D01*
X11283000Y-6711000D02*
X11323000Y-6751000D01*
X11323000Y-6711000D02*
X11283000Y-6751000D01*
X11283000Y-7727000D02*
X11323000Y-7767000D01*
X11323000Y-7727000D02*
X11283000Y-7767000D01*
X11410000Y-5441000D02*
X11450000Y-5481000D01*
X11450000Y-5441000D02*
X11410000Y-5481000D01*
X11537000Y-7600000D02*
X11577000Y-7640000D01*
X11577000Y-7600000D02*
X11537000Y-7640000D01*
X11664000Y-5187000D02*
X11704000Y-5227000D01*
X11704000Y-5187000D02*
X11664000Y-5227000D01*
X11727500Y-3663000D02*
X11767500Y-3703000D01*
X11767500Y-3663000D02*
X11727500Y-3703000D01*
X11791000Y-8806500D02*
X11831000Y-8846500D01*
X11831000Y-8806500D02*
X11791000Y-8846500D01*
X11918000Y-5314000D02*
X11958000Y-5354000D01*
X11958000Y-5314000D02*
X11918000Y-5354000D01*
X11918000Y-7473000D02*
X11958000Y-7513000D01*
X11958000Y-7473000D02*
X11918000Y-7513000D01*
X12172000Y-7346000D02*
X12212000Y-7386000D01*
X12212000Y-7346000D02*
X12172000Y-7386000D01*
X12172000Y-7854000D02*
X12212000Y-7894000D01*
X12212000Y-7854000D02*
X12172000Y-7894000D01*
X12298500Y-9826750D02*
X12338500Y-9866750D01*
X12338500Y-9826750D02*
X12298500Y-9866750D01*
X12425500Y-6457500D02*
X12465500Y-6497500D01*
X12465500Y-6457500D02*
X12425500Y-6497500D01*
X12426000Y-7155500D02*
X12466000Y-7195500D01*
X12466000Y-7155500D02*
X12426000Y-7195500D01*
X12426000Y-7727000D02*
X12466000Y-7767000D01*
X12466000Y-7727000D02*
X12426000Y-7767000D01*
X12552500Y-9699750D02*
X12592500Y-9739750D01*
X12592500Y-9699750D02*
X12552500Y-9739750D01*
X12680000Y-6711000D02*
X12720000Y-6751000D01*
X12720000Y-6711000D02*
X12680000Y-6751000D01*
X12680000Y-7600000D02*
X12720000Y-7640000D01*
X12720000Y-7600000D02*
X12680000Y-7640000D01*
X12680000Y-8870000D02*
X12720000Y-8910000D01*
X12720000Y-8870000D02*
X12680000Y-8910000D01*
X12806500Y-9572750D02*
X12846500Y-9612750D01*
X12846500Y-9572750D02*
X12806500Y-9612750D01*
X12934000Y-3472500D02*
X12974000Y-3512500D01*
X12974000Y-3472500D02*
X12934000Y-3512500D01*
X12934000Y-6838000D02*
X12974000Y-6878000D01*
X12974000Y-6838000D02*
X12934000Y-6878000D01*
X12934000Y-8997000D02*
X12974000Y-9037000D01*
X12974000Y-8997000D02*
X12934000Y-9037000D01*
X13060500Y-9445750D02*
X13100500Y-9485750D01*
X13100500Y-9445750D02*
X13060500Y-9485750D01*
X13061000Y-2647000D02*
X13101000Y-2687000D01*
X13101000Y-2647000D02*
X13061000Y-2687000D01*
X13061000Y-7473000D02*
X13101000Y-7513000D01*
X13101000Y-7473000D02*
X13061000Y-7513000D01*
X13188000Y-7092000D02*
X13228000Y-7132000D01*
X13228000Y-7092000D02*
X13188000Y-7132000D01*
X13188000Y-9124000D02*
X13228000Y-9164000D01*
X13228000Y-9124000D02*
X13188000Y-9164000D01*
X13315000Y-7346000D02*
X13355000Y-7386000D01*
X13355000Y-7346000D02*
X13315000Y-7386000D01*
X13632500Y-3917000D02*
X13672500Y-3957000D01*
X13672500Y-3917000D02*
X13632500Y-3957000D01*
X13696000Y-10965500D02*
X13736000Y-11005500D01*
X13736000Y-10965500D02*
X13696000Y-11005500D01*
D13*
X9179750Y-3874500D02*
G75*
G03*
X9179750Y-3874500I-40000J0D01*
G01*
X9179750Y-4128500D02*
G75*
G03*
X9179750Y-4128500I-40000J0D01*
G01*
X9179750Y-4382500D02*
G75*
G03*
X9179750Y-4382500I-40000J0D01*
G01*
X9179750Y-4636500D02*
G75*
G03*
X9179750Y-4636500I-40000J0D01*
G01*
X9179750Y-4890500D02*
G75*
G03*
X9179750Y-4890500I-40000J0D01*
G01*
X9179750Y-5144500D02*
G75*
G03*
X9179750Y-5144500I-40000J0D01*
G01*
X9179750Y-5398500D02*
G75*
G03*
X9179750Y-5398500I-40000J0D01*
G01*
X9179750Y-5652500D02*
G75*
G03*
X9179750Y-5652500I-40000J0D01*
G01*
X9941750Y-3874500D02*
G75*
G03*
X9941750Y-3874500I-40000J0D01*
G01*
X9941750Y-4128500D02*
G75*
G03*
X9941750Y-4128500I-40000J0D01*
G01*
X9941750Y-4382500D02*
G75*
G03*
X9941750Y-4382500I-40000J0D01*
G01*
X9941750Y-4636500D02*
G75*
G03*
X9941750Y-4636500I-40000J0D01*
G01*
X9941750Y-4890500D02*
G75*
G03*
X9941750Y-4890500I-40000J0D01*
G01*
X9941750Y-5144500D02*
G75*
G03*
X9941750Y-5144500I-40000J0D01*
G01*
X9941750Y-5398500D02*
G75*
G03*
X9941750Y-5398500I-40000J0D01*
G01*
X9941750Y-5652500D02*
G75*
G03*
X9941750Y-5652500I-40000J0D01*
G01*
X10579500Y-2286000D02*
G75*
G03*
X10579500Y-2286000I-40000J0D01*
G01*
X10579500Y-2540000D02*
G75*
G03*
X10579500Y-2540000I-40000J0D01*
G01*
X10579500Y-2794000D02*
G75*
G03*
X10579500Y-2794000I-40000J0D01*
G01*
X10579500Y-3048000D02*
G75*
G03*
X10579500Y-3048000I-40000J0D01*
G01*
X10579500Y-3302000D02*
G75*
G03*
X10579500Y-3302000I-40000J0D01*
G01*
X10579500Y-3556000D02*
G75*
G03*
X10579500Y-3556000I-40000J0D01*
G01*
X10579500Y-3810000D02*
G75*
G03*
X10579500Y-3810000I-40000J0D01*
G01*
X10579500Y-4064000D02*
G75*
G03*
X10579500Y-4064000I-40000J0D01*
G01*
X10580500Y-6354250D02*
G75*
G03*
X10580500Y-6354250I-40000J0D01*
G01*
X10580500Y-6608250D02*
G75*
G03*
X10580500Y-6608250I-40000J0D01*
G01*
X10580500Y-9275250D02*
G75*
G03*
X10580500Y-9275250I-40000J0D01*
G01*
X10580500Y-10799250D02*
G75*
G03*
X10580500Y-10799250I-40000J0D01*
G01*
X10581000Y-6989250D02*
G75*
G03*
X10581000Y-6989250I-40000J0D01*
G01*
X10581000Y-8513250D02*
G75*
G03*
X10581000Y-8513250I-40000J0D01*
G01*
X10834500Y-9275250D02*
G75*
G03*
X10834500Y-9275250I-40000J0D01*
G01*
X10834500Y-10799250D02*
G75*
G03*
X10834500Y-10799250I-40000J0D01*
G01*
X10835000Y-6989250D02*
G75*
G03*
X10835000Y-6989250I-40000J0D01*
G01*
X10835000Y-8513250D02*
G75*
G03*
X10835000Y-8513250I-40000J0D01*
G01*
X10964000Y-4445000D02*
G75*
G03*
X10964000Y-4445000I-40000J0D01*
G01*
X11088500Y-9275250D02*
G75*
G03*
X11088500Y-9275250I-40000J0D01*
G01*
X11088500Y-10799250D02*
G75*
G03*
X11088500Y-10799250I-40000J0D01*
G01*
X11089000Y-6989250D02*
G75*
G03*
X11089000Y-6989250I-40000J0D01*
G01*
X11089000Y-8513250D02*
G75*
G03*
X11089000Y-8513250I-40000J0D01*
G01*
X11214000Y-4445000D02*
G75*
G03*
X11214000Y-4445000I-40000J0D01*
G01*
X11341500Y-2286000D02*
G75*
G03*
X11341500Y-2286000I-40000J0D01*
G01*
X11341500Y-2540000D02*
G75*
G03*
X11341500Y-2540000I-40000J0D01*
G01*
X11341500Y-2794000D02*
G75*
G03*
X11341500Y-2794000I-40000J0D01*
G01*
X11341500Y-3048000D02*
G75*
G03*
X11341500Y-3048000I-40000J0D01*
G01*
X11341500Y-3302000D02*
G75*
G03*
X11341500Y-3302000I-40000J0D01*
G01*
X11341500Y-3556000D02*
G75*
G03*
X11341500Y-3556000I-40000J0D01*
G01*
X11341500Y-3810000D02*
G75*
G03*
X11341500Y-3810000I-40000J0D01*
G01*
X11341500Y-4064000D02*
G75*
G03*
X11341500Y-4064000I-40000J0D01*
G01*
X11342500Y-9275250D02*
G75*
G03*
X11342500Y-9275250I-40000J0D01*
G01*
X11342500Y-10799250D02*
G75*
G03*
X11342500Y-10799250I-40000J0D01*
G01*
X11343000Y-6989250D02*
G75*
G03*
X11343000Y-6989250I-40000J0D01*
G01*
X11343000Y-8513250D02*
G75*
G03*
X11343000Y-8513250I-40000J0D01*
G01*
X11596500Y-6354250D02*
G75*
G03*
X11596500Y-6354250I-40000J0D01*
G01*
X11596500Y-6608250D02*
G75*
G03*
X11596500Y-6608250I-40000J0D01*
G01*
X11596500Y-9275250D02*
G75*
G03*
X11596500Y-9275250I-40000J0D01*
G01*
X11596500Y-10799250D02*
G75*
G03*
X11596500Y-10799250I-40000J0D01*
G01*
X11597000Y-6989250D02*
G75*
G03*
X11597000Y-6989250I-40000J0D01*
G01*
X11597000Y-8513250D02*
G75*
G03*
X11597000Y-8513250I-40000J0D01*
G01*
X11658000Y-2540500D02*
G75*
G03*
X11658000Y-2540500I-40000J0D01*
G01*
X11658000Y-2794500D02*
G75*
G03*
X11658000Y-2794500I-40000J0D01*
G01*
X11658000Y-3048500D02*
G75*
G03*
X11658000Y-3048500I-40000J0D01*
G01*
X11658000Y-3302500D02*
G75*
G03*
X11658000Y-3302500I-40000J0D01*
G01*
X11658000Y-3556500D02*
G75*
G03*
X11658000Y-3556500I-40000J0D01*
G01*
X11658000Y-3810500D02*
G75*
G03*
X11658000Y-3810500I-40000J0D01*
G01*
X11658000Y-4064500D02*
G75*
G03*
X11658000Y-4064500I-40000J0D01*
G01*
X11850500Y-9275250D02*
G75*
G03*
X11850500Y-9275250I-40000J0D01*
G01*
X11850500Y-10799250D02*
G75*
G03*
X11850500Y-10799250I-40000J0D01*
G01*
X11851000Y-6989250D02*
G75*
G03*
X11851000Y-6989250I-40000J0D01*
G01*
X11851000Y-8513250D02*
G75*
G03*
X11851000Y-8513250I-40000J0D01*
G01*
X12104500Y-6354250D02*
G75*
G03*
X12104500Y-6354250I-40000J0D01*
G01*
X12104500Y-6608250D02*
G75*
G03*
X12104500Y-6608250I-40000J0D01*
G01*
X12104500Y-9275250D02*
G75*
G03*
X12104500Y-9275250I-40000J0D01*
G01*
X12104500Y-10799250D02*
G75*
G03*
X12104500Y-10799250I-40000J0D01*
G01*
X12105000Y-6989250D02*
G75*
G03*
X12105000Y-6989250I-40000J0D01*
G01*
X12105000Y-8513250D02*
G75*
G03*
X12105000Y-8513250I-40000J0D01*
G01*
X12358500Y-9275250D02*
G75*
G03*
X12358500Y-9275250I-40000J0D01*
G01*
X12358500Y-10799250D02*
G75*
G03*
X12358500Y-10799250I-40000J0D01*
G01*
X12359000Y-6989250D02*
G75*
G03*
X12359000Y-6989250I-40000J0D01*
G01*
X12359000Y-8513250D02*
G75*
G03*
X12359000Y-8513250I-40000J0D01*
G01*
X12420000Y-2540500D02*
G75*
G03*
X12420000Y-2540500I-40000J0D01*
G01*
X12420000Y-2794500D02*
G75*
G03*
X12420000Y-2794500I-40000J0D01*
G01*
X12420000Y-3048500D02*
G75*
G03*
X12420000Y-3048500I-40000J0D01*
G01*
X12420000Y-3302500D02*
G75*
G03*
X12420000Y-3302500I-40000J0D01*
G01*
X12420000Y-3556500D02*
G75*
G03*
X12420000Y-3556500I-40000J0D01*
G01*
X12420000Y-3810500D02*
G75*
G03*
X12420000Y-3810500I-40000J0D01*
G01*
X12420000Y-4064500D02*
G75*
G03*
X12420000Y-4064500I-40000J0D01*
G01*
X12612500Y-9275250D02*
G75*
G03*
X12612500Y-9275250I-40000J0D01*
G01*
X12612500Y-10799250D02*
G75*
G03*
X12612500Y-10799250I-40000J0D01*
G01*
X12613000Y-6989250D02*
G75*
G03*
X12613000Y-6989250I-40000J0D01*
G01*
X12613000Y-8513250D02*
G75*
G03*
X12613000Y-8513250I-40000J0D01*
G01*
X12738500Y-2540500D02*
G75*
G03*
X12738500Y-2540500I-40000J0D01*
G01*
X12738500Y-2794500D02*
G75*
G03*
X12738500Y-2794500I-40000J0D01*
G01*
X12738500Y-3048500D02*
G75*
G03*
X12738500Y-3048500I-40000J0D01*
G01*
X12738500Y-3302500D02*
G75*
G03*
X12738500Y-3302500I-40000J0D01*
G01*
X12738500Y-3556500D02*
G75*
G03*
X12738500Y-3556500I-40000J0D01*
G01*
X12738500Y-3810500D02*
G75*
G03*
X12738500Y-3810500I-40000J0D01*
G01*
X12738500Y-4064500D02*
G75*
G03*
X12738500Y-4064500I-40000J0D01*
G01*
X12739500Y-4699000D02*
G75*
G03*
X12739500Y-4699000I-40000J0D01*
G01*
X12739500Y-5715000D02*
G75*
G03*
X12739500Y-5715000I-40000J0D01*
G01*
X12866500Y-9275250D02*
G75*
G03*
X12866500Y-9275250I-40000J0D01*
G01*
X12866500Y-10799250D02*
G75*
G03*
X12866500Y-10799250I-40000J0D01*
G01*
X12867000Y-6989250D02*
G75*
G03*
X12867000Y-6989250I-40000J0D01*
G01*
X12867000Y-8513250D02*
G75*
G03*
X12867000Y-8513250I-40000J0D01*
G01*
X12993500Y-4703250D02*
G75*
G03*
X12993500Y-4703250I-40000J0D01*
G01*
X12993500Y-5719250D02*
G75*
G03*
X12993500Y-5719250I-40000J0D01*
G01*
X13120500Y-6354250D02*
G75*
G03*
X13120500Y-6354250I-40000J0D01*
G01*
X13120500Y-6608250D02*
G75*
G03*
X13120500Y-6608250I-40000J0D01*
G01*
X13120500Y-9275250D02*
G75*
G03*
X13120500Y-9275250I-40000J0D01*
G01*
X13120500Y-10799250D02*
G75*
G03*
X13120500Y-10799250I-40000J0D01*
G01*
X13121000Y-6989250D02*
G75*
G03*
X13121000Y-6989250I-40000J0D01*
G01*
X13121000Y-8513250D02*
G75*
G03*
X13121000Y-8513250I-40000J0D01*
G01*
X13247500Y-4703250D02*
G75*
G03*
X13247500Y-4703250I-40000J0D01*
G01*
X13247500Y-5719250D02*
G75*
G03*
X13247500Y-5719250I-40000J0D01*
G01*
X13374500Y-9275250D02*
G75*
G03*
X13374500Y-9275250I-40000J0D01*
G01*
X13374500Y-10799250D02*
G75*
G03*
X13374500Y-10799250I-40000J0D01*
G01*
X13375000Y-6989250D02*
G75*
G03*
X13375000Y-6989250I-40000J0D01*
G01*
X13375000Y-8513250D02*
G75*
G03*
X13375000Y-8513250I-40000J0D01*
G01*
X13438500Y-6159500D02*
G75*
G03*
X13438500Y-6159500I-40000J0D01*
G01*
X13500500Y-2540500D02*
G75*
G03*
X13500500Y-2540500I-40000J0D01*
G01*
X13500500Y-2794500D02*
G75*
G03*
X13500500Y-2794500I-40000J0D01*
G01*
X13500500Y-3048500D02*
G75*
G03*
X13500500Y-3048500I-40000J0D01*
G01*
X13500500Y-3302500D02*
G75*
G03*
X13500500Y-3302500I-40000J0D01*
G01*
X13500500Y-3556500D02*
G75*
G03*
X13500500Y-3556500I-40000J0D01*
G01*
X13500500Y-3810500D02*
G75*
G03*
X13500500Y-3810500I-40000J0D01*
G01*
X13500500Y-4064500D02*
G75*
G03*
X13500500Y-4064500I-40000J0D01*
G01*
X13501500Y-4703250D02*
G75*
G03*
X13501500Y-4703250I-40000J0D01*
G01*
X13501500Y-5719250D02*
G75*
G03*
X13501500Y-5719250I-40000J0D01*
G01*
X13688500Y-6159500D02*
G75*
G03*
X13688500Y-6159500I-40000J0D01*
G01*
D14*
X9652000Y-6046000D02*
X9652000Y-6146000D01*
X9602000Y-6096000D02*
X9702000Y-6096000D01*
X9652000Y-6300000D02*
X9652000Y-6400000D01*
X9602000Y-6350000D02*
X9702000Y-6350000D01*
X9652000Y-6554000D02*
X9652000Y-6654000D01*
X9602000Y-6604000D02*
X9702000Y-6604000D01*
X9652000Y-6808000D02*
X9652000Y-6908000D01*
X9602000Y-6858000D02*
X9702000Y-6858000D01*
X9652000Y-7062000D02*
X9652000Y-7162000D01*
X9602000Y-7112000D02*
X9702000Y-7112000D01*
X9652000Y-7316000D02*
X9652000Y-7416000D01*
X9602000Y-7366000D02*
X9702000Y-7366000D01*
X9652000Y-7570000D02*
X9652000Y-7670000D01*
X9602000Y-7620000D02*
X9702000Y-7620000D01*
X9652000Y-7824000D02*
X9652000Y-7924000D01*
X9602000Y-7874000D02*
X9702000Y-7874000D01*
X9652000Y-8078000D02*
X9652000Y-8178000D01*
X9602000Y-8128000D02*
X9702000Y-8128000D01*
X9652000Y-8332000D02*
X9652000Y-8432000D01*
X9602000Y-8382000D02*
X9702000Y-8382000D01*
X9652000Y-8586000D02*
X9652000Y-8686000D01*
X9602000Y-8636000D02*
X9702000Y-8636000D01*
X9652000Y-8840000D02*
X9652000Y-8940000D01*
X9602000Y-8890000D02*
X9702000Y-8890000D01*
X9652000Y-9094000D02*
X9652000Y-9194000D01*
X9602000Y-9144000D02*
X9702000Y-9144000D01*
X9652000Y-9348000D02*
X9652000Y-9448000D01*
X9602000Y-9398000D02*
X9702000Y-9398000D01*
X9652000Y-9602000D02*
X9652000Y-9702000D01*
X9602000Y-9652000D02*
X9702000Y-9652000D01*
X9652000Y-9856000D02*
X9652000Y-9956000D01*
X9602000Y-9906000D02*
X9702000Y-9906000D01*
X9652000Y-10110000D02*
X9652000Y-10210000D01*
X9602000Y-10160000D02*
X9702000Y-10160000D01*
X9652000Y-10364000D02*
X9652000Y-10464000D01*
X9602000Y-10414000D02*
X9702000Y-10414000D01*
X9652000Y-10618000D02*
X9652000Y-10718000D01*
X9602000Y-10668000D02*
X9702000Y-10668000D01*
X9652000Y-10872000D02*
X9652000Y-10972000D01*
X9602000Y-10922000D02*
X9702000Y-10922000D01*
X14224000Y-6046000D02*
X14224000Y-6146000D01*
X14174000Y-6096000D02*
X14274000Y-6096000D01*
X14224000Y-6300000D02*
X14224000Y-6400000D01*
X14174000Y-6350000D02*
X14274000Y-6350000D01*
X14224000Y-6554000D02*
X14224000Y-6654000D01*
X14174000Y-6604000D02*
X14274000Y-6604000D01*
X14224000Y-6808000D02*
X14224000Y-6908000D01*
X14174000Y-6858000D02*
X14274000Y-6858000D01*
X14224000Y-7062000D02*
X14224000Y-7162000D01*
X14174000Y-7112000D02*
X14274000Y-7112000D01*
X14224000Y-7316000D02*
X14224000Y-7416000D01*
X14174000Y-7366000D02*
X14274000Y-7366000D01*
X14224000Y-7570000D02*
X14224000Y-7670000D01*
X14174000Y-7620000D02*
X14274000Y-7620000D01*
X14224000Y-7824000D02*
X14224000Y-7924000D01*
X14174000Y-7874000D02*
X14274000Y-7874000D01*
X14224000Y-8078000D02*
X14224000Y-8178000D01*
X14174000Y-8128000D02*
X14274000Y-8128000D01*
X14224000Y-8332000D02*
X14224000Y-8432000D01*
X14174000Y-8382000D02*
X14274000Y-8382000D01*
X14224000Y-8586000D02*
X14224000Y-8686000D01*
X14174000Y-8636000D02*
X14274000Y-8636000D01*
X14224000Y-8840000D02*
X14224000Y-8940000D01*
X14174000Y-8890000D02*
X14274000Y-8890000D01*
X14224000Y-9094000D02*
X14224000Y-9194000D01*
X14174000Y-9144000D02*
X14274000Y-9144000D01*
X14224000Y-9348000D02*
X14224000Y-9448000D01*
X14174000Y-9398000D02*
X14274000Y-9398000D01*
X14224000Y-9602000D02*
X14224000Y-9702000D01*
X14174000Y-9652000D02*
X14274000Y-9652000D01*
X14224000Y-9856000D02*
X14224000Y-9956000D01*
X14174000Y-9906000D02*
X14274000Y-9906000D01*
X14224000Y-10110000D02*
X14224000Y-10210000D01*
X14174000Y-10160000D02*
X14274000Y-10160000D01*
X14224000Y-10364000D02*
X14224000Y-10464000D01*
X14174000Y-10414000D02*
X14274000Y-10414000D01*
X14224000Y-10618000D02*
X14224000Y-10718000D01*
X14174000Y-10668000D02*
X14274000Y-10668000D01*
X14224000Y-10872000D02*
X14224000Y-10972000D01*
X14174000Y-10922000D02*
X14274000Y-10922000D01*
D11*
X9192033Y-11696062D02*
X9192033Y-11496062D01*
X9239652Y-11496062D01*
X9268224Y-11505586D01*
X9287271Y-11524633D01*
X9296795Y-11543681D01*
X9306319Y-11581776D01*
X9306319Y-11610348D01*
X9296795Y-11648443D01*
X9287271Y-11667491D01*
X9268224Y-11686538D01*
X9239652Y-11696062D01*
X9192033Y-11696062D01*
X9392033Y-11696062D02*
X9392033Y-11562729D01*
X9392033Y-11600824D02*
X9401557Y-11581776D01*
X9411081Y-11572252D01*
X9430128Y-11562729D01*
X9449176Y-11562729D01*
X9515843Y-11696062D02*
X9515843Y-11562729D01*
X9515843Y-11496062D02*
X9506319Y-11505586D01*
X9515843Y-11515110D01*
X9525366Y-11505586D01*
X9515843Y-11496062D01*
X9515843Y-11515110D01*
X9639652Y-11696062D02*
X9620605Y-11686538D01*
X9611081Y-11667491D01*
X9611081Y-11496062D01*
X9744414Y-11696062D02*
X9725366Y-11686538D01*
X9715843Y-11667491D01*
X9715843Y-11496062D01*
X9972986Y-11696062D02*
X9972986Y-11496062D01*
X10039652Y-11638919D01*
X10106319Y-11496062D01*
X10106319Y-11696062D01*
X10287271Y-11696062D02*
X10287271Y-11591300D01*
X10277747Y-11572252D01*
X10258700Y-11562729D01*
X10220605Y-11562729D01*
X10201557Y-11572252D01*
X10287271Y-11686538D02*
X10268224Y-11696062D01*
X10220605Y-11696062D01*
X10201557Y-11686538D01*
X10192033Y-11667491D01*
X10192033Y-11648443D01*
X10201557Y-11629395D01*
X10220605Y-11619872D01*
X10268224Y-11619872D01*
X10287271Y-11610348D01*
X10382509Y-11562729D02*
X10382509Y-11762729D01*
X10382509Y-11572252D02*
X10401557Y-11562729D01*
X10439652Y-11562729D01*
X10458700Y-11572252D01*
X10468224Y-11581776D01*
X10477747Y-11600824D01*
X10477747Y-11657967D01*
X10468224Y-11677014D01*
X10458700Y-11686538D01*
X10439652Y-11696062D01*
X10401557Y-11696062D01*
X10382509Y-11686538D01*
X10563462Y-11677014D02*
X10572986Y-11686538D01*
X10563462Y-11696062D01*
X10553938Y-11686538D01*
X10563462Y-11677014D01*
X10563462Y-11696062D01*
X10563462Y-11572252D02*
X10572986Y-11581776D01*
X10563462Y-11591300D01*
X10553938Y-11581776D01*
X10563462Y-11572252D01*
X10563462Y-11591300D01*
D12*
X8894414Y-12005586D02*
X8934414Y-12045586D01*
X8934414Y-12005586D02*
X8894414Y-12045586D01*
D11*
X9230128Y-11916062D02*
X9249176Y-11916062D01*
X9268224Y-11925586D01*
X9277747Y-11935110D01*
X9287271Y-11954157D01*
X9296795Y-11992252D01*
X9296795Y-12039872D01*
X9287271Y-12077967D01*
X9277747Y-12097014D01*
X9268224Y-12106538D01*
X9249176Y-12116062D01*
X9230128Y-12116062D01*
X9211081Y-12106538D01*
X9201557Y-12097014D01*
X9192033Y-12077967D01*
X9182509Y-12039872D01*
X9182509Y-11992252D01*
X9192033Y-11954157D01*
X9201557Y-11935110D01*
X9211081Y-11925586D01*
X9230128Y-11916062D01*
X9382509Y-12097014D02*
X9392033Y-12106538D01*
X9382509Y-12116062D01*
X9372986Y-12106538D01*
X9382509Y-12097014D01*
X9382509Y-12116062D01*
X9563462Y-11982729D02*
X9563462Y-12116062D01*
X9515843Y-11906538D02*
X9468224Y-12049395D01*
X9592033Y-12049395D01*
X9706319Y-11916062D02*
X9725366Y-11916062D01*
X9744414Y-11925586D01*
X9753938Y-11935110D01*
X9763462Y-11954157D01*
X9772986Y-11992252D01*
X9772986Y-12039872D01*
X9763462Y-12077967D01*
X9753938Y-12097014D01*
X9744414Y-12106538D01*
X9725366Y-12116062D01*
X9706319Y-12116062D01*
X9687271Y-12106538D01*
X9677747Y-12097014D01*
X9668224Y-12077967D01*
X9658700Y-12039872D01*
X9658700Y-11992252D01*
X9668224Y-11954157D01*
X9677747Y-11935110D01*
X9687271Y-11925586D01*
X9706319Y-11916062D01*
X9896795Y-11916062D02*
X9915843Y-11916062D01*
X9934890Y-11925586D01*
X9944414Y-11935110D01*
X9953938Y-11954157D01*
X9963462Y-11992252D01*
X9963462Y-12039872D01*
X9953938Y-12077967D01*
X9944414Y-12097014D01*
X9934890Y-12106538D01*
X9915843Y-12116062D01*
X9896795Y-12116062D01*
X9877747Y-12106538D01*
X9868224Y-12097014D01*
X9858700Y-12077967D01*
X9849176Y-12039872D01*
X9849176Y-11992252D01*
X9858700Y-11954157D01*
X9868224Y-11935110D01*
X9877747Y-11925586D01*
X9896795Y-11916062D01*
X10049176Y-12116062D02*
X10049176Y-11982729D01*
X10049176Y-12001776D02*
X10058700Y-11992252D01*
X10077747Y-11982729D01*
X10106319Y-11982729D01*
X10125366Y-11992252D01*
X10134890Y-12011300D01*
X10134890Y-12116062D01*
X10134890Y-12011300D02*
X10144414Y-11992252D01*
X10163462Y-11982729D01*
X10192033Y-11982729D01*
X10211081Y-11992252D01*
X10220605Y-12011300D01*
X10220605Y-12116062D01*
X10315843Y-12116062D02*
X10315843Y-11982729D01*
X10315843Y-12001776D02*
X10325366Y-11992252D01*
X10344414Y-11982729D01*
X10372986Y-11982729D01*
X10392033Y-11992252D01*
X10401557Y-12011300D01*
X10401557Y-12116062D01*
X10401557Y-12011300D02*
X10411081Y-11992252D01*
X10430128Y-11982729D01*
X10458700Y-11982729D01*
X10477747Y-11992252D01*
X10487271Y-12011300D01*
X10487271Y-12116062D01*
X10877747Y-11906538D02*
X10706319Y-12163681D01*
X11134890Y-11916062D02*
X11153938Y-11916062D01*
X11172986Y-11925586D01*
X11182509Y-11935110D01*
X11192033Y-11954157D01*
X11201557Y-11992252D01*
X11201557Y-12039872D01*
X11192033Y-12077967D01*
X11182509Y-12097014D01*
X11172986Y-12106538D01*
X11153938Y-12116062D01*
X11134890Y-12116062D01*
X11115843Y-12106538D01*
X11106319Y-12097014D01*
X11096795Y-12077967D01*
X11087271Y-12039872D01*
X11087271Y-11992252D01*
X11096795Y-11954157D01*
X11106319Y-11935110D01*
X11115843Y-11925586D01*
X11134890Y-11916062D01*
X11287271Y-12097014D02*
X11296795Y-12106538D01*
X11287271Y-12116062D01*
X11277747Y-12106538D01*
X11287271Y-12097014D01*
X11287271Y-12116062D01*
X11420604Y-11916062D02*
X11439652Y-11916062D01*
X11458700Y-11925586D01*
X11468224Y-11935110D01*
X11477747Y-11954157D01*
X11487271Y-11992252D01*
X11487271Y-12039872D01*
X11477747Y-12077967D01*
X11468224Y-12097014D01*
X11458700Y-12106538D01*
X11439652Y-12116062D01*
X11420604Y-12116062D01*
X11401557Y-12106538D01*
X11392033Y-12097014D01*
X11382509Y-12077967D01*
X11372985Y-12039872D01*
X11372985Y-11992252D01*
X11382509Y-11954157D01*
X11392033Y-11935110D01*
X11401557Y-11925586D01*
X11420604Y-11916062D01*
X11677747Y-12116062D02*
X11563462Y-12116062D01*
X11620604Y-12116062D02*
X11620604Y-11916062D01*
X11601557Y-11944633D01*
X11582509Y-11963681D01*
X11563462Y-11973205D01*
X11858700Y-11916062D02*
X11763462Y-11916062D01*
X11753938Y-12011300D01*
X11763462Y-12001776D01*
X11782509Y-11992252D01*
X11830128Y-11992252D01*
X11849176Y-12001776D01*
X11858700Y-12011300D01*
X11868224Y-12030348D01*
X11868224Y-12077967D01*
X11858700Y-12097014D01*
X11849176Y-12106538D01*
X11830128Y-12116062D01*
X11782509Y-12116062D01*
X11763462Y-12106538D01*
X11753938Y-12097014D01*
X11934890Y-11916062D02*
X12068224Y-11916062D01*
X11982509Y-12116062D01*
X12134890Y-11916062D02*
X12134890Y-11954157D01*
X12211081Y-11916062D02*
X12211081Y-11954157D01*
X12506319Y-12192252D02*
X12496795Y-12182729D01*
X12477747Y-12154157D01*
X12468224Y-12135110D01*
X12458700Y-12106538D01*
X12449176Y-12058919D01*
X12449176Y-12020824D01*
X12458700Y-11973205D01*
X12468224Y-11944633D01*
X12477747Y-11925586D01*
X12496795Y-11897014D01*
X12506319Y-11887491D01*
X12668224Y-11982729D02*
X12668224Y-12116062D01*
X12620604Y-11906538D02*
X12572985Y-12049395D01*
X12696795Y-12049395D01*
X12868224Y-11916062D02*
X12772985Y-11916062D01*
X12763462Y-12011300D01*
X12772985Y-12001776D01*
X12792033Y-11992252D01*
X12839652Y-11992252D01*
X12858700Y-12001776D01*
X12868224Y-12011300D01*
X12877747Y-12030348D01*
X12877747Y-12077967D01*
X12868224Y-12097014D01*
X12858700Y-12106538D01*
X12839652Y-12116062D01*
X12792033Y-12116062D01*
X12772985Y-12106538D01*
X12763462Y-12097014D01*
X13115843Y-12116062D02*
X13115843Y-11916062D01*
X13201557Y-12116062D02*
X13201557Y-12011300D01*
X13192033Y-11992252D01*
X13172985Y-11982729D01*
X13144414Y-11982729D01*
X13125366Y-11992252D01*
X13115843Y-12001776D01*
X13325366Y-12116062D02*
X13306319Y-12106538D01*
X13296795Y-12097014D01*
X13287271Y-12077967D01*
X13287271Y-12020824D01*
X13296795Y-12001776D01*
X13306319Y-11992252D01*
X13325366Y-11982729D01*
X13353938Y-11982729D01*
X13372985Y-11992252D01*
X13382509Y-12001776D01*
X13392033Y-12020824D01*
X13392033Y-12077967D01*
X13382509Y-12097014D01*
X13372985Y-12106538D01*
X13353938Y-12116062D01*
X13325366Y-12116062D01*
X13506319Y-12116062D02*
X13487271Y-12106538D01*
X13477747Y-12087491D01*
X13477747Y-11916062D01*
X13658700Y-12106538D02*
X13639652Y-12116062D01*
X13601557Y-12116062D01*
X13582509Y-12106538D01*
X13572985Y-12087491D01*
X13572985Y-12011300D01*
X13582509Y-11992252D01*
X13601557Y-11982729D01*
X13639652Y-11982729D01*
X13658700Y-11992252D01*
X13668224Y-12011300D01*
X13668224Y-12030348D01*
X13572985Y-12049395D01*
X13744414Y-12106538D02*
X13763462Y-12116062D01*
X13801557Y-12116062D01*
X13820604Y-12106538D01*
X13830128Y-12087491D01*
X13830128Y-12077967D01*
X13820604Y-12058919D01*
X13801557Y-12049395D01*
X13772985Y-12049395D01*
X13753938Y-12039872D01*
X13744414Y-12020824D01*
X13744414Y-12011300D01*
X13753938Y-11992252D01*
X13772985Y-11982729D01*
X13801557Y-11982729D01*
X13820604Y-11992252D01*
X13896795Y-12192252D02*
X13906319Y-12182729D01*
X13925366Y-12154157D01*
X13934890Y-12135110D01*
X13944414Y-12106538D01*
X13953938Y-12058919D01*
X13953938Y-12020824D01*
X13944414Y-11973205D01*
X13934890Y-11944633D01*
X13925366Y-11925586D01*
X13906319Y-11897014D01*
X13896795Y-11887491D01*
D13*
X8934414Y-12289586D02*
G75*
G03*
X8934414Y-12289586I-40000J0D01*
G01*
D11*
X9230128Y-12180062D02*
X9249176Y-12180062D01*
X9268224Y-12189586D01*
X9277747Y-12199110D01*
X9287271Y-12218157D01*
X9296795Y-12256252D01*
X9296795Y-12303872D01*
X9287271Y-12341967D01*
X9277747Y-12361014D01*
X9268224Y-12370538D01*
X9249176Y-12380062D01*
X9230128Y-12380062D01*
X9211081Y-12370538D01*
X9201557Y-12361014D01*
X9192033Y-12341967D01*
X9182509Y-12303872D01*
X9182509Y-12256252D01*
X9192033Y-12218157D01*
X9201557Y-12199110D01*
X9211081Y-12189586D01*
X9230128Y-12180062D01*
X9382509Y-12361014D02*
X9392033Y-12370538D01*
X9382509Y-12380062D01*
X9372986Y-12370538D01*
X9382509Y-12361014D01*
X9382509Y-12380062D01*
X9506319Y-12265776D02*
X9487271Y-12256252D01*
X9477747Y-12246729D01*
X9468224Y-12227681D01*
X9468224Y-12218157D01*
X9477747Y-12199110D01*
X9487271Y-12189586D01*
X9506319Y-12180062D01*
X9544414Y-12180062D01*
X9563462Y-12189586D01*
X9572986Y-12199110D01*
X9582509Y-12218157D01*
X9582509Y-12227681D01*
X9572986Y-12246729D01*
X9563462Y-12256252D01*
X9544414Y-12265776D01*
X9506319Y-12265776D01*
X9487271Y-12275300D01*
X9477747Y-12284824D01*
X9468224Y-12303872D01*
X9468224Y-12341967D01*
X9477747Y-12361014D01*
X9487271Y-12370538D01*
X9506319Y-12380062D01*
X9544414Y-12380062D01*
X9563462Y-12370538D01*
X9572986Y-12361014D01*
X9582509Y-12341967D01*
X9582509Y-12303872D01*
X9572986Y-12284824D01*
X9563462Y-12275300D01*
X9544414Y-12265776D01*
X9706319Y-12180062D02*
X9725366Y-12180062D01*
X9744414Y-12189586D01*
X9753938Y-12199110D01*
X9763462Y-12218157D01*
X9772986Y-12256252D01*
X9772986Y-12303872D01*
X9763462Y-12341967D01*
X9753938Y-12361014D01*
X9744414Y-12370538D01*
X9725366Y-12380062D01*
X9706319Y-12380062D01*
X9687271Y-12370538D01*
X9677747Y-12361014D01*
X9668224Y-12341967D01*
X9658700Y-12303872D01*
X9658700Y-12256252D01*
X9668224Y-12218157D01*
X9677747Y-12199110D01*
X9687271Y-12189586D01*
X9706319Y-12180062D01*
X9896795Y-12180062D02*
X9915843Y-12180062D01*
X9934890Y-12189586D01*
X9944414Y-12199110D01*
X9953938Y-12218157D01*
X9963462Y-12256252D01*
X9963462Y-12303872D01*
X9953938Y-12341967D01*
X9944414Y-12361014D01*
X9934890Y-12370538D01*
X9915843Y-12380062D01*
X9896795Y-12380062D01*
X9877747Y-12370538D01*
X9868224Y-12361014D01*
X9858700Y-12341967D01*
X9849176Y-12303872D01*
X9849176Y-12256252D01*
X9858700Y-12218157D01*
X9868224Y-12199110D01*
X9877747Y-12189586D01*
X9896795Y-12180062D01*
X10049176Y-12380062D02*
X10049176Y-12246729D01*
X10049176Y-12265776D02*
X10058700Y-12256252D01*
X10077747Y-12246729D01*
X10106319Y-12246729D01*
X10125366Y-12256252D01*
X10134890Y-12275300D01*
X10134890Y-12380062D01*
X10134890Y-12275300D02*
X10144414Y-12256252D01*
X10163462Y-12246729D01*
X10192033Y-12246729D01*
X10211081Y-12256252D01*
X10220605Y-12275300D01*
X10220605Y-12380062D01*
X10315843Y-12380062D02*
X10315843Y-12246729D01*
X10315843Y-12265776D02*
X10325366Y-12256252D01*
X10344414Y-12246729D01*
X10372986Y-12246729D01*
X10392033Y-12256252D01*
X10401557Y-12275300D01*
X10401557Y-12380062D01*
X10401557Y-12275300D02*
X10411081Y-12256252D01*
X10430128Y-12246729D01*
X10458700Y-12246729D01*
X10477747Y-12256252D01*
X10487271Y-12275300D01*
X10487271Y-12380062D01*
X10877747Y-12170538D02*
X10706319Y-12427681D01*
X11134890Y-12180062D02*
X11153938Y-12180062D01*
X11172986Y-12189586D01*
X11182509Y-12199110D01*
X11192033Y-12218157D01*
X11201557Y-12256252D01*
X11201557Y-12303872D01*
X11192033Y-12341967D01*
X11182509Y-12361014D01*
X11172986Y-12370538D01*
X11153938Y-12380062D01*
X11134890Y-12380062D01*
X11115843Y-12370538D01*
X11106319Y-12361014D01*
X11096795Y-12341967D01*
X11087271Y-12303872D01*
X11087271Y-12256252D01*
X11096795Y-12218157D01*
X11106319Y-12199110D01*
X11115843Y-12189586D01*
X11134890Y-12180062D01*
X11287271Y-12361014D02*
X11296795Y-12370538D01*
X11287271Y-12380062D01*
X11277747Y-12370538D01*
X11287271Y-12361014D01*
X11287271Y-12380062D01*
X11420604Y-12180062D02*
X11439652Y-12180062D01*
X11458700Y-12189586D01*
X11468224Y-12199110D01*
X11477747Y-12218157D01*
X11487271Y-12256252D01*
X11487271Y-12303872D01*
X11477747Y-12341967D01*
X11468224Y-12361014D01*
X11458700Y-12370538D01*
X11439652Y-12380062D01*
X11420604Y-12380062D01*
X11401557Y-12370538D01*
X11392033Y-12361014D01*
X11382509Y-12341967D01*
X11372985Y-12303872D01*
X11372985Y-12256252D01*
X11382509Y-12218157D01*
X11392033Y-12199110D01*
X11401557Y-12189586D01*
X11420604Y-12180062D01*
X11553938Y-12180062D02*
X11677747Y-12180062D01*
X11611081Y-12256252D01*
X11639652Y-12256252D01*
X11658700Y-12265776D01*
X11668224Y-12275300D01*
X11677747Y-12294348D01*
X11677747Y-12341967D01*
X11668224Y-12361014D01*
X11658700Y-12370538D01*
X11639652Y-12380062D01*
X11582509Y-12380062D01*
X11563462Y-12370538D01*
X11553938Y-12361014D01*
X11868224Y-12380062D02*
X11753938Y-12380062D01*
X11811081Y-12380062D02*
X11811081Y-12180062D01*
X11792033Y-12208633D01*
X11772985Y-12227681D01*
X11753938Y-12237205D01*
X12049176Y-12180062D02*
X11953938Y-12180062D01*
X11944414Y-12275300D01*
X11953938Y-12265776D01*
X11972985Y-12256252D01*
X12020604Y-12256252D01*
X12039652Y-12265776D01*
X12049176Y-12275300D01*
X12058700Y-12294348D01*
X12058700Y-12341967D01*
X12049176Y-12361014D01*
X12039652Y-12370538D01*
X12020604Y-12380062D01*
X11972985Y-12380062D01*
X11953938Y-12370538D01*
X11944414Y-12361014D01*
X12134890Y-12180062D02*
X12134890Y-12218157D01*
X12211081Y-12180062D02*
X12211081Y-12218157D01*
X12506319Y-12456252D02*
X12496795Y-12446729D01*
X12477747Y-12418157D01*
X12468224Y-12399110D01*
X12458700Y-12370538D01*
X12449176Y-12322919D01*
X12449176Y-12284824D01*
X12458700Y-12237205D01*
X12468224Y-12208633D01*
X12477747Y-12189586D01*
X12496795Y-12161014D01*
X12506319Y-12151491D01*
X12687271Y-12380062D02*
X12572985Y-12380062D01*
X12630128Y-12380062D02*
X12630128Y-12180062D01*
X12611081Y-12208633D01*
X12592033Y-12227681D01*
X12572985Y-12237205D01*
X12763462Y-12199110D02*
X12772985Y-12189586D01*
X12792033Y-12180062D01*
X12839652Y-12180062D01*
X12858700Y-12189586D01*
X12868224Y-12199110D01*
X12877747Y-12218157D01*
X12877747Y-12237205D01*
X12868224Y-12265776D01*
X12753938Y-12380062D01*
X12877747Y-12380062D01*
X12992033Y-12265776D02*
X12972985Y-12256252D01*
X12963462Y-12246729D01*
X12953938Y-12227681D01*
X12953938Y-12218157D01*
X12963462Y-12199110D01*
X12972985Y-12189586D01*
X12992033Y-12180062D01*
X13030128Y-12180062D01*
X13049176Y-12189586D01*
X13058700Y-12199110D01*
X13068224Y-12218157D01*
X13068224Y-12227681D01*
X13058700Y-12246729D01*
X13049176Y-12256252D01*
X13030128Y-12265776D01*
X12992033Y-12265776D01*
X12972985Y-12275300D01*
X12963462Y-12284824D01*
X12953938Y-12303872D01*
X12953938Y-12341967D01*
X12963462Y-12361014D01*
X12972985Y-12370538D01*
X12992033Y-12380062D01*
X13030128Y-12380062D01*
X13049176Y-12370538D01*
X13058700Y-12361014D01*
X13068224Y-12341967D01*
X13068224Y-12303872D01*
X13058700Y-12284824D01*
X13049176Y-12275300D01*
X13030128Y-12265776D01*
X13306319Y-12380062D02*
X13306319Y-12180062D01*
X13392033Y-12380062D02*
X13392033Y-12275300D01*
X13382509Y-12256252D01*
X13363462Y-12246729D01*
X13334890Y-12246729D01*
X13315843Y-12256252D01*
X13306319Y-12265776D01*
X13515843Y-12380062D02*
X13496795Y-12370538D01*
X13487271Y-12361014D01*
X13477747Y-12341967D01*
X13477747Y-12284824D01*
X13487271Y-12265776D01*
X13496795Y-12256252D01*
X13515843Y-12246729D01*
X13544414Y-12246729D01*
X13563462Y-12256252D01*
X13572985Y-12265776D01*
X13582509Y-12284824D01*
X13582509Y-12341967D01*
X13572985Y-12361014D01*
X13563462Y-12370538D01*
X13544414Y-12380062D01*
X13515843Y-12380062D01*
X13696795Y-12380062D02*
X13677747Y-12370538D01*
X13668224Y-12351491D01*
X13668224Y-12180062D01*
X13849176Y-12370538D02*
X13830128Y-12380062D01*
X13792033Y-12380062D01*
X13772985Y-12370538D01*
X13763462Y-12351491D01*
X13763462Y-12275300D01*
X13772985Y-12256252D01*
X13792033Y-12246729D01*
X13830128Y-12246729D01*
X13849176Y-12256252D01*
X13858700Y-12275300D01*
X13858700Y-12294348D01*
X13763462Y-12313395D01*
X13934890Y-12370538D02*
X13953938Y-12380062D01*
X13992033Y-12380062D01*
X14011081Y-12370538D01*
X14020604Y-12351491D01*
X14020604Y-12341967D01*
X14011081Y-12322919D01*
X13992033Y-12313395D01*
X13963462Y-12313395D01*
X13944414Y-12303872D01*
X13934890Y-12284824D01*
X13934890Y-12275300D01*
X13944414Y-12256252D01*
X13963462Y-12246729D01*
X13992033Y-12246729D01*
X14011081Y-12256252D01*
X14087271Y-12456252D02*
X14096795Y-12446729D01*
X14115843Y-12418157D01*
X14125366Y-12399110D01*
X14134890Y-12370538D01*
X14144414Y-12322919D01*
X14144414Y-12284824D01*
X14134890Y-12237205D01*
X14125366Y-12208633D01*
X14115843Y-12189586D01*
X14096795Y-12161014D01*
X14087271Y-12151491D01*
D14*
X8884414Y-12503586D02*
X8884414Y-12603586D01*
X8834414Y-12553586D02*
X8934414Y-12553586D01*
D11*
X9296795Y-12644062D02*
X9182509Y-12644062D01*
X9239652Y-12644062D02*
X9239652Y-12444062D01*
X9220605Y-12472633D01*
X9201557Y-12491681D01*
X9182509Y-12501205D01*
X9382509Y-12625014D02*
X9392033Y-12634538D01*
X9382509Y-12644062D01*
X9372986Y-12634538D01*
X9382509Y-12625014D01*
X9382509Y-12644062D01*
X9515843Y-12444062D02*
X9534890Y-12444062D01*
X9553938Y-12453586D01*
X9563462Y-12463110D01*
X9572986Y-12482157D01*
X9582509Y-12520252D01*
X9582509Y-12567872D01*
X9572986Y-12605967D01*
X9563462Y-12625014D01*
X9553938Y-12634538D01*
X9534890Y-12644062D01*
X9515843Y-12644062D01*
X9496795Y-12634538D01*
X9487271Y-12625014D01*
X9477747Y-12605967D01*
X9468224Y-12567872D01*
X9468224Y-12520252D01*
X9477747Y-12482157D01*
X9487271Y-12463110D01*
X9496795Y-12453586D01*
X9515843Y-12444062D01*
X9706319Y-12444062D02*
X9725366Y-12444062D01*
X9744414Y-12453586D01*
X9753938Y-12463110D01*
X9763462Y-12482157D01*
X9772986Y-12520252D01*
X9772986Y-12567872D01*
X9763462Y-12605967D01*
X9753938Y-12625014D01*
X9744414Y-12634538D01*
X9725366Y-12644062D01*
X9706319Y-12644062D01*
X9687271Y-12634538D01*
X9677747Y-12625014D01*
X9668224Y-12605967D01*
X9658700Y-12567872D01*
X9658700Y-12520252D01*
X9668224Y-12482157D01*
X9677747Y-12463110D01*
X9687271Y-12453586D01*
X9706319Y-12444062D01*
X9896795Y-12444062D02*
X9915843Y-12444062D01*
X9934890Y-12453586D01*
X9944414Y-12463110D01*
X9953938Y-12482157D01*
X9963462Y-12520252D01*
X9963462Y-12567872D01*
X9953938Y-12605967D01*
X9944414Y-12625014D01*
X9934890Y-12634538D01*
X9915843Y-12644062D01*
X9896795Y-12644062D01*
X9877747Y-12634538D01*
X9868224Y-12625014D01*
X9858700Y-12605967D01*
X9849176Y-12567872D01*
X9849176Y-12520252D01*
X9858700Y-12482157D01*
X9868224Y-12463110D01*
X9877747Y-12453586D01*
X9896795Y-12444062D01*
X10049176Y-12644062D02*
X10049176Y-12510729D01*
X10049176Y-12529776D02*
X10058700Y-12520252D01*
X10077747Y-12510729D01*
X10106319Y-12510729D01*
X10125366Y-12520252D01*
X10134890Y-12539300D01*
X10134890Y-12644062D01*
X10134890Y-12539300D02*
X10144414Y-12520252D01*
X10163462Y-12510729D01*
X10192033Y-12510729D01*
X10211081Y-12520252D01*
X10220605Y-12539300D01*
X10220605Y-12644062D01*
X10315843Y-12644062D02*
X10315843Y-12510729D01*
X10315843Y-12529776D02*
X10325366Y-12520252D01*
X10344414Y-12510729D01*
X10372986Y-12510729D01*
X10392033Y-12520252D01*
X10401557Y-12539300D01*
X10401557Y-12644062D01*
X10401557Y-12539300D02*
X10411081Y-12520252D01*
X10430128Y-12510729D01*
X10458700Y-12510729D01*
X10477747Y-12520252D01*
X10487271Y-12539300D01*
X10487271Y-12644062D01*
X10877747Y-12434538D02*
X10706319Y-12691681D01*
X11134890Y-12444062D02*
X11153938Y-12444062D01*
X11172986Y-12453586D01*
X11182509Y-12463110D01*
X11192033Y-12482157D01*
X11201557Y-12520252D01*
X11201557Y-12567872D01*
X11192033Y-12605967D01*
X11182509Y-12625014D01*
X11172986Y-12634538D01*
X11153938Y-12644062D01*
X11134890Y-12644062D01*
X11115843Y-12634538D01*
X11106319Y-12625014D01*
X11096795Y-12605967D01*
X11087271Y-12567872D01*
X11087271Y-12520252D01*
X11096795Y-12482157D01*
X11106319Y-12463110D01*
X11115843Y-12453586D01*
X11134890Y-12444062D01*
X11287271Y-12625014D02*
X11296795Y-12634538D01*
X11287271Y-12644062D01*
X11277747Y-12634538D01*
X11287271Y-12625014D01*
X11287271Y-12644062D01*
X11420604Y-12444062D02*
X11439652Y-12444062D01*
X11458700Y-12453586D01*
X11468224Y-12463110D01*
X11477747Y-12482157D01*
X11487271Y-12520252D01*
X11487271Y-12567872D01*
X11477747Y-12605967D01*
X11468224Y-12625014D01*
X11458700Y-12634538D01*
X11439652Y-12644062D01*
X11420604Y-12644062D01*
X11401557Y-12634538D01*
X11392033Y-12625014D01*
X11382509Y-12605967D01*
X11372985Y-12567872D01*
X11372985Y-12520252D01*
X11382509Y-12482157D01*
X11392033Y-12463110D01*
X11401557Y-12453586D01*
X11420604Y-12444062D01*
X11553938Y-12444062D02*
X11677747Y-12444062D01*
X11611081Y-12520252D01*
X11639652Y-12520252D01*
X11658700Y-12529776D01*
X11668224Y-12539300D01*
X11677747Y-12558348D01*
X11677747Y-12605967D01*
X11668224Y-12625014D01*
X11658700Y-12634538D01*
X11639652Y-12644062D01*
X11582509Y-12644062D01*
X11563462Y-12634538D01*
X11553938Y-12625014D01*
X11772985Y-12644062D02*
X11811081Y-12644062D01*
X11830128Y-12634538D01*
X11839652Y-12625014D01*
X11858700Y-12596443D01*
X11868224Y-12558348D01*
X11868224Y-12482157D01*
X11858700Y-12463110D01*
X11849176Y-12453586D01*
X11830128Y-12444062D01*
X11792033Y-12444062D01*
X11772985Y-12453586D01*
X11763462Y-12463110D01*
X11753938Y-12482157D01*
X11753938Y-12529776D01*
X11763462Y-12548824D01*
X11772985Y-12558348D01*
X11792033Y-12567872D01*
X11830128Y-12567872D01*
X11849176Y-12558348D01*
X11858700Y-12548824D01*
X11868224Y-12529776D01*
X12039652Y-12510729D02*
X12039652Y-12644062D01*
X11992033Y-12434538D02*
X11944414Y-12577395D01*
X12068224Y-12577395D01*
X12134890Y-12444062D02*
X12134890Y-12482157D01*
X12211081Y-12444062D02*
X12211081Y-12482157D01*
X12506319Y-12720252D02*
X12496795Y-12710729D01*
X12477747Y-12682157D01*
X12468224Y-12663110D01*
X12458700Y-12634538D01*
X12449176Y-12586919D01*
X12449176Y-12548824D01*
X12458700Y-12501205D01*
X12468224Y-12472633D01*
X12477747Y-12453586D01*
X12496795Y-12425014D01*
X12506319Y-12415491D01*
X12668224Y-12510729D02*
X12668224Y-12644062D01*
X12620604Y-12434538D02*
X12572985Y-12577395D01*
X12696795Y-12577395D01*
X12811081Y-12444062D02*
X12830128Y-12444062D01*
X12849176Y-12453586D01*
X12858700Y-12463110D01*
X12868224Y-12482157D01*
X12877747Y-12520252D01*
X12877747Y-12567872D01*
X12868224Y-12605967D01*
X12858700Y-12625014D01*
X12849176Y-12634538D01*
X12830128Y-12644062D01*
X12811081Y-12644062D01*
X12792033Y-12634538D01*
X12782509Y-12625014D01*
X12772985Y-12605967D01*
X12763462Y-12567872D01*
X12763462Y-12520252D01*
X12772985Y-12482157D01*
X12782509Y-12463110D01*
X12792033Y-12453586D01*
X12811081Y-12444062D01*
X13115843Y-12644062D02*
X13115843Y-12444062D01*
X13201557Y-12644062D02*
X13201557Y-12539300D01*
X13192033Y-12520252D01*
X13172985Y-12510729D01*
X13144414Y-12510729D01*
X13125366Y-12520252D01*
X13115843Y-12529776D01*
X13325366Y-12644062D02*
X13306319Y-12634538D01*
X13296795Y-12625014D01*
X13287271Y-12605967D01*
X13287271Y-12548824D01*
X13296795Y-12529776D01*
X13306319Y-12520252D01*
X13325366Y-12510729D01*
X13353938Y-12510729D01*
X13372985Y-12520252D01*
X13382509Y-12529776D01*
X13392033Y-12548824D01*
X13392033Y-12605967D01*
X13382509Y-12625014D01*
X13372985Y-12634538D01*
X13353938Y-12644062D01*
X13325366Y-12644062D01*
X13506319Y-12644062D02*
X13487271Y-12634538D01*
X13477747Y-12615491D01*
X13477747Y-12444062D01*
X13658700Y-12634538D02*
X13639652Y-12644062D01*
X13601557Y-12644062D01*
X13582509Y-12634538D01*
X13572985Y-12615491D01*
X13572985Y-12539300D01*
X13582509Y-12520252D01*
X13601557Y-12510729D01*
X13639652Y-12510729D01*
X13658700Y-12520252D01*
X13668224Y-12539300D01*
X13668224Y-12558348D01*
X13572985Y-12577395D01*
X13744414Y-12634538D02*
X13763462Y-12644062D01*
X13801557Y-12644062D01*
X13820604Y-12634538D01*
X13830128Y-12615491D01*
X13830128Y-12605967D01*
X13820604Y-12586919D01*
X13801557Y-12577395D01*
X13772985Y-12577395D01*
X13753938Y-12567872D01*
X13744414Y-12548824D01*
X13744414Y-12539300D01*
X13753938Y-12520252D01*
X13772985Y-12510729D01*
X13801557Y-12510729D01*
X13820604Y-12520252D01*
X13896795Y-12720252D02*
X13906319Y-12710729D01*
X13925366Y-12682157D01*
X13934890Y-12663110D01*
X13944414Y-12634538D01*
X13953938Y-12586919D01*
X13953938Y-12548824D01*
X13944414Y-12501205D01*
X13934890Y-12472633D01*
X13925366Y-12453586D01*
X13906319Y-12425014D01*
X13896795Y-12415491D01*
M02*
