%FSLAX45Y45*%
G04 Gerber Fmt 4.5, Leading zero omitted, Abs format (unit mm)*
G04 Created by KiCad (PCBNEW (6.0.4)) date 2022-12-31 00:26:05*
%MOMM*%
%LPD*%
G01*
G04 APERTURE LIST*
%TA.AperFunction,Profile*%
%ADD10C,0.100000*%
%TD*%
%ADD11C,0.200000*%
%ADD12C,0.320000*%
G04 APERTURE END LIST*
D10*
X14682590Y-2476500D02*
G75*
G03*
X13984086Y-1778000I-698500J0D01*
G01*
X8939414Y-10682086D02*
G75*
G03*
X9637914Y-11380586I698496J-4D01*
G01*
X9637914Y-1778000D02*
X13984086Y-1778000D01*
X13984086Y-11380586D02*
G75*
G03*
X14682586Y-10682086I0J698500D01*
G01*
X8939414Y-10682086D02*
X8939414Y-2476500D01*
X13984086Y-11380586D02*
X9637914Y-11380586D01*
X14682586Y-2476500D02*
X14682586Y-10682086D01*
X9637914Y-1778004D02*
G75*
G03*
X8939414Y-2476500I-4J-698496D01*
G01*
D11*
D12*
X9365000Y-2761000D02*
X9685000Y-3081000D01*
X9685000Y-2761000D02*
X9365000Y-3081000D01*
X13873500Y-2761000D02*
X14193500Y-3081000D01*
X14193500Y-2761000D02*
X13873500Y-3081000D01*
D11*
X9192033Y-11696062D02*
X9192033Y-11496062D01*
X9239652Y-11496062D01*
X9268224Y-11505586D01*
X9287271Y-11524633D01*
X9296795Y-11543681D01*
X9306319Y-11581776D01*
X9306319Y-11610348D01*
X9296795Y-11648443D01*
X9287271Y-11667491D01*
X9268224Y-11686538D01*
X9239652Y-11696062D01*
X9192033Y-11696062D01*
X9392033Y-11696062D02*
X9392033Y-11562729D01*
X9392033Y-11600824D02*
X9401557Y-11581776D01*
X9411081Y-11572252D01*
X9430128Y-11562729D01*
X9449176Y-11562729D01*
X9515843Y-11696062D02*
X9515843Y-11562729D01*
X9515843Y-11496062D02*
X9506319Y-11505586D01*
X9515843Y-11515110D01*
X9525366Y-11505586D01*
X9515843Y-11496062D01*
X9515843Y-11515110D01*
X9639652Y-11696062D02*
X9620605Y-11686538D01*
X9611081Y-11667491D01*
X9611081Y-11496062D01*
X9744414Y-11696062D02*
X9725366Y-11686538D01*
X9715843Y-11667491D01*
X9715843Y-11496062D01*
X9972986Y-11696062D02*
X9972986Y-11496062D01*
X10039652Y-11638919D01*
X10106319Y-11496062D01*
X10106319Y-11696062D01*
X10287271Y-11696062D02*
X10287271Y-11591300D01*
X10277747Y-11572252D01*
X10258700Y-11562729D01*
X10220605Y-11562729D01*
X10201557Y-11572252D01*
X10287271Y-11686538D02*
X10268224Y-11696062D01*
X10220605Y-11696062D01*
X10201557Y-11686538D01*
X10192033Y-11667491D01*
X10192033Y-11648443D01*
X10201557Y-11629395D01*
X10220605Y-11619872D01*
X10268224Y-11619872D01*
X10287271Y-11610348D01*
X10382509Y-11562729D02*
X10382509Y-11762729D01*
X10382509Y-11572252D02*
X10401557Y-11562729D01*
X10439652Y-11562729D01*
X10458700Y-11572252D01*
X10468224Y-11581776D01*
X10477747Y-11600824D01*
X10477747Y-11657967D01*
X10468224Y-11677014D01*
X10458700Y-11686538D01*
X10439652Y-11696062D01*
X10401557Y-11696062D01*
X10382509Y-11686538D01*
X10563462Y-11677014D02*
X10572986Y-11686538D01*
X10563462Y-11696062D01*
X10553938Y-11686538D01*
X10563462Y-11677014D01*
X10563462Y-11696062D01*
X10563462Y-11572252D02*
X10572986Y-11581776D01*
X10563462Y-11591300D01*
X10553938Y-11581776D01*
X10563462Y-11572252D01*
X10563462Y-11591300D01*
X8734414Y-11925586D02*
X8934414Y-12125586D01*
X8934414Y-11925586D02*
X8734414Y-12125586D01*
X9172986Y-11916062D02*
X9296795Y-11916062D01*
X9230128Y-11992252D01*
X9258700Y-11992252D01*
X9277747Y-12001776D01*
X9287271Y-12011300D01*
X9296795Y-12030348D01*
X9296795Y-12077967D01*
X9287271Y-12097014D01*
X9277747Y-12106538D01*
X9258700Y-12116062D01*
X9201557Y-12116062D01*
X9182509Y-12106538D01*
X9172986Y-12097014D01*
X9382509Y-12097014D02*
X9392033Y-12106538D01*
X9382509Y-12116062D01*
X9372986Y-12106538D01*
X9382509Y-12097014D01*
X9382509Y-12116062D01*
X9468224Y-11935110D02*
X9477747Y-11925586D01*
X9496795Y-11916062D01*
X9544414Y-11916062D01*
X9563462Y-11925586D01*
X9572986Y-11935110D01*
X9582509Y-11954157D01*
X9582509Y-11973205D01*
X9572986Y-12001776D01*
X9458700Y-12116062D01*
X9582509Y-12116062D01*
X9706319Y-11916062D02*
X9725366Y-11916062D01*
X9744414Y-11925586D01*
X9753938Y-11935110D01*
X9763462Y-11954157D01*
X9772986Y-11992252D01*
X9772986Y-12039872D01*
X9763462Y-12077967D01*
X9753938Y-12097014D01*
X9744414Y-12106538D01*
X9725366Y-12116062D01*
X9706319Y-12116062D01*
X9687271Y-12106538D01*
X9677747Y-12097014D01*
X9668224Y-12077967D01*
X9658700Y-12039872D01*
X9658700Y-11992252D01*
X9668224Y-11954157D01*
X9677747Y-11935110D01*
X9687271Y-11925586D01*
X9706319Y-11916062D01*
X9896795Y-11916062D02*
X9915843Y-11916062D01*
X9934890Y-11925586D01*
X9944414Y-11935110D01*
X9953938Y-11954157D01*
X9963462Y-11992252D01*
X9963462Y-12039872D01*
X9953938Y-12077967D01*
X9944414Y-12097014D01*
X9934890Y-12106538D01*
X9915843Y-12116062D01*
X9896795Y-12116062D01*
X9877747Y-12106538D01*
X9868224Y-12097014D01*
X9858700Y-12077967D01*
X9849176Y-12039872D01*
X9849176Y-11992252D01*
X9858700Y-11954157D01*
X9868224Y-11935110D01*
X9877747Y-11925586D01*
X9896795Y-11916062D01*
X10049176Y-12116062D02*
X10049176Y-11982729D01*
X10049176Y-12001776D02*
X10058700Y-11992252D01*
X10077747Y-11982729D01*
X10106319Y-11982729D01*
X10125366Y-11992252D01*
X10134890Y-12011300D01*
X10134890Y-12116062D01*
X10134890Y-12011300D02*
X10144414Y-11992252D01*
X10163462Y-11982729D01*
X10192033Y-11982729D01*
X10211081Y-11992252D01*
X10220605Y-12011300D01*
X10220605Y-12116062D01*
X10315843Y-12116062D02*
X10315843Y-11982729D01*
X10315843Y-12001776D02*
X10325366Y-11992252D01*
X10344414Y-11982729D01*
X10372986Y-11982729D01*
X10392033Y-11992252D01*
X10401557Y-12011300D01*
X10401557Y-12116062D01*
X10401557Y-12011300D02*
X10411081Y-11992252D01*
X10430128Y-11982729D01*
X10458700Y-11982729D01*
X10477747Y-11992252D01*
X10487271Y-12011300D01*
X10487271Y-12116062D01*
X10877747Y-11906538D02*
X10706319Y-12163681D01*
X11134890Y-11916062D02*
X11153938Y-11916062D01*
X11172986Y-11925586D01*
X11182509Y-11935110D01*
X11192033Y-11954157D01*
X11201557Y-11992252D01*
X11201557Y-12039872D01*
X11192033Y-12077967D01*
X11182509Y-12097014D01*
X11172986Y-12106538D01*
X11153938Y-12116062D01*
X11134890Y-12116062D01*
X11115843Y-12106538D01*
X11106319Y-12097014D01*
X11096795Y-12077967D01*
X11087271Y-12039872D01*
X11087271Y-11992252D01*
X11096795Y-11954157D01*
X11106319Y-11935110D01*
X11115843Y-11925586D01*
X11134890Y-11916062D01*
X11287271Y-12097014D02*
X11296795Y-12106538D01*
X11287271Y-12116062D01*
X11277747Y-12106538D01*
X11287271Y-12097014D01*
X11287271Y-12116062D01*
X11487271Y-12116062D02*
X11372985Y-12116062D01*
X11430128Y-12116062D02*
X11430128Y-11916062D01*
X11411081Y-11944633D01*
X11392033Y-11963681D01*
X11372985Y-11973205D01*
X11563462Y-11935110D02*
X11572985Y-11925586D01*
X11592033Y-11916062D01*
X11639652Y-11916062D01*
X11658700Y-11925586D01*
X11668224Y-11935110D01*
X11677747Y-11954157D01*
X11677747Y-11973205D01*
X11668224Y-12001776D01*
X11553938Y-12116062D01*
X11677747Y-12116062D01*
X11849176Y-11916062D02*
X11811081Y-11916062D01*
X11792033Y-11925586D01*
X11782509Y-11935110D01*
X11763462Y-11963681D01*
X11753938Y-12001776D01*
X11753938Y-12077967D01*
X11763462Y-12097014D01*
X11772985Y-12106538D01*
X11792033Y-12116062D01*
X11830128Y-12116062D01*
X11849176Y-12106538D01*
X11858700Y-12097014D01*
X11868224Y-12077967D01*
X11868224Y-12030348D01*
X11858700Y-12011300D01*
X11849176Y-12001776D01*
X11830128Y-11992252D01*
X11792033Y-11992252D01*
X11772985Y-12001776D01*
X11763462Y-12011300D01*
X11753938Y-12030348D01*
X11992033Y-11916062D02*
X12011081Y-11916062D01*
X12030128Y-11925586D01*
X12039652Y-11935110D01*
X12049176Y-11954157D01*
X12058700Y-11992252D01*
X12058700Y-12039872D01*
X12049176Y-12077967D01*
X12039652Y-12097014D01*
X12030128Y-12106538D01*
X12011081Y-12116062D01*
X11992033Y-12116062D01*
X11972985Y-12106538D01*
X11963462Y-12097014D01*
X11953938Y-12077967D01*
X11944414Y-12039872D01*
X11944414Y-11992252D01*
X11953938Y-11954157D01*
X11963462Y-11935110D01*
X11972985Y-11925586D01*
X11992033Y-11916062D01*
X12134890Y-11916062D02*
X12134890Y-11954157D01*
X12211081Y-11916062D02*
X12211081Y-11954157D01*
X12506319Y-12192252D02*
X12496795Y-12182729D01*
X12477747Y-12154157D01*
X12468224Y-12135110D01*
X12458700Y-12106538D01*
X12449176Y-12058919D01*
X12449176Y-12020824D01*
X12458700Y-11973205D01*
X12468224Y-11944633D01*
X12477747Y-11925586D01*
X12496795Y-11897014D01*
X12506319Y-11887491D01*
X12572985Y-11935110D02*
X12582509Y-11925586D01*
X12601557Y-11916062D01*
X12649176Y-11916062D01*
X12668224Y-11925586D01*
X12677747Y-11935110D01*
X12687271Y-11954157D01*
X12687271Y-11973205D01*
X12677747Y-12001776D01*
X12563462Y-12116062D01*
X12687271Y-12116062D01*
X12925366Y-12116062D02*
X12925366Y-11916062D01*
X13011081Y-12116062D02*
X13011081Y-12011300D01*
X13001557Y-11992252D01*
X12982509Y-11982729D01*
X12953938Y-11982729D01*
X12934890Y-11992252D01*
X12925366Y-12001776D01*
X13134890Y-12116062D02*
X13115843Y-12106538D01*
X13106319Y-12097014D01*
X13096795Y-12077967D01*
X13096795Y-12020824D01*
X13106319Y-12001776D01*
X13115843Y-11992252D01*
X13134890Y-11982729D01*
X13163462Y-11982729D01*
X13182509Y-11992252D01*
X13192033Y-12001776D01*
X13201557Y-12020824D01*
X13201557Y-12077967D01*
X13192033Y-12097014D01*
X13182509Y-12106538D01*
X13163462Y-12116062D01*
X13134890Y-12116062D01*
X13315843Y-12116062D02*
X13296795Y-12106538D01*
X13287271Y-12087491D01*
X13287271Y-11916062D01*
X13468224Y-12106538D02*
X13449176Y-12116062D01*
X13411081Y-12116062D01*
X13392033Y-12106538D01*
X13382509Y-12087491D01*
X13382509Y-12011300D01*
X13392033Y-11992252D01*
X13411081Y-11982729D01*
X13449176Y-11982729D01*
X13468224Y-11992252D01*
X13477747Y-12011300D01*
X13477747Y-12030348D01*
X13382509Y-12049395D01*
X13553938Y-12106538D02*
X13572985Y-12116062D01*
X13611081Y-12116062D01*
X13630128Y-12106538D01*
X13639652Y-12087491D01*
X13639652Y-12077967D01*
X13630128Y-12058919D01*
X13611081Y-12049395D01*
X13582509Y-12049395D01*
X13563462Y-12039872D01*
X13553938Y-12020824D01*
X13553938Y-12011300D01*
X13563462Y-11992252D01*
X13582509Y-11982729D01*
X13611081Y-11982729D01*
X13630128Y-11992252D01*
X13706319Y-12192252D02*
X13715843Y-12182729D01*
X13734890Y-12154157D01*
X13744414Y-12135110D01*
X13753938Y-12106538D01*
X13763462Y-12058919D01*
X13763462Y-12020824D01*
X13753938Y-11973205D01*
X13744414Y-11944633D01*
X13734890Y-11925586D01*
X13715843Y-11897014D01*
X13706319Y-11887491D01*
X14068224Y-12192252D02*
X14058700Y-12182729D01*
X14039652Y-12154157D01*
X14030128Y-12135110D01*
X14020604Y-12106538D01*
X14011081Y-12058919D01*
X14011081Y-12020824D01*
X14020604Y-11973205D01*
X14030128Y-11944633D01*
X14039652Y-11925586D01*
X14058700Y-11897014D01*
X14068224Y-11887491D01*
X14144414Y-11982729D02*
X14144414Y-12116062D01*
X14144414Y-12001776D02*
X14153938Y-11992252D01*
X14172985Y-11982729D01*
X14201557Y-11982729D01*
X14220604Y-11992252D01*
X14230128Y-12011300D01*
X14230128Y-12116062D01*
X14353938Y-12116062D02*
X14334890Y-12106538D01*
X14325366Y-12097014D01*
X14315843Y-12077967D01*
X14315843Y-12020824D01*
X14325366Y-12001776D01*
X14334890Y-11992252D01*
X14353938Y-11982729D01*
X14382509Y-11982729D01*
X14401557Y-11992252D01*
X14411081Y-12001776D01*
X14420604Y-12020824D01*
X14420604Y-12077967D01*
X14411081Y-12097014D01*
X14401557Y-12106538D01*
X14382509Y-12116062D01*
X14353938Y-12116062D01*
X14477747Y-11982729D02*
X14553938Y-11982729D01*
X14506319Y-11916062D02*
X14506319Y-12087491D01*
X14515843Y-12106538D01*
X14534890Y-12116062D01*
X14553938Y-12116062D01*
X14772985Y-11982729D02*
X14772985Y-12182729D01*
X14772985Y-11992252D02*
X14792033Y-11982729D01*
X14830128Y-11982729D01*
X14849176Y-11992252D01*
X14858700Y-12001776D01*
X14868224Y-12020824D01*
X14868224Y-12077967D01*
X14858700Y-12097014D01*
X14849176Y-12106538D01*
X14830128Y-12116062D01*
X14792033Y-12116062D01*
X14772985Y-12106538D01*
X14982509Y-12116062D02*
X14963462Y-12106538D01*
X14953938Y-12087491D01*
X14953938Y-11916062D01*
X15144414Y-12116062D02*
X15144414Y-12011300D01*
X15134890Y-11992252D01*
X15115843Y-11982729D01*
X15077747Y-11982729D01*
X15058700Y-11992252D01*
X15144414Y-12106538D02*
X15125366Y-12116062D01*
X15077747Y-12116062D01*
X15058700Y-12106538D01*
X15049176Y-12087491D01*
X15049176Y-12068443D01*
X15058700Y-12049395D01*
X15077747Y-12039872D01*
X15125366Y-12039872D01*
X15144414Y-12030348D01*
X15211081Y-11982729D02*
X15287271Y-11982729D01*
X15239652Y-11916062D02*
X15239652Y-12087491D01*
X15249176Y-12106538D01*
X15268224Y-12116062D01*
X15287271Y-12116062D01*
X15430128Y-12106538D02*
X15411081Y-12116062D01*
X15372985Y-12116062D01*
X15353938Y-12106538D01*
X15344414Y-12087491D01*
X15344414Y-12011300D01*
X15353938Y-11992252D01*
X15372985Y-11982729D01*
X15411081Y-11982729D01*
X15430128Y-11992252D01*
X15439652Y-12011300D01*
X15439652Y-12030348D01*
X15344414Y-12049395D01*
X15611081Y-12116062D02*
X15611081Y-11916062D01*
X15611081Y-12106538D02*
X15592033Y-12116062D01*
X15553938Y-12116062D01*
X15534890Y-12106538D01*
X15525366Y-12097014D01*
X15515843Y-12077967D01*
X15515843Y-12020824D01*
X15525366Y-12001776D01*
X15534890Y-11992252D01*
X15553938Y-11982729D01*
X15592033Y-11982729D01*
X15611081Y-11992252D01*
X15687271Y-12192252D02*
X15696795Y-12182729D01*
X15715843Y-12154157D01*
X15725366Y-12135110D01*
X15734890Y-12106538D01*
X15744414Y-12058919D01*
X15744414Y-12020824D01*
X15734890Y-11973205D01*
X15725366Y-11944633D01*
X15715843Y-11925586D01*
X15696795Y-11897014D01*
X15687271Y-11887491D01*
M02*
