M48
; DRILL file {KiCad (6.0.0)} date Thu Aug 18 21:38:24 2022
; FORMAT={-:-/ absolute / metric / decimal}
; #@! TF.CreationDate,2022-08-18T21:38:24-04:00
; #@! TF.GenerationSoftware,Kicad,Pcbnew,(6.0.0)
; #@! TF.FileFunction,Plated,1,2,PTH
FMAT,2
METRIC
; #@! TA.AperFunction,Plated,PTH,ViaDrill
T1C0.400
; #@! TA.AperFunction,Plated,PTH,ComponentDrill
T2C0.800
%
G90
G05
T1
X60.325Y-111.125
X69.215Y-37.465
X75.565Y-111.125
X78.105Y-109.855
X79.375Y-50.8
X80.645Y-110.49
X82.175Y-60.325
X87.63Y-45.72
X87.63Y-79.27
X90.0Y-75.5
X90.175Y-80.1
X92.5Y-74.5
X92.71Y-81.24
X95.25Y-45.72
X95.25Y-82.2
X95.25Y-121.92
X96.52Y-54.61
X97.79Y-82.785
X97.79Y-102.235
X97.79Y-119.38
X97.79Y-123.825
X100.255Y-83.82
X100.33Y-119.38
X100.33Y-123.825
X102.235Y-134.62
X103.505Y-120.65
X105.41Y-90.805
X105.41Y-99.06
X106.68Y-61.595
X107.315Y-156.21
X107.95Y-88.9
X107.95Y-97.79
X107.95Y-105.41
X107.95Y-153.67
X108.0Y-64.0
X108.585Y-157.48
X109.855Y-175.895
X110.49Y-87.63
X110.49Y-96.52
X110.49Y-106.68
X111.0Y-66.5
X111.125Y-173.99
X113.03Y-95.25
X115.5Y-68.5
X117.475Y-163.83
X117.475Y-166.37
X118.745Y-170.815
X120.015Y-169.545
X121.23Y-79.27
X121.285Y-46.355
X123.19Y-119.38
X123.5Y-75.5
X123.75Y-80.1
X125.095Y-115.57
X125.73Y-172.72
X126.365Y-74.135
X126.385Y-81.24
X127.635Y-113.665
X128.27Y-119.38
X128.27Y-177.165
X128.905Y-46.355
X128.94Y-82.06
X129.654Y-180.454
X130.03Y-54.47
X130.81Y-115.57
X131.445Y-102.235
X131.445Y-168.91
X131.465Y-82.785
X132.08Y-158.75
X132.715Y-117.475
X133.35Y-122.555
X133.98Y-83.82
X133.985Y-115.57
X133.985Y-123.825
X133.985Y-156.845
X135.255Y-152.4
X137.795Y-123.825
X138.43Y-126.365
X139.065Y-90.805
X139.065Y-99.06
X139.7Y-171.45
X139.7Y-177.165
X140.97Y-62.865
X141.46Y-88.41
X141.605Y-97.79
X141.605Y-105.41
X142.5Y-65.0
X144.145Y-66.675
X144.145Y-96.52
X144.145Y-106.68
X144.15Y-87.625
X144.78Y-180.34
X146.685Y-95.25
X149.0Y-68.5
X149.225Y-49.53
X149.225Y-114.3
X152.4Y-108.585
X154.94Y-79.375
X155.575Y-46.355
X157.48Y-75.565
X157.48Y-80.01
X160.02Y-74.295
X160.02Y-81.28
X162.56Y-46.355
X162.56Y-81.915
X163.83Y-54.61
X165.1Y-82.55
X165.1Y-102.235
X167.64Y-83.82
X170.815Y-37.465
X172.72Y-90.805
X172.72Y-99.06
X174.0Y-63.0
X175.26Y-97.79
X175.26Y-105.41
X175.265Y-88.895
X176.0Y-65.0
X177.8Y-96.52
X177.8Y-106.68
X177.805Y-66.695
X177.805Y-87.625
X179.07Y-104.14
X180.34Y-95.25
X182.88Y-114.3
X183.515Y-62.23
T2
X53.975Y-23.495
X53.975Y-26.035
X53.975Y-28.575
X53.975Y-31.115
X53.975Y-33.655
X53.975Y-36.195
X53.975Y-38.735
X53.975Y-41.275
X53.975Y-52.705
X53.975Y-60.325
X53.975Y-64.135
X53.975Y-66.675
X53.975Y-70.485
X53.975Y-85.725
X53.975Y-93.345
X53.975Y-108.585
X53.975Y-111.76
X56.475Y-111.76
X56.515Y-52.705
X56.515Y-60.325
X56.515Y-70.485
X56.515Y-85.725
X56.515Y-93.345
X56.515Y-108.585
X59.055Y-52.705
X59.055Y-60.325
X59.055Y-70.485
X59.055Y-85.725
X59.055Y-93.345
X59.055Y-108.585
X61.595Y-23.495
X61.595Y-26.035
X61.595Y-28.575
X61.595Y-31.115
X61.595Y-33.655
X61.595Y-36.195
X61.595Y-38.735
X61.595Y-41.275
X61.595Y-52.705
X61.595Y-60.325
X61.595Y-70.485
X61.595Y-85.725
X61.595Y-93.345
X61.595Y-108.585
X62.25Y-45.72
X64.135Y-52.705
X64.135Y-60.325
X64.135Y-64.135
X64.135Y-66.675
X64.135Y-70.485
X64.135Y-85.725
X64.135Y-93.345
X64.135Y-108.585
X64.75Y-45.72
X64.77Y-26.035
X64.77Y-28.575
X64.77Y-31.115
X64.77Y-33.655
X64.77Y-36.195
X64.77Y-38.735
X64.77Y-41.275
X66.675Y-52.705
X66.675Y-60.325
X66.675Y-70.485
X66.675Y-85.725
X66.675Y-93.345
X66.675Y-108.585
X69.215Y-52.705
X69.215Y-60.325
X69.215Y-64.135
X69.215Y-66.675
X69.215Y-70.485
X69.215Y-85.725
X69.215Y-93.345
X69.215Y-108.585
X71.755Y-52.705
X71.755Y-60.325
X71.755Y-70.485
X71.755Y-85.725
X71.755Y-93.345
X71.755Y-108.585
X72.39Y-26.035
X72.39Y-28.575
X72.39Y-31.115
X72.39Y-33.655
X72.39Y-36.195
X72.39Y-38.735
X72.39Y-41.275
X74.295Y-70.485
X74.295Y-85.725
X74.295Y-93.345
X74.295Y-108.585
X75.565Y-26.035
X75.565Y-28.575
X75.565Y-31.115
X75.565Y-33.655
X75.565Y-36.195
X75.565Y-38.735
X75.565Y-41.275
X75.565Y-47.625
X75.565Y-57.785
X76.835Y-70.485
X76.835Y-85.725
X76.835Y-93.345
X76.835Y-108.585
X78.105Y-47.625
X78.105Y-57.785
X79.375Y-64.135
X79.375Y-66.675
X79.375Y-70.485
X79.375Y-85.725
X79.375Y-93.345
X79.375Y-108.585
X80.645Y-47.625
X80.645Y-57.785
X81.915Y-70.485
X81.915Y-85.725
X81.915Y-93.345
X81.915Y-108.585
X83.185Y-26.035
X83.185Y-28.575
X83.185Y-31.115
X83.185Y-33.655
X83.185Y-36.195
X83.185Y-38.735
X83.185Y-41.275
X83.185Y-47.625
X83.185Y-57.785
X83.5Y-89.535
X86.0Y-89.535
X87.63Y-23.495
X87.63Y-26.035
X87.63Y-28.575
X87.63Y-31.115
X87.63Y-33.655
X87.63Y-36.195
X87.63Y-38.735
X87.63Y-41.275
X87.63Y-52.705
X87.63Y-60.325
X87.63Y-64.135
X87.63Y-66.675
X87.63Y-70.485
X87.63Y-85.725
X87.63Y-93.345
X87.63Y-108.585
X90.17Y-52.705
X90.17Y-60.325
X90.17Y-70.485
X90.17Y-85.725
X90.17Y-93.345
X90.17Y-108.585
X92.71Y-52.705
X92.71Y-60.325
X92.71Y-70.485
X92.71Y-85.725
X92.71Y-93.345
X92.71Y-108.585
X95.25Y-23.495
X95.25Y-26.035
X95.25Y-28.575
X95.25Y-31.115
X95.25Y-33.655
X95.25Y-36.195
X95.25Y-38.735
X95.25Y-41.275
X95.25Y-52.705
X95.25Y-60.325
X95.25Y-70.485
X95.25Y-85.725
X95.25Y-93.345
X95.25Y-108.585
X97.79Y-52.705
X97.79Y-60.325
X97.79Y-64.135
X97.79Y-66.675
X97.79Y-70.485
X97.79Y-85.725
X97.79Y-93.345
X97.79Y-108.585
X97.79Y-146.09
X97.79Y-148.59
X97.79Y-157.48
X97.79Y-160.02
X97.79Y-162.56
X97.79Y-165.1
X97.79Y-167.64
X97.79Y-170.18
X97.79Y-172.72
X97.79Y-175.26
X98.425Y-26.035
X98.425Y-28.575
X98.425Y-31.115
X98.425Y-33.655
X98.425Y-36.195
X98.425Y-38.735
X98.425Y-41.275
X100.33Y-52.705
X100.33Y-60.325
X100.33Y-70.485
X100.33Y-85.725
X100.33Y-93.345
X100.33Y-108.585
X102.87Y-52.705
X102.87Y-60.325
X102.87Y-64.135
X102.87Y-66.675
X102.87Y-70.485
X102.87Y-85.725
X102.87Y-93.345
X102.87Y-108.585
X103.525Y-45.72
X105.41Y-52.705
X105.41Y-60.325
X105.41Y-70.485
X105.41Y-85.725
X105.41Y-93.345
X105.41Y-108.585
X105.41Y-157.48
X105.41Y-160.02
X105.41Y-162.56
X105.41Y-165.1
X105.41Y-167.64
X105.41Y-170.18
X105.41Y-172.72
X105.41Y-175.26
X106.025Y-45.72
X106.045Y-26.035
X106.045Y-28.575
X106.045Y-31.115
X106.045Y-33.655
X106.045Y-36.195
X106.045Y-38.735
X106.045Y-41.275
X106.68Y-119.42
X106.68Y-121.92
X106.68Y-125.73
X106.68Y-128.27
X106.68Y-130.81
X106.68Y-133.35
X106.68Y-135.89
X106.68Y-138.43
X106.68Y-140.97
X107.95Y-70.485
X107.95Y-85.725
X107.95Y-93.345
X107.95Y-108.585
X109.22Y-26.035
X109.22Y-28.575
X109.22Y-31.115
X109.22Y-33.655
X109.22Y-36.195
X109.22Y-38.735
X109.22Y-41.275
X109.22Y-47.625
X109.22Y-57.785
X110.49Y-70.485
X110.49Y-85.725
X110.49Y-93.345
X110.49Y-108.585
X111.76Y-47.625
X111.76Y-57.785
X113.03Y-64.135
X113.03Y-66.675
X113.03Y-70.485
X113.03Y-85.725
X113.03Y-93.345
X113.03Y-108.585
X114.3Y-47.625
X114.3Y-57.785
X114.3Y-119.42
X114.3Y-121.92
X114.3Y-125.73
X114.3Y-128.27
X114.3Y-130.81
X114.3Y-133.35
X114.3Y-135.89
X114.3Y-138.43
X114.3Y-140.97
X114.3Y-146.09
X114.3Y-148.59
X114.3Y-152.4
X114.3Y-154.94
X114.3Y-157.48
X114.3Y-160.02
X114.3Y-162.56
X114.3Y-165.1
X114.3Y-167.64
X114.3Y-170.18
X114.3Y-172.72
X114.3Y-175.26
X115.57Y-70.485
X115.57Y-85.725
X115.57Y-93.345
X115.57Y-108.585
X116.84Y-26.035
X116.84Y-28.575
X116.84Y-31.115
X116.84Y-33.655
X116.84Y-36.195
X116.84Y-38.735
X116.84Y-41.275
X116.84Y-47.625
X116.84Y-57.785
X121.285Y-23.495
X121.285Y-26.035
X121.285Y-28.575
X121.285Y-31.115
X121.285Y-33.655
X121.285Y-36.195
X121.285Y-38.735
X121.285Y-41.275
X121.285Y-52.705
X121.285Y-60.325
X121.285Y-64.135
X121.285Y-66.675
X121.285Y-70.485
X121.285Y-85.725
X121.285Y-93.345
X121.285Y-108.585
X121.92Y-125.73
X121.92Y-128.27
X121.92Y-130.81
X121.92Y-133.35
X121.92Y-135.89
X121.92Y-138.43
X121.92Y-140.97
X121.92Y-152.4
X121.92Y-154.94
X121.92Y-157.48
X121.92Y-160.02
X121.92Y-162.56
X121.92Y-165.1
X121.92Y-167.64
X121.92Y-170.18
X121.92Y-172.72
X121.92Y-175.26
X123.825Y-52.705
X123.825Y-60.325
X123.825Y-70.485
X123.825Y-85.725
X123.825Y-93.345
X123.825Y-108.585
X126.365Y-52.705
X126.365Y-60.325
X126.365Y-70.485
X126.365Y-85.725
X126.365Y-93.345
X126.365Y-108.585
X128.905Y-23.495
X128.905Y-26.035
X128.905Y-28.575
X128.905Y-31.115
X128.905Y-33.655
X128.905Y-36.195
X128.905Y-38.735
X128.905Y-41.275
X128.905Y-52.705
X128.905Y-60.325
X128.905Y-70.485
X128.905Y-85.725
X128.905Y-93.345
X128.905Y-108.585
X129.54Y-125.73
X129.54Y-128.27
X129.54Y-130.81
X129.54Y-133.35
X129.54Y-135.89
X129.54Y-138.43
X129.54Y-140.97
X129.54Y-146.09
X129.54Y-148.59
X129.54Y-152.4
X129.54Y-154.94
X129.54Y-157.48
X129.54Y-160.02
X129.54Y-162.56
X129.54Y-165.1
X129.54Y-167.64
X129.54Y-170.18
X129.54Y-172.72
X129.54Y-175.26
X131.445Y-52.705
X131.445Y-60.325
X131.445Y-64.135
X131.445Y-66.675
X131.445Y-70.485
X131.445Y-85.725
X131.445Y-93.345
X131.445Y-108.585
X132.08Y-26.035
X132.08Y-28.575
X132.08Y-31.115
X132.08Y-33.655
X132.08Y-36.195
X132.08Y-38.735
X132.08Y-41.275
X133.985Y-52.705
X133.985Y-60.325
X133.985Y-70.485
X133.985Y-85.725
X133.985Y-93.345
X133.985Y-108.585
X136.525Y-52.705
X136.525Y-60.325
X136.525Y-64.135
X136.525Y-66.675
X136.525Y-70.485
X136.525Y-85.725
X136.525Y-93.345
X136.525Y-108.585
X137.16Y-152.4
X137.16Y-154.94
X137.16Y-157.48
X137.16Y-160.02
X137.16Y-162.56
X137.16Y-165.1
X137.16Y-167.64
X137.16Y-170.18
X137.16Y-172.72
X137.16Y-175.26
X137.2Y-45.72
X139.065Y-52.705
X139.065Y-60.325
X139.065Y-70.485
X139.065Y-85.725
X139.065Y-93.345
X139.065Y-108.585
X139.7Y-26.035
X139.7Y-28.575
X139.7Y-31.115
X139.7Y-33.655
X139.7Y-36.195
X139.7Y-38.735
X139.7Y-41.275
X139.7Y-45.72
X141.605Y-70.485
X141.605Y-85.725
X141.605Y-93.345
X141.605Y-108.585
X142.875Y-26.035
X142.875Y-28.575
X142.875Y-31.115
X142.875Y-33.655
X142.875Y-36.195
X142.875Y-38.735
X142.875Y-41.275
X142.875Y-47.625
X142.875Y-57.785
X144.145Y-70.485
X144.145Y-85.725
X144.145Y-93.345
X144.145Y-108.585
X145.415Y-47.625
X145.415Y-57.785
X146.685Y-64.135
X146.685Y-66.675
X146.685Y-70.485
X146.685Y-85.725
X146.685Y-93.345
X146.685Y-108.585
X147.955Y-47.625
X147.955Y-57.785
X149.225Y-70.485
X149.225Y-85.725
X149.225Y-93.345
X149.225Y-108.585
X150.495Y-26.035
X150.495Y-28.575
X150.495Y-31.115
X150.495Y-33.655
X150.495Y-36.195
X150.495Y-38.735
X150.495Y-41.275
X150.495Y-47.625
X150.495Y-57.785
X151.17Y-89.535
X153.67Y-89.535
X154.93Y-23.453
X154.93Y-25.992
X154.93Y-28.532
X154.93Y-31.072
X154.93Y-33.612
X154.93Y-36.152
X154.93Y-38.692
X154.93Y-41.232
X154.94Y-52.705
X154.94Y-60.325
X154.94Y-64.135
X154.94Y-66.675
X154.94Y-93.345
X154.94Y-108.585
X154.945Y-70.485
X154.945Y-85.725
X157.48Y-52.705
X157.48Y-60.325
X157.48Y-93.345
X157.48Y-108.585
X157.485Y-70.485
X157.485Y-85.725
X160.02Y-52.705
X160.02Y-60.325
X160.02Y-93.345
X160.02Y-108.585
X160.025Y-70.485
X160.025Y-85.725
X162.55Y-23.453
X162.55Y-25.992
X162.55Y-28.532
X162.55Y-31.072
X162.55Y-33.612
X162.55Y-36.152
X162.55Y-38.692
X162.55Y-41.232
X162.56Y-52.705
X162.56Y-60.325
X162.56Y-93.345
X162.56Y-108.585
X162.565Y-70.485
X162.565Y-85.725
X165.1Y-52.705
X165.1Y-60.325
X165.1Y-64.135
X165.1Y-66.675
X165.1Y-93.345
X165.1Y-108.585
X165.105Y-70.485
X165.105Y-85.725
X165.715Y-25.997
X165.715Y-28.537
X165.715Y-31.077
X165.715Y-33.617
X165.715Y-36.157
X165.715Y-38.697
X165.715Y-41.237
X167.64Y-52.705
X167.64Y-60.325
X167.64Y-93.345
X167.64Y-108.585
X167.645Y-70.485
X167.645Y-85.725
X170.18Y-52.705
X170.18Y-60.325
X170.18Y-64.135
X170.18Y-66.675
X170.18Y-93.345
X170.18Y-108.585
X170.185Y-70.485
X170.185Y-85.725
X170.815Y-45.72
X172.72Y-52.705
X172.72Y-60.325
X172.72Y-93.345
X172.72Y-108.585
X172.725Y-70.485
X172.725Y-85.725
X173.315Y-45.72
X173.335Y-25.997
X173.335Y-28.537
X173.335Y-31.077
X173.335Y-33.617
X173.335Y-36.157
X173.335Y-38.697
X173.335Y-41.237
X175.26Y-93.345
X175.26Y-108.585
X175.265Y-70.485
X175.265Y-85.725
X176.52Y-25.997
X176.52Y-28.537
X176.52Y-31.077
X176.52Y-33.617
X176.52Y-36.157
X176.52Y-38.697
X176.52Y-41.237
X176.53Y-47.582
X176.53Y-57.742
X177.8Y-93.345
X177.8Y-108.585
X177.805Y-70.485
X177.805Y-85.725
X179.07Y-47.625
X179.07Y-57.785
X180.34Y-64.135
X180.34Y-66.675
X180.34Y-93.345
X180.34Y-108.585
X180.345Y-70.485
X180.345Y-85.725
X180.36Y-89.535
X181.61Y-47.625
X181.61Y-57.785
X182.86Y-89.535
X182.88Y-93.345
X182.88Y-108.585
X182.885Y-70.485
X182.885Y-85.725
X184.14Y-25.997
X184.14Y-28.537
X184.14Y-31.077
X184.14Y-33.617
X184.14Y-36.157
X184.14Y-38.697
X184.14Y-41.237
X184.15Y-47.625
X184.15Y-57.785
T0
M30
