%FSLAX45Y45*%
G04 Gerber Fmt 4.5, Leading zero omitted, Abs format (unit mm)*
G04 Created by KiCad (PCBNEW (6.0.0)) date 2022-08-18 21:38:26*
%MOMM*%
%LPD*%
G01*
G04 APERTURE LIST*
%TA.AperFunction,Profile*%
%ADD10C,0.100000*%
%TD*%
%ADD11C,0.200000*%
G04 APERTURE END LIST*
D10*
X4649000Y-11585620D02*
X4649000Y-1767160D01*
X18950140Y-11585620D02*
X18950140Y-1767160D01*
X9763696Y-13367000D02*
G75*
G03*
X9763696Y-13367000I-268830J0D01*
G01*
X14709140Y-11585620D02*
X18950140Y-11585620D01*
X4649000Y-1767160D02*
X18950140Y-1767160D01*
X14373104Y-13367000D02*
G75*
G03*
X14373104Y-13367000I-268830J0D01*
G01*
X8890000Y-18354000D02*
X8890000Y-11585620D01*
X14709140Y-18354000D02*
X14709140Y-11585620D01*
X4649000Y-11585620D02*
X8890000Y-11585620D01*
D11*
X4901619Y-19554476D02*
X4901619Y-19354476D01*
X4949238Y-19354476D01*
X4977810Y-19364000D01*
X4996857Y-19383048D01*
X5006381Y-19402095D01*
X5015905Y-19440190D01*
X5015905Y-19468762D01*
X5006381Y-19506857D01*
X4996857Y-19525905D01*
X4977810Y-19544952D01*
X4949238Y-19554476D01*
X4901619Y-19554476D01*
X5101619Y-19554476D02*
X5101619Y-19421143D01*
X5101619Y-19459238D02*
X5111143Y-19440190D01*
X5120667Y-19430667D01*
X5139714Y-19421143D01*
X5158762Y-19421143D01*
X5225429Y-19554476D02*
X5225429Y-19421143D01*
X5225429Y-19354476D02*
X5215905Y-19364000D01*
X5225429Y-19373524D01*
X5234952Y-19364000D01*
X5225429Y-19354476D01*
X5225429Y-19373524D01*
X5349238Y-19554476D02*
X5330190Y-19544952D01*
X5320667Y-19525905D01*
X5320667Y-19354476D01*
X5454000Y-19554476D02*
X5434952Y-19544952D01*
X5425429Y-19525905D01*
X5425429Y-19354476D01*
X5682571Y-19554476D02*
X5682571Y-19354476D01*
X5749238Y-19497333D01*
X5815905Y-19354476D01*
X5815905Y-19554476D01*
X5996857Y-19554476D02*
X5996857Y-19449714D01*
X5987333Y-19430667D01*
X5968286Y-19421143D01*
X5930190Y-19421143D01*
X5911143Y-19430667D01*
X5996857Y-19544952D02*
X5977809Y-19554476D01*
X5930190Y-19554476D01*
X5911143Y-19544952D01*
X5901619Y-19525905D01*
X5901619Y-19506857D01*
X5911143Y-19487810D01*
X5930190Y-19478286D01*
X5977809Y-19478286D01*
X5996857Y-19468762D01*
X6092095Y-19421143D02*
X6092095Y-19621143D01*
X6092095Y-19430667D02*
X6111143Y-19421143D01*
X6149238Y-19421143D01*
X6168286Y-19430667D01*
X6177809Y-19440190D01*
X6187333Y-19459238D01*
X6187333Y-19516381D01*
X6177809Y-19535429D01*
X6168286Y-19544952D01*
X6149238Y-19554476D01*
X6111143Y-19554476D01*
X6092095Y-19544952D01*
X6273048Y-19535429D02*
X6282571Y-19544952D01*
X6273048Y-19554476D01*
X6263524Y-19544952D01*
X6273048Y-19535429D01*
X6273048Y-19554476D01*
X6273048Y-19430667D02*
X6282571Y-19440190D01*
X6273048Y-19449714D01*
X6263524Y-19440190D01*
X6273048Y-19430667D01*
X6273048Y-19449714D01*
M02*
