G04 #@! TF.GenerationSoftware,KiCad,Pcbnew,(6.0.4)*
G04 #@! TF.CreationDate,2022-12-31T00:19:43-05:00*
G04 #@! TF.ProjectId,intellivision t-card replic,696e7465-6c6c-4697-9669-73696f6e2074,rev?*
G04 #@! TF.SameCoordinates,Original*
G04 #@! TF.FileFunction,Copper,L2,Bot*
G04 #@! TF.FilePolarity,Positive*
%FSLAX46Y46*%
G04 Gerber Fmt 4.6, Leading zero omitted, Abs format (unit mm)*
G04 Created by KiCad (PCBNEW (6.0.4)) date 2022-12-31 00:19:43*
%MOMM*%
%LPD*%
G01*
G04 APERTURE LIST*
G04 #@! TA.AperFunction,ComponentPad*
%ADD10C,1.600000*%
G04 #@! TD*
G04 #@! TA.AperFunction,ComponentPad*
%ADD11O,1.600000X1.600000*%
G04 #@! TD*
G04 #@! TA.AperFunction,ComponentPad*
%ADD12R,1.600000X1.600000*%
G04 #@! TD*
G04 #@! TA.AperFunction,ComponentPad*
%ADD13R,1.700000X1.700000*%
G04 #@! TD*
G04 #@! TA.AperFunction,ComponentPad*
%ADD14O,1.700000X1.700000*%
G04 #@! TD*
G04 #@! TA.AperFunction,ConnectorPad*
%ADD15R,1.270000X8.840000*%
G04 #@! TD*
G04 #@! TA.AperFunction,ViaPad*
%ADD16C,0.800000*%
G04 #@! TD*
G04 #@! TA.AperFunction,Conductor*
%ADD17C,1.000000*%
G04 #@! TD*
G04 #@! TA.AperFunction,Conductor*
%ADD18C,0.250000*%
G04 #@! TD*
G04 APERTURE END LIST*
D10*
X105405000Y-66082500D03*
D11*
X115565000Y-66082500D03*
D10*
X134615000Y-47032500D03*
D11*
X134615000Y-57192500D03*
D10*
X132075000Y-47032500D03*
D11*
X132075000Y-57192500D03*
D10*
X109240000Y-44450000D03*
X111740000Y-44450000D03*
D12*
X105405000Y-107992500D03*
D11*
X107945000Y-107992500D03*
X110485000Y-107992500D03*
X113025000Y-107992500D03*
X115565000Y-107992500D03*
X118105000Y-107992500D03*
X120645000Y-107992500D03*
X123185000Y-107992500D03*
X125725000Y-107992500D03*
X128265000Y-107992500D03*
X130805000Y-107992500D03*
X133345000Y-107992500D03*
X133345000Y-92752500D03*
X130805000Y-92752500D03*
X128265000Y-92752500D03*
X125725000Y-92752500D03*
X123185000Y-92752500D03*
X120645000Y-92752500D03*
X118105000Y-92752500D03*
X115565000Y-92752500D03*
X113025000Y-92752500D03*
X110485000Y-92752500D03*
X107945000Y-92752500D03*
X105405000Y-92752500D03*
D10*
X129540000Y-148590000D03*
X129540000Y-146090000D03*
D12*
X113015000Y-40640000D03*
D11*
X113015000Y-38100000D03*
X113015000Y-35560000D03*
X113015000Y-33020000D03*
X113015000Y-30480000D03*
X113015000Y-27940000D03*
X113015000Y-25400000D03*
X113015000Y-22860000D03*
X105395000Y-22860000D03*
X105395000Y-25400000D03*
X105395000Y-27940000D03*
X105395000Y-30480000D03*
X105395000Y-33020000D03*
X105395000Y-35560000D03*
X105395000Y-38100000D03*
X105395000Y-40640000D03*
D13*
X142240000Y-60960000D03*
D14*
X142240000Y-63500000D03*
X142240000Y-66040000D03*
X142240000Y-68580000D03*
X142240000Y-71120000D03*
X142240000Y-73660000D03*
X142240000Y-76200000D03*
X142240000Y-78740000D03*
X142240000Y-81280000D03*
X142240000Y-83820000D03*
X142240000Y-86360000D03*
X142240000Y-88900000D03*
X142240000Y-91440000D03*
X142240000Y-93980000D03*
X142240000Y-96520000D03*
X142240000Y-99060000D03*
X142240000Y-101600000D03*
X142240000Y-104140000D03*
X142240000Y-106680000D03*
X142240000Y-109220000D03*
D10*
X130805000Y-63542500D03*
D11*
X120645000Y-63542500D03*
D10*
X130805000Y-66082500D03*
D11*
X120645000Y-66082500D03*
D12*
X105410000Y-85132500D03*
D11*
X107950000Y-85132500D03*
X110490000Y-85132500D03*
X113030000Y-85132500D03*
X115570000Y-85132500D03*
X118110000Y-85132500D03*
X120650000Y-85132500D03*
X123190000Y-85132500D03*
X125730000Y-85132500D03*
X128270000Y-85132500D03*
X130810000Y-85132500D03*
X133350000Y-85132500D03*
X133350000Y-69892500D03*
X130810000Y-69892500D03*
X128270000Y-69892500D03*
X125730000Y-69892500D03*
X123190000Y-69892500D03*
X120650000Y-69892500D03*
X118110000Y-69892500D03*
X115570000Y-69892500D03*
X113030000Y-69892500D03*
X110490000Y-69892500D03*
X107950000Y-69892500D03*
X105410000Y-69892500D03*
D10*
X105410000Y-148570000D03*
X105410000Y-146070000D03*
D12*
X97790000Y-157480000D03*
D11*
X97790000Y-160020000D03*
X97790000Y-162560000D03*
X97790000Y-165100000D03*
X97790000Y-167640000D03*
X97790000Y-170180000D03*
X97790000Y-172720000D03*
X97790000Y-175260000D03*
X105410000Y-175260000D03*
X105410000Y-172720000D03*
X105410000Y-170180000D03*
X105410000Y-167640000D03*
X105410000Y-165100000D03*
X105410000Y-162560000D03*
X105410000Y-160020000D03*
X105410000Y-157480000D03*
D12*
X99017500Y-56525000D03*
D11*
X99017500Y-53985000D03*
X99017500Y-51445000D03*
X99017500Y-48905000D03*
X99017500Y-46365000D03*
X99017500Y-43825000D03*
X99017500Y-41285000D03*
X99017500Y-38745000D03*
X91397500Y-38745000D03*
X91397500Y-41285000D03*
X91397500Y-43825000D03*
X91397500Y-46365000D03*
X91397500Y-48905000D03*
X91397500Y-51445000D03*
X91397500Y-53985000D03*
X91397500Y-56525000D03*
D10*
X114300000Y-121900000D03*
X114300000Y-119400000D03*
D12*
X114300000Y-152400000D03*
D11*
X114300000Y-154940000D03*
X114300000Y-157480000D03*
X114300000Y-160020000D03*
X114300000Y-162560000D03*
X114300000Y-165100000D03*
X114300000Y-167640000D03*
X114300000Y-170180000D03*
X114300000Y-172720000D03*
X114300000Y-175260000D03*
X121920000Y-175260000D03*
X121920000Y-172720000D03*
X121920000Y-170180000D03*
X121920000Y-167640000D03*
X121920000Y-165100000D03*
X121920000Y-162560000D03*
X121920000Y-160020000D03*
X121920000Y-157480000D03*
X121920000Y-154940000D03*
X121920000Y-152400000D03*
D10*
X126995000Y-46990000D03*
D11*
X126995000Y-57150000D03*
D12*
X129540000Y-152400000D03*
D11*
X129540000Y-154940000D03*
X129540000Y-157480000D03*
X129540000Y-160020000D03*
X129540000Y-162560000D03*
X129540000Y-165100000D03*
X129540000Y-167640000D03*
X129540000Y-170180000D03*
X129540000Y-172720000D03*
X129540000Y-175260000D03*
X137160000Y-175260000D03*
X137160000Y-172720000D03*
X137160000Y-170180000D03*
X137160000Y-167640000D03*
X137160000Y-165100000D03*
X137160000Y-162560000D03*
X137160000Y-160020000D03*
X137160000Y-157480000D03*
X137160000Y-154940000D03*
X137160000Y-152400000D03*
D12*
X134605000Y-40645000D03*
D11*
X134605000Y-38105000D03*
X134605000Y-35565000D03*
X134605000Y-33025000D03*
X134605000Y-30485000D03*
X134605000Y-27945000D03*
X134605000Y-25405000D03*
X126985000Y-25405000D03*
X126985000Y-27945000D03*
X126985000Y-30485000D03*
X126985000Y-33025000D03*
X126985000Y-35565000D03*
X126985000Y-38105000D03*
X126985000Y-40645000D03*
D10*
X114300000Y-148590000D03*
X114300000Y-146090000D03*
D15*
X144665700Y-187960000D03*
X142125700Y-187960000D03*
X139585700Y-187960000D03*
X137045700Y-187960000D03*
X134505700Y-187960000D03*
X131965700Y-187960000D03*
X129425700Y-187960000D03*
X126885700Y-187960000D03*
X124345700Y-187960000D03*
X121805700Y-187960000D03*
X119265700Y-187960000D03*
X116725700Y-187960000D03*
X114185700Y-187960000D03*
X111645700Y-187960000D03*
X109105700Y-187960000D03*
X106565700Y-187960000D03*
X104025700Y-187960000D03*
X101485700Y-187960000D03*
X98945700Y-187960000D03*
X96405700Y-187960000D03*
X93865700Y-187960000D03*
X91325700Y-187960000D03*
D10*
X136485000Y-61595000D03*
X133985000Y-61595000D03*
D13*
X96520000Y-60960000D03*
D14*
X96520000Y-63500000D03*
X96520000Y-66040000D03*
X96520000Y-68580000D03*
X96520000Y-71120000D03*
X96520000Y-73660000D03*
X96520000Y-76200000D03*
X96520000Y-78740000D03*
X96520000Y-81280000D03*
X96520000Y-83820000D03*
X96520000Y-86360000D03*
X96520000Y-88900000D03*
X96520000Y-91440000D03*
X96520000Y-93980000D03*
X96520000Y-96520000D03*
X96520000Y-99060000D03*
X96520000Y-101600000D03*
X96520000Y-104140000D03*
X96520000Y-106680000D03*
X96520000Y-109220000D03*
D10*
X105405000Y-63542500D03*
D11*
X115565000Y-63542500D03*
D12*
X106680000Y-125730000D03*
D11*
X106680000Y-128270000D03*
X106680000Y-130810000D03*
X106680000Y-133350000D03*
X106680000Y-135890000D03*
X106680000Y-138430000D03*
X106680000Y-140970000D03*
X114300000Y-140970000D03*
X114300000Y-138430000D03*
X114300000Y-135890000D03*
X114300000Y-133350000D03*
X114300000Y-130810000D03*
X114300000Y-128270000D03*
X114300000Y-125730000D03*
D10*
X129535000Y-47032500D03*
D11*
X129535000Y-57192500D03*
D12*
X123800000Y-40645000D03*
D11*
X123800000Y-38105000D03*
X123800000Y-35565000D03*
X123800000Y-33025000D03*
X123800000Y-30485000D03*
X123800000Y-27945000D03*
X123800000Y-25405000D03*
X116180000Y-25405000D03*
X116180000Y-27945000D03*
X116180000Y-30485000D03*
X116180000Y-33025000D03*
X116180000Y-35565000D03*
X116180000Y-38105000D03*
X116180000Y-40645000D03*
D16*
X94615000Y-112395000D03*
X142875000Y-112395000D03*
X95250000Y-148590000D03*
X103505000Y-60960000D03*
X95250000Y-121920000D03*
X129654300Y-180454300D03*
X131445000Y-143891000D03*
X144780000Y-180340000D03*
X133985000Y-156845000D03*
X121920000Y-78740000D03*
X138430000Y-153670000D03*
X133350000Y-153670000D03*
X127000000Y-88900000D03*
X132715000Y-157480000D03*
X132080000Y-158750000D03*
X124460000Y-77470000D03*
X140970000Y-164465000D03*
X132080000Y-160020000D03*
X129540000Y-90170000D03*
X131445000Y-168910000D03*
X127000000Y-76200000D03*
X132080000Y-91440000D03*
X142240000Y-171450000D03*
X130810000Y-74930000D03*
X132715000Y-141605000D03*
X120650000Y-141605000D03*
X120015000Y-169545000D03*
X128270000Y-177165000D03*
X143510000Y-177165000D03*
X131445000Y-140335000D03*
X118745000Y-170815000D03*
X133350000Y-73660000D03*
X120650000Y-140335000D03*
X143510000Y-170180000D03*
X130805000Y-94657500D03*
X117475000Y-166370000D03*
X117475000Y-163830000D03*
X128265000Y-95927500D03*
X143510000Y-167640000D03*
X120650000Y-139065000D03*
X132080000Y-71120000D03*
X130810000Y-139065000D03*
X111125000Y-173990000D03*
X143510000Y-160020000D03*
X125725000Y-97197500D03*
X129540000Y-68580000D03*
X130175000Y-137795000D03*
X120650000Y-137795000D03*
X109855000Y-175895000D03*
X120650000Y-136525000D03*
X129540000Y-136525000D03*
X127000000Y-67310000D03*
X108585000Y-157480000D03*
X107315000Y-156210000D03*
X123185000Y-98467500D03*
X143510000Y-157480000D03*
X114300000Y-54610000D03*
X119380000Y-53340000D03*
X116840000Y-52070000D03*
X109220000Y-48260000D03*
X109069511Y-50697011D03*
X106680000Y-57150000D03*
X113030000Y-57150000D03*
X107950000Y-153670000D03*
X135255000Y-152400000D03*
X133350000Y-111125000D03*
X106680000Y-111125000D03*
X106680000Y-82550000D03*
X132080000Y-116205000D03*
X129540000Y-101600000D03*
X102596920Y-30841920D03*
X139700000Y-157480000D03*
X109220000Y-86995000D03*
X132715000Y-112395000D03*
X109220000Y-111760000D03*
X127000000Y-102235000D03*
X139700000Y-156210000D03*
X132080000Y-117475000D03*
X118110000Y-88265000D03*
X116840000Y-112395000D03*
X132080000Y-113665000D03*
X132080000Y-118745000D03*
X138430000Y-156210000D03*
X124460000Y-103505000D03*
X132080000Y-101600000D03*
X138430000Y-173990000D03*
X140335000Y-161925000D03*
X132080000Y-114935000D03*
X101740489Y-34149511D03*
X132080000Y-120015000D03*
X121920000Y-104140000D03*
X117475000Y-115570000D03*
X123190000Y-112395000D03*
X124460000Y-71755000D03*
X125730000Y-172720000D03*
X123190000Y-122555000D03*
X113025000Y-116210000D03*
X113030000Y-77470000D03*
X121920000Y-73660000D03*
X120650000Y-112395000D03*
X111760000Y-114935000D03*
X121920000Y-122555000D03*
X110490000Y-78740000D03*
X110485000Y-118750000D03*
X118110000Y-112395000D03*
X119380000Y-74930000D03*
X109220000Y-114935000D03*
X120650000Y-122555000D03*
X107945000Y-119385000D03*
X107950000Y-80010000D03*
X106680000Y-113665000D03*
X115570000Y-76200000D03*
X115570000Y-112395000D03*
X119380000Y-122889700D03*
X105410000Y-81280000D03*
X105410000Y-120650000D03*
X101454511Y-31895489D03*
X114300000Y-112395000D03*
X104140000Y-111125000D03*
X136525000Y-39370000D03*
X129540000Y-34925000D03*
X124455000Y-64775000D03*
X113030000Y-67310000D03*
X136525000Y-26670000D03*
X117475000Y-36830000D03*
D17*
X103500000Y-63542500D02*
X103500000Y-50842500D01*
X105405000Y-90212500D02*
X104135000Y-88942500D01*
X103500000Y-66082500D02*
X103500000Y-69257500D01*
X136520000Y-52065000D02*
X136520000Y-59060000D01*
X134615000Y-50160000D02*
X134615000Y-47032500D01*
X105405000Y-63542500D02*
X105405000Y-66082500D01*
X103500000Y-88307500D02*
X104135000Y-88942500D01*
X105405000Y-66082500D02*
X103500000Y-66082500D01*
X91440000Y-121920000D02*
X95250000Y-121920000D01*
X91325700Y-113616402D02*
X91325700Y-122034300D01*
X145415000Y-62865000D02*
X145415000Y-109855000D01*
X103500000Y-69257500D02*
X103500000Y-88307500D01*
X104770000Y-49572500D02*
X104770000Y-41265000D01*
X91440000Y-148590000D02*
X95250000Y-148590000D01*
X105405000Y-63542500D02*
X103500000Y-63542500D01*
X103500000Y-50842500D02*
X104770000Y-49572500D01*
X96520000Y-60960000D02*
X92710000Y-60960000D01*
X136520000Y-61560000D02*
X136485000Y-61595000D01*
X94615000Y-112395000D02*
X92075000Y-112395000D01*
X105405000Y-92752500D02*
X105405000Y-90212500D01*
X91440000Y-148590000D02*
X91325700Y-148704300D01*
X91325700Y-122034300D02*
X91325700Y-148704300D01*
X104770000Y-41265000D02*
X105395000Y-40640000D01*
X136520000Y-52065000D02*
X134615000Y-50160000D01*
X103500000Y-69257500D02*
X103500000Y-69892500D01*
X91325700Y-148704300D02*
X91325700Y-187960000D01*
X126995000Y-40655000D02*
X126985000Y-40645000D01*
X145415000Y-109855000D02*
X142875000Y-112395000D01*
X103500000Y-69892500D02*
X105410000Y-69892500D01*
X142240000Y-60960000D02*
X143510000Y-60960000D01*
X103500000Y-63542500D02*
X103500000Y-66082500D01*
X126995000Y-46990000D02*
X126995000Y-40655000D01*
X91325700Y-122034300D02*
X91440000Y-121920000D01*
X130805000Y-63542500D02*
X130805000Y-66082500D01*
X136520000Y-59060000D02*
X136520000Y-61560000D01*
X143510000Y-60960000D02*
X145415000Y-62865000D01*
X144780000Y-136525000D02*
X144780000Y-180340000D01*
X113030000Y-138430000D02*
X112395000Y-139065000D01*
X111515489Y-44225489D02*
X111740000Y-44450000D01*
X113015000Y-38100000D02*
X111712500Y-38100000D01*
X113015000Y-33020000D02*
X111162500Y-33020000D01*
X111120000Y-33062500D02*
X111120000Y-37507500D01*
X133985000Y-64135000D02*
X133985000Y-61595000D01*
X111712500Y-38100000D02*
X111120000Y-37507500D01*
X131445000Y-143891000D02*
X131445000Y-150495000D01*
X145604520Y-135890000D02*
X145415000Y-135890000D01*
X133350000Y-85132500D02*
X133350000Y-77470000D01*
X114300000Y-130810000D02*
X112395000Y-130810000D01*
X111515489Y-38468141D02*
X111515489Y-44225489D01*
X145415000Y-135890000D02*
X144780000Y-136525000D01*
X144780000Y-187845700D02*
X144665700Y-187960000D01*
X129654300Y-175374300D02*
X129540000Y-175260000D01*
X129540000Y-152400000D02*
X131445000Y-150495000D01*
X113015000Y-22860000D02*
X111162500Y-22860000D01*
X145604520Y-114300000D02*
X145604520Y-135890000D01*
X135250000Y-75570000D02*
X135250000Y-65400000D01*
X114300000Y-138430000D02*
X113030000Y-138430000D01*
X135250000Y-65400000D02*
X133985000Y-64135000D01*
X112395000Y-130810000D02*
X112395000Y-135890000D01*
X112435000Y-146090000D02*
X112395000Y-146050000D01*
X113015000Y-38100000D02*
X111883630Y-38100000D01*
X111162500Y-22860000D02*
X111120000Y-22902500D01*
X112395000Y-150495000D02*
X112395000Y-146050000D01*
X144780000Y-180340000D02*
X144780000Y-187845700D01*
X111883630Y-38100000D02*
X111515489Y-38468141D01*
X111120000Y-22902500D02*
X111120000Y-33062500D01*
X112395000Y-139065000D02*
X112395000Y-146050000D01*
X112395000Y-135890000D02*
X112395000Y-139065000D01*
X114300000Y-146090000D02*
X112435000Y-146090000D01*
X129654300Y-180454300D02*
X129654300Y-175374300D01*
X114300000Y-152400000D02*
X112395000Y-150495000D01*
X114300000Y-119400000D02*
X112395000Y-121305000D01*
X114300000Y-128270000D02*
X112395000Y-128270000D01*
X133350000Y-77470000D02*
X135250000Y-75570000D01*
X114300000Y-135890000D02*
X112395000Y-135890000D01*
X112395000Y-128270000D02*
X112395000Y-130810000D01*
X112395000Y-121305000D02*
X112395000Y-128270000D01*
X111162500Y-33020000D02*
X111120000Y-33062500D01*
D18*
X121920000Y-76200000D02*
X123190000Y-74930000D01*
X137918849Y-126235409D02*
X137918849Y-88141151D01*
X133985000Y-154305000D02*
X134530489Y-153759511D01*
X133985000Y-156845000D02*
X133985000Y-154305000D01*
X137918849Y-88141151D02*
X142240000Y-83820000D01*
X139585700Y-181495700D02*
X139585700Y-187960000D01*
X134805480Y-157665480D02*
X134805480Y-176715480D01*
X134198842Y-129955417D02*
X137918849Y-126235409D01*
X134805480Y-176715480D02*
X139585700Y-181495700D01*
X133985000Y-156845000D02*
X134805480Y-157665480D01*
X123190000Y-74930000D02*
X123190000Y-69892500D01*
X134198842Y-136946158D02*
X134198842Y-129955417D01*
X134530489Y-153759511D02*
X134530489Y-137277805D01*
X134530489Y-137277805D02*
X134198842Y-136946158D01*
X121920000Y-78740000D02*
X121920000Y-76200000D01*
X134648362Y-136558387D02*
X134648362Y-130141614D01*
X134355960Y-159120960D02*
X134355960Y-178805960D01*
X125725000Y-101605000D02*
X127000000Y-100330000D01*
X132715000Y-157480000D02*
X132715000Y-155575000D01*
X132715000Y-155575000D02*
X133350000Y-154940000D01*
X134355960Y-178805960D02*
X137045700Y-181495700D01*
X138430000Y-140340026D02*
X134648362Y-136558387D01*
X138368369Y-126421607D02*
X138368369Y-90231631D01*
X138368369Y-90231631D02*
X142240000Y-86360000D01*
X125725000Y-107992500D02*
X125725000Y-101605000D01*
X138430000Y-153670000D02*
X138430000Y-140340026D01*
X133350000Y-154940000D02*
X133350000Y-153670000D01*
X134648362Y-130141614D02*
X138368369Y-126421607D01*
X137045700Y-181495700D02*
X137045700Y-187960000D01*
X132715000Y-157480000D02*
X134355960Y-159120960D01*
X127000000Y-100330000D02*
X127000000Y-88900000D01*
X137469329Y-126049211D02*
X137469329Y-86050671D01*
X133921495Y-152073173D02*
X133921495Y-137567851D01*
X132080000Y-158750000D02*
X133906440Y-160576440D01*
X133906440Y-160576440D02*
X133906440Y-180896440D01*
X133921495Y-137567851D02*
X133749322Y-137395678D01*
X137469329Y-86050671D02*
X142240000Y-81280000D01*
X134505700Y-181495700D02*
X134505700Y-187960000D01*
X132080000Y-158750000D02*
X131990489Y-158660489D01*
X125730000Y-74930000D02*
X124460000Y-76200000D01*
X133906440Y-180896440D02*
X134505700Y-181495700D01*
X133749322Y-129769219D02*
X137469329Y-126049211D01*
X125730000Y-69892500D02*
X125730000Y-74930000D01*
X133749322Y-137395678D02*
X133749322Y-129769219D01*
X131990489Y-154004179D02*
X133921495Y-152073173D01*
X131990489Y-158660489D02*
X131990489Y-154004179D01*
X124460000Y-77470000D02*
X124460000Y-76200000D01*
X138817889Y-92322111D02*
X138817889Y-126607805D01*
X141436929Y-161759080D02*
X141436929Y-163998071D01*
X128265000Y-101605000D02*
X129540000Y-100330000D01*
X140537889Y-160860040D02*
X141436929Y-161759080D01*
X141436929Y-163998071D02*
X140970000Y-164465000D01*
X132080000Y-160020000D02*
X132714282Y-160020000D01*
X129540000Y-100330000D02*
X129540000Y-90170000D01*
X135097880Y-136372188D02*
X140537889Y-141812197D01*
X128265000Y-107992500D02*
X128265000Y-101605000D01*
X133456920Y-180412102D02*
X132169511Y-181699511D01*
X133456920Y-160762638D02*
X133456920Y-180412102D01*
X132169511Y-187756189D02*
X131965700Y-187960000D01*
X140537889Y-141812197D02*
X140537889Y-157682889D01*
X132714282Y-160020000D02*
X133456920Y-160762638D01*
X138817889Y-126607805D02*
X135097881Y-130327815D01*
X140537889Y-157682889D02*
X140537889Y-160860040D01*
X142240000Y-88900000D02*
X138817889Y-92322111D01*
X135097881Y-130327815D02*
X135097880Y-136372188D01*
X132169511Y-181699511D02*
X132169511Y-187756189D01*
X129425700Y-181848948D02*
X129425700Y-187960000D01*
X131355489Y-154003461D02*
X133471975Y-151886975D01*
X131445000Y-179829647D02*
X129425700Y-181848948D01*
X137019809Y-83960191D02*
X142240000Y-78740000D01*
X133471975Y-151886975D02*
X133471975Y-137916975D01*
X137019809Y-125863013D02*
X137019809Y-83960191D01*
X131445000Y-168910000D02*
X131445000Y-179829647D01*
X128270000Y-74930000D02*
X127000000Y-76200000D01*
X128270000Y-69892500D02*
X128270000Y-74930000D01*
X131355489Y-168820489D02*
X131355489Y-154003461D01*
X133299802Y-137744802D02*
X133299802Y-129583021D01*
X131445000Y-168910000D02*
X131355489Y-168820489D01*
X133471975Y-137916975D02*
X133299802Y-137744802D01*
X133299802Y-129583021D02*
X137019809Y-125863013D01*
X141886449Y-161572884D02*
X140987409Y-160673843D01*
X139267409Y-94412591D02*
X142240000Y-91440000D01*
X126885700Y-170294300D02*
X126885700Y-187960000D01*
X140987409Y-141625999D02*
X135547400Y-136185990D01*
X135547401Y-130514012D02*
X139267409Y-126794002D01*
X130805000Y-101605000D02*
X132080000Y-100330000D01*
X141886449Y-171096449D02*
X141886449Y-161572884D01*
X139267409Y-126794002D02*
X139267409Y-94412591D01*
X132080000Y-100330000D02*
X132080000Y-91440000D01*
X129540000Y-167640000D02*
X126885700Y-170294300D01*
X142240000Y-171450000D02*
X141886449Y-171096449D01*
X135547400Y-136185990D02*
X135547401Y-130514012D01*
X140987409Y-160673843D02*
X140987409Y-141625999D01*
X130805000Y-107992500D02*
X130805000Y-101605000D01*
X130810000Y-69892500D02*
X130810000Y-74930000D01*
X120650000Y-168910000D02*
X120650000Y-141605000D01*
X124345700Y-172605700D02*
X121920000Y-170180000D01*
X136570289Y-81869711D02*
X136570289Y-125676815D01*
X124345700Y-187960000D02*
X124345700Y-172605700D01*
X132850282Y-129396823D02*
X132850282Y-141469718D01*
X132850282Y-141469718D02*
X132715000Y-141605000D01*
X121920000Y-170180000D02*
X120650000Y-168910000D01*
X136570289Y-125676815D02*
X132850282Y-129396823D01*
X142240000Y-76200000D02*
X136570289Y-81869711D01*
X142335969Y-161386687D02*
X141436929Y-160487646D01*
X143510000Y-171204614D02*
X142335969Y-170030583D01*
X135996920Y-135999792D02*
X135996920Y-130700211D01*
X121805700Y-181495700D02*
X120015000Y-179705000D01*
X142335969Y-170030583D02*
X142335969Y-161386687D01*
X135996920Y-130700211D02*
X139716929Y-126980199D01*
X120015000Y-179705000D02*
X120015000Y-169545000D01*
X143510000Y-177165000D02*
X143510000Y-171204614D01*
X141436929Y-141439801D02*
X135996920Y-135999792D01*
X127635000Y-176530000D02*
X127635000Y-172085000D01*
X141436929Y-160487646D02*
X141436929Y-141439801D01*
X128270000Y-177165000D02*
X127635000Y-176530000D01*
X121805700Y-187960000D02*
X121805700Y-181495700D01*
X127635000Y-172085000D02*
X129540000Y-170180000D01*
X139716929Y-126980199D02*
X139716929Y-96503071D01*
X139716929Y-96503071D02*
X142240000Y-93980000D01*
X136120769Y-79779231D02*
X136120769Y-125490617D01*
X132400762Y-139379238D02*
X131445000Y-140335000D01*
X119265700Y-187960000D02*
X119265700Y-171335700D01*
X119925489Y-141059511D02*
X119925489Y-168364511D01*
X132400762Y-129210626D02*
X132400762Y-139379238D01*
X120650000Y-140335000D02*
X119925489Y-141059511D01*
X118745000Y-170815000D02*
X118745000Y-169545000D01*
X142240000Y-73660000D02*
X136120769Y-79779231D01*
X119925489Y-168364511D02*
X118745000Y-169545000D01*
X133350000Y-69892500D02*
X133350000Y-73660000D01*
X119265700Y-171335700D02*
X118745000Y-170815000D01*
X136120769Y-125490617D02*
X132400762Y-129210626D01*
X141886449Y-160301449D02*
X141886449Y-141253603D01*
X136446440Y-130886408D02*
X140166449Y-127166397D01*
X136446440Y-135813594D02*
X136446440Y-130886408D01*
X116725700Y-167119300D02*
X117475000Y-166370000D01*
X143510000Y-170180000D02*
X142785489Y-169455489D01*
X142785489Y-169455489D02*
X142785489Y-161200489D01*
X140166449Y-127166397D02*
X140166449Y-98593551D01*
X142785489Y-161200489D02*
X141886449Y-160301449D01*
X141886449Y-141253603D02*
X136446440Y-135813594D01*
X116725700Y-187960000D02*
X116725700Y-167119300D01*
X130805000Y-92752500D02*
X130805000Y-94657500D01*
X140166449Y-98593551D02*
X142240000Y-96520000D01*
X142335969Y-159870583D02*
X143510000Y-161044614D01*
X141604282Y-140335718D02*
X142335969Y-141067405D01*
X142335969Y-141067405D02*
X142335969Y-159870583D01*
X128265000Y-92752500D02*
X128265000Y-95927500D01*
X143510000Y-161044614D02*
X143510000Y-167640000D01*
X140615969Y-100684031D02*
X140615969Y-127352595D01*
X117475000Y-163830000D02*
X116205000Y-165100000D01*
X136895960Y-131072605D02*
X136895960Y-135627396D01*
X116205000Y-165100000D02*
X116205000Y-179070000D01*
X140615969Y-127352595D02*
X136895960Y-131072605D01*
X142240000Y-99060000D02*
X140615969Y-100684031D01*
X116205000Y-179070000D02*
X114185700Y-181089300D01*
X136895960Y-135627396D02*
X141604282Y-140335718D01*
X114185700Y-181089300D02*
X114185700Y-187960000D01*
X131951242Y-129024429D02*
X131951242Y-137923758D01*
X130810000Y-76200000D02*
X132080000Y-74930000D01*
X115570000Y-177800000D02*
X111645700Y-181724300D01*
X119380000Y-140335000D02*
X119380000Y-160655000D01*
X114300000Y-167640000D02*
X115570000Y-167640000D01*
X135671249Y-125304419D02*
X131951242Y-129024429D01*
X140969641Y-72390359D02*
X140970000Y-72390718D01*
X120650000Y-139065000D02*
X119380000Y-140335000D01*
X111645700Y-181724300D02*
X111645700Y-187960000D01*
X132080000Y-74930000D02*
X132080000Y-71120000D01*
X140970000Y-72390718D02*
X140970000Y-74294282D01*
X119380000Y-160655000D02*
X115570000Y-164465000D01*
X135671249Y-79593034D02*
X135671249Y-125304419D01*
X142240000Y-71120000D02*
X140969641Y-72390359D01*
X130810000Y-85132500D02*
X130810000Y-76200000D01*
X140970000Y-74294282D02*
X135671249Y-79593034D01*
X131951242Y-137923758D02*
X130810000Y-139065000D01*
X115570000Y-164465000D02*
X115570000Y-167640000D01*
X115570000Y-167640000D02*
X115570000Y-177800000D01*
X137345480Y-131258803D02*
X137345480Y-135441198D01*
X141065489Y-102774511D02*
X141065489Y-127538793D01*
X142785489Y-140881207D02*
X142785489Y-159295489D01*
X142785489Y-159295489D02*
X143510000Y-160020000D01*
X141065489Y-127538793D02*
X137345480Y-131258803D01*
X137345480Y-135441198D02*
X142785489Y-140881207D01*
X111125000Y-179705000D02*
X111125000Y-173990000D01*
X142240000Y-101600000D02*
X141065489Y-102774511D01*
X125725000Y-92752500D02*
X125725000Y-97197500D01*
X109105700Y-187960000D02*
X109105700Y-181724300D01*
X109105700Y-181724300D02*
X111125000Y-179705000D01*
X118745000Y-139700000D02*
X118745000Y-158115000D01*
X106565700Y-181724300D02*
X109855000Y-178435000D01*
X106565700Y-187960000D02*
X106565700Y-181724300D01*
X118745000Y-158115000D02*
X116840000Y-160020000D01*
X142240000Y-68580000D02*
X140520121Y-70299879D01*
X135221729Y-79406837D02*
X135221729Y-125118221D01*
X135221729Y-125118221D02*
X131501722Y-128838232D01*
X140520121Y-70299879D02*
X140520121Y-73659641D01*
X131501722Y-128838232D02*
X131501722Y-136468278D01*
X120650000Y-137795000D02*
X118745000Y-139700000D01*
X109855000Y-178435000D02*
X109855000Y-175895000D01*
X140520480Y-74108084D02*
X135221729Y-79406837D01*
X131501722Y-136468278D02*
X130175000Y-137795000D01*
X116840000Y-160020000D02*
X114300000Y-160020000D01*
X140520121Y-73659641D02*
X140520480Y-73660000D01*
X129540000Y-74930000D02*
X129540000Y-68580000D01*
X128270000Y-76200000D02*
X129540000Y-74930000D01*
X128270000Y-85132500D02*
X128270000Y-76200000D01*
X140520480Y-73660000D02*
X140520480Y-74108084D01*
X108585000Y-177165000D02*
X104025700Y-181724300D01*
X127000000Y-74930000D02*
X127000000Y-67310000D01*
X142240000Y-66040000D02*
X140070601Y-68209399D01*
X104025700Y-181724300D02*
X104025700Y-187960000D01*
X118110000Y-139065000D02*
X118110000Y-155658658D01*
X118110000Y-155658658D02*
X116288658Y-157480000D01*
X134772209Y-124932024D02*
X131052202Y-128652035D01*
X131052202Y-128652035D02*
X131052202Y-135012798D01*
X131052202Y-135012798D02*
X129540000Y-136525000D01*
X116288658Y-157480000D02*
X114300000Y-157480000D01*
X125730000Y-76200000D02*
X127000000Y-74930000D01*
X140070601Y-73922245D02*
X134772209Y-79220640D01*
X134772209Y-79220640D02*
X134772209Y-124932024D01*
X125730000Y-85132500D02*
X125730000Y-76200000D01*
X108585000Y-157480000D02*
X108585000Y-177165000D01*
X120650000Y-136525000D02*
X118110000Y-139065000D01*
X140070601Y-68209399D02*
X140070601Y-73922245D01*
X143510000Y-140970000D02*
X137795000Y-135255000D01*
X143510000Y-157480000D02*
X143510000Y-140970000D01*
X101485700Y-181724300D02*
X101485700Y-187960000D01*
X141605000Y-127635000D02*
X141605000Y-112204022D01*
X137795000Y-131445000D02*
X141605000Y-127635000D01*
X137795000Y-135255000D02*
X137795000Y-131445000D01*
X141605000Y-112204022D02*
X143414511Y-110394511D01*
X123185000Y-92752500D02*
X123185000Y-98467500D01*
X107315000Y-175895000D02*
X101485700Y-181724300D01*
X143414511Y-105314511D02*
X142240000Y-104140000D01*
X107315000Y-156210000D02*
X107315000Y-175895000D01*
X143414511Y-110394511D02*
X143414511Y-105314511D01*
X98945700Y-181724300D02*
X98945700Y-187960000D01*
X104140000Y-176530000D02*
X98945700Y-181724300D01*
X104140000Y-166370000D02*
X104140000Y-176530000D01*
X105410000Y-165100000D02*
X104140000Y-166370000D01*
X96405700Y-181724300D02*
X103505000Y-174625000D01*
X105410000Y-162560000D02*
X103505000Y-164465000D01*
X103505000Y-174625000D02*
X103505000Y-164465000D01*
X96405700Y-187960000D02*
X96405700Y-181724300D01*
X102870000Y-162560000D02*
X102870000Y-172720000D01*
X105410000Y-160020000D02*
X102870000Y-162560000D01*
X93865700Y-181724300D02*
X93865700Y-187960000D01*
X102870000Y-172720000D02*
X93865700Y-181724300D01*
X114300000Y-54610000D02*
X114300000Y-54022500D01*
X113015000Y-35560000D02*
X114295000Y-36840000D01*
X114300000Y-54022500D02*
X114295000Y-54017500D01*
X114295000Y-36840000D02*
X114295000Y-54017500D01*
X120645000Y-54605000D02*
X120645000Y-63542500D01*
X120645000Y-54605000D02*
X119380000Y-53340000D01*
X119380000Y-49530000D02*
X119380000Y-29210000D01*
X120967500Y-27622500D02*
X121285000Y-27305000D01*
X120645000Y-27945000D02*
X120967500Y-27622500D01*
X128265000Y-24760000D02*
X127247500Y-23742500D01*
X119380000Y-29210000D02*
X120967500Y-27622500D01*
X127247500Y-23742500D02*
X122802500Y-23742500D01*
X116180000Y-27945000D02*
X120645000Y-27945000D01*
X122802500Y-23742500D02*
X121285000Y-25260000D01*
X128265000Y-30447500D02*
X128265000Y-24760000D01*
X128227500Y-30485000D02*
X128265000Y-30447500D01*
X121285000Y-25260000D02*
X121285000Y-27305000D01*
X119380000Y-53340000D02*
X119380000Y-49530000D01*
X126985000Y-30485000D02*
X128227500Y-30485000D01*
X116980489Y-53527989D02*
X116980489Y-52210489D01*
X114930000Y-38142500D02*
X114930000Y-48265000D01*
X116980489Y-66052989D02*
X117010000Y-66082500D01*
X114967500Y-30485000D02*
X114930000Y-30522500D01*
X114930000Y-50160000D02*
X114930000Y-48265000D01*
X116180000Y-38105000D02*
X114967500Y-38105000D01*
X114930000Y-30522500D02*
X114930000Y-35602500D01*
X114967500Y-38105000D02*
X114930000Y-38142500D01*
X116180000Y-35565000D02*
X114967500Y-35565000D01*
X117010000Y-66082500D02*
X120645000Y-66082500D01*
X116980489Y-52210489D02*
X116840000Y-52070000D01*
X116980489Y-53527989D02*
X116980489Y-66052989D01*
X114930000Y-35602500D02*
X114930000Y-38142500D01*
X114967500Y-35565000D02*
X114930000Y-35602500D01*
X116180000Y-30485000D02*
X114967500Y-30485000D01*
X116840000Y-52070000D02*
X114930000Y-50160000D01*
X115565000Y-63542500D02*
X111859022Y-63542500D01*
X107663551Y-46068551D02*
X107663551Y-25128551D01*
X111609511Y-50649511D02*
X109220000Y-48260000D01*
X109220000Y-48260000D02*
X107663551Y-46703551D01*
X111609511Y-63292989D02*
X111609511Y-50649511D01*
X107663551Y-46703551D02*
X107663551Y-46068551D01*
X107663551Y-46751051D02*
X107663551Y-46068551D01*
X111859022Y-63542500D02*
X111609511Y-63292989D01*
X107663551Y-25128551D02*
X105395000Y-22860000D01*
X107214031Y-48841531D02*
X107214031Y-29759031D01*
X115565000Y-66082500D02*
X109185000Y-66082500D01*
X109185000Y-66082500D02*
X109069511Y-65967011D01*
X109069511Y-65967011D02*
X109069511Y-50697011D01*
X107214031Y-29759031D02*
X105395000Y-27940000D01*
X109069511Y-50697011D02*
X107214031Y-48841531D01*
X106764511Y-36929511D02*
X105395000Y-35560000D01*
X106764511Y-50249511D02*
X106764511Y-36929511D01*
X106764511Y-57065489D02*
X106680000Y-57150000D01*
X106764511Y-50249511D02*
X106764511Y-57065489D01*
X113015000Y-45752500D02*
X113030000Y-45767500D01*
X113030000Y-45767500D02*
X113030000Y-57150000D01*
X113015000Y-40640000D02*
X113015000Y-45752500D01*
X135255000Y-173355000D02*
X135255000Y-152400000D01*
X137160000Y-175260000D02*
X135255000Y-173355000D01*
X107950000Y-139700000D02*
X107950000Y-153670000D01*
X106680000Y-138430000D02*
X107950000Y-139700000D01*
X107945000Y-74972500D02*
X106675000Y-76242500D01*
X107945000Y-99700000D02*
X106680000Y-100965000D01*
X134322689Y-112097689D02*
X133350000Y-111125000D01*
X106675000Y-76242500D02*
X106675000Y-87037500D01*
X107945000Y-88307500D02*
X107945000Y-92752500D01*
X107945000Y-92752500D02*
X107945000Y-99700000D01*
X106675000Y-87037500D02*
X107945000Y-88307500D01*
X134322689Y-124745827D02*
X134322689Y-112097689D01*
X127635000Y-131433516D02*
X134322689Y-124745827D01*
X127635000Y-153035000D02*
X127635000Y-131433516D01*
X107950000Y-74967500D02*
X107945000Y-74972500D01*
X107950000Y-69892500D02*
X107950000Y-74967500D01*
X129540000Y-154940000D02*
X127635000Y-153035000D01*
X106680000Y-100965000D02*
X106680000Y-111125000D01*
X129540000Y-101600000D02*
X129540000Y-113665000D01*
X138284511Y-171595489D02*
X138284511Y-165856767D01*
X139183551Y-157996449D02*
X139700000Y-157480000D01*
X129540000Y-113665000D02*
X132080000Y-116205000D01*
X102596920Y-46990000D02*
X101326920Y-48260000D01*
X137160000Y-172720000D02*
X138284511Y-171595489D01*
X139183551Y-164957727D02*
X139183551Y-157996449D01*
X101326920Y-48260000D02*
X101326920Y-91713080D01*
X102596920Y-30841920D02*
X102596920Y-46990000D01*
X101326920Y-91713080D02*
X96520000Y-96520000D01*
X138284511Y-165856767D02*
X139183551Y-164957727D01*
X110490000Y-74930000D02*
X109215000Y-76205000D01*
X110490000Y-69892500D02*
X110490000Y-74930000D01*
X109220000Y-100965000D02*
X110485000Y-99700000D01*
X127000000Y-160020000D02*
X127000000Y-131432798D01*
X109215000Y-76205000D02*
X109215000Y-87037500D01*
X110485000Y-99700000D02*
X110485000Y-92752500D01*
X133873169Y-113553169D02*
X132715000Y-112395000D01*
X109220000Y-111760000D02*
X109220000Y-100965000D01*
X129540000Y-162560000D02*
X127000000Y-160020000D01*
X109215000Y-87037500D02*
X110485000Y-88307500D01*
X110485000Y-88307500D02*
X110485000Y-92752500D01*
X133873169Y-124559629D02*
X133873169Y-113553169D01*
X127000000Y-131432798D02*
X133873169Y-124559629D01*
X137160000Y-165100000D02*
X138734031Y-163525969D01*
X105395000Y-30480000D02*
X103046440Y-32828560D01*
X101776440Y-48718560D02*
X101776440Y-93803560D01*
X103046440Y-32828560D02*
X103046440Y-47448560D01*
X127000000Y-102235000D02*
X127000000Y-112395000D01*
X103046440Y-47448560D02*
X101776440Y-48718560D01*
X127000000Y-112395000D02*
X132080000Y-117475000D01*
X138734031Y-157175969D02*
X139700000Y-156210000D01*
X101776440Y-93803560D02*
X96520000Y-99060000D01*
X138734031Y-163525969D02*
X138734031Y-157175969D01*
X118110000Y-69892500D02*
X118110000Y-74967500D01*
X129540000Y-165100000D02*
X126365000Y-161925000D01*
X116835000Y-76242500D02*
X116835000Y-87037500D01*
X133423649Y-124373431D02*
X133423649Y-114300000D01*
X118105000Y-88307500D02*
X118105000Y-92752500D01*
X126365000Y-161925000D02*
X126365000Y-131432080D01*
X116840000Y-112395000D02*
X116840000Y-100965000D01*
X118105000Y-99700000D02*
X118105000Y-92752500D01*
X126365000Y-131432080D02*
X133423649Y-124373431D01*
X133423649Y-114300000D02*
X132788649Y-113665000D01*
X116835000Y-87037500D02*
X118105000Y-88307500D01*
X116840000Y-100965000D02*
X118105000Y-99700000D01*
X132788649Y-113665000D02*
X132080000Y-113665000D01*
X118110000Y-74967500D02*
X116835000Y-76242500D01*
X124460000Y-111125000D02*
X132080000Y-118745000D01*
X102225960Y-95894040D02*
X96520000Y-101600000D01*
X137160000Y-162560000D02*
X138284511Y-161435489D01*
X138284511Y-156355489D02*
X138430000Y-156210000D01*
X103495960Y-48260000D02*
X102225960Y-49530000D01*
X105395000Y-33020000D02*
X103495960Y-34919040D01*
X138284511Y-161435489D02*
X138284511Y-156355489D01*
X103495960Y-34919040D02*
X103495960Y-48260000D01*
X102225960Y-49530000D02*
X102225960Y-95894040D01*
X124460000Y-103505000D02*
X124460000Y-111125000D01*
X102147400Y-46442600D02*
X100877400Y-47712600D01*
X100877400Y-89622600D02*
X96520000Y-93980000D01*
X140245489Y-162014511D02*
X140335000Y-161925000D01*
X130810000Y-113275386D02*
X130810000Y-113665000D01*
X101740489Y-34149511D02*
X102147400Y-34556422D01*
X138430000Y-173990000D02*
X140245489Y-172174511D01*
X132080000Y-112005386D02*
X130810000Y-113275386D01*
X130810000Y-113665000D02*
X132080000Y-114935000D01*
X100877400Y-47712600D02*
X100877400Y-89622600D01*
X140245489Y-172174511D02*
X140245489Y-162014511D01*
X132080000Y-101600000D02*
X132080000Y-112005386D01*
X102147400Y-34556422D02*
X102147400Y-46442600D01*
X121920000Y-113030000D02*
X123507500Y-114617500D01*
X102675480Y-50165000D02*
X102675480Y-97984520D01*
X121920000Y-104140000D02*
X121920000Y-113030000D01*
X123507500Y-114617500D02*
X126682500Y-114617500D01*
X103945480Y-39549520D02*
X103945480Y-48895000D01*
X102675480Y-97984520D02*
X96520000Y-104140000D01*
X105395000Y-38100000D02*
X103945480Y-39549520D01*
X126682500Y-114617500D02*
X132080000Y-120015000D01*
X103945480Y-48895000D02*
X102675480Y-50165000D01*
X123190000Y-76200000D02*
X124460000Y-74930000D01*
X123185000Y-107992500D02*
X123185000Y-101642500D01*
X124460000Y-74930000D02*
X124460000Y-71755000D01*
X111125000Y-151765000D02*
X111125000Y-120650000D01*
X124309511Y-100517989D02*
X124309511Y-87479511D01*
X123185000Y-112390000D02*
X123190000Y-112395000D01*
X115570000Y-117475000D02*
X117475000Y-115570000D01*
X114300000Y-117475000D02*
X115570000Y-117475000D01*
X124309511Y-87479511D02*
X123190000Y-86360000D01*
X123185000Y-101642500D02*
X124309511Y-100517989D01*
X123190000Y-85132500D02*
X123190000Y-76200000D01*
X123185000Y-107992500D02*
X123185000Y-112390000D01*
X111125000Y-120650000D02*
X114300000Y-117475000D01*
X123190000Y-86360000D02*
X123190000Y-85132500D01*
X114300000Y-154940000D02*
X111125000Y-151765000D01*
X113030000Y-87042500D02*
X114295000Y-88307500D01*
X113025000Y-107992500D02*
X113025000Y-116210000D01*
X113030000Y-81327500D02*
X113025000Y-81322500D01*
X123190000Y-133350000D02*
X123190000Y-122555000D01*
X114295000Y-88307500D02*
X114295000Y-99737500D01*
X113030000Y-85132500D02*
X113030000Y-87042500D01*
X125730000Y-137160000D02*
X125730000Y-135890000D01*
X113025000Y-81322500D02*
X113025000Y-77475000D01*
X113025000Y-101007500D02*
X113025000Y-107992500D01*
X125730000Y-172720000D02*
X125730000Y-137160000D01*
X114295000Y-99737500D02*
X113025000Y-101007500D01*
X125730000Y-135890000D02*
X123190000Y-133350000D01*
X113025000Y-77475000D02*
X113030000Y-77470000D01*
X113030000Y-85132500D02*
X113030000Y-81327500D01*
X121915000Y-99737500D02*
X121915000Y-87672500D01*
X120645000Y-101007500D02*
X121915000Y-99737500D01*
X110490000Y-119769614D02*
X111760000Y-118499614D01*
X121920000Y-74930000D02*
X121920000Y-73660000D01*
X120645000Y-112390000D02*
X120650000Y-112395000D01*
X121915000Y-87672500D02*
X120650000Y-86407500D01*
X120650000Y-76200000D02*
X121920000Y-74930000D01*
X120645000Y-107992500D02*
X120645000Y-101007500D01*
X111760000Y-118499614D02*
X111760000Y-114935000D01*
X110490000Y-158750000D02*
X110490000Y-119769614D01*
X114300000Y-162560000D02*
X110490000Y-158750000D01*
X120645000Y-107992500D02*
X120645000Y-112390000D01*
X120650000Y-85132500D02*
X120650000Y-76200000D01*
X120650000Y-86407500D02*
X120650000Y-85132500D01*
X110490000Y-80692500D02*
X110490000Y-78740000D01*
X121920000Y-165100000D02*
X125095000Y-161925000D01*
X125095000Y-137160000D02*
X121920000Y-133985000D01*
X110490000Y-85132500D02*
X110490000Y-87042500D01*
X111755000Y-88307500D02*
X111755000Y-99737500D01*
X110490000Y-87042500D02*
X111755000Y-88307500D01*
X125095000Y-161925000D02*
X125095000Y-137160000D01*
X110490000Y-85132500D02*
X110490000Y-80692500D01*
X121920000Y-133985000D02*
X121920000Y-122555000D01*
X111755000Y-99737500D02*
X110485000Y-101007500D01*
X110485000Y-107992500D02*
X110485000Y-118750000D01*
X110485000Y-101007500D02*
X110485000Y-107992500D01*
X119375000Y-99737500D02*
X118105000Y-101007500D01*
X109220000Y-118745000D02*
X109220000Y-114935000D01*
X118110000Y-85132500D02*
X118110000Y-83232500D01*
X109855000Y-160655000D02*
X109855000Y-119380000D01*
X114300000Y-165100000D02*
X109855000Y-160655000D01*
X118110000Y-83232500D02*
X118110000Y-76200000D01*
X118110000Y-85132500D02*
X118110000Y-87042500D01*
X118105000Y-107992500D02*
X118105000Y-112390000D01*
X118105000Y-101007500D02*
X118105000Y-107992500D01*
X118110000Y-87042500D02*
X119375000Y-88307500D01*
X119375000Y-88307500D02*
X119375000Y-99737500D01*
X118110000Y-76200000D02*
X119380000Y-74930000D01*
X109855000Y-119380000D02*
X109220000Y-118745000D01*
X107945000Y-101007500D02*
X107945000Y-107992500D01*
X120650000Y-133985000D02*
X120650000Y-122555000D01*
X107950000Y-85132500D02*
X107950000Y-87042500D01*
X109215000Y-88307500D02*
X109215000Y-99737500D01*
X121920000Y-162560000D02*
X124460000Y-160020000D01*
X124460000Y-160020000D02*
X124460000Y-137795000D01*
X109215000Y-99737500D02*
X107945000Y-101007500D01*
X107945000Y-107992500D02*
X107945000Y-119385000D01*
X107950000Y-85132500D02*
X107950000Y-80010000D01*
X124460000Y-137795000D02*
X120650000Y-133985000D01*
X107950000Y-87042500D02*
X109215000Y-88307500D01*
X115570000Y-81962500D02*
X115570000Y-76200000D01*
X115565000Y-100960000D02*
X116835000Y-99690000D01*
X109220000Y-158115000D02*
X109309511Y-158025489D01*
X115570000Y-85132500D02*
X115570000Y-81962500D01*
X114300000Y-172720000D02*
X109220000Y-167640000D01*
X109220000Y-156665978D02*
X109220000Y-121920000D01*
X116835000Y-99690000D02*
X116835000Y-88307500D01*
X109220000Y-121920000D02*
X106680000Y-119380000D01*
X115565000Y-107992500D02*
X115565000Y-112390000D01*
X106680000Y-119380000D02*
X106680000Y-113665000D01*
X115565000Y-107992500D02*
X115565000Y-100960000D01*
X115570000Y-87042500D02*
X115570000Y-85132500D01*
X109309511Y-156755489D02*
X109220000Y-156665978D01*
X116835000Y-88307500D02*
X115570000Y-87042500D01*
X109220000Y-167640000D02*
X109220000Y-158115000D01*
X109309511Y-158025489D02*
X109309511Y-156755489D01*
X106820489Y-99592011D02*
X105405000Y-101007500D01*
X105410000Y-85132500D02*
X105410000Y-87042500D01*
X123825000Y-153035000D02*
X123825000Y-138430000D01*
X105405000Y-120645000D02*
X105410000Y-120650000D01*
X105410000Y-87042500D02*
X106820489Y-88452989D01*
X105410000Y-85132500D02*
X105410000Y-81280000D01*
X106820489Y-88452989D02*
X106820489Y-99592011D01*
X119380000Y-133985000D02*
X119380000Y-122889700D01*
X121920000Y-154940000D02*
X123825000Y-153035000D01*
X105405000Y-107992500D02*
X105405000Y-120645000D01*
X123825000Y-138430000D02*
X119380000Y-133985000D01*
X105405000Y-101007500D02*
X105405000Y-107992500D01*
X97790000Y-160020000D02*
X99060000Y-160020000D01*
X107315000Y-129540000D02*
X107950000Y-128905000D01*
X107950000Y-125730000D02*
X106680000Y-125730000D01*
X106680000Y-133350000D02*
X105410000Y-132080000D01*
X105410000Y-132080000D02*
X105410000Y-130175000D01*
X99060000Y-160020000D02*
X100965000Y-158115000D01*
X100965000Y-131445000D02*
X106680000Y-125730000D01*
X106045000Y-129540000D02*
X107315000Y-129540000D01*
X107950000Y-128905000D02*
X107950000Y-125730000D01*
X100965000Y-158115000D02*
X100965000Y-131445000D01*
X106045000Y-129540000D02*
X105410000Y-130175000D01*
X101600000Y-162560000D02*
X101600000Y-133349282D01*
X101600000Y-133349282D02*
X106679282Y-128270000D01*
X99060000Y-165100000D02*
X101600000Y-162560000D01*
X97790000Y-165100000D02*
X99060000Y-165100000D01*
X106679282Y-128270000D02*
X106680000Y-128270000D01*
X102235000Y-164465000D02*
X102235000Y-140335000D01*
X97790000Y-167640000D02*
X99060000Y-167640000D01*
X102235000Y-140335000D02*
X106680000Y-135890000D01*
X99060000Y-167640000D02*
X102235000Y-164465000D01*
X97694511Y-62325489D02*
X97694511Y-35020489D01*
X96520000Y-63500000D02*
X93980000Y-66040000D01*
X97694511Y-35020489D02*
X100819511Y-31895489D01*
X98425000Y-114935000D02*
X98425000Y-144435978D01*
X100819511Y-31895489D02*
X101454511Y-31895489D01*
X93980000Y-66040000D02*
X93980000Y-110490000D01*
X93980000Y-110490000D02*
X98425000Y-114935000D01*
X98914511Y-151910489D02*
X96520000Y-154305000D01*
X98914511Y-144925489D02*
X98914511Y-151910489D01*
X97694511Y-62325489D02*
X96520000Y-63500000D01*
X96520000Y-170180000D02*
X97790000Y-170180000D01*
X96520000Y-154305000D02*
X96520000Y-170180000D01*
X98425000Y-144435978D02*
X98914511Y-144925489D01*
X115570000Y-69892500D02*
X115570000Y-74967500D01*
X114300000Y-100965000D02*
X115565000Y-99700000D01*
X114300000Y-112395000D02*
X114300000Y-100965000D01*
X106680000Y-130810000D02*
X106680718Y-130810000D01*
X108585000Y-128905718D02*
X108585000Y-125095000D01*
X115565000Y-99700000D02*
X115565000Y-92752500D01*
X114295000Y-87037500D02*
X115565000Y-88307500D01*
X108585000Y-125095000D02*
X104140000Y-120650000D01*
X104140000Y-120650000D02*
X104140000Y-111125000D01*
X115565000Y-88307500D02*
X115565000Y-92752500D01*
X114295000Y-76242500D02*
X114295000Y-87037500D01*
X115570000Y-74967500D02*
X114295000Y-76242500D01*
X106680718Y-130810000D02*
X108585000Y-128905718D01*
X136525000Y-29865000D02*
X134605000Y-27945000D01*
X136525000Y-39370000D02*
X136525000Y-29865000D01*
X123800000Y-38105000D02*
X123800000Y-40645000D01*
X121915000Y-68627500D02*
X120650000Y-69892500D01*
X120645000Y-88307500D02*
X120645000Y-92752500D01*
X119375000Y-87037500D02*
X120645000Y-88307500D01*
X120650000Y-69892500D02*
X120650000Y-74967500D01*
X121915000Y-28239700D02*
X121915000Y-68627500D01*
X125677500Y-26712500D02*
X123442200Y-26712500D01*
X120650000Y-74967500D02*
X119375000Y-76242500D01*
X123442200Y-26712500D02*
X121915000Y-28239700D01*
X126985000Y-25405000D02*
X125677500Y-26712500D01*
X119375000Y-76242500D02*
X119375000Y-87037500D01*
X113030000Y-72554500D02*
X113030000Y-74967500D01*
X128265000Y-45090000D02*
X129540000Y-43815000D01*
X111755000Y-87037500D02*
X113025000Y-88307500D01*
X113030000Y-67310000D02*
X113030000Y-69892500D01*
X128265000Y-60367500D02*
X128265000Y-46360000D01*
X129540000Y-34925000D02*
X129540000Y-43815000D01*
X111755000Y-76242500D02*
X111755000Y-87037500D01*
X128265000Y-45725000D02*
X128265000Y-45381500D01*
X124455000Y-64177500D02*
X128265000Y-60367500D01*
X113030000Y-74967500D02*
X111755000Y-76242500D01*
X128265000Y-46360000D02*
X128265000Y-45725000D01*
X113030000Y-69892500D02*
X113030000Y-72554500D01*
X113025000Y-88307500D02*
X113025000Y-92752500D01*
X124455000Y-64775000D02*
X124455000Y-64177500D01*
X128265000Y-46360000D02*
X128265000Y-45090000D01*
X134605000Y-40645000D02*
X136274614Y-40645000D01*
X137795000Y-39124614D02*
X137795000Y-27940000D01*
X136274614Y-40645000D02*
X137795000Y-39124614D01*
X137795000Y-27940000D02*
X136525000Y-26670000D01*
X125090000Y-33670000D02*
X126985000Y-35565000D01*
X125090000Y-29840000D02*
X125090000Y-33670000D01*
X126985000Y-27945000D02*
X125090000Y-29840000D01*
X117475000Y-34320000D02*
X116180000Y-33025000D01*
X117475000Y-36830000D02*
X117475000Y-34320000D01*
X127602500Y-22827500D02*
X118757500Y-22827500D01*
X126985000Y-38105000D02*
X128122500Y-38105000D01*
X129535000Y-31110000D02*
X129535000Y-24770000D01*
X128122500Y-38105000D02*
X128330000Y-37897500D01*
X127602500Y-22837500D02*
X127602500Y-22827500D01*
X128330000Y-37897500D02*
X128330000Y-32315000D01*
X118757500Y-22827500D02*
X116180000Y-25405000D01*
X129535000Y-24770000D02*
X127602500Y-22837500D01*
X128330000Y-32315000D02*
X129535000Y-31110000D01*
G04 #@! TA.AperFunction,Conductor*
G36*
X93922121Y-59456002D02*
G01*
X93968614Y-59509658D01*
X93980000Y-59562000D01*
X93980000Y-65091905D01*
X93959998Y-65160026D01*
X93943095Y-65181000D01*
X93587747Y-65536348D01*
X93579461Y-65543888D01*
X93572982Y-65548000D01*
X93567557Y-65553777D01*
X93526357Y-65597651D01*
X93523602Y-65600493D01*
X93503865Y-65620230D01*
X93501385Y-65623427D01*
X93493682Y-65632447D01*
X93463414Y-65664679D01*
X93459595Y-65671625D01*
X93459593Y-65671628D01*
X93453652Y-65682434D01*
X93442801Y-65698953D01*
X93430386Y-65714959D01*
X93427241Y-65722228D01*
X93427238Y-65722232D01*
X93412826Y-65755537D01*
X93407609Y-65766187D01*
X93386305Y-65804940D01*
X93384334Y-65812615D01*
X93384334Y-65812616D01*
X93381267Y-65824562D01*
X93374863Y-65843266D01*
X93366819Y-65861855D01*
X93365580Y-65869678D01*
X93365577Y-65869688D01*
X93359901Y-65905524D01*
X93357495Y-65917144D01*
X93346500Y-65959970D01*
X93346500Y-65980224D01*
X93344949Y-65999934D01*
X93341780Y-66019943D01*
X93342526Y-66027835D01*
X93345941Y-66063961D01*
X93346500Y-66075819D01*
X93346500Y-110411233D01*
X93345973Y-110422416D01*
X93344298Y-110429909D01*
X93344547Y-110437835D01*
X93344547Y-110437836D01*
X93346438Y-110497986D01*
X93346500Y-110501945D01*
X93346500Y-110529856D01*
X93346997Y-110533790D01*
X93346997Y-110533791D01*
X93347005Y-110533856D01*
X93347938Y-110545693D01*
X93349327Y-110589889D01*
X93354978Y-110609339D01*
X93358987Y-110628700D01*
X93361526Y-110648797D01*
X93364445Y-110656168D01*
X93364445Y-110656170D01*
X93377804Y-110689912D01*
X93381649Y-110701142D01*
X93393982Y-110743593D01*
X93398015Y-110750412D01*
X93398017Y-110750417D01*
X93404293Y-110761028D01*
X93412988Y-110778776D01*
X93420448Y-110797617D01*
X93425110Y-110804033D01*
X93425110Y-110804034D01*
X93446436Y-110833387D01*
X93452952Y-110843307D01*
X93475458Y-110881362D01*
X93489779Y-110895683D01*
X93502619Y-110910716D01*
X93514528Y-110927107D01*
X93520634Y-110932158D01*
X93548605Y-110955298D01*
X93557384Y-110963288D01*
X93943095Y-111348999D01*
X93977121Y-111411311D01*
X93980000Y-111438094D01*
X93980000Y-130528468D01*
X93959998Y-130596589D01*
X93901200Y-130645293D01*
X93588648Y-130771572D01*
X93588644Y-130771574D01*
X93585384Y-130772891D01*
X93582297Y-130774560D01*
X93582293Y-130774562D01*
X93549658Y-130792208D01*
X93270943Y-130942909D01*
X92977412Y-131146918D01*
X92974770Y-131149231D01*
X92974766Y-131149234D01*
X92727928Y-131365325D01*
X92708452Y-131382375D01*
X92467414Y-131646345D01*
X92257303Y-131935539D01*
X92080737Y-132246351D01*
X91939917Y-132574907D01*
X91836599Y-132917113D01*
X91772070Y-133268703D01*
X91747135Y-133625295D01*
X91748052Y-133647174D01*
X91762104Y-133982445D01*
X91816791Y-134335699D01*
X91910514Y-134680657D01*
X92042104Y-135013017D01*
X92209923Y-135328638D01*
X92411878Y-135623585D01*
X92645451Y-135894183D01*
X92907732Y-136137058D01*
X93195452Y-136349183D01*
X93505024Y-136527914D01*
X93637659Y-136585861D01*
X93829368Y-136669617D01*
X93829371Y-136669618D01*
X93832589Y-136671024D01*
X93891258Y-136689185D01*
X93950418Y-136728436D01*
X93978966Y-136793440D01*
X93980000Y-136809550D01*
X93980000Y-176912000D01*
X93959998Y-176980121D01*
X93906342Y-177026614D01*
X93854000Y-177038000D01*
X89534500Y-177038000D01*
X89466379Y-177017998D01*
X89419886Y-176964342D01*
X89408500Y-176912000D01*
X89408500Y-115873537D01*
X89408688Y-115866656D01*
X89900130Y-106880678D01*
X89901441Y-106868182D01*
X89901893Y-106865281D01*
X89901894Y-106865274D01*
X89902641Y-106860473D01*
X89902641Y-106838194D01*
X89902829Y-106831313D01*
X89903631Y-106816645D01*
X89903876Y-106812169D01*
X89903124Y-106803607D01*
X89902641Y-106792583D01*
X89902641Y-59562000D01*
X89922643Y-59493879D01*
X89976299Y-59447386D01*
X90028641Y-59436000D01*
X93854000Y-59436000D01*
X93922121Y-59456002D01*
G37*
G04 #@! TD.AperFunction*
M02*
