M48
; DRILL file {KiCad (6.0.4)} date Sat Dec 31 00:20:02 2022
; FORMAT={-:-/ absolute / metric / decimal}
; #@! TF.CreationDate,2022-12-31T00:20:02-05:00
; #@! TF.GenerationSoftware,Kicad,Pcbnew,(6.0.4)
; #@! TF.FileFunction,Plated,1,2,PTH
FMAT,2
METRIC
; #@! TA.AperFunction,Plated,PTH,ViaDrill
T1C0.400
; #@! TA.AperFunction,Plated,PTH,ComponentDrill
T2C0.800
; #@! TA.AperFunction,Plated,PTH,ComponentDrill
T3C1.000
%
G90
G05
T1
X94.615Y-112.395
X95.25Y-121.92
X95.25Y-148.59
X101.455Y-31.895
X101.74Y-34.15
X102.597Y-30.842
X103.505Y-60.96
X104.14Y-111.125
X105.41Y-81.28
X105.41Y-120.65
X106.68Y-57.15
X106.68Y-82.55
X106.68Y-111.125
X106.68Y-113.665
X107.315Y-156.21
X107.945Y-119.385
X107.95Y-80.01
X107.95Y-153.67
X108.585Y-157.48
X109.07Y-50.697
X109.22Y-48.26
X109.22Y-86.995
X109.22Y-111.76
X109.22Y-114.935
X109.855Y-175.895
X110.485Y-118.75
X110.49Y-78.74
X111.125Y-173.99
X111.76Y-114.935
X113.025Y-116.21
X113.03Y-57.15
X113.03Y-67.31
X113.03Y-77.47
X114.3Y-54.61
X114.3Y-112.395
X115.57Y-76.2
X115.57Y-112.395
X116.84Y-52.07
X116.84Y-112.395
X117.475Y-36.83
X117.475Y-115.57
X117.475Y-163.83
X117.475Y-166.37
X118.11Y-88.265
X118.11Y-112.395
X118.745Y-170.815
X119.38Y-53.34
X119.38Y-74.93
X119.38Y-122.89
X120.015Y-169.545
X120.65Y-112.395
X120.65Y-122.555
X120.65Y-136.525
X120.65Y-137.795
X120.65Y-139.065
X120.65Y-140.335
X120.65Y-141.605
X121.92Y-73.66
X121.92Y-78.74
X121.92Y-104.14
X121.92Y-122.555
X123.185Y-98.468
X123.19Y-112.395
X123.19Y-122.555
X124.455Y-64.775
X124.46Y-71.755
X124.46Y-77.47
X124.46Y-103.505
X125.725Y-97.197
X125.73Y-172.72
X127.0Y-67.31
X127.0Y-76.2
X127.0Y-88.9
X127.0Y-102.235
X128.265Y-95.927
X128.27Y-177.165
X129.54Y-34.925
X129.54Y-68.58
X129.54Y-90.17
X129.54Y-101.6
X129.54Y-136.525
X129.654Y-180.454
X130.175Y-137.795
X130.805Y-94.657
X130.81Y-74.93
X130.81Y-139.065
X131.445Y-140.335
X131.445Y-143.891
X131.445Y-168.91
X132.08Y-71.12
X132.08Y-91.44
X132.08Y-101.6
X132.08Y-113.665
X132.08Y-114.935
X132.08Y-116.205
X132.08Y-117.475
X132.08Y-118.745
X132.08Y-120.015
X132.08Y-158.75
X132.08Y-160.02
X132.715Y-112.395
X132.715Y-141.605
X132.715Y-157.48
X133.35Y-73.66
X133.35Y-111.125
X133.35Y-153.67
X133.985Y-156.845
X135.255Y-152.4
X136.525Y-26.67
X136.525Y-39.37
X138.43Y-153.67
X138.43Y-156.21
X138.43Y-173.99
X139.7Y-156.21
X139.7Y-157.48
X140.335Y-161.925
X140.97Y-164.465
X142.24Y-171.45
X142.875Y-112.395
X143.51Y-157.48
X143.51Y-160.02
X143.51Y-167.64
X143.51Y-170.18
X143.51Y-177.165
X144.78Y-180.34
T2
X91.397Y-38.745
X91.397Y-41.285
X91.397Y-43.825
X91.397Y-46.365
X91.397Y-48.905
X91.397Y-51.445
X91.397Y-53.985
X91.397Y-56.525
X97.79Y-157.48
X97.79Y-160.02
X97.79Y-162.56
X97.79Y-165.1
X97.79Y-167.64
X97.79Y-170.18
X97.79Y-172.72
X97.79Y-175.26
X99.017Y-38.745
X99.017Y-41.285
X99.017Y-43.825
X99.017Y-46.365
X99.017Y-48.905
X99.017Y-51.445
X99.017Y-53.985
X99.017Y-56.525
X105.395Y-22.86
X105.395Y-25.4
X105.395Y-27.94
X105.395Y-30.48
X105.395Y-33.02
X105.395Y-35.56
X105.395Y-38.1
X105.395Y-40.64
X105.405Y-63.542
X105.405Y-66.082
X105.405Y-92.752
X105.405Y-107.992
X105.41Y-69.892
X105.41Y-85.132
X105.41Y-146.07
X105.41Y-148.57
X105.41Y-157.48
X105.41Y-160.02
X105.41Y-162.56
X105.41Y-165.1
X105.41Y-167.64
X105.41Y-170.18
X105.41Y-172.72
X105.41Y-175.26
X106.68Y-125.73
X106.68Y-128.27
X106.68Y-130.81
X106.68Y-133.35
X106.68Y-135.89
X106.68Y-138.43
X106.68Y-140.97
X107.945Y-92.752
X107.945Y-107.992
X107.95Y-69.892
X107.95Y-85.132
X109.24Y-44.45
X110.485Y-92.752
X110.485Y-107.992
X110.49Y-69.892
X110.49Y-85.132
X111.74Y-44.45
X113.015Y-22.86
X113.015Y-25.4
X113.015Y-27.94
X113.015Y-30.48
X113.015Y-33.02
X113.015Y-35.56
X113.015Y-38.1
X113.015Y-40.64
X113.025Y-92.752
X113.025Y-107.992
X113.03Y-69.892
X113.03Y-85.132
X114.3Y-119.4
X114.3Y-121.9
X114.3Y-125.73
X114.3Y-128.27
X114.3Y-130.81
X114.3Y-133.35
X114.3Y-135.89
X114.3Y-138.43
X114.3Y-140.97
X114.3Y-146.09
X114.3Y-148.59
X114.3Y-152.4
X114.3Y-154.94
X114.3Y-157.48
X114.3Y-160.02
X114.3Y-162.56
X114.3Y-165.1
X114.3Y-167.64
X114.3Y-170.18
X114.3Y-172.72
X114.3Y-175.26
X115.565Y-63.542
X115.565Y-66.082
X115.565Y-92.752
X115.565Y-107.992
X115.57Y-69.892
X115.57Y-85.132
X116.18Y-25.405
X116.18Y-27.945
X116.18Y-30.485
X116.18Y-33.025
X116.18Y-35.565
X116.18Y-38.105
X116.18Y-40.645
X118.105Y-92.752
X118.105Y-107.992
X118.11Y-69.892
X118.11Y-85.132
X120.645Y-63.542
X120.645Y-66.082
X120.645Y-92.752
X120.645Y-107.992
X120.65Y-69.892
X120.65Y-85.132
X121.92Y-152.4
X121.92Y-154.94
X121.92Y-157.48
X121.92Y-160.02
X121.92Y-162.56
X121.92Y-165.1
X121.92Y-167.64
X121.92Y-170.18
X121.92Y-172.72
X121.92Y-175.26
X123.185Y-92.752
X123.185Y-107.992
X123.19Y-69.892
X123.19Y-85.132
X123.8Y-25.405
X123.8Y-27.945
X123.8Y-30.485
X123.8Y-33.025
X123.8Y-35.565
X123.8Y-38.105
X123.8Y-40.645
X125.725Y-92.752
X125.725Y-107.992
X125.73Y-69.892
X125.73Y-85.132
X126.985Y-25.405
X126.985Y-27.945
X126.985Y-30.485
X126.985Y-33.025
X126.985Y-35.565
X126.985Y-38.105
X126.985Y-40.645
X126.995Y-46.99
X126.995Y-57.15
X128.265Y-92.752
X128.265Y-107.992
X128.27Y-69.892
X128.27Y-85.132
X129.535Y-47.032
X129.535Y-57.192
X129.54Y-146.09
X129.54Y-148.59
X129.54Y-152.4
X129.54Y-154.94
X129.54Y-157.48
X129.54Y-160.02
X129.54Y-162.56
X129.54Y-165.1
X129.54Y-167.64
X129.54Y-170.18
X129.54Y-172.72
X129.54Y-175.26
X130.805Y-63.542
X130.805Y-66.082
X130.805Y-92.752
X130.805Y-107.992
X130.81Y-69.892
X130.81Y-85.132
X132.075Y-47.032
X132.075Y-57.192
X133.345Y-92.752
X133.345Y-107.992
X133.35Y-69.892
X133.35Y-85.132
X133.985Y-61.595
X134.605Y-25.405
X134.605Y-27.945
X134.605Y-30.485
X134.605Y-33.025
X134.605Y-35.565
X134.605Y-38.105
X134.605Y-40.645
X134.615Y-47.032
X134.615Y-57.192
X136.485Y-61.595
X137.16Y-152.4
X137.16Y-154.94
X137.16Y-157.48
X137.16Y-160.02
X137.16Y-162.56
X137.16Y-165.1
X137.16Y-167.64
X137.16Y-170.18
X137.16Y-172.72
X137.16Y-175.26
T3
X96.52Y-60.96
X96.52Y-63.5
X96.52Y-66.04
X96.52Y-68.58
X96.52Y-71.12
X96.52Y-73.66
X96.52Y-76.2
X96.52Y-78.74
X96.52Y-81.28
X96.52Y-83.82
X96.52Y-86.36
X96.52Y-88.9
X96.52Y-91.44
X96.52Y-93.98
X96.52Y-96.52
X96.52Y-99.06
X96.52Y-101.6
X96.52Y-104.14
X96.52Y-106.68
X96.52Y-109.22
X142.24Y-60.96
X142.24Y-63.5
X142.24Y-66.04
X142.24Y-68.58
X142.24Y-71.12
X142.24Y-73.66
X142.24Y-76.2
X142.24Y-78.74
X142.24Y-81.28
X142.24Y-83.82
X142.24Y-86.36
X142.24Y-88.9
X142.24Y-91.44
X142.24Y-93.98
X142.24Y-96.52
X142.24Y-99.06
X142.24Y-101.6
X142.24Y-104.14
X142.24Y-106.68
X142.24Y-109.22
T0
M30
