%FSLAX45Y45*%
G04 Gerber Fmt 4.5, Leading zero omitted, Abs format (unit mm)*
G04 Created by KiCad (PCBNEW (6.0.4)) date 2022-12-31 00:20:02*
%MOMM*%
%LPD*%
G01*
G04 APERTURE LIST*
%TA.AperFunction,Profile*%
%ADD10C,0.100000*%
%TD*%
%ADD11C,0.200000*%
%ADD12C,0.320000*%
G04 APERTURE END LIST*
D10*
X8939414Y-10682086D02*
X8939414Y-2476500D01*
X14709140Y-11585620D02*
X14682586Y-10682086D01*
X9763696Y-13367000D02*
G75*
G03*
X9763696Y-13367000I-268830J0D01*
G01*
X9637914Y-1778004D02*
G75*
G03*
X8939414Y-2476500I-4J-698496D01*
G01*
X14373104Y-13367000D02*
G75*
G03*
X14373104Y-13367000I-268830J0D01*
G01*
X8890000Y-11585620D02*
X8939414Y-10682086D01*
X8890000Y-18354000D02*
X8890000Y-11585620D01*
X14682586Y-2476500D02*
X14682586Y-10682086D01*
X9637914Y-1778000D02*
X13984086Y-1778000D01*
X14709140Y-18354000D02*
X14709140Y-11585620D01*
X14682590Y-2476500D02*
G75*
G03*
X13984086Y-1778000I-698500J0D01*
G01*
D11*
D12*
X9365000Y-2761000D02*
X9685000Y-3081000D01*
X9685000Y-2761000D02*
X9365000Y-3081000D01*
X13873500Y-2761000D02*
X14193500Y-3081000D01*
X14193500Y-2761000D02*
X13873500Y-3081000D01*
D11*
X9141619Y-19554476D02*
X9141619Y-19354476D01*
X9189238Y-19354476D01*
X9217810Y-19364000D01*
X9236857Y-19383048D01*
X9246381Y-19402095D01*
X9255905Y-19440190D01*
X9255905Y-19468762D01*
X9246381Y-19506857D01*
X9236857Y-19525905D01*
X9217810Y-19544952D01*
X9189238Y-19554476D01*
X9141619Y-19554476D01*
X9341619Y-19554476D02*
X9341619Y-19421143D01*
X9341619Y-19459238D02*
X9351143Y-19440190D01*
X9360667Y-19430667D01*
X9379714Y-19421143D01*
X9398762Y-19421143D01*
X9465429Y-19554476D02*
X9465429Y-19421143D01*
X9465429Y-19354476D02*
X9455905Y-19364000D01*
X9465429Y-19373524D01*
X9474952Y-19364000D01*
X9465429Y-19354476D01*
X9465429Y-19373524D01*
X9589238Y-19554476D02*
X9570190Y-19544952D01*
X9560667Y-19525905D01*
X9560667Y-19354476D01*
X9694000Y-19554476D02*
X9674952Y-19544952D01*
X9665429Y-19525905D01*
X9665429Y-19354476D01*
X9922571Y-19554476D02*
X9922571Y-19354476D01*
X9989238Y-19497333D01*
X10055905Y-19354476D01*
X10055905Y-19554476D01*
X10236857Y-19554476D02*
X10236857Y-19449714D01*
X10227333Y-19430667D01*
X10208286Y-19421143D01*
X10170190Y-19421143D01*
X10151143Y-19430667D01*
X10236857Y-19544952D02*
X10217810Y-19554476D01*
X10170190Y-19554476D01*
X10151143Y-19544952D01*
X10141619Y-19525905D01*
X10141619Y-19506857D01*
X10151143Y-19487810D01*
X10170190Y-19478286D01*
X10217810Y-19478286D01*
X10236857Y-19468762D01*
X10332095Y-19421143D02*
X10332095Y-19621143D01*
X10332095Y-19430667D02*
X10351143Y-19421143D01*
X10389238Y-19421143D01*
X10408286Y-19430667D01*
X10417810Y-19440190D01*
X10427333Y-19459238D01*
X10427333Y-19516381D01*
X10417810Y-19535429D01*
X10408286Y-19544952D01*
X10389238Y-19554476D01*
X10351143Y-19554476D01*
X10332095Y-19544952D01*
X10513048Y-19535429D02*
X10522571Y-19544952D01*
X10513048Y-19554476D01*
X10503524Y-19544952D01*
X10513048Y-19535429D01*
X10513048Y-19554476D01*
X10513048Y-19430667D02*
X10522571Y-19440190D01*
X10513048Y-19449714D01*
X10503524Y-19440190D01*
X10513048Y-19430667D01*
X10513048Y-19449714D01*
X8684000Y-19784000D02*
X8884000Y-19984000D01*
X8884000Y-19784000D02*
X8684000Y-19984000D01*
X9122571Y-19774476D02*
X9246381Y-19774476D01*
X9179714Y-19850667D01*
X9208286Y-19850667D01*
X9227333Y-19860190D01*
X9236857Y-19869714D01*
X9246381Y-19888762D01*
X9246381Y-19936381D01*
X9236857Y-19955429D01*
X9227333Y-19964952D01*
X9208286Y-19974476D01*
X9151143Y-19974476D01*
X9132095Y-19964952D01*
X9122571Y-19955429D01*
X9332095Y-19955429D02*
X9341619Y-19964952D01*
X9332095Y-19974476D01*
X9322571Y-19964952D01*
X9332095Y-19955429D01*
X9332095Y-19974476D01*
X9417810Y-19793524D02*
X9427333Y-19784000D01*
X9446381Y-19774476D01*
X9494000Y-19774476D01*
X9513048Y-19784000D01*
X9522571Y-19793524D01*
X9532095Y-19812571D01*
X9532095Y-19831619D01*
X9522571Y-19860190D01*
X9408286Y-19974476D01*
X9532095Y-19974476D01*
X9655905Y-19774476D02*
X9674952Y-19774476D01*
X9694000Y-19784000D01*
X9703524Y-19793524D01*
X9713048Y-19812571D01*
X9722571Y-19850667D01*
X9722571Y-19898286D01*
X9713048Y-19936381D01*
X9703524Y-19955429D01*
X9694000Y-19964952D01*
X9674952Y-19974476D01*
X9655905Y-19974476D01*
X9636857Y-19964952D01*
X9627333Y-19955429D01*
X9617810Y-19936381D01*
X9608286Y-19898286D01*
X9608286Y-19850667D01*
X9617810Y-19812571D01*
X9627333Y-19793524D01*
X9636857Y-19784000D01*
X9655905Y-19774476D01*
X9846381Y-19774476D02*
X9865429Y-19774476D01*
X9884476Y-19784000D01*
X9894000Y-19793524D01*
X9903524Y-19812571D01*
X9913048Y-19850667D01*
X9913048Y-19898286D01*
X9903524Y-19936381D01*
X9894000Y-19955429D01*
X9884476Y-19964952D01*
X9865429Y-19974476D01*
X9846381Y-19974476D01*
X9827333Y-19964952D01*
X9817810Y-19955429D01*
X9808286Y-19936381D01*
X9798762Y-19898286D01*
X9798762Y-19850667D01*
X9808286Y-19812571D01*
X9817810Y-19793524D01*
X9827333Y-19784000D01*
X9846381Y-19774476D01*
X9998762Y-19974476D02*
X9998762Y-19841143D01*
X9998762Y-19860190D02*
X10008286Y-19850667D01*
X10027333Y-19841143D01*
X10055905Y-19841143D01*
X10074952Y-19850667D01*
X10084476Y-19869714D01*
X10084476Y-19974476D01*
X10084476Y-19869714D02*
X10094000Y-19850667D01*
X10113048Y-19841143D01*
X10141619Y-19841143D01*
X10160667Y-19850667D01*
X10170190Y-19869714D01*
X10170190Y-19974476D01*
X10265429Y-19974476D02*
X10265429Y-19841143D01*
X10265429Y-19860190D02*
X10274952Y-19850667D01*
X10294000Y-19841143D01*
X10322571Y-19841143D01*
X10341619Y-19850667D01*
X10351143Y-19869714D01*
X10351143Y-19974476D01*
X10351143Y-19869714D02*
X10360667Y-19850667D01*
X10379714Y-19841143D01*
X10408286Y-19841143D01*
X10427333Y-19850667D01*
X10436857Y-19869714D01*
X10436857Y-19974476D01*
X10827333Y-19764952D02*
X10655905Y-20022095D01*
X11084476Y-19774476D02*
X11103524Y-19774476D01*
X11122571Y-19784000D01*
X11132095Y-19793524D01*
X11141619Y-19812571D01*
X11151143Y-19850667D01*
X11151143Y-19898286D01*
X11141619Y-19936381D01*
X11132095Y-19955429D01*
X11122571Y-19964952D01*
X11103524Y-19974476D01*
X11084476Y-19974476D01*
X11065429Y-19964952D01*
X11055905Y-19955429D01*
X11046381Y-19936381D01*
X11036857Y-19898286D01*
X11036857Y-19850667D01*
X11046381Y-19812571D01*
X11055905Y-19793524D01*
X11065429Y-19784000D01*
X11084476Y-19774476D01*
X11236857Y-19955429D02*
X11246381Y-19964952D01*
X11236857Y-19974476D01*
X11227333Y-19964952D01*
X11236857Y-19955429D01*
X11236857Y-19974476D01*
X11436857Y-19974476D02*
X11322571Y-19974476D01*
X11379714Y-19974476D02*
X11379714Y-19774476D01*
X11360667Y-19803048D01*
X11341619Y-19822095D01*
X11322571Y-19831619D01*
X11513048Y-19793524D02*
X11522571Y-19784000D01*
X11541619Y-19774476D01*
X11589238Y-19774476D01*
X11608286Y-19784000D01*
X11617809Y-19793524D01*
X11627333Y-19812571D01*
X11627333Y-19831619D01*
X11617809Y-19860190D01*
X11503524Y-19974476D01*
X11627333Y-19974476D01*
X11798762Y-19774476D02*
X11760667Y-19774476D01*
X11741619Y-19784000D01*
X11732095Y-19793524D01*
X11713048Y-19822095D01*
X11703524Y-19860190D01*
X11703524Y-19936381D01*
X11713048Y-19955429D01*
X11722571Y-19964952D01*
X11741619Y-19974476D01*
X11779714Y-19974476D01*
X11798762Y-19964952D01*
X11808286Y-19955429D01*
X11817809Y-19936381D01*
X11817809Y-19888762D01*
X11808286Y-19869714D01*
X11798762Y-19860190D01*
X11779714Y-19850667D01*
X11741619Y-19850667D01*
X11722571Y-19860190D01*
X11713048Y-19869714D01*
X11703524Y-19888762D01*
X11941619Y-19774476D02*
X11960667Y-19774476D01*
X11979714Y-19784000D01*
X11989238Y-19793524D01*
X11998762Y-19812571D01*
X12008286Y-19850667D01*
X12008286Y-19898286D01*
X11998762Y-19936381D01*
X11989238Y-19955429D01*
X11979714Y-19964952D01*
X11960667Y-19974476D01*
X11941619Y-19974476D01*
X11922571Y-19964952D01*
X11913048Y-19955429D01*
X11903524Y-19936381D01*
X11894000Y-19898286D01*
X11894000Y-19850667D01*
X11903524Y-19812571D01*
X11913048Y-19793524D01*
X11922571Y-19784000D01*
X11941619Y-19774476D01*
X12084476Y-19774476D02*
X12084476Y-19812571D01*
X12160667Y-19774476D02*
X12160667Y-19812571D01*
X12455905Y-20050667D02*
X12446381Y-20041143D01*
X12427333Y-20012571D01*
X12417809Y-19993524D01*
X12408286Y-19964952D01*
X12398762Y-19917333D01*
X12398762Y-19879238D01*
X12408286Y-19831619D01*
X12417809Y-19803048D01*
X12427333Y-19784000D01*
X12446381Y-19755429D01*
X12455905Y-19745905D01*
X12522571Y-19793524D02*
X12532095Y-19784000D01*
X12551143Y-19774476D01*
X12598762Y-19774476D01*
X12617809Y-19784000D01*
X12627333Y-19793524D01*
X12636857Y-19812571D01*
X12636857Y-19831619D01*
X12627333Y-19860190D01*
X12513048Y-19974476D01*
X12636857Y-19974476D01*
X12874952Y-19974476D02*
X12874952Y-19774476D01*
X12960667Y-19974476D02*
X12960667Y-19869714D01*
X12951143Y-19850667D01*
X12932095Y-19841143D01*
X12903524Y-19841143D01*
X12884476Y-19850667D01*
X12874952Y-19860190D01*
X13084476Y-19974476D02*
X13065428Y-19964952D01*
X13055905Y-19955429D01*
X13046381Y-19936381D01*
X13046381Y-19879238D01*
X13055905Y-19860190D01*
X13065428Y-19850667D01*
X13084476Y-19841143D01*
X13113048Y-19841143D01*
X13132095Y-19850667D01*
X13141619Y-19860190D01*
X13151143Y-19879238D01*
X13151143Y-19936381D01*
X13141619Y-19955429D01*
X13132095Y-19964952D01*
X13113048Y-19974476D01*
X13084476Y-19974476D01*
X13265428Y-19974476D02*
X13246381Y-19964952D01*
X13236857Y-19945905D01*
X13236857Y-19774476D01*
X13417809Y-19964952D02*
X13398762Y-19974476D01*
X13360667Y-19974476D01*
X13341619Y-19964952D01*
X13332095Y-19945905D01*
X13332095Y-19869714D01*
X13341619Y-19850667D01*
X13360667Y-19841143D01*
X13398762Y-19841143D01*
X13417809Y-19850667D01*
X13427333Y-19869714D01*
X13427333Y-19888762D01*
X13332095Y-19907810D01*
X13503524Y-19964952D02*
X13522571Y-19974476D01*
X13560667Y-19974476D01*
X13579714Y-19964952D01*
X13589238Y-19945905D01*
X13589238Y-19936381D01*
X13579714Y-19917333D01*
X13560667Y-19907810D01*
X13532095Y-19907810D01*
X13513048Y-19898286D01*
X13503524Y-19879238D01*
X13503524Y-19869714D01*
X13513048Y-19850667D01*
X13532095Y-19841143D01*
X13560667Y-19841143D01*
X13579714Y-19850667D01*
X13655905Y-20050667D02*
X13665428Y-20041143D01*
X13684476Y-20012571D01*
X13694000Y-19993524D01*
X13703524Y-19964952D01*
X13713048Y-19917333D01*
X13713048Y-19879238D01*
X13703524Y-19831619D01*
X13694000Y-19803048D01*
X13684476Y-19784000D01*
X13665428Y-19755429D01*
X13655905Y-19745905D01*
X14017809Y-20050667D02*
X14008286Y-20041143D01*
X13989238Y-20012571D01*
X13979714Y-19993524D01*
X13970190Y-19964952D01*
X13960667Y-19917333D01*
X13960667Y-19879238D01*
X13970190Y-19831619D01*
X13979714Y-19803048D01*
X13989238Y-19784000D01*
X14008286Y-19755429D01*
X14017809Y-19745905D01*
X14094000Y-19841143D02*
X14094000Y-19974476D01*
X14094000Y-19860190D02*
X14103524Y-19850667D01*
X14122571Y-19841143D01*
X14151143Y-19841143D01*
X14170190Y-19850667D01*
X14179714Y-19869714D01*
X14179714Y-19974476D01*
X14303524Y-19974476D02*
X14284476Y-19964952D01*
X14274952Y-19955429D01*
X14265428Y-19936381D01*
X14265428Y-19879238D01*
X14274952Y-19860190D01*
X14284476Y-19850667D01*
X14303524Y-19841143D01*
X14332095Y-19841143D01*
X14351143Y-19850667D01*
X14360667Y-19860190D01*
X14370190Y-19879238D01*
X14370190Y-19936381D01*
X14360667Y-19955429D01*
X14351143Y-19964952D01*
X14332095Y-19974476D01*
X14303524Y-19974476D01*
X14427333Y-19841143D02*
X14503524Y-19841143D01*
X14455905Y-19774476D02*
X14455905Y-19945905D01*
X14465428Y-19964952D01*
X14484476Y-19974476D01*
X14503524Y-19974476D01*
X14722571Y-19841143D02*
X14722571Y-20041143D01*
X14722571Y-19850667D02*
X14741619Y-19841143D01*
X14779714Y-19841143D01*
X14798762Y-19850667D01*
X14808286Y-19860190D01*
X14817809Y-19879238D01*
X14817809Y-19936381D01*
X14808286Y-19955429D01*
X14798762Y-19964952D01*
X14779714Y-19974476D01*
X14741619Y-19974476D01*
X14722571Y-19964952D01*
X14932095Y-19974476D02*
X14913048Y-19964952D01*
X14903524Y-19945905D01*
X14903524Y-19774476D01*
X15094000Y-19974476D02*
X15094000Y-19869714D01*
X15084476Y-19850667D01*
X15065428Y-19841143D01*
X15027333Y-19841143D01*
X15008286Y-19850667D01*
X15094000Y-19964952D02*
X15074952Y-19974476D01*
X15027333Y-19974476D01*
X15008286Y-19964952D01*
X14998762Y-19945905D01*
X14998762Y-19926857D01*
X15008286Y-19907810D01*
X15027333Y-19898286D01*
X15074952Y-19898286D01*
X15094000Y-19888762D01*
X15160667Y-19841143D02*
X15236857Y-19841143D01*
X15189238Y-19774476D02*
X15189238Y-19945905D01*
X15198762Y-19964952D01*
X15217809Y-19974476D01*
X15236857Y-19974476D01*
X15379714Y-19964952D02*
X15360667Y-19974476D01*
X15322571Y-19974476D01*
X15303524Y-19964952D01*
X15294000Y-19945905D01*
X15294000Y-19869714D01*
X15303524Y-19850667D01*
X15322571Y-19841143D01*
X15360667Y-19841143D01*
X15379714Y-19850667D01*
X15389238Y-19869714D01*
X15389238Y-19888762D01*
X15294000Y-19907810D01*
X15560667Y-19974476D02*
X15560667Y-19774476D01*
X15560667Y-19964952D02*
X15541619Y-19974476D01*
X15503524Y-19974476D01*
X15484476Y-19964952D01*
X15474952Y-19955429D01*
X15465428Y-19936381D01*
X15465428Y-19879238D01*
X15474952Y-19860190D01*
X15484476Y-19850667D01*
X15503524Y-19841143D01*
X15541619Y-19841143D01*
X15560667Y-19850667D01*
X15636857Y-20050667D02*
X15646381Y-20041143D01*
X15665428Y-20012571D01*
X15674952Y-19993524D01*
X15684476Y-19964952D01*
X15694000Y-19917333D01*
X15694000Y-19879238D01*
X15684476Y-19831619D01*
X15674952Y-19803048D01*
X15665428Y-19784000D01*
X15646381Y-19755429D01*
X15636857Y-19745905D01*
M02*
