%FSLAX45Y45*%
G04 Gerber Fmt 4.5, Leading zero omitted, Abs format (unit mm)*
G04 Created by KiCad (PCBNEW (6.0.4)) date 2022-12-31 00:20:02*
%MOMM*%
%LPD*%
G01*
G04 APERTURE LIST*
%TA.AperFunction,Profile*%
%ADD10C,0.100000*%
%TD*%
%ADD11C,0.200000*%
%ADD12C,0.040000*%
%ADD13C,0.080000*%
%ADD14C,0.100000*%
G04 APERTURE END LIST*
D10*
X8939414Y-10682086D02*
X8939414Y-2476500D01*
X14709140Y-11585620D02*
X14682586Y-10682086D01*
X9763696Y-13367000D02*
G75*
G03*
X9763696Y-13367000I-268830J0D01*
G01*
X9637914Y-1778004D02*
G75*
G03*
X8939414Y-2476500I-4J-698496D01*
G01*
X14373104Y-13367000D02*
G75*
G03*
X14373104Y-13367000I-268830J0D01*
G01*
X8890000Y-11585620D02*
X8939414Y-10682086D01*
X8890000Y-18354000D02*
X8890000Y-11585620D01*
X14682586Y-2476500D02*
X14682586Y-10682086D01*
X9637914Y-1778000D02*
X13984086Y-1778000D01*
X14709140Y-18354000D02*
X14709140Y-11585620D01*
X14682590Y-2476500D02*
G75*
G03*
X13984086Y-1778000I-698500J0D01*
G01*
D11*
D12*
X9441500Y-11219500D02*
X9481500Y-11259500D01*
X9481500Y-11219500D02*
X9441500Y-11259500D01*
X9505000Y-12172000D02*
X9545000Y-12212000D01*
X9545000Y-12172000D02*
X9505000Y-12212000D01*
X9505000Y-14839000D02*
X9545000Y-14879000D01*
X9545000Y-14839000D02*
X9505000Y-14879000D01*
X10125451Y-3169549D02*
X10165451Y-3209549D01*
X10165451Y-3169549D02*
X10125451Y-3209549D01*
X10154049Y-3394951D02*
X10194049Y-3434951D01*
X10194049Y-3394951D02*
X10154049Y-3434951D01*
X10239692Y-3064192D02*
X10279692Y-3104192D01*
X10279692Y-3064192D02*
X10239692Y-3104192D01*
X10330500Y-6076000D02*
X10370500Y-6116000D01*
X10370500Y-6076000D02*
X10330500Y-6116000D01*
X10394000Y-11092500D02*
X10434000Y-11132500D01*
X10434000Y-11092500D02*
X10394000Y-11132500D01*
X10521000Y-8108000D02*
X10561000Y-8148000D01*
X10561000Y-8108000D02*
X10521000Y-8148000D01*
X10521000Y-12045000D02*
X10561000Y-12085000D01*
X10561000Y-12045000D02*
X10521000Y-12085000D01*
X10648000Y-5695000D02*
X10688000Y-5735000D01*
X10688000Y-5695000D02*
X10648000Y-5735000D01*
X10648000Y-8235000D02*
X10688000Y-8275000D01*
X10688000Y-8235000D02*
X10648000Y-8275000D01*
X10648000Y-11092500D02*
X10688000Y-11132500D01*
X10688000Y-11092500D02*
X10648000Y-11132500D01*
X10648000Y-11346500D02*
X10688000Y-11386500D01*
X10688000Y-11346500D02*
X10648000Y-11386500D01*
X10711500Y-15601000D02*
X10751500Y-15641000D01*
X10751500Y-15601000D02*
X10711500Y-15641000D01*
X10774500Y-11918500D02*
X10814500Y-11958500D01*
X10814500Y-11918500D02*
X10774500Y-11958500D01*
X10775000Y-7981000D02*
X10815000Y-8021000D01*
X10815000Y-7981000D02*
X10775000Y-8021000D01*
X10775000Y-15347000D02*
X10815000Y-15387000D01*
X10815000Y-15347000D02*
X10775000Y-15387000D01*
X10838500Y-15728000D02*
X10878500Y-15768000D01*
X10878500Y-15728000D02*
X10838500Y-15768000D01*
X10886951Y-5049701D02*
X10926951Y-5089701D01*
X10926951Y-5049701D02*
X10886951Y-5089701D01*
X10902000Y-4806000D02*
X10942000Y-4846000D01*
X10942000Y-4806000D02*
X10902000Y-4846000D01*
X10902000Y-8679500D02*
X10942000Y-8719500D01*
X10942000Y-8679500D02*
X10902000Y-8719500D01*
X10902000Y-11156000D02*
X10942000Y-11196000D01*
X10942000Y-11156000D02*
X10902000Y-11196000D01*
X10902000Y-11473500D02*
X10942000Y-11513500D01*
X10942000Y-11473500D02*
X10902000Y-11513500D01*
X10965500Y-17569500D02*
X11005500Y-17609500D01*
X11005500Y-17569500D02*
X10965500Y-17609500D01*
X11028500Y-11855000D02*
X11068500Y-11895000D01*
X11068500Y-11855000D02*
X11028500Y-11895000D01*
X11029000Y-7854000D02*
X11069000Y-7894000D01*
X11069000Y-7854000D02*
X11029000Y-7894000D01*
X11092500Y-17379000D02*
X11132500Y-17419000D01*
X11132500Y-17379000D02*
X11092500Y-17419000D01*
X11156000Y-11473500D02*
X11196000Y-11513500D01*
X11196000Y-11473500D02*
X11156000Y-11513500D01*
X11282500Y-11601000D02*
X11322500Y-11641000D01*
X11322500Y-11601000D02*
X11282500Y-11641000D01*
X11283000Y-5695000D02*
X11323000Y-5735000D01*
X11323000Y-5695000D02*
X11283000Y-5735000D01*
X11283000Y-6711000D02*
X11323000Y-6751000D01*
X11323000Y-6711000D02*
X11283000Y-6751000D01*
X11283000Y-7727000D02*
X11323000Y-7767000D01*
X11323000Y-7727000D02*
X11283000Y-7767000D01*
X11410000Y-5441000D02*
X11450000Y-5481000D01*
X11450000Y-5441000D02*
X11410000Y-5481000D01*
X11410000Y-11219500D02*
X11450000Y-11259500D01*
X11450000Y-11219500D02*
X11410000Y-11259500D01*
X11537000Y-7600000D02*
X11577000Y-7640000D01*
X11577000Y-7600000D02*
X11537000Y-7640000D01*
X11537000Y-11219500D02*
X11577000Y-11259500D01*
X11577000Y-11219500D02*
X11537000Y-11259500D01*
X11664000Y-5187000D02*
X11704000Y-5227000D01*
X11704000Y-5187000D02*
X11664000Y-5227000D01*
X11664000Y-11219500D02*
X11704000Y-11259500D01*
X11704000Y-11219500D02*
X11664000Y-11259500D01*
X11727500Y-3663000D02*
X11767500Y-3703000D01*
X11767500Y-3663000D02*
X11727500Y-3703000D01*
X11727500Y-11537000D02*
X11767500Y-11577000D01*
X11767500Y-11537000D02*
X11727500Y-11577000D01*
X11727500Y-16363000D02*
X11767500Y-16403000D01*
X11767500Y-16363000D02*
X11727500Y-16403000D01*
X11727500Y-16617000D02*
X11767500Y-16657000D01*
X11767500Y-16617000D02*
X11727500Y-16657000D01*
X11791000Y-8806500D02*
X11831000Y-8846500D01*
X11831000Y-8806500D02*
X11791000Y-8846500D01*
X11791000Y-11219500D02*
X11831000Y-11259500D01*
X11831000Y-11219500D02*
X11791000Y-11259500D01*
X11854500Y-17061500D02*
X11894500Y-17101500D01*
X11894500Y-17061500D02*
X11854500Y-17101500D01*
X11918000Y-5314000D02*
X11958000Y-5354000D01*
X11958000Y-5314000D02*
X11918000Y-5354000D01*
X11918000Y-7473000D02*
X11958000Y-7513000D01*
X11958000Y-7473000D02*
X11918000Y-7513000D01*
X11918000Y-12268970D02*
X11958000Y-12308970D01*
X11958000Y-12268970D02*
X11918000Y-12308970D01*
X11981500Y-16934500D02*
X12021500Y-16974500D01*
X12021500Y-16934500D02*
X11981500Y-16974500D01*
X12045000Y-11219500D02*
X12085000Y-11259500D01*
X12085000Y-11219500D02*
X12045000Y-11259500D01*
X12045000Y-12235500D02*
X12085000Y-12275500D01*
X12085000Y-12235500D02*
X12045000Y-12275500D01*
X12045000Y-13632500D02*
X12085000Y-13672500D01*
X12085000Y-13632500D02*
X12045000Y-13672500D01*
X12045000Y-13759500D02*
X12085000Y-13799500D01*
X12085000Y-13759500D02*
X12045000Y-13799500D01*
X12045000Y-13886500D02*
X12085000Y-13926500D01*
X12085000Y-13886500D02*
X12045000Y-13926500D01*
X12045000Y-14013500D02*
X12085000Y-14053500D01*
X12085000Y-14013500D02*
X12045000Y-14053500D01*
X12045000Y-14140500D02*
X12085000Y-14180500D01*
X12085000Y-14140500D02*
X12045000Y-14180500D01*
X12172000Y-7346000D02*
X12212000Y-7386000D01*
X12212000Y-7346000D02*
X12172000Y-7386000D01*
X12172000Y-7854000D02*
X12212000Y-7894000D01*
X12212000Y-7854000D02*
X12172000Y-7894000D01*
X12172000Y-10394000D02*
X12212000Y-10434000D01*
X12212000Y-10394000D02*
X12172000Y-10434000D01*
X12172000Y-12235500D02*
X12212000Y-12275500D01*
X12212000Y-12235500D02*
X12172000Y-12275500D01*
X12298500Y-9826750D02*
X12338500Y-9866750D01*
X12338500Y-9826750D02*
X12298500Y-9866750D01*
X12299000Y-11219500D02*
X12339000Y-11259500D01*
X12339000Y-11219500D02*
X12299000Y-11259500D01*
X12299000Y-12235500D02*
X12339000Y-12275500D01*
X12339000Y-12235500D02*
X12299000Y-12275500D01*
X12425500Y-6457500D02*
X12465500Y-6497500D01*
X12465500Y-6457500D02*
X12425500Y-6497500D01*
X12426000Y-7155500D02*
X12466000Y-7195500D01*
X12466000Y-7155500D02*
X12426000Y-7195500D01*
X12426000Y-7727000D02*
X12466000Y-7767000D01*
X12466000Y-7727000D02*
X12426000Y-7767000D01*
X12426000Y-10330500D02*
X12466000Y-10370500D01*
X12466000Y-10330500D02*
X12426000Y-10370500D01*
X12552500Y-9699750D02*
X12592500Y-9739750D01*
X12592500Y-9699750D02*
X12552500Y-9739750D01*
X12553000Y-17252000D02*
X12593000Y-17292000D01*
X12593000Y-17252000D02*
X12553000Y-17292000D01*
X12680000Y-6711000D02*
X12720000Y-6751000D01*
X12720000Y-6711000D02*
X12680000Y-6751000D01*
X12680000Y-7600000D02*
X12720000Y-7640000D01*
X12720000Y-7600000D02*
X12680000Y-7640000D01*
X12680000Y-8870000D02*
X12720000Y-8910000D01*
X12720000Y-8870000D02*
X12680000Y-8910000D01*
X12680000Y-10203500D02*
X12720000Y-10243500D01*
X12720000Y-10203500D02*
X12680000Y-10243500D01*
X12806500Y-9572750D02*
X12846500Y-9612750D01*
X12846500Y-9572750D02*
X12806500Y-9612750D01*
X12807000Y-17696500D02*
X12847000Y-17736500D01*
X12847000Y-17696500D02*
X12807000Y-17736500D01*
X12934000Y-3472500D02*
X12974000Y-3512500D01*
X12974000Y-3472500D02*
X12934000Y-3512500D01*
X12934000Y-6838000D02*
X12974000Y-6878000D01*
X12974000Y-6838000D02*
X12934000Y-6878000D01*
X12934000Y-8997000D02*
X12974000Y-9037000D01*
X12974000Y-8997000D02*
X12934000Y-9037000D01*
X12934000Y-10140000D02*
X12974000Y-10180000D01*
X12974000Y-10140000D02*
X12934000Y-10180000D01*
X12934000Y-13632500D02*
X12974000Y-13672500D01*
X12974000Y-13632500D02*
X12934000Y-13672500D01*
X12945430Y-18025430D02*
X12985430Y-18065430D01*
X12985430Y-18025430D02*
X12945430Y-18065430D01*
X12997500Y-13759500D02*
X13037500Y-13799500D01*
X13037500Y-13759500D02*
X12997500Y-13799500D01*
X13060500Y-9445750D02*
X13100500Y-9485750D01*
X13100500Y-9445750D02*
X13060500Y-9485750D01*
X13061000Y-7473000D02*
X13101000Y-7513000D01*
X13101000Y-7473000D02*
X13061000Y-7513000D01*
X13061000Y-13886500D02*
X13101000Y-13926500D01*
X13101000Y-13886500D02*
X13061000Y-13926500D01*
X13124500Y-14013500D02*
X13164500Y-14053500D01*
X13164500Y-14013500D02*
X13124500Y-14053500D01*
X13124500Y-14369100D02*
X13164500Y-14409100D01*
X13164500Y-14369100D02*
X13124500Y-14409100D01*
X13124500Y-16871000D02*
X13164500Y-16911000D01*
X13164500Y-16871000D02*
X13124500Y-16911000D01*
X13188000Y-7092000D02*
X13228000Y-7132000D01*
X13228000Y-7092000D02*
X13188000Y-7132000D01*
X13188000Y-9124000D02*
X13228000Y-9164000D01*
X13228000Y-9124000D02*
X13188000Y-9164000D01*
X13188000Y-10140000D02*
X13228000Y-10180000D01*
X13228000Y-10140000D02*
X13188000Y-10180000D01*
X13188000Y-11346500D02*
X13228000Y-11386500D01*
X13228000Y-11346500D02*
X13188000Y-11386500D01*
X13188000Y-11473500D02*
X13228000Y-11513500D01*
X13228000Y-11473500D02*
X13188000Y-11513500D01*
X13188000Y-11600500D02*
X13228000Y-11640500D01*
X13228000Y-11600500D02*
X13188000Y-11640500D01*
X13188000Y-11727500D02*
X13228000Y-11767500D01*
X13228000Y-11727500D02*
X13188000Y-11767500D01*
X13188000Y-11854500D02*
X13228000Y-11894500D01*
X13228000Y-11854500D02*
X13188000Y-11894500D01*
X13188000Y-11981500D02*
X13228000Y-12021500D01*
X13228000Y-11981500D02*
X13188000Y-12021500D01*
X13188000Y-15855000D02*
X13228000Y-15895000D01*
X13228000Y-15855000D02*
X13188000Y-15895000D01*
X13188000Y-15982000D02*
X13228000Y-16022000D01*
X13228000Y-15982000D02*
X13188000Y-16022000D01*
X13251500Y-11219500D02*
X13291500Y-11259500D01*
X13291500Y-11219500D02*
X13251500Y-11259500D01*
X13251500Y-14140500D02*
X13291500Y-14180500D01*
X13291500Y-14140500D02*
X13251500Y-14180500D01*
X13251500Y-15728000D02*
X13291500Y-15768000D01*
X13291500Y-15728000D02*
X13251500Y-15768000D01*
X13315000Y-7346000D02*
X13355000Y-7386000D01*
X13355000Y-7346000D02*
X13315000Y-7386000D01*
X13315000Y-11092500D02*
X13355000Y-11132500D01*
X13355000Y-11092500D02*
X13315000Y-11132500D01*
X13315000Y-15347000D02*
X13355000Y-15387000D01*
X13355000Y-15347000D02*
X13315000Y-15387000D01*
X13378500Y-15664500D02*
X13418500Y-15704500D01*
X13418500Y-15664500D02*
X13378500Y-15704500D01*
X13505500Y-15220000D02*
X13545500Y-15260000D01*
X13545500Y-15220000D02*
X13505500Y-15260000D01*
X13632500Y-2647000D02*
X13672500Y-2687000D01*
X13672500Y-2647000D02*
X13632500Y-2687000D01*
X13632500Y-3917000D02*
X13672500Y-3957000D01*
X13672500Y-3917000D02*
X13632500Y-3957000D01*
X13823000Y-15347000D02*
X13863000Y-15387000D01*
X13863000Y-15347000D02*
X13823000Y-15387000D01*
X13823000Y-15601000D02*
X13863000Y-15641000D01*
X13863000Y-15601000D02*
X13823000Y-15641000D01*
X13823000Y-17379000D02*
X13863000Y-17419000D01*
X13863000Y-17379000D02*
X13823000Y-17419000D01*
X13950000Y-15601000D02*
X13990000Y-15641000D01*
X13990000Y-15601000D02*
X13950000Y-15641000D01*
X13950000Y-15728000D02*
X13990000Y-15768000D01*
X13990000Y-15728000D02*
X13950000Y-15768000D01*
X14013500Y-16172500D02*
X14053500Y-16212500D01*
X14053500Y-16172500D02*
X14013500Y-16212500D01*
X14077000Y-16426500D02*
X14117000Y-16466500D01*
X14117000Y-16426500D02*
X14077000Y-16466500D01*
X14204000Y-17125000D02*
X14244000Y-17165000D01*
X14244000Y-17125000D02*
X14204000Y-17165000D01*
X14267500Y-11219500D02*
X14307500Y-11259500D01*
X14307500Y-11219500D02*
X14267500Y-11259500D01*
X14331000Y-15728000D02*
X14371000Y-15768000D01*
X14371000Y-15728000D02*
X14331000Y-15768000D01*
X14331000Y-15982000D02*
X14371000Y-16022000D01*
X14371000Y-15982000D02*
X14331000Y-16022000D01*
X14331000Y-16744000D02*
X14371000Y-16784000D01*
X14371000Y-16744000D02*
X14331000Y-16784000D01*
X14331000Y-16998000D02*
X14371000Y-17038000D01*
X14371000Y-16998000D02*
X14331000Y-17038000D01*
X14331000Y-17696500D02*
X14371000Y-17736500D01*
X14371000Y-17696500D02*
X14331000Y-17736500D01*
X14458000Y-18014000D02*
X14498000Y-18054000D01*
X14498000Y-18014000D02*
X14458000Y-18054000D01*
D13*
X9179750Y-3874500D02*
G75*
G03*
X9179750Y-3874500I-40000J0D01*
G01*
X9179750Y-4128500D02*
G75*
G03*
X9179750Y-4128500I-40000J0D01*
G01*
X9179750Y-4382500D02*
G75*
G03*
X9179750Y-4382500I-40000J0D01*
G01*
X9179750Y-4636500D02*
G75*
G03*
X9179750Y-4636500I-40000J0D01*
G01*
X9179750Y-4890500D02*
G75*
G03*
X9179750Y-4890500I-40000J0D01*
G01*
X9179750Y-5144500D02*
G75*
G03*
X9179750Y-5144500I-40000J0D01*
G01*
X9179750Y-5398500D02*
G75*
G03*
X9179750Y-5398500I-40000J0D01*
G01*
X9179750Y-5652500D02*
G75*
G03*
X9179750Y-5652500I-40000J0D01*
G01*
X9819000Y-15748000D02*
G75*
G03*
X9819000Y-15748000I-40000J0D01*
G01*
X9819000Y-16002000D02*
G75*
G03*
X9819000Y-16002000I-40000J0D01*
G01*
X9819000Y-16256000D02*
G75*
G03*
X9819000Y-16256000I-40000J0D01*
G01*
X9819000Y-16510000D02*
G75*
G03*
X9819000Y-16510000I-40000J0D01*
G01*
X9819000Y-16764000D02*
G75*
G03*
X9819000Y-16764000I-40000J0D01*
G01*
X9819000Y-17018000D02*
G75*
G03*
X9819000Y-17018000I-40000J0D01*
G01*
X9819000Y-17272000D02*
G75*
G03*
X9819000Y-17272000I-40000J0D01*
G01*
X9819000Y-17526000D02*
G75*
G03*
X9819000Y-17526000I-40000J0D01*
G01*
X9941750Y-3874500D02*
G75*
G03*
X9941750Y-3874500I-40000J0D01*
G01*
X9941750Y-4128500D02*
G75*
G03*
X9941750Y-4128500I-40000J0D01*
G01*
X9941750Y-4382500D02*
G75*
G03*
X9941750Y-4382500I-40000J0D01*
G01*
X9941750Y-4636500D02*
G75*
G03*
X9941750Y-4636500I-40000J0D01*
G01*
X9941750Y-4890500D02*
G75*
G03*
X9941750Y-4890500I-40000J0D01*
G01*
X9941750Y-5144500D02*
G75*
G03*
X9941750Y-5144500I-40000J0D01*
G01*
X9941750Y-5398500D02*
G75*
G03*
X9941750Y-5398500I-40000J0D01*
G01*
X9941750Y-5652500D02*
G75*
G03*
X9941750Y-5652500I-40000J0D01*
G01*
X10579500Y-2286000D02*
G75*
G03*
X10579500Y-2286000I-40000J0D01*
G01*
X10579500Y-2540000D02*
G75*
G03*
X10579500Y-2540000I-40000J0D01*
G01*
X10579500Y-2794000D02*
G75*
G03*
X10579500Y-2794000I-40000J0D01*
G01*
X10579500Y-3048000D02*
G75*
G03*
X10579500Y-3048000I-40000J0D01*
G01*
X10579500Y-3302000D02*
G75*
G03*
X10579500Y-3302000I-40000J0D01*
G01*
X10579500Y-3556000D02*
G75*
G03*
X10579500Y-3556000I-40000J0D01*
G01*
X10579500Y-3810000D02*
G75*
G03*
X10579500Y-3810000I-40000J0D01*
G01*
X10579500Y-4064000D02*
G75*
G03*
X10579500Y-4064000I-40000J0D01*
G01*
X10580500Y-6354250D02*
G75*
G03*
X10580500Y-6354250I-40000J0D01*
G01*
X10580500Y-6608250D02*
G75*
G03*
X10580500Y-6608250I-40000J0D01*
G01*
X10580500Y-9275250D02*
G75*
G03*
X10580500Y-9275250I-40000J0D01*
G01*
X10580500Y-10799250D02*
G75*
G03*
X10580500Y-10799250I-40000J0D01*
G01*
X10581000Y-6989250D02*
G75*
G03*
X10581000Y-6989250I-40000J0D01*
G01*
X10581000Y-8513250D02*
G75*
G03*
X10581000Y-8513250I-40000J0D01*
G01*
X10581000Y-14607000D02*
G75*
G03*
X10581000Y-14607000I-40000J0D01*
G01*
X10581000Y-14857000D02*
G75*
G03*
X10581000Y-14857000I-40000J0D01*
G01*
X10581000Y-15748000D02*
G75*
G03*
X10581000Y-15748000I-40000J0D01*
G01*
X10581000Y-16002000D02*
G75*
G03*
X10581000Y-16002000I-40000J0D01*
G01*
X10581000Y-16256000D02*
G75*
G03*
X10581000Y-16256000I-40000J0D01*
G01*
X10581000Y-16510000D02*
G75*
G03*
X10581000Y-16510000I-40000J0D01*
G01*
X10581000Y-16764000D02*
G75*
G03*
X10581000Y-16764000I-40000J0D01*
G01*
X10581000Y-17018000D02*
G75*
G03*
X10581000Y-17018000I-40000J0D01*
G01*
X10581000Y-17272000D02*
G75*
G03*
X10581000Y-17272000I-40000J0D01*
G01*
X10581000Y-17526000D02*
G75*
G03*
X10581000Y-17526000I-40000J0D01*
G01*
X10708000Y-12573000D02*
G75*
G03*
X10708000Y-12573000I-40000J0D01*
G01*
X10708000Y-12827000D02*
G75*
G03*
X10708000Y-12827000I-40000J0D01*
G01*
X10708000Y-13081000D02*
G75*
G03*
X10708000Y-13081000I-40000J0D01*
G01*
X10708000Y-13335000D02*
G75*
G03*
X10708000Y-13335000I-40000J0D01*
G01*
X10708000Y-13589000D02*
G75*
G03*
X10708000Y-13589000I-40000J0D01*
G01*
X10708000Y-13843000D02*
G75*
G03*
X10708000Y-13843000I-40000J0D01*
G01*
X10708000Y-14097000D02*
G75*
G03*
X10708000Y-14097000I-40000J0D01*
G01*
X10834500Y-9275250D02*
G75*
G03*
X10834500Y-9275250I-40000J0D01*
G01*
X10834500Y-10799250D02*
G75*
G03*
X10834500Y-10799250I-40000J0D01*
G01*
X10835000Y-6989250D02*
G75*
G03*
X10835000Y-6989250I-40000J0D01*
G01*
X10835000Y-8513250D02*
G75*
G03*
X10835000Y-8513250I-40000J0D01*
G01*
X10964000Y-4445000D02*
G75*
G03*
X10964000Y-4445000I-40000J0D01*
G01*
X11088500Y-9275250D02*
G75*
G03*
X11088500Y-9275250I-40000J0D01*
G01*
X11088500Y-10799250D02*
G75*
G03*
X11088500Y-10799250I-40000J0D01*
G01*
X11089000Y-6989250D02*
G75*
G03*
X11089000Y-6989250I-40000J0D01*
G01*
X11089000Y-8513250D02*
G75*
G03*
X11089000Y-8513250I-40000J0D01*
G01*
X11214000Y-4445000D02*
G75*
G03*
X11214000Y-4445000I-40000J0D01*
G01*
X11341500Y-2286000D02*
G75*
G03*
X11341500Y-2286000I-40000J0D01*
G01*
X11341500Y-2540000D02*
G75*
G03*
X11341500Y-2540000I-40000J0D01*
G01*
X11341500Y-2794000D02*
G75*
G03*
X11341500Y-2794000I-40000J0D01*
G01*
X11341500Y-3048000D02*
G75*
G03*
X11341500Y-3048000I-40000J0D01*
G01*
X11341500Y-3302000D02*
G75*
G03*
X11341500Y-3302000I-40000J0D01*
G01*
X11341500Y-3556000D02*
G75*
G03*
X11341500Y-3556000I-40000J0D01*
G01*
X11341500Y-3810000D02*
G75*
G03*
X11341500Y-3810000I-40000J0D01*
G01*
X11341500Y-4064000D02*
G75*
G03*
X11341500Y-4064000I-40000J0D01*
G01*
X11342500Y-9275250D02*
G75*
G03*
X11342500Y-9275250I-40000J0D01*
G01*
X11342500Y-10799250D02*
G75*
G03*
X11342500Y-10799250I-40000J0D01*
G01*
X11343000Y-6989250D02*
G75*
G03*
X11343000Y-6989250I-40000J0D01*
G01*
X11343000Y-8513250D02*
G75*
G03*
X11343000Y-8513250I-40000J0D01*
G01*
X11470000Y-11940000D02*
G75*
G03*
X11470000Y-11940000I-40000J0D01*
G01*
X11470000Y-12190000D02*
G75*
G03*
X11470000Y-12190000I-40000J0D01*
G01*
X11470000Y-12573000D02*
G75*
G03*
X11470000Y-12573000I-40000J0D01*
G01*
X11470000Y-12827000D02*
G75*
G03*
X11470000Y-12827000I-40000J0D01*
G01*
X11470000Y-13081000D02*
G75*
G03*
X11470000Y-13081000I-40000J0D01*
G01*
X11470000Y-13335000D02*
G75*
G03*
X11470000Y-13335000I-40000J0D01*
G01*
X11470000Y-13589000D02*
G75*
G03*
X11470000Y-13589000I-40000J0D01*
G01*
X11470000Y-13843000D02*
G75*
G03*
X11470000Y-13843000I-40000J0D01*
G01*
X11470000Y-14097000D02*
G75*
G03*
X11470000Y-14097000I-40000J0D01*
G01*
X11470000Y-14609000D02*
G75*
G03*
X11470000Y-14609000I-40000J0D01*
G01*
X11470000Y-14859000D02*
G75*
G03*
X11470000Y-14859000I-40000J0D01*
G01*
X11470000Y-15240000D02*
G75*
G03*
X11470000Y-15240000I-40000J0D01*
G01*
X11470000Y-15494000D02*
G75*
G03*
X11470000Y-15494000I-40000J0D01*
G01*
X11470000Y-15748000D02*
G75*
G03*
X11470000Y-15748000I-40000J0D01*
G01*
X11470000Y-16002000D02*
G75*
G03*
X11470000Y-16002000I-40000J0D01*
G01*
X11470000Y-16256000D02*
G75*
G03*
X11470000Y-16256000I-40000J0D01*
G01*
X11470000Y-16510000D02*
G75*
G03*
X11470000Y-16510000I-40000J0D01*
G01*
X11470000Y-16764000D02*
G75*
G03*
X11470000Y-16764000I-40000J0D01*
G01*
X11470000Y-17018000D02*
G75*
G03*
X11470000Y-17018000I-40000J0D01*
G01*
X11470000Y-17272000D02*
G75*
G03*
X11470000Y-17272000I-40000J0D01*
G01*
X11470000Y-17526000D02*
G75*
G03*
X11470000Y-17526000I-40000J0D01*
G01*
X11596500Y-6354250D02*
G75*
G03*
X11596500Y-6354250I-40000J0D01*
G01*
X11596500Y-6608250D02*
G75*
G03*
X11596500Y-6608250I-40000J0D01*
G01*
X11596500Y-9275250D02*
G75*
G03*
X11596500Y-9275250I-40000J0D01*
G01*
X11596500Y-10799250D02*
G75*
G03*
X11596500Y-10799250I-40000J0D01*
G01*
X11597000Y-6989250D02*
G75*
G03*
X11597000Y-6989250I-40000J0D01*
G01*
X11597000Y-8513250D02*
G75*
G03*
X11597000Y-8513250I-40000J0D01*
G01*
X11658000Y-2540500D02*
G75*
G03*
X11658000Y-2540500I-40000J0D01*
G01*
X11658000Y-2794500D02*
G75*
G03*
X11658000Y-2794500I-40000J0D01*
G01*
X11658000Y-3048500D02*
G75*
G03*
X11658000Y-3048500I-40000J0D01*
G01*
X11658000Y-3302500D02*
G75*
G03*
X11658000Y-3302500I-40000J0D01*
G01*
X11658000Y-3556500D02*
G75*
G03*
X11658000Y-3556500I-40000J0D01*
G01*
X11658000Y-3810500D02*
G75*
G03*
X11658000Y-3810500I-40000J0D01*
G01*
X11658000Y-4064500D02*
G75*
G03*
X11658000Y-4064500I-40000J0D01*
G01*
X11850500Y-9275250D02*
G75*
G03*
X11850500Y-9275250I-40000J0D01*
G01*
X11850500Y-10799250D02*
G75*
G03*
X11850500Y-10799250I-40000J0D01*
G01*
X11851000Y-6989250D02*
G75*
G03*
X11851000Y-6989250I-40000J0D01*
G01*
X11851000Y-8513250D02*
G75*
G03*
X11851000Y-8513250I-40000J0D01*
G01*
X12104500Y-6354250D02*
G75*
G03*
X12104500Y-6354250I-40000J0D01*
G01*
X12104500Y-6608250D02*
G75*
G03*
X12104500Y-6608250I-40000J0D01*
G01*
X12104500Y-9275250D02*
G75*
G03*
X12104500Y-9275250I-40000J0D01*
G01*
X12104500Y-10799250D02*
G75*
G03*
X12104500Y-10799250I-40000J0D01*
G01*
X12105000Y-6989250D02*
G75*
G03*
X12105000Y-6989250I-40000J0D01*
G01*
X12105000Y-8513250D02*
G75*
G03*
X12105000Y-8513250I-40000J0D01*
G01*
X12232000Y-15240000D02*
G75*
G03*
X12232000Y-15240000I-40000J0D01*
G01*
X12232000Y-15494000D02*
G75*
G03*
X12232000Y-15494000I-40000J0D01*
G01*
X12232000Y-15748000D02*
G75*
G03*
X12232000Y-15748000I-40000J0D01*
G01*
X12232000Y-16002000D02*
G75*
G03*
X12232000Y-16002000I-40000J0D01*
G01*
X12232000Y-16256000D02*
G75*
G03*
X12232000Y-16256000I-40000J0D01*
G01*
X12232000Y-16510000D02*
G75*
G03*
X12232000Y-16510000I-40000J0D01*
G01*
X12232000Y-16764000D02*
G75*
G03*
X12232000Y-16764000I-40000J0D01*
G01*
X12232000Y-17018000D02*
G75*
G03*
X12232000Y-17018000I-40000J0D01*
G01*
X12232000Y-17272000D02*
G75*
G03*
X12232000Y-17272000I-40000J0D01*
G01*
X12232000Y-17526000D02*
G75*
G03*
X12232000Y-17526000I-40000J0D01*
G01*
X12358500Y-9275250D02*
G75*
G03*
X12358500Y-9275250I-40000J0D01*
G01*
X12358500Y-10799250D02*
G75*
G03*
X12358500Y-10799250I-40000J0D01*
G01*
X12359000Y-6989250D02*
G75*
G03*
X12359000Y-6989250I-40000J0D01*
G01*
X12359000Y-8513250D02*
G75*
G03*
X12359000Y-8513250I-40000J0D01*
G01*
X12420000Y-2540500D02*
G75*
G03*
X12420000Y-2540500I-40000J0D01*
G01*
X12420000Y-2794500D02*
G75*
G03*
X12420000Y-2794500I-40000J0D01*
G01*
X12420000Y-3048500D02*
G75*
G03*
X12420000Y-3048500I-40000J0D01*
G01*
X12420000Y-3302500D02*
G75*
G03*
X12420000Y-3302500I-40000J0D01*
G01*
X12420000Y-3556500D02*
G75*
G03*
X12420000Y-3556500I-40000J0D01*
G01*
X12420000Y-3810500D02*
G75*
G03*
X12420000Y-3810500I-40000J0D01*
G01*
X12420000Y-4064500D02*
G75*
G03*
X12420000Y-4064500I-40000J0D01*
G01*
X12612500Y-9275250D02*
G75*
G03*
X12612500Y-9275250I-40000J0D01*
G01*
X12612500Y-10799250D02*
G75*
G03*
X12612500Y-10799250I-40000J0D01*
G01*
X12613000Y-6989250D02*
G75*
G03*
X12613000Y-6989250I-40000J0D01*
G01*
X12613000Y-8513250D02*
G75*
G03*
X12613000Y-8513250I-40000J0D01*
G01*
X12738500Y-2540500D02*
G75*
G03*
X12738500Y-2540500I-40000J0D01*
G01*
X12738500Y-2794500D02*
G75*
G03*
X12738500Y-2794500I-40000J0D01*
G01*
X12738500Y-3048500D02*
G75*
G03*
X12738500Y-3048500I-40000J0D01*
G01*
X12738500Y-3302500D02*
G75*
G03*
X12738500Y-3302500I-40000J0D01*
G01*
X12738500Y-3556500D02*
G75*
G03*
X12738500Y-3556500I-40000J0D01*
G01*
X12738500Y-3810500D02*
G75*
G03*
X12738500Y-3810500I-40000J0D01*
G01*
X12738500Y-4064500D02*
G75*
G03*
X12738500Y-4064500I-40000J0D01*
G01*
X12739500Y-4699000D02*
G75*
G03*
X12739500Y-4699000I-40000J0D01*
G01*
X12739500Y-5715000D02*
G75*
G03*
X12739500Y-5715000I-40000J0D01*
G01*
X12866500Y-9275250D02*
G75*
G03*
X12866500Y-9275250I-40000J0D01*
G01*
X12866500Y-10799250D02*
G75*
G03*
X12866500Y-10799250I-40000J0D01*
G01*
X12867000Y-6989250D02*
G75*
G03*
X12867000Y-6989250I-40000J0D01*
G01*
X12867000Y-8513250D02*
G75*
G03*
X12867000Y-8513250I-40000J0D01*
G01*
X12993500Y-4703250D02*
G75*
G03*
X12993500Y-4703250I-40000J0D01*
G01*
X12993500Y-5719250D02*
G75*
G03*
X12993500Y-5719250I-40000J0D01*
G01*
X12994000Y-14609000D02*
G75*
G03*
X12994000Y-14609000I-40000J0D01*
G01*
X12994000Y-14859000D02*
G75*
G03*
X12994000Y-14859000I-40000J0D01*
G01*
X12994000Y-15240000D02*
G75*
G03*
X12994000Y-15240000I-40000J0D01*
G01*
X12994000Y-15494000D02*
G75*
G03*
X12994000Y-15494000I-40000J0D01*
G01*
X12994000Y-15748000D02*
G75*
G03*
X12994000Y-15748000I-40000J0D01*
G01*
X12994000Y-16002000D02*
G75*
G03*
X12994000Y-16002000I-40000J0D01*
G01*
X12994000Y-16256000D02*
G75*
G03*
X12994000Y-16256000I-40000J0D01*
G01*
X12994000Y-16510000D02*
G75*
G03*
X12994000Y-16510000I-40000J0D01*
G01*
X12994000Y-16764000D02*
G75*
G03*
X12994000Y-16764000I-40000J0D01*
G01*
X12994000Y-17018000D02*
G75*
G03*
X12994000Y-17018000I-40000J0D01*
G01*
X12994000Y-17272000D02*
G75*
G03*
X12994000Y-17272000I-40000J0D01*
G01*
X12994000Y-17526000D02*
G75*
G03*
X12994000Y-17526000I-40000J0D01*
G01*
X13120500Y-6354250D02*
G75*
G03*
X13120500Y-6354250I-40000J0D01*
G01*
X13120500Y-6608250D02*
G75*
G03*
X13120500Y-6608250I-40000J0D01*
G01*
X13120500Y-9275250D02*
G75*
G03*
X13120500Y-9275250I-40000J0D01*
G01*
X13120500Y-10799250D02*
G75*
G03*
X13120500Y-10799250I-40000J0D01*
G01*
X13121000Y-6989250D02*
G75*
G03*
X13121000Y-6989250I-40000J0D01*
G01*
X13121000Y-8513250D02*
G75*
G03*
X13121000Y-8513250I-40000J0D01*
G01*
X13247500Y-4703250D02*
G75*
G03*
X13247500Y-4703250I-40000J0D01*
G01*
X13247500Y-5719250D02*
G75*
G03*
X13247500Y-5719250I-40000J0D01*
G01*
X13374500Y-9275250D02*
G75*
G03*
X13374500Y-9275250I-40000J0D01*
G01*
X13374500Y-10799250D02*
G75*
G03*
X13374500Y-10799250I-40000J0D01*
G01*
X13375000Y-6989250D02*
G75*
G03*
X13375000Y-6989250I-40000J0D01*
G01*
X13375000Y-8513250D02*
G75*
G03*
X13375000Y-8513250I-40000J0D01*
G01*
X13438500Y-6159500D02*
G75*
G03*
X13438500Y-6159500I-40000J0D01*
G01*
X13500500Y-2540500D02*
G75*
G03*
X13500500Y-2540500I-40000J0D01*
G01*
X13500500Y-2794500D02*
G75*
G03*
X13500500Y-2794500I-40000J0D01*
G01*
X13500500Y-3048500D02*
G75*
G03*
X13500500Y-3048500I-40000J0D01*
G01*
X13500500Y-3302500D02*
G75*
G03*
X13500500Y-3302500I-40000J0D01*
G01*
X13500500Y-3556500D02*
G75*
G03*
X13500500Y-3556500I-40000J0D01*
G01*
X13500500Y-3810500D02*
G75*
G03*
X13500500Y-3810500I-40000J0D01*
G01*
X13500500Y-4064500D02*
G75*
G03*
X13500500Y-4064500I-40000J0D01*
G01*
X13501500Y-4703250D02*
G75*
G03*
X13501500Y-4703250I-40000J0D01*
G01*
X13501500Y-5719250D02*
G75*
G03*
X13501500Y-5719250I-40000J0D01*
G01*
X13688500Y-6159500D02*
G75*
G03*
X13688500Y-6159500I-40000J0D01*
G01*
X13756000Y-15240000D02*
G75*
G03*
X13756000Y-15240000I-40000J0D01*
G01*
X13756000Y-15494000D02*
G75*
G03*
X13756000Y-15494000I-40000J0D01*
G01*
X13756000Y-15748000D02*
G75*
G03*
X13756000Y-15748000I-40000J0D01*
G01*
X13756000Y-16002000D02*
G75*
G03*
X13756000Y-16002000I-40000J0D01*
G01*
X13756000Y-16256000D02*
G75*
G03*
X13756000Y-16256000I-40000J0D01*
G01*
X13756000Y-16510000D02*
G75*
G03*
X13756000Y-16510000I-40000J0D01*
G01*
X13756000Y-16764000D02*
G75*
G03*
X13756000Y-16764000I-40000J0D01*
G01*
X13756000Y-17018000D02*
G75*
G03*
X13756000Y-17018000I-40000J0D01*
G01*
X13756000Y-17272000D02*
G75*
G03*
X13756000Y-17272000I-40000J0D01*
G01*
X13756000Y-17526000D02*
G75*
G03*
X13756000Y-17526000I-40000J0D01*
G01*
D14*
X9652000Y-6046000D02*
X9652000Y-6146000D01*
X9602000Y-6096000D02*
X9702000Y-6096000D01*
X9652000Y-6300000D02*
X9652000Y-6400000D01*
X9602000Y-6350000D02*
X9702000Y-6350000D01*
X9652000Y-6554000D02*
X9652000Y-6654000D01*
X9602000Y-6604000D02*
X9702000Y-6604000D01*
X9652000Y-6808000D02*
X9652000Y-6908000D01*
X9602000Y-6858000D02*
X9702000Y-6858000D01*
X9652000Y-7062000D02*
X9652000Y-7162000D01*
X9602000Y-7112000D02*
X9702000Y-7112000D01*
X9652000Y-7316000D02*
X9652000Y-7416000D01*
X9602000Y-7366000D02*
X9702000Y-7366000D01*
X9652000Y-7570000D02*
X9652000Y-7670000D01*
X9602000Y-7620000D02*
X9702000Y-7620000D01*
X9652000Y-7824000D02*
X9652000Y-7924000D01*
X9602000Y-7874000D02*
X9702000Y-7874000D01*
X9652000Y-8078000D02*
X9652000Y-8178000D01*
X9602000Y-8128000D02*
X9702000Y-8128000D01*
X9652000Y-8332000D02*
X9652000Y-8432000D01*
X9602000Y-8382000D02*
X9702000Y-8382000D01*
X9652000Y-8586000D02*
X9652000Y-8686000D01*
X9602000Y-8636000D02*
X9702000Y-8636000D01*
X9652000Y-8840000D02*
X9652000Y-8940000D01*
X9602000Y-8890000D02*
X9702000Y-8890000D01*
X9652000Y-9094000D02*
X9652000Y-9194000D01*
X9602000Y-9144000D02*
X9702000Y-9144000D01*
X9652000Y-9348000D02*
X9652000Y-9448000D01*
X9602000Y-9398000D02*
X9702000Y-9398000D01*
X9652000Y-9602000D02*
X9652000Y-9702000D01*
X9602000Y-9652000D02*
X9702000Y-9652000D01*
X9652000Y-9856000D02*
X9652000Y-9956000D01*
X9602000Y-9906000D02*
X9702000Y-9906000D01*
X9652000Y-10110000D02*
X9652000Y-10210000D01*
X9602000Y-10160000D02*
X9702000Y-10160000D01*
X9652000Y-10364000D02*
X9652000Y-10464000D01*
X9602000Y-10414000D02*
X9702000Y-10414000D01*
X9652000Y-10618000D02*
X9652000Y-10718000D01*
X9602000Y-10668000D02*
X9702000Y-10668000D01*
X9652000Y-10872000D02*
X9652000Y-10972000D01*
X9602000Y-10922000D02*
X9702000Y-10922000D01*
X14224000Y-6046000D02*
X14224000Y-6146000D01*
X14174000Y-6096000D02*
X14274000Y-6096000D01*
X14224000Y-6300000D02*
X14224000Y-6400000D01*
X14174000Y-6350000D02*
X14274000Y-6350000D01*
X14224000Y-6554000D02*
X14224000Y-6654000D01*
X14174000Y-6604000D02*
X14274000Y-6604000D01*
X14224000Y-6808000D02*
X14224000Y-6908000D01*
X14174000Y-6858000D02*
X14274000Y-6858000D01*
X14224000Y-7062000D02*
X14224000Y-7162000D01*
X14174000Y-7112000D02*
X14274000Y-7112000D01*
X14224000Y-7316000D02*
X14224000Y-7416000D01*
X14174000Y-7366000D02*
X14274000Y-7366000D01*
X14224000Y-7570000D02*
X14224000Y-7670000D01*
X14174000Y-7620000D02*
X14274000Y-7620000D01*
X14224000Y-7824000D02*
X14224000Y-7924000D01*
X14174000Y-7874000D02*
X14274000Y-7874000D01*
X14224000Y-8078000D02*
X14224000Y-8178000D01*
X14174000Y-8128000D02*
X14274000Y-8128000D01*
X14224000Y-8332000D02*
X14224000Y-8432000D01*
X14174000Y-8382000D02*
X14274000Y-8382000D01*
X14224000Y-8586000D02*
X14224000Y-8686000D01*
X14174000Y-8636000D02*
X14274000Y-8636000D01*
X14224000Y-8840000D02*
X14224000Y-8940000D01*
X14174000Y-8890000D02*
X14274000Y-8890000D01*
X14224000Y-9094000D02*
X14224000Y-9194000D01*
X14174000Y-9144000D02*
X14274000Y-9144000D01*
X14224000Y-9348000D02*
X14224000Y-9448000D01*
X14174000Y-9398000D02*
X14274000Y-9398000D01*
X14224000Y-9602000D02*
X14224000Y-9702000D01*
X14174000Y-9652000D02*
X14274000Y-9652000D01*
X14224000Y-9856000D02*
X14224000Y-9956000D01*
X14174000Y-9906000D02*
X14274000Y-9906000D01*
X14224000Y-10110000D02*
X14224000Y-10210000D01*
X14174000Y-10160000D02*
X14274000Y-10160000D01*
X14224000Y-10364000D02*
X14224000Y-10464000D01*
X14174000Y-10414000D02*
X14274000Y-10414000D01*
X14224000Y-10618000D02*
X14224000Y-10718000D01*
X14174000Y-10668000D02*
X14274000Y-10668000D01*
X14224000Y-10872000D02*
X14224000Y-10972000D01*
X14174000Y-10922000D02*
X14274000Y-10922000D01*
D11*
X9141619Y-19554476D02*
X9141619Y-19354476D01*
X9189238Y-19354476D01*
X9217810Y-19364000D01*
X9236857Y-19383048D01*
X9246381Y-19402095D01*
X9255905Y-19440190D01*
X9255905Y-19468762D01*
X9246381Y-19506857D01*
X9236857Y-19525905D01*
X9217810Y-19544952D01*
X9189238Y-19554476D01*
X9141619Y-19554476D01*
X9341619Y-19554476D02*
X9341619Y-19421143D01*
X9341619Y-19459238D02*
X9351143Y-19440190D01*
X9360667Y-19430667D01*
X9379714Y-19421143D01*
X9398762Y-19421143D01*
X9465429Y-19554476D02*
X9465429Y-19421143D01*
X9465429Y-19354476D02*
X9455905Y-19364000D01*
X9465429Y-19373524D01*
X9474952Y-19364000D01*
X9465429Y-19354476D01*
X9465429Y-19373524D01*
X9589238Y-19554476D02*
X9570190Y-19544952D01*
X9560667Y-19525905D01*
X9560667Y-19354476D01*
X9694000Y-19554476D02*
X9674952Y-19544952D01*
X9665429Y-19525905D01*
X9665429Y-19354476D01*
X9922571Y-19554476D02*
X9922571Y-19354476D01*
X9989238Y-19497333D01*
X10055905Y-19354476D01*
X10055905Y-19554476D01*
X10236857Y-19554476D02*
X10236857Y-19449714D01*
X10227333Y-19430667D01*
X10208286Y-19421143D01*
X10170190Y-19421143D01*
X10151143Y-19430667D01*
X10236857Y-19544952D02*
X10217810Y-19554476D01*
X10170190Y-19554476D01*
X10151143Y-19544952D01*
X10141619Y-19525905D01*
X10141619Y-19506857D01*
X10151143Y-19487810D01*
X10170190Y-19478286D01*
X10217810Y-19478286D01*
X10236857Y-19468762D01*
X10332095Y-19421143D02*
X10332095Y-19621143D01*
X10332095Y-19430667D02*
X10351143Y-19421143D01*
X10389238Y-19421143D01*
X10408286Y-19430667D01*
X10417810Y-19440190D01*
X10427333Y-19459238D01*
X10427333Y-19516381D01*
X10417810Y-19535429D01*
X10408286Y-19544952D01*
X10389238Y-19554476D01*
X10351143Y-19554476D01*
X10332095Y-19544952D01*
X10513048Y-19535429D02*
X10522571Y-19544952D01*
X10513048Y-19554476D01*
X10503524Y-19544952D01*
X10513048Y-19535429D01*
X10513048Y-19554476D01*
X10513048Y-19430667D02*
X10522571Y-19440190D01*
X10513048Y-19449714D01*
X10503524Y-19440190D01*
X10513048Y-19430667D01*
X10513048Y-19449714D01*
D12*
X8844000Y-19864000D02*
X8884000Y-19904000D01*
X8884000Y-19864000D02*
X8844000Y-19904000D01*
D11*
X9179714Y-19774476D02*
X9198762Y-19774476D01*
X9217810Y-19784000D01*
X9227333Y-19793524D01*
X9236857Y-19812571D01*
X9246381Y-19850667D01*
X9246381Y-19898286D01*
X9236857Y-19936381D01*
X9227333Y-19955429D01*
X9217810Y-19964952D01*
X9198762Y-19974476D01*
X9179714Y-19974476D01*
X9160667Y-19964952D01*
X9151143Y-19955429D01*
X9141619Y-19936381D01*
X9132095Y-19898286D01*
X9132095Y-19850667D01*
X9141619Y-19812571D01*
X9151143Y-19793524D01*
X9160667Y-19784000D01*
X9179714Y-19774476D01*
X9332095Y-19955429D02*
X9341619Y-19964952D01*
X9332095Y-19974476D01*
X9322571Y-19964952D01*
X9332095Y-19955429D01*
X9332095Y-19974476D01*
X9513048Y-19841143D02*
X9513048Y-19974476D01*
X9465429Y-19764952D02*
X9417810Y-19907810D01*
X9541619Y-19907810D01*
X9655905Y-19774476D02*
X9674952Y-19774476D01*
X9694000Y-19784000D01*
X9703524Y-19793524D01*
X9713048Y-19812571D01*
X9722571Y-19850667D01*
X9722571Y-19898286D01*
X9713048Y-19936381D01*
X9703524Y-19955429D01*
X9694000Y-19964952D01*
X9674952Y-19974476D01*
X9655905Y-19974476D01*
X9636857Y-19964952D01*
X9627333Y-19955429D01*
X9617810Y-19936381D01*
X9608286Y-19898286D01*
X9608286Y-19850667D01*
X9617810Y-19812571D01*
X9627333Y-19793524D01*
X9636857Y-19784000D01*
X9655905Y-19774476D01*
X9846381Y-19774476D02*
X9865429Y-19774476D01*
X9884476Y-19784000D01*
X9894000Y-19793524D01*
X9903524Y-19812571D01*
X9913048Y-19850667D01*
X9913048Y-19898286D01*
X9903524Y-19936381D01*
X9894000Y-19955429D01*
X9884476Y-19964952D01*
X9865429Y-19974476D01*
X9846381Y-19974476D01*
X9827333Y-19964952D01*
X9817810Y-19955429D01*
X9808286Y-19936381D01*
X9798762Y-19898286D01*
X9798762Y-19850667D01*
X9808286Y-19812571D01*
X9817810Y-19793524D01*
X9827333Y-19784000D01*
X9846381Y-19774476D01*
X9998762Y-19974476D02*
X9998762Y-19841143D01*
X9998762Y-19860190D02*
X10008286Y-19850667D01*
X10027333Y-19841143D01*
X10055905Y-19841143D01*
X10074952Y-19850667D01*
X10084476Y-19869714D01*
X10084476Y-19974476D01*
X10084476Y-19869714D02*
X10094000Y-19850667D01*
X10113048Y-19841143D01*
X10141619Y-19841143D01*
X10160667Y-19850667D01*
X10170190Y-19869714D01*
X10170190Y-19974476D01*
X10265429Y-19974476D02*
X10265429Y-19841143D01*
X10265429Y-19860190D02*
X10274952Y-19850667D01*
X10294000Y-19841143D01*
X10322571Y-19841143D01*
X10341619Y-19850667D01*
X10351143Y-19869714D01*
X10351143Y-19974476D01*
X10351143Y-19869714D02*
X10360667Y-19850667D01*
X10379714Y-19841143D01*
X10408286Y-19841143D01*
X10427333Y-19850667D01*
X10436857Y-19869714D01*
X10436857Y-19974476D01*
X10827333Y-19764952D02*
X10655905Y-20022095D01*
X11084476Y-19774476D02*
X11103524Y-19774476D01*
X11122571Y-19784000D01*
X11132095Y-19793524D01*
X11141619Y-19812571D01*
X11151143Y-19850667D01*
X11151143Y-19898286D01*
X11141619Y-19936381D01*
X11132095Y-19955429D01*
X11122571Y-19964952D01*
X11103524Y-19974476D01*
X11084476Y-19974476D01*
X11065429Y-19964952D01*
X11055905Y-19955429D01*
X11046381Y-19936381D01*
X11036857Y-19898286D01*
X11036857Y-19850667D01*
X11046381Y-19812571D01*
X11055905Y-19793524D01*
X11065429Y-19784000D01*
X11084476Y-19774476D01*
X11236857Y-19955429D02*
X11246381Y-19964952D01*
X11236857Y-19974476D01*
X11227333Y-19964952D01*
X11236857Y-19955429D01*
X11236857Y-19974476D01*
X11370190Y-19774476D02*
X11389238Y-19774476D01*
X11408286Y-19784000D01*
X11417809Y-19793524D01*
X11427333Y-19812571D01*
X11436857Y-19850667D01*
X11436857Y-19898286D01*
X11427333Y-19936381D01*
X11417809Y-19955429D01*
X11408286Y-19964952D01*
X11389238Y-19974476D01*
X11370190Y-19974476D01*
X11351143Y-19964952D01*
X11341619Y-19955429D01*
X11332095Y-19936381D01*
X11322571Y-19898286D01*
X11322571Y-19850667D01*
X11332095Y-19812571D01*
X11341619Y-19793524D01*
X11351143Y-19784000D01*
X11370190Y-19774476D01*
X11627333Y-19974476D02*
X11513048Y-19974476D01*
X11570190Y-19974476D02*
X11570190Y-19774476D01*
X11551143Y-19803048D01*
X11532095Y-19822095D01*
X11513048Y-19831619D01*
X11808286Y-19774476D02*
X11713048Y-19774476D01*
X11703524Y-19869714D01*
X11713048Y-19860190D01*
X11732095Y-19850667D01*
X11779714Y-19850667D01*
X11798762Y-19860190D01*
X11808286Y-19869714D01*
X11817809Y-19888762D01*
X11817809Y-19936381D01*
X11808286Y-19955429D01*
X11798762Y-19964952D01*
X11779714Y-19974476D01*
X11732095Y-19974476D01*
X11713048Y-19964952D01*
X11703524Y-19955429D01*
X11884476Y-19774476D02*
X12017809Y-19774476D01*
X11932095Y-19974476D01*
X12084476Y-19774476D02*
X12084476Y-19812571D01*
X12160667Y-19774476D02*
X12160667Y-19812571D01*
X12455905Y-20050667D02*
X12446381Y-20041143D01*
X12427333Y-20012571D01*
X12417809Y-19993524D01*
X12408286Y-19964952D01*
X12398762Y-19917333D01*
X12398762Y-19879238D01*
X12408286Y-19831619D01*
X12417809Y-19803048D01*
X12427333Y-19784000D01*
X12446381Y-19755429D01*
X12455905Y-19745905D01*
X12636857Y-19974476D02*
X12522571Y-19974476D01*
X12579714Y-19974476D02*
X12579714Y-19774476D01*
X12560667Y-19803048D01*
X12541619Y-19822095D01*
X12522571Y-19831619D01*
X12713048Y-19793524D02*
X12722571Y-19784000D01*
X12741619Y-19774476D01*
X12789238Y-19774476D01*
X12808286Y-19784000D01*
X12817809Y-19793524D01*
X12827333Y-19812571D01*
X12827333Y-19831619D01*
X12817809Y-19860190D01*
X12703524Y-19974476D01*
X12827333Y-19974476D01*
X13008286Y-19774476D02*
X12913048Y-19774476D01*
X12903524Y-19869714D01*
X12913048Y-19860190D01*
X12932095Y-19850667D01*
X12979714Y-19850667D01*
X12998762Y-19860190D01*
X13008286Y-19869714D01*
X13017809Y-19888762D01*
X13017809Y-19936381D01*
X13008286Y-19955429D01*
X12998762Y-19964952D01*
X12979714Y-19974476D01*
X12932095Y-19974476D01*
X12913048Y-19964952D01*
X12903524Y-19955429D01*
X13255905Y-19974476D02*
X13255905Y-19774476D01*
X13341619Y-19974476D02*
X13341619Y-19869714D01*
X13332095Y-19850667D01*
X13313048Y-19841143D01*
X13284476Y-19841143D01*
X13265428Y-19850667D01*
X13255905Y-19860190D01*
X13465428Y-19974476D02*
X13446381Y-19964952D01*
X13436857Y-19955429D01*
X13427333Y-19936381D01*
X13427333Y-19879238D01*
X13436857Y-19860190D01*
X13446381Y-19850667D01*
X13465428Y-19841143D01*
X13494000Y-19841143D01*
X13513048Y-19850667D01*
X13522571Y-19860190D01*
X13532095Y-19879238D01*
X13532095Y-19936381D01*
X13522571Y-19955429D01*
X13513048Y-19964952D01*
X13494000Y-19974476D01*
X13465428Y-19974476D01*
X13646381Y-19974476D02*
X13627333Y-19964952D01*
X13617809Y-19945905D01*
X13617809Y-19774476D01*
X13798762Y-19964952D02*
X13779714Y-19974476D01*
X13741619Y-19974476D01*
X13722571Y-19964952D01*
X13713048Y-19945905D01*
X13713048Y-19869714D01*
X13722571Y-19850667D01*
X13741619Y-19841143D01*
X13779714Y-19841143D01*
X13798762Y-19850667D01*
X13808286Y-19869714D01*
X13808286Y-19888762D01*
X13713048Y-19907810D01*
X13884476Y-19964952D02*
X13903524Y-19974476D01*
X13941619Y-19974476D01*
X13960667Y-19964952D01*
X13970190Y-19945905D01*
X13970190Y-19936381D01*
X13960667Y-19917333D01*
X13941619Y-19907810D01*
X13913048Y-19907810D01*
X13894000Y-19898286D01*
X13884476Y-19879238D01*
X13884476Y-19869714D01*
X13894000Y-19850667D01*
X13913048Y-19841143D01*
X13941619Y-19841143D01*
X13960667Y-19850667D01*
X14036857Y-20050667D02*
X14046381Y-20041143D01*
X14065428Y-20012571D01*
X14074952Y-19993524D01*
X14084476Y-19964952D01*
X14094000Y-19917333D01*
X14094000Y-19879238D01*
X14084476Y-19831619D01*
X14074952Y-19803048D01*
X14065428Y-19784000D01*
X14046381Y-19755429D01*
X14036857Y-19745905D01*
D13*
X8884000Y-20148000D02*
G75*
G03*
X8884000Y-20148000I-40000J0D01*
G01*
D11*
X9179714Y-20038476D02*
X9198762Y-20038476D01*
X9217810Y-20048000D01*
X9227333Y-20057524D01*
X9236857Y-20076571D01*
X9246381Y-20114667D01*
X9246381Y-20162286D01*
X9236857Y-20200381D01*
X9227333Y-20219429D01*
X9217810Y-20228952D01*
X9198762Y-20238476D01*
X9179714Y-20238476D01*
X9160667Y-20228952D01*
X9151143Y-20219429D01*
X9141619Y-20200381D01*
X9132095Y-20162286D01*
X9132095Y-20114667D01*
X9141619Y-20076571D01*
X9151143Y-20057524D01*
X9160667Y-20048000D01*
X9179714Y-20038476D01*
X9332095Y-20219429D02*
X9341619Y-20228952D01*
X9332095Y-20238476D01*
X9322571Y-20228952D01*
X9332095Y-20219429D01*
X9332095Y-20238476D01*
X9455905Y-20124190D02*
X9436857Y-20114667D01*
X9427333Y-20105143D01*
X9417810Y-20086095D01*
X9417810Y-20076571D01*
X9427333Y-20057524D01*
X9436857Y-20048000D01*
X9455905Y-20038476D01*
X9494000Y-20038476D01*
X9513048Y-20048000D01*
X9522571Y-20057524D01*
X9532095Y-20076571D01*
X9532095Y-20086095D01*
X9522571Y-20105143D01*
X9513048Y-20114667D01*
X9494000Y-20124190D01*
X9455905Y-20124190D01*
X9436857Y-20133714D01*
X9427333Y-20143238D01*
X9417810Y-20162286D01*
X9417810Y-20200381D01*
X9427333Y-20219429D01*
X9436857Y-20228952D01*
X9455905Y-20238476D01*
X9494000Y-20238476D01*
X9513048Y-20228952D01*
X9522571Y-20219429D01*
X9532095Y-20200381D01*
X9532095Y-20162286D01*
X9522571Y-20143238D01*
X9513048Y-20133714D01*
X9494000Y-20124190D01*
X9655905Y-20038476D02*
X9674952Y-20038476D01*
X9694000Y-20048000D01*
X9703524Y-20057524D01*
X9713048Y-20076571D01*
X9722571Y-20114667D01*
X9722571Y-20162286D01*
X9713048Y-20200381D01*
X9703524Y-20219429D01*
X9694000Y-20228952D01*
X9674952Y-20238476D01*
X9655905Y-20238476D01*
X9636857Y-20228952D01*
X9627333Y-20219429D01*
X9617810Y-20200381D01*
X9608286Y-20162286D01*
X9608286Y-20114667D01*
X9617810Y-20076571D01*
X9627333Y-20057524D01*
X9636857Y-20048000D01*
X9655905Y-20038476D01*
X9846381Y-20038476D02*
X9865429Y-20038476D01*
X9884476Y-20048000D01*
X9894000Y-20057524D01*
X9903524Y-20076571D01*
X9913048Y-20114667D01*
X9913048Y-20162286D01*
X9903524Y-20200381D01*
X9894000Y-20219429D01*
X9884476Y-20228952D01*
X9865429Y-20238476D01*
X9846381Y-20238476D01*
X9827333Y-20228952D01*
X9817810Y-20219429D01*
X9808286Y-20200381D01*
X9798762Y-20162286D01*
X9798762Y-20114667D01*
X9808286Y-20076571D01*
X9817810Y-20057524D01*
X9827333Y-20048000D01*
X9846381Y-20038476D01*
X9998762Y-20238476D02*
X9998762Y-20105143D01*
X9998762Y-20124190D02*
X10008286Y-20114667D01*
X10027333Y-20105143D01*
X10055905Y-20105143D01*
X10074952Y-20114667D01*
X10084476Y-20133714D01*
X10084476Y-20238476D01*
X10084476Y-20133714D02*
X10094000Y-20114667D01*
X10113048Y-20105143D01*
X10141619Y-20105143D01*
X10160667Y-20114667D01*
X10170190Y-20133714D01*
X10170190Y-20238476D01*
X10265429Y-20238476D02*
X10265429Y-20105143D01*
X10265429Y-20124190D02*
X10274952Y-20114667D01*
X10294000Y-20105143D01*
X10322571Y-20105143D01*
X10341619Y-20114667D01*
X10351143Y-20133714D01*
X10351143Y-20238476D01*
X10351143Y-20133714D02*
X10360667Y-20114667D01*
X10379714Y-20105143D01*
X10408286Y-20105143D01*
X10427333Y-20114667D01*
X10436857Y-20133714D01*
X10436857Y-20238476D01*
X10827333Y-20028952D02*
X10655905Y-20286095D01*
X11084476Y-20038476D02*
X11103524Y-20038476D01*
X11122571Y-20048000D01*
X11132095Y-20057524D01*
X11141619Y-20076571D01*
X11151143Y-20114667D01*
X11151143Y-20162286D01*
X11141619Y-20200381D01*
X11132095Y-20219429D01*
X11122571Y-20228952D01*
X11103524Y-20238476D01*
X11084476Y-20238476D01*
X11065429Y-20228952D01*
X11055905Y-20219429D01*
X11046381Y-20200381D01*
X11036857Y-20162286D01*
X11036857Y-20114667D01*
X11046381Y-20076571D01*
X11055905Y-20057524D01*
X11065429Y-20048000D01*
X11084476Y-20038476D01*
X11236857Y-20219429D02*
X11246381Y-20228952D01*
X11236857Y-20238476D01*
X11227333Y-20228952D01*
X11236857Y-20219429D01*
X11236857Y-20238476D01*
X11370190Y-20038476D02*
X11389238Y-20038476D01*
X11408286Y-20048000D01*
X11417809Y-20057524D01*
X11427333Y-20076571D01*
X11436857Y-20114667D01*
X11436857Y-20162286D01*
X11427333Y-20200381D01*
X11417809Y-20219429D01*
X11408286Y-20228952D01*
X11389238Y-20238476D01*
X11370190Y-20238476D01*
X11351143Y-20228952D01*
X11341619Y-20219429D01*
X11332095Y-20200381D01*
X11322571Y-20162286D01*
X11322571Y-20114667D01*
X11332095Y-20076571D01*
X11341619Y-20057524D01*
X11351143Y-20048000D01*
X11370190Y-20038476D01*
X11503524Y-20038476D02*
X11627333Y-20038476D01*
X11560667Y-20114667D01*
X11589238Y-20114667D01*
X11608286Y-20124190D01*
X11617809Y-20133714D01*
X11627333Y-20152762D01*
X11627333Y-20200381D01*
X11617809Y-20219429D01*
X11608286Y-20228952D01*
X11589238Y-20238476D01*
X11532095Y-20238476D01*
X11513048Y-20228952D01*
X11503524Y-20219429D01*
X11817809Y-20238476D02*
X11703524Y-20238476D01*
X11760667Y-20238476D02*
X11760667Y-20038476D01*
X11741619Y-20067048D01*
X11722571Y-20086095D01*
X11703524Y-20095619D01*
X11998762Y-20038476D02*
X11903524Y-20038476D01*
X11894000Y-20133714D01*
X11903524Y-20124190D01*
X11922571Y-20114667D01*
X11970190Y-20114667D01*
X11989238Y-20124190D01*
X11998762Y-20133714D01*
X12008286Y-20152762D01*
X12008286Y-20200381D01*
X11998762Y-20219429D01*
X11989238Y-20228952D01*
X11970190Y-20238476D01*
X11922571Y-20238476D01*
X11903524Y-20228952D01*
X11894000Y-20219429D01*
X12084476Y-20038476D02*
X12084476Y-20076571D01*
X12160667Y-20038476D02*
X12160667Y-20076571D01*
X12455905Y-20314667D02*
X12446381Y-20305143D01*
X12427333Y-20276571D01*
X12417809Y-20257524D01*
X12408286Y-20228952D01*
X12398762Y-20181333D01*
X12398762Y-20143238D01*
X12408286Y-20095619D01*
X12417809Y-20067048D01*
X12427333Y-20048000D01*
X12446381Y-20019429D01*
X12455905Y-20009905D01*
X12522571Y-20057524D02*
X12532095Y-20048000D01*
X12551143Y-20038476D01*
X12598762Y-20038476D01*
X12617809Y-20048000D01*
X12627333Y-20057524D01*
X12636857Y-20076571D01*
X12636857Y-20095619D01*
X12627333Y-20124190D01*
X12513048Y-20238476D01*
X12636857Y-20238476D01*
X12760667Y-20038476D02*
X12779714Y-20038476D01*
X12798762Y-20048000D01*
X12808286Y-20057524D01*
X12817809Y-20076571D01*
X12827333Y-20114667D01*
X12827333Y-20162286D01*
X12817809Y-20200381D01*
X12808286Y-20219429D01*
X12798762Y-20228952D01*
X12779714Y-20238476D01*
X12760667Y-20238476D01*
X12741619Y-20228952D01*
X12732095Y-20219429D01*
X12722571Y-20200381D01*
X12713048Y-20162286D01*
X12713048Y-20114667D01*
X12722571Y-20076571D01*
X12732095Y-20057524D01*
X12741619Y-20048000D01*
X12760667Y-20038476D01*
X12998762Y-20038476D02*
X12960667Y-20038476D01*
X12941619Y-20048000D01*
X12932095Y-20057524D01*
X12913048Y-20086095D01*
X12903524Y-20124190D01*
X12903524Y-20200381D01*
X12913048Y-20219429D01*
X12922571Y-20228952D01*
X12941619Y-20238476D01*
X12979714Y-20238476D01*
X12998762Y-20228952D01*
X13008286Y-20219429D01*
X13017809Y-20200381D01*
X13017809Y-20152762D01*
X13008286Y-20133714D01*
X12998762Y-20124190D01*
X12979714Y-20114667D01*
X12941619Y-20114667D01*
X12922571Y-20124190D01*
X12913048Y-20133714D01*
X12903524Y-20152762D01*
X13255905Y-20238476D02*
X13255905Y-20038476D01*
X13341619Y-20238476D02*
X13341619Y-20133714D01*
X13332095Y-20114667D01*
X13313048Y-20105143D01*
X13284476Y-20105143D01*
X13265428Y-20114667D01*
X13255905Y-20124190D01*
X13465428Y-20238476D02*
X13446381Y-20228952D01*
X13436857Y-20219429D01*
X13427333Y-20200381D01*
X13427333Y-20143238D01*
X13436857Y-20124190D01*
X13446381Y-20114667D01*
X13465428Y-20105143D01*
X13494000Y-20105143D01*
X13513048Y-20114667D01*
X13522571Y-20124190D01*
X13532095Y-20143238D01*
X13532095Y-20200381D01*
X13522571Y-20219429D01*
X13513048Y-20228952D01*
X13494000Y-20238476D01*
X13465428Y-20238476D01*
X13646381Y-20238476D02*
X13627333Y-20228952D01*
X13617809Y-20209905D01*
X13617809Y-20038476D01*
X13798762Y-20228952D02*
X13779714Y-20238476D01*
X13741619Y-20238476D01*
X13722571Y-20228952D01*
X13713048Y-20209905D01*
X13713048Y-20133714D01*
X13722571Y-20114667D01*
X13741619Y-20105143D01*
X13779714Y-20105143D01*
X13798762Y-20114667D01*
X13808286Y-20133714D01*
X13808286Y-20152762D01*
X13713048Y-20171810D01*
X13884476Y-20228952D02*
X13903524Y-20238476D01*
X13941619Y-20238476D01*
X13960667Y-20228952D01*
X13970190Y-20209905D01*
X13970190Y-20200381D01*
X13960667Y-20181333D01*
X13941619Y-20171810D01*
X13913048Y-20171810D01*
X13894000Y-20162286D01*
X13884476Y-20143238D01*
X13884476Y-20133714D01*
X13894000Y-20114667D01*
X13913048Y-20105143D01*
X13941619Y-20105143D01*
X13960667Y-20114667D01*
X14036857Y-20314667D02*
X14046381Y-20305143D01*
X14065428Y-20276571D01*
X14074952Y-20257524D01*
X14084476Y-20228952D01*
X14094000Y-20181333D01*
X14094000Y-20143238D01*
X14084476Y-20095619D01*
X14074952Y-20067048D01*
X14065428Y-20048000D01*
X14046381Y-20019429D01*
X14036857Y-20009905D01*
D14*
X8834000Y-20362000D02*
X8834000Y-20462000D01*
X8784000Y-20412000D02*
X8884000Y-20412000D01*
D11*
X9246381Y-20502476D02*
X9132095Y-20502476D01*
X9189238Y-20502476D02*
X9189238Y-20302476D01*
X9170190Y-20331048D01*
X9151143Y-20350095D01*
X9132095Y-20359619D01*
X9332095Y-20483429D02*
X9341619Y-20492952D01*
X9332095Y-20502476D01*
X9322571Y-20492952D01*
X9332095Y-20483429D01*
X9332095Y-20502476D01*
X9465429Y-20302476D02*
X9484476Y-20302476D01*
X9503524Y-20312000D01*
X9513048Y-20321524D01*
X9522571Y-20340571D01*
X9532095Y-20378667D01*
X9532095Y-20426286D01*
X9522571Y-20464381D01*
X9513048Y-20483429D01*
X9503524Y-20492952D01*
X9484476Y-20502476D01*
X9465429Y-20502476D01*
X9446381Y-20492952D01*
X9436857Y-20483429D01*
X9427333Y-20464381D01*
X9417810Y-20426286D01*
X9417810Y-20378667D01*
X9427333Y-20340571D01*
X9436857Y-20321524D01*
X9446381Y-20312000D01*
X9465429Y-20302476D01*
X9655905Y-20302476D02*
X9674952Y-20302476D01*
X9694000Y-20312000D01*
X9703524Y-20321524D01*
X9713048Y-20340571D01*
X9722571Y-20378667D01*
X9722571Y-20426286D01*
X9713048Y-20464381D01*
X9703524Y-20483429D01*
X9694000Y-20492952D01*
X9674952Y-20502476D01*
X9655905Y-20502476D01*
X9636857Y-20492952D01*
X9627333Y-20483429D01*
X9617810Y-20464381D01*
X9608286Y-20426286D01*
X9608286Y-20378667D01*
X9617810Y-20340571D01*
X9627333Y-20321524D01*
X9636857Y-20312000D01*
X9655905Y-20302476D01*
X9846381Y-20302476D02*
X9865429Y-20302476D01*
X9884476Y-20312000D01*
X9894000Y-20321524D01*
X9903524Y-20340571D01*
X9913048Y-20378667D01*
X9913048Y-20426286D01*
X9903524Y-20464381D01*
X9894000Y-20483429D01*
X9884476Y-20492952D01*
X9865429Y-20502476D01*
X9846381Y-20502476D01*
X9827333Y-20492952D01*
X9817810Y-20483429D01*
X9808286Y-20464381D01*
X9798762Y-20426286D01*
X9798762Y-20378667D01*
X9808286Y-20340571D01*
X9817810Y-20321524D01*
X9827333Y-20312000D01*
X9846381Y-20302476D01*
X9998762Y-20502476D02*
X9998762Y-20369143D01*
X9998762Y-20388190D02*
X10008286Y-20378667D01*
X10027333Y-20369143D01*
X10055905Y-20369143D01*
X10074952Y-20378667D01*
X10084476Y-20397714D01*
X10084476Y-20502476D01*
X10084476Y-20397714D02*
X10094000Y-20378667D01*
X10113048Y-20369143D01*
X10141619Y-20369143D01*
X10160667Y-20378667D01*
X10170190Y-20397714D01*
X10170190Y-20502476D01*
X10265429Y-20502476D02*
X10265429Y-20369143D01*
X10265429Y-20388190D02*
X10274952Y-20378667D01*
X10294000Y-20369143D01*
X10322571Y-20369143D01*
X10341619Y-20378667D01*
X10351143Y-20397714D01*
X10351143Y-20502476D01*
X10351143Y-20397714D02*
X10360667Y-20378667D01*
X10379714Y-20369143D01*
X10408286Y-20369143D01*
X10427333Y-20378667D01*
X10436857Y-20397714D01*
X10436857Y-20502476D01*
X10827333Y-20292952D02*
X10655905Y-20550095D01*
X11084476Y-20302476D02*
X11103524Y-20302476D01*
X11122571Y-20312000D01*
X11132095Y-20321524D01*
X11141619Y-20340571D01*
X11151143Y-20378667D01*
X11151143Y-20426286D01*
X11141619Y-20464381D01*
X11132095Y-20483429D01*
X11122571Y-20492952D01*
X11103524Y-20502476D01*
X11084476Y-20502476D01*
X11065429Y-20492952D01*
X11055905Y-20483429D01*
X11046381Y-20464381D01*
X11036857Y-20426286D01*
X11036857Y-20378667D01*
X11046381Y-20340571D01*
X11055905Y-20321524D01*
X11065429Y-20312000D01*
X11084476Y-20302476D01*
X11236857Y-20483429D02*
X11246381Y-20492952D01*
X11236857Y-20502476D01*
X11227333Y-20492952D01*
X11236857Y-20483429D01*
X11236857Y-20502476D01*
X11370190Y-20302476D02*
X11389238Y-20302476D01*
X11408286Y-20312000D01*
X11417809Y-20321524D01*
X11427333Y-20340571D01*
X11436857Y-20378667D01*
X11436857Y-20426286D01*
X11427333Y-20464381D01*
X11417809Y-20483429D01*
X11408286Y-20492952D01*
X11389238Y-20502476D01*
X11370190Y-20502476D01*
X11351143Y-20492952D01*
X11341619Y-20483429D01*
X11332095Y-20464381D01*
X11322571Y-20426286D01*
X11322571Y-20378667D01*
X11332095Y-20340571D01*
X11341619Y-20321524D01*
X11351143Y-20312000D01*
X11370190Y-20302476D01*
X11503524Y-20302476D02*
X11627333Y-20302476D01*
X11560667Y-20378667D01*
X11589238Y-20378667D01*
X11608286Y-20388190D01*
X11617809Y-20397714D01*
X11627333Y-20416762D01*
X11627333Y-20464381D01*
X11617809Y-20483429D01*
X11608286Y-20492952D01*
X11589238Y-20502476D01*
X11532095Y-20502476D01*
X11513048Y-20492952D01*
X11503524Y-20483429D01*
X11722571Y-20502476D02*
X11760667Y-20502476D01*
X11779714Y-20492952D01*
X11789238Y-20483429D01*
X11808286Y-20454857D01*
X11817809Y-20416762D01*
X11817809Y-20340571D01*
X11808286Y-20321524D01*
X11798762Y-20312000D01*
X11779714Y-20302476D01*
X11741619Y-20302476D01*
X11722571Y-20312000D01*
X11713048Y-20321524D01*
X11703524Y-20340571D01*
X11703524Y-20388190D01*
X11713048Y-20407238D01*
X11722571Y-20416762D01*
X11741619Y-20426286D01*
X11779714Y-20426286D01*
X11798762Y-20416762D01*
X11808286Y-20407238D01*
X11817809Y-20388190D01*
X11989238Y-20369143D02*
X11989238Y-20502476D01*
X11941619Y-20292952D02*
X11894000Y-20435810D01*
X12017809Y-20435810D01*
X12084476Y-20302476D02*
X12084476Y-20340571D01*
X12160667Y-20302476D02*
X12160667Y-20340571D01*
X12455905Y-20578667D02*
X12446381Y-20569143D01*
X12427333Y-20540571D01*
X12417809Y-20521524D01*
X12408286Y-20492952D01*
X12398762Y-20445333D01*
X12398762Y-20407238D01*
X12408286Y-20359619D01*
X12417809Y-20331048D01*
X12427333Y-20312000D01*
X12446381Y-20283429D01*
X12455905Y-20273905D01*
X12617809Y-20369143D02*
X12617809Y-20502476D01*
X12570190Y-20292952D02*
X12522571Y-20435810D01*
X12646381Y-20435810D01*
X12760667Y-20302476D02*
X12779714Y-20302476D01*
X12798762Y-20312000D01*
X12808286Y-20321524D01*
X12817809Y-20340571D01*
X12827333Y-20378667D01*
X12827333Y-20426286D01*
X12817809Y-20464381D01*
X12808286Y-20483429D01*
X12798762Y-20492952D01*
X12779714Y-20502476D01*
X12760667Y-20502476D01*
X12741619Y-20492952D01*
X12732095Y-20483429D01*
X12722571Y-20464381D01*
X12713048Y-20426286D01*
X12713048Y-20378667D01*
X12722571Y-20340571D01*
X12732095Y-20321524D01*
X12741619Y-20312000D01*
X12760667Y-20302476D01*
X13065428Y-20502476D02*
X13065428Y-20302476D01*
X13151143Y-20502476D02*
X13151143Y-20397714D01*
X13141619Y-20378667D01*
X13122571Y-20369143D01*
X13094000Y-20369143D01*
X13074952Y-20378667D01*
X13065428Y-20388190D01*
X13274952Y-20502476D02*
X13255905Y-20492952D01*
X13246381Y-20483429D01*
X13236857Y-20464381D01*
X13236857Y-20407238D01*
X13246381Y-20388190D01*
X13255905Y-20378667D01*
X13274952Y-20369143D01*
X13303524Y-20369143D01*
X13322571Y-20378667D01*
X13332095Y-20388190D01*
X13341619Y-20407238D01*
X13341619Y-20464381D01*
X13332095Y-20483429D01*
X13322571Y-20492952D01*
X13303524Y-20502476D01*
X13274952Y-20502476D01*
X13455905Y-20502476D02*
X13436857Y-20492952D01*
X13427333Y-20473905D01*
X13427333Y-20302476D01*
X13608286Y-20492952D02*
X13589238Y-20502476D01*
X13551143Y-20502476D01*
X13532095Y-20492952D01*
X13522571Y-20473905D01*
X13522571Y-20397714D01*
X13532095Y-20378667D01*
X13551143Y-20369143D01*
X13589238Y-20369143D01*
X13608286Y-20378667D01*
X13617809Y-20397714D01*
X13617809Y-20416762D01*
X13522571Y-20435810D01*
X13694000Y-20492952D02*
X13713048Y-20502476D01*
X13751143Y-20502476D01*
X13770190Y-20492952D01*
X13779714Y-20473905D01*
X13779714Y-20464381D01*
X13770190Y-20445333D01*
X13751143Y-20435810D01*
X13722571Y-20435810D01*
X13703524Y-20426286D01*
X13694000Y-20407238D01*
X13694000Y-20397714D01*
X13703524Y-20378667D01*
X13722571Y-20369143D01*
X13751143Y-20369143D01*
X13770190Y-20378667D01*
X13846381Y-20578667D02*
X13855905Y-20569143D01*
X13874952Y-20540571D01*
X13884476Y-20521524D01*
X13894000Y-20492952D01*
X13903524Y-20445333D01*
X13903524Y-20407238D01*
X13894000Y-20359619D01*
X13884476Y-20331048D01*
X13874952Y-20312000D01*
X13855905Y-20283429D01*
X13846381Y-20273905D01*
M02*
