G04 #@! TF.GenerationSoftware,KiCad,Pcbnew,(6.0.4)*
G04 #@! TF.CreationDate,2022-12-31T00:19:43-05:00*
G04 #@! TF.ProjectId,intellivision t-card replic,696e7465-6c6c-4697-9669-73696f6e2074,rev?*
G04 #@! TF.SameCoordinates,Original*
G04 #@! TF.FileFunction,Copper,L1,Top*
G04 #@! TF.FilePolarity,Positive*
%FSLAX46Y46*%
G04 Gerber Fmt 4.6, Leading zero omitted, Abs format (unit mm)*
G04 Created by KiCad (PCBNEW (6.0.4)) date 2022-12-31 00:19:43*
%MOMM*%
%LPD*%
G01*
G04 APERTURE LIST*
G04 #@! TA.AperFunction,ComponentPad*
%ADD10C,1.600000*%
G04 #@! TD*
G04 #@! TA.AperFunction,ComponentPad*
%ADD11O,1.600000X1.600000*%
G04 #@! TD*
G04 #@! TA.AperFunction,ComponentPad*
%ADD12R,1.600000X1.600000*%
G04 #@! TD*
G04 #@! TA.AperFunction,ComponentPad*
%ADD13R,1.700000X1.700000*%
G04 #@! TD*
G04 #@! TA.AperFunction,ComponentPad*
%ADD14O,1.700000X1.700000*%
G04 #@! TD*
G04 #@! TA.AperFunction,ConnectorPad*
%ADD15R,1.270000X8.840000*%
G04 #@! TD*
G04 #@! TA.AperFunction,ViaPad*
%ADD16C,0.800000*%
G04 #@! TD*
G04 #@! TA.AperFunction,Conductor*
%ADD17C,1.000000*%
G04 #@! TD*
G04 #@! TA.AperFunction,Conductor*
%ADD18C,0.250000*%
G04 #@! TD*
G04 APERTURE END LIST*
D10*
X105405000Y-66082500D03*
D11*
X115565000Y-66082500D03*
D10*
X134615000Y-47032500D03*
D11*
X134615000Y-57192500D03*
D10*
X132075000Y-47032500D03*
D11*
X132075000Y-57192500D03*
D10*
X109240000Y-44450000D03*
X111740000Y-44450000D03*
D12*
X105405000Y-107992500D03*
D11*
X107945000Y-107992500D03*
X110485000Y-107992500D03*
X113025000Y-107992500D03*
X115565000Y-107992500D03*
X118105000Y-107992500D03*
X120645000Y-107992500D03*
X123185000Y-107992500D03*
X125725000Y-107992500D03*
X128265000Y-107992500D03*
X130805000Y-107992500D03*
X133345000Y-107992500D03*
X133345000Y-92752500D03*
X130805000Y-92752500D03*
X128265000Y-92752500D03*
X125725000Y-92752500D03*
X123185000Y-92752500D03*
X120645000Y-92752500D03*
X118105000Y-92752500D03*
X115565000Y-92752500D03*
X113025000Y-92752500D03*
X110485000Y-92752500D03*
X107945000Y-92752500D03*
X105405000Y-92752500D03*
D10*
X129540000Y-148590000D03*
X129540000Y-146090000D03*
D12*
X113015000Y-40640000D03*
D11*
X113015000Y-38100000D03*
X113015000Y-35560000D03*
X113015000Y-33020000D03*
X113015000Y-30480000D03*
X113015000Y-27940000D03*
X113015000Y-25400000D03*
X113015000Y-22860000D03*
X105395000Y-22860000D03*
X105395000Y-25400000D03*
X105395000Y-27940000D03*
X105395000Y-30480000D03*
X105395000Y-33020000D03*
X105395000Y-35560000D03*
X105395000Y-38100000D03*
X105395000Y-40640000D03*
D13*
X142240000Y-60960000D03*
D14*
X142240000Y-63500000D03*
X142240000Y-66040000D03*
X142240000Y-68580000D03*
X142240000Y-71120000D03*
X142240000Y-73660000D03*
X142240000Y-76200000D03*
X142240000Y-78740000D03*
X142240000Y-81280000D03*
X142240000Y-83820000D03*
X142240000Y-86360000D03*
X142240000Y-88900000D03*
X142240000Y-91440000D03*
X142240000Y-93980000D03*
X142240000Y-96520000D03*
X142240000Y-99060000D03*
X142240000Y-101600000D03*
X142240000Y-104140000D03*
X142240000Y-106680000D03*
X142240000Y-109220000D03*
D10*
X130805000Y-63542500D03*
D11*
X120645000Y-63542500D03*
D10*
X130805000Y-66082500D03*
D11*
X120645000Y-66082500D03*
D12*
X105410000Y-85132500D03*
D11*
X107950000Y-85132500D03*
X110490000Y-85132500D03*
X113030000Y-85132500D03*
X115570000Y-85132500D03*
X118110000Y-85132500D03*
X120650000Y-85132500D03*
X123190000Y-85132500D03*
X125730000Y-85132500D03*
X128270000Y-85132500D03*
X130810000Y-85132500D03*
X133350000Y-85132500D03*
X133350000Y-69892500D03*
X130810000Y-69892500D03*
X128270000Y-69892500D03*
X125730000Y-69892500D03*
X123190000Y-69892500D03*
X120650000Y-69892500D03*
X118110000Y-69892500D03*
X115570000Y-69892500D03*
X113030000Y-69892500D03*
X110490000Y-69892500D03*
X107950000Y-69892500D03*
X105410000Y-69892500D03*
D10*
X105410000Y-148570000D03*
X105410000Y-146070000D03*
D12*
X97790000Y-157480000D03*
D11*
X97790000Y-160020000D03*
X97790000Y-162560000D03*
X97790000Y-165100000D03*
X97790000Y-167640000D03*
X97790000Y-170180000D03*
X97790000Y-172720000D03*
X97790000Y-175260000D03*
X105410000Y-175260000D03*
X105410000Y-172720000D03*
X105410000Y-170180000D03*
X105410000Y-167640000D03*
X105410000Y-165100000D03*
X105410000Y-162560000D03*
X105410000Y-160020000D03*
X105410000Y-157480000D03*
D12*
X99017500Y-56525000D03*
D11*
X99017500Y-53985000D03*
X99017500Y-51445000D03*
X99017500Y-48905000D03*
X99017500Y-46365000D03*
X99017500Y-43825000D03*
X99017500Y-41285000D03*
X99017500Y-38745000D03*
X91397500Y-38745000D03*
X91397500Y-41285000D03*
X91397500Y-43825000D03*
X91397500Y-46365000D03*
X91397500Y-48905000D03*
X91397500Y-51445000D03*
X91397500Y-53985000D03*
X91397500Y-56525000D03*
D10*
X114300000Y-121900000D03*
X114300000Y-119400000D03*
D12*
X114300000Y-152400000D03*
D11*
X114300000Y-154940000D03*
X114300000Y-157480000D03*
X114300000Y-160020000D03*
X114300000Y-162560000D03*
X114300000Y-165100000D03*
X114300000Y-167640000D03*
X114300000Y-170180000D03*
X114300000Y-172720000D03*
X114300000Y-175260000D03*
X121920000Y-175260000D03*
X121920000Y-172720000D03*
X121920000Y-170180000D03*
X121920000Y-167640000D03*
X121920000Y-165100000D03*
X121920000Y-162560000D03*
X121920000Y-160020000D03*
X121920000Y-157480000D03*
X121920000Y-154940000D03*
X121920000Y-152400000D03*
D10*
X126995000Y-46990000D03*
D11*
X126995000Y-57150000D03*
D12*
X129540000Y-152400000D03*
D11*
X129540000Y-154940000D03*
X129540000Y-157480000D03*
X129540000Y-160020000D03*
X129540000Y-162560000D03*
X129540000Y-165100000D03*
X129540000Y-167640000D03*
X129540000Y-170180000D03*
X129540000Y-172720000D03*
X129540000Y-175260000D03*
X137160000Y-175260000D03*
X137160000Y-172720000D03*
X137160000Y-170180000D03*
X137160000Y-167640000D03*
X137160000Y-165100000D03*
X137160000Y-162560000D03*
X137160000Y-160020000D03*
X137160000Y-157480000D03*
X137160000Y-154940000D03*
X137160000Y-152400000D03*
D12*
X134605000Y-40645000D03*
D11*
X134605000Y-38105000D03*
X134605000Y-35565000D03*
X134605000Y-33025000D03*
X134605000Y-30485000D03*
X134605000Y-27945000D03*
X134605000Y-25405000D03*
X126985000Y-25405000D03*
X126985000Y-27945000D03*
X126985000Y-30485000D03*
X126985000Y-33025000D03*
X126985000Y-35565000D03*
X126985000Y-38105000D03*
X126985000Y-40645000D03*
D10*
X114300000Y-148590000D03*
X114300000Y-146090000D03*
D15*
X144665700Y-187960000D03*
X142125700Y-187960000D03*
X139585700Y-187960000D03*
X137045700Y-187960000D03*
X134505700Y-187960000D03*
X131965700Y-187960000D03*
X129425700Y-187960000D03*
X126885700Y-187960000D03*
X124345700Y-187960000D03*
X121805700Y-187960000D03*
X119265700Y-187960000D03*
X116725700Y-187960000D03*
X114185700Y-187960000D03*
X111645700Y-187960000D03*
X109105700Y-187960000D03*
X106565700Y-187960000D03*
X104025700Y-187960000D03*
X101485700Y-187960000D03*
X98945700Y-187960000D03*
X96405700Y-187960000D03*
X93865700Y-187960000D03*
X91325700Y-187960000D03*
D10*
X136485000Y-61595000D03*
X133985000Y-61595000D03*
D13*
X96520000Y-60960000D03*
D14*
X96520000Y-63500000D03*
X96520000Y-66040000D03*
X96520000Y-68580000D03*
X96520000Y-71120000D03*
X96520000Y-73660000D03*
X96520000Y-76200000D03*
X96520000Y-78740000D03*
X96520000Y-81280000D03*
X96520000Y-83820000D03*
X96520000Y-86360000D03*
X96520000Y-88900000D03*
X96520000Y-91440000D03*
X96520000Y-93980000D03*
X96520000Y-96520000D03*
X96520000Y-99060000D03*
X96520000Y-101600000D03*
X96520000Y-104140000D03*
X96520000Y-106680000D03*
X96520000Y-109220000D03*
D10*
X105405000Y-63542500D03*
D11*
X115565000Y-63542500D03*
D12*
X106680000Y-125730000D03*
D11*
X106680000Y-128270000D03*
X106680000Y-130810000D03*
X106680000Y-133350000D03*
X106680000Y-135890000D03*
X106680000Y-138430000D03*
X106680000Y-140970000D03*
X114300000Y-140970000D03*
X114300000Y-138430000D03*
X114300000Y-135890000D03*
X114300000Y-133350000D03*
X114300000Y-130810000D03*
X114300000Y-128270000D03*
X114300000Y-125730000D03*
D10*
X129535000Y-47032500D03*
D11*
X129535000Y-57192500D03*
D12*
X123800000Y-40645000D03*
D11*
X123800000Y-38105000D03*
X123800000Y-35565000D03*
X123800000Y-33025000D03*
X123800000Y-30485000D03*
X123800000Y-27945000D03*
X123800000Y-25405000D03*
X116180000Y-25405000D03*
X116180000Y-27945000D03*
X116180000Y-30485000D03*
X116180000Y-33025000D03*
X116180000Y-35565000D03*
X116180000Y-38105000D03*
X116180000Y-40645000D03*
D16*
X94615000Y-112395000D03*
X142875000Y-112395000D03*
X95250000Y-148590000D03*
X103505000Y-60960000D03*
X95250000Y-121920000D03*
X129654300Y-180454300D03*
X131445000Y-143891000D03*
X144780000Y-180340000D03*
X133985000Y-156845000D03*
X121920000Y-78740000D03*
X138430000Y-153670000D03*
X133350000Y-153670000D03*
X127000000Y-88900000D03*
X132715000Y-157480000D03*
X132080000Y-158750000D03*
X124460000Y-77470000D03*
X140970000Y-164465000D03*
X132080000Y-160020000D03*
X129540000Y-90170000D03*
X131445000Y-168910000D03*
X127000000Y-76200000D03*
X132080000Y-91440000D03*
X142240000Y-171450000D03*
X130810000Y-74930000D03*
X132715000Y-141605000D03*
X120650000Y-141605000D03*
X120015000Y-169545000D03*
X128270000Y-177165000D03*
X143510000Y-177165000D03*
X131445000Y-140335000D03*
X118745000Y-170815000D03*
X133350000Y-73660000D03*
X120650000Y-140335000D03*
X143510000Y-170180000D03*
X130805000Y-94657500D03*
X117475000Y-166370000D03*
X117475000Y-163830000D03*
X128265000Y-95927500D03*
X143510000Y-167640000D03*
X120650000Y-139065000D03*
X132080000Y-71120000D03*
X130810000Y-139065000D03*
X111125000Y-173990000D03*
X143510000Y-160020000D03*
X125725000Y-97197500D03*
X129540000Y-68580000D03*
X130175000Y-137795000D03*
X120650000Y-137795000D03*
X109855000Y-175895000D03*
X120650000Y-136525000D03*
X129540000Y-136525000D03*
X127000000Y-67310000D03*
X108585000Y-157480000D03*
X107315000Y-156210000D03*
X123185000Y-98467500D03*
X143510000Y-157480000D03*
X114300000Y-54610000D03*
X119380000Y-53340000D03*
X116840000Y-52070000D03*
X109220000Y-48260000D03*
X109069511Y-50697011D03*
X106680000Y-57150000D03*
X113030000Y-57150000D03*
X107950000Y-153670000D03*
X135255000Y-152400000D03*
X133350000Y-111125000D03*
X106680000Y-111125000D03*
X106680000Y-82550000D03*
X132080000Y-116205000D03*
X129540000Y-101600000D03*
X102596920Y-30841920D03*
X139700000Y-157480000D03*
X109220000Y-86995000D03*
X132715000Y-112395000D03*
X109220000Y-111760000D03*
X127000000Y-102235000D03*
X139700000Y-156210000D03*
X132080000Y-117475000D03*
X118110000Y-88265000D03*
X116840000Y-112395000D03*
X132080000Y-113665000D03*
X132080000Y-118745000D03*
X138430000Y-156210000D03*
X124460000Y-103505000D03*
X132080000Y-101600000D03*
X138430000Y-173990000D03*
X140335000Y-161925000D03*
X132080000Y-114935000D03*
X101740489Y-34149511D03*
X132080000Y-120015000D03*
X121920000Y-104140000D03*
X117475000Y-115570000D03*
X123190000Y-112395000D03*
X124460000Y-71755000D03*
X125730000Y-172720000D03*
X123190000Y-122555000D03*
X113025000Y-116210000D03*
X113030000Y-77470000D03*
X121920000Y-73660000D03*
X120650000Y-112395000D03*
X111760000Y-114935000D03*
X121920000Y-122555000D03*
X110490000Y-78740000D03*
X110485000Y-118750000D03*
X118110000Y-112395000D03*
X119380000Y-74930000D03*
X109220000Y-114935000D03*
X120650000Y-122555000D03*
X107945000Y-119385000D03*
X107950000Y-80010000D03*
X106680000Y-113665000D03*
X115570000Y-76200000D03*
X115570000Y-112395000D03*
X119380000Y-122889700D03*
X105410000Y-81280000D03*
X105410000Y-120650000D03*
X101454511Y-31895489D03*
X114300000Y-112395000D03*
X104140000Y-111125000D03*
X136525000Y-39370000D03*
X129540000Y-34925000D03*
X124455000Y-64775000D03*
X113030000Y-67310000D03*
X136525000Y-26670000D03*
X117475000Y-36830000D03*
D17*
X126985000Y-40645000D02*
X126985000Y-42577500D01*
X109187500Y-42577500D02*
X105415000Y-42577500D01*
X116180000Y-42547500D02*
X116210000Y-42577500D01*
X116210000Y-42577500D02*
X109187500Y-42577500D01*
X96520000Y-112395000D02*
X94615000Y-112395000D01*
X130805000Y-63542500D02*
X134537500Y-63542500D01*
X140335000Y-109855000D02*
X99060000Y-109855000D01*
X105410000Y-157480000D02*
X105410000Y-148590000D01*
X105395000Y-40640000D02*
X105395000Y-42557500D01*
X105395000Y-42557500D02*
X105415000Y-42577500D01*
X109187500Y-42577500D02*
X109240000Y-42630000D01*
X114300000Y-148590000D02*
X121920000Y-148590000D01*
X136485000Y-61595000D02*
X141605000Y-61595000D01*
X121270000Y-42577500D02*
X116210000Y-42577500D01*
X96520000Y-60960000D02*
X103505000Y-60960000D01*
X137160000Y-152400000D02*
X133350000Y-148590000D01*
X133350000Y-148590000D02*
X129540000Y-148590000D01*
X121920000Y-148590000D02*
X129540000Y-148590000D01*
X126995000Y-46990000D02*
X134615000Y-46990000D01*
X116180000Y-40645000D02*
X116180000Y-42547500D01*
X99060000Y-109855000D02*
X96520000Y-112395000D01*
X114300000Y-121920000D02*
X114300000Y-125730000D01*
X142875000Y-112395000D02*
X140335000Y-109855000D01*
X95250000Y-148590000D02*
X105410000Y-148590000D01*
X121920000Y-152400000D02*
X121920000Y-148590000D01*
X106680000Y-121920000D02*
X114300000Y-121920000D01*
X126985000Y-42577500D02*
X121270000Y-42577500D01*
X105410000Y-148590000D02*
X114300000Y-148590000D01*
X141605000Y-61595000D02*
X142240000Y-60960000D01*
X106680000Y-121920000D02*
X95250000Y-121920000D01*
X109240000Y-42630000D02*
X109240000Y-44450000D01*
X134537500Y-63542500D02*
X136485000Y-61595000D01*
X97790000Y-175260000D02*
X97790000Y-180340000D01*
X112395000Y-145495000D02*
X112990000Y-146090000D01*
X91440000Y-114935000D02*
X91440000Y-121920000D01*
X133345000Y-107992500D02*
X144737500Y-107992500D01*
X91400000Y-146090000D02*
X91325700Y-146164300D01*
X116725700Y-180682900D02*
X116954300Y-180454300D01*
X91325700Y-180454300D02*
X91325700Y-146164300D01*
X132600700Y-180454300D02*
X144665700Y-180454300D01*
X114414300Y-180454300D02*
X116954300Y-180454300D01*
X114300000Y-175260000D02*
X114300000Y-180568600D01*
X144665700Y-180454300D02*
X144780000Y-180340000D01*
X96520000Y-107950000D02*
X92075000Y-107950000D01*
X96520000Y-109220000D02*
X96520000Y-107950000D01*
X97790000Y-146090000D02*
X91400000Y-146090000D01*
X114185700Y-187960000D02*
X114185700Y-180682900D01*
X91325700Y-187960000D02*
X91325700Y-180454300D01*
X129540000Y-146090000D02*
X121960000Y-146090000D01*
X134022500Y-59055000D02*
X144780000Y-59055000D01*
X129654300Y-180454300D02*
X132600700Y-180454300D01*
X106680000Y-140970000D02*
X106680000Y-146050000D01*
X116725700Y-187960000D02*
X116725700Y-180682900D01*
X131445000Y-146050000D02*
X131405000Y-146090000D01*
X91325700Y-146164300D02*
X91325700Y-122034300D01*
X121805700Y-187960000D02*
X121805700Y-180454300D01*
X119265700Y-187960000D02*
X119265700Y-180454300D01*
X111645700Y-187960000D02*
X111645700Y-180454300D01*
X131445000Y-143891000D02*
X131445000Y-146050000D01*
X97675700Y-180454300D02*
X111645700Y-180454300D01*
X121805700Y-180454300D02*
X129654300Y-180454300D01*
X114300000Y-135890000D02*
X112395000Y-135890000D01*
X106680000Y-146050000D02*
X106720000Y-146090000D01*
X121960000Y-146090000D02*
X114300000Y-146090000D01*
X91325700Y-180454300D02*
X97675700Y-180454300D01*
X114300000Y-180568600D02*
X114185700Y-180682900D01*
X133980000Y-59097500D02*
X133978469Y-59099031D01*
X106720000Y-146090000D02*
X97790000Y-146090000D01*
X116954300Y-180454300D02*
X119265700Y-180454300D01*
X97790000Y-180340000D02*
X97675700Y-180454300D01*
X112395000Y-135890000D02*
X112395000Y-145495000D01*
X114185700Y-180682900D02*
X114414300Y-180454300D01*
X131965700Y-181089300D02*
X132600700Y-180454300D01*
X131965700Y-187960000D02*
X131965700Y-181089300D01*
X91325700Y-122034300D02*
X91440000Y-121920000D01*
X131405000Y-146090000D02*
X129540000Y-146090000D01*
X119265700Y-180454300D02*
X121805700Y-180454300D01*
X133980000Y-61637500D02*
X133980000Y-59097500D01*
X114300000Y-146090000D02*
X112990000Y-146090000D01*
X112990000Y-146090000D02*
X106720000Y-146090000D01*
X133978469Y-59099031D02*
X134022500Y-59055000D01*
D18*
X105410000Y-167640000D02*
X97790000Y-175260000D01*
D17*
X111645700Y-180454300D02*
X114414300Y-180454300D01*
X96520000Y-107950000D02*
X96520000Y-106680000D01*
D18*
X137160000Y-78740000D02*
X121920000Y-78740000D01*
X124460000Y-157480000D02*
X125730000Y-156210000D01*
X125730000Y-156210000D02*
X133350000Y-156210000D01*
X133350000Y-156210000D02*
X133985000Y-156845000D01*
X121920000Y-157480000D02*
X124460000Y-157480000D01*
X142240000Y-83820000D02*
X137160000Y-78740000D01*
X138430000Y-153670000D02*
X133350000Y-153670000D01*
X139700000Y-88900000D02*
X142240000Y-86360000D01*
X127000000Y-88900000D02*
X139700000Y-88900000D01*
X129540000Y-157480000D02*
X132715000Y-157480000D01*
X121920000Y-160020000D02*
X124460000Y-160020000D01*
X142240000Y-81280000D02*
X138430000Y-77470000D01*
X125730000Y-158750000D02*
X132080000Y-158750000D01*
X124460000Y-160020000D02*
X125730000Y-158750000D01*
X138430000Y-77470000D02*
X124460000Y-77470000D01*
X135255000Y-160020000D02*
X129540000Y-160020000D01*
X138734031Y-160003731D02*
X137480300Y-158750000D01*
X129540000Y-90170000D02*
X140970000Y-90170000D01*
X136525000Y-158750000D02*
X135255000Y-160020000D01*
X138734031Y-162229031D02*
X138734031Y-160003731D01*
X140970000Y-90170000D02*
X142240000Y-88900000D01*
X137480300Y-158750000D02*
X136525000Y-158750000D01*
X140970000Y-164465000D02*
X138734031Y-162229031D01*
X126365000Y-168910000D02*
X125095000Y-167640000D01*
X131445000Y-168910000D02*
X126365000Y-168910000D01*
X139700000Y-76200000D02*
X127000000Y-76200000D01*
X142240000Y-78740000D02*
X139700000Y-76200000D01*
X125095000Y-167640000D02*
X121920000Y-167640000D01*
X129540000Y-167640000D02*
X132738722Y-167640000D01*
X132738722Y-167640000D02*
X136548722Y-171450000D01*
X136548722Y-171450000D02*
X142240000Y-171450000D01*
X132080000Y-91440000D02*
X142240000Y-91440000D01*
X140970000Y-74930000D02*
X130810000Y-74930000D01*
X120650000Y-141605000D02*
X132715000Y-141605000D01*
X142240000Y-76200000D02*
X140970000Y-74930000D01*
X133345000Y-92752500D02*
X141012500Y-92752500D01*
X141012500Y-92752500D02*
X142240000Y-93980000D01*
X126365000Y-170180000D02*
X129540000Y-170180000D01*
X143510000Y-177165000D02*
X128270000Y-177165000D01*
X120015000Y-169545000D02*
X120650000Y-168910000D01*
X125095000Y-168910000D02*
X126365000Y-170180000D01*
X120650000Y-168910000D02*
X125095000Y-168910000D01*
X118110000Y-170180000D02*
X114300000Y-170180000D01*
X131445000Y-140335000D02*
X120650000Y-140335000D01*
X118110000Y-170180000D02*
X118745000Y-170815000D01*
X133350000Y-73660000D02*
X142240000Y-73660000D01*
X137160000Y-170180000D02*
X143510000Y-170180000D01*
X140377500Y-94657500D02*
X142240000Y-96520000D01*
X117475000Y-166370000D02*
X133350000Y-166370000D01*
X130805000Y-94657500D02*
X140377500Y-94657500D01*
X133350000Y-166370000D02*
X137160000Y-170180000D01*
X133350000Y-163830000D02*
X117475000Y-163830000D01*
X137160000Y-167640000D02*
X143510000Y-167640000D01*
X137160000Y-167640000D02*
X133350000Y-163830000D01*
X128265000Y-95927500D02*
X139107500Y-95927500D01*
X139107500Y-95927500D02*
X142240000Y-99060000D01*
X130810000Y-139065000D02*
X120650000Y-139065000D01*
X132080000Y-71120000D02*
X142240000Y-71120000D01*
X141515489Y-165189511D02*
X143510000Y-163195000D01*
X138284511Y-162804125D02*
X140669897Y-165189511D01*
X113030000Y-161290000D02*
X135890000Y-161290000D01*
X135890000Y-161290000D02*
X137160000Y-160020000D01*
X111125000Y-163195000D02*
X113030000Y-161290000D01*
X138284511Y-161144511D02*
X138284511Y-162804125D01*
X111125000Y-173990000D02*
X111125000Y-163195000D01*
X143510000Y-163195000D02*
X143510000Y-160020000D01*
X125767500Y-97155000D02*
X137795000Y-97155000D01*
X137795000Y-97155000D02*
X142240000Y-101600000D01*
X140669897Y-165189511D02*
X141515489Y-165189511D01*
X125725000Y-97197500D02*
X125767500Y-97155000D01*
X137160000Y-160020000D02*
X138284511Y-161144511D01*
X109855000Y-163195000D02*
X109855000Y-175895000D01*
X130175000Y-137795000D02*
X120650000Y-137795000D01*
X114300000Y-160020000D02*
X113030000Y-160020000D01*
X129540000Y-68580000D02*
X142240000Y-68580000D01*
X113030000Y-160020000D02*
X109855000Y-163195000D01*
X93865700Y-181724300D02*
X93980000Y-181610000D01*
X106045000Y-181610000D02*
X106565700Y-182130700D01*
X93980000Y-181610000D02*
X106045000Y-181610000D01*
X93865700Y-187960000D02*
X93865700Y-181724300D01*
X106565700Y-182130700D02*
X106565700Y-187960000D01*
X131445000Y-67310000D02*
X127000000Y-67310000D01*
X109855000Y-157480000D02*
X114300000Y-157480000D01*
X142240000Y-66040000D02*
X132715000Y-66040000D01*
X132715000Y-66040000D02*
X131445000Y-67310000D01*
X109855000Y-157480000D02*
X108585000Y-157480000D01*
X129540000Y-136525000D02*
X120650000Y-136525000D01*
X103505000Y-182245000D02*
X104025700Y-182765700D01*
X96405700Y-182359300D02*
X96520000Y-182245000D01*
X96405700Y-187960000D02*
X96405700Y-182359300D01*
X96520000Y-182245000D02*
X103505000Y-182245000D01*
X104025700Y-182765700D02*
X104025700Y-187960000D01*
X143510000Y-157480000D02*
X142240000Y-158750000D01*
X139183551Y-159503551D02*
X137160000Y-157480000D01*
X142240000Y-161044614D02*
X140635103Y-162649511D01*
X107315000Y-156210000D02*
X123825000Y-156210000D01*
X140026613Y-162649511D02*
X139183551Y-161806449D01*
X126365000Y-153670000D02*
X130810000Y-153670000D01*
X136567500Y-98467500D02*
X142240000Y-104140000D01*
X140635103Y-162649511D02*
X140026613Y-162649511D01*
X139183551Y-161806449D02*
X139183551Y-159503551D01*
X142240000Y-158750000D02*
X142240000Y-161044614D01*
X132715000Y-155575000D02*
X135255000Y-155575000D01*
X135255000Y-155575000D02*
X137160000Y-157480000D01*
X123825000Y-156210000D02*
X126365000Y-153670000D01*
X123185000Y-98467500D02*
X136567500Y-98467500D01*
X130810000Y-153670000D02*
X132715000Y-155575000D01*
X98945700Y-182994300D02*
X99060000Y-182880000D01*
X99060000Y-182880000D02*
X100965000Y-182880000D01*
X101485700Y-183400700D02*
X101485700Y-187960000D01*
X101485700Y-183400700D02*
X100965000Y-182880000D01*
X98945700Y-187960000D02*
X98945700Y-182994300D01*
X99017500Y-56525000D02*
X100767011Y-58274511D01*
X128457989Y-58317011D02*
X133490489Y-58317011D01*
X133490489Y-58317011D02*
X134615000Y-57192500D01*
X100767011Y-58274511D02*
X128415489Y-58274511D01*
X128415489Y-58274511D02*
X128457989Y-58317011D01*
X99017500Y-53985000D02*
X100340000Y-53985000D01*
X100340000Y-53985000D02*
X101930969Y-55575969D01*
X110820969Y-55575969D02*
X111786938Y-54610000D01*
X129492500Y-54610000D02*
X132075000Y-57192500D01*
X111786938Y-54610000D02*
X114300000Y-54610000D01*
X101930969Y-55575969D02*
X110820969Y-55575969D01*
X114300000Y-54610000D02*
X129492500Y-54610000D01*
X102235000Y-53340000D02*
X119380000Y-53340000D01*
X100340000Y-51445000D02*
X102235000Y-53340000D01*
X99017500Y-51445000D02*
X100340000Y-51445000D01*
X100340000Y-48905000D02*
X103505000Y-52070000D01*
X125127500Y-30485000D02*
X123800000Y-30485000D01*
X128862500Y-30485000D02*
X127630000Y-29252500D01*
X103505000Y-52070000D02*
X116840000Y-52070000D01*
X116180000Y-30485000D02*
X123800000Y-30485000D01*
X127630000Y-29252500D02*
X126360000Y-29252500D01*
X126360000Y-29252500D02*
X125127500Y-30485000D01*
X134605000Y-30485000D02*
X128862500Y-30485000D01*
X99017500Y-48905000D02*
X100340000Y-48905000D01*
X99017500Y-46365000D02*
X107325000Y-46365000D01*
X107325000Y-46365000D02*
X109220000Y-48260000D01*
X99017500Y-43825000D02*
X97790000Y-45052500D01*
X97790000Y-45052500D02*
X97790000Y-46727800D01*
X98687200Y-47625000D02*
X105997500Y-47625000D01*
X105997500Y-47625000D02*
X109069511Y-50697011D01*
X97790000Y-46727800D02*
X98687200Y-47625000D01*
X99060000Y-35560000D02*
X97790000Y-36830000D01*
X110733478Y-57150000D02*
X111857989Y-56025489D01*
X106680000Y-57150000D02*
X110733478Y-57150000D01*
X97790000Y-40057500D02*
X99017500Y-41285000D01*
X129535000Y-57192500D02*
X128367989Y-56025489D01*
X105395000Y-35560000D02*
X99060000Y-35560000D01*
X128367989Y-56025489D02*
X111857989Y-56025489D01*
X97790000Y-36830000D02*
X97790000Y-40057500D01*
X111599511Y-39224511D02*
X113015000Y-40640000D01*
X99017500Y-38745000D02*
X99497011Y-39224511D01*
X113030000Y-57150000D02*
X126995000Y-57150000D01*
X99497011Y-39224511D02*
X111599511Y-39224511D01*
X125095000Y-175260000D02*
X126365000Y-173990000D01*
X123825000Y-153670000D02*
X107950000Y-153670000D01*
X126365000Y-173990000D02*
X130810000Y-173990000D01*
X121920000Y-175260000D02*
X125095000Y-175260000D01*
X123970489Y-153524511D02*
X123825000Y-153670000D01*
X132080000Y-175260000D02*
X137160000Y-175260000D01*
X126365000Y-151130000D02*
X133985000Y-151130000D01*
X130810000Y-173990000D02*
X132080000Y-175260000D01*
X123970489Y-153524511D02*
X126365000Y-151130000D01*
X133985000Y-151130000D02*
X135255000Y-152400000D01*
X132904520Y-110679520D02*
X107125480Y-110679520D01*
X96520000Y-86360000D02*
X100330000Y-86360000D01*
X133350000Y-111125000D02*
X132904520Y-110679520D01*
X107125480Y-110679520D02*
X106680000Y-111125000D01*
X104140000Y-82550000D02*
X106680000Y-82550000D01*
X100330000Y-86360000D02*
X104140000Y-82550000D01*
X142875000Y-154305000D02*
X139700000Y-157480000D01*
X102596920Y-28198080D02*
X105395000Y-25400000D01*
X134620000Y-118745000D02*
X134620000Y-132715718D01*
X142875000Y-140970718D02*
X142875000Y-154305000D01*
X129540000Y-101600000D02*
X128905000Y-100965000D01*
X132080000Y-116205000D02*
X134620000Y-118745000D01*
X117475000Y-96520000D02*
X121920000Y-100965000D01*
X96520000Y-96520000D02*
X117475000Y-96520000D01*
X102596920Y-30841920D02*
X102596920Y-28198080D01*
X134620000Y-132715718D02*
X142875000Y-140970718D01*
X121920000Y-100965000D02*
X128905000Y-100965000D01*
X109220000Y-111760000D02*
X109850960Y-111129040D01*
X98425000Y-86995000D02*
X96520000Y-88900000D01*
X109220000Y-86995000D02*
X98425000Y-86995000D01*
X109850960Y-111129040D02*
X131449040Y-111129040D01*
X131449040Y-111129040D02*
X132715000Y-112395000D01*
X142425480Y-141156916D02*
X142425480Y-153484520D01*
X132080000Y-117475000D02*
X133985000Y-119380000D01*
X96520000Y-99060000D02*
X118745000Y-99060000D01*
X133985000Y-132716434D02*
X142425480Y-141156916D01*
X142425480Y-153484520D02*
X139700000Y-156210000D01*
X121920000Y-102235000D02*
X127000000Y-102235000D01*
X133985000Y-119380000D02*
X133985000Y-132716434D01*
X118745000Y-99060000D02*
X121920000Y-102235000D01*
X96520000Y-91440000D02*
X99695000Y-88265000D01*
X99695000Y-88265000D02*
X118110000Y-88265000D01*
X129993560Y-111578560D02*
X117656440Y-111578560D01*
X117656440Y-111578560D02*
X116840000Y-112395000D01*
X132080000Y-113665000D02*
X129993560Y-111578560D01*
X141975960Y-141343114D02*
X141975960Y-152664040D01*
X141975960Y-152664040D02*
X138430000Y-156210000D01*
X132080000Y-118745000D02*
X133350000Y-120015000D01*
X133350000Y-120015000D02*
X133350000Y-132717152D01*
X123825000Y-102870000D02*
X124460000Y-103505000D01*
X96520000Y-101600000D02*
X120015000Y-101600000D01*
X120015000Y-101600000D02*
X121285000Y-102870000D01*
X121285000Y-102870000D02*
X123825000Y-102870000D01*
X133350000Y-132717152D02*
X141975960Y-141343114D01*
X132080000Y-172720000D02*
X133350000Y-173990000D01*
X135255000Y-132715000D02*
X143510000Y-140970000D01*
X133350000Y-173990000D02*
X138430000Y-173990000D01*
X129540000Y-172720000D02*
X132080000Y-172720000D01*
X123800000Y-33025000D02*
X126985000Y-33025000D01*
X143510000Y-156175182D02*
X140952591Y-158732591D01*
X135255000Y-34290000D02*
X130790000Y-34290000D01*
X132080000Y-114935000D02*
X135255000Y-118110000D01*
X130790000Y-34290000D02*
X129525000Y-33025000D01*
X135255000Y-118110000D02*
X135255000Y-132715000D01*
X140952591Y-161307409D02*
X140335000Y-161925000D01*
X143510000Y-140970000D02*
X143510000Y-156175182D01*
X130175000Y-99695000D02*
X121920000Y-99695000D01*
X140952591Y-158732591D02*
X140952591Y-161307409D01*
X134605000Y-38105000D02*
X135729511Y-36980489D01*
X123800000Y-33025000D02*
X122675489Y-34149511D01*
X121920000Y-99695000D02*
X116205000Y-93980000D01*
X129525000Y-33025000D02*
X126985000Y-33025000D01*
X135729511Y-34764511D02*
X135255000Y-34290000D01*
X135729511Y-36980489D02*
X135729511Y-34764511D01*
X132080000Y-101600000D02*
X130175000Y-99695000D01*
X116205000Y-93980000D02*
X96520000Y-93980000D01*
X122675489Y-34149511D02*
X101740489Y-34149511D01*
X141526440Y-151704930D02*
X138291370Y-154940000D01*
X136523566Y-136526434D02*
X141526440Y-141529312D01*
X138291370Y-154940000D02*
X137160000Y-154940000D01*
X132080000Y-120015000D02*
X132080000Y-132082868D01*
X141526440Y-141529312D02*
X141526440Y-151704930D01*
X96520000Y-104140000D02*
X121920000Y-104140000D01*
X132080000Y-132082868D02*
X136523566Y-136526434D01*
X96520000Y-66040000D02*
X98425000Y-66040000D01*
X104140000Y-71755000D02*
X124460000Y-71755000D01*
X120015000Y-115570000D02*
X123190000Y-112395000D01*
X117475000Y-115570000D02*
X120015000Y-115570000D01*
X98425000Y-66040000D02*
X104140000Y-71755000D01*
X116845000Y-116210000D02*
X123190000Y-122555000D01*
X121920000Y-172720000D02*
X125730000Y-172720000D01*
X104140000Y-77470000D02*
X102870000Y-76200000D01*
X102870000Y-76200000D02*
X96520000Y-76200000D01*
X113030000Y-77470000D02*
X104140000Y-77470000D01*
X113025000Y-116210000D02*
X116845000Y-116210000D01*
X111760000Y-114935000D02*
X116840000Y-114935000D01*
X99695000Y-68580000D02*
X96520000Y-68580000D01*
X116840000Y-114935000D02*
X119380000Y-112395000D01*
X104775000Y-73660000D02*
X99695000Y-68580000D01*
X121920000Y-73660000D02*
X104775000Y-73660000D01*
X119380000Y-112395000D02*
X120650000Y-112395000D01*
X116575960Y-117210960D02*
X121920000Y-122555000D01*
X113294040Y-117210960D02*
X116575960Y-117210960D01*
X110485000Y-118750000D02*
X111755000Y-118750000D01*
X110490000Y-78740000D02*
X96520000Y-78740000D01*
X111755000Y-118750000D02*
X113294040Y-117210960D01*
X100965000Y-71120000D02*
X104775000Y-74930000D01*
X110040480Y-114114520D02*
X116390480Y-114114520D01*
X116390480Y-114114520D02*
X118110000Y-112395000D01*
X104775000Y-74930000D02*
X119380000Y-74930000D01*
X96520000Y-71120000D02*
X100965000Y-71120000D01*
X109220000Y-114935000D02*
X110040480Y-114114520D01*
X107950000Y-80010000D02*
X102235000Y-80010000D01*
X113813503Y-117660480D02*
X115755480Y-117660480D01*
X108575000Y-120015000D02*
X111458982Y-120015000D01*
X102235000Y-80010000D02*
X100965000Y-81280000D01*
X115755480Y-117660480D02*
X120650000Y-122555000D01*
X107945000Y-119385000D02*
X108575000Y-120015000D01*
X100965000Y-81280000D02*
X96520000Y-81280000D01*
X111458982Y-120015000D02*
X113813503Y-117660480D01*
X104775000Y-76200000D02*
X115570000Y-76200000D01*
X96520000Y-73660000D02*
X102235000Y-73660000D01*
X114300000Y-113665000D02*
X115570000Y-112395000D01*
X106680000Y-113665000D02*
X114300000Y-113665000D01*
X102235000Y-73660000D02*
X104775000Y-76200000D01*
X113999700Y-118110000D02*
X111459700Y-120650000D01*
X111459700Y-120650000D02*
X105410000Y-120650000D01*
X102870000Y-81280000D02*
X100330000Y-83820000D01*
X100330000Y-83820000D02*
X96520000Y-83820000D01*
X114600300Y-118110000D02*
X113999700Y-118110000D01*
X119380000Y-122889700D02*
X114600300Y-118110000D01*
X105410000Y-81280000D02*
X102870000Y-81280000D01*
X134605000Y-33025000D02*
X133475489Y-31895489D01*
X133475489Y-31895489D02*
X101454511Y-31895489D01*
X113665000Y-111760000D02*
X114300000Y-112395000D01*
X104140000Y-111125000D02*
X105499511Y-112484511D01*
X109765489Y-112484511D02*
X110490000Y-111760000D01*
X105499511Y-112484511D02*
X109765489Y-112484511D01*
X123190000Y-67310000D02*
X125730000Y-64770000D01*
X110490000Y-111760000D02*
X113665000Y-111760000D01*
X118152500Y-67310000D02*
X123190000Y-67310000D01*
X125730000Y-64770000D02*
X140970000Y-64770000D01*
X140970000Y-64770000D02*
X142240000Y-63500000D01*
X115570000Y-69892500D02*
X118152500Y-67310000D01*
X125075000Y-39370000D02*
X136525000Y-39370000D01*
X123800000Y-40645000D02*
X125075000Y-39370000D01*
X113030000Y-64770000D02*
X113030000Y-67310000D01*
X123800000Y-35565000D02*
X125075000Y-34290000D01*
X124450000Y-64770000D02*
X113030000Y-64770000D01*
X125075000Y-34290000D02*
X128905000Y-34290000D01*
X124455000Y-64775000D02*
X124450000Y-64770000D01*
X128905000Y-34290000D02*
X129540000Y-34925000D01*
X136525000Y-26670000D02*
X125075000Y-26670000D01*
X125075000Y-26670000D02*
X123800000Y-27945000D01*
X126947500Y-27982500D02*
X126360000Y-27982500D01*
X125090000Y-29252500D02*
X114327500Y-29252500D01*
X114327500Y-29252500D02*
X113015000Y-27940000D01*
X126360000Y-27982500D02*
X125090000Y-29252500D01*
X126985000Y-27945000D02*
X126947500Y-27982500D01*
X130175000Y-36830000D02*
X117475000Y-36830000D01*
X131440000Y-35565000D02*
X130175000Y-36830000D01*
X134605000Y-35565000D02*
X131440000Y-35565000D01*
G04 #@! TA.AperFunction,Conductor*
G36*
X93980000Y-27459922D02*
G01*
X93959998Y-27528043D01*
X93926451Y-27563009D01*
X93919977Y-27567559D01*
X93709378Y-27763260D01*
X93527287Y-27985732D01*
X93377073Y-28230858D01*
X93261517Y-28494102D01*
X93182756Y-28770594D01*
X93142249Y-29055216D01*
X93140743Y-29342703D01*
X93178268Y-29627734D01*
X93254129Y-29905036D01*
X93366923Y-30169476D01*
X93514561Y-30416161D01*
X93694313Y-30640528D01*
X93902851Y-30838423D01*
X93906325Y-30840919D01*
X93906333Y-30840926D01*
X93927527Y-30856155D01*
X93971174Y-30912150D01*
X93980000Y-30958477D01*
X93980000Y-111551624D01*
X93959998Y-111619745D01*
X93933636Y-111649267D01*
X93905713Y-111672040D01*
X93905710Y-111672043D01*
X93900938Y-111675935D01*
X93897011Y-111680682D01*
X93897009Y-111680684D01*
X93778799Y-111823575D01*
X93778797Y-111823579D01*
X93774870Y-111828325D01*
X93680802Y-112002299D01*
X93622318Y-112191232D01*
X93601645Y-112387925D01*
X93619570Y-112584888D01*
X93675410Y-112774619D01*
X93767040Y-112949890D01*
X93890968Y-113104025D01*
X93934993Y-113140966D01*
X93974318Y-113200075D01*
X93980000Y-113237486D01*
X93980000Y-130528468D01*
X93959998Y-130596589D01*
X93901200Y-130645293D01*
X93588648Y-130771572D01*
X93588644Y-130771574D01*
X93585384Y-130772891D01*
X93582297Y-130774560D01*
X93582293Y-130774562D01*
X93549658Y-130792208D01*
X93270943Y-130942909D01*
X92977412Y-131146918D01*
X92974770Y-131149231D01*
X92974766Y-131149234D01*
X92727928Y-131365325D01*
X92708452Y-131382375D01*
X92467414Y-131646345D01*
X92257303Y-131935539D01*
X92080737Y-132246351D01*
X91939917Y-132574907D01*
X91836599Y-132917113D01*
X91772070Y-133268703D01*
X91747135Y-133625295D01*
X91748052Y-133647174D01*
X91762104Y-133982445D01*
X91816791Y-134335699D01*
X91910514Y-134680657D01*
X92042104Y-135013017D01*
X92209923Y-135328638D01*
X92411878Y-135623585D01*
X92645451Y-135894183D01*
X92907732Y-136137058D01*
X93195452Y-136349183D01*
X93505024Y-136527914D01*
X93637659Y-136585861D01*
X93829368Y-136669617D01*
X93829371Y-136669618D01*
X93832589Y-136671024D01*
X93891258Y-136689185D01*
X93950418Y-136728436D01*
X93978966Y-136793440D01*
X93980000Y-136809550D01*
X93980000Y-177165000D01*
X89408500Y-177165000D01*
X89408500Y-115873537D01*
X89408688Y-115866656D01*
X89900130Y-106880678D01*
X89901441Y-106868182D01*
X89901893Y-106865281D01*
X89901894Y-106865274D01*
X89902641Y-106860473D01*
X89902641Y-106838194D01*
X89902829Y-106831313D01*
X89903631Y-106816645D01*
X89903876Y-106812169D01*
X89903124Y-106803607D01*
X89902641Y-106792583D01*
X89902641Y-56956900D01*
X89922643Y-56888779D01*
X89976299Y-56842286D01*
X90046573Y-56832182D01*
X90111153Y-56861676D01*
X90150348Y-56924289D01*
X90162264Y-56968761D01*
X90166010Y-56979053D01*
X90258086Y-57176511D01*
X90263569Y-57186007D01*
X90388528Y-57364467D01*
X90395584Y-57372875D01*
X90549625Y-57526916D01*
X90558033Y-57533972D01*
X90736493Y-57658931D01*
X90745989Y-57664414D01*
X90943447Y-57756490D01*
X90953739Y-57760236D01*
X91126003Y-57806394D01*
X91140099Y-57806058D01*
X91143500Y-57798116D01*
X91143500Y-57792967D01*
X91651500Y-57792967D01*
X91655473Y-57806498D01*
X91664022Y-57807727D01*
X91841261Y-57760236D01*
X91851553Y-57756490D01*
X92049011Y-57664414D01*
X92058507Y-57658931D01*
X92236967Y-57533972D01*
X92245375Y-57526916D01*
X92399416Y-57372875D01*
X92406472Y-57364467D01*
X92531431Y-57186007D01*
X92536914Y-57176511D01*
X92628990Y-56979053D01*
X92632736Y-56968761D01*
X92678894Y-56796497D01*
X92678558Y-56782401D01*
X92670616Y-56779000D01*
X91669615Y-56779000D01*
X91654376Y-56783475D01*
X91653171Y-56784865D01*
X91651500Y-56792548D01*
X91651500Y-57792967D01*
X91143500Y-57792967D01*
X91143500Y-56252885D01*
X91651500Y-56252885D01*
X91655975Y-56268124D01*
X91657365Y-56269329D01*
X91665048Y-56271000D01*
X92665467Y-56271000D01*
X92678998Y-56267027D01*
X92680227Y-56258478D01*
X92632736Y-56081239D01*
X92628990Y-56070947D01*
X92536914Y-55873489D01*
X92531431Y-55863993D01*
X92406472Y-55685533D01*
X92399416Y-55677125D01*
X92245375Y-55523084D01*
X92236967Y-55516028D01*
X92058507Y-55391069D01*
X92049011Y-55385586D01*
X92013859Y-55369195D01*
X91960574Y-55322278D01*
X91941113Y-55254001D01*
X91961655Y-55186041D01*
X92013859Y-55140805D01*
X92049011Y-55124414D01*
X92058507Y-55118931D01*
X92236967Y-54993972D01*
X92245375Y-54986916D01*
X92399416Y-54832875D01*
X92406472Y-54824467D01*
X92531431Y-54646007D01*
X92536914Y-54636511D01*
X92628990Y-54439053D01*
X92632736Y-54428761D01*
X92678894Y-54256497D01*
X92678558Y-54242401D01*
X92670616Y-54239000D01*
X91669615Y-54239000D01*
X91654376Y-54243475D01*
X91653171Y-54244865D01*
X91651500Y-54252548D01*
X91651500Y-56252885D01*
X91143500Y-56252885D01*
X91143500Y-53712885D01*
X91651500Y-53712885D01*
X91655975Y-53728124D01*
X91657365Y-53729329D01*
X91665048Y-53731000D01*
X92665467Y-53731000D01*
X92678998Y-53727027D01*
X92680227Y-53718478D01*
X92632736Y-53541239D01*
X92628990Y-53530947D01*
X92536914Y-53333489D01*
X92531431Y-53323993D01*
X92406472Y-53145533D01*
X92399416Y-53137125D01*
X92245375Y-52983084D01*
X92236967Y-52976028D01*
X92058507Y-52851069D01*
X92049011Y-52845586D01*
X92013859Y-52829195D01*
X91960574Y-52782278D01*
X91941113Y-52714001D01*
X91961655Y-52646041D01*
X92013859Y-52600805D01*
X92049011Y-52584414D01*
X92058507Y-52578931D01*
X92236967Y-52453972D01*
X92245375Y-52446916D01*
X92399416Y-52292875D01*
X92406472Y-52284467D01*
X92531431Y-52106007D01*
X92536914Y-52096511D01*
X92628990Y-51899053D01*
X92632736Y-51888761D01*
X92678894Y-51716497D01*
X92678558Y-51702401D01*
X92670616Y-51699000D01*
X91669615Y-51699000D01*
X91654376Y-51703475D01*
X91653171Y-51704865D01*
X91651500Y-51712548D01*
X91651500Y-53712885D01*
X91143500Y-53712885D01*
X91143500Y-51172885D01*
X91651500Y-51172885D01*
X91655975Y-51188124D01*
X91657365Y-51189329D01*
X91665048Y-51191000D01*
X92665467Y-51191000D01*
X92678998Y-51187027D01*
X92680227Y-51178478D01*
X92632736Y-51001239D01*
X92628990Y-50990947D01*
X92536914Y-50793489D01*
X92531431Y-50783993D01*
X92406472Y-50605533D01*
X92399416Y-50597125D01*
X92245375Y-50443084D01*
X92236967Y-50436028D01*
X92058507Y-50311069D01*
X92049011Y-50305586D01*
X92013859Y-50289195D01*
X91960574Y-50242278D01*
X91941113Y-50174001D01*
X91961655Y-50106041D01*
X92013859Y-50060805D01*
X92049011Y-50044414D01*
X92058507Y-50038931D01*
X92236967Y-49913972D01*
X92245375Y-49906916D01*
X92399416Y-49752875D01*
X92406472Y-49744467D01*
X92531431Y-49566007D01*
X92536914Y-49556511D01*
X92628990Y-49359053D01*
X92632736Y-49348761D01*
X92678894Y-49176497D01*
X92678558Y-49162401D01*
X92670616Y-49159000D01*
X91669615Y-49159000D01*
X91654376Y-49163475D01*
X91653171Y-49164865D01*
X91651500Y-49172548D01*
X91651500Y-51172885D01*
X91143500Y-51172885D01*
X91143500Y-48632885D01*
X91651500Y-48632885D01*
X91655975Y-48648124D01*
X91657365Y-48649329D01*
X91665048Y-48651000D01*
X92665467Y-48651000D01*
X92678998Y-48647027D01*
X92680227Y-48638478D01*
X92632736Y-48461239D01*
X92628990Y-48450947D01*
X92536914Y-48253489D01*
X92531431Y-48243993D01*
X92406472Y-48065533D01*
X92399416Y-48057125D01*
X92245375Y-47903084D01*
X92236967Y-47896028D01*
X92058507Y-47771069D01*
X92049011Y-47765586D01*
X92013859Y-47749195D01*
X91960574Y-47702278D01*
X91941113Y-47634001D01*
X91961655Y-47566041D01*
X92013859Y-47520805D01*
X92049011Y-47504414D01*
X92058507Y-47498931D01*
X92236967Y-47373972D01*
X92245375Y-47366916D01*
X92399416Y-47212875D01*
X92406472Y-47204467D01*
X92531431Y-47026007D01*
X92536914Y-47016511D01*
X92628990Y-46819053D01*
X92632736Y-46808761D01*
X92678894Y-46636497D01*
X92678558Y-46622401D01*
X92670616Y-46619000D01*
X91669615Y-46619000D01*
X91654376Y-46623475D01*
X91653171Y-46624865D01*
X91651500Y-46632548D01*
X91651500Y-48632885D01*
X91143500Y-48632885D01*
X91143500Y-46092885D01*
X91651500Y-46092885D01*
X91655975Y-46108124D01*
X91657365Y-46109329D01*
X91665048Y-46111000D01*
X92665467Y-46111000D01*
X92678998Y-46107027D01*
X92680227Y-46098478D01*
X92632736Y-45921239D01*
X92628990Y-45910947D01*
X92536914Y-45713489D01*
X92531431Y-45703993D01*
X92406472Y-45525533D01*
X92399416Y-45517125D01*
X92245375Y-45363084D01*
X92236967Y-45356028D01*
X92058507Y-45231069D01*
X92049011Y-45225586D01*
X92013859Y-45209195D01*
X91960574Y-45162278D01*
X91941113Y-45094001D01*
X91961655Y-45026041D01*
X92013859Y-44980805D01*
X92049011Y-44964414D01*
X92058507Y-44958931D01*
X92236967Y-44833972D01*
X92245375Y-44826916D01*
X92399416Y-44672875D01*
X92406472Y-44664467D01*
X92531431Y-44486007D01*
X92536914Y-44476511D01*
X92628990Y-44279053D01*
X92632736Y-44268761D01*
X92678894Y-44096497D01*
X92678558Y-44082401D01*
X92670616Y-44079000D01*
X91669615Y-44079000D01*
X91654376Y-44083475D01*
X91653171Y-44084865D01*
X91651500Y-44092548D01*
X91651500Y-46092885D01*
X91143500Y-46092885D01*
X91143500Y-43552885D01*
X91651500Y-43552885D01*
X91655975Y-43568124D01*
X91657365Y-43569329D01*
X91665048Y-43571000D01*
X92665467Y-43571000D01*
X92678998Y-43567027D01*
X92680227Y-43558478D01*
X92632736Y-43381239D01*
X92628990Y-43370947D01*
X92536914Y-43173489D01*
X92531431Y-43163993D01*
X92406472Y-42985533D01*
X92399416Y-42977125D01*
X92245375Y-42823084D01*
X92236967Y-42816028D01*
X92058507Y-42691069D01*
X92049011Y-42685586D01*
X92013859Y-42669195D01*
X91960574Y-42622278D01*
X91941113Y-42554001D01*
X91961655Y-42486041D01*
X92013859Y-42440805D01*
X92049011Y-42424414D01*
X92058507Y-42418931D01*
X92236967Y-42293972D01*
X92245375Y-42286916D01*
X92399416Y-42132875D01*
X92406472Y-42124467D01*
X92531431Y-41946007D01*
X92536914Y-41936511D01*
X92628990Y-41739053D01*
X92632736Y-41728761D01*
X92678894Y-41556497D01*
X92678558Y-41542401D01*
X92670616Y-41539000D01*
X91669615Y-41539000D01*
X91654376Y-41543475D01*
X91653171Y-41544865D01*
X91651500Y-41552548D01*
X91651500Y-43552885D01*
X91143500Y-43552885D01*
X91143500Y-41012885D01*
X91651500Y-41012885D01*
X91655975Y-41028124D01*
X91657365Y-41029329D01*
X91665048Y-41031000D01*
X92665467Y-41031000D01*
X92678998Y-41027027D01*
X92680227Y-41018478D01*
X92632736Y-40841239D01*
X92628990Y-40830947D01*
X92536914Y-40633489D01*
X92531431Y-40623993D01*
X92406472Y-40445533D01*
X92399416Y-40437125D01*
X92245375Y-40283084D01*
X92236967Y-40276028D01*
X92058507Y-40151069D01*
X92049011Y-40145586D01*
X92013859Y-40129195D01*
X91960574Y-40082278D01*
X91941113Y-40014001D01*
X91961655Y-39946041D01*
X92013859Y-39900805D01*
X92049011Y-39884414D01*
X92058507Y-39878931D01*
X92236967Y-39753972D01*
X92245375Y-39746916D01*
X92399416Y-39592875D01*
X92406472Y-39584467D01*
X92531431Y-39406007D01*
X92536914Y-39396511D01*
X92628990Y-39199053D01*
X92632736Y-39188761D01*
X92678894Y-39016497D01*
X92678558Y-39002401D01*
X92670616Y-38999000D01*
X91669615Y-38999000D01*
X91654376Y-39003475D01*
X91653171Y-39004865D01*
X91651500Y-39012548D01*
X91651500Y-41012885D01*
X91143500Y-41012885D01*
X91143500Y-38472885D01*
X91651500Y-38472885D01*
X91655975Y-38488124D01*
X91657365Y-38489329D01*
X91665048Y-38491000D01*
X92665467Y-38491000D01*
X92678998Y-38487027D01*
X92680227Y-38478478D01*
X92632736Y-38301239D01*
X92628990Y-38290947D01*
X92536914Y-38093489D01*
X92531431Y-38083993D01*
X92406472Y-37905533D01*
X92399416Y-37897125D01*
X92245375Y-37743084D01*
X92236967Y-37736028D01*
X92058507Y-37611069D01*
X92049011Y-37605586D01*
X91851553Y-37513510D01*
X91841261Y-37509764D01*
X91668997Y-37463606D01*
X91654901Y-37463942D01*
X91651500Y-37471884D01*
X91651500Y-38472885D01*
X91143500Y-38472885D01*
X91143500Y-37477033D01*
X91139527Y-37463502D01*
X91130978Y-37462273D01*
X90953739Y-37509764D01*
X90943447Y-37513510D01*
X90745989Y-37605586D01*
X90736493Y-37611069D01*
X90558033Y-37736028D01*
X90549625Y-37743084D01*
X90395584Y-37897125D01*
X90388528Y-37905533D01*
X90263569Y-38083993D01*
X90258086Y-38093489D01*
X90166010Y-38290947D01*
X90162264Y-38301239D01*
X90150348Y-38345711D01*
X90113396Y-38406334D01*
X90049536Y-38437355D01*
X89979041Y-38428927D01*
X89924294Y-38383724D01*
X89902641Y-38313100D01*
X89902641Y-24818250D01*
X89904387Y-24797345D01*
X89906911Y-24782344D01*
X89906911Y-24782341D01*
X89907717Y-24777552D01*
X89907870Y-24765000D01*
X89905333Y-24747284D01*
X89904148Y-24724712D01*
X89920575Y-24285724D01*
X89921279Y-24276329D01*
X89974451Y-23804408D01*
X89975856Y-23795090D01*
X90064143Y-23328488D01*
X90066239Y-23319302D01*
X90189156Y-22860569D01*
X90191934Y-22851565D01*
X90348778Y-22403334D01*
X90352220Y-22394562D01*
X90542136Y-21959271D01*
X90546225Y-21950782D01*
X90768124Y-21530930D01*
X90772835Y-21522770D01*
X91025496Y-21120665D01*
X91030804Y-21112880D01*
X91312816Y-20730768D01*
X91318669Y-20723427D01*
X91628464Y-20363441D01*
X91634861Y-20356547D01*
X91970668Y-20020742D01*
X91977575Y-20014333D01*
X92337537Y-19704563D01*
X92344904Y-19698689D01*
X92727013Y-19416681D01*
X92734798Y-19411373D01*
X93136897Y-19158719D01*
X93145058Y-19154007D01*
X93564926Y-18932103D01*
X93573415Y-18928015D01*
X93729079Y-18860100D01*
X93980000Y-18750626D01*
X93980000Y-27459922D01*
G37*
G04 #@! TD.AperFunction*
G04 #@! TA.AperFunction,Conductor*
G36*
X127311166Y-177185002D02*
G01*
X127357659Y-177238658D01*
X127368355Y-177277829D01*
X127376458Y-177354928D01*
X127435473Y-177536556D01*
X127530960Y-177701944D01*
X127658747Y-177843866D01*
X127813248Y-177956118D01*
X127819276Y-177958802D01*
X127819278Y-177958803D01*
X127981681Y-178031109D01*
X127987712Y-178033794D01*
X128081113Y-178053647D01*
X128168056Y-178072128D01*
X128168061Y-178072128D01*
X128174513Y-178073500D01*
X128365487Y-178073500D01*
X128371939Y-178072128D01*
X128371944Y-178072128D01*
X128458887Y-178053647D01*
X128552288Y-178033794D01*
X128558319Y-178031109D01*
X128720722Y-177958803D01*
X128720724Y-177958802D01*
X128726752Y-177956118D01*
X128881253Y-177843866D01*
X128885668Y-177838963D01*
X128890580Y-177834540D01*
X128891705Y-177835789D01*
X128945014Y-177802949D01*
X128978200Y-177798500D01*
X142801800Y-177798500D01*
X142869921Y-177818502D01*
X142889147Y-177834843D01*
X142889420Y-177834540D01*
X142894332Y-177838963D01*
X142898747Y-177843866D01*
X143053248Y-177956118D01*
X143059276Y-177958802D01*
X143059278Y-177958803D01*
X143221681Y-178031109D01*
X143227712Y-178033794D01*
X143321113Y-178053647D01*
X143408056Y-178072128D01*
X143408061Y-178072128D01*
X143414513Y-178073500D01*
X143605487Y-178073500D01*
X143611939Y-178072128D01*
X143611944Y-178072128D01*
X143698887Y-178053647D01*
X143792288Y-178033794D01*
X143798319Y-178031109D01*
X143960722Y-177958803D01*
X143960724Y-177958802D01*
X143966752Y-177956118D01*
X144121253Y-177843866D01*
X144249040Y-177701944D01*
X144344527Y-177536556D01*
X144403542Y-177354928D01*
X144423504Y-177165000D01*
X146582900Y-177165000D01*
X146582900Y-182754000D01*
X146562898Y-182822121D01*
X146509242Y-182868614D01*
X146456900Y-182880000D01*
X107325200Y-182880000D01*
X107257079Y-182859998D01*
X107210586Y-182806342D01*
X107199200Y-182754000D01*
X107199200Y-182209467D01*
X107199727Y-182198284D01*
X107201402Y-182190791D01*
X107199262Y-182122714D01*
X107199200Y-182118755D01*
X107199200Y-182090844D01*
X107198695Y-182086844D01*
X107197762Y-182075001D01*
X107196622Y-182038730D01*
X107196373Y-182030811D01*
X107190721Y-182011357D01*
X107186713Y-181992000D01*
X107185168Y-181979770D01*
X107185168Y-181979769D01*
X107184174Y-181971903D01*
X107181255Y-181964530D01*
X107167896Y-181930788D01*
X107164051Y-181919558D01*
X107153929Y-181884717D01*
X107153929Y-181884716D01*
X107151718Y-181877107D01*
X107147685Y-181870288D01*
X107147683Y-181870283D01*
X107141407Y-181859672D01*
X107132712Y-181841924D01*
X107125252Y-181823083D01*
X107099264Y-181787313D01*
X107092748Y-181777393D01*
X107074280Y-181746165D01*
X107074278Y-181746162D01*
X107070242Y-181739338D01*
X107055921Y-181725017D01*
X107043080Y-181709983D01*
X107035832Y-181700007D01*
X107031172Y-181693593D01*
X106997107Y-181665412D01*
X106988326Y-181657422D01*
X106548647Y-181217742D01*
X106541113Y-181209463D01*
X106537000Y-181202982D01*
X106487348Y-181156356D01*
X106484507Y-181153602D01*
X106464770Y-181133865D01*
X106461573Y-181131385D01*
X106452551Y-181123680D01*
X106448400Y-181119782D01*
X106420321Y-181093414D01*
X106413375Y-181089595D01*
X106413372Y-181089593D01*
X106402566Y-181083652D01*
X106386047Y-181072801D01*
X106385583Y-181072441D01*
X106370041Y-181060386D01*
X106362772Y-181057241D01*
X106362768Y-181057238D01*
X106329463Y-181042826D01*
X106318813Y-181037609D01*
X106280060Y-181016305D01*
X106260437Y-181011267D01*
X106241734Y-181004863D01*
X106230420Y-180999967D01*
X106230419Y-180999967D01*
X106223145Y-180996819D01*
X106215322Y-180995580D01*
X106215312Y-180995577D01*
X106179476Y-180989901D01*
X106167856Y-180987495D01*
X106132711Y-180978472D01*
X106132710Y-180978472D01*
X106125030Y-180976500D01*
X106104776Y-180976500D01*
X106085065Y-180974949D01*
X106072886Y-180973020D01*
X106065057Y-180971780D01*
X106035786Y-180974547D01*
X106021039Y-180975941D01*
X106009181Y-180976500D01*
X94058768Y-180976500D01*
X94047585Y-180975973D01*
X94040092Y-180974298D01*
X94032166Y-180974547D01*
X94032165Y-180974547D01*
X93972002Y-180976438D01*
X93968044Y-180976500D01*
X93940144Y-180976500D01*
X93936154Y-180977004D01*
X93924320Y-180977936D01*
X93880111Y-180979326D01*
X93872495Y-180981539D01*
X93872493Y-180981539D01*
X93860652Y-180984979D01*
X93841293Y-180988988D01*
X93839983Y-180989154D01*
X93821203Y-180991526D01*
X93813837Y-180994442D01*
X93813831Y-180994444D01*
X93780098Y-181007800D01*
X93768868Y-181011645D01*
X93752828Y-181016305D01*
X93726407Y-181023981D01*
X93719584Y-181028016D01*
X93708966Y-181034295D01*
X93691213Y-181042992D01*
X93683568Y-181046019D01*
X93672383Y-181050448D01*
X93658705Y-181060386D01*
X93636612Y-181076437D01*
X93626695Y-181082951D01*
X93588638Y-181105458D01*
X93574314Y-181119782D01*
X93559287Y-181132617D01*
X93542893Y-181144528D01*
X93537840Y-181150636D01*
X93537838Y-181150638D01*
X93514708Y-181178598D01*
X93506718Y-181187378D01*
X93473449Y-181220647D01*
X93465160Y-181228190D01*
X93458682Y-181232300D01*
X93453259Y-181238075D01*
X93412072Y-181281936D01*
X93409316Y-181284780D01*
X93389565Y-181304530D01*
X93387085Y-181307727D01*
X93379382Y-181316747D01*
X93349114Y-181348979D01*
X93345295Y-181355925D01*
X93345293Y-181355928D01*
X93339352Y-181366734D01*
X93328501Y-181383253D01*
X93316086Y-181399259D01*
X93312941Y-181406528D01*
X93312938Y-181406532D01*
X93298526Y-181439837D01*
X93293309Y-181450487D01*
X93272005Y-181489240D01*
X93270034Y-181496915D01*
X93270034Y-181496916D01*
X93266967Y-181508862D01*
X93260563Y-181527566D01*
X93252519Y-181546155D01*
X93251280Y-181553978D01*
X93251277Y-181553988D01*
X93245601Y-181589824D01*
X93243195Y-181601444D01*
X93232200Y-181644270D01*
X93232200Y-181664524D01*
X93230649Y-181684234D01*
X93227480Y-181704243D01*
X93230798Y-181739338D01*
X93231641Y-181748261D01*
X93232200Y-181760119D01*
X93232200Y-182754000D01*
X93212198Y-182822121D01*
X93158542Y-182868614D01*
X93106200Y-182880000D01*
X89534500Y-182880000D01*
X89466379Y-182859998D01*
X89419886Y-182806342D01*
X89408500Y-182754000D01*
X89408500Y-177165000D01*
X127243045Y-177165000D01*
X127311166Y-177185002D01*
G37*
G04 #@! TD.AperFunction*
G04 #@! TA.AperFunction,Conductor*
G36*
X139810880Y-18290000D02*
G01*
X139825713Y-18292310D01*
X139825717Y-18292310D01*
X139834586Y-18293691D01*
X139856365Y-18290843D01*
X139877409Y-18289867D01*
X140088009Y-18297746D01*
X140320141Y-18306431D01*
X140329537Y-18307135D01*
X140801450Y-18360304D01*
X140810767Y-18361708D01*
X141277394Y-18449996D01*
X141286581Y-18452093D01*
X141745306Y-18575006D01*
X141754310Y-18577784D01*
X142202551Y-18734628D01*
X142211322Y-18738070D01*
X142646597Y-18927975D01*
X142655087Y-18932063D01*
X142875000Y-19048290D01*
X142875000Y-25908000D01*
X137062770Y-25908000D01*
X136994649Y-25887998D01*
X136988707Y-25883935D01*
X136987091Y-25882761D01*
X136981752Y-25878882D01*
X136915182Y-25849243D01*
X136813319Y-25803891D01*
X136813318Y-25803891D01*
X136807288Y-25801206D01*
X136713888Y-25781353D01*
X136626944Y-25762872D01*
X136626939Y-25762872D01*
X136620487Y-25761500D01*
X136429513Y-25761500D01*
X136423061Y-25762872D01*
X136423056Y-25762872D01*
X136336112Y-25781353D01*
X136242712Y-25801206D01*
X136236682Y-25803891D01*
X136236681Y-25803891D01*
X136134819Y-25849243D01*
X136068248Y-25878882D01*
X136062911Y-25882760D01*
X136057186Y-25886065D01*
X136056575Y-25885006D01*
X135996077Y-25906586D01*
X135926927Y-25890500D01*
X135877450Y-25839583D01*
X135863356Y-25769999D01*
X135867186Y-25748179D01*
X135886394Y-25676496D01*
X135886058Y-25662401D01*
X135878116Y-25659000D01*
X133337033Y-25659000D01*
X133323502Y-25662973D01*
X133322273Y-25671521D01*
X133343138Y-25749388D01*
X133341448Y-25820365D01*
X133301654Y-25879161D01*
X133236390Y-25907109D01*
X133221431Y-25908000D01*
X128369087Y-25908000D01*
X128300966Y-25887998D01*
X128254473Y-25834342D01*
X128244369Y-25764068D01*
X128247380Y-25749389D01*
X128277119Y-25638402D01*
X128277119Y-25638400D01*
X128278543Y-25633087D01*
X128298498Y-25405000D01*
X128278543Y-25176913D01*
X128270829Y-25148124D01*
X128266911Y-25133503D01*
X133323606Y-25133503D01*
X133323942Y-25147599D01*
X133331884Y-25151000D01*
X134332885Y-25151000D01*
X134348124Y-25146525D01*
X134349329Y-25145135D01*
X134351000Y-25137452D01*
X134351000Y-25132885D01*
X134859000Y-25132885D01*
X134863475Y-25148124D01*
X134864865Y-25149329D01*
X134872548Y-25151000D01*
X135872967Y-25151000D01*
X135886498Y-25147027D01*
X135887727Y-25138478D01*
X135840236Y-24961239D01*
X135836490Y-24950947D01*
X135744414Y-24753489D01*
X135738931Y-24743993D01*
X135613972Y-24565533D01*
X135606916Y-24557125D01*
X135452875Y-24403084D01*
X135444467Y-24396028D01*
X135266007Y-24271069D01*
X135256511Y-24265586D01*
X135059053Y-24173510D01*
X135048761Y-24169764D01*
X134876497Y-24123606D01*
X134862401Y-24123942D01*
X134859000Y-24131884D01*
X134859000Y-25132885D01*
X134351000Y-25132885D01*
X134351000Y-24137033D01*
X134347027Y-24123502D01*
X134338478Y-24122273D01*
X134161239Y-24169764D01*
X134150947Y-24173510D01*
X133953489Y-24265586D01*
X133943993Y-24271069D01*
X133765533Y-24396028D01*
X133757125Y-24403084D01*
X133603084Y-24557125D01*
X133596028Y-24565533D01*
X133471069Y-24743993D01*
X133465586Y-24753489D01*
X133373510Y-24950947D01*
X133369764Y-24961239D01*
X133323606Y-25133503D01*
X128266911Y-25133503D01*
X128220707Y-24961067D01*
X128220706Y-24961065D01*
X128219284Y-24955757D01*
X128216961Y-24950775D01*
X128124849Y-24753238D01*
X128124846Y-24753233D01*
X128122523Y-24748251D01*
X127991198Y-24560700D01*
X127829300Y-24398802D01*
X127824792Y-24395645D01*
X127824789Y-24395643D01*
X127746611Y-24340902D01*
X127641749Y-24267477D01*
X127636767Y-24265154D01*
X127636762Y-24265151D01*
X127439225Y-24173039D01*
X127439224Y-24173039D01*
X127434243Y-24170716D01*
X127428935Y-24169294D01*
X127428933Y-24169293D01*
X127218402Y-24112881D01*
X127218400Y-24112881D01*
X127213087Y-24111457D01*
X126985000Y-24091502D01*
X126756913Y-24111457D01*
X126751600Y-24112881D01*
X126751598Y-24112881D01*
X126541067Y-24169293D01*
X126541065Y-24169294D01*
X126535757Y-24170716D01*
X126530776Y-24173039D01*
X126530775Y-24173039D01*
X126333238Y-24265151D01*
X126333233Y-24265154D01*
X126328251Y-24267477D01*
X126223389Y-24340902D01*
X126145211Y-24395643D01*
X126145208Y-24395645D01*
X126140700Y-24398802D01*
X125978802Y-24560700D01*
X125847477Y-24748251D01*
X125845154Y-24753233D01*
X125845151Y-24753238D01*
X125753039Y-24950775D01*
X125750716Y-24955757D01*
X125749294Y-24961065D01*
X125749293Y-24961067D01*
X125699171Y-25148124D01*
X125691457Y-25176913D01*
X125671502Y-25405000D01*
X125691457Y-25633087D01*
X125692881Y-25638400D01*
X125692881Y-25638402D01*
X125722620Y-25749389D01*
X125720930Y-25820365D01*
X125681136Y-25879161D01*
X125615872Y-25907109D01*
X125600913Y-25908000D01*
X125183569Y-25908000D01*
X125115448Y-25887998D01*
X125068955Y-25834342D01*
X125058851Y-25764068D01*
X125061862Y-25749388D01*
X125081394Y-25676496D01*
X125081058Y-25662401D01*
X125073116Y-25659000D01*
X122532033Y-25659000D01*
X122518502Y-25662973D01*
X122517273Y-25671521D01*
X122538138Y-25749388D01*
X122536448Y-25820365D01*
X122496654Y-25879161D01*
X122431390Y-25907109D01*
X122416431Y-25908000D01*
X117564087Y-25908000D01*
X117495966Y-25887998D01*
X117449473Y-25834342D01*
X117439369Y-25764068D01*
X117442380Y-25749389D01*
X117472119Y-25638402D01*
X117472119Y-25638400D01*
X117473543Y-25633087D01*
X117493498Y-25405000D01*
X117473543Y-25176913D01*
X117465829Y-25148124D01*
X117461911Y-25133503D01*
X122518606Y-25133503D01*
X122518942Y-25147599D01*
X122526884Y-25151000D01*
X123527885Y-25151000D01*
X123543124Y-25146525D01*
X123544329Y-25145135D01*
X123546000Y-25137452D01*
X123546000Y-25132885D01*
X124054000Y-25132885D01*
X124058475Y-25148124D01*
X124059865Y-25149329D01*
X124067548Y-25151000D01*
X125067967Y-25151000D01*
X125081498Y-25147027D01*
X125082727Y-25138478D01*
X125035236Y-24961239D01*
X125031490Y-24950947D01*
X124939414Y-24753489D01*
X124933931Y-24743993D01*
X124808972Y-24565533D01*
X124801916Y-24557125D01*
X124647875Y-24403084D01*
X124639467Y-24396028D01*
X124461007Y-24271069D01*
X124451511Y-24265586D01*
X124254053Y-24173510D01*
X124243761Y-24169764D01*
X124071497Y-24123606D01*
X124057401Y-24123942D01*
X124054000Y-24131884D01*
X124054000Y-25132885D01*
X123546000Y-25132885D01*
X123546000Y-24137033D01*
X123542027Y-24123502D01*
X123533478Y-24122273D01*
X123356239Y-24169764D01*
X123345947Y-24173510D01*
X123148489Y-24265586D01*
X123138993Y-24271069D01*
X122960533Y-24396028D01*
X122952125Y-24403084D01*
X122798084Y-24557125D01*
X122791028Y-24565533D01*
X122666069Y-24743993D01*
X122660586Y-24753489D01*
X122568510Y-24950947D01*
X122564764Y-24961239D01*
X122518606Y-25133503D01*
X117461911Y-25133503D01*
X117415707Y-24961067D01*
X117415706Y-24961065D01*
X117414284Y-24955757D01*
X117411961Y-24950775D01*
X117319849Y-24753238D01*
X117319846Y-24753233D01*
X117317523Y-24748251D01*
X117186198Y-24560700D01*
X117024300Y-24398802D01*
X117019792Y-24395645D01*
X117019789Y-24395643D01*
X116941611Y-24340902D01*
X116836749Y-24267477D01*
X116831767Y-24265154D01*
X116831762Y-24265151D01*
X116634225Y-24173039D01*
X116634224Y-24173039D01*
X116629243Y-24170716D01*
X116623935Y-24169294D01*
X116623933Y-24169293D01*
X116413402Y-24112881D01*
X116413400Y-24112881D01*
X116408087Y-24111457D01*
X116180000Y-24091502D01*
X115951913Y-24111457D01*
X115946600Y-24112881D01*
X115946598Y-24112881D01*
X115736067Y-24169293D01*
X115736065Y-24169294D01*
X115730757Y-24170716D01*
X115725776Y-24173039D01*
X115725775Y-24173039D01*
X115528238Y-24265151D01*
X115528233Y-24265154D01*
X115523251Y-24267477D01*
X115418389Y-24340902D01*
X115340211Y-24395643D01*
X115340208Y-24395645D01*
X115335700Y-24398802D01*
X115173802Y-24560700D01*
X115042477Y-24748251D01*
X115040154Y-24753233D01*
X115040151Y-24753238D01*
X114948039Y-24950775D01*
X114945716Y-24955757D01*
X114944294Y-24961065D01*
X114944293Y-24961067D01*
X114894171Y-25148124D01*
X114886457Y-25176913D01*
X114866502Y-25405000D01*
X114886457Y-25633087D01*
X114887881Y-25638400D01*
X114887881Y-25638402D01*
X114917620Y-25749389D01*
X114915930Y-25820365D01*
X114876136Y-25879161D01*
X114810872Y-25907109D01*
X114795913Y-25908000D01*
X114397747Y-25908000D01*
X114329626Y-25887998D01*
X114283133Y-25834342D01*
X114273029Y-25764068D01*
X114276040Y-25749389D01*
X114307119Y-25633402D01*
X114307119Y-25633400D01*
X114308543Y-25628087D01*
X114328498Y-25400000D01*
X114308543Y-25171913D01*
X114307119Y-25166598D01*
X114250707Y-24956067D01*
X114250706Y-24956065D01*
X114249284Y-24950757D01*
X114161523Y-24762551D01*
X114154849Y-24748238D01*
X114154846Y-24748233D01*
X114152523Y-24743251D01*
X114021198Y-24555700D01*
X113859300Y-24393802D01*
X113854792Y-24390645D01*
X113854789Y-24390643D01*
X113776611Y-24335902D01*
X113671749Y-24262477D01*
X113666767Y-24260154D01*
X113666762Y-24260151D01*
X113631951Y-24243919D01*
X113578666Y-24197002D01*
X113559205Y-24128725D01*
X113579747Y-24060765D01*
X113631951Y-24015529D01*
X113666511Y-23999414D01*
X113676007Y-23993931D01*
X113854467Y-23868972D01*
X113862875Y-23861916D01*
X114016916Y-23707875D01*
X114023972Y-23699467D01*
X114148931Y-23521007D01*
X114154414Y-23511511D01*
X114246490Y-23314053D01*
X114250236Y-23303761D01*
X114296394Y-23131497D01*
X114296058Y-23117401D01*
X114288116Y-23114000D01*
X111747033Y-23114000D01*
X111733502Y-23117973D01*
X111732273Y-23126522D01*
X111779764Y-23303761D01*
X111783510Y-23314053D01*
X111875586Y-23511511D01*
X111881069Y-23521007D01*
X112006028Y-23699467D01*
X112013084Y-23707875D01*
X112167125Y-23861916D01*
X112175533Y-23868972D01*
X112353993Y-23993931D01*
X112363489Y-23999414D01*
X112398049Y-24015529D01*
X112451334Y-24062446D01*
X112470795Y-24130723D01*
X112450253Y-24198683D01*
X112398049Y-24243919D01*
X112363238Y-24260151D01*
X112363233Y-24260154D01*
X112358251Y-24262477D01*
X112253389Y-24335902D01*
X112175211Y-24390643D01*
X112175208Y-24390645D01*
X112170700Y-24393802D01*
X112008802Y-24555700D01*
X111877477Y-24743251D01*
X111875154Y-24748233D01*
X111875151Y-24748238D01*
X111868477Y-24762551D01*
X111780716Y-24950757D01*
X111779294Y-24956065D01*
X111779293Y-24956067D01*
X111722881Y-25166598D01*
X111721457Y-25171913D01*
X111701502Y-25400000D01*
X111721457Y-25628087D01*
X111722881Y-25633400D01*
X111722881Y-25633402D01*
X111753960Y-25749389D01*
X111752270Y-25820365D01*
X111712476Y-25879161D01*
X111647212Y-25907109D01*
X111632253Y-25908000D01*
X106777747Y-25908000D01*
X106709626Y-25887998D01*
X106663133Y-25834342D01*
X106653029Y-25764068D01*
X106656040Y-25749389D01*
X106687119Y-25633402D01*
X106687119Y-25633400D01*
X106688543Y-25628087D01*
X106708498Y-25400000D01*
X106688543Y-25171913D01*
X106687119Y-25166598D01*
X106630707Y-24956067D01*
X106630706Y-24956065D01*
X106629284Y-24950757D01*
X106541523Y-24762551D01*
X106534849Y-24748238D01*
X106534846Y-24748233D01*
X106532523Y-24743251D01*
X106401198Y-24555700D01*
X106239300Y-24393802D01*
X106234792Y-24390645D01*
X106234789Y-24390643D01*
X106156611Y-24335902D01*
X106051749Y-24262477D01*
X106046767Y-24260154D01*
X106046762Y-24260151D01*
X106012543Y-24244195D01*
X105959258Y-24197278D01*
X105939797Y-24129001D01*
X105960339Y-24061041D01*
X106012543Y-24015805D01*
X106046762Y-23999849D01*
X106046767Y-23999846D01*
X106051749Y-23997523D01*
X106156611Y-23924098D01*
X106234789Y-23869357D01*
X106234792Y-23869355D01*
X106239300Y-23866198D01*
X106401198Y-23704300D01*
X106405694Y-23697880D01*
X106529366Y-23521257D01*
X106532523Y-23516749D01*
X106534846Y-23511767D01*
X106534849Y-23511762D01*
X106626961Y-23314225D01*
X106626961Y-23314224D01*
X106629284Y-23309243D01*
X106688543Y-23088087D01*
X106708498Y-22860000D01*
X106688543Y-22631913D01*
X106678244Y-22593478D01*
X106676911Y-22588503D01*
X111733606Y-22588503D01*
X111733942Y-22602599D01*
X111741884Y-22606000D01*
X112742885Y-22606000D01*
X112758124Y-22601525D01*
X112759329Y-22600135D01*
X112761000Y-22592452D01*
X112761000Y-22587885D01*
X113269000Y-22587885D01*
X113273475Y-22603124D01*
X113274865Y-22604329D01*
X113282548Y-22606000D01*
X114282967Y-22606000D01*
X114296498Y-22602027D01*
X114297727Y-22593478D01*
X114250236Y-22416239D01*
X114246490Y-22405947D01*
X114154414Y-22208489D01*
X114148931Y-22198993D01*
X114023972Y-22020533D01*
X114016916Y-22012125D01*
X113862875Y-21858084D01*
X113854467Y-21851028D01*
X113676007Y-21726069D01*
X113666511Y-21720586D01*
X113469053Y-21628510D01*
X113458761Y-21624764D01*
X113286497Y-21578606D01*
X113272401Y-21578942D01*
X113269000Y-21586884D01*
X113269000Y-22587885D01*
X112761000Y-22587885D01*
X112761000Y-21592033D01*
X112757027Y-21578502D01*
X112748478Y-21577273D01*
X112571239Y-21624764D01*
X112560947Y-21628510D01*
X112363489Y-21720586D01*
X112353993Y-21726069D01*
X112175533Y-21851028D01*
X112167125Y-21858084D01*
X112013084Y-22012125D01*
X112006028Y-22020533D01*
X111881069Y-22198993D01*
X111875586Y-22208489D01*
X111783510Y-22405947D01*
X111779764Y-22416239D01*
X111733606Y-22588503D01*
X106676911Y-22588503D01*
X106630707Y-22416067D01*
X106630706Y-22416065D01*
X106629284Y-22410757D01*
X106626961Y-22405775D01*
X106534849Y-22208238D01*
X106534846Y-22208233D01*
X106532523Y-22203251D01*
X106401198Y-22015700D01*
X106239300Y-21853802D01*
X106234792Y-21850645D01*
X106234789Y-21850643D01*
X106156611Y-21795902D01*
X106051749Y-21722477D01*
X106046767Y-21720154D01*
X106046762Y-21720151D01*
X105849225Y-21628039D01*
X105849224Y-21628039D01*
X105844243Y-21625716D01*
X105838935Y-21624294D01*
X105838933Y-21624293D01*
X105628402Y-21567881D01*
X105628400Y-21567881D01*
X105623087Y-21566457D01*
X105395000Y-21546502D01*
X105166913Y-21566457D01*
X105161600Y-21567881D01*
X105161598Y-21567881D01*
X104951067Y-21624293D01*
X104951065Y-21624294D01*
X104945757Y-21625716D01*
X104940776Y-21628039D01*
X104940775Y-21628039D01*
X104743238Y-21720151D01*
X104743233Y-21720154D01*
X104738251Y-21722477D01*
X104633389Y-21795902D01*
X104555211Y-21850643D01*
X104555208Y-21850645D01*
X104550700Y-21853802D01*
X104388802Y-22015700D01*
X104257477Y-22203251D01*
X104255154Y-22208233D01*
X104255151Y-22208238D01*
X104163039Y-22405775D01*
X104160716Y-22410757D01*
X104159294Y-22416065D01*
X104159293Y-22416067D01*
X104111756Y-22593478D01*
X104101457Y-22631913D01*
X104081502Y-22860000D01*
X104101457Y-23088087D01*
X104160716Y-23309243D01*
X104163039Y-23314224D01*
X104163039Y-23314225D01*
X104255151Y-23511762D01*
X104255154Y-23511767D01*
X104257477Y-23516749D01*
X104260634Y-23521257D01*
X104384307Y-23697880D01*
X104388802Y-23704300D01*
X104550700Y-23866198D01*
X104555208Y-23869355D01*
X104555211Y-23869357D01*
X104633389Y-23924098D01*
X104738251Y-23997523D01*
X104743233Y-23999846D01*
X104743238Y-23999849D01*
X104777457Y-24015805D01*
X104830742Y-24062722D01*
X104850203Y-24130999D01*
X104829661Y-24198959D01*
X104777457Y-24244195D01*
X104743238Y-24260151D01*
X104743233Y-24260154D01*
X104738251Y-24262477D01*
X104633389Y-24335902D01*
X104555211Y-24390643D01*
X104555208Y-24390645D01*
X104550700Y-24393802D01*
X104388802Y-24555700D01*
X104257477Y-24743251D01*
X104255154Y-24748233D01*
X104255151Y-24748238D01*
X104248477Y-24762551D01*
X104160716Y-24950757D01*
X104159294Y-24956065D01*
X104159293Y-24956067D01*
X104102881Y-25166598D01*
X104101457Y-25171913D01*
X104081502Y-25400000D01*
X104101457Y-25628087D01*
X104102880Y-25633398D01*
X104102882Y-25633409D01*
X104118459Y-25691541D01*
X104116770Y-25762517D01*
X104085848Y-25813248D01*
X104028001Y-25871095D01*
X103965689Y-25905121D01*
X103938906Y-25908000D01*
X93980000Y-25908000D01*
X93980000Y-18750627D01*
X94008695Y-18738108D01*
X94017465Y-18734666D01*
X94465702Y-18577823D01*
X94474706Y-18575045D01*
X94933427Y-18452133D01*
X94942614Y-18450036D01*
X95409239Y-18361749D01*
X95418556Y-18360345D01*
X95890466Y-18307176D01*
X95899862Y-18306472D01*
X96104648Y-18298810D01*
X96335297Y-18290181D01*
X96359395Y-18291594D01*
X96363991Y-18292310D01*
X96363993Y-18292310D01*
X96372862Y-18293691D01*
X96381765Y-18292527D01*
X96381770Y-18292527D01*
X96404432Y-18289564D01*
X96420768Y-18288500D01*
X139791495Y-18288500D01*
X139810880Y-18290000D01*
G37*
G04 #@! TD.AperFunction*
G04 #@! TA.AperFunction,Conductor*
G36*
X106382003Y-142244293D02*
G01*
X106408503Y-142251394D01*
X106422599Y-142251058D01*
X106426000Y-142243116D01*
X106426000Y-142240000D01*
X106934597Y-142240000D01*
X106937973Y-142251498D01*
X106946522Y-142252727D01*
X106977997Y-142244293D01*
X107010608Y-142240000D01*
X113967461Y-142240000D01*
X114000070Y-142244293D01*
X114071913Y-142263543D01*
X114300000Y-142283498D01*
X114528087Y-142263543D01*
X114599930Y-142244293D01*
X114632539Y-142240000D01*
X119943152Y-142240000D01*
X120011273Y-142260002D01*
X120028969Y-142275045D01*
X120029423Y-142274541D01*
X120034325Y-142278954D01*
X120038747Y-142283866D01*
X120193248Y-142396118D01*
X120199276Y-142398802D01*
X120199278Y-142398803D01*
X120361681Y-142471109D01*
X120367712Y-142473794D01*
X120461113Y-142493647D01*
X120548056Y-142512128D01*
X120548061Y-142512128D01*
X120554513Y-142513500D01*
X120745487Y-142513500D01*
X120751939Y-142512128D01*
X120751944Y-142512128D01*
X120838887Y-142493647D01*
X120932288Y-142473794D01*
X120938319Y-142471109D01*
X121100722Y-142398803D01*
X121100724Y-142398802D01*
X121106752Y-142396118D01*
X121261253Y-142283866D01*
X121265675Y-142278954D01*
X121270577Y-142274541D01*
X121272090Y-142276222D01*
X121323649Y-142244452D01*
X121356848Y-142240000D01*
X131954000Y-142240000D01*
X132022121Y-142260002D01*
X132068614Y-142313658D01*
X132080000Y-142366000D01*
X132080000Y-146559000D01*
X132059998Y-146627121D01*
X132006342Y-146673614D01*
X131954000Y-146685000D01*
X130898918Y-146685000D01*
X130830797Y-146664998D01*
X130784304Y-146611342D01*
X130774200Y-146541068D01*
X130777211Y-146526389D01*
X130831625Y-146323312D01*
X130833528Y-146312519D01*
X130852517Y-146095475D01*
X130852517Y-146084525D01*
X130833528Y-145867481D01*
X130831625Y-145856688D01*
X130775236Y-145646239D01*
X130771490Y-145635947D01*
X130679414Y-145438489D01*
X130673931Y-145428994D01*
X130637491Y-145376952D01*
X130627012Y-145368576D01*
X130613566Y-145375644D01*
X129629095Y-146360115D01*
X129566783Y-146394141D01*
X129495968Y-146389076D01*
X129450905Y-146360115D01*
X128465713Y-145374923D01*
X128453938Y-145368493D01*
X128441923Y-145377789D01*
X128406069Y-145428994D01*
X128400586Y-145438489D01*
X128308510Y-145635947D01*
X128304764Y-145646239D01*
X128248375Y-145856688D01*
X128246472Y-145867481D01*
X128227483Y-146084525D01*
X128227483Y-146095475D01*
X128246472Y-146312519D01*
X128248375Y-146323312D01*
X128302789Y-146526389D01*
X128301099Y-146597365D01*
X128261305Y-146656161D01*
X128196041Y-146684109D01*
X128181082Y-146685000D01*
X115658918Y-146685000D01*
X115590797Y-146664998D01*
X115544304Y-146611342D01*
X115534200Y-146541068D01*
X115537211Y-146526389D01*
X115591625Y-146323312D01*
X115593528Y-146312519D01*
X115612517Y-146095475D01*
X115612517Y-146084525D01*
X115593528Y-145867481D01*
X115591625Y-145856688D01*
X115535236Y-145646239D01*
X115531490Y-145635947D01*
X115439414Y-145438489D01*
X115433931Y-145428994D01*
X115397491Y-145376952D01*
X115387012Y-145368576D01*
X115373566Y-145375644D01*
X114389095Y-146360115D01*
X114326783Y-146394141D01*
X114255968Y-146389076D01*
X114210905Y-146360115D01*
X113225713Y-145374923D01*
X113213938Y-145368493D01*
X113201923Y-145377789D01*
X113166069Y-145428994D01*
X113160586Y-145438489D01*
X113068510Y-145635947D01*
X113064764Y-145646239D01*
X113008375Y-145856688D01*
X113006472Y-145867481D01*
X112987483Y-146084525D01*
X112987483Y-146095475D01*
X113006472Y-146312519D01*
X113008375Y-146323312D01*
X113062789Y-146526389D01*
X113061099Y-146597365D01*
X113021305Y-146656161D01*
X112956041Y-146684109D01*
X112941082Y-146685000D01*
X106762856Y-146685000D01*
X106694735Y-146664998D01*
X106648242Y-146611342D01*
X106638138Y-146541068D01*
X106644457Y-146515899D01*
X106645237Y-146513756D01*
X106701625Y-146303312D01*
X106703528Y-146292519D01*
X106722517Y-146075475D01*
X106722517Y-146064525D01*
X106703528Y-145847481D01*
X106701625Y-145836688D01*
X106645236Y-145626239D01*
X106641490Y-145615947D01*
X106549414Y-145418489D01*
X106543931Y-145408994D01*
X106507491Y-145356952D01*
X106497012Y-145348576D01*
X106483566Y-145355644D01*
X105499095Y-146340115D01*
X105436783Y-146374141D01*
X105365968Y-146369076D01*
X105320905Y-146340115D01*
X104335713Y-145354923D01*
X104323938Y-145348493D01*
X104311923Y-145357789D01*
X104276069Y-145408994D01*
X104270586Y-145418489D01*
X104178510Y-145615947D01*
X104174764Y-145626239D01*
X104118375Y-145836688D01*
X104116472Y-145847481D01*
X104097483Y-146064525D01*
X104097483Y-146075475D01*
X104116472Y-146292519D01*
X104118375Y-146303312D01*
X104174763Y-146513756D01*
X104175543Y-146515899D01*
X104175607Y-146516907D01*
X104176187Y-146519071D01*
X104175752Y-146519188D01*
X104180050Y-146586752D01*
X104145535Y-146648794D01*
X104082957Y-146682328D01*
X104057144Y-146685000D01*
X93980000Y-146685000D01*
X93980000Y-144982988D01*
X104688576Y-144982988D01*
X104695644Y-144996434D01*
X105397188Y-145697978D01*
X105411132Y-145705592D01*
X105412965Y-145705461D01*
X105419580Y-145701210D01*
X106117802Y-145002988D01*
X113578576Y-145002988D01*
X113585644Y-145016434D01*
X114287188Y-145717978D01*
X114301132Y-145725592D01*
X114302965Y-145725461D01*
X114309580Y-145721210D01*
X115015077Y-145015713D01*
X115021507Y-145003938D01*
X115020772Y-145002988D01*
X128818576Y-145002988D01*
X128825644Y-145016434D01*
X129527188Y-145717978D01*
X129541132Y-145725592D01*
X129542965Y-145725461D01*
X129549580Y-145721210D01*
X130255077Y-145015713D01*
X130261507Y-145003938D01*
X130252211Y-144991923D01*
X130201006Y-144956069D01*
X130191511Y-144950586D01*
X129994053Y-144858510D01*
X129983761Y-144854764D01*
X129773312Y-144798375D01*
X129762519Y-144796472D01*
X129545475Y-144777483D01*
X129534525Y-144777483D01*
X129317481Y-144796472D01*
X129306688Y-144798375D01*
X129096239Y-144854764D01*
X129085947Y-144858510D01*
X128888489Y-144950586D01*
X128878994Y-144956069D01*
X128826952Y-144992509D01*
X128818576Y-145002988D01*
X115020772Y-145002988D01*
X115012211Y-144991923D01*
X114961006Y-144956069D01*
X114951511Y-144950586D01*
X114754053Y-144858510D01*
X114743761Y-144854764D01*
X114533312Y-144798375D01*
X114522519Y-144796472D01*
X114305475Y-144777483D01*
X114294525Y-144777483D01*
X114077481Y-144796472D01*
X114066688Y-144798375D01*
X113856239Y-144854764D01*
X113845947Y-144858510D01*
X113648489Y-144950586D01*
X113638994Y-144956069D01*
X113586952Y-144992509D01*
X113578576Y-145002988D01*
X106117802Y-145002988D01*
X106125077Y-144995713D01*
X106131507Y-144983938D01*
X106122211Y-144971923D01*
X106071006Y-144936069D01*
X106061511Y-144930586D01*
X105864053Y-144838510D01*
X105853761Y-144834764D01*
X105643312Y-144778375D01*
X105632519Y-144776472D01*
X105415475Y-144757483D01*
X105404525Y-144757483D01*
X105187481Y-144776472D01*
X105176688Y-144778375D01*
X104966239Y-144834764D01*
X104955947Y-144838510D01*
X104758489Y-144930586D01*
X104748994Y-144936069D01*
X104696952Y-144972509D01*
X104688576Y-144982988D01*
X93980000Y-144982988D01*
X93980000Y-142240000D01*
X106349392Y-142240000D01*
X106382003Y-142244293D01*
G37*
G04 #@! TD.AperFunction*
G04 #@! TA.AperFunction,Conductor*
G36*
X143074958Y-19153970D02*
G01*
X143083118Y-19158681D01*
X143485234Y-19411345D01*
X143493019Y-19416653D01*
X143875122Y-19698656D01*
X143882489Y-19704531D01*
X144242453Y-20014303D01*
X144249360Y-20020712D01*
X144585169Y-20356519D01*
X144591578Y-20363427D01*
X144901352Y-20723389D01*
X144907205Y-20730729D01*
X145189230Y-21112856D01*
X145194538Y-21120642D01*
X145447200Y-21522749D01*
X145451911Y-21530909D01*
X145673812Y-21950764D01*
X145677901Y-21959253D01*
X145867819Y-22394547D01*
X145871261Y-22403319D01*
X146028105Y-22851553D01*
X146030883Y-22860557D01*
X146153801Y-23319292D01*
X146155897Y-23328478D01*
X146244184Y-23795083D01*
X146245589Y-23804401D01*
X146298762Y-24276328D01*
X146299466Y-24285723D01*
X146315744Y-24720731D01*
X146314331Y-24744832D01*
X146313549Y-24749850D01*
X146313549Y-24749855D01*
X146312168Y-24758724D01*
X146313332Y-24767626D01*
X146313332Y-24767628D01*
X146316295Y-24790283D01*
X146317359Y-24806621D01*
X146317359Y-106781334D01*
X146317214Y-106787367D01*
X146317022Y-106791372D01*
X146316415Y-106796200D01*
X146316558Y-106801057D01*
X146317305Y-106826484D01*
X146317359Y-106830185D01*
X146317359Y-106857372D01*
X146317995Y-106861814D01*
X146318313Y-106866279D01*
X146318152Y-106866290D01*
X146318642Y-106871984D01*
X146396257Y-109512910D01*
X146582846Y-115861836D01*
X146582900Y-115865537D01*
X146582900Y-177165000D01*
X144423504Y-177165000D01*
X144403542Y-176975072D01*
X144344527Y-176793444D01*
X144249040Y-176628056D01*
X144121253Y-176486134D01*
X143966752Y-176373882D01*
X143960724Y-176371198D01*
X143960722Y-176371197D01*
X143798319Y-176298891D01*
X143798318Y-176298891D01*
X143792288Y-176296206D01*
X143698888Y-176276353D01*
X143611944Y-176257872D01*
X143611939Y-176257872D01*
X143605487Y-176256500D01*
X143414513Y-176256500D01*
X143408061Y-176257872D01*
X143408056Y-176257872D01*
X143321112Y-176276353D01*
X143227712Y-176296206D01*
X143221682Y-176298891D01*
X143221681Y-176298891D01*
X143079933Y-176362001D01*
X143053248Y-176373882D01*
X143052120Y-176371349D01*
X142995026Y-176385210D01*
X142927930Y-176362001D01*
X142884034Y-176306201D01*
X142875000Y-176259352D01*
X142875000Y-172150859D01*
X142895002Y-172082738D01*
X142907364Y-172066548D01*
X142974621Y-171991852D01*
X142974622Y-171991851D01*
X142979040Y-171986944D01*
X143074527Y-171821556D01*
X143133542Y-171639928D01*
X143153504Y-171450000D01*
X143133542Y-171260072D01*
X143120254Y-171219176D01*
X143118226Y-171148209D01*
X143154889Y-171087411D01*
X143218601Y-171056085D01*
X143266284Y-171056993D01*
X143408056Y-171087128D01*
X143408061Y-171087128D01*
X143414513Y-171088500D01*
X143605487Y-171088500D01*
X143611939Y-171087128D01*
X143611944Y-171087128D01*
X143698888Y-171068647D01*
X143792288Y-171048794D01*
X143798319Y-171046109D01*
X143960722Y-170973803D01*
X143960724Y-170973802D01*
X143966752Y-170971118D01*
X144121253Y-170858866D01*
X144249040Y-170716944D01*
X144344527Y-170551556D01*
X144403542Y-170369928D01*
X144410929Y-170299650D01*
X144422814Y-170186565D01*
X144423504Y-170180000D01*
X144403542Y-169990072D01*
X144344527Y-169808444D01*
X144249040Y-169643056D01*
X144121253Y-169501134D01*
X143966752Y-169388882D01*
X143960724Y-169386198D01*
X143960722Y-169386197D01*
X143798319Y-169313891D01*
X143798318Y-169313891D01*
X143792288Y-169311206D01*
X143698888Y-169291353D01*
X143611944Y-169272872D01*
X143611939Y-169272872D01*
X143605487Y-169271500D01*
X143414513Y-169271500D01*
X143408061Y-169272872D01*
X143408056Y-169272872D01*
X143321112Y-169291353D01*
X143227712Y-169311206D01*
X143221682Y-169313891D01*
X143221681Y-169313891D01*
X143079933Y-169377001D01*
X143053248Y-169388882D01*
X143052120Y-169386349D01*
X142995026Y-169400210D01*
X142927930Y-169377001D01*
X142884034Y-169321201D01*
X142875000Y-169274352D01*
X142875000Y-168545648D01*
X142895002Y-168477527D01*
X142948658Y-168431034D01*
X143018932Y-168420930D01*
X143052595Y-168432585D01*
X143053248Y-168431118D01*
X143227712Y-168508794D01*
X143321113Y-168528647D01*
X143408056Y-168547128D01*
X143408061Y-168547128D01*
X143414513Y-168548500D01*
X143605487Y-168548500D01*
X143611939Y-168547128D01*
X143611944Y-168547128D01*
X143698887Y-168528647D01*
X143792288Y-168508794D01*
X143798319Y-168506109D01*
X143960722Y-168433803D01*
X143960724Y-168433802D01*
X143966752Y-168431118D01*
X144121253Y-168318866D01*
X144249040Y-168176944D01*
X144344527Y-168011556D01*
X144403542Y-167829928D01*
X144410929Y-167759650D01*
X144422814Y-167646565D01*
X144423504Y-167640000D01*
X144403542Y-167450072D01*
X144344527Y-167268444D01*
X144249040Y-167103056D01*
X144121253Y-166961134D01*
X143966752Y-166848882D01*
X143960724Y-166846198D01*
X143960722Y-166846197D01*
X143798319Y-166773891D01*
X143798318Y-166773891D01*
X143792288Y-166771206D01*
X143698888Y-166751353D01*
X143611944Y-166732872D01*
X143611939Y-166732872D01*
X143605487Y-166731500D01*
X143414513Y-166731500D01*
X143408061Y-166732872D01*
X143408056Y-166732872D01*
X143321112Y-166751353D01*
X143227712Y-166771206D01*
X143221682Y-166773891D01*
X143221681Y-166773891D01*
X143079933Y-166837001D01*
X143053248Y-166848882D01*
X143052120Y-166846349D01*
X142995026Y-166860210D01*
X142927930Y-166837001D01*
X142884034Y-166781201D01*
X142875000Y-166734352D01*
X142875000Y-164778094D01*
X142895002Y-164709973D01*
X142911905Y-164688999D01*
X143902247Y-163698657D01*
X143910537Y-163691113D01*
X143917018Y-163687000D01*
X143963659Y-163637332D01*
X143966413Y-163634491D01*
X143986135Y-163614769D01*
X143988612Y-163611576D01*
X143996317Y-163602555D01*
X144021159Y-163576100D01*
X144026586Y-163570321D01*
X144030407Y-163563371D01*
X144036346Y-163552568D01*
X144047202Y-163536041D01*
X144054757Y-163526302D01*
X144054758Y-163526300D01*
X144059614Y-163520040D01*
X144077174Y-163479460D01*
X144082391Y-163468812D01*
X144099875Y-163437009D01*
X144099876Y-163437007D01*
X144103695Y-163430060D01*
X144108733Y-163410437D01*
X144115137Y-163391734D01*
X144120033Y-163380420D01*
X144120033Y-163380419D01*
X144123181Y-163373145D01*
X144124420Y-163365322D01*
X144124423Y-163365312D01*
X144130099Y-163329476D01*
X144132505Y-163317856D01*
X144141528Y-163282711D01*
X144141528Y-163282710D01*
X144143500Y-163275030D01*
X144143500Y-163254776D01*
X144145051Y-163235065D01*
X144146980Y-163222886D01*
X144148220Y-163215057D01*
X144144059Y-163171038D01*
X144143500Y-163159181D01*
X144143500Y-160722524D01*
X144163502Y-160654403D01*
X144175858Y-160638221D01*
X144249040Y-160556944D01*
X144344527Y-160391556D01*
X144403542Y-160209928D01*
X144423504Y-160020000D01*
X144403542Y-159830072D01*
X144344527Y-159648444D01*
X144249040Y-159483056D01*
X144121253Y-159341134D01*
X143982344Y-159240210D01*
X143972094Y-159232763D01*
X143972093Y-159232762D01*
X143966752Y-159228882D01*
X143960724Y-159226198D01*
X143960722Y-159226197D01*
X143798319Y-159153891D01*
X143798318Y-159153891D01*
X143792288Y-159151206D01*
X143698887Y-159131353D01*
X143611944Y-159112872D01*
X143611939Y-159112872D01*
X143605487Y-159111500D01*
X143414513Y-159111500D01*
X143408061Y-159112872D01*
X143408056Y-159112872D01*
X143321113Y-159131353D01*
X143227712Y-159151206D01*
X143221682Y-159153891D01*
X143221681Y-159153891D01*
X143180399Y-159172271D01*
X143053248Y-159228882D01*
X143052120Y-159226349D01*
X142995026Y-159240210D01*
X142927930Y-159217001D01*
X142884034Y-159161201D01*
X142875000Y-159114352D01*
X142875000Y-159063094D01*
X142895002Y-158994973D01*
X142911905Y-158973999D01*
X143460499Y-158425405D01*
X143522811Y-158391379D01*
X143549594Y-158388500D01*
X143605487Y-158388500D01*
X143611939Y-158387128D01*
X143611944Y-158387128D01*
X143698887Y-158368647D01*
X143792288Y-158348794D01*
X143798319Y-158346109D01*
X143960722Y-158273803D01*
X143960724Y-158273802D01*
X143966752Y-158271118D01*
X144121253Y-158158866D01*
X144164646Y-158110673D01*
X144244621Y-158021852D01*
X144244622Y-158021851D01*
X144249040Y-158016944D01*
X144344527Y-157851556D01*
X144403542Y-157669928D01*
X144423504Y-157480000D01*
X144421396Y-157459943D01*
X144404232Y-157296635D01*
X144404232Y-157296633D01*
X144403542Y-157290072D01*
X144344527Y-157108444D01*
X144249040Y-156943056D01*
X144121253Y-156801134D01*
X144040698Y-156742607D01*
X143997344Y-156686384D01*
X143991269Y-156615648D01*
X144018051Y-156563824D01*
X144016499Y-156562696D01*
X144021158Y-156556283D01*
X144026586Y-156550503D01*
X144036346Y-156532750D01*
X144047199Y-156516227D01*
X144054753Y-156506488D01*
X144059613Y-156500223D01*
X144077176Y-156459639D01*
X144082383Y-156449009D01*
X144103695Y-156410242D01*
X144105666Y-156402565D01*
X144105668Y-156402560D01*
X144108732Y-156390624D01*
X144115138Y-156371912D01*
X144120034Y-156360599D01*
X144123181Y-156353327D01*
X144130097Y-156309663D01*
X144132504Y-156298042D01*
X144141528Y-156262893D01*
X144141528Y-156262892D01*
X144143500Y-156255212D01*
X144143500Y-156234951D01*
X144145051Y-156215240D01*
X144146979Y-156203067D01*
X144148219Y-156195239D01*
X144144059Y-156151228D01*
X144143500Y-156139371D01*
X144143500Y-141048767D01*
X144144027Y-141037584D01*
X144145702Y-141030091D01*
X144143562Y-140962000D01*
X144143500Y-140958043D01*
X144143500Y-140930144D01*
X144142996Y-140926153D01*
X144142063Y-140914311D01*
X144140923Y-140878036D01*
X144140674Y-140870111D01*
X144138462Y-140862497D01*
X144138461Y-140862492D01*
X144135023Y-140850659D01*
X144131012Y-140831295D01*
X144129467Y-140819064D01*
X144128474Y-140811203D01*
X144125557Y-140803836D01*
X144125556Y-140803831D01*
X144112198Y-140770092D01*
X144108354Y-140758865D01*
X144098230Y-140724022D01*
X144096018Y-140716407D01*
X144085707Y-140698972D01*
X144077012Y-140681224D01*
X144069552Y-140662383D01*
X144043564Y-140626613D01*
X144037048Y-140616693D01*
X144018580Y-140585465D01*
X144018578Y-140585462D01*
X144014542Y-140578638D01*
X144000221Y-140564317D01*
X143987380Y-140549283D01*
X143980131Y-140539306D01*
X143975472Y-140532893D01*
X143941395Y-140504702D01*
X143932616Y-140496712D01*
X142911905Y-139476001D01*
X142877879Y-139413689D01*
X142875000Y-139386906D01*
X142875000Y-136357212D01*
X142895002Y-136289091D01*
X142930541Y-136252754D01*
X142975647Y-136222329D01*
X142978568Y-136220359D01*
X143250789Y-135988680D01*
X143388385Y-135842155D01*
X143493078Y-135730669D01*
X143493082Y-135730664D01*
X143495489Y-135728101D01*
X143709618Y-135441870D01*
X143890506Y-135133553D01*
X144035899Y-134806995D01*
X144143985Y-134466264D01*
X144213417Y-134115610D01*
X144243329Y-133759401D01*
X144244577Y-133670000D01*
X144224623Y-133313095D01*
X144165009Y-132960638D01*
X144066479Y-132617023D01*
X144049120Y-132574907D01*
X143931599Y-132289777D01*
X143931595Y-132289769D01*
X143930261Y-132286532D01*
X143758052Y-131973285D01*
X143551999Y-131681186D01*
X143314670Y-131413876D01*
X143049023Y-131174687D01*
X143046170Y-131172645D01*
X143046162Y-131172638D01*
X142927653Y-131087795D01*
X142883907Y-131031877D01*
X142875000Y-130985344D01*
X142875000Y-113522691D01*
X142895002Y-113454570D01*
X142948658Y-113408077D01*
X142989142Y-113397250D01*
X143062229Y-113390341D01*
X143062231Y-113390341D01*
X143068362Y-113389761D01*
X143163129Y-113361510D01*
X143251993Y-113335019D01*
X143251995Y-113335018D01*
X143257896Y-113333259D01*
X143432846Y-113241018D01*
X143586547Y-113116553D01*
X143598105Y-113102680D01*
X143709205Y-112969335D01*
X143709208Y-112969330D01*
X143713146Y-112964604D01*
X143807821Y-112790959D01*
X143866964Y-112602231D01*
X143888324Y-112405611D01*
X143871087Y-112208587D01*
X143869368Y-112202670D01*
X143869367Y-112202665D01*
X143817626Y-112024577D01*
X143815908Y-112018663D01*
X143724892Y-111843074D01*
X143628261Y-111722027D01*
X142911905Y-111005671D01*
X142877879Y-110943359D01*
X142875000Y-110916576D01*
X142875000Y-110498948D01*
X142895002Y-110430827D01*
X142936487Y-110390716D01*
X142941952Y-110387459D01*
X143115328Y-110263792D01*
X143123200Y-110257139D01*
X143274052Y-110106812D01*
X143280730Y-110098965D01*
X143405003Y-109926020D01*
X143410313Y-109917183D01*
X143504670Y-109726267D01*
X143508469Y-109716672D01*
X143570377Y-109512910D01*
X143572555Y-109502837D01*
X143573986Y-109491962D01*
X143571775Y-109477778D01*
X143558617Y-109474000D01*
X142875000Y-109474000D01*
X142875000Y-108966000D01*
X143558344Y-108966000D01*
X143571875Y-108962027D01*
X143573180Y-108952947D01*
X143531214Y-108785875D01*
X143527894Y-108776124D01*
X143442972Y-108580814D01*
X143438105Y-108571739D01*
X143322426Y-108392926D01*
X143316136Y-108384757D01*
X143172806Y-108227240D01*
X143165273Y-108220215D01*
X142998136Y-108088219D01*
X142989558Y-108082520D01*
X142952117Y-108061852D01*
X142902146Y-108011420D01*
X142887374Y-107941977D01*
X142912490Y-107875571D01*
X142939842Y-107848964D01*
X143115327Y-107723792D01*
X143123200Y-107717139D01*
X143274052Y-107566812D01*
X143280730Y-107558965D01*
X143405003Y-107386020D01*
X143410313Y-107377183D01*
X143504670Y-107186267D01*
X143508469Y-107176672D01*
X143570377Y-106972910D01*
X143572555Y-106962837D01*
X143573986Y-106951962D01*
X143571775Y-106937778D01*
X143558617Y-106934000D01*
X142875000Y-106934000D01*
X142875000Y-106426000D01*
X143558344Y-106426000D01*
X143571875Y-106422027D01*
X143573180Y-106412947D01*
X143531214Y-106245875D01*
X143527894Y-106236124D01*
X143442972Y-106040814D01*
X143438105Y-106031739D01*
X143322426Y-105852926D01*
X143316136Y-105844757D01*
X143172806Y-105687240D01*
X143165273Y-105680215D01*
X142998136Y-105548219D01*
X142989553Y-105542517D01*
X142952603Y-105522120D01*
X142902631Y-105471688D01*
X142887859Y-105402246D01*
X142912974Y-105335840D01*
X142940327Y-105309232D01*
X142963797Y-105292491D01*
X143119860Y-105181173D01*
X143278096Y-105023489D01*
X143408453Y-104842077D01*
X143507430Y-104641811D01*
X143572370Y-104428069D01*
X143601529Y-104206590D01*
X143603156Y-104140000D01*
X143584852Y-103917361D01*
X143530431Y-103700702D01*
X143441354Y-103495840D01*
X143320014Y-103308277D01*
X143169670Y-103143051D01*
X143165619Y-103139852D01*
X143165615Y-103139848D01*
X142998414Y-103007800D01*
X142998410Y-103007798D01*
X142994359Y-103004598D01*
X142953053Y-102981796D01*
X142903084Y-102931364D01*
X142888312Y-102861921D01*
X142913428Y-102795516D01*
X142940780Y-102768909D01*
X143014070Y-102716632D01*
X143119860Y-102641173D01*
X143278096Y-102483489D01*
X143408453Y-102302077D01*
X143507430Y-102101811D01*
X143572370Y-101888069D01*
X143601529Y-101666590D01*
X143603156Y-101600000D01*
X143584852Y-101377361D01*
X143530431Y-101160702D01*
X143441354Y-100955840D01*
X143320014Y-100768277D01*
X143169670Y-100603051D01*
X143165619Y-100599852D01*
X143165615Y-100599848D01*
X142998414Y-100467800D01*
X142998410Y-100467798D01*
X142994359Y-100464598D01*
X142953053Y-100441796D01*
X142903084Y-100391364D01*
X142888312Y-100321921D01*
X142913428Y-100255516D01*
X142940780Y-100228909D01*
X143014070Y-100176632D01*
X143119860Y-100101173D01*
X143278096Y-99943489D01*
X143408453Y-99762077D01*
X143507430Y-99561811D01*
X143572370Y-99348069D01*
X143601529Y-99126590D01*
X143603156Y-99060000D01*
X143584852Y-98837361D01*
X143530431Y-98620702D01*
X143441354Y-98415840D01*
X143320014Y-98228277D01*
X143169670Y-98063051D01*
X143165619Y-98059852D01*
X143165615Y-98059848D01*
X142998414Y-97927800D01*
X142998410Y-97927798D01*
X142994359Y-97924598D01*
X142953053Y-97901796D01*
X142903084Y-97851364D01*
X142888312Y-97781921D01*
X142913428Y-97715516D01*
X142940780Y-97688909D01*
X143014070Y-97636632D01*
X143119860Y-97561173D01*
X143278096Y-97403489D01*
X143408453Y-97222077D01*
X143507430Y-97021811D01*
X143572370Y-96808069D01*
X143601529Y-96586590D01*
X143603156Y-96520000D01*
X143584852Y-96297361D01*
X143530431Y-96080702D01*
X143441354Y-95875840D01*
X143320014Y-95688277D01*
X143169670Y-95523051D01*
X143165619Y-95519852D01*
X143165615Y-95519848D01*
X142998414Y-95387800D01*
X142998410Y-95387798D01*
X142994359Y-95384598D01*
X142953053Y-95361796D01*
X142903084Y-95311364D01*
X142888312Y-95241921D01*
X142913428Y-95175516D01*
X142940780Y-95148909D01*
X143014070Y-95096632D01*
X143119860Y-95021173D01*
X143278096Y-94863489D01*
X143408453Y-94682077D01*
X143507430Y-94481811D01*
X143572370Y-94268069D01*
X143601529Y-94046590D01*
X143603156Y-93980000D01*
X143584852Y-93757361D01*
X143530431Y-93540702D01*
X143441354Y-93335840D01*
X143320014Y-93148277D01*
X143169670Y-92983051D01*
X143165619Y-92979852D01*
X143165615Y-92979848D01*
X142998414Y-92847800D01*
X142998410Y-92847798D01*
X142994359Y-92844598D01*
X142953053Y-92821796D01*
X142903084Y-92771364D01*
X142888312Y-92701921D01*
X142913428Y-92635516D01*
X142940780Y-92608909D01*
X143014070Y-92556632D01*
X143119860Y-92481173D01*
X143278096Y-92323489D01*
X143408453Y-92142077D01*
X143507430Y-91941811D01*
X143572370Y-91728069D01*
X143601529Y-91506590D01*
X143603156Y-91440000D01*
X143584852Y-91217361D01*
X143530431Y-91000702D01*
X143441354Y-90795840D01*
X143320014Y-90608277D01*
X143169670Y-90443051D01*
X143165619Y-90439852D01*
X143165615Y-90439848D01*
X142998414Y-90307800D01*
X142998410Y-90307798D01*
X142994359Y-90304598D01*
X142953053Y-90281796D01*
X142903084Y-90231364D01*
X142888312Y-90161921D01*
X142913428Y-90095516D01*
X142940780Y-90068909D01*
X143014070Y-90016632D01*
X143119860Y-89941173D01*
X143278096Y-89783489D01*
X143408453Y-89602077D01*
X143507430Y-89401811D01*
X143572370Y-89188069D01*
X143601529Y-88966590D01*
X143603156Y-88900000D01*
X143584852Y-88677361D01*
X143530431Y-88460702D01*
X143441354Y-88255840D01*
X143320014Y-88068277D01*
X143169670Y-87903051D01*
X143165619Y-87899852D01*
X143165615Y-87899848D01*
X142998414Y-87767800D01*
X142998410Y-87767798D01*
X142994359Y-87764598D01*
X142953053Y-87741796D01*
X142903084Y-87691364D01*
X142888312Y-87621921D01*
X142913428Y-87555516D01*
X142940780Y-87528909D01*
X143014070Y-87476632D01*
X143119860Y-87401173D01*
X143278096Y-87243489D01*
X143408453Y-87062077D01*
X143507430Y-86861811D01*
X143572370Y-86648069D01*
X143601529Y-86426590D01*
X143603156Y-86360000D01*
X143584852Y-86137361D01*
X143530431Y-85920702D01*
X143441354Y-85715840D01*
X143320014Y-85528277D01*
X143169670Y-85363051D01*
X143165619Y-85359852D01*
X143165615Y-85359848D01*
X142998414Y-85227800D01*
X142998410Y-85227798D01*
X142994359Y-85224598D01*
X142953053Y-85201796D01*
X142903084Y-85151364D01*
X142888312Y-85081921D01*
X142913428Y-85015516D01*
X142940780Y-84988909D01*
X143014070Y-84936632D01*
X143119860Y-84861173D01*
X143278096Y-84703489D01*
X143408453Y-84522077D01*
X143507430Y-84321811D01*
X143572370Y-84108069D01*
X143601529Y-83886590D01*
X143603156Y-83820000D01*
X143584852Y-83597361D01*
X143530431Y-83380702D01*
X143441354Y-83175840D01*
X143320014Y-82988277D01*
X143169670Y-82823051D01*
X143165619Y-82819852D01*
X143165615Y-82819848D01*
X142998414Y-82687800D01*
X142998410Y-82687798D01*
X142994359Y-82684598D01*
X142953053Y-82661796D01*
X142903084Y-82611364D01*
X142888312Y-82541921D01*
X142913428Y-82475516D01*
X142940780Y-82448909D01*
X143014070Y-82396632D01*
X143119860Y-82321173D01*
X143278096Y-82163489D01*
X143408453Y-81982077D01*
X143507430Y-81781811D01*
X143572370Y-81568069D01*
X143601529Y-81346590D01*
X143603156Y-81280000D01*
X143584852Y-81057361D01*
X143530431Y-80840702D01*
X143441354Y-80635840D01*
X143320014Y-80448277D01*
X143169670Y-80283051D01*
X143165619Y-80279852D01*
X143165615Y-80279848D01*
X142998414Y-80147800D01*
X142998410Y-80147798D01*
X142994359Y-80144598D01*
X142953053Y-80121796D01*
X142903084Y-80071364D01*
X142888312Y-80001921D01*
X142913428Y-79935516D01*
X142940780Y-79908909D01*
X143014070Y-79856632D01*
X143119860Y-79781173D01*
X143278096Y-79623489D01*
X143408453Y-79442077D01*
X143507430Y-79241811D01*
X143572370Y-79028069D01*
X143601529Y-78806590D01*
X143603156Y-78740000D01*
X143584852Y-78517361D01*
X143530431Y-78300702D01*
X143441354Y-78095840D01*
X143320014Y-77908277D01*
X143169670Y-77743051D01*
X143165619Y-77739852D01*
X143165615Y-77739848D01*
X142998414Y-77607800D01*
X142998410Y-77607798D01*
X142994359Y-77604598D01*
X142953053Y-77581796D01*
X142903084Y-77531364D01*
X142888312Y-77461921D01*
X142913428Y-77395516D01*
X142940780Y-77368909D01*
X143014070Y-77316632D01*
X143119860Y-77241173D01*
X143278096Y-77083489D01*
X143408453Y-76902077D01*
X143507430Y-76701811D01*
X143572370Y-76488069D01*
X143601529Y-76266590D01*
X143603156Y-76200000D01*
X143584852Y-75977361D01*
X143530431Y-75760702D01*
X143441354Y-75555840D01*
X143320014Y-75368277D01*
X143169670Y-75203051D01*
X143165619Y-75199852D01*
X143165615Y-75199848D01*
X142998414Y-75067800D01*
X142998410Y-75067798D01*
X142994359Y-75064598D01*
X142953053Y-75041796D01*
X142903084Y-74991364D01*
X142888312Y-74921921D01*
X142913428Y-74855516D01*
X142940780Y-74828909D01*
X143014070Y-74776632D01*
X143119860Y-74701173D01*
X143278096Y-74543489D01*
X143408453Y-74362077D01*
X143507430Y-74161811D01*
X143572370Y-73948069D01*
X143601529Y-73726590D01*
X143603156Y-73660000D01*
X143584852Y-73437361D01*
X143530431Y-73220702D01*
X143441354Y-73015840D01*
X143320014Y-72828277D01*
X143169670Y-72663051D01*
X143165619Y-72659852D01*
X143165615Y-72659848D01*
X142998414Y-72527800D01*
X142998410Y-72527798D01*
X142994359Y-72524598D01*
X142953053Y-72501796D01*
X142903084Y-72451364D01*
X142888312Y-72381921D01*
X142913428Y-72315516D01*
X142940780Y-72288909D01*
X143014070Y-72236632D01*
X143119860Y-72161173D01*
X143278096Y-72003489D01*
X143408453Y-71822077D01*
X143507430Y-71621811D01*
X143572370Y-71408069D01*
X143601529Y-71186590D01*
X143603156Y-71120000D01*
X143584852Y-70897361D01*
X143530431Y-70680702D01*
X143441354Y-70475840D01*
X143320014Y-70288277D01*
X143169670Y-70123051D01*
X143165619Y-70119852D01*
X143165615Y-70119848D01*
X142998414Y-69987800D01*
X142998410Y-69987798D01*
X142994359Y-69984598D01*
X142953053Y-69961796D01*
X142903084Y-69911364D01*
X142888312Y-69841921D01*
X142913428Y-69775516D01*
X142940780Y-69748909D01*
X143014070Y-69696632D01*
X143119860Y-69621173D01*
X143278096Y-69463489D01*
X143408453Y-69282077D01*
X143507430Y-69081811D01*
X143572370Y-68868069D01*
X143601529Y-68646590D01*
X143603156Y-68580000D01*
X143584852Y-68357361D01*
X143530431Y-68140702D01*
X143441354Y-67935840D01*
X143320014Y-67748277D01*
X143169670Y-67583051D01*
X143165619Y-67579852D01*
X143165615Y-67579848D01*
X142998414Y-67447800D01*
X142998410Y-67447798D01*
X142994359Y-67444598D01*
X142953053Y-67421796D01*
X142903084Y-67371364D01*
X142888312Y-67301921D01*
X142913428Y-67235516D01*
X142940780Y-67208909D01*
X143014070Y-67156632D01*
X143119860Y-67081173D01*
X143278096Y-66923489D01*
X143408453Y-66742077D01*
X143507430Y-66541811D01*
X143572370Y-66328069D01*
X143601529Y-66106590D01*
X143603156Y-66040000D01*
X143584852Y-65817361D01*
X143530431Y-65600702D01*
X143441354Y-65395840D01*
X143320014Y-65208277D01*
X143169670Y-65043051D01*
X143165619Y-65039852D01*
X143165615Y-65039848D01*
X142998414Y-64907800D01*
X142998410Y-64907798D01*
X142994359Y-64904598D01*
X142953053Y-64881796D01*
X142903084Y-64831364D01*
X142888312Y-64761921D01*
X142913428Y-64695516D01*
X142940780Y-64668909D01*
X143014070Y-64616632D01*
X143119860Y-64541173D01*
X143278096Y-64383489D01*
X143408453Y-64202077D01*
X143507430Y-64001811D01*
X143572370Y-63788069D01*
X143601529Y-63566590D01*
X143603156Y-63500000D01*
X143584852Y-63277361D01*
X143530431Y-63060702D01*
X143441354Y-62855840D01*
X143320014Y-62668277D01*
X143316532Y-62664450D01*
X143172798Y-62506488D01*
X143141746Y-62442642D01*
X143150141Y-62372143D01*
X143195317Y-62317375D01*
X143221761Y-62303706D01*
X143328297Y-62263767D01*
X143336705Y-62260615D01*
X143453261Y-62173261D01*
X143540615Y-62056705D01*
X143591745Y-61920316D01*
X143598500Y-61858134D01*
X143598500Y-60061866D01*
X143591745Y-59999684D01*
X143540615Y-59863295D01*
X143453261Y-59746739D01*
X143336705Y-59659385D01*
X143200316Y-59608255D01*
X143138134Y-59601500D01*
X143001000Y-59601500D01*
X142932879Y-59581498D01*
X142886386Y-59527842D01*
X142875000Y-59475500D01*
X142875000Y-19048290D01*
X143074958Y-19153970D01*
G37*
G04 #@! TD.AperFunction*
M02*
